<svg xmlns="http://www.w3.org/2000/svg" xmlns:xlink="http://www.w3.org/1999/xlink" width="1440" height="210" viewBox="0 0 1440 210">
  <defs>
    <linearGradient id="linear-gradient" x1="1.163" y1="0.5" x2="-0.938" y2="-0.63" gradientUnits="objectBoundingBox">
      <stop offset="0" stop-color="#133eaf"/>
      <stop offset="1" stop-color="#002ea6"/>
    </linearGradient>
    <linearGradient id="linear-gradient-2" x1="-0.163" y1="0.5" x2="1.938" y2="-0.63" xlink:href="#linear-gradient"/>
    <linearGradient id="linear-gradient-3" x1="1.362" y1="-0.371" x2="0.187" y2="1.063" gradientUnits="objectBoundingBox">
      <stop offset="0" stop-color="#285ce5"/>
      <stop offset="1" stop-color="#002ea6"/>
    </linearGradient>
    <clipPath id="clip-bannermecanica">
      <rect width="1440" height="210"/>
    </clipPath>
  </defs>
  <g id="bannermecanica" clip-path="url(#clip-bannermecanica)">
    <rect width="1440" height="210" fill="#fff"/>
    <g id="Grupo_397" data-name="Grupo 397" transform="translate(1459.912 648.994)">
      <g id="Grupo_363" data-name="Grupo 363" transform="translate(-312.912 -562.379)">
        <g id="Grupo_359" data-name="Grupo 359" transform="translate(43.655 9.327)">
          <g id="Grupo_357" data-name="Grupo 357" transform="translate(2.086 2.086)">
            <path id="Trazado_622" data-name="Trazado 622" d="M-102.486-441.423a7.9,7.9,0,0,1-2.907-.547,7.769,7.769,0,0,1-2.45-1.538,7.483,7.483,0,0,1-1.706-2.37,7.1,7.1,0,0,1-.512-1.585,5.872,5.872,0,0,1-3.872-1.868,5.052,5.052,0,0,1-.56-.738c-.1.111-.2.22-.307.326a11.185,11.185,0,0,1-1.816,1.545,4.456,4.456,0,0,1-2.469.832,7.7,7.7,0,0,1-3.26-.7,8.19,8.19,0,0,1-2.546-1.832q-.205-.22-.395-.455a17.391,17.391,0,0,1-1.494,1.389,6.31,6.31,0,0,1-4.03,1.6,6.265,6.265,0,0,1-4.667-1.877,7.237,7.237,0,0,1-1.756-5.188,8.749,8.749,0,0,1,.354-2.248,24.915,24.915,0,0,1-1.884,2.8,2.309,2.309,0,0,1-1.183.819,12.133,12.133,0,0,1-2.587,1.615,8.8,8.8,0,0,1-3.518.809,14.1,14.1,0,0,1-2.829,2.1,9.086,9.086,0,0,1-4.47,1.174,10.949,10.949,0,0,1-3.106-.433,7.147,7.147,0,0,1-2.9-1.658,7.016,7.016,0,0,1-.937-1.084,16.387,16.387,0,0,1-1.534,1.536,6.074,6.074,0,0,1-4.05,1.64,6.3,6.3,0,0,1-4.625-1.859,5.551,5.551,0,0,1-.64-.789q-.166.181-.33.351a10.425,10.425,0,0,1-1.779,1.5,4.435,4.435,0,0,1-2.426.795,7.683,7.683,0,0,1-3.259-.7,8.176,8.176,0,0,1-2.546-1.83c-.167-.177-.325-.363-.475-.555a15.23,15.23,0,0,1-1.438,1.407,6.1,6.1,0,0,1-4.007,1.627,6.16,6.16,0,0,1-4.754-1.912,5.057,5.057,0,0,1-.56-.738q-.153.167-.307.326a11.158,11.158,0,0,1-1.817,1.545,4.452,4.452,0,0,1-2.468.832,7.687,7.687,0,0,1-3.26-.7,8.173,8.173,0,0,1-2.545-1.83,7.9,7.9,0,0,1-.565-.673,17.3,17.3,0,0,1-1.7,1.605,6.308,6.308,0,0,1-4.03,1.6,6.294,6.294,0,0,1-4.623-1.859,7.158,7.158,0,0,1-1.8-5.205,6.806,6.806,0,0,1,.09-1.067,23.371,23.371,0,0,0-1.237,2.8,7.7,7.7,0,0,0-.517,2.606,2.418,2.418,0,0,1-1.423,2.162,3.355,3.355,0,0,1-1.519.352,4.252,4.252,0,0,1-1.955-.557,9.184,9.184,0,0,1-1.6-1.074c-.124-.1-.243-.209-.359-.32q-.264.25-.538.485a6.113,6.113,0,0,1-4.009,1.627,6.141,6.141,0,0,1-4.754-1.912,5.185,5.185,0,0,1-.56-.738q-.152.166-.306.325a11.288,11.288,0,0,1-1.816,1.545,4.46,4.46,0,0,1-2.47.832,7.705,7.705,0,0,1-3.26-.7A8.184,8.184,0,0,1-244.6-449.9a8.361,8.361,0,0,1-1.678-2.669,8.678,8.678,0,0,1-.6-3.2,15.433,15.433,0,0,1,1-5.081,24.639,24.639,0,0,1,2.6-5.266,18.641,18.641,0,0,1,3.891-4.366,8.425,8.425,0,0,1,5.352-2.043,6.057,6.057,0,0,1,2.645.581,10.029,10.029,0,0,1,1.559.931,2.373,2.373,0,0,1,1.793-.87,6.916,6.916,0,0,1,1.993.33,9.22,9.22,0,0,1,1.941.833,5.564,5.564,0,0,1,1.655,1.393,2.8,2.8,0,0,1,.6,2c.211-.582.4-1.115.553-1.594a8.21,8.21,0,0,0,.273-.965,3.072,3.072,0,0,1,.289-1.17,2.563,2.563,0,0,1,2.439-1.473,6.137,6.137,0,0,1,1.788.305,7.444,7.444,0,0,1,1.792.823,6.941,6.941,0,0,1,1.459,1.232,4.348,4.348,0,0,1,.359.463,14.017,14.017,0,0,1,2.217-1.546,5.814,5.814,0,0,1,2.772-.847,5.706,5.706,0,0,1,4.205,1.574,6,6,0,0,1,1.575,4.42,5.466,5.466,0,0,1-.032.576c.122-.2.246-.4.373-.591a18.7,18.7,0,0,1,3.89-4.365,8.426,8.426,0,0,1,5.353-2.044,6.041,6.041,0,0,1,2.645.582,9.909,9.909,0,0,1,1.558.93,2.375,2.375,0,0,1,1.793-.87,6.912,6.912,0,0,1,1.992.33,9.158,9.158,0,0,1,1.941.833,5.55,5.55,0,0,1,1.658,1.395A2.659,2.659,0,0,1-181-465.87a10.287,10.287,0,0,0-1.123,1.9,26.822,26.822,0,0,0-1.241,3.08c-.279.825-.525,1.672-.735,2.53q.3-.472.594-.978c.24-.414.46-.827.654-1.232.029-.1.058-.19.093-.289a24.611,24.611,0,0,1,2.6-5.264,18.684,18.684,0,0,1,3.89-4.365,8.425,8.425,0,0,1,5.354-2.044,6.257,6.257,0,0,1,2.366.449,8.016,8.016,0,0,1,1.2.611q.285-.742.569-1.457c.562-1.414,1.114-2.729,1.639-3.907.008-.019.017-.037.025-.056a7.011,7.011,0,0,1-1.52.166,8.073,8.073,0,0,1-6.007-2.4,7.375,7.375,0,0,1-1.537-2.359,24.605,24.605,0,0,1-3.833,2.731,15.527,15.527,0,0,1-7.917,2.032,12.533,12.533,0,0,1-5.271-1.078,11.371,11.371,0,0,1-3.961-2.977,12.812,12.812,0,0,1-1.763-2.708c-.015.018-.031.035-.045.053a21.8,21.8,0,0,1-3.585,3.3,19.55,19.55,0,0,1-4.406,2.428,14.542,14.542,0,0,1-5.356.983,12.536,12.536,0,0,1-5.271-1.078,11.362,11.362,0,0,1-3.961-2.977,12.682,12.682,0,0,1-1.633-2.448l-.015.015a23.263,23.263,0,0,1-5.592,4.456,15.528,15.528,0,0,1-7.918,2.032,12.534,12.534,0,0,1-5.27-1.078,11.372,11.372,0,0,1-3.961-2.977,13.079,13.079,0,0,1-2.388-4.218A15.271,15.271,0,0,1-247.13-490a19.688,19.688,0,0,1,1.5-7.254,25.391,25.391,0,0,1,3.953-6.727,23.781,23.781,0,0,1,5.627-5.03,12.92,12.92,0,0,1,6.985-2.14,9.6,9.6,0,0,1,3.448.643,8.919,8.919,0,0,1,3.016,1.917,9.035,9.035,0,0,1,2.062,3.064,10.313,10.313,0,0,1,.738,3.973v.077a10.5,10.5,0,0,1-.162,1.489,25.132,25.132,0,0,1,2.676-3.993,23.778,23.778,0,0,1,5.628-5.031,12.915,12.915,0,0,1,6.984-2.139,9.744,9.744,0,0,1,4.07.807,9.847,9.847,0,0,1,2.885,1.966A7.9,7.9,0,0,1-195.9-505.6a8.11,8.11,0,0,1,.56,2.864,6.212,6.212,0,0,1-1.911,4.929,6.967,6.967,0,0,1-3.578,1.727,7.5,7.5,0,0,1-1.081.082,5.33,5.33,0,0,1-2.322-.5,2.811,2.811,0,0,1-1.685-1.978,2.646,2.646,0,0,1,.668-2.318,6.226,6.226,0,0,0,1.106-1.59,3.509,3.509,0,0,0,.344-1.139,3.762,3.762,0,0,0-1.54.961,15.182,15.182,0,0,0-2.707,3.51,22.677,22.677,0,0,0-2.049,4.753,14.091,14.091,0,0,0-.683,4.515,4.932,4.932,0,0,0,.836,2.829c.131.18.531.729,2.1.729a6.612,6.612,0,0,0,3.6-1.034,15.969,15.969,0,0,0,3.347-2.763,18.484,18.484,0,0,0,2.395-3.222c.307-.535.565-1,.782-1.415a22.975,22.975,0,0,1,.863-2.6,25.373,25.373,0,0,1,3.952-6.725,23.777,23.777,0,0,1,5.627-5.031,12.915,12.915,0,0,1,6.984-2.139,9.6,9.6,0,0,1,3.447.643,8.959,8.959,0,0,1,1.582.79,9.246,9.246,0,0,1-.412-1.553,2.8,2.8,0,0,1,.488-2.341,2.205,2.205,0,0,1,1.685-.78h.274l.264.07a19.17,19.17,0,0,0,1.91.419c.621.1,1.236.186,1.85.259.585.07,1.215.118,1.874.141.3.011.614.019.94.025q.424-.993.929-2.164.854-1.979,1.67-3.806c.55-1.23,1.069-2.336,1.543-3.285a8.37,8.37,0,0,1,1.395-2.24,3.636,3.636,0,0,1,2.67-1.009,6.223,6.223,0,0,1,.93.074,11.549,11.549,0,0,1,3.015.894,9.149,9.149,0,0,1,2.546,1.661,3.214,3.214,0,0,1,1.133,2.293,2.607,2.607,0,0,1-.705,1.809c-.051.077-.2.315-.511.917q-.571,1.1-1.252,2.5-.614,1.264-1.2,2.527a4.481,4.481,0,0,1,1.2,1.011,8.8,8.8,0,0,1,1.222,1.829,7.469,7.469,0,0,1,.688,1.939,3.211,3.211,0,0,1,.051.82q.41-.364.832-.705a11.254,11.254,0,0,1,7.138-2.74,7.8,7.8,0,0,1,3.412.747,13.231,13.231,0,0,1,2.388,1.472q.22.172.424.347a3,3,0,0,1,2.42-1.64,9.08,9.08,0,0,1,2.606.436,12.187,12.187,0,0,1,2.6,1.117,7.1,7.1,0,0,1,2.117,1.771,2.945,2.945,0,0,1-.034,3.828,15.729,15.729,0,0,0-1.747,2.942,39.846,39.846,0,0,0-1.832,4.547,45.125,45.125,0,0,0-1.4,5.128,25.656,25.656,0,0,0-.417,2.6q.539-.619,1.1-1.373a37.072,37.072,0,0,0,2.188-3.359c.161-.277.314-.552.459-.822l.523-1.32q.785-1.887,1.528-3.889t1.266-3.488a22.91,22.91,0,0,1,1.43-4.3,11.283,11.283,0,0,1,1.638-2.649,5.357,5.357,0,0,1,1.745-1.4,3.461,3.461,0,0,1,1.434-.377,7.191,7.191,0,0,1,2.443.471,11.3,11.3,0,0,1,2.226,1.09,8.8,8.8,0,0,1,1.872,1.575,4.087,4.087,0,0,1,1.1,2.733,2.758,2.758,0,0,1-1.63,2.8,11.424,11.424,0,0,0-1.126,2.8,12.143,12.143,0,0,0-.332,2.731,10.854,10.854,0,0,0,.353,2.815c.268,1,.579,2.023.924,3.032.373,1.1.712,2.206,1.005,3.3a15.067,15.067,0,0,1,.5,3.9,15.074,15.074,0,0,1-1.405,6.621,16.486,16.486,0,0,1-3.407,4.766l-.111.106a7.628,7.628,0,0,1,2.511-.426,6.042,6.042,0,0,1,2.645.582,9.97,9.97,0,0,1,1.558.93,2.371,2.371,0,0,1,1.793-.87,6.921,6.921,0,0,1,1.994.33,9.176,9.176,0,0,1,1.939.832,5.587,5.587,0,0,1,1.658,1.395,2.9,2.9,0,0,1,.6,1.5,11.369,11.369,0,0,1,.432-1.053,8.412,8.412,0,0,1,1.237-1.989,4.316,4.316,0,0,1,1.423-1.129,3.028,3.028,0,0,1,1.26-.319,5.61,5.61,0,0,1,1.909.364,8.526,8.526,0,0,1,1.672.818,6.718,6.718,0,0,1,1.436,1.21,3.459,3.459,0,0,1,.925,2.318,2.588,2.588,0,0,1-1.307,2.432,7.019,7.019,0,0,0-.62,1.6,7.7,7.7,0,0,0-.214,1.751,6.892,6.892,0,0,0,.223,1.786c.183.684.394,1.377.629,2.062.268.791.507,1.574.71,2.331a11.11,11.11,0,0,1,.366,2.87,11.084,11.084,0,0,1-1.039,4.872,12.1,12.1,0,0,1-2.5,3.489,10.968,10.968,0,0,1-3.34,2.21A9.3,9.3,0,0,1-102.486-441.423Zm-.535-6.529a.681.681,0,0,0,.243-.106,1.712,1.712,0,0,0,.507-.572,4.009,4.009,0,0,0,.26-.5,2.206,2.206,0,0,1-.791.25c-.051.012-.086.036-.149.129a1.138,1.138,0,0,0-.233.662.857.857,0,0,0,.01.134C-103.133-447.954-103.082-447.952-103.022-447.952Zm1.166-5.036a3.44,3.44,0,0,1,.491.524c0-.131,0-.264,0-.4q0-.433-.033-.875Q-101.615-453.364-101.856-452.987Zm-51.173-2.46c.227,0,.293-.058.332-.092a3.828,3.828,0,0,0,.5-.551,8.538,8.538,0,0,1-.079-1.179,4.705,4.705,0,0,1,1.226-3.265,4.976,4.976,0,0,1,1.441-1.093c.15-.508.276-1,.375-1.475a9.429,9.429,0,0,0,.225-1.877c0-.127,0-.237-.013-.333a3.821,3.821,0,0,0-.337.282,9.418,9.418,0,0,0-1.678,2.172,21.044,21.044,0,0,0-1.487,3.121,10.508,10.508,0,0,0-.7,2.854,3.746,3.746,0,0,0,.1,1.434C-153.1-455.449-153.066-455.448-153.029-455.448Zm50.252-10.422a10.291,10.291,0,0,0-1.122,1.9,26.943,26.943,0,0,0-1.242,3.081c-.28.827-.526,1.675-.735,2.531.2-.316.4-.643.595-.979.1-.178.2-.351.293-.522l.349-.882c.362-.869.712-1.76,1.055-2.683q.5-1.356.864-2.38c.016-.067.033-.134.049-.2C-102.705-465.956-102.74-465.913-102.777-465.869Zm-119.515-.262a2.987,2.987,0,0,1-.2.264,10.315,10.315,0,0,0-1.121,1.9,27.1,27.1,0,0,0-1.241,3.08c-.279.822-.525,1.669-.735,2.53.2-.315.4-.642.595-.978.218-.376.419-.751.6-1.115.291-.818.592-1.649.912-2.5Q-222.854-464.648-222.292-466.132ZM-113.656-464a13.437,13.437,0,0,0-1.893,2.549,17.2,17.2,0,0,0-1.4,3.044q.274-.387.551-.8c.562-.834,1.1-1.679,1.605-2.512a23.819,23.819,0,0,0,1.205-2.236c.033-.071.065-.14.095-.206C-113.543-464.116-113.6-464.064-113.656-464Zm-56.593,0a13.372,13.372,0,0,0-1.891,2.547,17.269,17.269,0,0,0-1.4,3.045c.184-.258.368-.526.553-.8.562-.834,1.1-1.679,1.6-2.511a24.107,24.107,0,0,0,1.206-2.236c.033-.072.065-.141.094-.207C-170.135-464.116-170.19-464.063-170.249-464Zm-21.631,0a13.385,13.385,0,0,0-1.891,2.548,17.191,17.191,0,0,0-1.4,3.044c.184-.258.367-.526.553-.8.561-.833,1.1-1.678,1.6-2.511a23.959,23.959,0,0,0,1.206-2.236c.033-.072.065-.141.094-.207C-191.766-464.116-191.821-464.063-191.879-464Zm-41.494,0a13.407,13.407,0,0,0-1.89,2.546,17.21,17.21,0,0,0-1.4,3.044q.273-.386.551-.8c.563-.834,1.1-1.678,1.6-2.51a23.73,23.73,0,0,0,1.206-2.237c.033-.072.065-.141.094-.207C-233.259-464.117-233.315-464.064-233.373-464Zm78.24-12.773a7.67,7.67,0,0,0-.906,1.353,35.955,35.955,0,0,0-1.768,3.591c-.623,1.438-1.268,3.037-1.916,4.752s-1.233,3.4-1.756,5.057c-.392,1.245-.727,2.441-1,3.567q.252-.4.5-.825c.234-.4.442-.795.634-1.192a15.655,15.655,0,0,1,.635-1.879,21.308,21.308,0,0,1,2.882-4.986,17.132,17.132,0,0,1,3.787-3.623,7.719,7.719,0,0,1,4.334-1.567,9.823,9.823,0,0,1,4.178.814,7.609,7.609,0,0,1,2.86,2.255,8.15,8.15,0,0,1,.808,1.3,7.745,7.745,0,0,1-.4-2.386,7.31,7.31,0,0,1,.722-3.005,12.141,12.141,0,0,1,1.617-2.617,11.522,11.522,0,0,1,1.049-1.129,7.156,7.156,0,0,1-2.973-1.954,7.017,7.017,0,0,1-1.291-2.069q-.645.774-1.3,1.455a15.282,15.282,0,0,1-2.466,2.1,5.53,5.53,0,0,1-3.048,1.045,10.174,10.174,0,0,1-4.311-.927l-.082-.038a2.507,2.507,0,0,1-.784.912ZM-125.9-461.56c-.319.7-.629,1.438-.922,2.2q-.15.388-.287.782.234-.357.459-.731l.031-.055c.143-.533.291-1.013.458-1.49Q-126.04-461.206-125.9-461.56Zm-15.464-5.381q.091.285.163.58a13.2,13.2,0,0,1,.382,3.148c0,.143,0,.284-.006.426q.24-.514.487-1.067.294-.652.567-1.3A5.065,5.065,0,0,1-141.368-466.941Zm16.347-1.265a5.632,5.632,0,0,1,.319.508,3.962,3.962,0,0,1,.529,1.925,3.756,3.756,0,0,1-.076.771q.326-.565.686-1.115a19.4,19.4,0,0,1,2.6-3.212c-.1.043-.195.086-.291.126A13.262,13.262,0,0,1-125.02-468.206Zm-1.6-10.692a1.233,1.233,0,0,0-.849.586,2.6,2.6,0,0,0-.492,1.468,1.518,1.518,0,0,0,.3.985,1.821,1.821,0,0,0,.852.136,1.672,1.672,0,0,0,.821-.282,3.381,3.381,0,0,0,1.04-1.127,9.467,9.467,0,0,0,1.023-2.576,16.209,16.209,0,0,0,.434-4.018,19.09,19.09,0,0,0-.378-3.711c-.065.1-.13.186-.193.27a6.326,6.326,0,0,1-.632.734c-.5.9-1.059,1.823-1.67,2.742a3.3,3.3,0,0,1,1.719,2.569A2.212,2.212,0,0,1-126.619-478.9Zm-36.983-6.545-22.851-3.932c.006.116.013.232.022.345a3.974,3.974,0,0,0,.442,1.6,2.294,2.294,0,0,0,.862.883,3.3,3.3,0,0,0,1.674.326,7.209,7.209,0,0,0,3.886-1.042A14.749,14.749,0,0,0-176.251-490a15.161,15.161,0,0,0,2.208-3.149c.255-.5.476-.944.668-1.339.074-.265.237-.836.242-.851a13.606,13.606,0,0,1-2.991,3.143,14.516,14.516,0,0,1-5.536,2.543,13.824,13.824,0,0,1-3.18.359Q-185.626-489.293-186.452-489.375Zm-48.778,0c0,.117.012.232.022.346a3.984,3.984,0,0,0,.441,1.6,2.3,2.3,0,0,0,.862.883,3.306,3.306,0,0,0,1.674.326,7.22,7.22,0,0,0,3.888-1.042A14.759,14.759,0,0,0-225.029-490a15.136,15.136,0,0,0,2.208-3.149q.389-.761.679-1.36c.071-.277.149-.554.232-.832A13.607,13.607,0,0,1-224.9-492.2a14.494,14.494,0,0,1-5.535,2.543,13.814,13.814,0,0,1-3.179.359Q-234.4-489.293-235.23-489.375Zm77.375-16.207c-1.625,3.781-2.984,7.374-4.047,10.7a36.174,36.174,0,0,0-1.6,7.125q.562-.642,1.156-1.422a32.109,32.109,0,0,0,2.21-3.332c.065-.114.127-.225.188-.336.19-.7.408-1.4.65-2.087a34.511,34.511,0,0,1,3.655-7.394,27.856,27.856,0,0,1,2.345-3.112c-.07.005-.141.008-.211.008a5.024,5.024,0,0,1-.728-.061h0s-.148-.017-.546-.017-.972-.013-1.7-.04C-156.864-505.565-157.324-505.576-157.855-505.582Zm16.542,4.084c-.015,0-.492.058-1.481,1.069a20.251,20.251,0,0,0-2.859,3.848,26.117,26.117,0,0,0-2.32,5.218,18.607,18.607,0,0,0-.8,3.542q.513-.565,1.081-1.279c.764-.962,1.562-2.06,2.371-3.261.823-1.221,1.609-2.451,2.338-3.658a35.48,35.48,0,0,0,1.784-3.312,13.724,13.724,0,0,0,.777-1.987A1.784,1.784,0,0,0-141.313-501.5Zm-39.771-.948a11.248,11.248,0,0,0-1.12,1.3,20.889,20.889,0,0,0-1.494,2.337c.054-.051.106-.1.159-.154a12.348,12.348,0,0,0,1.749-2.212A13.874,13.874,0,0,0-181.084-502.446Zm-48.778,0a11.16,11.16,0,0,0-1.121,1.3,20.913,20.913,0,0,0-1.494,2.335c.054-.05.106-.1.158-.153a12.379,12.379,0,0,0,1.749-2.213A13.849,13.849,0,0,0-229.861-502.446Zm58.1-3.081a10.184,10.184,0,0,1,.737,3.739c.437-1.227.907-2.5,1.409-3.8h-1.257a3.558,3.558,0,0,1-.973-.134Q-171.8-505.626-171.764-505.527Z" transform="translate(247.13 525.981)" fill="#fff"/>
          </g>
          <g id="Grupo_358" data-name="Grupo 358">
            <path id="Trazado_623" data-name="Trazado 623" d="M-159.092-524.809a4.188,4.188,0,0,1,.619.051,9.425,9.425,0,0,1,2.469.734,7.035,7.035,0,0,1,1.968,1.273q.772.734.309,1.2a7.135,7.135,0,0,0-.81,1.351q-.58,1.119-1.274,2.547t-1.351,2.855q-.657,1.429-1.119,2.354h1.929q.308,0,.85.617a6.66,6.66,0,0,1,.926,1.389,5.474,5.474,0,0,1,.5,1.389c.076.413-.039.618-.348.618a3.074,3.074,0,0,1-.425-.039,6.8,6.8,0,0,0-.848-.039q-.58,0-1.621-.038t-2.818-.039a124.123,124.123,0,0,0-4.67,12.156,33.067,33.067,0,0,0-1.813,9.842q0,1.544,1,1.543.539,0,1.66-1.08a24.076,24.076,0,0,0,2.354-2.7,34.005,34.005,0,0,0,2.354-3.55c.118-.2.225-.4.334-.6.183-.7.4-1.421.669-2.18a32.282,32.282,0,0,1,3.434-6.946,23.83,23.83,0,0,1,4.978-5.6A9.191,9.191,0,0,1-144-509.978a5.72,5.72,0,0,1,2.509.54,11.08,11.08,0,0,1,2.006,1.236,8.245,8.245,0,0,1,1.428,1.389q.539.695.695.926a22.022,22.022,0,0,1,1.234-2.316q.54-.849.773-.85a7.148,7.148,0,0,1,2.007.347,10.11,10.11,0,0,1,2.161.926,5.051,5.051,0,0,1,1.5,1.234.865.865,0,0,1,.039,1.2,17.574,17.574,0,0,0-2.046,3.4,41.863,41.863,0,0,0-1.929,4.786,47.054,47.054,0,0,0-1.467,5.363,24.964,24.964,0,0,0-.579,5.133,2.054,2.054,0,0,0,.27,1.119.774.774,0,0,0,.656.424q.54,0,1.7-1.081a19.747,19.747,0,0,0,2.354-2.7,38.944,38.944,0,0,0,2.315-3.551q.292-.5.55-.989l.568-1.436q.771-1.85,1.544-3.929t1.312-3.619a21.414,21.414,0,0,1,1.312-4,9.4,9.4,0,0,1,1.312-2.156,3.546,3.546,0,0,1,1.042-.885,1.794,1.794,0,0,1,.579-.193,5.2,5.2,0,0,1,1.737.348,9.15,9.15,0,0,1,1.813.888,6.674,6.674,0,0,1,1.428,1.2,2.034,2.034,0,0,1,.579,1.352c0,.566-.143.861-.424.887s-.553.245-.811.656a13.9,13.9,0,0,0-1.466,3.589,14.094,14.094,0,0,0-.386,3.2,12.876,12.876,0,0,0,.425,3.358q.422,1.583.964,3.165t.965,3.164a12.939,12.939,0,0,1,.424,3.357,12.958,12.958,0,0,1-1.2,5.712,14.359,14.359,0,0,1-2.971,4.167,12.739,12.739,0,0,1-3.9,2.585,10.358,10.358,0,0,1-3.975.888,8.331,8.331,0,0,1-3.087-.579,8.169,8.169,0,0,1-2.586-1.621c-.152-.142-.293-.293-.432-.445-.05.215-.105.437-.17.674a41.181,41.181,0,0,1-1.339,3.912,1.617,1.617,0,0,0,.75.107,11.831,11.831,0,0,0,1.821-.161,11.771,11.771,0,0,1,1.82-.16,2.378,2.378,0,0,1,1.07.268,4.106,4.106,0,0,1,.964.672,3.647,3.647,0,0,1,.7.887,1.894,1.894,0,0,1,.268.912,1.071,1.071,0,0,1-.161.645q-.481.805-1.124,2.149t-1.231,2.874a28.116,28.116,0,0,0-.992,3.089,11.351,11.351,0,0,0-.4,2.794,1.429,1.429,0,0,0,.187.779.535.535,0,0,0,.455.295q.372,0,1.2-.749a16.665,16.665,0,0,0,1.74-1.874,21.353,21.353,0,0,0,1.713-2.463c.067-.112.127-.22.191-.33.131-.512.282-1.038.478-1.6a22.447,22.447,0,0,1,2.382-4.819,16.546,16.546,0,0,1,3.454-3.881,6.373,6.373,0,0,1,4.043-1.58,3.961,3.961,0,0,1,1.74.375,7.682,7.682,0,0,1,1.392.857,5.752,5.752,0,0,1,.99.964q.374.482.482.643a15.5,15.5,0,0,1,.857-1.606q.373-.588.535-.589a4.925,4.925,0,0,1,1.392.241,7.017,7.017,0,0,1,1.5.642,3.5,3.5,0,0,1,1.044.857.6.6,0,0,1,.026.83,12.253,12.253,0,0,0-1.418,2.356,29.042,29.042,0,0,0-1.339,3.319,32.645,32.645,0,0,0-1.017,3.722,17.267,17.267,0,0,0-.4,3.56,1.417,1.417,0,0,0,.187.776.536.536,0,0,0,.455.295q.374,0,1.179-.75A13.629,13.629,0,0,0-106-456.738a26.46,26.46,0,0,0,1.607-2.463c.136-.234.262-.462.382-.686.133-.334.266-.67.394-1q.535-1.283,1.071-2.725t.91-2.51a14.9,14.9,0,0,1,.909-2.779,6.561,6.561,0,0,1,.911-1.5,2.466,2.466,0,0,1,.723-.615,1.255,1.255,0,0,1,.4-.133,3.609,3.609,0,0,1,1.205.241,6.382,6.382,0,0,1,1.258.615,4.618,4.618,0,0,1,.99.83,1.406,1.406,0,0,1,.4.937c0,.393-.1.6-.295.616s-.383.17-.562.455a9.641,9.641,0,0,0-1.017,2.489,9.762,9.762,0,0,0-.268,2.223,8.919,8.919,0,0,0,.295,2.328q.293,1.1.67,2.2t.669,2.2a9,9,0,0,1,.293,2.329,8.983,8.983,0,0,1-.83,3.963,9.965,9.965,0,0,1-2.061,2.891,8.844,8.844,0,0,1-2.7,1.794,7.2,7.2,0,0,1-2.758.616,5.8,5.8,0,0,1-2.142-.4,5.644,5.644,0,0,1-1.793-1.125,5.381,5.381,0,0,1-1.231-1.713,5.021,5.021,0,0,1-.455-2.115,3.546,3.546,0,0,1,.121-.88,3.352,3.352,0,0,1-1.191.237,4.127,4.127,0,0,1-3.212-1.232q-1.125-1.231-1.125-4.176a19.992,19.992,0,0,1-1.311,1.981,18.408,18.408,0,0,1-1.472,1.74,9.044,9.044,0,0,1-1.473,1.258,2.431,2.431,0,0,1-1.311.482,5.591,5.591,0,0,1-2.383-.509,6.071,6.071,0,0,1-1.9-1.364,6.274,6.274,0,0,1-1.258-2.008,6.35,6.35,0,0,1-.261-.848c-.229.333-.469.669-.728,1.008a15.6,15.6,0,0,1-2.49,2.6,4.281,4.281,0,0,1-2.7,1.124,4.163,4.163,0,0,1-3.159-1.231,5.239,5.239,0,0,1-1.178-3.747,9.1,9.1,0,0,1,.59-2.7q.588-1.74,1.311-3.507t1.419-3.213q.7-1.446.911-1.82c0,.015,0,.022,0,.022s.011-.016.022-.048c.017-.054-.009-.081-.081-.081a8.422,8.422,0,0,0-.937.214,6.919,6.919,0,0,1-1.74.215,3.866,3.866,0,0,1-1.124-.161q-1.714,3.856-3.132,6.425a28.914,28.914,0,0,1-2.489,3.909.277.277,0,0,1-.218.131.3.3,0,0,1-.156-.052s-.007-.008-.011-.01c-.118.111-.236.221-.364.331a9.885,9.885,0,0,1-2.275,1.446,6.777,6.777,0,0,1-2.918.616,1.484,1.484,0,0,1-.295-.027,1.229,1.229,0,0,0-.241-.027,12.3,12.3,0,0,1-3.025,2.409,6.991,6.991,0,0,1-3.454.91,8.852,8.852,0,0,1-2.516-.348,5.058,5.058,0,0,1-2.062-1.178,5.7,5.7,0,0,1-1.392-2.169,7.744,7.744,0,0,1-.415-1.806c-.334.583-.709,1.176-1.137,1.779a14.776,14.776,0,0,1-2.329,2.6,4.034,4.034,0,0,1-2.676,1.124,4.185,4.185,0,0,1-3.133-1.231,5.166,5.166,0,0,1-1.205-3.747v-.322q-.589.965-1.311,1.927a18.126,18.126,0,0,1-1.446,1.713,8.345,8.345,0,0,1-1.418,1.205,2.4,2.4,0,0,1-1.286.455,5.588,5.588,0,0,1-2.382-.509,6.07,6.07,0,0,1-1.9-1.364,6.272,6.272,0,0,1-1.258-2.008,6.4,6.4,0,0,1-.346-1.214c-.265.433-.549.873-.859,1.321a13.529,13.529,0,0,1-2.329,2.6,4.074,4.074,0,0,1-2.649,1.125,4.128,4.128,0,0,1-3.213-1.232q-1.125-1.231-1.125-4.176a19.981,19.981,0,0,1-1.311,1.981,18.318,18.318,0,0,1-1.473,1.74,9.011,9.011,0,0,1-1.472,1.258,2.43,2.43,0,0,1-1.311.482,5.588,5.588,0,0,1-2.382-.509,6.082,6.082,0,0,1-1.9-1.364,6.272,6.272,0,0,1-1.257-2.008,6.389,6.389,0,0,1-.352-1.257q-.465.7-1.013,1.417a15.648,15.648,0,0,1-2.489,2.6,4.281,4.281,0,0,1-2.7,1.124,4.183,4.183,0,0,1-3.132-1.231,5.164,5.164,0,0,1-1.205-3.747,8.5,8.5,0,0,1,.588-2.678q.589-1.659,1.312-3.319t1.339-3.053a6.064,6.064,0,0,0,.615-1.873c0-.286-.072-.429-.214-.429s-.481.241-1.017.723a20.688,20.688,0,0,0-1.848,1.954q-1.043,1.233-2.222,2.811a28.019,28.019,0,0,0-2.142,3.347,25.718,25.718,0,0,0-1.606,3.534,9.733,9.733,0,0,0-.642,3.319c0,.107-.09.206-.268.295a1.29,1.29,0,0,1-.588.134,2.317,2.317,0,0,1-.991-.321,7.031,7.031,0,0,1-1.231-.83,4.657,4.657,0,0,1-1.043-1.232,3.038,3.038,0,0,1-.369-.968,13.454,13.454,0,0,1-2.174,2.387,4.074,4.074,0,0,1-2.65,1.125,4.127,4.127,0,0,1-3.212-1.232q-1.124-1.231-1.125-4.176a20.111,20.111,0,0,1-1.311,1.981,18.616,18.616,0,0,1-1.473,1.74,9.1,9.1,0,0,1-1.473,1.258,2.43,2.43,0,0,1-1.311.482,5.593,5.593,0,0,1-2.383-.509,6.078,6.078,0,0,1-1.9-1.364,6.261,6.261,0,0,1-1.258-2.008,6.558,6.558,0,0,1-.455-2.436,13.554,13.554,0,0,1,.883-4.39,22.415,22.415,0,0,1,2.383-4.819,16.5,16.5,0,0,1,3.454-3.881,6.369,6.369,0,0,1,4.041-1.58,3.966,3.966,0,0,1,1.74.375,7.707,7.707,0,0,1,1.392.857,5.761,5.761,0,0,1,.991.964c.249.321.41.535.482.643a15.106,15.106,0,0,1,.857-1.606c.249-.392.428-.589.535-.589a4.933,4.933,0,0,1,1.392.241,7.013,7.013,0,0,1,1.5.642,3.5,3.5,0,0,1,1.044.857.6.6,0,0,1,.026.83,12.219,12.219,0,0,0-1.419,2.356,29.049,29.049,0,0,0-1.337,3.319,32.348,32.348,0,0,0-1.017,3.722,17.222,17.222,0,0,0-.4,3.56,1.418,1.418,0,0,0,.187.776.536.536,0,0,0,.455.295q.376,0,1.179-.75a13.628,13.628,0,0,0,1.633-1.874,26.717,26.717,0,0,0,1.606-2.463c.273-.471.511-.921.72-1.352.3-.843.61-1.7.94-2.583q.669-1.793,1.258-3.347t.964-2.7a6.46,6.46,0,0,0,.375-1.525,1.026,1.026,0,0,1,.106-.4c.072-.161.25-.241.536-.241a4.168,4.168,0,0,1,1.178.214,5.325,5.325,0,0,1,1.285.59,4.8,4.8,0,0,1,1.017.856,1.463,1.463,0,0,1,.428.964,3.386,3.386,0,0,1-.241,1.1q-.24.67-.562,1.446t-.669,1.552a15.01,15.01,0,0,0-.563,1.419,24.231,24.231,0,0,1,2.142-3.025,22.318,22.318,0,0,1,2.356-2.463,12.679,12.679,0,0,1,2.249-1.633,3.916,3.916,0,0,1,1.767-.589,3.693,3.693,0,0,1,2.731.964,4.009,4.009,0,0,1,.964,2.945,6.076,6.076,0,0,1-.722,2.516q-.724,1.5-1.553,3.185t-1.553,3.32a7.266,7.266,0,0,0-.723,2.864,1.427,1.427,0,0,0,.188.777.535.535,0,0,0,.455.294q.374,0,1.2-.749a18.448,18.448,0,0,0,1.767-1.874,19.464,19.464,0,0,0,1.74-2.463,17.5,17.5,0,0,0,.942-1.779c.017-.051.029-.1.047-.149a22.45,22.45,0,0,1,2.383-4.819,16.531,16.531,0,0,1,3.454-3.881,6.371,6.371,0,0,1,4.042-1.58,3.961,3.961,0,0,1,1.74.375,7.66,7.66,0,0,1,1.392.857,5.758,5.758,0,0,1,.991.964c.249.321.41.535.482.643a15.362,15.362,0,0,1,.857-1.606q.374-.588.535-.589a4.938,4.938,0,0,1,1.392.241,7,7,0,0,1,1.5.642,3.487,3.487,0,0,1,1.044.857.6.6,0,0,1,.027.83,12.219,12.219,0,0,0-1.419,2.356,29.056,29.056,0,0,0-1.339,3.319,32.646,32.646,0,0,0-1.017,3.722,17.224,17.224,0,0,0-.4,3.56,1.411,1.411,0,0,0,.188.776.534.534,0,0,0,.455.295q.374,0,1.178-.75a13.626,13.626,0,0,0,1.633-1.874,26.449,26.449,0,0,0,1.606-2.463c.308-.531.57-1.034.8-1.515.04-.121.07-.235.113-.359a22.481,22.481,0,0,1,2.383-4.819,16.546,16.546,0,0,1,3.454-3.881,6.371,6.371,0,0,1,4.042-1.58,4.155,4.155,0,0,1,1.58.295,5.592,5.592,0,0,1,1.285.722,6.663,6.663,0,0,1,.964.884q.4.455.615.723.8-2.25,1.633-4.338t1.606-3.828q.776-1.739,1.392-2.918a7.073,7.073,0,0,1,.992-1.553,1.049,1.049,0,0,1,.774-.262,2.735,2.735,0,0,1,.484.048,7.107,7.107,0,0,1,1.74.563,5.173,5.173,0,0,1,1.365.883q.508.482.134.75a6.988,6.988,0,0,0-1.5,2.008,37.88,37.88,0,0,0-1.875,3.8q-.964,2.222-1.954,4.846t-1.793,5.166q-.8,2.545-1.285,4.792a18.177,18.177,0,0,0-.482,3.641,1.421,1.421,0,0,0,.187.777.537.537,0,0,0,.455.294q.374,0,1.178-.749a13.646,13.646,0,0,0,1.633-1.874,26.83,26.83,0,0,0,1.606-2.463c.307-.531.569-1.033.795-1.513a14.183,14.183,0,0,1,.6-1.807,19.142,19.142,0,0,1,2.6-4.5,14.959,14.959,0,0,1,3.32-3.186,5.8,5.8,0,0,1,3.159-1.205,7.749,7.749,0,0,1,3.292.616,5.526,5.526,0,0,1,2.089,1.633,6.258,6.258,0,0,1,1.1,2.328,11.083,11.083,0,0,1,.321,2.651,14.4,14.4,0,0,1-.481,3.694,18.515,18.515,0,0,1-1.339,3.534,3.889,3.889,0,0,0,1.2-.4,8.806,8.806,0,0,0,1.5-.937,9.083,9.083,0,0,0,1.473-1.419c.064-.076.121-.158.181-.237.2-.4.392-.775.569-1.127q.644-1.286,1.366-2.892t1.311-3.159a3.79,3.79,0,0,1-2.49-1.954,6.223,6.223,0,0,1-.562-2.437,5.246,5.246,0,0,1,.535-2.142,10.035,10.035,0,0,1,1.339-2.168,8.9,8.9,0,0,1,1.794-1.687,3.334,3.334,0,0,1,1.9-.7,2.092,2.092,0,0,1,.517.086,7.669,7.669,0,0,1-.042-.8,5.112,5.112,0,0,1,.172-1.256,4.824,4.824,0,0,1-1.715.33,5.948,5.948,0,0,1-4.63-1.775q-1.621-1.775-1.621-6.02a28.8,28.8,0,0,1-1.891,2.856,26.474,26.474,0,0,1-2.122,2.509,13.124,13.124,0,0,1-2.123,1.814,3.5,3.5,0,0,1-1.891.695,8.071,8.071,0,0,1-3.434-.734,8.763,8.763,0,0,1-2.741-1.968,9.036,9.036,0,0,1-1.813-2.894,9.305,9.305,0,0,1-.408-1.354c-.331.524-.679,1.051-1.057,1.585a21.343,21.343,0,0,1-3.358,3.743,5.811,5.811,0,0,1-3.858,1.622,6.037,6.037,0,0,1-4.516-1.776,7.392,7.392,0,0,1-1.734-5.306c-.339.426-.7.852-1.082,1.279a21.115,21.115,0,0,1-5.094,4.053,13.408,13.408,0,0,1-6.869,1.75,10.424,10.424,0,0,1-4.4-.888,9.258,9.258,0,0,1-3.242-2.432,10.947,10.947,0,0,1-2.006-3.55,12.382,12.382,0,0,1-.538-2.226,37.509,37.509,0,0,1-2.433,3.105,19.587,19.587,0,0,1-3.242,2.984,17.358,17.358,0,0,1-3.936,2.168,12.421,12.421,0,0,1-4.593.838,10.424,10.424,0,0,1-4.4-.888,9.25,9.25,0,0,1-3.242-2.432,10.922,10.922,0,0,1-2.007-3.55,12.313,12.313,0,0,1-.483-1.9,23.364,23.364,0,0,1-2.295,2.967,21.089,21.089,0,0,1-5.094,4.053,13.408,13.408,0,0,1-6.869,1.75,10.425,10.425,0,0,1-4.4-.888,9.25,9.25,0,0,1-3.242-2.432,10.936,10.936,0,0,1-2.007-3.55,13.127,13.127,0,0,1-.695-4.323,17.54,17.54,0,0,1,1.351-6.483,23.179,23.179,0,0,1,3.628-6.175,21.616,21.616,0,0,1,5.132-4.593,10.821,10.821,0,0,1,5.867-1.813,7.488,7.488,0,0,1,2.7.5A6.821,6.821,0,0,1-224.964-508a6.942,6.942,0,0,1,1.582,2.362,8.206,8.206,0,0,1,.578,3.173,9.311,9.311,0,0,1-1.2,4.142,11.291,11.291,0,0,1-3.087,3.562,12.38,12.38,0,0,1-4.746,2.168,11.668,11.668,0,0,1-2.7.3,16.383,16.383,0,0,1-3.555-.419,12.82,12.82,0,0,0-.116,2.942,6.023,6.023,0,0,0,.695,2.439,4.374,4.374,0,0,0,1.622,1.666,5.334,5.334,0,0,0,2.74.618,9.322,9.322,0,0,0,4.979-1.35,16.782,16.782,0,0,0,3.782-3.126,17.171,17.171,0,0,0,2.508-3.589q.464-.908.793-1.594a20.475,20.475,0,0,1,.866-2.689,23.181,23.181,0,0,1,3.628-6.175,21.589,21.589,0,0,1,5.132-4.593,10.821,10.821,0,0,1,5.866-1.813,7.647,7.647,0,0,1,3.2.618,7.738,7.738,0,0,1,2.277,1.543,5.786,5.786,0,0,1,1.35,2.046,6.006,6.006,0,0,1,.425,2.122,4.238,4.238,0,0,1-1.2,3.358,4.9,4.9,0,0,1-2.509,1.235,5.346,5.346,0,0,1-.779.061,3.251,3.251,0,0,1-1.421-.292q-.888-.424-.347-1.042a8.114,8.114,0,0,0,1.427-2.084,5.357,5.357,0,0,0,.54-2.007,2.654,2.654,0,0,0-.347-1.544,1.427,1.427,0,0,0-1.312-.617,5.023,5.023,0,0,0-3.4,1.588A17.141,17.141,0,0,0-210.763-501,24.65,24.65,0,0,0-213-495.815a16.055,16.055,0,0,0-.772,5.191,6.985,6.985,0,0,0,1.235,3.989,4.363,4.363,0,0,0,3.782,1.587,8.716,8.716,0,0,0,4.708-1.35,17.985,17.985,0,0,0,3.782-3.126,20.469,20.469,0,0,0,2.662-3.589c.378-.657.685-1.219.933-1.7a20.723,20.723,0,0,1,.841-2.581,23.18,23.18,0,0,1,3.628-6.175,21.579,21.579,0,0,1,5.133-4.593,10.817,10.817,0,0,1,5.865-1.813,7.494,7.494,0,0,1,2.7.5A6.811,6.811,0,0,1-176.187-508a6.921,6.921,0,0,1,1.582,2.362,8.192,8.192,0,0,1,.579,3.173,9.311,9.311,0,0,1-1.2,4.142,11.29,11.29,0,0,1-3.087,3.562,12.383,12.383,0,0,1-4.747,2.168,11.664,11.664,0,0,1-2.7.3,16.378,16.378,0,0,1-3.554-.419,12.746,12.746,0,0,0-.115,2.942,6,6,0,0,0,.695,2.439,4.372,4.372,0,0,0,1.621,1.666,5.332,5.332,0,0,0,2.74.618,9.322,9.322,0,0,0,4.979-1.35,16.766,16.766,0,0,0,3.782-3.126,17.146,17.146,0,0,0,2.508-3.589c.3-.586.555-1.1.769-1.548.089-.317.177-.633.272-.961q.811-2.779,1.969-6.059t2.624-6.907h-4.322a1.686,1.686,0,0,1-1.35-.733,6.28,6.28,0,0,1-.926-1.621,8,8,0,0,1-.463-1.583q-.117-.695.115-.695a21.021,21.021,0,0,0,2.123.463q.963.155,1.929.27t2.046.155q1.079.04,2.393.038.616-1.465,1.466-3.435t1.66-3.781q.809-1.813,1.5-3.2a8.226,8.226,0,0,1,1-1.7,1.623,1.623,0,0,1,1.2-.4m-28.679,28.782a4.992,4.992,0,0,0,2.208-.521,9.537,9.537,0,0,0,2.585-1.852,14.324,14.324,0,0,0,2.046-2.586,13.417,13.417,0,0,0,1.312-2.662,4.655,4.655,0,0,0,.309-2.084q-.116-.848-.888-.848a3.872,3.872,0,0,0-2.277.887,11.431,11.431,0,0,0-2.315,2.392,23.791,23.791,0,0,0-2.084,3.4,32.921,32.921,0,0,0-1.66,3.82,5.081,5.081,0,0,0,.764.058m-48.777,0a4.987,4.987,0,0,0,2.207-.521,9.527,9.527,0,0,0,2.585-1.852,14.32,14.32,0,0,0,2.045-2.586,13.344,13.344,0,0,0,1.313-2.662,4.652,4.652,0,0,0,.308-2.084c-.076-.565-.373-.848-.887-.848a3.87,3.87,0,0,0-2.276.887,11.446,11.446,0,0,0-2.316,2.392,23.794,23.794,0,0,0-2.084,3.4,33.031,33.031,0,0,0-1.659,3.82,5.08,5.08,0,0,0,.764.058m85.908,10.671q.463,0,1.466-.926a22.035,22.035,0,0,0,2.2-2.431q1.2-1.505,2.469-3.4t2.393-3.744a37.3,37.3,0,0,0,1.891-3.512,13.645,13.645,0,0,0,1-2.74,1.743,1.743,0,0,0-.695-1.66,3.431,3.431,0,0,0-2.315-.732,4.545,4.545,0,0,0-2.972,1.7,22.194,22.194,0,0,0-3.164,4.246,28.03,28.03,0,0,0-2.509,5.634,18.974,18.974,0,0,0-1,5.867,2.226,2.226,0,0,0,.309,1.2,1.012,1.012,0,0,0,.926.5m22.923,10.806a3.675,3.675,0,0,0,1.891-.578,5.381,5.381,0,0,0,1.736-1.809,11.424,11.424,0,0,0,1.274-3.157,18.2,18.2,0,0,0,.5-4.545,21.286,21.286,0,0,0-.541-4.7q-.54-2.388-1.311-5.545a30.127,30.127,0,0,1-1.39,3.659,12.122,12.122,0,0,1-1.081,1.886,3.086,3.086,0,0,1-.617.662,37.238,37.238,0,0,1-2.16,3.512c-.354.512-.732.994-1.123,1.462a4.068,4.068,0,0,1,1.855.661c.695.463,1.042.8,1.042,1a.136.136,0,0,1-.154.154,3.314,3.314,0,0,0-2.315,1.489,4.651,4.651,0,0,0-.849,2.635,3.6,3.6,0,0,0,.734,2.254,2.978,2.978,0,0,0,2.508.954m-9.092,4.588q.75-1.767,1.072-2.758a5.4,5.4,0,0,0,.321-1.526c0-.5-.072-.75-.214-.75a.86.86,0,0,0-.588.375,6.622,6.622,0,0,0-.642.911,6.384,6.384,0,0,0-.536,1.124,2.961,2.961,0,0,0-.214.964,2.663,2.663,0,0,0,.134.937,1.739,1.739,0,0,0,.669.723m-17.133,15.688a2.493,2.493,0,0,0,1.713-.615,7.142,7.142,0,0,0,1.339-1.687,5.447,5.447,0,0,1-.214-1.606,2.615,2.615,0,0,1,.67-1.848,2.768,2.768,0,0,1,1.58-.883,21.9,21.9,0,0,0,.749-2.677,11.4,11.4,0,0,0,.268-2.3,3.909,3.909,0,0,0-.4-1.9,1.432,1.432,0,0,0-1.364-.722,3.219,3.219,0,0,0-2.089,1.044,11.424,11.424,0,0,0-2.061,2.651,23.076,23.076,0,0,0-1.633,3.427,12.506,12.506,0,0,0-.83,3.426,5.267,5.267,0,0,0,.348,2.651,1.909,1.909,0,0,0,1.927,1.044m34.105,0q.322,0,1.017-.642a15.179,15.179,0,0,0,1.526-1.686q.829-1.044,1.713-2.357t1.66-2.6a25.835,25.835,0,0,0,1.312-2.436,9.535,9.535,0,0,0,.7-1.9,1.209,1.209,0,0,0-.483-1.151,2.373,2.373,0,0,0-1.606-.509,3.149,3.149,0,0,0-2.061,1.178,15.392,15.392,0,0,0-2.2,2.945,19.518,19.518,0,0,0-1.74,3.909,13.158,13.158,0,0,0-.7,4.069,1.555,1.555,0,0,0,.213.83.7.7,0,0,0,.642.348m-56.593,0q.321,0,1.017-.642a15.18,15.18,0,0,0,1.526-1.686q.829-1.044,1.713-2.357t1.66-2.6a25.844,25.844,0,0,0,1.312-2.436,9.437,9.437,0,0,0,.7-1.9,1.208,1.208,0,0,0-.482-1.151,2.373,2.373,0,0,0-1.606-.509,3.153,3.153,0,0,0-2.062,1.178,15.419,15.419,0,0,0-2.2,2.945,19.524,19.524,0,0,0-1.74,3.909,13.157,13.157,0,0,0-.7,4.069,1.542,1.542,0,0,0,.214.83.7.7,0,0,0,.642.348m-21.63,0q.321,0,1.017-.642a15.188,15.188,0,0,0,1.526-1.686q.829-1.044,1.714-2.357t1.66-2.6a25.661,25.661,0,0,0,1.311-2.436,9.439,9.439,0,0,0,.7-1.9,1.206,1.206,0,0,0-.481-1.151,2.374,2.374,0,0,0-1.606-.509,3.15,3.15,0,0,0-2.062,1.178,15.39,15.39,0,0,0-2.2,2.945,19.479,19.479,0,0,0-1.74,3.909,13.157,13.157,0,0,0-.7,4.069,1.548,1.548,0,0,0,.213.83.7.7,0,0,0,.642.348m-41.493,0q.321,0,1.017-.642a15.255,15.255,0,0,0,1.526-1.686q.829-1.044,1.713-2.357t1.66-2.6a25.683,25.683,0,0,0,1.312-2.436,9.5,9.5,0,0,0,.7-1.9,1.208,1.208,0,0,0-.482-1.151,2.378,2.378,0,0,0-1.606-.509,3.153,3.153,0,0,0-2.062,1.178,15.389,15.389,0,0,0-2.195,2.945,19.482,19.482,0,0,0-1.74,3.909,13.158,13.158,0,0,0-.7,4.069,1.543,1.543,0,0,0,.214.83.7.7,0,0,0,.642.348m135.618,7.5a2.552,2.552,0,0,0,1.312-.4,3.726,3.726,0,0,0,1.2-1.255,7.939,7.939,0,0,0,.883-2.19,12.6,12.6,0,0,0,.348-3.153,14.786,14.786,0,0,0-.375-3.258q-.375-1.657-.91-3.847a20.7,20.7,0,0,1-.964,2.538,8.451,8.451,0,0,1-.75,1.309,2.133,2.133,0,0,1-.428.458,26.011,26.011,0,0,1-1.5,2.437c-.245.355-.508.689-.779,1.014a2.821,2.821,0,0,1,1.286.458c.483.321.722.554.722.7a.094.094,0,0,1-.106.108,2.292,2.292,0,0,0-1.606,1.033,3.223,3.223,0,0,0-.59,1.828,2.5,2.5,0,0,0,.508,1.564,2.068,2.068,0,0,0,1.74.661m-55.157-82.2a5.678,5.678,0,0,0-4.146,1.62,10.223,10.223,0,0,0-1.785,2.782c-.488.977-1.021,2.11-1.583,3.367-.553,1.238-1.119,2.528-1.681,3.831l-.369.856c-.423-.024-.827-.059-1.206-.1-.6-.071-1.19-.154-1.762-.246a17.052,17.052,0,0,1-1.711-.375l-.529-.141h-.548a4.286,4.286,0,0,0-3.277,1.519,4.3,4.3,0,0,0-.958,2.007,11.617,11.617,0,0,0-2.557-.284,14.962,14.962,0,0,0-8.1,2.464A25.631,25.631,0,0,0-194.767-507c-.03-.084-.06-.169-.092-.253a9.963,9.963,0,0,0-2.3-3.518,11.893,11.893,0,0,0-3.489-2.387,11.806,11.806,0,0,0-4.94-1,14.963,14.963,0,0,0-8.1,2.464,25.68,25.68,0,0,0-5.653,4.911c-.058-.157-.117-.313-.181-.467A11.115,11.115,0,0,0-222.065-511a11.008,11.008,0,0,0-3.724-2.367,11.682,11.682,0,0,0-4.192-.78,14.972,14.972,0,0,0-8.1,2.463,25.868,25.868,0,0,0-6.124,5.471,27.457,27.457,0,0,0-4.278,7.279,21.748,21.748,0,0,0-1.646,8.024,17.346,17.346,0,0,0,.924,5.688,15.142,15.142,0,0,0,2.772,4.888,13.446,13.446,0,0,0,4.677,3.519,14.608,14.608,0,0,0,6.142,1.269,17.579,17.579,0,0,0,8.967-2.316,26.658,26.658,0,0,0,4.185-2.987q.2.263.42.517a13.427,13.427,0,0,0,4.675,3.518,14.6,14.6,0,0,0,6.142,1.269,16.631,16.631,0,0,0,6.121-1.128,21.65,21.65,0,0,0,4.876-2.686,24.363,24.363,0,0,0,2.023-1.661q.265.352.55.686a13.44,13.44,0,0,0,4.677,3.519,14.6,14.6,0,0,0,6.142,1.269,17.581,17.581,0,0,0,8.967-2.316q1.154-.671,2.2-1.422a9.157,9.157,0,0,0,.626.709,9.969,9.969,0,0,0,5.839,2.915l-.2.484a8.458,8.458,0,0,0-2.428-.348,10.455,10.455,0,0,0-6.664,2.507,19.358,19.358,0,0,0-1.7,1.547l-.025-.033a7.635,7.635,0,0,0-2.274-1.936,11.292,11.292,0,0,0-2.383-1.024,8.985,8.985,0,0,0-2.592-.417,4.163,4.163,0,0,0-1.883.435c-.183-.1-.369-.2-.56-.288a8.122,8.122,0,0,0-3.554-.79,10.457,10.457,0,0,0-6.665,2.507,19.546,19.546,0,0,0-1.833,1.689,7,7,0,0,0-1.187-1.582,7.763,7.763,0,0,0-5.681-2.185,7.817,7.817,0,0,0-3.779,1.106q-.485.267-.978.595a9.309,9.309,0,0,0-.927-.673,9.537,9.537,0,0,0-2.292-1.055,8.209,8.209,0,0,0-2.411-.4,4.675,4.675,0,0,0-4.21,2.434q-.268-.181-.559-.35a11.268,11.268,0,0,0-2.382-1.024,8.973,8.973,0,0,0-2.594-.418,4.173,4.173,0,0,0-1.884.435c-.182-.1-.368-.195-.557-.286a8.122,8.122,0,0,0-3.557-.791,10.457,10.457,0,0,0-6.664,2.507,20.763,20.763,0,0,0-4.328,4.851,26.7,26.7,0,0,0-2.822,5.713,17.455,17.455,0,0,0-1.119,5.772,10.738,10.738,0,0,0,.748,3.971,10.421,10.421,0,0,0,2.1,3.328,10.262,10.262,0,0,0,3.191,2.3,9.754,9.754,0,0,0,4.135.895,6.5,6.5,0,0,0,3.625-1.181q.434-.289.866-.64a8.431,8.431,0,0,0,5.415,1.768,7.937,7.937,0,0,0,4.583-1.521,10.481,10.481,0,0,0,.956.565,6.251,6.251,0,0,0,2.92.794,5.432,5.432,0,0,0,2.46-.577,4.629,4.629,0,0,0,2.113-2.068c.111.129.225.254.344.375a8.333,8.333,0,0,0,6.113,2.484,8.333,8.333,0,0,0,5.356-2.075q.16-.131.317-.267a10.371,10.371,0,0,0,2.292,1.447,9.76,9.76,0,0,0,4.135.895,6.5,6.5,0,0,0,3.625-1.181q.434-.289.866-.64a8.429,8.429,0,0,0,5.415,1.768,8.174,8.174,0,0,0,5.365-2.129l.063-.054a10.371,10.371,0,0,0,2.163,1.341,9.754,9.754,0,0,0,4.134.895,6.482,6.482,0,0,0,3.564-1.132,11.056,11.056,0,0,0,.895-.654,8.435,8.435,0,0,0,5.34,1.786,8.154,8.154,0,0,0,5.422-2.155c.04-.035.081-.07.12-.106a9.212,9.212,0,0,0,3.29,1.743,13.064,13.064,0,0,0,3.7.518,11.143,11.143,0,0,0,5.485-1.438,15.87,15.87,0,0,0,2.673-1.882,10.7,10.7,0,0,0,3.548-.957,14.38,14.38,0,0,0,2.738-1.663h0a8.062,8.062,0,0,0,1.921,3.422,8.3,8.3,0,0,0,6.173,2.518,8.334,8.334,0,0,0,5.354-2.073l.136-.113a10.345,10.345,0,0,0,2.1,1.291A9.754,9.754,0,0,0-120-446.2a6.5,6.5,0,0,0,3.625-1.181q.434-.289.866-.64a7.878,7.878,0,0,0,2.881,1.447q.121.325.267.645a9.555,9.555,0,0,0,2.18,3.027,9.827,9.827,0,0,0,3.1,1.953,9.967,9.967,0,0,0,3.674.694,11.359,11.359,0,0,0,4.362-.937,13.043,13.043,0,0,0,3.982-2.628,14.157,14.157,0,0,0,2.933-4.087,13.146,13.146,0,0,0,1.247-5.782,13.184,13.184,0,0,0-.435-3.406c-.216-.8-.467-1.631-.749-2.46-.223-.651-.42-1.3-.589-1.931a4.8,4.8,0,0,1-.154-1.252,5.653,5.653,0,0,1,.159-1.275,3.961,3.961,0,0,1,.223-.654,4.977,4.977,0,0,0,1.761-3.855,5.535,5.535,0,0,0-1.448-3.7,8.778,8.778,0,0,0-1.876-1.587,10.608,10.608,0,0,0-2.083-1.021,7.771,7.771,0,0,0-2.621-.489,5.047,5.047,0,0,0-2.118.5,6.312,6.312,0,0,0-2.124,1.644c-.111.125-.22.256-.327.394a8.9,8.9,0,0,0-1-.67,11.275,11.275,0,0,0-2.386-1.026,8.967,8.967,0,0,0-2.592-.417,4.17,4.17,0,0,0-1.883.435q-.274-.149-.559-.287a7.888,7.888,0,0,0-1.579-.562q.486-.8.909-1.676a17.143,17.143,0,0,0,1.615-7.532,17.147,17.147,0,0,0-.567-4.436c-.306-1.14-.658-2.293-1.046-3.432-.331-.967-.627-1.939-.882-2.894a8.776,8.776,0,0,1-.284-2.281,10,10,0,0,1,.277-2.256,8.47,8.47,0,0,1,.654-1.756,4.928,4.928,0,0,0,2.156-4.323A6.144,6.144,0,0,0-112.047-510a10.908,10.908,0,0,0-2.313-1.954A13.4,13.4,0,0,0-117-513.246a9.351,9.351,0,0,0-3.152-.6,5.453,5.453,0,0,0-2.3.565,7.318,7.318,0,0,0-2.436,1.91,11.594,11.594,0,0,0-1.514,2.247,9.209,9.209,0,0,0-2.7-2.271,14.354,14.354,0,0,0-3.049-1.309,11.1,11.1,0,0,0-3.2-.524,4.318,4.318,0,0,0-2.7.932,15.961,15.961,0,0,0-1.62-.9A9.882,9.882,0,0,0-144-514.15a12.684,12.684,0,0,0-6.764,2c-.024-.051-.049-.1-.075-.154a10.948,10.948,0,0,0-1.513-2.268c-.055-.062-.123-.14-.2-.227q.245-.513.5-1.037c.452-.929.865-1.755,1.227-2.453.174-.337.283-.531.342-.631A4.663,4.663,0,0,0-149.382-522a5.237,5.237,0,0,0-1.777-3.776,11.233,11.233,0,0,0-3.126-2.053,13.686,13.686,0,0,0-3.562-1.057,8.313,8.313,0,0,0-1.245-.1Zm-50.181,39.722a3.354,3.354,0,0,1-.33-1.5,12.049,12.049,0,0,1,.592-3.845,21.406,21.406,0,0,1,.954-2.547,5.269,5.269,0,0,0,2.019,1.624,7.384,7.384,0,0,0,3.217.7,9.593,9.593,0,0,0,1.387-.1l.063-.01a16.812,16.812,0,0,1-1.976,2.6,13.907,13.907,0,0,1-2.912,2.4,4.521,4.521,0,0,1-2.5.717,2.884,2.884,0,0,1-.517-.039Zm58.4,13.709a7.565,7.565,0,0,0,4.2-1.4,16.53,16.53,0,0,0,2.3-1.881l.059.065a9.093,9.093,0,0,0,1.257,1.142,14.253,14.253,0,0,0-1.307,2.289,11.347,11.347,0,0,0-.465,1.2q-.357-.2-.736-.38a11.876,11.876,0,0,0-5.066-1.012,9.741,9.741,0,0,0-5.37,1.836c.291-.594.573-1.13.845-1.6.247-.428.417-.683.517-.823a12.458,12.458,0,0,0,3.758.567Z" transform="translate(250.13 528.981)" fill="#fff"/>
          </g>
        </g>
        <g id="Grupo_362" data-name="Grupo 362">
          <g id="Grupo_360" data-name="Grupo 360" transform="translate(2.086 2.086)">
            <path id="Trazado_624" data-name="Trazado 624" d="M-280.677-421.561a15.63,15.63,0,0,1-5.656-.8c-.8-.322-2.939-1.176-2.939-3.167a3.029,3.029,0,0,1,1.005-2.333,2.914,2.914,0,0,1,1.948-.766c.041,0,.082,0,.122,0a9.792,9.792,0,0,0,1.035-1.2,46.562,46.562,0,0,0,3.212-4.979c.079-.138.159-.279.238-.419a10.118,10.118,0,0,1-4.1.863,13.513,13.513,0,0,1-5.511-1.192,15.348,15.348,0,0,1-4.728-3.3,15.875,15.875,0,0,1-3.336-5.2,18,18,0,0,1-1.237-6.786,34.881,34.881,0,0,1,1.457-9.77,54.343,54.343,0,0,1,3.8-9.515c.741-1.448,1.554-2.879,2.427-4.278a11.862,11.862,0,0,1-1.327-.922,11.065,11.065,0,0,1-2-2.05,5.07,5.07,0,0,1-1.065-3.054,17.5,17.5,0,0,1,1.406-5.518c.861-2.294,1.952-4.952,3.246-7.9,1.272-2.9,2.678-6.04,4.18-9.329,1.478-3.237,2.873-6.4,4.145-9.4s2.332-5.711,3.155-8.058a18.82,18.82,0,0,0,1.143-4.41q-.2.121-.4.245a63.077,63.077,0,0,0-7.507,5.378,61.537,61.537,0,0,0-6.307,6.007,36.418,36.418,0,0,0-4.273,5.652,11.826,11.826,0,0,0-1.215,2.606,5.779,5.779,0,0,0,.885-.167,13.7,13.7,0,0,0,1.607-.535c.6-.246,1.093-.436,1.476-.573a3.733,3.733,0,0,1,1.278-.26,2.336,2.336,0,0,1,1.042.237l.447.22.3.4c.482.642,1.032,1.991-.7,3.808A15.7,15.7,0,0,1-295.7-500.1a18.285,18.285,0,0,1-2.962,1.7,8.1,8.1,0,0,1-3.377.846,4.8,4.8,0,0,1-3.3-1.548,14.914,14.914,0,0,1-2.2-2.735,17.052,17.052,0,0,1-1.672-3.429,10.93,10.93,0,0,1-.7-3.636c0-1.743.781-3.7,2.386-5.984a43.661,43.661,0,0,1,5.593-6.33,77.736,77.736,0,0,1,7.813-6.467,81.05,81.05,0,0,1,9.15-5.783,63.779,63.779,0,0,1,9.537-4.229,28.5,28.5,0,0,1,9.208-1.7,14.563,14.563,0,0,1,5.1,1.021,17.459,17.459,0,0,1,4.954,2.891,16.957,16.957,0,0,1,3.83,4.531,12.19,12.19,0,0,1,1.635,6.224,20.7,20.7,0,0,1-1.366,7.21,34.65,34.65,0,0,1-3.49,6.859,46.649,46.649,0,0,1-4.889,6.223,46.636,46.636,0,0,1-5.578,5.132,32.581,32.581,0,0,1-5.613,3.545,16.57,16.57,0,0,1-2.263.909q.669,1.144,1.441,2.295a12.022,12.022,0,0,1,2.854-.36,8.709,8.709,0,0,1,4.544,1.165,9.335,9.335,0,0,1,3.02,2.883,11.62,11.62,0,0,1,1.59,3.745,17.038,17.038,0,0,1,.449,3.462,9.07,9.07,0,0,0,2.918.492,9.5,9.5,0,0,0,2.167-.258,2.487,2.487,0,0,1,.757-.12,2.318,2.318,0,0,1,2.3,2.433,3.392,3.392,0,0,1-.285,1.526l-.063.132-.081.121a10.784,10.784,0,0,1-1.339,1.548,14.067,14.067,0,0,1-2.222,1.775,18.542,18.542,0,0,1-2.917,1.528,14.675,14.675,0,0,1-3.606.992,9.015,9.015,0,0,1-.955.086c-.2.376-.405.734-.609,1.083a28.634,28.634,0,0,1-3.322,4.643,8.644,8.644,0,0,1-2.45,2.018,9.242,9.242,0,0,1,2.422.822,10.292,10.292,0,0,1,2.77,1.992,4.99,4.99,0,0,1,1.625,3.573,18.045,18.045,0,0,1-.955,4.794c-.585,1.953-1.328,4.169-2.207,6.586s-1.832,4.919-2.841,7.467c-1.019,2.571-1.971,4.928-2.832,7.008-.855,2.064-1.617,3.847-2.265,5.3-1.094,2.439-1.132,2.479-1.432,2.782a5.585,5.585,0,0,1-2.693,1.466A10.919,10.919,0,0,1-280.677-421.561Zm4.737-58.288a51.789,51.789,0,0,0-4.627,6.047,58.081,58.081,0,0,0-4.222,7.573,49.849,49.849,0,0,0-3.019,8.4,33.35,33.35,0,0,0-1.125,8.439c0,1.9.444,3.236,1.318,3.973a4.979,4.979,0,0,0,3.321,1.245,2.893,2.893,0,0,0,1.807-.816,16.9,16.9,0,0,0,2.665-2.9,30.828,30.828,0,0,0,2.5-4.027c.795-1.519,1.506-2.976,2.114-4.333a34,34,0,0,0,1.362-3.467,12.251,12.251,0,0,0,.409-1.472,2.6,2.6,0,0,1,1.1-2.071,8.342,8.342,0,0,1-1.812-.391,10.016,10.016,0,0,1-2.233-1.052,7.471,7.471,0,0,1-1.792-1.555,3.912,3.912,0,0,1-.98-2.516,3.62,3.62,0,0,1,.848-2.35,2.894,2.894,0,0,1,2.251-1.182,2.358,2.358,0,0,1,.825.15,7.608,7.608,0,0,0,.672-.7,24.974,24.974,0,0,0,2.208-3.023,33.125,33.125,0,0,1-3.364-4.016l-.172.14ZM-282.508-489c-.373,1.075-.724,2.13-1.047,3.155l.136-.124c.848-.771,1.728-1.5,2.63-2.19q-.635-1.186-1.222-2.256Q-282.264-489.705-282.508-489Zm7.716-38.673a11.538,11.538,0,0,1,1.844,1.274,10.4,10.4,0,0,1,1.548,1.6,3.918,3.918,0,0,1,.932,2.388,13.1,13.1,0,0,1-.752,3.713c-.45,1.427-1.033,3.1-1.735,4.97-.7,1.853-1.507,3.923-2.414,6.151-.542,1.331-1.1,2.727-1.676,4.173a14.925,14.925,0,0,0,2.136-1.486,35.749,35.749,0,0,0,5.681-5.981,43.85,43.85,0,0,0,4.9-8.067,18.919,18.919,0,0,0,1.963-8.026,2.309,2.309,0,0,0-.268-1.086,3.768,3.768,0,0,0-.818-1.07,3.862,3.862,0,0,0-1.106-.7,2.587,2.587,0,0,0-.971-.225,20.422,20.422,0,0,0-7.1,1.412q-1.122.42-2.248.916Z" transform="translate(309.912 539.394)" fill="#fff"/>
          </g>
          <g id="Grupo_361" data-name="Grupo 361">
            <path id="Trazado_625" data-name="Trazado 625" d="M-267.138-538.222a12.442,12.442,0,0,1,4.361.887,15.308,15.308,0,0,1,4.361,2.547,14.791,14.791,0,0,1,3.357,3.975,10.084,10.084,0,0,1,1.351,5.171,18.539,18.539,0,0,1-1.235,6.484,32.4,32.4,0,0,1-3.281,6.444,44.476,44.476,0,0,1-4.669,5.944,44.3,44.3,0,0,1-5.326,4.9,30.284,30.284,0,0,1-5.248,3.319,10.635,10.635,0,0,1-4.554,1.235,43.847,43.847,0,0,0,3.792,6.283,10.851,10.851,0,0,1,3.7-.71,6.628,6.628,0,0,1,3.471.868,7.22,7.22,0,0,1,2.35,2.243,9.487,9.487,0,0,1,1.3,3.073,14.739,14.739,0,0,1,.4,3.363,8.1,8.1,0,0,1-.065.989c.341.154.68.315,1.027.448a11.183,11.183,0,0,0,4.039.764,11.587,11.587,0,0,0,2.754-.339.451.451,0,0,1,.169-.039c.144,0,.216.116.216.347a1.649,1.649,0,0,1-.076.618,9.172,9.172,0,0,1-1.081,1.234,11.948,11.948,0,0,1-1.891,1.505,16.416,16.416,0,0,1-2.585,1.351,12.5,12.5,0,0,1-3.087.848,7.015,7.015,0,0,1-1,.07,7.629,7.629,0,0,1-.9-.054c-.369.731-.756,1.454-1.172,2.164a26.363,26.363,0,0,1-3.073,4.3q-1.593,1.773-2.676,1.772a6.222,6.222,0,0,1-1.989-.325,7.9,7.9,0,0,1-1.772-.832,5.4,5.4,0,0,1-1.3-1.121,1.892,1.892,0,0,1-.507-1.193,1.529,1.529,0,0,1,.362-1.013c.24-.289.458-.434.65-.434a.505.505,0,0,1,.326.18.631.631,0,0,0,.47.181q.868,0,2.277-1.627a28.05,28.05,0,0,0,2.784-3.905c.168-.279.328-.562.489-.845a29.928,29.928,0,0,1-4.51-5.155c-.359-.514-.708-1.034-1.054-1.557l-.063.052-.211-.352c-.616.59-1.241,1.22-1.882,1.928a53.339,53.339,0,0,0-4.882,6.363,59.959,59.959,0,0,0-4.375,7.846,51.715,51.715,0,0,0-3.145,8.75,35.271,35.271,0,0,0-1.193,8.968q0,3.832,2.061,5.568A7.042,7.042,0,0,0-285.207-443a4.9,4.9,0,0,0,3.145-1.3,18.925,18.925,0,0,0,3-3.255,32.7,32.7,0,0,0,2.675-4.3q1.23-2.349,2.169-4.447A35.462,35.462,0,0,0-272.769-460a9.482,9.482,0,0,0,.507-2.025q0-.558.718-.558a2.265,2.265,0,0,1,.258.015,6.776,6.776,0,0,1,2.169.687,8.16,8.16,0,0,1,2.206,1.591,2.976,2.976,0,0,1,1.012,2.1,16.743,16.743,0,0,1-.868,4.194q-.868,2.893-2.169,6.473t-2.82,7.412q-1.519,3.833-2.82,6.979t-2.242,5.243q-.94,2.1-1.012,2.169a3.509,3.509,0,0,1-1.7.9,8.8,8.8,0,0,1-2.061.253,13.877,13.877,0,0,1-4.882-.65q-1.626-.651-1.626-1.23a.951.951,0,0,1,.289-.759.875.875,0,0,1,.578-.253.5.5,0,0,1,.216.036.508.508,0,0,0,.218.036q.794,0,2.386-2.1a48.407,48.407,0,0,0,3.363-5.206q1.771-3.111,3.544-6.69t2.929-6.617a34.63,34.63,0,0,1-5.714,7.738,9.087,9.087,0,0,1-6.436,2.893,11.375,11.375,0,0,1-4.664-1.012,13.2,13.2,0,0,1-4.086-2.857,13.734,13.734,0,0,1-2.893-4.52,15.856,15.856,0,0,1-1.085-6,32.658,32.658,0,0,1,1.374-9.184,51.963,51.963,0,0,1,3.653-9.149,55.991,55.991,0,0,1,3.68-6.168,5.828,5.828,0,0,1-1.129-.378,9.207,9.207,0,0,1-2.007-1.235,8.968,8.968,0,0,1-1.621-1.659,3.022,3.022,0,0,1-.656-1.814,16.347,16.347,0,0,1,1.273-4.785q1.273-3.4,3.2-7.795t4.168-9.3q2.238-4.9,4.168-9.455t3.2-8.181a18.323,18.323,0,0,0,1.274-5.4c0-.411.1-.668.308-.772a1.254,1.254,0,0,1,.541-.154,2.867,2.867,0,0,1,1.311.425,9.331,9.331,0,0,1,1.505,1.042,8.257,8.257,0,0,1,1.235,1.274,1.991,1.991,0,0,1,.5,1.12,11.606,11.606,0,0,1-.656,3.086q-.657,2.084-1.7,4.863t-2.393,6.1q-1.352,3.318-2.74,6.869a2.545,2.545,0,0,0,1.544.695q1.852,0,4.9-2.471a37.666,37.666,0,0,0,6.021-6.329,45.755,45.755,0,0,0,5.132-8.451,20.881,20.881,0,0,0,2.161-8.914,4.382,4.382,0,0,0-.5-2.046,5.868,5.868,0,0,0-1.273-1.658,5.98,5.98,0,0,0-1.7-1.081,4.624,4.624,0,0,0-1.775-.386,22.382,22.382,0,0,0-7.834,1.544,48.2,48.2,0,0,0-8.181,4.013,64.921,64.921,0,0,0-7.757,5.558,63.31,63.31,0,0,0-6.522,6.213,38.24,38.24,0,0,0-4.516,5.982,9.951,9.951,0,0,0-1.7,4.785.792.792,0,0,0,.54.772,2.888,2.888,0,0,0,1.158.232,7.663,7.663,0,0,0,2.006-.27,15.647,15.647,0,0,0,1.852-.617c.566-.232,1.029-.411,1.389-.54a1.936,1.936,0,0,1,.576-.138.27.27,0,0,1,.119.021c.155.207-.026.579-.54,1.12a13.573,13.573,0,0,1-1.969,1.659,16.074,16.074,0,0,1-2.624,1.5,6.16,6.16,0,0,1-2.509.657,2.823,2.823,0,0,1-1.852-.965,12.772,12.772,0,0,1-1.891-2.354,14.882,14.882,0,0,1-1.467-3.01,8.814,8.814,0,0,1-.579-2.933,9,9,0,0,1,2.007-4.785,41.443,41.443,0,0,1,5.326-6.02,75.509,75.509,0,0,1,7.6-6.291,78.633,78.633,0,0,1,8.915-5.634,61.432,61.432,0,0,1,9.223-4.091,26.3,26.3,0,0,1,8.529-1.582m-21.342,58.908a50.175,50.175,0,0,1,5.551-6.029,36.073,36.073,0,0,1,3.908-3.1l-.007-.013.026-.042c-.241-.43-.484-.858-.717-1.294q-2.084-3.9-3.628-6.522-1.082,2.935-2.045,5.712t-1.7,5.287q-.735,2.507-1.158,4.631c-.1.478-.17.929-.233,1.368m20.692-4.8a6.709,6.709,0,0,0,.082-.974,4.048,4.048,0,0,0-.543-1.989,1.81,1.81,0,0,0-1.7-.976,4.368,4.368,0,0,0-1.613.359,32.773,32.773,0,0,0,3.226,3.153c.179.151.365.282.547.426m.65-58.279a30.551,30.551,0,0,0-9.888,1.809,65.894,65.894,0,0,0-9.852,4.367,83.261,83.261,0,0,0-9.387,5.933,79.91,79.91,0,0,0-8.022,6.641,45.8,45.8,0,0,0-5.86,6.641c-1.861,2.647-2.765,5-2.765,7.184a12.97,12.97,0,0,0,.821,4.335,19.124,19.124,0,0,0,1.881,3.855,16.949,16.949,0,0,0,2.516,3.116,6.784,6.784,0,0,0,4.742,2.128,10.127,10.127,0,0,0,4.251-1.038,20.365,20.365,0,0,0,3.3-1.894,17.673,17.673,0,0,0,2.484-2.091c-.91,2.019-1.774,3.964-2.585,5.813-1.308,2.983-2.414,5.676-3.288,8.006a18.943,18.943,0,0,0-1.539,6.25,7.213,7.213,0,0,0,1.473,4.3,13.084,13.084,0,0,0,2.217,2.313q-.79,1.359-1.5,2.745a56.367,56.367,0,0,0-3.944,9.88,36.962,36.962,0,0,0-1.542,10.354,20.076,20.076,0,0,0,1.39,7.569,17.958,17.958,0,0,0,3.78,5.873,17.414,17.414,0,0,0,5.369,3.748,15.6,15.6,0,0,0,6.205,1.372q-.438.639-.856,1.191c-.135.178-.252.326-.353.448a5.08,5.08,0,0,0-2.482,1.224,5.066,5.066,0,0,0-1.7,3.886c0,2.258,1.43,3.975,4.249,5.1a17.574,17.574,0,0,0,6.432.949,13.008,13.008,0,0,0,3.037-.369,7.635,7.635,0,0,0,3.673-2.01c.622-.631.789-1,1.869-3.413.658-1.471,1.429-3.271,2.29-5.354s1.82-4.454,2.844-7.037c1.017-2.567,1.98-5.1,2.862-7.523.892-2.454,1.648-4.709,2.245-6.7a19.83,19.83,0,0,0,1.044-5.393,7.04,7.04,0,0,0-2.233-5.045,12.584,12.584,0,0,0-2.621-2.018,30.83,30.83,0,0,0,3.523-4.929l.1-.163a16.741,16.741,0,0,0,4.077-1.127,20.688,20.688,0,0,0,3.254-1.706,16.2,16.2,0,0,0,2.555-2.044,12.809,12.809,0,0,0,1.6-1.866l.162-.242.127-.262a5.516,5.516,0,0,0,.493-2.435,4.407,4.407,0,0,0-4.388-4.519,4.547,4.547,0,0,0-1.3.191,7.4,7.4,0,0,1-1.625.187,6.774,6.774,0,0,1-.942-.065,19.722,19.722,0,0,0-.393-2.275,13.689,13.689,0,0,0-1.879-4.416,11.391,11.391,0,0,0-3.689-3.527,10.469,10.469,0,0,0-4.709-1.431,37.814,37.814,0,0,0,3.947-2.683,48.646,48.646,0,0,0,5.83-5.361,48.727,48.727,0,0,0,5.107-6.5,36.7,36.7,0,0,0,3.7-7.273,22.776,22.776,0,0,0,1.5-7.939,14.242,14.242,0,0,0-1.918-7.272,19.029,19.029,0,0,0-4.3-5.088,19.546,19.546,0,0,0-5.547-3.236,16.64,16.64,0,0,0-5.835-1.156Zm-4.429,14.365a17.29,17.29,0,0,1,5.116-.85c-.008,0,.058.015.181.066a1.805,1.805,0,0,1,.512.332,1.706,1.706,0,0,1,.364.487.2.2,0,0,1,.028.115,16.862,16.862,0,0,1-1.765,7.138,41.732,41.732,0,0,1-4.663,7.682q-.428.556-.857,1.079.387-1,.736-1.932c.714-1.905,1.31-3.612,1.771-5.073a14.781,14.781,0,0,0,.849-4.341,5.989,5.989,0,0,0-1.359-3.652,11.736,11.736,0,0,0-.913-1.051ZM-296.351-509.6a39.967,39.967,0,0,1,2.711-3.326,59.429,59.429,0,0,1,6.095-5.8q1.5-1.246,3.066-2.4c-.744,2.04-1.654,4.33-2.71,6.825-1.2,2.834-2.513,5.815-3.9,8.866a4.626,4.626,0,0,0-.883-2.564l-.6-.8-.894-.441a4.4,4.4,0,0,0-1.966-.453,4.98,4.98,0,0,0-.921.088Zm17.534,34.684q1.008-1.433,2.017-2.688.436.531.887,1.037-.493.688-.981,1.267h-.069a4.633,4.633,0,0,0-1.853.385Zm-6.426,27.745a2.9,2.9,0,0,1-1.941-.754,3.489,3.489,0,0,1-.576-2.377,31.261,31.261,0,0,1,1.057-7.91,47.715,47.715,0,0,1,2.892-8.047q.788-1.694,1.665-3.3a6.018,6.018,0,0,0,1.46,3.728,9.557,9.557,0,0,0,2.288,1.989,11.784,11.784,0,0,0,2.028,1.027q-.035.223-.051.454c-.035.143-.121.473-.323,1.107a31.8,31.8,0,0,1-1.277,3.246c-.591,1.318-1.284,2.738-2.059,4.219a28.6,28.6,0,0,1-2.332,3.755,14.835,14.835,0,0,1-2.327,2.539,1.807,1.807,0,0,1-.5.328Z" transform="translate(312.912 542.394)" fill="#fff"/>
          </g>
        </g>
      </g>
      <g id="Grupo_377" data-name="Grupo 377" transform="translate(-308.562 -557.843)">
        <g id="ecetas" transform="translate(43.655 9.327)">
          <g id="Grupo_370" data-name="Grupo 370">
            <g id="Grupo_364" data-name="Grupo 364" transform="translate(0 14.831)">
              <path id="Trazado_626" data-name="Trazado 626" d="M-217.863-487.543q1,0,1.12.772a6.834,6.834,0,0,1-.193,2.238,16.912,16.912,0,0,1-1.389,3.281,21.248,21.248,0,0,1-3.242,4.578,21.086,21.086,0,0,1-5.094,4.053,13.415,13.415,0,0,1-6.869,1.75,10.433,10.433,0,0,1-4.4-.887,9.265,9.265,0,0,1-3.242-2.431,10.942,10.942,0,0,1-2.007-3.55,13.126,13.126,0,0,1-.695-4.322,17.56,17.56,0,0,1,1.35-6.483,23.2,23.2,0,0,1,3.628-6.175,21.613,21.613,0,0,1,5.132-4.592,10.821,10.821,0,0,1,5.867-1.813,7.487,7.487,0,0,1,2.7.5,6.819,6.819,0,0,1,2.316,1.47,6.946,6.946,0,0,1,1.583,2.362,8.2,8.2,0,0,1,.579,3.173,9.317,9.317,0,0,1-1.2,4.142A11.284,11.284,0,0,1-225-485.914a12.369,12.369,0,0,1-4.746,2.169,13.92,13.92,0,0,1-6.253-.117,12.827,12.827,0,0,0-.116,2.942,6.024,6.024,0,0,0,.695,2.439,4.369,4.369,0,0,0,1.621,1.665,5.33,5.33,0,0,0,2.74.619,9.323,9.323,0,0,0,4.979-1.35,16.785,16.785,0,0,0,3.782-3.126,17.176,17.176,0,0,0,2.508-3.589q.927-1.813,1.313-2.74Q-218.25-487.542-217.863-487.543Zm-9.03-10.188a3.871,3.871,0,0,0-2.277.888,11.436,11.436,0,0,0-2.315,2.392,23.777,23.777,0,0,0-2.085,3.4,33.047,33.047,0,0,0-1.658,3.82,4.964,4.964,0,0,0,2.971-.463,9.539,9.539,0,0,0,2.585-1.852,14.342,14.342,0,0,0,2.045-2.586,13.339,13.339,0,0,0,1.313-2.662,4.655,4.655,0,0,0,.308-2.084C-226.083-497.447-226.38-497.731-226.894-497.731Z" transform="translate(243.874 501.127)" fill="#d92d2d"/>
            </g>
            <g id="Grupo_365" data-name="Grupo 365" transform="translate(24.389 14.831)">
              <path id="Trazado_627" data-name="Trazado 627" d="M-182.788-487.543q.539,0,.887.772a3.763,3.763,0,0,1,.039,2.238,13.818,13.818,0,0,1-.734,1.775,19.25,19.25,0,0,1-1.62,2.74,37.536,37.536,0,0,1-2.471,3.158,19.58,19.58,0,0,1-3.242,2.984,17.394,17.394,0,0,1-3.936,2.168,12.417,12.417,0,0,1-4.593.837,10.431,10.431,0,0,1-4.4-.887,9.264,9.264,0,0,1-3.242-2.431,10.93,10.93,0,0,1-2.007-3.55,13.126,13.126,0,0,1-.695-4.322,17.533,17.533,0,0,1,1.351-6.483,23.193,23.193,0,0,1,3.627-6.175,21.6,21.6,0,0,1,5.133-4.592,10.821,10.821,0,0,1,5.866-1.813,7.652,7.652,0,0,1,3.2.617,7.742,7.742,0,0,1,2.277,1.544,5.8,5.8,0,0,1,1.35,2.045,6.014,6.014,0,0,1,.424,2.123,4.236,4.236,0,0,1-1.2,3.357,4.9,4.9,0,0,1-2.509,1.236,3.773,3.773,0,0,1-2.2-.232q-.888-.424-.347-1.042a8.107,8.107,0,0,0,1.428-2.085,5.357,5.357,0,0,0,.54-2.006,2.659,2.659,0,0,0-.347-1.544,1.425,1.425,0,0,0-1.312-.617,5.026,5.026,0,0,0-3.4,1.588,17.157,17.157,0,0,0-3.087,3.99,24.644,24.644,0,0,0-2.238,5.189,16.052,16.052,0,0,0-.772,5.191,6.983,6.983,0,0,0,1.235,3.989,4.364,4.364,0,0,0,3.782,1.587,8.719,8.719,0,0,0,4.708-1.35,17.986,17.986,0,0,0,3.782-3.126,20.478,20.478,0,0,0,2.662-3.589,27.092,27.092,0,0,0,1.428-2.74C-183.251-487.362-183.047-487.543-182.788-487.543Z" transform="translate(208.799 501.127)" fill="#d92d2d"/>
            </g>
            <g id="Grupo_366" data-name="Grupo 366" transform="translate(48.778 14.831)">
              <path id="Trazado_628" data-name="Trazado 628" d="M-147.714-487.543q1,0,1.119.772a6.85,6.85,0,0,1-.193,2.238,17.035,17.035,0,0,1-1.389,3.281,21.272,21.272,0,0,1-3.242,4.578,21.1,21.1,0,0,1-5.095,4.053,13.41,13.41,0,0,1-6.869,1.75,10.432,10.432,0,0,1-4.4-.887,9.271,9.271,0,0,1-3.242-2.431,10.94,10.94,0,0,1-2.006-3.55,13.126,13.126,0,0,1-.695-4.322,17.532,17.532,0,0,1,1.35-6.483,23.178,23.178,0,0,1,3.628-6.175,21.577,21.577,0,0,1,5.133-4.592,10.817,10.817,0,0,1,5.865-1.813,7.493,7.493,0,0,1,2.7.5,6.818,6.818,0,0,1,2.315,1.47,6.933,6.933,0,0,1,1.582,2.362,8.19,8.19,0,0,1,.579,3.173,9.308,9.308,0,0,1-1.2,4.142,11.274,11.274,0,0,1-3.087,3.562,12.377,12.377,0,0,1-4.747,2.169,13.917,13.917,0,0,1-6.252-.117,12.707,12.707,0,0,0-.115,2.942,6,6,0,0,0,.695,2.439,4.36,4.36,0,0,0,1.621,1.665,5.326,5.326,0,0,0,2.74.619,9.318,9.318,0,0,0,4.978-1.35,16.756,16.756,0,0,0,3.783-3.126,17.149,17.149,0,0,0,2.508-3.589q.926-1.813,1.312-2.74C-148.176-487.362-147.972-487.543-147.714-487.543Zm-9.03-10.188a3.873,3.873,0,0,0-2.277.888,11.418,11.418,0,0,0-2.315,2.392,23.7,23.7,0,0,0-2.084,3.4,32.817,32.817,0,0,0-1.66,3.82,4.966,4.966,0,0,0,2.972-.463,9.551,9.551,0,0,0,2.585-1.852,14.345,14.345,0,0,0,2.046-2.586,13.367,13.367,0,0,0,1.311-2.662,4.649,4.649,0,0,0,.309-2.084Q-155.973-497.73-156.744-497.731Z" transform="translate(173.724 501.127)" fill="#d92d2d"/>
            </g>
            <g id="Grupo_367" data-name="Grupo 367" transform="translate(71.391)">
              <path id="Trazado_629" data-name="Trazado 629" d="M-122.139-509.478a6.647,6.647,0,0,1,.926,1.39,5.473,5.473,0,0,1,.5,1.389c.076.412-.039.617-.348.617a3.058,3.058,0,0,1-.425-.038,6.636,6.636,0,0,0-.848-.039q-.58,0-1.621-.039t-2.818-.038a124.054,124.054,0,0,0-4.67,12.156,33.058,33.058,0,0,0-1.813,9.841q0,1.544,1,1.544.539,0,1.66-1.081a24.056,24.056,0,0,0,2.353-2.7,33.918,33.918,0,0,0,2.354-3.55,24.93,24.93,0,0,0,1.737-3.55.221.221,0,0,1,.077-.154c.1-.1.179-.154.232-.154q.848,0,1,.656a4.743,4.743,0,0,1,.076,1.5c-.1.617-.258,1.339-.462,2.161a26.571,26.571,0,0,1-1.235,2.7,31.652,31.652,0,0,1-2.509,4.129,21.33,21.33,0,0,1-3.358,3.744,5.812,5.812,0,0,1-3.858,1.621,6.035,6.035,0,0,1-4.516-1.775q-1.737-1.775-1.737-5.4a19.039,19.039,0,0,1,.463-3.7q.464-2.238,1.274-5.017t1.968-6.059q1.159-3.279,2.625-6.907h-4.322a1.686,1.686,0,0,1-1.35-.733,6.292,6.292,0,0,1-.926-1.621,8.024,8.024,0,0,1-.463-1.583q-.117-.695.115-.695a20.848,20.848,0,0,0,2.122.463q.964.156,1.93.27t2.046.155c.72.026,1.517.038,2.393.038q.616-1.464,1.466-3.434t1.66-3.781q.809-1.814,1.5-3.2a8.235,8.235,0,0,1,1-1.7,2.052,2.052,0,0,1,1.814-.347,9.431,9.431,0,0,1,2.469.733,7.06,7.06,0,0,1,1.968,1.273q.772.735.309,1.2a7.12,7.12,0,0,0-.81,1.35q-.58,1.121-1.274,2.548t-1.351,2.855q-.657,1.429-1.119,2.354h1.929C-122.783-510.1-122.5-509.888-122.139-509.478Z" transform="translate(141.203 522.456)" fill="#d92d2d"/>
            </g>
            <g id="Grupo_368" data-name="Grupo 368" transform="translate(86.441 14.831)">
              <path id="Trazado_630" data-name="Trazado 630" d="M-86.37-487.466a1.012,1.012,0,0,1,1.081.695,3.089,3.089,0,0,1,.077,1.544,16.683,16.683,0,0,1-.54,2.161,24.712,24.712,0,0,1-1.236,2.662,36.067,36.067,0,0,1-2.469,4.091,19.507,19.507,0,0,1-3.358,3.744,5.877,5.877,0,0,1-3.821,1.621,5.951,5.951,0,0,1-4.63-1.775q-1.622-1.775-1.621-6.02a28.887,28.887,0,0,1-1.891,2.855,26.512,26.512,0,0,1-2.122,2.51,13.114,13.114,0,0,1-2.123,1.813,3.5,3.5,0,0,1-1.891.695,8.071,8.071,0,0,1-3.434-.733,8.763,8.763,0,0,1-2.741-1.969,9.023,9.023,0,0,1-1.813-2.894,9.461,9.461,0,0,1-.656-3.512,19.525,19.525,0,0,1,1.274-6.329,32.248,32.248,0,0,1,3.434-6.946,23.834,23.834,0,0,1,4.978-5.6,9.185,9.185,0,0,1,5.828-2.277,5.707,5.707,0,0,1,2.508.54,11.029,11.029,0,0,1,2.007,1.235,8.242,8.242,0,0,1,1.428,1.389q.539.695.695.926a22.172,22.172,0,0,1,1.234-2.316q.54-.848.773-.849a7.143,7.143,0,0,1,2.006.348,10.1,10.1,0,0,1,2.162.926,5.049,5.049,0,0,1,1.5,1.234.865.865,0,0,1,.039,1.2,17.57,17.57,0,0,0-2.046,3.4,41.974,41.974,0,0,0-1.929,4.786,47.078,47.078,0,0,0-1.467,5.364,24.964,24.964,0,0,0-.579,5.133,2.05,2.05,0,0,0,.271,1.119.774.774,0,0,0,.656.425q.54,0,1.7-1.081a19.722,19.722,0,0,0,2.354-2.7,38.935,38.935,0,0,0,2.315-3.55,24.921,24.921,0,0,0,1.736-3.55.222.222,0,0,1,.077-.154Q-86.449-487.466-86.37-487.466Zm-24.313,10.96q.463,0,1.466-.926a22.057,22.057,0,0,0,2.2-2.431q1.2-1.506,2.469-3.4t2.393-3.744a37.24,37.24,0,0,0,1.891-3.512,13.644,13.644,0,0,0,1-2.74,1.742,1.742,0,0,0-.695-1.66,3.43,3.43,0,0,0-2.315-.733,4.546,4.546,0,0,0-2.972,1.7,22.208,22.208,0,0,0-3.164,4.245,28.059,28.059,0,0,0-2.509,5.634,18.97,18.97,0,0,0-1,5.866,2.229,2.229,0,0,0,.309,1.2A1.013,1.013,0,0,0-110.683-476.506Z" transform="translate(119.559 501.127)" fill="#d92d2d"/>
            </g>
            <g id="Grupo_369" data-name="Grupo 369" transform="translate(110.908 15.14)">
              <path id="Trazado_631" data-name="Trazado 631" d="M-63.92-496.9c0,.567-.143.862-.424.888s-.553.244-.811.656a13.87,13.87,0,0,0-1.466,3.589,14.1,14.1,0,0,0-.386,3.2,12.878,12.878,0,0,0,.425,3.358q.422,1.582.964,3.164t.964,3.164a12.913,12.913,0,0,1,.425,3.357,12.953,12.953,0,0,1-1.2,5.712,14.358,14.358,0,0,1-2.971,4.167,12.742,12.742,0,0,1-3.9,2.586,10.357,10.357,0,0,1-3.975.888,8.33,8.33,0,0,1-3.087-.579,8.153,8.153,0,0,1-2.586-1.621,7.806,7.806,0,0,1-1.775-2.469,7.24,7.24,0,0,1-.656-3.049,5.163,5.163,0,0,1,1.235-3.357,3.565,3.565,0,0,1,2.779-1.505,4.144,4.144,0,0,1,2.353.695q1.042.695,1.042,1a.136.136,0,0,1-.154.154,3.313,3.313,0,0,0-2.315,1.489,4.652,4.652,0,0,0-.849,2.635,3.6,3.6,0,0,0,.734,2.254,2.978,2.978,0,0,0,2.508.954,3.681,3.681,0,0,0,1.891-.578,5.38,5.38,0,0,0,1.736-1.809,11.442,11.442,0,0,0,1.274-3.157,18.2,18.2,0,0,0,.5-4.545,21.286,21.286,0,0,0-.541-4.7q-.54-2.389-1.312-5.545a29.991,29.991,0,0,1-1.389,3.659,12.143,12.143,0,0,1-1.081,1.886,2.371,2.371,0,0,1-.733.732,1.274,1.274,0,0,1-.348.114,1.1,1.1,0,0,1-.926-.654,2.506,2.506,0,0,1-.386-1.271q.926-2.31,1.775-4.467.771-1.849,1.544-3.928t1.312-3.619a21.418,21.418,0,0,1,1.312-4.005A9.4,9.4,0,0,1-71.1-499.6a3.565,3.565,0,0,1,1.042-.886,1.807,1.807,0,0,1,.579-.193,5.206,5.206,0,0,1,1.737.348,9.194,9.194,0,0,1,1.813.887,6.7,6.7,0,0,1,1.428,1.2A2.033,2.033,0,0,1-63.92-496.9Z" transform="translate(84.373 500.683)" fill="#d92d2d"/>
            </g>
          </g>
        </g>
        <g id="R">
          <g id="Grupo_372" data-name="Grupo 372">
            <g id="Grupo_371" data-name="Grupo 371">
              <path id="Trazado_632" data-name="Trazado 632" d="M-253.168-477.983c.257-.1.385,0,.385.309a1.642,1.642,0,0,1-.077.617,9.1,9.1,0,0,1-1.081,1.235,11.962,11.962,0,0,1-1.891,1.505,16.413,16.413,0,0,1-2.585,1.35,12.508,12.508,0,0,1-3.088.849,7.716,7.716,0,0,1-6.136-1.891,28.967,28.967,0,0,1-5.4-5.943,73.558,73.558,0,0,1-4.593-7.486q-2.084-3.9-3.628-6.522-1.082,2.934-2.045,5.712t-1.7,5.287q-.735,2.508-1.158,4.631a19.27,19.27,0,0,0-.426,3.744c0,.205-.142.386-.424.54a1.974,1.974,0,0,1-.965.232,4.576,4.576,0,0,1-1.814-.463,9.206,9.206,0,0,1-2.007-1.234,8.946,8.946,0,0,1-1.621-1.66,3.019,3.019,0,0,1-.656-1.814,16.351,16.351,0,0,1,1.273-4.785q1.273-3.4,3.2-7.8t4.168-9.3q2.238-4.9,4.168-9.455t3.2-8.182a18.323,18.323,0,0,0,1.274-5.4q0-.616.308-.771a1.254,1.254,0,0,1,.541-.155,2.861,2.861,0,0,1,1.311.425,9.335,9.335,0,0,1,1.505,1.042,8.261,8.261,0,0,1,1.235,1.274,1.99,1.99,0,0,1,.5,1.119,11.6,11.6,0,0,1-.656,3.087q-.657,2.084-1.7,4.863t-2.393,6.1q-1.352,3.319-2.74,6.869a2.545,2.545,0,0,0,1.544.695q1.852,0,4.9-2.47a37.679,37.679,0,0,0,6.021-6.329,45.717,45.717,0,0,0,5.132-8.451,20.877,20.877,0,0,0,2.162-8.915,4.378,4.378,0,0,0-.5-2.046,5.868,5.868,0,0,0-1.273-1.659,5.976,5.976,0,0,0-1.7-1.081,4.616,4.616,0,0,0-1.775-.386,22.386,22.386,0,0,0-7.834,1.544,48.172,48.172,0,0,0-8.181,4.014,64.789,64.789,0,0,0-7.757,5.557,63.307,63.307,0,0,0-6.522,6.213,38.282,38.282,0,0,0-4.516,5.981,9.961,9.961,0,0,0-1.7,4.785.792.792,0,0,0,.54.772,2.906,2.906,0,0,0,1.158.232,7.666,7.666,0,0,0,2.007-.27,15.653,15.653,0,0,0,1.852-.618q.849-.347,1.389-.54t.695-.116c.155.206-.026.579-.54,1.119a13.578,13.578,0,0,1-1.969,1.66,16.126,16.126,0,0,1-2.624,1.5,6.153,6.153,0,0,1-2.508.656,2.825,2.825,0,0,1-1.852-.964,12.773,12.773,0,0,1-1.891-2.354,14.891,14.891,0,0,1-1.467-3.01,8.813,8.813,0,0,1-.578-2.933,8.99,8.99,0,0,1,2.007-4.785,41.393,41.393,0,0,1,5.326-6.02,75.4,75.4,0,0,1,7.6-6.291,78.6,78.6,0,0,1,8.915-5.634,61.285,61.285,0,0,1,9.223-4.091,26.3,26.3,0,0,1,8.529-1.583,12.436,12.436,0,0,1,4.36.888,15.287,15.287,0,0,1,4.361,2.547,14.789,14.789,0,0,1,3.357,3.975,10.082,10.082,0,0,1,1.35,5.171,18.531,18.531,0,0,1-1.234,6.483,32.419,32.419,0,0,1-3.281,6.445,44.42,44.42,0,0,1-4.67,5.944,44.235,44.235,0,0,1-5.326,4.9,30.325,30.325,0,0,1-5.248,3.319,10.63,10.63,0,0,1-4.553,1.234,44.287,44.287,0,0,0,4.206,6.87,34.45,34.45,0,0,0,5.48,5.9,21.939,21.939,0,0,0,6.29,3.781A11.15,11.15,0,0,0-253.168-477.983Z" transform="translate(306.656 535.87)" fill="#d92d2d"/>
            </g>
          </g>
        </g>
        <g id="Grupo_375" data-name="Grupo 375" transform="translate(9.286 46.48)">
          <g id="Grupo_373" data-name="Grupo 373" transform="translate(34.616 6.026)">
            <path id="Trazado_633" data-name="Trazado 633" d="M-93.5-446.175a.818.818,0,0,1,.562-.455c.2-.018.295-.223.295-.616a1.409,1.409,0,0,0-.4-.937,4.631,4.631,0,0,0-.99-.83,6.417,6.417,0,0,0-1.259-.616,3.618,3.618,0,0,0-1.2-.241,1.253,1.253,0,0,0-.4.134,2.466,2.466,0,0,0-.723.615,6.544,6.544,0,0,0-.911,1.5,14.9,14.9,0,0,0-.91,2.778q-.376,1.07-.91,2.511t-1.071,2.724c-.129.326-.262.663-.394,1-.12.224-.246.452-.382.686a26.385,26.385,0,0,1-1.607,2.463,13.65,13.65,0,0,1-1.632,1.875q-.8.75-1.179.75a.536.536,0,0,1-.455-.295,1.417,1.417,0,0,1-.188-.776,17.27,17.27,0,0,1,.4-3.56,32.572,32.572,0,0,1,1.017-3.721,29.028,29.028,0,0,1,1.339-3.32,12.216,12.216,0,0,1,1.418-2.356.6.6,0,0,0-.026-.83,3.508,3.508,0,0,0-1.044-.857,7.051,7.051,0,0,0-1.5-.642,4.946,4.946,0,0,0-1.392-.241c-.107,0-.286.2-.535.588a15.512,15.512,0,0,0-.857,1.607q-.107-.161-.482-.643a5.727,5.727,0,0,0-.99-.964,7.681,7.681,0,0,0-1.392-.856,3.961,3.961,0,0,0-1.74-.375,6.376,6.376,0,0,0-4.043,1.579,16.561,16.561,0,0,0-3.454,3.881,22.451,22.451,0,0,0-2.382,4.819c-.2.56-.348,1.086-.479,1.6-.063.11-.122.217-.19.33a21.421,21.421,0,0,1-1.713,2.463,16.649,16.649,0,0,1-1.74,1.874q-.831.751-1.2.75a.536.536,0,0,1-.455-.3,1.425,1.425,0,0,1-.187-.779,11.318,11.318,0,0,1,.4-2.794,28.131,28.131,0,0,1,.992-3.09q.587-1.531,1.231-2.875t1.124-2.149a1.072,1.072,0,0,0,.161-.645,1.9,1.9,0,0,0-.268-.913,3.642,3.642,0,0,0-.7-.887,4.088,4.088,0,0,0-.964-.672,2.369,2.369,0,0,0-1.07-.268A11.794,11.794,0,0,0-129.8-448a11.794,11.794,0,0,1-1.82.161,1.62,1.62,0,0,1-.75-.106,41.179,41.179,0,0,0,1.339-3.912,10.054,10.054,0,0,0,.428-2.475,1.958,1.958,0,0,0-.321-1.117,3.166,3.166,0,0,0-.75-.8,3.337,3.337,0,0,0-.883-.48,2.424,2.424,0,0,0-.777-.16,3.334,3.334,0,0,0-1.9.7,8.879,8.879,0,0,0-1.794,1.686,10.03,10.03,0,0,0-1.339,2.169,5.232,5.232,0,0,0-.535,2.142,6.223,6.223,0,0,0,.562,2.437,3.793,3.793,0,0,0,2.49,1.954q-.589,1.553-1.311,3.159t-1.366,2.891c-.177.353-.368.732-.569,1.127-.06.08-.117.161-.181.238a9.089,9.089,0,0,1-1.473,1.419,8.8,8.8,0,0,1-1.5.937,3.909,3.909,0,0,1-1.2.4,18.534,18.534,0,0,0,1.339-3.534,14.434,14.434,0,0,0,.481-3.7,11.076,11.076,0,0,0-.321-2.65,6.265,6.265,0,0,0-1.1-2.329,5.523,5.523,0,0,0-2.089-1.633,7.748,7.748,0,0,0-3.292-.616,5.806,5.806,0,0,0-3.159,1.2,14.975,14.975,0,0,0-3.32,3.186,19.157,19.157,0,0,0-2.6,4.5,14.18,14.18,0,0,0-.6,1.806c-.226.48-.487.983-.795,1.514a26.927,26.927,0,0,1-1.606,2.463,13.682,13.682,0,0,1-1.633,1.874q-.8.751-1.178.75a.537.537,0,0,1-.455-.295,1.417,1.417,0,0,1-.188-.776,18.185,18.185,0,0,1,.483-3.641q.481-2.249,1.285-4.792t1.793-5.166q.991-2.622,1.954-4.845a37.83,37.83,0,0,1,1.874-3.8,6.986,6.986,0,0,1,1.5-2.008q.374-.268-.134-.75a5.167,5.167,0,0,0-1.366-.884,7.093,7.093,0,0,0-1.74-.562,1.375,1.375,0,0,0-1.258.214,7.1,7.1,0,0,0-.992,1.553q-.615,1.179-1.392,2.918t-1.606,3.829q-.83,2.088-1.633,4.337-.214-.267-.615-.723a6.725,6.725,0,0,0-.964-.883,5.6,5.6,0,0,0-1.285-.722,4.154,4.154,0,0,0-1.58-.295,6.374,6.374,0,0,0-4.042,1.579,16.561,16.561,0,0,0-3.454,3.881,22.488,22.488,0,0,0-2.383,4.819c-.043.124-.073.237-.113.359-.226.481-.488.984-.8,1.514a26.38,26.38,0,0,1-1.606,2.463,13.607,13.607,0,0,1-1.633,1.875q-.8.75-1.178.75a.536.536,0,0,1-.455-.295,1.411,1.411,0,0,1-.188-.776,17.222,17.222,0,0,1,.4-3.56,32.572,32.572,0,0,1,1.017-3.721,29.023,29.023,0,0,1,1.339-3.32,12.18,12.18,0,0,1,1.419-2.356.6.6,0,0,0-.027-.83,3.5,3.5,0,0,0-1.044-.857,7.046,7.046,0,0,0-1.5-.642,4.963,4.963,0,0,0-1.392-.241c-.107,0-.286.2-.536.588a15.544,15.544,0,0,0-.856,1.607c-.072-.107-.233-.321-.482-.643a5.735,5.735,0,0,0-.991-.964,7.656,7.656,0,0,0-1.392-.856,3.961,3.961,0,0,0-1.74-.375,6.377,6.377,0,0,0-4.043,1.579,16.541,16.541,0,0,0-3.453,3.881,22.451,22.451,0,0,0-2.383,4.819c-.018.051-.03.1-.047.149a17.5,17.5,0,0,1-.942,1.779,19.519,19.519,0,0,1-1.74,2.463,18.434,18.434,0,0,1-1.767,1.874q-.83.751-1.2.75a.538.538,0,0,1-.455-.295,1.429,1.429,0,0,1-.187-.776,7.261,7.261,0,0,1,.722-2.864q.723-1.633,1.553-3.32t1.553-3.185a6.07,6.07,0,0,0,.722-2.516,4.009,4.009,0,0,0-.964-2.945,3.693,3.693,0,0,0-2.731-.964,3.907,3.907,0,0,0-1.767.589,12.622,12.622,0,0,0-2.249,1.633A22.371,22.371,0,0,0-213-444.971a24.283,24.283,0,0,0-2.142,3.025,15.01,15.01,0,0,1,.563-1.419q.347-.775.669-1.552t.562-1.446a3.382,3.382,0,0,0,.241-1.1,1.461,1.461,0,0,0-.428-.964,4.823,4.823,0,0,0-1.017-.857,5.353,5.353,0,0,0-1.285-.589,4.147,4.147,0,0,0-1.178-.214c-.286,0-.464.08-.536.241a1.023,1.023,0,0,0-.106.4,6.463,6.463,0,0,1-.375,1.526q-.376,1.153-.964,2.7t-1.258,3.346c-.33.884-.64,1.74-.94,2.584-.209.431-.447.881-.72,1.351a26.654,26.654,0,0,1-1.606,2.463,13.65,13.65,0,0,1-1.633,1.875q-.8.75-1.179.75a.537.537,0,0,1-.455-.295,1.417,1.417,0,0,1-.187-.776,17.222,17.222,0,0,1,.4-3.56,32.276,32.276,0,0,1,1.017-3.721,29.021,29.021,0,0,1,1.337-3.32,12.18,12.18,0,0,1,1.419-2.356.6.6,0,0,0-.026-.83,3.508,3.508,0,0,0-1.044-.857,7.047,7.047,0,0,0-1.5-.642,4.954,4.954,0,0,0-1.392-.241c-.107,0-.286.2-.535.588a15.135,15.135,0,0,0-.857,1.607c-.072-.107-.233-.321-.482-.643a5.759,5.759,0,0,0-.991-.964,7.705,7.705,0,0,0-1.392-.856,3.966,3.966,0,0,0-1.74-.375A6.372,6.372,0,0,0-236.8-448.5a16.516,16.516,0,0,0-3.454,3.881,22.419,22.419,0,0,0-2.383,4.819,13.549,13.549,0,0,0-.883,4.39,6.553,6.553,0,0,0,.455,2.436,6.25,6.25,0,0,0,1.258,2.008,6.081,6.081,0,0,0,1.9,1.365,5.6,5.6,0,0,0,2.383.509,2.43,2.43,0,0,0,1.311-.482,9.1,9.1,0,0,0,1.472-1.258,18.707,18.707,0,0,0,1.473-1.74,20.1,20.1,0,0,0,1.311-1.981q0,2.945,1.125,4.176a4.129,4.129,0,0,0,3.212,1.231,4.078,4.078,0,0,0,2.65-1.124,13.454,13.454,0,0,0,2.174-2.388,3.039,3.039,0,0,0,.369.969,4.692,4.692,0,0,0,1.044,1.232,7.062,7.062,0,0,0,1.231.829,2.314,2.314,0,0,0,.991.321,1.3,1.3,0,0,0,.588-.133c.179-.089.268-.188.268-.295a9.735,9.735,0,0,1,.643-3.32,25.782,25.782,0,0,1,1.606-3.534,28.015,28.015,0,0,1,2.142-3.346q1.178-1.579,2.222-2.811a20.821,20.821,0,0,1,1.848-1.955c.536-.481.874-.722,1.017-.722s.214.143.214.428a6.066,6.066,0,0,1-.615,1.874q-.617,1.393-1.339,3.052t-1.312,3.32a8.5,8.5,0,0,0-.588,2.677,5.167,5.167,0,0,0,1.205,3.748,4.182,4.182,0,0,0,3.132,1.231,4.282,4.282,0,0,0,2.7-1.124,15.643,15.643,0,0,0,2.489-2.6q.549-.719,1.013-1.417a6.385,6.385,0,0,0,.352,1.257,6.26,6.26,0,0,0,1.257,2.008,6.083,6.083,0,0,0,1.9,1.365,5.6,5.6,0,0,0,2.382.509,2.43,2.43,0,0,0,1.312-.482,9.041,9.041,0,0,0,1.472-1.258,18.507,18.507,0,0,0,1.473-1.74,19.975,19.975,0,0,0,1.311-1.981q0,2.945,1.124,4.176a4.133,4.133,0,0,0,3.214,1.231,4.076,4.076,0,0,0,2.649-1.124,13.531,13.531,0,0,0,2.329-2.6c.309-.449.594-.888.859-1.322a6.37,6.37,0,0,0,.346,1.214,6.26,6.26,0,0,0,1.258,2.008,6.072,6.072,0,0,0,1.9,1.365,5.6,5.6,0,0,0,2.382.509,2.4,2.4,0,0,0,1.285-.455,8.309,8.309,0,0,0,1.419-1.2,18.124,18.124,0,0,0,1.446-1.713q.723-.964,1.311-1.928v.322a5.169,5.169,0,0,0,1.205,3.748A4.185,4.185,0,0,0-164.6-429.1a4.035,4.035,0,0,0,2.676-1.124,14.767,14.767,0,0,0,2.329-2.6c.428-.6.8-1.2,1.137-1.78a7.763,7.763,0,0,0,.415,1.807,5.7,5.7,0,0,0,1.392,2.168,5.06,5.06,0,0,0,2.062,1.179,8.85,8.85,0,0,0,2.516.348,6.99,6.99,0,0,0,3.454-.91,12.315,12.315,0,0,0,3.025-2.409,1.278,1.278,0,0,1,.241.026,1.435,1.435,0,0,0,.295.027,6.773,6.773,0,0,0,2.918-.616,9.863,9.863,0,0,0,2.276-1.446c.128-.11.247-.22.364-.331,0,0,.007.008.011.01a.253.253,0,0,0,.375-.08,28.851,28.851,0,0,0,2.489-3.909q1.417-2.57,3.132-6.425a3.889,3.889,0,0,0,1.124.161,6.916,6.916,0,0,0,1.74-.214,8.372,8.372,0,0,1,.937-.214c.072,0,.1.026.081.08s-.026.063-.026.026q-.216.376-.911,1.821t-1.418,3.213q-.723,1.767-1.311,3.507a9.1,9.1,0,0,0-.59,2.7,5.242,5.242,0,0,0,1.178,3.748,4.162,4.162,0,0,0,3.159,1.231,4.284,4.284,0,0,0,2.7-1.124,15.618,15.618,0,0,0,2.49-2.6c.259-.34.5-.675.727-1.008a6.459,6.459,0,0,0,.262.848,6.261,6.261,0,0,0,1.258,2.008,6.072,6.072,0,0,0,1.9,1.365,5.6,5.6,0,0,0,2.383.509,2.43,2.43,0,0,0,1.311-.482,9.041,9.041,0,0,0,1.472-1.258,18.493,18.493,0,0,0,1.473-1.74,19.98,19.98,0,0,0,1.311-1.981q0,2.945,1.125,4.176a4.129,4.129,0,0,0,3.212,1.231,3.351,3.351,0,0,0,1.191-.236,3.538,3.538,0,0,0-.121.879,5.007,5.007,0,0,0,.455,2.115,5.394,5.394,0,0,0,1.231,1.713,5.665,5.665,0,0,0,1.794,1.124,5.783,5.783,0,0,0,2.142.4,7.206,7.206,0,0,0,2.757-.615,8.851,8.851,0,0,0,2.7-1.794,9.957,9.957,0,0,0,2.061-2.891,8.98,8.98,0,0,0,.83-3.962,9,9,0,0,0-.293-2.329q-.3-1.1-.669-2.2t-.67-2.2a8.924,8.924,0,0,1-.295-2.329,9.763,9.763,0,0,1,.268-2.222A9.631,9.631,0,0,1-93.5-446.175Zm-135.939,1.552a9.509,9.509,0,0,1-.7,1.9,25.856,25.856,0,0,1-1.312,2.436q-.776,1.285-1.66,2.6t-1.713,2.357a15.3,15.3,0,0,1-1.526,1.686q-.7.642-1.017.642a.7.7,0,0,1-.643-.348,1.54,1.54,0,0,1-.214-.83,13.153,13.153,0,0,1,.7-4.069,19.5,19.5,0,0,1,1.74-3.909,15.4,15.4,0,0,1,2.194-2.944,3.153,3.153,0,0,1,2.062-1.178,2.381,2.381,0,0,1,1.606.508A1.208,1.208,0,0,1-229.437-444.623Zm41.492,0a9.452,9.452,0,0,1-.7,1.9,25.841,25.841,0,0,1-1.311,2.436q-.777,1.285-1.66,2.6t-1.714,2.357a15.229,15.229,0,0,1-1.526,1.686q-.7.642-1.017.642a.7.7,0,0,1-.643-.348,1.546,1.546,0,0,1-.214-.83,13.15,13.15,0,0,1,.7-4.069,19.544,19.544,0,0,1,1.74-3.909,15.4,15.4,0,0,1,2.2-2.944,3.15,3.15,0,0,1,2.061-1.178,2.378,2.378,0,0,1,1.606.508A1.207,1.207,0,0,1-187.944-444.623Zm21.631,0a9.5,9.5,0,0,1-.7,1.9,26.034,26.034,0,0,1-1.312,2.436q-.777,1.285-1.66,2.6t-1.713,2.357a15.227,15.227,0,0,1-1.526,1.686q-.7.642-1.017.642a.7.7,0,0,1-.642-.348,1.545,1.545,0,0,1-.214-.83,13.152,13.152,0,0,1,.7-4.069,19.542,19.542,0,0,1,1.74-3.909,15.427,15.427,0,0,1,2.2-2.944,3.153,3.153,0,0,1,2.062-1.178,2.378,2.378,0,0,1,1.606.508A1.208,1.208,0,0,1-166.313-444.623Zm20.4,2.3a21.913,21.913,0,0,1-.749,2.677,2.768,2.768,0,0,0-1.58.883,2.612,2.612,0,0,0-.67,1.848,5.451,5.451,0,0,0,.214,1.606,7.157,7.157,0,0,1-1.339,1.687,2.5,2.5,0,0,1-1.713.615,1.908,1.908,0,0,1-1.927-1.044,5.264,5.264,0,0,1-.348-2.65,12.512,12.512,0,0,1,.83-3.427,23.151,23.151,0,0,1,1.633-3.427,11.418,11.418,0,0,1,2.061-2.65,3.219,3.219,0,0,1,2.088-1.044,1.433,1.433,0,0,1,1.365.722,3.9,3.9,0,0,1,.4,1.9A11.391,11.391,0,0,1-145.914-442.32Zm12.369-9.129q-.322.992-1.072,2.758a1.742,1.742,0,0,1-.669-.722,2.664,2.664,0,0,1-.134-.937,2.968,2.968,0,0,1,.213-.964,6.434,6.434,0,0,1,.536-1.124,6.719,6.719,0,0,1,.642-.91.86.86,0,0,1,.589-.375c.142,0,.214.25.214.75A5.408,5.408,0,0,1-133.545-451.449Zm23.825,6.826a9.5,9.5,0,0,1-.7,1.9,26.016,26.016,0,0,1-1.312,2.436q-.777,1.285-1.66,2.6t-1.713,2.357a15.23,15.23,0,0,1-1.526,1.686q-.7.642-1.017.642a.7.7,0,0,1-.643-.348,1.552,1.552,0,0,1-.213-.83,13.153,13.153,0,0,1,.7-4.069,19.537,19.537,0,0,1,1.739-3.909,15.4,15.4,0,0,1,2.2-2.944,3.149,3.149,0,0,1,2.061-1.178,2.376,2.376,0,0,1,1.606.508A1.207,1.207,0,0,1-109.721-444.623Zm11.377,15.269a7.935,7.935,0,0,1-.883,2.19,3.74,3.74,0,0,1-1.2,1.255,2.559,2.559,0,0,1-1.312.4,2.068,2.068,0,0,1-1.74-.661,2.5,2.5,0,0,1-.508-1.565,3.224,3.224,0,0,1,.589-1.827,2.3,2.3,0,0,1,1.606-1.033.094.094,0,0,0,.106-.107c0-.142-.24-.375-.722-.7a2.831,2.831,0,0,0-1.286-.459c.27-.324.533-.659.779-1.013a26,26,0,0,0,1.5-2.437,2.149,2.149,0,0,0,.428-.458,8.437,8.437,0,0,0,.75-1.309,20.827,20.827,0,0,0,.964-2.539q.535,2.191.91,3.847A14.786,14.786,0,0,1-98-432.508,12.6,12.6,0,0,1-98.344-429.354Z" transform="translate(243.518 460.358)"/>
          </g>
          <g id="Grupo_374" data-name="Grupo 374">
            <path id="Trazado_634" data-name="Trazado 634" d="M-262.965-439.159a6.8,6.8,0,0,0-2.169-.688q-.975-.107-.976.543a9.494,9.494,0,0,1-.507,2.025,35.509,35.509,0,0,1-1.446,3.688q-.94,2.1-2.17,4.447a32.7,32.7,0,0,1-2.676,4.3,18.85,18.85,0,0,1-3,3.255,4.9,4.9,0,0,1-3.145,1.3,7.045,7.045,0,0,1-4.664-1.736q-2.062-1.736-2.061-5.568a35.272,35.272,0,0,1,1.193-8.967,51.693,51.693,0,0,1,3.145-8.75,59.893,59.893,0,0,1,4.375-7.846,53.405,53.405,0,0,1,4.882-6.364,29.117,29.117,0,0,1,4.664-4.267,6.946,6.946,0,0,1,3.724-1.555,1.81,1.81,0,0,1,1.7.976,4.046,4.046,0,0,1,.543,1.989,11.043,11.043,0,0,1-1.012,4.086,36.083,36.083,0,0,1-2.387,4.7,28.134,28.134,0,0,1-2.784,3.9q-1.41,1.626-2.277,1.627a.631.631,0,0,1-.47-.181.506.506,0,0,0-.326-.181c-.193,0-.41.145-.65.434a1.531,1.531,0,0,0-.362,1.012,1.894,1.894,0,0,0,.507,1.193,5.381,5.381,0,0,0,1.3,1.12,7.9,7.9,0,0,0,1.771.832,6.247,6.247,0,0,0,1.989.325q1.085,0,2.675-1.771a26.37,26.37,0,0,0,3.073-4.3,39.208,39.208,0,0,0,2.568-5.243,12.94,12.94,0,0,0,1.084-4.664,14.737,14.737,0,0,0-.4-3.363,9.49,9.49,0,0,0-1.3-3.073,7.223,7.223,0,0,0-2.35-2.242,6.63,6.63,0,0,0-3.471-.868,12.687,12.687,0,0,0-5.965,1.736,32.737,32.737,0,0,0-6.437,4.664,51.09,51.09,0,0,0-6.218,6.87,55.764,55.764,0,0,0-5.279,8.389,51.963,51.963,0,0,0-3.653,9.148,32.661,32.661,0,0,0-1.374,9.184,15.858,15.858,0,0,0,1.085,6,13.738,13.738,0,0,0,2.893,4.52,13.191,13.191,0,0,0,4.086,2.856,11.387,11.387,0,0,0,4.664,1.012,9.086,9.086,0,0,0,6.436-2.893,34.6,34.6,0,0,0,5.714-7.738q-1.159,3.038-2.929,6.618t-3.544,6.689a48.285,48.285,0,0,1-3.363,5.206q-1.591,2.1-2.386,2.1a.5.5,0,0,1-.218-.037.5.5,0,0,0-.216-.035.878.878,0,0,0-.579.253.953.953,0,0,0-.289.759q0,.578,1.627,1.229a13.877,13.877,0,0,0,4.882.651,8.793,8.793,0,0,0,2.061-.253,3.514,3.514,0,0,0,1.7-.9q.071-.073,1.012-2.169t2.243-5.243q1.3-3.146,2.82-6.979t2.82-7.412q1.3-3.58,2.169-6.472a16.75,16.75,0,0,0,.868-4.195,2.974,2.974,0,0,0-1.012-2.1A8.155,8.155,0,0,0-262.965-439.159Z" transform="translate(293.301 469.025)"/>
          </g>
        </g>
        <g id="Grupo_376" data-name="Grupo 376" transform="translate(29.711 46.824)">
          <path id="Trazado_635" data-name="Trazado 635" d="M-263.928-465.586l2.785,4.645,4.7-3.833-2.691-3.389-2.984-.368" transform="translate(263.928 468.53)" fill="#d92d2d"/>
        </g>
      </g>
      <g id="Grupo_378" data-name="Grupo 378" transform="translate(-290.968 -607.994)">
        <path id="Trazado_636" data-name="Trazado 636" d="M-213.039-566.178c3.023-5.493,2.888-11.144-.389-16.781a12.019,12.019,0,0,0-9.3-6.107c-.048,0-.094-.012-.139-.019l-.976-.709c-.035-.075-.069-.154-.1-.239-2.373-5.976-7.985-9.309-13.649-8.109-.755.161-.868.122-1.321-.466a15.662,15.662,0,0,0-10.955-6.3c-5.762-.661-10.643,2.28-13.394,8.067-.031.066-.061.132-.091.2l-1.911,1.248a12.077,12.077,0,0,0-9.523,2.98c-2.55,2.425-3.8,6.122-3.529,10.41a13.816,13.816,0,0,0,4.7,9.63l.788,4c-.182.57-.355,1.145-.513,1.71-.388,1.389-.644,2.306-.13,3.188s1.431,1.1,2.824,1.448a1.338,1.338,0,0,0,.36.04,34.468,34.468,0,0,1,5.647.364,1.283,1.283,0,0,0,.426-.011c.435.082.863.16,1.285.237,1.184.216,2.3.421,3.4.677l.6.147a78.568,78.568,0,0,1,26.075,11.74,1.521,1.521,0,0,0,.166.1,6.449,6.449,0,0,0,2.583.933,1.971,1.971,0,0,0,.757-.152c.957-.387,1.273-1.284,1.763-2.671.248-.7.507-1.393.757-2.057l.354.127a25.345,25.345,0,0,0,3.761,1.507,8.427,8.427,0,0,0,7.083-.925,8.677,8.677,0,0,0,3.653-6.385,10.9,10.9,0,0,0-1.255-6.447Z" transform="translate(280.44 607.081)" fill="#fff"/>
        <path id="Trazado_637" data-name="Trazado 637" d="M-231.017-546.629a7.9,7.9,0,0,1-3.51-1.151,3.749,3.749,0,0,1-.412-.24,76.481,76.481,0,0,0-25.377-11.434l-.622-.153c-1.022-.239-2.112-.438-3.265-.649l-1.008-.185a3.439,3.439,0,0,1-.631-.029,32.655,32.655,0,0,0-5.319-.344,3.338,3.338,0,0,1-.9-.1c-1.557-.385-3.169-.785-4.123-2.422s-.51-3.248-.077-4.8c.117-.419.241-.843.372-1.266l-.556-2.822a15.761,15.761,0,0,1-4.867-10.557c-.314-4.915,1.168-9.2,4.173-12.054a13.968,13.968,0,0,1,10.4-3.593l.841-.55c3.146-6.329,8.859-9.657,15.354-8.912a17.611,17.611,0,0,1,12.063,6.708c6.413-1.13,12.659,2.564,15.426,9.132l.065.047a14.106,14.106,0,0,1,10.472,7.117c3.537,6.08,3.741,12.464.581,18.457l-.05.353a13.061,13.061,0,0,1,1.171,7.048,10.731,10.731,0,0,1-4.567,7.879,10.48,10.48,0,0,1-8.809,1.2,19.531,19.531,0,0,1-2.352-.847c-.546,1.547-1.122,3.135-2.933,3.869A4.087,4.087,0,0,1-231.017-546.629Zm-1.615-4.868a8.1,8.1,0,0,0,1.616.7,13.381,13.381,0,0,0,.551-1.43c.252-.716.517-1.423.771-2.1l.724-1.921,2.459.889a23.8,23.8,0,0,0,3.452,1.392,6.386,6.386,0,0,0,5.357-.652,6.639,6.639,0,0,0,2.74-4.9,8.844,8.844,0,0,0-1.015-5.2l-.33-.606.341-2.434.185-.337c2.683-4.874,2.563-9.692-.365-14.727a9.935,9.935,0,0,0-7.7-5.079c-.11-.012-.187-.023-.262-.035l-.494-.078-1.814-1.318-.228-.485c-.052-.11-.1-.226-.152-.35-1.992-5.018-6.626-7.831-11.281-6.846a2.943,2.943,0,0,1-3.406-1.234,13.646,13.646,0,0,0-9.539-5.5c-4.888-.561-8.894,1.886-11.272,6.891l-.321.714-3.024,1.975-.714-.059a10.073,10.073,0,0,0-7.914,2.413c-2.094,1.991-3.119,5.1-2.885,8.766a11.8,11.8,0,0,0,4.022,8.218l.511.464,1.025,5.2-.163.512c-.175.546-.339,1.095-.49,1.636a6.75,6.75,0,0,0-.338,1.578,6.5,6.5,0,0,0,1.436.45,36.566,36.566,0,0,1,5.751.366l.258-.052.4.075c.43.081.853.158,1.27.234,1.22.223,2.359.43,3.5.7l.622.152A80.617,80.617,0,0,1-232.632-551.5Zm.033.023h0Zm-38.641-13.511h0Z" transform="translate(281.354 607.994)" fill="#fff"/>
      </g>
      <g id="Trazado_621" data-name="Trazado 621" transform="translate(-287.752 -604.779)">
        <path id="Trazado_638" data-name="Trazado 638" d="M-270.661-571.647a1.371,1.371,0,0,1,.607,1.911c-.51,1.328-.953,2.687-1.336,4.057-.652,2.33-.623,2.338,1.688,2.911a35.742,35.742,0,0,1,5.876.379c0-.031.01-.061.015-.091,1.836.354,3.537.624,5.211,1.015.2.047.4.1.6.147a80.016,80.016,0,0,1,26.538,11.943c2.382,1.186,2.37,1.183,3.178-1.105.433-1.225.905-2.44,1.3-3.5a46.641,46.641,0,0,0,5.261,2.2c4.607,1.3,8.414-1.372,8.977-6.131a9.45,9.45,0,0,0-1.29-5.961,1.427,1.427,0,0,1,.024-1.718c3.217-5.35,3.073-10.764-.02-16.084a10.633,10.633,0,0,0-8.242-5.4,2.419,2.419,0,0,1-2.352-1.835c-2.116-5.328-7.088-8.318-12.068-7.261a2.265,2.265,0,0,1-2.711-.979,14.374,14.374,0,0,0-10.011-5.765c-5.2-.6-9.508,2.084-11.981,7.285-.406.854-.753,1.737-1.116,2.58-8.479-1.891-14.35,3.043-13.805,11.57A12.815,12.815,0,0,0-270.661-571.647Zm41.489,17.69-5.945-3.185-.152.263c1.473,1.144,2.9,2.356,4.435,3.414,1.3.9,1.475,1.859.474,3.2-11.978-8.069-24.943-13.548-39.831-14.409.526-1.465.919-2.716,1.442-3.912.109-.25.681-.4,1.051-.421,2.291-.151,4.586-.255,6.912-.49-1.165-.179-2.327-.4-3.5-.528-1.226-.14-2.459-.2-3.834-.3a2.982,2.982,0,0,1,3.429-1.949c4.719.681,9.486,1.226,14.105,2.356a67.4,67.4,0,0,1,18.294,7.886q.716.416,1.387.9C-228-558.982-227.6-557.35-229.172-553.956Zm-42.2-35.6a6.363,6.363,0,0,1,7.515-1.2,3.009,3.009,0,0,1,1.226,1.458c.683,1.55,1.241,3.155,2.013,4.675-1.441-8.1,1.061-13.729,7.168-15.818,4.938-1.689,10.274.751,12.8,5.768l-4.08,6.021.223.143a20.711,20.711,0,0,1,3.135-2.925,15.761,15.761,0,0,1,5.2-2.344c4.722-.846,8.428,2,9.759,7.133l-3.628,2.215c6.032-1.576,11.125-.629,14.457,5.023,2.366,4.014,1.983,9.61-.6,12.7l-1.936-1.379-.172.152a17.073,17.073,0,0,1,1.5,2.377,26.8,26.8,0,0,1,2.148,5.755c.7,4.071-2.391,6.746-6.346,5.593a23.427,23.427,0,0,1-4.431-2.168,1.255,1.255,0,0,1-.532-.982,4.751,4.751,0,0,0-2.13-4.258c-1.343-1.037-2.788-1.949-4.227-2.853-1.574-.989-1.7-1.863-.1-2.837,1.537-.932,3.252-1.57,4.931-2.565a25.467,25.467,0,0,0-3.128.248,11.458,11.458,0,0,0-2.451.911c-4.144,1.87-8.1,1.2-11.9-.946-3.776-2.137-5.338-5.914-4.516-10.534a2.025,2.025,0,0,0-.092-1.312c-.365.889-.765,1.765-1.089,2.668-.45,1.254-.778,2.555-1.279,3.786a3.333,3.333,0,0,1-3.355,2.19c-.276,0-.552,0-.828-.012-5.4-.233-7.542-2.907-6.595-8.236a2.266,2.266,0,0,0,.035-.818,12.246,12.246,0,0,0-1.781,7.62c-1.231.289-2.293.592-3.376.765a2.312,2.312,0,0,1-1.311-.271C-274.733-576.654-275.94-585.221-271.371-589.555Z" transform="translate(276.614 603.257)"/>
        <path id="Trazado_639" data-name="Trazado 639" d="M-229.611-548.442a5.85,5.85,0,0,1-2.076-.809,79.813,79.813,0,0,0-26.487-11.926l-.6-.147c-1.125-.263-2.256-.469-3.453-.688-.5-.09-1-.182-1.514-.281l-.238.049a35.537,35.537,0,0,0-5.833-.376h-.035l-.033-.008c-1.231-.3-1.85-.458-2.119-.92s-.09-1.124.242-2.314c.395-1.412.847-2.785,1.344-4.08.291-.757.179-1.1-.517-1.606a13.03,13.03,0,0,1-5.765-10.028c-.266-4.171.992-7.668,3.543-9.851s6.233-2.907,10.367-2.036c.086-.2.17-.4.254-.606.246-.587.5-1.2.781-1.786,2.532-5.324,7-8.033,12.246-7.432a14.575,14.575,0,0,1,10.188,5.866,2.015,2.015,0,0,0,2.45.882c5.115-1.085,10.2,1.968,12.365,7.421a2.168,2.168,0,0,0,2.14,1.672,10.893,10.893,0,0,1,8.439,5.534c3.211,5.522,3.217,11.023.017,16.345a1.185,1.185,0,0,0-.038,1.43,9.774,9.774,0,0,1,1.339,6.145,7.575,7.575,0,0,1-3.16,5.576,7.316,7.316,0,0,1-6.147.776,24.27,24.27,0,0,1-3.559-1.431c-.481-.223-.973-.451-1.482-.674l-.277.735c-.3.8-.622,1.647-.926,2.5-.428,1.211-.637,1.8-1.122,2A.876.876,0,0,1-229.611-548.442Zm-34.264-14.407c.594.115,1.173.22,1.742.324,1.2.22,2.341.427,3.479.693l.6.148a80.174,80.174,0,0,1,26.621,11.98c1.034.513,1.672.831,1.96.715.267-.108.474-.692.816-1.661.314-.891.638-1.745.94-2.545l.467-1.245.251.108c.606.258,1.183.526,1.747.787a23.918,23.918,0,0,0,3.482,1.4,6.807,6.807,0,0,0,5.716-.708,7.065,7.065,0,0,0,2.932-5.2,9.242,9.242,0,0,0-1.254-5.8,1.687,1.687,0,0,1,.042-2.013c3.078-5.123,3.071-10.444-.04-15.793a10.378,10.378,0,0,0-8.041-5.273,2.674,2.674,0,0,1-2.569-2c-2.07-5.213-6.91-8.131-11.771-7.1a2.515,2.515,0,0,1-2.972-1.074,14.065,14.065,0,0,0-9.833-5.665c-5.016-.576-9.286,2.026-11.716,7.138-.275.58-.528,1.181-.771,1.763-.113.272-.226.542-.341.807l-.085.2-.211-.047c-4.059-.906-7.653-.238-10.126,1.877-2.424,2.073-3.618,5.419-3.363,9.421a12.535,12.535,0,0,0,5.551,9.64h0a1.625,1.625,0,0,1,.7,2.215c-.492,1.28-.938,2.637-1.328,4.034-.3,1.072-.449,1.644-.294,1.911s.761.421,1.761.668a36.4,36.4,0,0,1,5.632.346l0-.012Zm33.461,12.828-.206-.138c-13.188-8.884-26.174-13.583-39.7-14.366l-.348-.02.118-.328c.147-.41.284-.8.416-1.182.335-.964.652-1.876,1.033-2.747.218-.5,1.229-.573,1.272-.576.615-.041,1.23-.078,1.846-.115.971-.058,1.96-.117,2.956-.192-.465-.072-.935-.139-1.4-.191-.837-.1-1.679-.153-2.57-.213-.407-.028-.824-.056-1.255-.089l-.361-.027.141-.334a3.246,3.246,0,0,1,3.707-2.106q1.348.194,2.7.379a114.048,114.048,0,0,1,11.431,1.982,66.745,66.745,0,0,1,18.365,7.915,16.766,16.766,0,0,1,1.407.916c3.016,2.231,3.44,3.982,1.815,7.493l-.116.251-5.1-2.729.364.291c1,.8,2.032,1.622,3.1,2.357a2.514,2.514,0,0,1,1.208,1.594,2.639,2.639,0,0,1-.674,1.978Zm-39.529-15c13.425.844,26.32,5.521,39.4,14.291a1.965,1.965,0,0,0,.434-1.379,2.044,2.044,0,0,0-.99-1.25c-1.078-.745-2.119-1.575-3.126-2.378-.439-.35-.878-.7-1.321-1.046l-.179-.139.391-.679,5.924,3.172c1.39-3.119.983-4.57-1.764-6.6a16.238,16.238,0,0,0-1.362-.886,66.279,66.279,0,0,0-18.226-7.859,113.988,113.988,0,0,0-11.379-1.972q-1.352-.187-2.7-.379a2.711,2.711,0,0,0-2.995,1.46l.873.06c.9.06,1.745.118,2.593.216.82.093,1.647.227,2.447.358.354.058.708.116,1.062.17l2.024.312-2.037.206c-1.708.173-3.422.276-5.079.376-.615.038-1.229.074-1.842.115a1.423,1.423,0,0,0-.83.265c-.372.852-.686,1.754-1.018,2.708C-269.739-565.605-269.839-565.32-269.943-565.025Zm50.648,11.235a6.734,6.734,0,0,1-1.88-.28,17.046,17.046,0,0,1-3.539-1.662c-.314-.179-.628-.356-.943-.527a1.534,1.534,0,0,1-.668-1.2,4.5,4.5,0,0,0-2.029-4.061c-1.367-1.056-2.875-2-4.206-2.839-.935-.587-1.368-1.128-1.364-1.7,0-.547.42-1.063,1.271-1.579.785-.476,1.6-.866,2.453-1.28.5-.242,1.016-.49,1.529-.758-.672.041-1.343.109-2.007.2a11.319,11.319,0,0,0-2.37.885c-3.92,1.769-7.888,1.457-12.143-.951-3.847-2.177-5.5-6.015-4.644-10.806a1.882,1.882,0,0,0,.058-.341v0c-.253.6-.515,1.212-.736,1.827-.185.515-.349,1.038-.513,1.561-.232.738-.471,1.5-.769,2.235a3.6,3.6,0,0,1-3.6,2.353h-.162c-.225,0-.451,0-.677-.012-2.8-.121-4.722-.873-5.867-2.3-1.1-1.374-1.439-3.314-1.026-5.924a12.6,12.6,0,0,0-1.175,6.52l.008.216-.209.049c-.36.084-.705.17-1.041.253-.811.2-1.578.391-2.354.515a2.573,2.573,0,0,1-1.477-.3,9.832,9.832,0,0,1-5.057-7.461,9.954,9.954,0,0,1,2.767-8.7h0a6.65,6.65,0,0,1,7.808-1.246,3.3,3.3,0,0,1,1.355,1.6c.25.569.488,1.154.725,1.74.172.425.346.855.529,1.285-.807-7.3,1.854-12.354,7.6-14.32,5.018-1.716,10.533.764,13.115,5.9l.069.136-3.336,4.922a11.212,11.212,0,0,1,2.175-1.926,15.976,15.976,0,0,1,5.294-2.379c4.812-.861,8.664,1.946,10.057,7.325l.049.188-2.436,1.487c6.011-1.147,10.337.66,13.189,5.5,2.373,4.027,2.1,9.738-.62,13l-.155.185-1.478-1.051.034.048a9.52,9.52,0,0,1,1.028,1.7c.171.4.351.8.531,1.2a19.675,19.675,0,0,1,1.634,4.613,5.277,5.277,0,0,1-1.481,4.968A4.893,4.893,0,0,1-219.295-553.791Zm-7.309-16.472-.849.5c-.843.5-1.695.91-2.519,1.307-.846.407-1.646.793-2.41,1.257-.674.409-1.017.79-1.019,1.136,0,.366.373.788,1.12,1.257,1.341.841,2.861,1.8,4.248,2.867a4.972,4.972,0,0,1,2.231,4.484.994.994,0,0,0,.422.75c.292.157.608.335.925.515a16.679,16.679,0,0,0,3.429,1.615,4.866,4.866,0,0,0,4.7-.808,4.77,4.77,0,0,0,1.314-4.49,19.294,19.294,0,0,0-1.6-4.489c-.181-.4-.362-.805-.535-1.207a9.04,9.04,0,0,0-.975-1.6c-.172-.243-.343-.487-.5-.735l-.121-.188.494-.438,1.905,1.357c2.447-3.133,2.644-8.442.419-12.215-2.957-5.017-7.59-6.622-14.166-4.9l-1.713.447,4.974-3.036c-1.359-4.968-4.948-7.556-9.411-6.755a15.531,15.531,0,0,0-5.112,2.309A11.237,11.237,0,0,0-243.5-589.4c-.31.329-.62.658-.943.966l-.149.143-.62-.4,4.144-6.115c-2.491-4.806-7.687-7.118-12.41-5.5-5.931,2.03-8.415,7.543-7,15.526l.308,1.732-.8-1.569c-.49-.965-.9-1.975-1.3-2.953-.236-.581-.471-1.162-.723-1.735a2.775,2.775,0,0,0-1.124-1.341,6.073,6.073,0,0,0-7.2,1.167,9.431,9.431,0,0,0-2.61,8.247,9.314,9.314,0,0,0,4.784,7.074,2.042,2.042,0,0,0,1.17.245c.737-.119,1.493-.306,2.293-.5.272-.067.551-.136.838-.2A12.3,12.3,0,0,1-263-582.184l.38-.565.1.674a2.536,2.536,0,0,1-.039.913c-.462,2.6-.179,4.505.868,5.81s2.838,1.993,5.483,2.107c.218.01.437.01.656.011h.2a3.063,3.063,0,0,0,3.08-2.028c.289-.712.526-1.466.755-2.195.166-.529.332-1.059.519-1.581.225-.629.49-1.251.746-1.854.117-.275.234-.549.347-.825l.238-.577.243.574a2.293,2.293,0,0,1,.1,1.482c-.805,4.535.753,8.179,4.392,10.24,4.1,2.319,7.915,2.626,11.662.935a11.719,11.719,0,0,1,2.5-.926,25.867,25.867,0,0,1,3.185-.256Z" transform="translate(276.728 603.37)" fill="#211915"/>
      </g>
    </g>
    <path id="Trazado_719" data-name="Trazado 719" d="M-1418.391,889.173s44.433,38.043,138.287,38.043,169.5,24.236,206.006,89.074V889.167Z" transform="translate(2514.391 -889.29)" fill="url(#linear-gradient)"/>
    <path id="Trazado_730" data-name="Trazado 730" d="M-1074.1,889.173s-44.433,38.043-138.287,38.043-169.5,24.236-206.006,89.074V889.167Z" transform="translate(1418.391 -889.29)" fill="url(#linear-gradient-2)"/>
    <circle id="Elipse_25" data-name="Elipse 25" cx="73.254" cy="73.254" r="73.254" transform="translate(394.835 -0.188) rotate(-45)" fill="url(#linear-gradient-3)"/>
    <circle id="Elipse_31" data-name="Elipse 31" cx="27.254" cy="27.254" r="27.254" transform="translate(34.835 171.812) rotate(-45)" fill="url(#linear-gradient-3)"/>
  </g>
</svg>
