<svg xmlns="http://www.w3.org/2000/svg" xmlns:xlink="http://www.w3.org/1999/xlink" width="590" height="250" viewBox="0 0 590 250">
  <defs>
    <linearGradient id="linear-gradient" x1="1.163" y1="0.5" x2="-0.938" y2="1.63" gradientUnits="objectBoundingBox">
      <stop offset="0" stop-color="#133eaf"/>
      <stop offset="1" stop-color="#002ea6"/>
    </linearGradient>
    <linearGradient id="linear-gradient-2" x1="1.362" y1="-0.371" x2="0.187" y2="1.063" gradientUnits="objectBoundingBox">
      <stop offset="0" stop-color="#285ce5"/>
      <stop offset="1" stop-color="#002ea6"/>
    </linearGradient>
    <clipPath id="clip-cta_premios">
      <rect width="590" height="250"/>
    </clipPath>
  </defs>
  <g id="cta_premios" clip-path="url(#clip-cta_premios)">
    <rect width="590" height="250" fill="#fff"/>
    <path id="Trazado_729" data-name="Trazado 729" d="M-1418.391,1016.284s44.433-38.043,138.287-38.043,169.5-24.236,206.006-89.074V1016.29Z" transform="translate(1664.391 -766.29)" fill="url(#linear-gradient)"/>
    <g id="Grupo_399" data-name="Grupo 399" transform="translate(341.912 732.994)">
      <g id="Grupo_363" data-name="Grupo 363" transform="translate(-312.912 -579.374)">
        <g id="Grupo_359" data-name="Grupo 359" transform="translate(27.39 5.852)">
          <g id="Grupo_357" data-name="Grupo 357" transform="translate(1.309 1.309)">
            <path id="Trazado_622" data-name="Trazado 622" d="M-156.377-472.927a4.956,4.956,0,0,1-1.824-.343,4.876,4.876,0,0,1-1.537-.965,4.7,4.7,0,0,1-1.07-1.487,4.453,4.453,0,0,1-.321-.995,3.684,3.684,0,0,1-2.429-1.172,3.169,3.169,0,0,1-.352-.463c-.064.07-.128.138-.192.2a7.021,7.021,0,0,1-1.14.969,2.8,2.8,0,0,1-1.549.522,4.833,4.833,0,0,1-2.045-.44,5.139,5.139,0,0,1-1.6-1.149q-.129-.138-.248-.285a10.921,10.921,0,0,1-.938.871,3.96,3.96,0,0,1-2.529,1,3.931,3.931,0,0,1-2.928-1.177,4.541,4.541,0,0,1-1.1-3.255,5.489,5.489,0,0,1,.222-1.41,15.628,15.628,0,0,1-1.182,1.757,1.449,1.449,0,0,1-.742.514,7.614,7.614,0,0,1-1.623,1.013,5.519,5.519,0,0,1-2.208.508,8.843,8.843,0,0,1-1.775,1.315,5.7,5.7,0,0,1-2.8.736,6.869,6.869,0,0,1-1.949-.272,4.484,4.484,0,0,1-1.82-1.041,4.4,4.4,0,0,1-.588-.68,10.275,10.275,0,0,1-.962.964,3.811,3.811,0,0,1-2.541,1.029,3.952,3.952,0,0,1-2.9-1.166,3.486,3.486,0,0,1-.4-.495q-.1.113-.207.22a6.546,6.546,0,0,1-1.116.942,2.783,2.783,0,0,1-1.522.5,4.82,4.82,0,0,1-2.045-.441,5.13,5.13,0,0,1-1.6-1.148c-.1-.111-.2-.228-.3-.348a9.552,9.552,0,0,1-.9.883,3.829,3.829,0,0,1-2.514,1.021,3.865,3.865,0,0,1-2.983-1.2,3.172,3.172,0,0,1-.352-.463c-.064.07-.128.138-.192.2a7,7,0,0,1-1.14.969,2.793,2.793,0,0,1-1.548.522,4.822,4.822,0,0,1-2.045-.441,5.127,5.127,0,0,1-1.6-1.148,4.959,4.959,0,0,1-.355-.422,10.863,10.863,0,0,1-1.066,1.007,3.958,3.958,0,0,1-2.529,1,3.949,3.949,0,0,1-2.9-1.167,4.491,4.491,0,0,1-1.129-3.266,4.269,4.269,0,0,1,.057-.67A14.661,14.661,0,0,0-228.21-480a4.833,4.833,0,0,0-.325,1.635,1.517,1.517,0,0,1-.893,1.356,2.105,2.105,0,0,1-.953.221,2.668,2.668,0,0,1-1.227-.349,5.757,5.757,0,0,1-1-.674c-.078-.064-.153-.131-.226-.2q-.166.157-.337.3a3.835,3.835,0,0,1-2.515,1.021,3.853,3.853,0,0,1-2.983-1.2,3.252,3.252,0,0,1-.351-.463q-.1.1-.192.2a7.082,7.082,0,0,1-1.139.969,2.8,2.8,0,0,1-1.55.522,4.833,4.833,0,0,1-2.045-.44,5.134,5.134,0,0,1-1.6-1.149,5.246,5.246,0,0,1-1.053-1.675,5.445,5.445,0,0,1-.377-2.009,9.683,9.683,0,0,1,.628-3.188,15.457,15.457,0,0,1,1.633-3.3,11.7,11.7,0,0,1,2.441-2.739,5.286,5.286,0,0,1,3.358-1.282,3.8,3.8,0,0,1,1.66.365,6.3,6.3,0,0,1,.978.584,1.489,1.489,0,0,1,1.125-.546,4.34,4.34,0,0,1,1.25.207,5.784,5.784,0,0,1,1.218.523,3.49,3.49,0,0,1,1.038.874,1.755,1.755,0,0,1,.378,1.257c.132-.365.249-.7.347-1a5.157,5.157,0,0,0,.171-.605,1.927,1.927,0,0,1,.181-.734,1.608,1.608,0,0,1,1.53-.924,3.849,3.849,0,0,1,1.122.192,4.672,4.672,0,0,1,1.124.516,4.356,4.356,0,0,1,.915.773,2.728,2.728,0,0,1,.226.291,8.8,8.8,0,0,1,1.391-.97,3.648,3.648,0,0,1,1.739-.531,3.58,3.58,0,0,1,2.639.988,3.766,3.766,0,0,1,.988,2.773,3.428,3.428,0,0,1-.02.362c.076-.124.154-.248.234-.371a11.734,11.734,0,0,1,2.441-2.739,5.287,5.287,0,0,1,3.359-1.282,3.791,3.791,0,0,1,1.66.365,6.221,6.221,0,0,1,.978.584,1.49,1.49,0,0,1,1.125-.546,4.337,4.337,0,0,1,1.25.207,5.745,5.745,0,0,1,1.218.523,3.483,3.483,0,0,1,1.04.875,1.669,1.669,0,0,1-.028,2.169,6.452,6.452,0,0,0-.7,1.195,16.83,16.83,0,0,0-.779,1.933c-.175.518-.329,1.049-.461,1.588q.189-.3.373-.613c.151-.26.288-.519.411-.773.018-.06.037-.119.058-.182a15.439,15.439,0,0,1,1.633-3.3,11.722,11.722,0,0,1,2.441-2.739,5.286,5.286,0,0,1,3.359-1.282,3.926,3.926,0,0,1,1.484.281,5.029,5.029,0,0,1,.755.383q.179-.466.357-.914c.353-.887.7-1.712,1.028-2.451.005-.012.011-.023.016-.035a4.4,4.4,0,0,1-.954.1,5.066,5.066,0,0,1-3.769-1.508,4.628,4.628,0,0,1-.965-1.48,15.439,15.439,0,0,1-2.4,1.713,9.742,9.742,0,0,1-4.967,1.275,7.864,7.864,0,0,1-3.307-.677,7.135,7.135,0,0,1-2.485-1.868,8.04,8.04,0,0,1-1.106-1.7l-.028.033a13.677,13.677,0,0,1-2.249,2.07,12.269,12.269,0,0,1-2.765,1.524,9.124,9.124,0,0,1-3.361.616,7.866,7.866,0,0,1-3.307-.677,7.128,7.128,0,0,1-2.485-1.868,7.957,7.957,0,0,1-1.024-1.536l-.009.01a14.6,14.6,0,0,1-3.509,2.8,9.742,9.742,0,0,1-4.968,1.275,7.864,7.864,0,0,1-3.307-.677,7.135,7.135,0,0,1-2.485-1.868,8.2,8.2,0,0,1-1.5-2.646,9.581,9.581,0,0,1-.508-3.14,12.353,12.353,0,0,1,.94-4.551,15.932,15.932,0,0,1,2.48-4.221,14.921,14.921,0,0,1,3.53-3.156,8.106,8.106,0,0,1,4.383-1.342,6.025,6.025,0,0,1,2.163.4,5.6,5.6,0,0,1,1.893,1.2,5.668,5.668,0,0,1,1.294,1.922,6.471,6.471,0,0,1,.463,2.493v.048a6.587,6.587,0,0,1-.1.935,15.766,15.766,0,0,1,1.679-2.506,14.921,14.921,0,0,1,3.531-3.156,8.1,8.1,0,0,1,4.382-1.342,6.115,6.115,0,0,1,2.554.506,6.179,6.179,0,0,1,1.81,1.233,4.954,4.954,0,0,1,1.146,1.744,5.089,5.089,0,0,1,.352,1.8,3.9,3.9,0,0,1-1.2,3.093,4.37,4.37,0,0,1-2.245,1.084,4.7,4.7,0,0,1-.678.052,3.344,3.344,0,0,1-1.457-.311,1.764,1.764,0,0,1-1.057-1.241,1.66,1.66,0,0,1,.419-1.455,3.907,3.907,0,0,0,.694-1,2.2,2.2,0,0,0,.216-.715,2.361,2.361,0,0,0-.966.6,9.527,9.527,0,0,0-1.7,2.2,14.229,14.229,0,0,0-1.286,2.982,8.842,8.842,0,0,0-.428,2.833,3.1,3.1,0,0,0,.525,1.775c.082.113.333.458,1.315.458a4.149,4.149,0,0,0,2.26-.649,10.02,10.02,0,0,0,2.1-1.734,11.6,11.6,0,0,0,1.5-2.021c.193-.336.355-.63.491-.888a14.421,14.421,0,0,1,.541-1.633,15.922,15.922,0,0,1,2.48-4.22,14.92,14.92,0,0,1,3.531-3.156,8.1,8.1,0,0,1,4.382-1.342,6.023,6.023,0,0,1,2.163.4,5.624,5.624,0,0,1,.993.5,5.8,5.8,0,0,1-.258-.975,1.758,1.758,0,0,1,.306-1.469,1.383,1.383,0,0,1,1.058-.49h.172l.166.044a12.015,12.015,0,0,0,1.2.263c.39.063.775.116,1.161.163.367.044.762.074,1.176.089.188.007.385.012.59.016q.266-.623.583-1.358.536-1.241,1.048-2.388c.345-.772.671-1.465.968-2.061a5.251,5.251,0,0,1,.875-1.406,2.281,2.281,0,0,1,1.675-.633,3.9,3.9,0,0,1,.584.047,7.248,7.248,0,0,1,1.892.561,5.742,5.742,0,0,1,1.6,1.042,2.017,2.017,0,0,1,.711,1.439,1.636,1.636,0,0,1-.442,1.135c-.032.048-.126.2-.321.575q-.358.69-.785,1.57-.385.793-.752,1.585a2.813,2.813,0,0,1,.753.634,5.521,5.521,0,0,1,.767,1.147,4.686,4.686,0,0,1,.431,1.217,2.014,2.014,0,0,1,.032.514q.257-.228.522-.442a7.061,7.061,0,0,1,4.479-1.719,4.891,4.891,0,0,1,2.141.469,8.3,8.3,0,0,1,1.5.923q.138.108.266.218a1.881,1.881,0,0,1,1.518-1.029,5.7,5.7,0,0,1,1.635.274,7.643,7.643,0,0,1,1.634.7,4.451,4.451,0,0,1,1.328,1.111,1.848,1.848,0,0,1-.021,2.4,9.871,9.871,0,0,0-1.1,1.846,25,25,0,0,0-1.15,2.853,28.319,28.319,0,0,0-.88,3.217,16.1,16.1,0,0,0-.262,1.629q.338-.388.689-.862a23.256,23.256,0,0,0,1.373-2.107c.1-.174.2-.346.288-.516l.328-.829q.493-1.184.959-2.44t.794-2.188a14.375,14.375,0,0,1,.9-2.7,7.079,7.079,0,0,1,1.028-1.662,3.361,3.361,0,0,1,1.1-.879,2.172,2.172,0,0,1,.9-.236,4.512,4.512,0,0,1,1.533.3,7.088,7.088,0,0,1,1.4.684,5.522,5.522,0,0,1,1.174.988,2.564,2.564,0,0,1,.692,1.715,1.73,1.73,0,0,1-1.023,1.756,7.168,7.168,0,0,0-.706,1.76,7.62,7.62,0,0,0-.208,1.714,6.81,6.81,0,0,0,.222,1.766c.168.63.363,1.27.58,1.9.234.688.447,1.384.631,2.069a9.454,9.454,0,0,1,.311,2.446,9.458,9.458,0,0,1-.882,4.154,10.345,10.345,0,0,1-2.138,2.99l-.07.066a4.787,4.787,0,0,1,1.575-.267,3.791,3.791,0,0,1,1.66.365,6.256,6.256,0,0,1,.978.584,1.488,1.488,0,0,1,1.125-.546,4.342,4.342,0,0,1,1.251.207,5.759,5.759,0,0,1,1.217.522,3.506,3.506,0,0,1,1.041.875,1.817,1.817,0,0,1,.38.944,7.135,7.135,0,0,1,.271-.661,5.277,5.277,0,0,1,.776-1.248,2.708,2.708,0,0,1,.893-.708,1.9,1.9,0,0,1,.791-.2,3.519,3.519,0,0,1,1.2.228,5.354,5.354,0,0,1,1.049.513,4.213,4.213,0,0,1,.9.759,2.17,2.17,0,0,1,.58,1.454,1.624,1.624,0,0,1-.82,1.526,4.4,4.4,0,0,0-.389,1,4.831,4.831,0,0,0-.134,1.1,4.324,4.324,0,0,0,.14,1.12c.115.429.247.864.395,1.294.168.5.318.988.445,1.462a6.971,6.971,0,0,1,.229,1.8,6.954,6.954,0,0,1-.652,3.057,7.593,7.593,0,0,1-1.566,2.189,6.882,6.882,0,0,1-2.1,1.386A5.833,5.833,0,0,1-156.377-472.927Zm-.336-4.1a.427.427,0,0,0,.152-.066,1.074,1.074,0,0,0,.318-.359,2.517,2.517,0,0,0,.163-.315,1.384,1.384,0,0,1-.5.157c-.032.007-.054.023-.093.081a.714.714,0,0,0-.146.415.536.536,0,0,0,.006.084C-156.782-477.025-156.75-477.023-156.712-477.023Zm.732-3.159a2.158,2.158,0,0,1,.308.328c0-.083,0-.166,0-.251q0-.272-.021-.549Q-155.83-480.419-155.981-480.183Zm-32.107-1.544c.143,0,.184-.036.208-.058a2.4,2.4,0,0,0,.313-.346,5.354,5.354,0,0,1-.049-.74,2.952,2.952,0,0,1,.769-2.049,3.122,3.122,0,0,1,.9-.686c.094-.318.173-.628.235-.925a5.914,5.914,0,0,0,.141-1.178c0-.079,0-.149-.008-.209a2.407,2.407,0,0,0-.212.177,5.908,5.908,0,0,0-1.053,1.363,13.208,13.208,0,0,0-.933,1.958,6.593,6.593,0,0,0-.439,1.79,2.35,2.35,0,0,0,.061.9Zm31.529-6.539a6.456,6.456,0,0,0-.7,1.194,16.9,16.9,0,0,0-.779,1.933c-.175.519-.33,1.051-.461,1.588.126-.2.251-.4.373-.614.065-.112.126-.22.184-.328l.219-.553c.227-.545.447-1.1.662-1.684s.391-1.065.542-1.493c.01-.042.021-.084.031-.125C-156.514-488.319-156.536-488.292-156.559-488.265Zm-74.987-.165a1.857,1.857,0,0,1-.127.166,6.474,6.474,0,0,0-.7,1.193,17.009,17.009,0,0,0-.778,1.933c-.175.516-.329,1.047-.461,1.587q.189-.3.373-.613c.137-.236.263-.471.375-.7.183-.514.372-1.035.572-1.572Q-231.9-487.5-231.546-488.43Zm68.162,1.335a8.429,8.429,0,0,0-1.188,1.6,10.79,10.79,0,0,0-.879,1.91q.172-.243.346-.5c.353-.524.691-1.054,1.007-1.576a14.936,14.936,0,0,0,.756-1.4c.021-.044.041-.088.059-.129C-163.314-487.165-163.348-487.132-163.384-487.095Zm-35.508,0a8.388,8.388,0,0,0-1.187,1.6,10.834,10.834,0,0,0-.88,1.91c.115-.162.231-.33.347-.5.353-.523.691-1.053,1.007-1.575a15.127,15.127,0,0,0,.757-1.4c.021-.045.041-.088.059-.13C-198.822-487.165-198.856-487.132-198.893-487.094Zm-13.572,0a8.4,8.4,0,0,0-1.186,1.6,10.788,10.788,0,0,0-.88,1.91c.115-.162.23-.33.347-.5.352-.523.691-1.053,1.007-1.575a15.03,15.03,0,0,0,.757-1.4c.02-.045.041-.088.059-.13C-212.393-487.165-212.428-487.132-212.464-487.094Zm-26.034,0a8.414,8.414,0,0,0-1.186,1.6,10.8,10.8,0,0,0-.879,1.91q.171-.242.346-.5c.353-.523.691-1.053,1.006-1.575a14.892,14.892,0,0,0,.757-1.4c.02-.045.041-.088.059-.13C-238.427-487.166-238.462-487.132-238.5-487.094Zm49.09-8.014a4.811,4.811,0,0,0-.568.849,22.566,22.566,0,0,0-1.109,2.253c-.391.9-.8,1.906-1.2,2.981s-.774,2.135-1.1,3.173c-.246.781-.456,1.532-.626,2.238q.158-.252.312-.518c.147-.253.277-.5.4-.748a9.822,9.822,0,0,1,.4-1.179,13.369,13.369,0,0,1,1.808-3.128,10.748,10.748,0,0,1,2.376-2.273,4.843,4.843,0,0,1,2.719-.983,6.163,6.163,0,0,1,2.621.51,4.773,4.773,0,0,1,1.794,1.415,5.116,5.116,0,0,1,.507.814,4.86,4.86,0,0,1-.252-1.5,4.587,4.587,0,0,1,.453-1.886,7.616,7.616,0,0,1,1.014-1.642,7.229,7.229,0,0,1,.658-.709,4.49,4.49,0,0,1-1.866-1.226,4.4,4.4,0,0,1-.81-1.3q-.4.486-.817.913a9.592,9.592,0,0,1-1.547,1.318,3.47,3.47,0,0,1-1.912.656,6.383,6.383,0,0,1-2.7-.582l-.051-.024a1.573,1.573,0,0,1-.492.572Zm18.339,9.547c-.2.439-.394.9-.578,1.382q-.094.243-.18.49.147-.224.288-.458l.02-.035c.09-.335.182-.636.287-.935Q-171.155-485.34-171.07-485.561Zm-9.7-3.376q.057.179.1.364a8.278,8.278,0,0,1,.24,1.975c0,.09,0,.178,0,.268q.151-.323.306-.669.184-.409.356-.817A3.179,3.179,0,0,1-180.772-488.938Zm10.257-.794a3.532,3.532,0,0,1,.2.318,2.486,2.486,0,0,1,.332,1.208,2.357,2.357,0,0,1-.048.484q.2-.355.43-.7a12.174,12.174,0,0,1,1.633-2.015l-.183.079A8.323,8.323,0,0,1-170.515-489.732Zm-1-6.708a.773.773,0,0,0-.533.367,1.629,1.629,0,0,0-.308.921.953.953,0,0,0,.191.618,1.143,1.143,0,0,0,.534.086,1.049,1.049,0,0,0,.515-.177,2.121,2.121,0,0,0,.652-.707,5.94,5.94,0,0,0,.642-1.616,10.171,10.171,0,0,0,.272-2.521,11.977,11.977,0,0,0-.237-2.328c-.041.06-.082.117-.121.169a3.963,3.963,0,0,1-.4.46c-.314.568-.664,1.144-1.047,1.72a2.072,2.072,0,0,1,1.078,1.612A1.388,1.388,0,0,1-171.518-496.44Zm-23.2-4.106-14.337-2.467c0,.073.008.145.014.216a2.493,2.493,0,0,0,.277,1,1.44,1.44,0,0,0,.541.554,2.073,2.073,0,0,0,1.05.2,4.523,4.523,0,0,0,2.438-.654,9.256,9.256,0,0,0,2.081-1.717,9.513,9.513,0,0,0,1.386-1.976c.16-.313.3-.592.419-.84.046-.166.149-.524.152-.534a8.537,8.537,0,0,1-1.877,1.972,9.108,9.108,0,0,1-3.473,1.6,8.674,8.674,0,0,1-2,.225Q-208.541-502.962-209.059-503.013Zm-30.6,0c0,.073.008.146.014.217a2.5,2.5,0,0,0,.277,1,1.446,1.446,0,0,0,.541.554,2.074,2.074,0,0,0,1.051.2,4.53,4.53,0,0,0,2.439-.654,9.261,9.261,0,0,0,2.08-1.717,9.5,9.5,0,0,0,1.385-1.976q.244-.478.426-.853c.045-.174.093-.348.145-.522a8.537,8.537,0,0,1-1.878,1.973,9.094,9.094,0,0,1-3.473,1.6,8.668,8.668,0,0,1-1.995.225Q-239.145-502.962-239.664-503.013Zm48.547-10.169c-1.02,2.372-1.872,4.627-2.539,6.713a22.7,22.7,0,0,0-1,4.471q.353-.4.726-.892a20.143,20.143,0,0,0,1.386-2.091c.041-.072.08-.141.118-.211.119-.437.256-.877.408-1.31a21.652,21.652,0,0,1,2.294-4.639,17.475,17.475,0,0,1,1.471-1.953c-.044,0-.088.005-.132.005a3.157,3.157,0,0,1-.457-.038h0s-.093-.01-.342-.01-.61-.008-1.067-.025C-190.495-513.171-190.783-513.178-191.116-513.182Zm10.379,2.563c-.01,0-.308.037-.929.671a12.7,12.7,0,0,0-1.794,2.414,16.387,16.387,0,0,0-1.456,3.274,11.673,11.673,0,0,0-.5,2.222q.322-.355.678-.8c.479-.6.98-1.292,1.488-2.046s1.01-1.538,1.467-2.295a22.269,22.269,0,0,0,1.119-2.078,8.608,8.608,0,0,0,.488-1.246A1.12,1.12,0,0,0-180.737-510.619Zm-24.953-.6a7.055,7.055,0,0,0-.7.817,13.1,13.1,0,0,0-.938,1.466c.034-.032.067-.064.1-.1a7.745,7.745,0,0,0,1.1-1.388A8.713,8.713,0,0,0-205.691-511.214Zm-30.6,0a7,7,0,0,0-.7.818,13.124,13.124,0,0,0-.937,1.465c.034-.031.066-.063.1-.1a7.766,7.766,0,0,0,1.1-1.388A8.7,8.7,0,0,0-236.3-511.214Zm36.452-1.933a6.389,6.389,0,0,1,.462,2.346c.274-.77.569-1.567.884-2.385h-.788a2.232,2.232,0,0,1-.611-.084Q-199.869-513.21-199.843-513.147Z" transform="translate(247.13 525.981)" fill="#fff"/>
          </g>
          <g id="Grupo_358" data-name="Grupo 358">
            <path id="Trazado_623" data-name="Trazado 623" d="M-193.01-526.364a2.629,2.629,0,0,1,.388.032,5.912,5.912,0,0,1,1.549.46,4.412,4.412,0,0,1,1.235.8q.484.461.194.75a4.474,4.474,0,0,0-.508.848q-.364.7-.8,1.6t-.848,1.791q-.412.9-.7,1.477h1.21q.193,0,.533.387a4.18,4.18,0,0,1,.581.872,3.434,3.434,0,0,1,.315.872c.048.259-.024.388-.218.388a1.934,1.934,0,0,1-.267-.024,4.253,4.253,0,0,0-.532-.024q-.364,0-1.017-.024t-1.768-.024a77.883,77.883,0,0,0-2.93,7.627,20.748,20.748,0,0,0-1.138,6.175q0,.969.63.968.338,0,1.041-.678a15.1,15.1,0,0,0,1.477-1.7,21.337,21.337,0,0,0,1.477-2.228c.074-.127.141-.251.21-.376.115-.437.253-.892.42-1.368a20.254,20.254,0,0,1,2.155-4.358,14.952,14.952,0,0,1,3.123-3.511,5.767,5.767,0,0,1,3.656-1.428,3.589,3.589,0,0,1,1.574.339,6.953,6.953,0,0,1,1.259.775,5.173,5.173,0,0,1,.9.872q.338.436.436.581a13.807,13.807,0,0,1,.774-1.453q.339-.533.485-.533a4.484,4.484,0,0,1,1.259.218,6.343,6.343,0,0,1,1.356.581,3.168,3.168,0,0,1,.944.774.543.543,0,0,1,.024.751,11.026,11.026,0,0,0-1.284,2.131,26.268,26.268,0,0,0-1.21,3,29.523,29.523,0,0,0-.921,3.365,15.663,15.663,0,0,0-.363,3.221,1.289,1.289,0,0,0,.17.7.486.486,0,0,0,.411.266q.339,0,1.066-.678a12.389,12.389,0,0,0,1.477-1.695,24.422,24.422,0,0,0,1.453-2.228q.183-.317.345-.62l.356-.9q.484-1.161.969-2.465t.823-2.271a13.434,13.434,0,0,1,.823-2.513,5.9,5.9,0,0,1,.823-1.353,2.225,2.225,0,0,1,.654-.555,1.126,1.126,0,0,1,.363-.121,3.264,3.264,0,0,1,1.09.218,5.744,5.744,0,0,1,1.138.557,4.188,4.188,0,0,1,.9.75,1.276,1.276,0,0,1,.363.848c0,.355-.089.54-.266.557a.741.741,0,0,0-.509.411,8.723,8.723,0,0,0-.92,2.252,8.844,8.844,0,0,0-.242,2.01,8.079,8.079,0,0,0,.267,2.107q.265.993.605,1.986t.606,1.985a8.118,8.118,0,0,1,.266,2.106,8.13,8.13,0,0,1-.751,3.584,9.009,9.009,0,0,1-1.864,2.615,7.992,7.992,0,0,1-2.446,1.622,6.5,6.5,0,0,1-2.494.557,5.228,5.228,0,0,1-1.937-.363,5.127,5.127,0,0,1-1.622-1.017c-.1-.089-.184-.184-.271-.279-.031.135-.066.274-.106.423a25.846,25.846,0,0,1-.84,2.454,1.015,1.015,0,0,0,.47.067,7.423,7.423,0,0,0,1.143-.1,7.386,7.386,0,0,1,1.142-.1,1.492,1.492,0,0,1,.671.168,2.579,2.579,0,0,1,.6.422,2.289,2.289,0,0,1,.437.557,1.189,1.189,0,0,1,.168.572.672.672,0,0,1-.1.4q-.3.505-.705,1.349t-.773,1.8a17.638,17.638,0,0,0-.622,1.938,7.123,7.123,0,0,0-.251,1.753.9.9,0,0,0,.117.489.336.336,0,0,0,.286.185q.234,0,.756-.47a10.448,10.448,0,0,0,1.092-1.176,13.4,13.4,0,0,0,1.075-1.545c.042-.07.079-.138.12-.207.082-.321.177-.651.3-1a14.087,14.087,0,0,1,1.495-3.023,10.382,10.382,0,0,1,2.167-2.435,4,4,0,0,1,2.537-.991,2.486,2.486,0,0,1,1.092.235,4.823,4.823,0,0,1,.873.538,3.613,3.613,0,0,1,.621.6q.235.3.3.4a9.726,9.726,0,0,1,.538-1.008q.234-.369.335-.37a3.089,3.089,0,0,1,.873.151,4.4,4.4,0,0,1,.941.4,2.194,2.194,0,0,1,.655.537.376.376,0,0,1,.017.52,7.69,7.69,0,0,0-.89,1.478,18.222,18.222,0,0,0-.84,2.083,20.481,20.481,0,0,0-.638,2.335,10.834,10.834,0,0,0-.252,2.234.89.89,0,0,0,.117.487.336.336,0,0,0,.285.185q.235,0,.739-.47a8.551,8.551,0,0,0,1.024-1.176,16.611,16.611,0,0,0,1.008-1.545c.085-.147.164-.29.24-.431l.247-.625q.336-.805.672-1.71t.571-1.575a9.347,9.347,0,0,1,.571-1.743,4.115,4.115,0,0,1,.572-.938,1.548,1.548,0,0,1,.454-.386.787.787,0,0,1,.252-.084,2.263,2.263,0,0,1,.756.151,4,4,0,0,1,.789.386,2.9,2.9,0,0,1,.621.521.882.882,0,0,1,.252.588c0,.247-.062.376-.185.387s-.24.106-.353.285a6.048,6.048,0,0,0-.638,1.562,6.125,6.125,0,0,0-.168,1.395,5.6,5.6,0,0,0,.185,1.461q.184.689.42,1.378t.42,1.377a5.646,5.646,0,0,1,.184,1.461,5.636,5.636,0,0,1-.52,2.486,6.252,6.252,0,0,1-1.293,1.814,5.549,5.549,0,0,1-1.7,1.126,4.519,4.519,0,0,1-1.73.387,3.637,3.637,0,0,1-1.344-.252,3.542,3.542,0,0,1-1.125-.706,3.377,3.377,0,0,1-.773-1.075,3.15,3.15,0,0,1-.286-1.327,2.225,2.225,0,0,1,.076-.552,2.1,2.1,0,0,1-.747.149,2.589,2.589,0,0,1-2.016-.773,3.86,3.86,0,0,1-.706-2.62,12.549,12.549,0,0,1-.823,1.243,11.548,11.548,0,0,1-.924,1.092,5.673,5.673,0,0,1-.924.789,1.525,1.525,0,0,1-.823.3,3.508,3.508,0,0,1-1.5-.319,3.809,3.809,0,0,1-1.193-.856,3.936,3.936,0,0,1-.789-1.26,3.984,3.984,0,0,1-.164-.532c-.144.209-.294.42-.457.633a9.786,9.786,0,0,1-1.562,1.63,2.686,2.686,0,0,1-1.7.705,2.612,2.612,0,0,1-1.982-.773,3.287,3.287,0,0,1-.739-2.351,5.709,5.709,0,0,1,.37-1.7q.369-1.092.823-2.2t.89-2.016q.436-.907.571-1.142c0,.009,0,.013,0,.013s.007-.01.014-.03-.006-.051-.051-.051a5.278,5.278,0,0,0-.588.134,4.342,4.342,0,0,1-1.092.135,2.428,2.428,0,0,1-.705-.1q-1.075,2.419-1.965,4.031a18.141,18.141,0,0,1-1.562,2.453.174.174,0,0,1-.137.082.188.188,0,0,1-.1-.032s0,0-.007-.006c-.074.069-.148.139-.229.208a6.2,6.2,0,0,1-1.427.907,4.253,4.253,0,0,1-1.831.387.932.932,0,0,1-.185-.017.776.776,0,0,0-.151-.017,7.719,7.719,0,0,1-1.9,1.512,4.386,4.386,0,0,1-2.167.571,5.553,5.553,0,0,1-1.579-.218,3.173,3.173,0,0,1-1.294-.739,3.573,3.573,0,0,1-.873-1.361,4.857,4.857,0,0,1-.26-1.133c-.209.366-.445.738-.713,1.116a9.27,9.27,0,0,1-1.462,1.63,2.531,2.531,0,0,1-1.679.705,2.626,2.626,0,0,1-1.965-.773,3.242,3.242,0,0,1-.756-2.351v-.2q-.37.605-.823,1.209a11.361,11.361,0,0,1-.907,1.075,5.232,5.232,0,0,1-.89.756,1.509,1.509,0,0,1-.807.285,3.506,3.506,0,0,1-1.495-.319,3.809,3.809,0,0,1-1.193-.856,3.935,3.935,0,0,1-.789-1.26,4.017,4.017,0,0,1-.217-.762c-.166.272-.345.547-.539.829a8.488,8.488,0,0,1-1.462,1.629,2.556,2.556,0,0,1-1.662.706,2.59,2.59,0,0,1-2.016-.773,3.86,3.86,0,0,1-.706-2.62,12.533,12.533,0,0,1-.822,1.243,11.494,11.494,0,0,1-.924,1.092,5.652,5.652,0,0,1-.924.789,1.525,1.525,0,0,1-.823.3,3.506,3.506,0,0,1-1.495-.319,3.816,3.816,0,0,1-1.193-.856,3.935,3.935,0,0,1-.789-1.26,4.011,4.011,0,0,1-.221-.789q-.292.439-.636.889a9.816,9.816,0,0,1-1.562,1.63,2.686,2.686,0,0,1-1.7.705,2.625,2.625,0,0,1-1.965-.773,3.24,3.24,0,0,1-.756-2.351,5.336,5.336,0,0,1,.369-1.68q.37-1.041.823-2.082t.84-1.915a3.8,3.8,0,0,0,.386-1.175c0-.179-.045-.269-.134-.269s-.3.151-.638.454a12.97,12.97,0,0,0-1.159,1.226q-.654.773-1.394,1.764a17.584,17.584,0,0,0-1.344,2.1,16.135,16.135,0,0,0-1.008,2.217,6.107,6.107,0,0,0-.4,2.082c0,.067-.056.129-.168.185a.809.809,0,0,1-.369.084,1.453,1.453,0,0,1-.622-.2,4.414,4.414,0,0,1-.773-.52,2.922,2.922,0,0,1-.654-.773,1.906,1.906,0,0,1-.232-.607,8.439,8.439,0,0,1-1.364,1.5,2.556,2.556,0,0,1-1.663.706,2.589,2.589,0,0,1-2.016-.773,3.862,3.862,0,0,1-.706-2.62,12.625,12.625,0,0,1-.822,1.243,11.681,11.681,0,0,1-.924,1.092,5.708,5.708,0,0,1-.924.789,1.525,1.525,0,0,1-.823.3,3.509,3.509,0,0,1-1.5-.319,3.814,3.814,0,0,1-1.193-.856,3.929,3.929,0,0,1-.789-1.26,4.115,4.115,0,0,1-.285-1.529,8.5,8.5,0,0,1,.554-2.755,14.066,14.066,0,0,1,1.5-3.023,10.352,10.352,0,0,1,2.167-2.435,4,4,0,0,1,2.536-.991,2.489,2.489,0,0,1,1.092.235,4.838,4.838,0,0,1,.873.538,3.617,3.617,0,0,1,.622.6c.156.2.257.336.3.4a9.482,9.482,0,0,1,.538-1.008c.156-.246.269-.37.336-.37a3.093,3.093,0,0,1,.873.151,4.4,4.4,0,0,1,.94.4,2.194,2.194,0,0,1,.655.537.375.375,0,0,1,.017.52,7.668,7.668,0,0,0-.89,1.478,18.222,18.222,0,0,0-.839,2.083,20.291,20.291,0,0,0-.638,2.335,10.806,10.806,0,0,0-.252,2.234.89.89,0,0,0,.117.487.336.336,0,0,0,.285.185q.236,0,.739-.47a8.549,8.549,0,0,0,1.024-1.176A16.772,16.772,0,0,0-233.8-485.2c.171-.3.321-.578.452-.848.188-.529.383-1.067.59-1.621q.419-1.125.789-2.1t.6-1.7a4.053,4.053,0,0,0,.235-.957.644.644,0,0,1,.067-.252c.045-.1.157-.151.336-.151a2.615,2.615,0,0,1,.739.134,3.342,3.342,0,0,1,.806.37,3.011,3.011,0,0,1,.638.537.918.918,0,0,1,.269.605,2.125,2.125,0,0,1-.151.688q-.15.42-.352.907t-.42.974a9.407,9.407,0,0,0-.353.89,15.2,15.2,0,0,1,1.344-1.9,14,14,0,0,1,1.478-1.545,7.955,7.955,0,0,1,1.411-1.025,2.457,2.457,0,0,1,1.109-.37,2.317,2.317,0,0,1,1.713.6,2.516,2.516,0,0,1,.6,1.848,3.812,3.812,0,0,1-.453,1.579q-.454.941-.975,2t-.974,2.083a4.559,4.559,0,0,0-.453,1.8.9.9,0,0,0,.118.487.335.335,0,0,0,.285.185q.235,0,.756-.47a11.57,11.57,0,0,0,1.109-1.176,12.213,12.213,0,0,0,1.092-1.545,10.976,10.976,0,0,0,.591-1.116c.011-.032.018-.061.03-.093a14.088,14.088,0,0,1,1.5-3.023,10.373,10.373,0,0,1,2.167-2.435,4,4,0,0,1,2.536-.991,2.486,2.486,0,0,1,1.092.235,4.808,4.808,0,0,1,.873.538,3.615,3.615,0,0,1,.622.6c.156.2.257.336.3.4a9.642,9.642,0,0,1,.538-1.008q.235-.369.336-.37a3.1,3.1,0,0,1,.873.151,4.387,4.387,0,0,1,.94.4,2.188,2.188,0,0,1,.655.537.376.376,0,0,1,.017.52,7.667,7.667,0,0,0-.89,1.478,18.225,18.225,0,0,0-.84,2.083,20.48,20.48,0,0,0-.638,2.335,10.808,10.808,0,0,0-.252,2.234.886.886,0,0,0,.118.487.335.335,0,0,0,.285.185q.235,0,.739-.47a8.549,8.549,0,0,0,1.024-1.176,16.6,16.6,0,0,0,1.008-1.545c.193-.333.358-.649.5-.951.025-.076.044-.147.071-.225a14.107,14.107,0,0,1,1.5-3.023,10.382,10.382,0,0,1,2.167-2.435,4,4,0,0,1,2.536-.991,2.608,2.608,0,0,1,.991.185,3.508,3.508,0,0,1,.806.453,4.179,4.179,0,0,1,.6.555q.252.285.386.454.5-1.412,1.025-2.721t1.007-2.4q.487-1.091.873-1.831a4.439,4.439,0,0,1,.622-.974.658.658,0,0,1,.486-.164,1.715,1.715,0,0,1,.3.03,4.458,4.458,0,0,1,1.092.353,3.246,3.246,0,0,1,.856.554q.319.3.084.47a4.385,4.385,0,0,0-.94,1.26,23.766,23.766,0,0,0-1.176,2.385q-.6,1.394-1.226,3.04t-1.125,3.241q-.5,1.6-.806,3.007a11.4,11.4,0,0,0-.3,2.284.892.892,0,0,0,.117.487.337.337,0,0,0,.285.185q.235,0,.739-.47a8.557,8.557,0,0,0,1.025-1.176,16.831,16.831,0,0,0,1.008-1.545c.193-.333.357-.648.5-.949a8.9,8.9,0,0,1,.374-1.134,12.012,12.012,0,0,1,1.629-2.821,9.387,9.387,0,0,1,2.083-2,3.641,3.641,0,0,1,1.982-.756,4.862,4.862,0,0,1,2.065.386,3.468,3.468,0,0,1,1.311,1.025,3.927,3.927,0,0,1,.688,1.461,6.954,6.954,0,0,1,.2,1.663,9.033,9.033,0,0,1-.3,2.318,11.618,11.618,0,0,1-.84,2.217,2.439,2.439,0,0,0,.756-.252,5.519,5.519,0,0,0,.941-.588,5.7,5.7,0,0,0,.924-.89c.04-.048.076-.1.113-.149.126-.248.246-.486.357-.707q.4-.807.857-1.815t.823-1.982a2.378,2.378,0,0,1-1.562-1.226,3.9,3.9,0,0,1-.353-1.529,3.292,3.292,0,0,1,.336-1.344,6.3,6.3,0,0,1,.84-1.36,5.585,5.585,0,0,1,1.126-1.058,2.092,2.092,0,0,1,1.192-.437,1.312,1.312,0,0,1,.324.054,4.808,4.808,0,0,1-.027-.5,3.208,3.208,0,0,1,.108-.788,3.026,3.026,0,0,1-1.076.207,3.732,3.732,0,0,1-2.905-1.114,5.569,5.569,0,0,1-1.017-3.777A18.076,18.076,0,0,1-184-501.223a16.606,16.606,0,0,1-1.331,1.574,8.234,8.234,0,0,1-1.332,1.138,2.2,2.2,0,0,1-1.186.436,5.064,5.064,0,0,1-2.155-.46,5.5,5.5,0,0,1-1.72-1.235,5.67,5.67,0,0,1-1.138-1.816,5.84,5.84,0,0,1-.256-.849c-.208.329-.426.659-.663.995a13.391,13.391,0,0,1-2.107,2.348,3.646,3.646,0,0,1-2.421,1.017,3.787,3.787,0,0,1-2.833-1.114,4.638,4.638,0,0,1-1.088-3.329c-.212.267-.436.535-.679.8a13.248,13.248,0,0,1-3.2,2.543,8.413,8.413,0,0,1-4.31,1.1,6.54,6.54,0,0,1-2.761-.557,5.809,5.809,0,0,1-2.034-1.526,6.869,6.869,0,0,1-1.259-2.227,7.768,7.768,0,0,1-.338-1.4,23.535,23.535,0,0,1-1.527,1.948,12.288,12.288,0,0,1-2.034,1.872,10.889,10.889,0,0,1-2.469,1.36,7.794,7.794,0,0,1-2.882.526,6.54,6.54,0,0,1-2.76-.557,5.8,5.8,0,0,1-2.034-1.526,6.853,6.853,0,0,1-1.259-2.227,7.729,7.729,0,0,1-.3-1.192,14.653,14.653,0,0,1-1.44,1.862,13.231,13.231,0,0,1-3.2,2.543,8.413,8.413,0,0,1-4.31,1.1,6.541,6.541,0,0,1-2.76-.557,5.8,5.8,0,0,1-2.034-1.526,6.862,6.862,0,0,1-1.259-2.227,8.237,8.237,0,0,1-.436-2.712,11,11,0,0,1,.848-4.067,14.543,14.543,0,0,1,2.276-3.875,13.561,13.561,0,0,1,3.22-2.882,6.789,6.789,0,0,1,3.681-1.138,4.7,4.7,0,0,1,1.694.316,4.28,4.28,0,0,1,1.453.923,4.355,4.355,0,0,1,.993,1.482,5.149,5.149,0,0,1,.363,1.991,5.842,5.842,0,0,1-.75,2.6,7.084,7.084,0,0,1-1.937,2.235,7.768,7.768,0,0,1-2.978,1.36,7.322,7.322,0,0,1-1.693.189,10.278,10.278,0,0,1-2.23-.263,8.044,8.044,0,0,0-.073,1.846,3.78,3.78,0,0,0,.436,1.53,2.745,2.745,0,0,0,1.017,1.045,3.347,3.347,0,0,0,1.719.388,5.849,5.849,0,0,0,3.124-.847,10.529,10.529,0,0,0,2.373-1.961,10.774,10.774,0,0,0,1.574-2.252q.291-.57.5-1a12.849,12.849,0,0,1,.544-1.687,14.543,14.543,0,0,1,2.276-3.875,13.545,13.545,0,0,1,3.22-2.882,6.789,6.789,0,0,1,3.68-1.138,4.8,4.8,0,0,1,2.01.388,4.856,4.856,0,0,1,1.429.968,3.63,3.63,0,0,1,.847,1.284,3.768,3.768,0,0,1,.267,1.331,2.659,2.659,0,0,1-.75,2.107,3.076,3.076,0,0,1-1.574.775,3.357,3.357,0,0,1-.489.038,2.04,2.04,0,0,1-.891-.183q-.557-.266-.218-.654a5.092,5.092,0,0,0,.9-1.307,3.361,3.361,0,0,0,.339-1.259,1.665,1.665,0,0,0-.218-.968.9.9,0,0,0-.823-.387,3.152,3.152,0,0,0-2.131,1,10.754,10.754,0,0,0-1.937,2.5,15.464,15.464,0,0,0-1.4,3.256,10.073,10.073,0,0,0-.484,3.257,4.382,4.382,0,0,0,.775,2.5,2.737,2.737,0,0,0,2.373,1,5.469,5.469,0,0,0,2.954-.847,11.284,11.284,0,0,0,2.373-1.961,12.844,12.844,0,0,0,1.67-2.252c.237-.412.43-.765.586-1.068a13,13,0,0,1,.528-1.619,14.543,14.543,0,0,1,2.276-3.875,13.538,13.538,0,0,1,3.221-2.882,6.786,6.786,0,0,1,3.68-1.138,4.7,4.7,0,0,1,1.695.316,4.274,4.274,0,0,1,1.453.923,4.342,4.342,0,0,1,.993,1.482,5.14,5.14,0,0,1,.363,1.991,5.842,5.842,0,0,1-.75,2.6,7.084,7.084,0,0,1-1.937,2.235,7.77,7.77,0,0,1-2.978,1.36,7.32,7.32,0,0,1-1.693.189,10.275,10.275,0,0,1-2.23-.263,8,8,0,0,0-.072,1.846,3.765,3.765,0,0,0,.436,1.53,2.744,2.744,0,0,0,1.017,1.045,3.346,3.346,0,0,0,1.719.388,5.849,5.849,0,0,0,3.124-.847,10.52,10.52,0,0,0,2.373-1.961,10.758,10.758,0,0,0,1.574-2.252c.188-.368.348-.69.483-.971.056-.2.111-.4.171-.6q.509-1.743,1.235-3.8t1.646-4.334h-2.712a1.058,1.058,0,0,1-.847-.46,3.939,3.939,0,0,1-.581-1.017,5.024,5.024,0,0,1-.291-.993q-.073-.436.072-.436a13.2,13.2,0,0,0,1.332.291q.6.1,1.21.169t1.283.1q.677.025,1.5.024.387-.919.92-2.155t1.041-2.372q.508-1.137.944-2.01a5.161,5.161,0,0,1,.63-1.065,1.018,1.018,0,0,1,.75-.25M-211-508.305a3.131,3.131,0,0,0,1.385-.327A5.984,5.984,0,0,0-208-509.794a8.988,8.988,0,0,0,1.284-1.623,8.418,8.418,0,0,0,.823-1.67,2.921,2.921,0,0,0,.194-1.307q-.073-.532-.557-.532a2.429,2.429,0,0,0-1.428.557,7.171,7.171,0,0,0-1.453,1.5,14.922,14.922,0,0,0-1.308,2.131,20.658,20.658,0,0,0-1.041,2.4,3.184,3.184,0,0,0,.479.036m-30.6,0a3.128,3.128,0,0,0,1.385-.327,5.978,5.978,0,0,0,1.622-1.162,8.986,8.986,0,0,0,1.283-1.623,8.372,8.372,0,0,0,.824-1.67,2.919,2.919,0,0,0,.193-1.307c-.048-.355-.234-.532-.557-.532a2.428,2.428,0,0,0-1.428.557,7.18,7.18,0,0,0-1.453,1.5,14.925,14.925,0,0,0-1.308,2.131,20.723,20.723,0,0,0-1.041,2.4,3.184,3.184,0,0,0,.479.036m53.9,6.7q.291,0,.92-.581a13.832,13.832,0,0,0,1.38-1.525q.75-.944,1.549-2.131t1.5-2.349a23.392,23.392,0,0,0,1.187-2.2,8.559,8.559,0,0,0,.63-1.719,1.094,1.094,0,0,0-.436-1.041,2.153,2.153,0,0,0-1.453-.459,2.852,2.852,0,0,0-1.865,1.065,13.927,13.927,0,0,0-1.985,2.664,17.584,17.584,0,0,0-1.574,3.535,11.9,11.9,0,0,0-.63,3.681,1.4,1.4,0,0,0,.194.75.635.635,0,0,0,.581.315m14.382,6.78a2.306,2.306,0,0,0,1.187-.362,3.376,3.376,0,0,0,1.089-1.135,7.167,7.167,0,0,0,.8-1.981,11.42,11.42,0,0,0,.315-2.852,13.354,13.354,0,0,0-.339-2.947q-.339-1.5-.823-3.479a18.892,18.892,0,0,1-.872,2.3,7.608,7.608,0,0,1-.678,1.183,1.937,1.937,0,0,1-.387.415,23.364,23.364,0,0,1-1.356,2.2c-.222.321-.459.624-.7.917a2.553,2.553,0,0,1,1.164.414c.436.291.654.5.654.63a.086.086,0,0,1-.1.1,2.079,2.079,0,0,0-1.453.934,2.918,2.918,0,0,0-.533,1.654,2.259,2.259,0,0,0,.46,1.414,1.868,1.868,0,0,0,1.574.6m-5.7,2.879q.47-1.109.672-1.73a3.389,3.389,0,0,0,.2-.957c0-.313-.045-.47-.134-.47a.54.54,0,0,0-.369.235,4.157,4.157,0,0,0-.4.572,4,4,0,0,0-.336.7,1.858,1.858,0,0,0-.134.6,1.671,1.671,0,0,0,.084.588,1.091,1.091,0,0,0,.42.453m-10.75,9.843a1.564,1.564,0,0,0,1.075-.386,4.481,4.481,0,0,0,.84-1.058,3.417,3.417,0,0,1-.134-1.007,1.641,1.641,0,0,1,.42-1.16,1.736,1.736,0,0,1,.991-.554,13.738,13.738,0,0,0,.47-1.68,7.152,7.152,0,0,0,.168-1.445,2.452,2.452,0,0,0-.253-1.193.9.9,0,0,0-.856-.453,2.02,2.02,0,0,0-1.311.655,7.167,7.167,0,0,0-1.293,1.663,14.476,14.476,0,0,0-1.025,2.15,7.847,7.847,0,0,0-.521,2.149,3.3,3.3,0,0,0,.218,1.663,1.2,1.2,0,0,0,1.209.655m21.4,0q.2,0,.638-.4a9.525,9.525,0,0,0,.958-1.058q.52-.655,1.075-1.479t1.041-1.629a16.215,16.215,0,0,0,.823-1.528,5.984,5.984,0,0,0,.437-1.193.758.758,0,0,0-.3-.722,1.489,1.489,0,0,0-1.007-.319,1.976,1.976,0,0,0-1.293.739,9.654,9.654,0,0,0-1.378,1.848,12.248,12.248,0,0,0-1.092,2.452,8.256,8.256,0,0,0-.437,2.553.975.975,0,0,0,.134.521.442.442,0,0,0,.4.218m-35.508,0q.2,0,.638-.4a9.526,9.526,0,0,0,.958-1.058q.52-.655,1.075-1.479t1.041-1.629a16.211,16.211,0,0,0,.823-1.528,5.923,5.923,0,0,0,.436-1.193.758.758,0,0,0-.3-.722,1.489,1.489,0,0,0-1.007-.319,1.978,1.978,0,0,0-1.294.739,9.672,9.672,0,0,0-1.377,1.848,12.251,12.251,0,0,0-1.092,2.452,8.255,8.255,0,0,0-.436,2.553.968.968,0,0,0,.134.521.44.44,0,0,0,.4.218m-13.571,0q.2,0,.638-.4a9.53,9.53,0,0,0,.957-1.058q.52-.655,1.075-1.479t1.041-1.629a16.1,16.1,0,0,0,.823-1.528,5.924,5.924,0,0,0,.436-1.193.757.757,0,0,0-.3-.722,1.49,1.49,0,0,0-1.007-.319,1.976,1.976,0,0,0-1.294.739,9.653,9.653,0,0,0-1.378,1.848,12.224,12.224,0,0,0-1.092,2.452,8.255,8.255,0,0,0-.436,2.553.971.971,0,0,0,.134.521.441.441,0,0,0,.4.218m-26.034,0q.2,0,.638-.4a9.573,9.573,0,0,0,.957-1.058q.52-.655,1.075-1.479t1.041-1.629a16.113,16.113,0,0,0,.823-1.528,5.958,5.958,0,0,0,.437-1.193.758.758,0,0,0-.3-.722,1.492,1.492,0,0,0-1.008-.319,1.978,1.978,0,0,0-1.294.739,9.653,9.653,0,0,0-1.377,1.848,12.225,12.225,0,0,0-1.092,2.452,8.256,8.256,0,0,0-.437,2.553.968.968,0,0,0,.134.521.441.441,0,0,0,.4.218m85.09,4.7a1.6,1.6,0,0,0,.823-.251,2.339,2.339,0,0,0,.756-.787,4.982,4.982,0,0,0,.554-1.374,7.907,7.907,0,0,0,.219-1.978,9.276,9.276,0,0,0-.235-2.044q-.236-1.04-.571-2.413a12.99,12.99,0,0,1-.6,1.592,5.3,5.3,0,0,1-.47.821,1.338,1.338,0,0,1-.268.287,16.313,16.313,0,0,1-.941,1.529c-.154.223-.319.432-.489.636a1.77,1.77,0,0,1,.807.287c.3.2.453.348.453.437a.059.059,0,0,1-.067.068,1.438,1.438,0,0,0-1.007.648,2.022,2.022,0,0,0-.37,1.147,1.568,1.568,0,0,0,.319.981,1.3,1.3,0,0,0,1.092.415m-34.607-51.575a3.562,3.562,0,0,0-2.6,1.017,6.412,6.412,0,0,0-1.12,1.745c-.306.613-.64,1.324-.993,2.113s-.7,1.586-1.055,2.4l-.231.537c-.266-.015-.519-.037-.757-.066-.376-.045-.747-.1-1.106-.155a10.719,10.719,0,0,1-1.074-.236l-.332-.089h-.344a2.69,2.69,0,0,0-2.056.953,2.7,2.7,0,0,0-.6,1.26,7.288,7.288,0,0,0-1.6-.178,9.388,9.388,0,0,0-5.083,1.546,16.081,16.081,0,0,0-3.427,2.943c-.019-.053-.038-.106-.058-.159a6.251,6.251,0,0,0-1.445-2.208,7.461,7.461,0,0,0-2.189-1.5,7.407,7.407,0,0,0-3.1-.626,9.388,9.388,0,0,0-5.083,1.546,16.114,16.114,0,0,0-3.547,3.081c-.036-.1-.074-.2-.114-.293a6.975,6.975,0,0,0-1.591-2.36,6.907,6.907,0,0,0-2.336-1.485,7.329,7.329,0,0,0-2.63-.49,9.394,9.394,0,0,0-5.084,1.545,16.23,16.23,0,0,0-3.842,3.433,17.228,17.228,0,0,0-2.684,4.567,13.646,13.646,0,0,0-1.033,5.034,10.884,10.884,0,0,0,.58,3.569,9.5,9.5,0,0,0,1.739,3.067,8.438,8.438,0,0,0,2.934,2.208,9.166,9.166,0,0,0,3.854.8,11.03,11.03,0,0,0,5.626-1.453,16.731,16.731,0,0,0,2.625-1.874q.128.165.264.324a8.426,8.426,0,0,0,2.934,2.207,9.161,9.161,0,0,0,3.854.8,10.435,10.435,0,0,0,3.841-.708,13.582,13.582,0,0,0,3.059-1.685,15.282,15.282,0,0,0,1.27-1.042q.166.221.345.431a8.434,8.434,0,0,0,2.934,2.208,9.158,9.158,0,0,0,3.854.8,11.031,11.031,0,0,0,5.626-1.453q.724-.421,1.383-.892a5.732,5.732,0,0,0,.393.445,6.255,6.255,0,0,0,3.663,1.829l-.123.3a5.307,5.307,0,0,0-1.523-.218,6.559,6.559,0,0,0-4.181,1.573,12.123,12.123,0,0,0-1.064.97l-.016-.021a4.79,4.79,0,0,0-1.427-1.215,7.083,7.083,0,0,0-1.5-.643,5.636,5.636,0,0,0-1.626-.262,2.612,2.612,0,0,0-1.181.273c-.115-.063-.232-.123-.351-.181a5.1,5.1,0,0,0-2.23-.5,6.561,6.561,0,0,0-4.182,1.573,12.267,12.267,0,0,0-1.15,1.06,4.391,4.391,0,0,0-.745-.993,4.871,4.871,0,0,0-3.564-1.371,4.9,4.9,0,0,0-2.371.694q-.3.168-.614.373a5.831,5.831,0,0,0-.582-.422,5.982,5.982,0,0,0-1.438-.662,5.149,5.149,0,0,0-1.513-.251,2.933,2.933,0,0,0-2.641,1.527q-.168-.114-.351-.219a7.069,7.069,0,0,0-1.494-.642,5.629,5.629,0,0,0-1.627-.262,2.618,2.618,0,0,0-1.182.273c-.114-.062-.231-.122-.349-.179a5.1,5.1,0,0,0-2.232-.5,6.561,6.561,0,0,0-4.181,1.573,13.026,13.026,0,0,0-2.715,3.043,16.754,16.754,0,0,0-1.771,3.584,10.952,10.952,0,0,0-.7,3.622,6.738,6.738,0,0,0,.469,2.492,6.538,6.538,0,0,0,1.314,2.088,6.439,6.439,0,0,0,2,1.441,6.121,6.121,0,0,0,2.595.561,4.077,4.077,0,0,0,2.274-.741c.182-.121.363-.255.543-.4a5.29,5.29,0,0,0,3.4,1.109,4.98,4.98,0,0,0,2.876-.954,6.563,6.563,0,0,0,.6.355,3.922,3.922,0,0,0,1.832.5,3.408,3.408,0,0,0,1.544-.362,2.9,2.9,0,0,0,1.326-1.3c.069.081.141.159.216.235a5.228,5.228,0,0,0,3.835,1.559,5.229,5.229,0,0,0,3.36-1.3q.1-.082.2-.168a6.509,6.509,0,0,0,1.438.908,6.125,6.125,0,0,0,2.595.561,4.078,4.078,0,0,0,2.274-.741q.272-.181.543-.4a5.289,5.289,0,0,0,3.4,1.109,5.129,5.129,0,0,0,3.366-1.336l.039-.034a6.506,6.506,0,0,0,1.357.841,6.121,6.121,0,0,0,2.594.561,4.066,4.066,0,0,0,2.236-.71,6.92,6.92,0,0,0,.561-.41,5.292,5.292,0,0,0,3.35,1.121,5.116,5.116,0,0,0,3.4-1.352l.075-.067a5.779,5.779,0,0,0,2.064,1.094,8.2,8.2,0,0,0,2.319.325,6.991,6.991,0,0,0,3.441-.9,9.958,9.958,0,0,0,1.677-1.18,6.718,6.718,0,0,0,2.226-.6,9.023,9.023,0,0,0,1.718-1.043h0a5.058,5.058,0,0,0,1.205,2.147,5.211,5.211,0,0,0,3.873,1.58,5.229,5.229,0,0,0,3.359-1.3l.085-.071a6.5,6.5,0,0,0,1.318.81,6.121,6.121,0,0,0,2.595.561,4.077,4.077,0,0,0,2.274-.741q.272-.181.543-.4a4.943,4.943,0,0,0,1.808.908q.076.2.168.4a6,6,0,0,0,1.368,1.9,6.166,6.166,0,0,0,1.948,1.225,6.253,6.253,0,0,0,2.305.435,7.127,7.127,0,0,0,2.737-.588,8.183,8.183,0,0,0,2.5-1.649,8.881,8.881,0,0,0,1.84-2.564,8.248,8.248,0,0,0,.783-3.628,8.273,8.273,0,0,0-.273-2.137c-.135-.5-.293-1.023-.47-1.543-.14-.408-.264-.814-.37-1.212a3.01,3.01,0,0,1-.1-.785,3.548,3.548,0,0,1,.1-.8,2.484,2.484,0,0,1,.14-.41,3.123,3.123,0,0,0,1.1-2.419,3.473,3.473,0,0,0-.908-2.321,5.507,5.507,0,0,0-1.177-1,6.658,6.658,0,0,0-1.307-.64,4.875,4.875,0,0,0-1.644-.307,3.167,3.167,0,0,0-1.329.316,3.96,3.96,0,0,0-1.332,1.031c-.07.078-.138.161-.205.247a5.591,5.591,0,0,0-.628-.42,7.075,7.075,0,0,0-1.5-.644,5.624,5.624,0,0,0-1.626-.262,2.617,2.617,0,0,0-1.181.273q-.172-.094-.351-.18a4.945,4.945,0,0,0-.991-.352q.3-.5.571-1.052a10.756,10.756,0,0,0,1.013-4.726,10.758,10.758,0,0,0-.356-2.783c-.192-.715-.413-1.439-.656-2.154-.208-.607-.394-1.217-.554-1.816a5.507,5.507,0,0,1-.178-1.431,6.273,6.273,0,0,1,.174-1.416,5.315,5.315,0,0,1,.41-1.1,3.092,3.092,0,0,0,1.353-2.712,3.855,3.855,0,0,0-1.018-2.58,6.843,6.843,0,0,0-1.452-1.226,8.4,8.4,0,0,0-1.657-.812,5.867,5.867,0,0,0-1.978-.374,3.421,3.421,0,0,0-1.443.354,4.592,4.592,0,0,0-1.528,1.2,7.273,7.273,0,0,0-.95,1.41,5.777,5.777,0,0,0-1.694-1.425,9.007,9.007,0,0,0-1.913-.822,6.967,6.967,0,0,0-2.011-.328,2.709,2.709,0,0,0-1.693.585,10.022,10.022,0,0,0-1.017-.565,6.2,6.2,0,0,0-2.715-.6,7.958,7.958,0,0,0-4.244,1.257l-.047-.1a6.868,6.868,0,0,0-.949-1.423c-.034-.039-.077-.088-.128-.143q.154-.322.313-.65c.284-.583.543-1.1.77-1.539.109-.211.178-.333.215-.4a2.926,2.926,0,0,0,.7-1.932,3.286,3.286,0,0,0-1.115-2.369,7.048,7.048,0,0,0-1.962-1.288,8.589,8.589,0,0,0-2.235-.663,5.223,5.223,0,0,0-.781-.062ZM-224.5-504.058A2.1,2.1,0,0,1-224.7-505a7.561,7.561,0,0,1,.372-2.412,13.443,13.443,0,0,1,.6-1.6,3.306,3.306,0,0,0,1.267,1.019,4.633,4.633,0,0,0,2.018.439,6.019,6.019,0,0,0,.87-.066l.04-.006a10.55,10.55,0,0,1-1.24,1.632,8.724,8.724,0,0,1-1.827,1.506,2.837,2.837,0,0,1-1.567.45,1.81,1.81,0,0,1-.324-.024Zm36.642,8.6a4.747,4.747,0,0,0,2.638-.876,10.372,10.372,0,0,0,1.445-1.18l.037.041a5.7,5.7,0,0,0,.788.716,8.943,8.943,0,0,0-.82,1.436,7.124,7.124,0,0,0-.292.75q-.224-.126-.462-.239a7.452,7.452,0,0,0-3.178-.635,6.112,6.112,0,0,0-3.369,1.152c.182-.373.36-.709.53-1,.155-.268.261-.428.325-.516a7.816,7.816,0,0,0,2.358.356Z" transform="translate(250.13 528.981)" fill="#fff"/>
          </g>
        </g>
        <g id="Grupo_362" data-name="Grupo 362">
          <g id="Grupo_360" data-name="Grupo 360" transform="translate(1.309 1.309)">
            <path id="Trazado_624" data-name="Trazado 624" d="M-291.569-465.463a9.808,9.808,0,0,1-3.549-.5c-.5-.2-1.844-.738-1.844-1.987a1.9,1.9,0,0,1,.631-1.464,1.829,1.829,0,0,1,1.222-.48l.077,0a6.138,6.138,0,0,0,.65-.754,29.209,29.209,0,0,0,2.016-3.124l.149-.263a6.349,6.349,0,0,1-2.574.541,8.479,8.479,0,0,1-3.458-.748,9.629,9.629,0,0,1-2.967-2.072,9.96,9.96,0,0,1-2.093-3.26,11.292,11.292,0,0,1-.776-4.258,21.885,21.885,0,0,1,.914-6.13,34.1,34.1,0,0,1,2.383-5.97c.465-.908.975-1.806,1.523-2.684a7.456,7.456,0,0,1-.833-.578,6.945,6.945,0,0,1-1.253-1.286,3.181,3.181,0,0,1-.668-1.916,10.979,10.979,0,0,1,.882-3.462c.54-1.439,1.225-3.107,2.036-4.957.8-1.82,1.681-3.789,2.623-5.853.928-2.031,1.8-4.016,2.6-5.9s1.463-3.583,1.98-5.056a11.81,11.81,0,0,0,.717-2.767l-.254.154a39.575,39.575,0,0,0-4.71,3.374,38.615,38.615,0,0,0-3.957,3.769,22.851,22.851,0,0,0-2.681,3.546,7.421,7.421,0,0,0-.763,1.635,3.627,3.627,0,0,0,.555-.1,8.622,8.622,0,0,0,1.008-.336c.377-.155.686-.274.926-.359a2.342,2.342,0,0,1,.8-.163,1.466,1.466,0,0,1,.654.149l.28.138.187.25c.3.4.647,1.249-.437,2.39a9.852,9.852,0,0,1-1.426,1.207,11.469,11.469,0,0,1-1.859,1.067,5.081,5.081,0,0,1-2.119.531,3.009,3.009,0,0,1-2.07-.971,9.359,9.359,0,0,1-1.382-1.716,10.7,10.7,0,0,1-1.049-2.152,6.856,6.856,0,0,1-.439-2.281,6.771,6.771,0,0,1,1.5-3.755,27.392,27.392,0,0,1,3.509-3.972,48.775,48.775,0,0,1,4.9-4.057,50.854,50.854,0,0,1,5.741-3.629,40.019,40.019,0,0,1,5.984-2.653,17.882,17.882,0,0,1,5.778-1.064,9.138,9.138,0,0,1,3.2.641,10.956,10.956,0,0,1,3.108,1.814,10.639,10.639,0,0,1,2.4,2.843,7.648,7.648,0,0,1,1.026,3.905,12.987,12.987,0,0,1-.857,4.524,21.741,21.741,0,0,1-2.19,4.3,29.267,29.267,0,0,1-3.068,3.9,29.252,29.252,0,0,1-3.5,3.22,20.438,20.438,0,0,1-3.522,2.224,10.4,10.4,0,0,1-1.42.571q.42.718.9,1.44a7.541,7.541,0,0,1,1.79-.226,5.464,5.464,0,0,1,2.851.731,5.857,5.857,0,0,1,1.895,1.809,7.291,7.291,0,0,1,1,2.35,10.691,10.691,0,0,1,.281,2.172,5.69,5.69,0,0,0,1.831.309,5.958,5.958,0,0,0,1.359-.162,1.561,1.561,0,0,1,.475-.075,1.454,1.454,0,0,1,1.445,1.527,2.127,2.127,0,0,1-.179.958l-.04.083-.051.076a6.768,6.768,0,0,1-.84.971A8.827,8.827,0,0,1-276-498.371a11.636,11.636,0,0,1-1.83.959,9.205,9.205,0,0,1-2.263.623,5.662,5.662,0,0,1-.6.054c-.127.236-.254.461-.382.679a17.965,17.965,0,0,1-2.084,2.913,5.424,5.424,0,0,1-1.537,1.266,5.8,5.8,0,0,1,1.52.516,6.458,6.458,0,0,1,1.738,1.25,3.131,3.131,0,0,1,1.02,2.242,11.321,11.321,0,0,1-.6,3.008c-.367,1.226-.833,2.615-1.385,4.132s-1.149,3.086-1.783,4.685-1.237,3.092-1.777,4.4-1.014,2.414-1.421,3.324c-.686,1.53-.71,1.555-.9,1.746a3.5,3.5,0,0,1-1.69.92A6.851,6.851,0,0,1-291.569-465.463Zm2.972-36.571a32.491,32.491,0,0,0-2.9,3.794,36.445,36.445,0,0,0-2.649,4.752,31.272,31.272,0,0,0-1.894,5.269,20.923,20.923,0,0,0-.706,5.3,3.142,3.142,0,0,0,.827,2.492,3.124,3.124,0,0,0,2.084.781,1.815,1.815,0,0,0,1.133-.512,10.6,10.6,0,0,0,1.672-1.818,19.337,19.337,0,0,0,1.571-2.527c.5-.953.945-1.867,1.326-2.719a21.343,21.343,0,0,0,.855-2.175,7.674,7.674,0,0,0,.256-.924,1.635,1.635,0,0,1,.692-1.3,5.237,5.237,0,0,1-1.137-.245,6.285,6.285,0,0,1-1.4-.66,4.686,4.686,0,0,1-1.124-.976,2.454,2.454,0,0,1-.615-1.579,2.271,2.271,0,0,1,.532-1.475,1.815,1.815,0,0,1,1.412-.742,1.48,1.48,0,0,1,.518.094,4.76,4.76,0,0,0,.421-.437,15.678,15.678,0,0,0,1.386-1.9,20.777,20.777,0,0,1-2.111-2.52l-.108.088Zm-4.121-5.743c-.234.674-.454,1.337-.657,1.98l.085-.078c.532-.484,1.084-.944,1.65-1.374q-.4-.744-.767-1.415Q-292.565-508.218-292.718-507.777Zm4.841-24.264a7.239,7.239,0,0,1,1.157.8,6.52,6.52,0,0,1,.971,1,2.458,2.458,0,0,1,.585,1.5,8.216,8.216,0,0,1-.472,2.329c-.282.9-.648,1.944-1.089,3.118s-.946,2.461-1.514,3.859c-.34.835-.692,1.711-1.052,2.618a9.359,9.359,0,0,0,1.34-.932,22.43,22.43,0,0,0,3.564-3.752,27.512,27.512,0,0,0,3.073-5.061,11.869,11.869,0,0,0,1.232-5.036,1.448,1.448,0,0,0-.168-.682,2.365,2.365,0,0,0-.513-.672,2.425,2.425,0,0,0-.694-.442,1.625,1.625,0,0,0-.609-.141,12.816,12.816,0,0,0-4.457.886q-.7.264-1.41.575Z" transform="translate(309.912 539.394)" fill="#fff"/>
          </g>
          <g id="Grupo_361" data-name="Grupo 361">
            <path id="Trazado_625" data-name="Trazado 625" d="M-284.192-539.776a7.808,7.808,0,0,1,2.736.557,9.6,9.6,0,0,1,2.736,1.6,9.28,9.28,0,0,1,2.106,2.494,6.327,6.327,0,0,1,.848,3.245,11.632,11.632,0,0,1-.775,4.068,20.329,20.329,0,0,1-2.058,4.043,27.909,27.909,0,0,1-2.93,3.729,27.8,27.8,0,0,1-3.342,3.075,19.006,19.006,0,0,1-3.293,2.082,6.672,6.672,0,0,1-2.857.775,27.518,27.518,0,0,0,2.379,3.942,6.807,6.807,0,0,1,2.323-.445,4.159,4.159,0,0,1,2.178.544,4.529,4.529,0,0,1,1.475,1.407,5.953,5.953,0,0,1,.817,1.928,9.248,9.248,0,0,1,.25,2.11,5.068,5.068,0,0,1-.041.62c.214.1.427.2.644.281a7.016,7.016,0,0,0,2.534.479,7.27,7.27,0,0,0,1.728-.212.283.283,0,0,1,.106-.024c.09,0,.136.073.136.218a1.034,1.034,0,0,1-.048.388,5.757,5.757,0,0,1-.678.774,7.494,7.494,0,0,1-1.186.945,10.3,10.3,0,0,1-1.622.848,7.847,7.847,0,0,1-1.937.532,4.4,4.4,0,0,1-.626.044,4.788,4.788,0,0,1-.566-.034c-.232.459-.474.912-.735,1.358a16.541,16.541,0,0,1-1.928,2.7q-1,1.113-1.679,1.112a3.9,3.9,0,0,1-1.248-.2,4.958,4.958,0,0,1-1.112-.522,3.391,3.391,0,0,1-.817-.7,1.187,1.187,0,0,1-.318-.748.96.96,0,0,1,.227-.635c.15-.181.287-.272.408-.272a.317.317,0,0,1,.2.113.4.4,0,0,0,.295.113q.544,0,1.429-1.021a17.607,17.607,0,0,0,1.747-2.45c.106-.175.206-.352.307-.53a18.777,18.777,0,0,1-2.83-3.235c-.225-.322-.444-.649-.661-.977l-.04.033-.132-.221c-.387.37-.778.766-1.181,1.21a33.464,33.464,0,0,0-3.063,3.992,37.628,37.628,0,0,0-2.745,4.923,32.451,32.451,0,0,0-1.973,5.49,22.132,22.132,0,0,0-.749,5.627,4.321,4.321,0,0,0,1.293,3.493,4.419,4.419,0,0,0,2.927,1.089,3.071,3.071,0,0,0,1.973-.817,11.874,11.874,0,0,0,1.883-2.042,20.517,20.517,0,0,0,1.678-2.7q.772-1.474,1.361-2.79a22.236,22.236,0,0,0,.907-2.314,5.952,5.952,0,0,0,.318-1.27q0-.35.45-.35a1.416,1.416,0,0,1,.162.01,4.252,4.252,0,0,1,1.361.431,5.121,5.121,0,0,1,1.384,1,1.867,1.867,0,0,1,.635,1.316,10.507,10.507,0,0,1-.544,2.632q-.545,1.815-1.361,4.061t-1.77,4.65q-.953,2.405-1.769,4.379t-1.407,3.29q-.59,1.316-.635,1.361a2.2,2.2,0,0,1-1.066.567,5.522,5.522,0,0,1-1.293.159,8.708,8.708,0,0,1-3.063-.408q-1.02-.408-1.02-.772a.6.6,0,0,1,.181-.476.549.549,0,0,1,.363-.159.313.313,0,0,1,.136.023.318.318,0,0,0,.137.023q.5,0,1.5-1.316a30.364,30.364,0,0,0,2.11-3.266q1.111-1.952,2.224-4.2t1.838-4.152a21.727,21.727,0,0,1-3.585,4.855,5.7,5.7,0,0,1-4.038,1.815,7.137,7.137,0,0,1-2.927-.635,8.285,8.285,0,0,1-2.564-1.792,8.618,8.618,0,0,1-1.815-2.836,9.948,9.948,0,0,1-.681-3.766,20.489,20.489,0,0,1,.862-5.762,32.6,32.6,0,0,1,2.292-5.74,35.127,35.127,0,0,1,2.309-3.87,3.655,3.655,0,0,1-.708-.237,5.772,5.772,0,0,1-1.259-.775,5.624,5.624,0,0,1-1.017-1.041,1.9,1.9,0,0,1-.411-1.138,10.256,10.256,0,0,1,.8-3q.8-2.13,2.01-4.891t2.615-5.836q1.4-3.075,2.615-5.932t2.01-5.133a11.5,11.5,0,0,0,.8-3.39q0-.387.193-.484a.786.786,0,0,1,.339-.1,1.8,1.8,0,0,1,.823.267,5.856,5.856,0,0,1,.945.654,5.183,5.183,0,0,1,.775.8,1.249,1.249,0,0,1,.315.7,7.282,7.282,0,0,1-.412,1.937q-.412,1.308-1.065,3.051t-1.5,3.826q-.848,2.082-1.719,4.31a1.6,1.6,0,0,0,.969.436,5.585,5.585,0,0,0,3.075-1.55,23.638,23.638,0,0,0,3.778-3.971,28.706,28.706,0,0,0,3.22-5.3,13.1,13.1,0,0,0,1.356-5.593,2.749,2.749,0,0,0-.315-1.284,3.681,3.681,0,0,0-.8-1.041,3.752,3.752,0,0,0-1.065-.678,2.9,2.9,0,0,0-1.114-.242,14.043,14.043,0,0,0-4.916.969,30.24,30.24,0,0,0-5.133,2.518,40.736,40.736,0,0,0-4.867,3.487,39.733,39.733,0,0,0-4.092,3.9,23.992,23.992,0,0,0-2.833,3.753,6.244,6.244,0,0,0-1.065,3,.5.5,0,0,0,.339.484,1.813,1.813,0,0,0,.726.145,4.81,4.81,0,0,0,1.259-.169,9.817,9.817,0,0,0,1.162-.387c.355-.146.646-.258.872-.339a1.215,1.215,0,0,1,.361-.086.17.17,0,0,1,.075.013c.1.13-.017.363-.339.7a8.513,8.513,0,0,1-1.235,1.041,10.086,10.086,0,0,1-1.646.944,3.865,3.865,0,0,1-1.574.412,1.771,1.771,0,0,1-1.162-.606,8.01,8.01,0,0,1-1.187-1.477,9.341,9.341,0,0,1-.92-1.889,5.53,5.53,0,0,1-.363-1.84,5.644,5.644,0,0,1,1.259-3,26,26,0,0,1,3.341-3.777,47.39,47.39,0,0,1,4.77-3.947,49.339,49.339,0,0,1,5.594-3.535,38.562,38.562,0,0,1,5.787-2.567,16.5,16.5,0,0,1,5.351-.992m-13.391,36.96A31.486,31.486,0,0,1-294.1-506.6a22.643,22.643,0,0,1,2.452-1.944l0-.008.016-.027c-.151-.27-.3-.538-.45-.812q-1.307-2.445-2.276-4.092-.679,1.842-1.283,3.584t-1.065,3.317q-.461,1.573-.726,2.906c-.06.3-.107.583-.146.859m12.983-3.012a4.211,4.211,0,0,0,.052-.611,2.539,2.539,0,0,0-.341-1.248,1.135,1.135,0,0,0-1.066-.612,2.742,2.742,0,0,0-1.012.225,20.563,20.563,0,0,0,2.024,1.978c.113.1.229.177.343.267m.408-36.566a19.169,19.169,0,0,0-6.2,1.135,41.358,41.358,0,0,0-6.181,2.74,52.248,52.248,0,0,0-5.89,3.722,50.146,50.146,0,0,0-5.033,4.167,28.74,28.74,0,0,0-3.677,4.167,7.988,7.988,0,0,0-1.735,4.508,8.138,8.138,0,0,0,.515,2.72,12,12,0,0,0,1.18,2.419,10.643,10.643,0,0,0,1.579,1.955,4.257,4.257,0,0,0,2.975,1.335,6.355,6.355,0,0,0,2.667-.651,12.774,12.774,0,0,0,2.068-1.188,11.092,11.092,0,0,0,1.559-1.312c-.571,1.266-1.113,2.487-1.622,3.647-.821,1.872-1.515,3.561-2.063,5.023a11.884,11.884,0,0,0-.965,3.922,4.526,4.526,0,0,0,.924,2.695,8.207,8.207,0,0,0,1.391,1.451q-.5.853-.941,1.722a35.368,35.368,0,0,0-2.475,6.2,23.192,23.192,0,0,0-.967,6.5,12.6,12.6,0,0,0,.872,4.749,11.267,11.267,0,0,0,2.372,3.685,10.925,10.925,0,0,0,3.369,2.351,9.786,9.786,0,0,0,3.893.861q-.275.4-.537.747c-.085.112-.158.2-.222.281a3.188,3.188,0,0,0-1.558.768,3.179,3.179,0,0,0-1.066,2.438c0,1.417.9,2.494,2.666,3.2a11.026,11.026,0,0,0,4.036.6,8.162,8.162,0,0,0,1.906-.232,4.79,4.79,0,0,0,2.3-1.261c.391-.4.495-.629,1.173-2.142.413-.923.9-2.053,1.437-3.359s1.142-2.795,1.784-4.415,1.243-3.2,1.8-4.72c.56-1.54,1.034-2.954,1.408-4.2a12.443,12.443,0,0,0,.655-3.384,4.417,4.417,0,0,0-1.4-3.166,7.894,7.894,0,0,0-1.644-1.266,19.344,19.344,0,0,0,2.21-3.093l.06-.1a10.5,10.5,0,0,0,2.558-.707,12.976,12.976,0,0,0,2.042-1.071,10.171,10.171,0,0,0,1.6-1.283,8.033,8.033,0,0,0,1-1.171l.1-.152.079-.164a3.461,3.461,0,0,0,.309-1.528,2.765,2.765,0,0,0-2.753-2.835,2.854,2.854,0,0,0-.815.12,4.64,4.64,0,0,1-1.02.117,4.242,4.242,0,0,1-.591-.041,12.386,12.386,0,0,0-.247-1.428,8.589,8.589,0,0,0-1.179-2.771,7.148,7.148,0,0,0-2.315-2.213,6.568,6.568,0,0,0-2.954-.9,23.714,23.714,0,0,0,2.477-1.683,30.526,30.526,0,0,0,3.658-3.364,30.57,30.57,0,0,0,3.2-4.08,23.027,23.027,0,0,0,2.321-4.564,14.29,14.29,0,0,0,.939-4.981,8.936,8.936,0,0,0-1.2-4.563,11.939,11.939,0,0,0-2.7-3.192,12.263,12.263,0,0,0-3.481-2.03,10.44,10.44,0,0,0-3.661-.725Zm-2.779,9.013a10.85,10.85,0,0,1,3.21-.534c-.005,0,.037.01.113.041a1.131,1.131,0,0,1,.321.209,1.07,1.07,0,0,1,.228.305.127.127,0,0,1,.017.072,10.58,10.58,0,0,1-1.107,4.479,26.18,26.18,0,0,1-2.926,4.82q-.268.349-.538.677.243-.627.462-1.212c.448-1.2.822-2.266,1.111-3.183a9.274,9.274,0,0,0,.533-2.724,3.757,3.757,0,0,0-.852-2.291,7.367,7.367,0,0,0-.573-.66Zm-15.55,11.561a25.092,25.092,0,0,1,1.7-2.087A37.279,37.279,0,0,1-297-527.548q.938-.782,1.924-1.5c-.467,1.28-1.037,2.717-1.7,4.282-.754,1.778-1.577,3.648-2.448,5.563a2.9,2.9,0,0,0-.554-1.609l-.375-.5-.561-.277a2.759,2.759,0,0,0-1.233-.284,3.128,3.128,0,0,0-.578.055Zm11,21.762q.632-.9,1.265-1.687.273.333.556.65-.31.432-.616.795h-.043a2.906,2.906,0,0,0-1.163.241Zm-4.032,17.408a1.818,1.818,0,0,1-1.218-.473,2.189,2.189,0,0,1-.362-1.492,19.613,19.613,0,0,1,.663-4.963,29.936,29.936,0,0,1,1.814-5.049q.495-1.063,1.044-2.072a3.776,3.776,0,0,0,.916,2.339,6,6,0,0,0,1.435,1.248,7.392,7.392,0,0,0,1.272.644q-.022.14-.032.285c-.022.09-.076.3-.2.694a19.947,19.947,0,0,1-.8,2.037c-.371.827-.805,1.718-1.292,2.647a17.949,17.949,0,0,1-1.463,2.356,9.309,9.309,0,0,1-1.46,1.593,1.133,1.133,0,0,1-.315.205Z" transform="translate(312.912 542.394)" fill="#fff"/>
          </g>
        </g>
      </g>
      <g id="Grupo_377" data-name="Grupo 377" transform="translate(-310.183 -576.528)">
        <g id="ecetas" transform="translate(27.39 5.852)">
          <g id="Grupo_370" data-name="Grupo 370">
            <g id="Grupo_364" data-name="Grupo 364" transform="translate(0 9.305)">
              <path id="Trazado_626" data-name="Trazado 626" d="M-227.554-492.6q.629,0,.7.484a4.287,4.287,0,0,1-.121,1.4,10.611,10.611,0,0,1-.872,2.058,13.332,13.332,0,0,1-2.034,2.872,13.232,13.232,0,0,1-3.2,2.543,8.417,8.417,0,0,1-4.31,1.1,6.546,6.546,0,0,1-2.76-.557,5.814,5.814,0,0,1-2.034-1.526,6.864,6.864,0,0,1-1.259-2.228,8.236,8.236,0,0,1-.436-2.712,11.018,11.018,0,0,1,.847-4.068,14.556,14.556,0,0,1,2.277-3.875,13.561,13.561,0,0,1,3.22-2.881,6.789,6.789,0,0,1,3.681-1.138,4.7,4.7,0,0,1,1.695.316,4.278,4.278,0,0,1,1.453.923,4.358,4.358,0,0,1,.993,1.482,5.146,5.146,0,0,1,.363,1.991,5.845,5.845,0,0,1-.75,2.6,7.08,7.08,0,0,1-1.937,2.235,7.761,7.761,0,0,1-2.978,1.361,8.733,8.733,0,0,1-3.923-.073,8.047,8.047,0,0,0-.073,1.846,3.78,3.78,0,0,0,.436,1.53,2.741,2.741,0,0,0,1.017,1.045,3.344,3.344,0,0,0,1.719.388,5.85,5.85,0,0,0,3.124-.847,10.532,10.532,0,0,0,2.373-1.961,10.777,10.777,0,0,0,1.574-2.252q.582-1.137.824-1.719Q-227.8-492.6-227.554-492.6ZM-233.22-499a2.429,2.429,0,0,0-1.428.557,7.176,7.176,0,0,0-1.453,1.5,14.919,14.919,0,0,0-1.308,2.131,20.732,20.732,0,0,0-1.041,2.4,3.114,3.114,0,0,0,1.864-.291,5.985,5.985,0,0,0,1.622-1.162,9,9,0,0,0,1.283-1.623,8.37,8.37,0,0,0,.824-1.67,2.921,2.921,0,0,0,.193-1.308C-232.711-498.818-232.9-499-233.22-499Z" transform="translate(243.874 501.127)" fill="#d92d2d"/>
            </g>
            <g id="Grupo_365" data-name="Grupo 365" transform="translate(15.302 9.305)">
              <path id="Trazado_627" data-name="Trazado 627" d="M-192.479-492.6q.338,0,.557.484a2.361,2.361,0,0,1,.024,1.4,8.668,8.668,0,0,1-.46,1.113,12.076,12.076,0,0,1-1.017,1.719,23.547,23.547,0,0,1-1.55,1.981,12.283,12.283,0,0,1-2.034,1.872,10.912,10.912,0,0,1-2.469,1.36,7.79,7.79,0,0,1-2.882.525,6.545,6.545,0,0,1-2.76-.557,5.813,5.813,0,0,1-2.034-1.526,6.857,6.857,0,0,1-1.259-2.228,8.235,8.235,0,0,1-.436-2.712,11,11,0,0,1,.848-4.068,14.552,14.552,0,0,1,2.276-3.875,13.556,13.556,0,0,1,3.221-2.881,6.789,6.789,0,0,1,3.68-1.138,4.8,4.8,0,0,1,2.009.387,4.857,4.857,0,0,1,1.429.969,3.639,3.639,0,0,1,.847,1.283,3.773,3.773,0,0,1,.266,1.332,2.657,2.657,0,0,1-.75,2.106,3.077,3.077,0,0,1-1.574.775,2.368,2.368,0,0,1-1.38-.145q-.557-.266-.218-.654a5.087,5.087,0,0,0,.9-1.308,3.361,3.361,0,0,0,.339-1.259,1.668,1.668,0,0,0-.218-.969.894.894,0,0,0-.823-.387,3.154,3.154,0,0,0-2.131,1,10.765,10.765,0,0,0-1.937,2.5,15.464,15.464,0,0,0-1.4,3.256,10.071,10.071,0,0,0-.484,3.257,4.381,4.381,0,0,0,.775,2.5,2.738,2.738,0,0,0,2.373,1,5.47,5.47,0,0,0,2.954-.847,11.286,11.286,0,0,0,2.373-1.961,12.849,12.849,0,0,0,1.671-2.252,17,17,0,0,0,.9-1.719C-192.77-492.49-192.641-492.6-192.479-492.6Z" transform="translate(208.799 501.127)" fill="#d92d2d"/>
            </g>
            <g id="Grupo_366" data-name="Grupo 366" transform="translate(30.605 9.305)">
              <path id="Trazado_628" data-name="Trazado 628" d="M-157.4-492.6q.629,0,.7.484a4.3,4.3,0,0,1-.121,1.4,10.688,10.688,0,0,1-.871,2.058,13.348,13.348,0,0,1-2.034,2.872,13.242,13.242,0,0,1-3.2,2.543,8.414,8.414,0,0,1-4.31,1.1A6.545,6.545,0,0,1-170-482.7a5.817,5.817,0,0,1-2.034-1.526,6.864,6.864,0,0,1-1.259-2.228,8.236,8.236,0,0,1-.436-2.712,11,11,0,0,1,.847-4.068,14.543,14.543,0,0,1,2.276-3.875,13.539,13.539,0,0,1,3.221-2.881,6.786,6.786,0,0,1,3.68-1.138,4.7,4.7,0,0,1,1.695.316,4.278,4.278,0,0,1,1.453.923,4.35,4.35,0,0,1,.993,1.482,5.138,5.138,0,0,1,.363,1.991,5.841,5.841,0,0,1-.75,2.6,7.074,7.074,0,0,1-1.937,2.235,7.766,7.766,0,0,1-2.978,1.361,8.732,8.732,0,0,1-3.923-.073,7.974,7.974,0,0,0-.072,1.846,3.767,3.767,0,0,0,.436,1.53,2.736,2.736,0,0,0,1.017,1.045,3.341,3.341,0,0,0,1.719.388,5.847,5.847,0,0,0,3.123-.847,10.514,10.514,0,0,0,2.373-1.961,10.761,10.761,0,0,0,1.574-2.252q.581-1.137.823-1.719C-157.695-492.49-157.566-492.6-157.4-492.6ZM-163.071-499a2.43,2.43,0,0,0-1.428.557,7.164,7.164,0,0,0-1.453,1.5,14.875,14.875,0,0,0-1.308,2.131,20.589,20.589,0,0,0-1.041,2.4,3.116,3.116,0,0,0,1.865-.291,5.991,5.991,0,0,0,1.622-1.162,9,9,0,0,0,1.284-1.623,8.388,8.388,0,0,0,.823-1.67,2.917,2.917,0,0,0,.194-1.308Q-162.587-499-163.071-499Z" transform="translate(173.724 501.127)" fill="#d92d2d"/>
            </g>
            <g id="Grupo_367" data-name="Grupo 367" transform="translate(44.793)">
              <path id="Trazado_629" data-name="Trazado 629" d="M-129.242-514.313a4.169,4.169,0,0,1,.581.872,3.433,3.433,0,0,1,.315.872c.048.259-.024.387-.218.387a1.921,1.921,0,0,1-.267-.024,4.165,4.165,0,0,0-.532-.024q-.364,0-1.017-.024t-1.768-.024a77.832,77.832,0,0,0-2.93,7.627,20.741,20.741,0,0,0-1.138,6.175q0,.969.63.969.338,0,1.041-.678a15.091,15.091,0,0,0,1.476-1.695,21.278,21.278,0,0,0,1.477-2.228,15.642,15.642,0,0,0,1.09-2.228.139.139,0,0,1,.048-.1c.064-.064.113-.1.145-.1.355,0,.565.138.63.412a2.976,2.976,0,0,1,.048.944c-.065.387-.162.84-.29,1.356a16.68,16.68,0,0,1-.775,1.695,19.861,19.861,0,0,1-1.574,2.591,13.384,13.384,0,0,1-2.107,2.349,3.646,3.646,0,0,1-2.421,1.017,3.786,3.786,0,0,1-2.833-1.114,4.675,4.675,0,0,1-1.09-3.39,11.945,11.945,0,0,1,.291-2.325q.291-1.4.8-3.148t1.235-3.8q.727-2.057,1.647-4.334h-2.712a1.058,1.058,0,0,1-.847-.46,3.948,3.948,0,0,1-.581-1.017,5.031,5.031,0,0,1-.291-.993q-.073-.436.072-.436a13.083,13.083,0,0,0,1.332.29q.6.1,1.211.17t1.284.1c.452.017.952.024,1.5.024q.387-.919.92-2.155t1.041-2.373q.508-1.138.944-2.01a5.164,5.164,0,0,1,.63-1.065,1.287,1.287,0,0,1,1.138-.218,5.912,5.912,0,0,1,1.549.46,4.429,4.429,0,0,1,1.235.8q.484.461.194.751a4.467,4.467,0,0,0-.508.847q-.364.7-.8,1.6t-.848,1.791q-.412.9-.7,1.477h1.21C-129.646-514.7-129.468-514.571-129.242-514.313Z" transform="translate(141.203 522.456)" fill="#d92d2d"/>
            </g>
            <g id="Grupo_368" data-name="Grupo 368" transform="translate(54.236 9.305)">
              <path id="Trazado_630" data-name="Trazado 630" d="M-98.736-492.555a.635.635,0,0,1,.678.436,1.939,1.939,0,0,1,.048.969,10.47,10.47,0,0,1-.339,1.356,15.5,15.5,0,0,1-.775,1.67,22.63,22.63,0,0,1-1.549,2.567,12.236,12.236,0,0,1-2.107,2.349,3.687,3.687,0,0,1-2.4,1.017,3.734,3.734,0,0,1-2.905-1.114,5.567,5.567,0,0,1-1.017-3.777,18.119,18.119,0,0,1-1.187,1.791,16.632,16.632,0,0,1-1.332,1.575,8.228,8.228,0,0,1-1.332,1.138,2.2,2.2,0,0,1-1.186.436,5.064,5.064,0,0,1-2.155-.46,5.5,5.5,0,0,1-1.72-1.235,5.661,5.661,0,0,1-1.138-1.816,5.936,5.936,0,0,1-.411-2.2,12.25,12.25,0,0,1,.8-3.971,20.235,20.235,0,0,1,2.155-4.358,14.954,14.954,0,0,1,3.123-3.511,5.763,5.763,0,0,1,3.656-1.428,3.58,3.58,0,0,1,1.574.339,6.921,6.921,0,0,1,1.259.775,5.171,5.171,0,0,1,.9.872q.338.436.436.581a13.9,13.9,0,0,1,.774-1.453q.339-.532.485-.533a4.483,4.483,0,0,1,1.259.218,6.339,6.339,0,0,1,1.356.581,3.168,3.168,0,0,1,.944.774.543.543,0,0,1,.024.751,11.023,11.023,0,0,0-1.284,2.13,26.337,26.337,0,0,0-1.21,3,29.54,29.54,0,0,0-.921,3.366,15.663,15.663,0,0,0-.363,3.221,1.286,1.286,0,0,0,.17.7.485.485,0,0,0,.411.267q.339,0,1.066-.678a12.37,12.37,0,0,0,1.477-1.695,24.421,24.421,0,0,0,1.453-2.228,15.636,15.636,0,0,0,1.089-2.228.139.139,0,0,1,.048-.1Q-98.785-492.555-98.736-492.555Zm-15.254,6.877q.291,0,.92-.581a13.839,13.839,0,0,0,1.38-1.525q.75-.945,1.549-2.131t1.5-2.349a23.369,23.369,0,0,0,1.187-2.2,8.561,8.561,0,0,0,.63-1.719,1.093,1.093,0,0,0-.436-1.041,2.152,2.152,0,0,0-1.453-.46,2.852,2.852,0,0,0-1.865,1.065,13.935,13.935,0,0,0-1.985,2.663,17.605,17.605,0,0,0-1.574,3.535,11.9,11.9,0,0,0-.63,3.681,1.4,1.4,0,0,0,.194.75A.636.636,0,0,0-113.99-485.679Z" transform="translate(119.559 501.127)" fill="#d92d2d"/>
            </g>
            <g id="Grupo_369" data-name="Grupo 369" transform="translate(69.587 9.499)">
              <path id="Trazado_631" data-name="Trazado 631" d="M-71.54-498.31c0,.356-.089.541-.266.557s-.347.153-.509.411a8.7,8.7,0,0,0-.92,2.252,8.848,8.848,0,0,0-.242,2.01,8.08,8.08,0,0,0,.267,2.107q.265.993.605,1.985T-72-487a8.1,8.1,0,0,1,.267,2.106,8.127,8.127,0,0,1-.751,3.584,9.008,9.008,0,0,1-1.864,2.615,8,8,0,0,1-2.446,1.623,6.5,6.5,0,0,1-2.494.557,5.226,5.226,0,0,1-1.937-.363,5.116,5.116,0,0,1-1.623-1.017,4.9,4.9,0,0,1-1.114-1.549,4.542,4.542,0,0,1-.411-1.913,3.24,3.24,0,0,1,.775-2.106,2.237,2.237,0,0,1,1.744-.944,2.6,2.6,0,0,1,1.476.436q.654.436.654.629a.086.086,0,0,1-.1.1,2.078,2.078,0,0,0-1.453.934,2.919,2.919,0,0,0-.533,1.654,2.256,2.256,0,0,0,.46,1.414,1.868,1.868,0,0,0,1.574.6,2.31,2.31,0,0,0,1.187-.363,3.376,3.376,0,0,0,1.089-1.135,7.179,7.179,0,0,0,.8-1.981,11.422,11.422,0,0,0,.315-2.852,13.356,13.356,0,0,0-.339-2.947q-.339-1.5-.823-3.479a18.819,18.819,0,0,1-.872,2.3,7.619,7.619,0,0,1-.678,1.184,1.488,1.488,0,0,1-.46.459.8.8,0,0,1-.218.072.688.688,0,0,1-.581-.41,1.573,1.573,0,0,1-.242-.8q.581-1.449,1.114-2.8.484-1.16.969-2.465t.823-2.271a13.44,13.44,0,0,1,.823-2.513,5.9,5.9,0,0,1,.823-1.352,2.236,2.236,0,0,1,.654-.556,1.133,1.133,0,0,1,.363-.121,3.265,3.265,0,0,1,1.09.218,5.772,5.772,0,0,1,1.138.557,4.2,4.2,0,0,1,.9.75A1.275,1.275,0,0,1-71.54-498.31Z" transform="translate(84.373 500.683)" fill="#d92d2d"/>
            </g>
          </g>
        </g>
        <g id="R">
          <g id="Grupo_372" data-name="Grupo 372">
            <g id="Grupo_371" data-name="Grupo 371">
              <path id="Trazado_632" data-name="Trazado 632" d="M-273.1-499.55c.161-.065.242,0,.242.194a1.03,1.03,0,0,1-.048.387,5.708,5.708,0,0,1-.678.775,7.505,7.505,0,0,1-1.186.945,10.3,10.3,0,0,1-1.622.847,7.849,7.849,0,0,1-1.937.533,4.842,4.842,0,0,1-3.85-1.187,18.176,18.176,0,0,1-3.39-3.729,46.166,46.166,0,0,1-2.882-4.7q-1.308-2.445-2.276-4.092-.679,1.841-1.283,3.584t-1.065,3.317q-.461,1.573-.726,2.906a12.088,12.088,0,0,0-.267,2.349c0,.129-.089.242-.266.339a1.239,1.239,0,0,1-.606.145,2.871,2.871,0,0,1-1.138-.291,5.775,5.775,0,0,1-1.259-.774,5.613,5.613,0,0,1-1.017-1.041,1.894,1.894,0,0,1-.411-1.138,10.261,10.261,0,0,1,.8-3q.8-2.131,2.01-4.891t2.615-5.836q1.4-3.075,2.615-5.932t2.01-5.133a11.5,11.5,0,0,0,.8-3.39q0-.386.193-.484a.787.787,0,0,1,.339-.1,1.8,1.8,0,0,1,.823.267,5.857,5.857,0,0,1,.945.654,5.182,5.182,0,0,1,.775.8,1.249,1.249,0,0,1,.315.7,7.277,7.277,0,0,1-.411,1.937q-.412,1.307-1.065,3.051t-1.5,3.826q-.848,2.082-1.719,4.31a1.6,1.6,0,0,0,.969.436,5.582,5.582,0,0,0,3.075-1.55,23.638,23.638,0,0,0,3.778-3.971,28.679,28.679,0,0,0,3.22-5.3,13.1,13.1,0,0,0,1.356-5.593,2.746,2.746,0,0,0-.315-1.284,3.683,3.683,0,0,0-.8-1.041,3.75,3.75,0,0,0-1.065-.678,2.9,2.9,0,0,0-1.114-.242,14.045,14.045,0,0,0-4.916.969,30.223,30.223,0,0,0-5.133,2.518,40.651,40.651,0,0,0-4.867,3.487,39.718,39.718,0,0,0-4.092,3.9A24.022,24.022,0,0,0-301.959-518a6.25,6.25,0,0,0-1.065,3,.5.5,0,0,0,.339.484,1.822,1.822,0,0,0,.726.145,4.809,4.809,0,0,0,1.259-.169,9.8,9.8,0,0,0,1.162-.388q.533-.218.872-.339t.436-.073c.1.13-.017.363-.339.7a8.52,8.52,0,0,1-1.235,1.041,10.106,10.106,0,0,1-1.646.944,3.86,3.86,0,0,1-1.574.412,1.772,1.772,0,0,1-1.162-.605,8.014,8.014,0,0,1-1.187-1.477,9.346,9.346,0,0,1-.92-1.889,5.53,5.53,0,0,1-.363-1.84,5.641,5.641,0,0,1,1.259-3,25.97,25.97,0,0,1,3.341-3.777,47.3,47.3,0,0,1,4.77-3.947,49.316,49.316,0,0,1,5.593-3.535,38.459,38.459,0,0,1,5.787-2.567,16.5,16.5,0,0,1,5.351-.993,7.8,7.8,0,0,1,2.736.557,9.592,9.592,0,0,1,2.736,1.6,9.28,9.28,0,0,1,2.106,2.494,6.326,6.326,0,0,1,.847,3.245,11.627,11.627,0,0,1-.774,4.068,20.34,20.34,0,0,1-2.058,4.043,27.863,27.863,0,0,1-2.93,3.729,27.753,27.753,0,0,1-3.341,3.075,19.026,19.026,0,0,1-3.293,2.082,6.67,6.67,0,0,1-2.857.774,27.786,27.786,0,0,0,2.639,4.31,21.614,21.614,0,0,0,3.438,3.7,13.764,13.764,0,0,0,3.947,2.373A7,7,0,0,0-273.1-499.55Z" transform="translate(306.656 535.87)" fill="#d92d2d"/>
            </g>
          </g>
        </g>
        <g id="Grupo_375" data-name="Grupo 375" transform="translate(5.826 29.163)">
          <g id="Grupo_373" data-name="Grupo 373" transform="translate(21.719 3.781)">
            <path id="Trazado_633" data-name="Trazado 633" d="M-149.391-451.459a.514.514,0,0,1,.353-.285c.123-.011.185-.14.185-.386a.884.884,0,0,0-.252-.588,2.9,2.9,0,0,0-.621-.521,4.024,4.024,0,0,0-.79-.387,2.269,2.269,0,0,0-.756-.151.786.786,0,0,0-.252.084,1.547,1.547,0,0,0-.454.386,4.1,4.1,0,0,0-.572.938,9.349,9.349,0,0,0-.571,1.743q-.236.671-.571,1.575t-.672,1.709l-.247.625c-.075.14-.154.284-.24.43a16.565,16.565,0,0,1-1.008,1.545,8.564,8.564,0,0,1-1.024,1.176q-.5.471-.74.47a.336.336,0,0,1-.285-.185.889.889,0,0,1-.118-.487,10.835,10.835,0,0,1,.252-2.234,20.437,20.437,0,0,1,.638-2.335,18.21,18.21,0,0,1,.84-2.083,7.666,7.666,0,0,1,.89-1.478.376.376,0,0,0-.017-.521,2.2,2.2,0,0,0-.655-.538,4.426,4.426,0,0,0-.941-.4,3.1,3.1,0,0,0-.873-.151c-.067,0-.179.124-.335.369a9.729,9.729,0,0,0-.538,1.008q-.067-.1-.3-.4a3.592,3.592,0,0,0-.621-.605,4.817,4.817,0,0,0-.873-.537,2.485,2.485,0,0,0-1.092-.235,4,4,0,0,0-2.536.991,10.393,10.393,0,0,0-2.167,2.435,14.087,14.087,0,0,0-1.495,3.024c-.123.351-.218.681-.3,1-.04.069-.077.136-.119.207a13.439,13.439,0,0,1-1.075,1.545,10.437,10.437,0,0,1-1.092,1.176q-.522.471-.756.47a.336.336,0,0,1-.286-.185.894.894,0,0,1-.117-.489,7.1,7.1,0,0,1,.251-1.753,17.644,17.644,0,0,1,.622-1.939q.368-.961.772-1.8t.705-1.348a.673.673,0,0,0,.1-.4,1.19,1.19,0,0,0-.168-.573,2.283,2.283,0,0,0-.437-.556,2.565,2.565,0,0,0-.6-.421,1.486,1.486,0,0,0-.671-.168,7.4,7.4,0,0,0-1.143.1,7.4,7.4,0,0,1-1.142.1,1.016,1.016,0,0,1-.47-.067,25.84,25.84,0,0,0,.84-2.455,6.309,6.309,0,0,0,.268-1.553,1.229,1.229,0,0,0-.2-.7,1.986,1.986,0,0,0-.47-.5,2.093,2.093,0,0,0-.554-.3,1.52,1.52,0,0,0-.487-.1,2.092,2.092,0,0,0-1.192.437,5.57,5.57,0,0,0-1.126,1.058,6.294,6.294,0,0,0-.84,1.361,3.283,3.283,0,0,0-.336,1.344,3.9,3.9,0,0,0,.352,1.529,2.38,2.38,0,0,0,1.562,1.226q-.37.974-.823,1.982t-.857,1.814c-.111.221-.231.459-.357.707-.038.05-.073.1-.113.149a5.7,5.7,0,0,1-.924.89,5.519,5.519,0,0,1-.941.588,2.452,2.452,0,0,1-.756.252,11.63,11.63,0,0,0,.84-2.217,9.055,9.055,0,0,0,.3-2.318,6.949,6.949,0,0,0-.2-1.663,3.931,3.931,0,0,0-.688-1.461,3.465,3.465,0,0,0-1.311-1.024,4.862,4.862,0,0,0-2.065-.387,3.643,3.643,0,0,0-1.982.756,9.394,9.394,0,0,0-2.083,2,12.018,12.018,0,0,0-1.63,2.822,8.889,8.889,0,0,0-.374,1.133c-.142.3-.306.617-.5.95a16.9,16.9,0,0,1-1.008,1.545,8.578,8.578,0,0,1-1.025,1.176q-.5.471-.739.47a.337.337,0,0,1-.285-.185.889.889,0,0,1-.118-.487,11.41,11.41,0,0,1,.3-2.284q.3-1.411.806-3.007t1.125-3.242q.622-1.645,1.226-3.04a23.726,23.726,0,0,1,1.176-2.385,4.383,4.383,0,0,1,.941-1.26q.235-.168-.084-.47a3.24,3.24,0,0,0-.857-.555,4.45,4.45,0,0,0-1.092-.353.863.863,0,0,0-.789.134,4.454,4.454,0,0,0-.622.975q-.386.74-.873,1.831t-1.007,2.4q-.521,1.31-1.025,2.721-.134-.168-.386-.454a4.217,4.217,0,0,0-.6-.554,3.515,3.515,0,0,0-.806-.453,2.607,2.607,0,0,0-.991-.185,4,4,0,0,0-2.536.991,10.392,10.392,0,0,0-2.167,2.435,14.108,14.108,0,0,0-1.5,3.024c-.027.078-.046.149-.071.225-.142.3-.306.617-.5.95a16.567,16.567,0,0,1-1.008,1.545,8.537,8.537,0,0,1-1.024,1.176q-.5.471-.739.47a.336.336,0,0,1-.285-.185.885.885,0,0,1-.118-.487,10.805,10.805,0,0,1,.252-2.234,20.435,20.435,0,0,1,.638-2.335,18.207,18.207,0,0,1,.84-2.083,7.643,7.643,0,0,1,.89-1.478.376.376,0,0,0-.017-.521,2.2,2.2,0,0,0-.655-.538,4.422,4.422,0,0,0-.94-.4,3.115,3.115,0,0,0-.873-.151c-.067,0-.179.124-.336.369a9.749,9.749,0,0,0-.537,1.008c-.045-.067-.146-.2-.3-.4a3.6,3.6,0,0,0-.622-.605,4.8,4.8,0,0,0-.873-.537,2.485,2.485,0,0,0-1.092-.235,4,4,0,0,0-2.537.991,10.38,10.38,0,0,0-2.167,2.435,14.086,14.086,0,0,0-1.5,3.024c-.011.032-.019.062-.03.093a10.985,10.985,0,0,1-.591,1.116,12.249,12.249,0,0,1-1.092,1.545,11.558,11.558,0,0,1-1.109,1.176q-.521.471-.756.47a.337.337,0,0,1-.286-.185.9.9,0,0,1-.117-.487,4.556,4.556,0,0,1,.453-1.8q.454-1.025.974-2.083t.975-2a3.809,3.809,0,0,0,.453-1.579,2.515,2.515,0,0,0-.6-1.848,2.317,2.317,0,0,0-1.713-.6,2.452,2.452,0,0,0-1.109.37,7.918,7.918,0,0,0-1.411,1.024,14.032,14.032,0,0,0-1.478,1.545,15.238,15.238,0,0,0-1.344,1.9,9.427,9.427,0,0,1,.353-.89q.218-.486.42-.974t.352-.908a2.122,2.122,0,0,0,.151-.688.917.917,0,0,0-.269-.6,3.027,3.027,0,0,0-.638-.538,3.359,3.359,0,0,0-.806-.369,2.6,2.6,0,0,0-.739-.134c-.179,0-.291.05-.336.151a.642.642,0,0,0-.067.252,4.054,4.054,0,0,1-.235.957q-.236.723-.6,1.7t-.789,2.1c-.207.555-.4,1.092-.59,1.621-.131.271-.281.553-.452.848a16.736,16.736,0,0,1-1.008,1.545A8.563,8.563,0,0,1-232-443.565q-.5.471-.739.47a.337.337,0,0,1-.285-.185.889.889,0,0,1-.117-.487,10.806,10.806,0,0,1,.252-2.234,20.253,20.253,0,0,1,.638-2.335,18.2,18.2,0,0,1,.839-2.083,7.642,7.642,0,0,1,.89-1.478.376.376,0,0,0-.017-.521,2.2,2.2,0,0,0-.655-.538,4.423,4.423,0,0,0-.94-.4,3.109,3.109,0,0,0-.873-.151c-.067,0-.18.124-.336.369a9.5,9.5,0,0,0-.537,1.008c-.045-.067-.146-.2-.3-.4a3.613,3.613,0,0,0-.622-.605,4.833,4.833,0,0,0-.873-.537,2.488,2.488,0,0,0-1.092-.235,4,4,0,0,0-2.536.991,10.364,10.364,0,0,0-2.167,2.435,14.065,14.065,0,0,0-1.5,3.024,8.5,8.5,0,0,0-.554,2.755,4.111,4.111,0,0,0,.285,1.528,3.922,3.922,0,0,0,.789,1.26,3.814,3.814,0,0,0,1.193.856,3.516,3.516,0,0,0,1.5.319,1.524,1.524,0,0,0,.823-.3,5.711,5.711,0,0,0,.924-.789,11.735,11.735,0,0,0,.924-1.092,12.611,12.611,0,0,0,.822-1.243,3.861,3.861,0,0,0,.706,2.62,2.591,2.591,0,0,0,2.016.773,2.558,2.558,0,0,0,1.663-.705,8.44,8.44,0,0,0,1.364-1.5,1.906,1.906,0,0,0,.231.608,2.943,2.943,0,0,0,.655.773,4.434,4.434,0,0,0,.773.52,1.452,1.452,0,0,0,.622.2.815.815,0,0,0,.369-.084c.112-.056.168-.118.168-.185a6.109,6.109,0,0,1,.4-2.083,16.175,16.175,0,0,1,1.008-2.217,17.574,17.574,0,0,1,1.344-2.1q.739-.991,1.394-1.764a13.066,13.066,0,0,1,1.159-1.226c.336-.3.548-.453.638-.453s.134.089.134.269a3.806,3.806,0,0,1-.386,1.176q-.387.874-.84,1.915t-.823,2.083a5.336,5.336,0,0,0-.369,1.68,3.242,3.242,0,0,0,.756,2.352,2.624,2.624,0,0,0,1.965.773,2.687,2.687,0,0,0,1.7-.705,9.816,9.816,0,0,0,1.562-1.629q.344-.451.636-.889a4.006,4.006,0,0,0,.221.788,3.929,3.929,0,0,0,.789,1.26,3.816,3.816,0,0,0,1.193.856,3.511,3.511,0,0,0,1.494.319,1.524,1.524,0,0,0,.823-.3,5.672,5.672,0,0,0,.924-.789,11.6,11.6,0,0,0,.924-1.092,12.535,12.535,0,0,0,.822-1.243,3.864,3.864,0,0,0,.705,2.62,2.593,2.593,0,0,0,2.016.773,2.558,2.558,0,0,0,1.662-.705,8.49,8.49,0,0,0,1.462-1.629c.194-.281.373-.557.539-.829a4,4,0,0,0,.217.762,3.928,3.928,0,0,0,.789,1.26,3.809,3.809,0,0,0,1.193.856,3.513,3.513,0,0,0,1.495.319,1.5,1.5,0,0,0,.806-.286,5.21,5.21,0,0,0,.89-.756,11.365,11.365,0,0,0,.907-1.075q.454-.6.823-1.21v.2a3.244,3.244,0,0,0,.756,2.352,2.626,2.626,0,0,0,1.965.773,2.532,2.532,0,0,0,1.679-.705,9.267,9.267,0,0,0,1.462-1.629c.269-.379.5-.75.713-1.117a4.872,4.872,0,0,0,.26,1.134,3.574,3.574,0,0,0,.873,1.36,3.173,3.173,0,0,0,1.294.74,5.553,5.553,0,0,0,1.579.218,4.385,4.385,0,0,0,2.167-.571,7.728,7.728,0,0,0,1.9-1.512.8.8,0,0,1,.151.017.9.9,0,0,0,.185.017,4.25,4.25,0,0,0,1.831-.387,6.187,6.187,0,0,0,1.428-.907c.08-.069.155-.138.229-.208l.007.006a.159.159,0,0,0,.235-.05,18.1,18.1,0,0,0,1.562-2.452q.889-1.612,1.965-4.031a2.44,2.44,0,0,0,.705.1,4.339,4.339,0,0,0,1.092-.134,5.245,5.245,0,0,1,.588-.134c.045,0,.061.017.051.05s-.017.039-.017.017q-.135.236-.572,1.143t-.89,2.016q-.454,1.109-.823,2.2a5.709,5.709,0,0,0-.37,1.7,3.289,3.289,0,0,0,.739,2.352,2.612,2.612,0,0,0,1.982.773,2.688,2.688,0,0,0,1.7-.705,9.8,9.8,0,0,0,1.562-1.629c.163-.213.313-.424.456-.633a4.051,4.051,0,0,0,.164.532,3.928,3.928,0,0,0,.789,1.26,3.809,3.809,0,0,0,1.193.856,3.515,3.515,0,0,0,1.5.319,1.525,1.525,0,0,0,.823-.3,5.674,5.674,0,0,0,.924-.789,11.6,11.6,0,0,0,.924-1.092,12.54,12.54,0,0,0,.823-1.243,3.862,3.862,0,0,0,.706,2.62,2.591,2.591,0,0,0,2.016.773,2.1,2.1,0,0,0,.747-.148,2.22,2.22,0,0,0-.076.551,3.142,3.142,0,0,0,.286,1.327,3.383,3.383,0,0,0,.772,1.075,3.555,3.555,0,0,0,1.126.706,3.629,3.629,0,0,0,1.344.252,4.52,4.52,0,0,0,1.73-.386,5.552,5.552,0,0,0,1.7-1.126,6.248,6.248,0,0,0,1.293-1.814,5.634,5.634,0,0,0,.52-2.486,5.644,5.644,0,0,0-.184-1.461q-.185-.688-.42-1.377t-.42-1.377a5.6,5.6,0,0,1-.185-1.461,6.126,6.126,0,0,1,.168-1.394A6.042,6.042,0,0,1-149.391-451.459Zm-85.292.974a5.966,5.966,0,0,1-.437,1.193,16.216,16.216,0,0,1-.823,1.528q-.487.806-1.041,1.629t-1.075,1.479a9.6,9.6,0,0,1-.957,1.058q-.437.4-.638.4a.441.441,0,0,1-.4-.218.966.966,0,0,1-.134-.521,8.253,8.253,0,0,1,.437-2.553,12.234,12.234,0,0,1,1.092-2.453,9.66,9.66,0,0,1,1.377-1.847,1.978,1.978,0,0,1,1.294-.739,1.494,1.494,0,0,1,1.008.319A.758.758,0,0,1-234.683-450.486Zm26.034,0a5.929,5.929,0,0,1-.436,1.193,16.2,16.2,0,0,1-.823,1.528q-.488.806-1.041,1.629t-1.075,1.479a9.555,9.555,0,0,1-.957,1.058q-.437.4-.638.4a.441.441,0,0,1-.4-.218.97.97,0,0,1-.134-.521,8.251,8.251,0,0,1,.436-2.553,12.262,12.262,0,0,1,1.092-2.453,9.662,9.662,0,0,1,1.378-1.847,1.977,1.977,0,0,1,1.293-.739,1.492,1.492,0,0,1,1.008.319A.758.758,0,0,1-208.649-450.486Zm13.572,0a5.956,5.956,0,0,1-.436,1.193,16.324,16.324,0,0,1-.823,1.528q-.488.806-1.041,1.629t-1.075,1.479a9.555,9.555,0,0,1-.958,1.058q-.437.4-.638.4a.442.442,0,0,1-.4-.218.97.97,0,0,1-.134-.521,8.252,8.252,0,0,1,.436-2.553,12.264,12.264,0,0,1,1.092-2.453,9.677,9.677,0,0,1,1.377-1.847,1.978,1.978,0,0,1,1.294-.739,1.492,1.492,0,0,1,1.007.319A.758.758,0,0,1-195.078-450.486Zm12.8,1.445a13.748,13.748,0,0,1-.47,1.68,1.737,1.737,0,0,0-.991.554,1.639,1.639,0,0,0-.42,1.159,3.419,3.419,0,0,0,.134,1.008,4.49,4.49,0,0,1-.84,1.058,1.566,1.566,0,0,1-1.075.386,1.2,1.2,0,0,1-1.209-.655,3.3,3.3,0,0,1-.218-1.663,7.85,7.85,0,0,1,.521-2.15,14.52,14.52,0,0,1,1.025-2.15,7.163,7.163,0,0,1,1.293-1.663,2.02,2.02,0,0,1,1.31-.655.9.9,0,0,1,.856.453,2.45,2.45,0,0,1,.252,1.192A7.147,7.147,0,0,1-182.279-449.041Zm7.76-5.728q-.2.622-.672,1.73a1.093,1.093,0,0,1-.42-.453,1.671,1.671,0,0,1-.084-.588,1.862,1.862,0,0,1,.134-.605,4.036,4.036,0,0,1,.336-.705,4.212,4.212,0,0,1,.4-.571.54.54,0,0,1,.37-.235c.089,0,.134.157.134.47A3.393,3.393,0,0,1-174.518-454.769Zm14.948,4.283a5.959,5.959,0,0,1-.436,1.193,16.314,16.314,0,0,1-.823,1.528q-.488.806-1.041,1.629t-1.075,1.479a9.557,9.557,0,0,1-.958,1.058q-.437.4-.638.4a.442.442,0,0,1-.4-.218.974.974,0,0,1-.134-.521,8.253,8.253,0,0,1,.437-2.553,12.26,12.26,0,0,1,1.091-2.453,9.662,9.662,0,0,1,1.378-1.847,1.976,1.976,0,0,1,1.293-.739,1.491,1.491,0,0,1,1.007.319A.757.757,0,0,1-159.57-450.486Zm7.138,9.58a4.978,4.978,0,0,1-.554,1.374,2.346,2.346,0,0,1-.756.787,1.606,1.606,0,0,1-.823.251,1.3,1.3,0,0,1-1.092-.415,1.569,1.569,0,0,1-.319-.982,2.023,2.023,0,0,1,.37-1.147,1.442,1.442,0,0,1,1.008-.648.059.059,0,0,0,.067-.067c0-.089-.151-.235-.453-.437a1.776,1.776,0,0,0-.807-.288c.17-.2.335-.413.489-.636a16.307,16.307,0,0,0,.941-1.529,1.348,1.348,0,0,0,.268-.287,5.3,5.3,0,0,0,.47-.821,13.071,13.071,0,0,0,.6-1.593q.336,1.375.571,2.414a9.277,9.277,0,0,1,.235,2.044A7.9,7.9,0,0,1-152.432-440.905Z" transform="translate(243.518 460.358)"/>
          </g>
          <g id="Grupo_374" data-name="Grupo 374">
            <path id="Trazado_634" data-name="Trazado 634" d="M-274.267-450.286a4.265,4.265,0,0,0-1.361-.431q-.612-.067-.612.341a5.956,5.956,0,0,1-.318,1.27,22.292,22.292,0,0,1-.907,2.314q-.59,1.316-1.361,2.79a20.5,20.5,0,0,1-1.679,2.7,11.824,11.824,0,0,1-1.883,2.042,3.071,3.071,0,0,1-1.973.817,4.421,4.421,0,0,1-2.927-1.089,4.322,4.322,0,0,1-1.293-3.494,22.131,22.131,0,0,1,.749-5.626,32.43,32.43,0,0,1,1.973-5.49,37.571,37.571,0,0,1,2.745-4.923,33.506,33.506,0,0,1,3.063-3.993,18.273,18.273,0,0,1,2.927-2.677,4.358,4.358,0,0,1,2.336-.975,1.136,1.136,0,0,1,1.066.613,2.539,2.539,0,0,1,.341,1.248,6.928,6.928,0,0,1-.635,2.564,22.641,22.641,0,0,1-1.5,2.949,17.653,17.653,0,0,1-1.747,2.45q-.885,1.02-1.429,1.021a.4.4,0,0,1-.295-.113.318.318,0,0,0-.2-.113c-.121,0-.257.091-.408.272a.961.961,0,0,0-.227.635,1.188,1.188,0,0,0,.318.749,3.376,3.376,0,0,0,.817.7,4.957,4.957,0,0,0,1.111.522,3.919,3.919,0,0,0,1.248.2q.681,0,1.678-1.111a16.547,16.547,0,0,0,1.928-2.7,24.6,24.6,0,0,0,1.611-3.289,8.119,8.119,0,0,0,.68-2.927,9.248,9.248,0,0,0-.25-2.11,5.955,5.955,0,0,0-.817-1.928,4.532,4.532,0,0,0-1.475-1.407,4.16,4.16,0,0,0-2.178-.544,7.96,7.96,0,0,0-3.743,1.089,20.545,20.545,0,0,0-4.039,2.926,32.057,32.057,0,0,0-3.9,4.31,34.985,34.985,0,0,0-3.312,5.263,32.6,32.6,0,0,0-2.292,5.74,20.493,20.493,0,0,0-.862,5.762,9.95,9.95,0,0,0,.681,3.766,8.62,8.62,0,0,0,1.815,2.836,8.276,8.276,0,0,0,2.564,1.792,7.144,7.144,0,0,0,2.927.635,5.7,5.7,0,0,0,4.038-1.815,21.709,21.709,0,0,0,3.585-4.855q-.727,1.906-1.838,4.152t-2.224,4.2a30.3,30.3,0,0,1-2.11,3.266q-1,1.316-1.5,1.316a.311.311,0,0,1-.137-.023.315.315,0,0,0-.136-.022.551.551,0,0,0-.363.159.6.6,0,0,0-.181.476q0,.362,1.021.771a8.707,8.707,0,0,0,3.063.408,5.518,5.518,0,0,0,1.293-.159,2.205,2.205,0,0,0,1.066-.567q.044-.046.635-1.361t1.407-3.29q.817-1.974,1.769-4.379t1.77-4.65q.817-2.246,1.361-4.061a10.508,10.508,0,0,0,.545-2.632,1.866,1.866,0,0,0-.635-1.315A5.117,5.117,0,0,0-274.267-450.286Z" transform="translate(293.301 469.025)"/>
          </g>
        </g>
        <g id="Grupo_376" data-name="Grupo 376" transform="translate(18.641 29.379)">
          <path id="Trazado_635" data-name="Trazado 635" d="M-263.928-466.683l1.747,2.915,2.947-2.4-1.688-2.126-1.872-.231" transform="translate(263.928 468.53)" fill="#d92d2d"/>
        </g>
      </g>
      <g id="Grupo_378" data-name="Grupo 378" transform="translate(-299.144 -607.994)">
        <path id="Trazado_636" data-name="Trazado 636" d="M-237.373-580.641a10.1,10.1,0,0,0-.244-10.529A7.541,7.541,0,0,0-243.451-595l-.087-.012-.613-.445c-.022-.047-.044-.1-.065-.15-1.489-3.749-5.01-5.841-8.564-5.088-.474.1-.545.076-.829-.292a9.826,9.826,0,0,0-6.874-3.952c-3.615-.415-6.678,1.431-8.4,5.062-.02.041-.038.083-.057.124l-1.2.783a7.577,7.577,0,0,0-5.975,1.87,8.084,8.084,0,0,0-2.214,6.532,8.669,8.669,0,0,0,2.95,6.042l.494,2.508c-.114.358-.223.718-.322,1.073-.243.871-.4,1.447-.082,2s.9.692,1.772.908a.837.837,0,0,0,.226.025,21.62,21.62,0,0,1,3.543.228.806.806,0,0,0,.267-.007c.273.052.541.1.806.148.743.136,1.445.264,2.133.425l.376.093a49.3,49.3,0,0,1,16.36,7.366.939.939,0,0,0,.1.061,4.046,4.046,0,0,0,1.62.586,1.237,1.237,0,0,0,.475-.1c.6-.243.8-.805,1.106-1.676.155-.439.318-.874.475-1.291l.222.079a15.9,15.9,0,0,0,2.36.945,5.287,5.287,0,0,0,4.444-.58,5.444,5.444,0,0,0,2.292-4.006,6.839,6.839,0,0,0-.787-4.045Z" transform="translate(279.662 606.304)" fill="#fff"/>
        <path id="Trazado_637" data-name="Trazado 637" d="M-249.771-569.492a4.954,4.954,0,0,1-2.2-.722,2.339,2.339,0,0,1-.258-.151,47.986,47.986,0,0,0-15.922-7.174l-.39-.1c-.641-.15-1.325-.275-2.049-.407l-.632-.116a2.159,2.159,0,0,1-.4-.018,20.5,20.5,0,0,0-3.338-.216,2.087,2.087,0,0,1-.565-.063,3.614,3.614,0,0,1-2.587-1.52,3.628,3.628,0,0,1-.048-3.011c.073-.263.151-.529.233-.794l-.349-1.77a9.889,9.889,0,0,1-3.053-6.624,9.36,9.36,0,0,1,2.619-7.563,8.764,8.764,0,0,1,6.524-2.254l.528-.345c1.974-3.971,5.559-6.059,9.633-5.592a11.05,11.05,0,0,1,7.569,4.209c4.024-.709,7.943,1.609,9.678,5.73l.041.029a8.851,8.851,0,0,1,6.57,4.465,11.445,11.445,0,0,1,.365,11.58l-.031.221a8.2,8.2,0,0,1,.735,4.422,6.733,6.733,0,0,1-2.865,4.943,6.576,6.576,0,0,1-5.527.751,12.231,12.231,0,0,1-1.475-.531,3.465,3.465,0,0,1-1.84,2.428A2.565,2.565,0,0,1-249.771-569.492Zm-1.013-3.054a5.076,5.076,0,0,0,1.014.437,8.406,8.406,0,0,0,.346-.9c.158-.449.324-.893.484-1.317l.454-1.205,1.543.558a14.937,14.937,0,0,0,2.166.873,4.006,4.006,0,0,0,3.361-.409,4.166,4.166,0,0,0,1.719-3.071,5.55,5.55,0,0,0-.637-3.265l-.207-.38.214-1.527.116-.211a8.755,8.755,0,0,0-.229-9.24,6.234,6.234,0,0,0-4.83-3.187c-.069-.008-.117-.014-.164-.022l-.31-.049-1.138-.827-.143-.3c-.033-.069-.064-.142-.1-.219-1.25-3.149-4.157-4.914-7.078-4.3a1.847,1.847,0,0,1-2.137-.774,8.562,8.562,0,0,0-5.985-3.45c-3.067-.352-5.58,1.184-7.073,4.323l-.2.448-1.9,1.239-.448-.037a6.32,6.32,0,0,0-4.965,1.514,6.808,6.808,0,0,0-1.81,5.5,7.4,7.4,0,0,0,2.523,5.156l.321.291.643,3.264-.1.321c-.11.342-.213.687-.308,1.027a4.236,4.236,0,0,0-.212.99,4.073,4.073,0,0,0,.9.282,22.953,22.953,0,0,1,3.608.23l.162-.032.25.047c.27.051.535.1.8.147.765.14,1.48.27,2.2.438l.39.1A50.58,50.58,0,0,1-250.784-572.547Zm.021.014h0Zm-24.244-8.477h0Z" transform="translate(281.354 607.994)" fill="#fff"/>
      </g>
      <g id="Trazado_621" data-name="Trazado 621" transform="translate(-297.126 -605.977)">
        <path id="Trazado_638" data-name="Trazado 638" d="M-272.782-583.327a.86.86,0,0,1,.381,1.2c-.32.833-.6,1.686-.838,2.546-.409,1.462-.391,1.467,1.059,1.826a22.429,22.429,0,0,1,3.687.238c0-.019.006-.038.01-.057,1.152.222,2.219.391,3.269.637.126.03.25.061.375.093a50.2,50.2,0,0,1,16.65,7.493c1.494.744,1.487.742,1.994-.694.272-.769.568-1.531.815-2.2a29.237,29.237,0,0,0,3.3,1.381,4.249,4.249,0,0,0,5.632-3.847,5.93,5.93,0,0,0-.809-3.74.9.9,0,0,1,.015-1.078,9.316,9.316,0,0,0-.013-10.091,6.672,6.672,0,0,0-5.171-3.39,1.518,1.518,0,0,1-1.475-1.151c-1.328-3.343-4.447-5.219-7.572-4.556a1.421,1.421,0,0,1-1.7-.614,9.019,9.019,0,0,0-6.281-3.617c-3.26-.373-5.966,1.307-7.517,4.571-.255.536-.472,1.09-.7,1.619-5.32-1.187-9,1.909-8.662,7.259A8.04,8.04,0,0,0-272.782-583.327Zm26.031,11.1-3.73-2-.1.165c.924.718,1.821,1.478,2.783,2.142a1.21,1.21,0,0,1,.3,2.009c-7.515-5.063-15.65-8.5-24.991-9.041.33-.919.577-1.7.9-2.455.068-.157.427-.248.659-.264,1.438-.095,2.877-.16,4.337-.307-.731-.113-1.46-.248-2.195-.331-.769-.088-1.543-.124-2.406-.19a1.871,1.871,0,0,1,2.152-1.223c2.961.427,5.952.769,8.85,1.478a42.285,42.285,0,0,1,11.478,4.948q.449.261.87.566C-246.016-575.381-245.766-574.357-246.751-572.227Zm-26.476-22.336a3.992,3.992,0,0,1,4.715-.753,1.889,1.889,0,0,1,.769.915c.428.972.778,1.98,1.263,2.933-.9-5.082.666-8.614,4.5-9.925a6.631,6.631,0,0,1,8.029,3.619l-2.56,3.778.14.089a12.992,12.992,0,0,1,1.967-1.835,9.888,9.888,0,0,1,3.264-1.471c2.963-.531,5.288,1.252,6.123,4.475l-2.276,1.39c3.785-.989,6.98-.394,9.071,3.152a7.366,7.366,0,0,1-.374,7.97l-1.215-.865-.108.1a10.712,10.712,0,0,1,.94,1.491,16.81,16.81,0,0,1,1.348,3.611,2.962,2.962,0,0,1-3.981,3.509,14.7,14.7,0,0,1-2.78-1.36.788.788,0,0,1-.334-.616,2.981,2.981,0,0,0-1.336-2.672c-.842-.651-1.749-1.223-2.652-1.79-.988-.62-1.068-1.169-.061-1.78.965-.585,2.04-.985,3.094-1.609a15.991,15.991,0,0,0-1.962.155,7.189,7.189,0,0,0-1.538.572,7.865,7.865,0,0,1-7.465-.593c-2.369-1.341-3.349-3.711-2.834-6.609a1.271,1.271,0,0,0-.058-.823c-.229.558-.48,1.107-.683,1.674-.282.787-.488,1.6-.8,2.375a2.091,2.091,0,0,1-2.105,1.374c-.173,0-.346,0-.52-.007-3.389-.146-4.732-1.824-4.138-5.168a1.421,1.421,0,0,0,.022-.513A7.684,7.684,0,0,0-268.884-585c-.773.182-1.439.371-2.118.48a1.45,1.45,0,0,1-.823-.17A6.355,6.355,0,0,1-273.227-594.563Z" transform="translate(276.518 603.16)"/>
        <path id="Trazado_639" data-name="Trazado 639" d="M-247.166-568.907a3.67,3.67,0,0,1-1.3-.508,50.077,50.077,0,0,0-16.619-7.483l-.376-.093c-.706-.165-1.415-.294-2.167-.431-.311-.057-.627-.114-.95-.176l-.149.031a22.289,22.289,0,0,0-3.66-.236h-.022l-.02-.005c-.773-.191-1.161-.287-1.33-.577s-.057-.705.152-1.452c.248-.886.531-1.748.843-2.56.182-.475.113-.692-.324-1.008a8.176,8.176,0,0,1-3.617-6.292,7.26,7.26,0,0,1,2.223-6.181,7.424,7.424,0,0,1,6.5-1.277c.054-.126.107-.252.16-.38.154-.368.314-.75.49-1.121,1.589-3.341,4.39-5.04,7.684-4.663a9.145,9.145,0,0,1,6.392,3.68,1.264,1.264,0,0,0,1.537.554c3.209-.681,6.4,1.235,7.758,4.656a1.36,1.36,0,0,0,1.342,1.049,6.835,6.835,0,0,1,5.295,3.472,9.469,9.469,0,0,1,.01,10.256.744.744,0,0,0-.024.9,6.133,6.133,0,0,1,.84,3.855,4.753,4.753,0,0,1-1.983,3.5,4.591,4.591,0,0,1-3.857.487,15.229,15.229,0,0,1-2.233-.9c-.3-.14-.61-.283-.93-.423l-.174.461c-.189.5-.391,1.034-.581,1.572-.268.76-.4,1.132-.7,1.255A.547.547,0,0,1-247.166-568.907Zm-21.5-9.04c.373.072.736.138,1.093.2.755.138,1.469.268,2.183.435l.377.093a50.3,50.3,0,0,1,16.7,7.517c.649.322,1.049.521,1.23.449s.3-.434.512-1.042c.2-.559.4-1.095.59-1.6l.293-.781.158.068c.38.162.743.33,1.1.494a15,15,0,0,0,2.185.88,4.271,4.271,0,0,0,3.586-.444,4.433,4.433,0,0,0,1.839-3.264,5.8,5.8,0,0,0-.787-3.636,1.058,1.058,0,0,1,.026-1.263,9.156,9.156,0,0,0-.025-9.909,6.512,6.512,0,0,0-5.045-3.309,1.678,1.678,0,0,1-1.612-1.253c-1.3-3.271-4.335-5.1-7.386-4.457a1.578,1.578,0,0,1-1.865-.674,8.825,8.825,0,0,0-6.17-3.554c-3.147-.362-5.826,1.271-7.351,4.478-.173.364-.331.741-.484,1.106-.071.171-.142.34-.214.507l-.054.125-.132-.03a7.156,7.156,0,0,0-6.353,1.178,6.943,6.943,0,0,0-2.11,5.911,7.864,7.864,0,0,0,3.483,6.048h0a1.02,1.02,0,0,1,.438,1.39c-.308.8-.589,1.655-.833,2.531-.189.673-.282,1.032-.185,1.2s.477.264,1.1.419a22.842,22.842,0,0,1,3.533.217v-.008Zm20.994,8.049-.129-.087c-8.274-5.574-16.422-8.522-24.909-9.013l-.219-.013.074-.206c.092-.257.178-.5.261-.742.21-.605.409-1.177.648-1.723.137-.312.771-.359.8-.361.386-.026.772-.049,1.158-.072.609-.037,1.23-.074,1.855-.12-.292-.045-.586-.087-.878-.12-.525-.06-1.053-.1-1.613-.134-.255-.017-.517-.035-.787-.056l-.226-.017.088-.209a2.036,2.036,0,0,1,2.326-1.321q.846.122,1.693.238a71.551,71.551,0,0,1,7.172,1.244,41.873,41.873,0,0,1,11.523,4.966,10.492,10.492,0,0,1,.883.575c1.893,1.4,2.158,2.5,1.139,4.7l-.073.157-3.2-1.712.229.183c.627.5,1.275,1.018,1.943,1.479a1.577,1.577,0,0,1,.758,1,1.656,1.656,0,0,1-.423,1.241Zm-24.8-9.414c8.423.53,16.514,3.464,24.723,8.967a1.233,1.233,0,0,0,.272-.865,1.283,1.283,0,0,0-.621-.784c-.677-.467-1.329-.988-1.961-1.492-.275-.22-.551-.44-.829-.656l-.113-.087.245-.426,3.717,1.99c.872-1.957.616-2.867-1.107-4.143-.274-.2-.562-.386-.855-.556a41.588,41.588,0,0,0-11.435-4.931,71.532,71.532,0,0,0-7.14-1.237q-.848-.117-1.694-.238a1.7,1.7,0,0,0-1.879.916l.547.038c.563.038,1.095.074,1.627.135.515.058,1.034.143,1.535.225.222.037.444.073.667.107l1.27.2-1.278.129c-1.072.109-2.147.173-3.187.236-.386.023-.771.047-1.156.072a.893.893,0,0,0-.521.166c-.233.534-.43,1.1-.639,1.7C-272.343-579.676-272.406-579.5-272.471-579.312Zm31.778,7.049a4.227,4.227,0,0,1-1.179-.175,10.7,10.7,0,0,1-2.221-1.043c-.2-.112-.394-.223-.592-.331a.963.963,0,0,1-.419-.755,2.823,2.823,0,0,0-1.273-2.548c-.858-.663-1.8-1.257-2.639-1.781-.586-.368-.859-.708-.855-1.068,0-.343.263-.667.8-.991.493-.3,1-.544,1.539-.8.315-.152.637-.307.959-.476-.422.026-.843.069-1.259.127a7.1,7.1,0,0,0-1.487.555,7.975,7.975,0,0,1-7.619-.6c-2.414-1.366-3.449-3.774-2.914-6.78a1.182,1.182,0,0,0,.036-.214v0c-.159.374-.323.76-.462,1.146-.116.323-.219.651-.322.979-.146.463-.3.943-.483,1.4a2.26,2.26,0,0,1-2.258,1.477h-.1c-.141,0-.283,0-.424-.008a4.706,4.706,0,0,1-3.681-1.444,4.579,4.579,0,0,1-.643-3.717,7.9,7.9,0,0,0-.737,4.091l.005.135-.131.031c-.226.053-.442.107-.653.158-.509.127-.99.246-1.477.323a1.615,1.615,0,0,1-.927-.188,6.169,6.169,0,0,1-3.173-4.681,6.245,6.245,0,0,1,1.736-5.459h0a4.172,4.172,0,0,1,4.9-.782,2.072,2.072,0,0,1,.85,1c.157.357.306.724.455,1.092.108.266.217.537.332.806-.506-4.581,1.163-7.751,4.768-8.985a6.817,6.817,0,0,1,8.229,3.7l.043.086-2.093,3.088a7.034,7.034,0,0,1,1.365-1.208,10.023,10.023,0,0,1,3.321-1.492c3.019-.54,5.436,1.221,6.31,4.6l.031.118-1.529.933c3.772-.719,6.486.414,8.275,3.449a7.513,7.513,0,0,1-.389,8.158l-.1.116-.927-.66.021.03a5.974,5.974,0,0,1,.645,1.066c.107.25.22.5.333.752a12.345,12.345,0,0,1,1.025,2.895,3.311,3.311,0,0,1-.929,3.117A3.07,3.07,0,0,1-240.693-572.263Zm-4.586-10.335-.533.315c-.529.313-1.063.571-1.581.82s-1.033.5-1.512.788c-.423.257-.638.5-.64.713s.234.495.7.789c.842.528,1.795,1.127,2.665,1.8a3.119,3.119,0,0,1,1.4,2.813.624.624,0,0,0,.265.471c.183.1.381.21.58.323a10.464,10.464,0,0,0,2.151,1.013,3.053,3.053,0,0,0,2.95-.507,2.993,2.993,0,0,0,.824-2.817,12.1,12.1,0,0,0-1-2.817c-.114-.253-.227-.505-.335-.757a5.671,5.671,0,0,0-.612-1.006c-.108-.153-.215-.305-.315-.461l-.076-.118.31-.275,1.2.851a7.208,7.208,0,0,0,.263-7.664c-1.855-3.148-4.762-4.155-8.888-3.077l-1.075.281,3.121-1.9c-.852-3.117-3.1-4.741-5.905-4.238a9.743,9.743,0,0,0-3.207,1.449,7.05,7.05,0,0,0-1.348,1.208c-.195.206-.389.413-.592.606l-.093.089-.389-.25,2.6-3.837a6.482,6.482,0,0,0-7.787-3.452c-3.721,1.273-5.28,4.733-4.389,9.742l.193,1.087-.5-.984c-.308-.606-.565-1.239-.813-1.853-.148-.365-.3-.729-.454-1.089a1.741,1.741,0,0,0-.7-.841,3.811,3.811,0,0,0-4.517.732,5.918,5.918,0,0,0-1.638,5.174,5.844,5.844,0,0,0,3,4.439,1.281,1.281,0,0,0,.734.154c.462-.075.937-.192,1.439-.317.171-.042.346-.086.526-.128a7.718,7.718,0,0,1,1.15-4.744l.238-.354.06.423a1.592,1.592,0,0,1-.024.573,4.412,4.412,0,0,0,.545,3.645,4.409,4.409,0,0,0,3.44,1.322c.137.006.274.007.411.007h.123a1.922,1.922,0,0,0,1.932-1.273c.181-.447.33-.92.474-1.377.1-.332.209-.664.326-.992.141-.394.308-.785.468-1.163.073-.172.147-.345.218-.518l.149-.362.153.36a1.438,1.438,0,0,1,.065.93c-.505,2.845.472,5.132,2.756,6.425a7.667,7.667,0,0,0,7.317.586,7.35,7.35,0,0,1,1.566-.581,16.213,16.213,0,0,1,2-.161Z" transform="translate(276.728 603.37)" fill="#211915"/>
      </g>
    </g>
    <circle id="Elipse_33" data-name="Elipse 33" cx="13.754" cy="13.754" r="13.754" transform="translate(267.835 63.812) rotate(-45)" fill="url(#linear-gradient-2)"/>
  </g>
</svg>
