<svg xmlns="http://www.w3.org/2000/svg" xmlns:xlink="http://www.w3.org/1999/xlink" width="545" height="545" viewBox="0 0 545 545">
  <defs>
    <filter id="Rect치ngulo_226" x="-9.5" y="-1.5" width="564" height="564" filterUnits="userSpaceOnUse">
      <feOffset dy="8" input="SourceAlpha"/>
      <feGaussianBlur stdDeviation="6.5" result="blur"/>
      <feFlood flood-opacity="0.09"/>
      <feComposite operator="in" in2="blur"/>
      <feComposite in="SourceGraphic"/>
    </filter>
    <clipPath id="clip-galeria1_">
      <rect width="545" height="545"/>
    </clipPath>
  </defs>
  <g id="galeria1_" data-name="galeria1 " clip-path="url(#clip-galeria1_)">
    <rect width="545" height="545" fill="#fff"/>
    <g transform="matrix(1, 0, 0, 1, 0, 0)" filter="url(#Rect치ngulo_226)">
      <rect id="Rect치ngulo_226-2" data-name="Rect치ngulo 226" width="525" height="525" transform="translate(10 10)" fill="#fff" opacity="0.9"/>
    </g>
    <g id="Grupo_399" data-name="Grupo 399" transform="translate(478.912 792.994)" opacity="0.5">
      <g id="Grupo_363" data-name="Grupo 363" transform="translate(-312.912 -560.192)">
        <g id="Grupo_359" data-name="Grupo 359" transform="translate(45.749 9.774)">
          <g id="Grupo_357" data-name="Grupo 357" transform="translate(2.186 2.186)">
            <path id="Trazado_622" data-name="Trazado 622" d="M-95.549-437.368a8.278,8.278,0,0,1-3.046-.573,8.146,8.146,0,0,1-2.567-1.612,7.844,7.844,0,0,1-1.787-2.484,7.438,7.438,0,0,1-.536-1.661,6.153,6.153,0,0,1-4.057-1.957,5.3,5.3,0,0,1-.587-.773c-.107.117-.214.231-.321.342a11.725,11.725,0,0,1-1.9,1.619,4.669,4.669,0,0,1-2.587.872,8.073,8.073,0,0,1-3.416-.735,8.582,8.582,0,0,1-2.668-1.919q-.215-.231-.414-.477a18.241,18.241,0,0,1-1.566,1.455,6.613,6.613,0,0,1-4.223,1.676,6.566,6.566,0,0,1-4.891-1.967,7.584,7.584,0,0,1-1.84-5.437,9.166,9.166,0,0,1,.371-2.356,26.107,26.107,0,0,1-1.975,2.935,2.42,2.42,0,0,1-1.24.858,12.715,12.715,0,0,1-2.711,1.692,9.218,9.218,0,0,1-3.687.848,14.771,14.771,0,0,1-2.965,2.2,9.521,9.521,0,0,1-4.684,1.23,11.473,11.473,0,0,1-3.255-.454,7.49,7.49,0,0,1-3.039-1.738,7.348,7.348,0,0,1-.982-1.136,17.16,17.16,0,0,1-1.607,1.61,6.366,6.366,0,0,1-4.245,1.718,6.6,6.6,0,0,1-4.846-1.948,5.824,5.824,0,0,1-.67-.826q-.174.189-.345.368a10.931,10.931,0,0,1-1.864,1.573,4.649,4.649,0,0,1-2.542.833,8.051,8.051,0,0,1-3.415-.736,8.568,8.568,0,0,1-2.668-1.918c-.175-.186-.34-.38-.5-.581a15.956,15.956,0,0,1-1.507,1.475,6.4,6.4,0,0,1-4.2,1.705,6.455,6.455,0,0,1-4.982-2,5.3,5.3,0,0,1-.587-.773q-.161.175-.321.342a11.7,11.7,0,0,1-1.9,1.619,4.665,4.665,0,0,1-2.586.872,8.054,8.054,0,0,1-3.416-.736A8.565,8.565,0,0,1-201-446.251a8.285,8.285,0,0,1-.592-.705,18.14,18.14,0,0,1-1.781,1.682A6.611,6.611,0,0,1-207.6-443.6a6.6,6.6,0,0,1-4.845-1.949A7.5,7.5,0,0,1-214.328-451a7.13,7.13,0,0,1,.095-1.118,24.492,24.492,0,0,0-1.3,2.932,8.073,8.073,0,0,0-.542,2.731,2.535,2.535,0,0,1-1.492,2.266,3.517,3.517,0,0,1-1.592.369,4.456,4.456,0,0,1-2.049-.584,9.614,9.614,0,0,1-1.675-1.125c-.13-.107-.255-.219-.377-.336q-.277.262-.563.509a6.406,6.406,0,0,1-4.2,1.705,6.436,6.436,0,0,1-4.982-2,5.431,5.431,0,0,1-.587-.773q-.16.174-.321.341a11.826,11.826,0,0,1-1.9,1.619,4.674,4.674,0,0,1-2.588.872,8.073,8.073,0,0,1-3.416-.735,8.575,8.575,0,0,1-2.667-1.919,8.762,8.762,0,0,1-1.758-2.8,9.094,9.094,0,0,1-.629-3.356,16.173,16.173,0,0,1,1.049-5.325,25.816,25.816,0,0,1,2.728-5.519,19.535,19.535,0,0,1,4.078-4.576,8.83,8.83,0,0,1,5.609-2.141,6.349,6.349,0,0,1,2.772.609,10.512,10.512,0,0,1,1.634.976,2.487,2.487,0,0,1,1.879-.912,7.249,7.249,0,0,1,2.088.346,9.66,9.66,0,0,1,2.034.873,5.83,5.83,0,0,1,1.734,1.46,2.932,2.932,0,0,1,.632,2.1c.221-.61.415-1.169.579-1.67a8.61,8.61,0,0,0,.286-1.011,3.219,3.219,0,0,1,.3-1.226,2.686,2.686,0,0,1,2.556-1.543,6.429,6.429,0,0,1,1.873.32,7.8,7.8,0,0,1,1.878.862,7.278,7.278,0,0,1,1.529,1.291,4.562,4.562,0,0,1,.377.485,14.694,14.694,0,0,1,2.323-1.621,6.093,6.093,0,0,1,2.905-.888,5.979,5.979,0,0,1,4.407,1.65,6.289,6.289,0,0,1,1.651,4.632,5.734,5.734,0,0,1-.033.6c.127-.208.258-.415.391-.619a19.6,19.6,0,0,1,4.077-4.575,8.83,8.83,0,0,1,5.61-2.142,6.331,6.331,0,0,1,2.772.61,10.391,10.391,0,0,1,1.633.975,2.49,2.49,0,0,1,1.879-.912,7.244,7.244,0,0,1,2.088.346,9.6,9.6,0,0,1,2.034.873,5.817,5.817,0,0,1,1.737,1.462,2.787,2.787,0,0,1-.047,3.623,10.776,10.776,0,0,0-1.177,2,28.117,28.117,0,0,0-1.3,3.228c-.293.865-.55,1.753-.77,2.652q.316-.495.622-1.024c.251-.434.482-.866.686-1.291.031-.1.061-.2.1-.3a25.79,25.79,0,0,1,2.728-5.516,19.579,19.579,0,0,1,4.076-4.575,8.829,8.829,0,0,1,5.611-2.142,6.557,6.557,0,0,1,2.479.47,8.4,8.4,0,0,1,1.261.64q.3-.778.6-1.527c.589-1.482,1.167-2.86,1.717-4.094.009-.02.018-.039.026-.058a7.347,7.347,0,0,1-1.593.174,8.461,8.461,0,0,1-6.3-2.519,7.73,7.73,0,0,1-1.611-2.473,25.782,25.782,0,0,1-4.017,2.862,16.271,16.271,0,0,1-8.3,2.13,13.135,13.135,0,0,1-5.523-1.13,11.918,11.918,0,0,1-4.151-3.12,13.428,13.428,0,0,1-1.848-2.838c-.015.018-.032.036-.047.055a22.844,22.844,0,0,1-3.757,3.458,20.492,20.492,0,0,1-4.618,2.545,15.24,15.24,0,0,1-5.613,1.03,13.139,13.139,0,0,1-5.524-1.13,11.907,11.907,0,0,1-4.151-3.12,13.29,13.29,0,0,1-1.711-2.566l-.015.016a24.377,24.377,0,0,1-5.86,4.67,16.272,16.272,0,0,1-8.3,2.13,13.136,13.136,0,0,1-5.523-1.13,11.917,11.917,0,0,1-4.151-3.12,13.7,13.7,0,0,1-2.5-4.42,16,16,0,0,1-.848-5.245,20.632,20.632,0,0,1,1.57-7.6,26.61,26.61,0,0,1,4.143-7.049,24.921,24.921,0,0,1,5.9-5.271,13.539,13.539,0,0,1,7.32-2.242,10.063,10.063,0,0,1,3.613.673,9.347,9.347,0,0,1,3.161,2.009,9.468,9.468,0,0,1,2.161,3.211,10.808,10.808,0,0,1,.773,4.164v.081a11,11,0,0,1-.17,1.561,26.33,26.33,0,0,1,2.8-4.185,24.922,24.922,0,0,1,5.9-5.272,13.535,13.535,0,0,1,7.319-2.241,10.212,10.212,0,0,1,4.265.845,10.32,10.32,0,0,1,3.023,2.06,8.275,8.275,0,0,1,1.914,2.913,8.5,8.5,0,0,1,.587,3,6.51,6.51,0,0,1-2,5.166,7.3,7.3,0,0,1-3.749,1.81,7.856,7.856,0,0,1-1.133.086,5.585,5.585,0,0,1-2.433-.52,2.946,2.946,0,0,1-1.766-2.073,2.773,2.773,0,0,1,.7-2.43,6.527,6.527,0,0,0,1.159-1.666,3.679,3.679,0,0,0,.36-1.194,3.943,3.943,0,0,0-1.614,1.007,15.913,15.913,0,0,0-2.837,3.679,23.764,23.764,0,0,0-2.147,4.981,14.767,14.767,0,0,0-.716,4.731,5.169,5.169,0,0,0,.877,2.965c.137.188.557.764,2.2.764a6.929,6.929,0,0,0,3.775-1.084,16.735,16.735,0,0,0,3.507-2.9,19.367,19.367,0,0,0,2.51-3.376c.322-.561.592-1.052.82-1.483a24.093,24.093,0,0,1,.9-2.727,26.592,26.592,0,0,1,4.142-7.048,24.918,24.918,0,0,1,5.9-5.272,13.535,13.535,0,0,1,7.319-2.241,10.06,10.06,0,0,1,3.613.673,9.4,9.4,0,0,1,1.658.828,9.694,9.694,0,0,1-.431-1.628,2.936,2.936,0,0,1,.512-2.453,2.311,2.311,0,0,1,1.766-.818h.287l.277.074a20.054,20.054,0,0,0,2,.439c.651.1,1.295.195,1.939.272.613.074,1.273.123,1.964.148.314.012.643.02.985.026q.445-1.041.973-2.268.9-2.073,1.75-3.988c.576-1.289,1.12-2.448,1.617-3.442a8.773,8.773,0,0,1,1.462-2.348,3.81,3.81,0,0,1,2.8-1.057,6.521,6.521,0,0,1,.975.078,12.1,12.1,0,0,1,3.16.937,9.59,9.59,0,0,1,2.668,1.741,3.369,3.369,0,0,1,1.187,2.4,2.732,2.732,0,0,1-.739,1.9c-.053.08-.21.33-.536.96q-.6,1.153-1.312,2.622-.644,1.325-1.256,2.648a4.7,4.7,0,0,1,1.258,1.06,9.223,9.223,0,0,1,1.281,1.916,7.828,7.828,0,0,1,.721,2.032,3.363,3.363,0,0,1,.053.859q.43-.382.872-.739a11.794,11.794,0,0,1,7.481-2.872,8.169,8.169,0,0,1,3.576.783,13.865,13.865,0,0,1,2.5,1.542q.231.181.445.364a3.141,3.141,0,0,1,2.536-1.718,9.517,9.517,0,0,1,2.731.457,12.768,12.768,0,0,1,2.729,1.171,7.435,7.435,0,0,1,2.218,1.855,3.086,3.086,0,0,1-.036,4.011,16.486,16.486,0,0,0-1.831,3.083,41.748,41.748,0,0,0-1.92,4.765,47.293,47.293,0,0,0-1.469,5.373,26.881,26.881,0,0,0-.437,2.721q.565-.648,1.151-1.439a38.841,38.841,0,0,0,2.293-3.52c.169-.291.329-.579.481-.861l.548-1.384q.823-1.977,1.6-4.076t1.327-3.655a24.011,24.011,0,0,1,1.5-4.511,11.823,11.823,0,0,1,1.717-2.776,5.614,5.614,0,0,1,1.829-1.468,3.629,3.629,0,0,1,1.5-.395,7.535,7.535,0,0,1,2.56.493,11.837,11.837,0,0,1,2.333,1.142,9.225,9.225,0,0,1,1.962,1.651,4.283,4.283,0,0,1,1.156,2.864,2.89,2.89,0,0,1-1.708,2.934,11.975,11.975,0,0,0-1.18,2.939,12.727,12.727,0,0,0-.348,2.862,11.373,11.373,0,0,0,.37,2.95c.281,1.053.607,2.12.968,3.177.391,1.149.746,2.311,1.054,3.456a15.789,15.789,0,0,1,.52,4.086,15.8,15.8,0,0,1-1.473,6.939,17.279,17.279,0,0,1-3.571,4.994l-.117.111a8,8,0,0,1,2.631-.447,6.332,6.332,0,0,1,2.772.61,10.45,10.45,0,0,1,1.633.975,2.485,2.485,0,0,1,1.879-.912,7.253,7.253,0,0,1,2.089.346,9.615,9.615,0,0,1,2.032.872,5.855,5.855,0,0,1,1.738,1.462,3.035,3.035,0,0,1,.634,1.577,11.918,11.918,0,0,1,.453-1.1,8.814,8.814,0,0,1,1.3-2.085,4.524,4.524,0,0,1,1.491-1.183,3.175,3.175,0,0,1,1.32-.334,5.878,5.878,0,0,1,2,.381,8.943,8.943,0,0,1,1.752.857,7.037,7.037,0,0,1,1.5,1.268,3.625,3.625,0,0,1,.969,2.429,2.712,2.712,0,0,1-1.37,2.549,7.356,7.356,0,0,0-.65,1.677,8.068,8.068,0,0,0-.224,1.835,7.222,7.222,0,0,0,.233,1.871c.192.717.413,1.443.659,2.161.281.83.531,1.65.744,2.443a11.643,11.643,0,0,1,.383,3.007,11.616,11.616,0,0,1-1.089,5.105,12.682,12.682,0,0,1-2.616,3.657,11.5,11.5,0,0,1-3.5,2.316A9.742,9.742,0,0,1-95.549-437.368Zm-.561-6.842a.713.713,0,0,0,.254-.111,1.793,1.793,0,0,0,.531-.6,4.207,4.207,0,0,0,.273-.526,2.31,2.31,0,0,1-.829.262c-.054.012-.09.038-.156.135a1.193,1.193,0,0,0-.244.694.892.892,0,0,0,.01.14C-96.227-444.212-96.174-444.21-96.11-444.21Zm1.222-5.277a3.606,3.606,0,0,1,.514.549c0-.138.005-.277.005-.42q0-.454-.035-.917Q-94.636-449.882-94.888-449.487Zm-53.627-2.578c.238,0,.307-.06.348-.1a4.012,4.012,0,0,0,.523-.578,8.944,8.944,0,0,1-.082-1.235,4.931,4.931,0,0,1,1.285-3.422,5.215,5.215,0,0,1,1.511-1.146c.157-.532.289-1.049.393-1.545a9.879,9.879,0,0,0,.235-1.967c0-.133-.005-.249-.014-.349a4.015,4.015,0,0,0-.353.3,9.867,9.867,0,0,0-1.758,2.276,22.062,22.062,0,0,0-1.558,3.27,11.012,11.012,0,0,0-.733,2.991,3.924,3.924,0,0,0,.1,1.5C-148.59-452.066-148.555-452.065-148.516-452.065Zm52.662-10.921a10.781,10.781,0,0,0-1.176,1.994,28.229,28.229,0,0,0-1.3,3.229c-.293.867-.551,1.756-.77,2.652.211-.331.419-.674.623-1.026.109-.187.21-.368.307-.547l.366-.924c.38-.911.746-1.844,1.105-2.812q.526-1.421.905-2.494c.017-.071.035-.141.052-.209C-95.779-463.077-95.815-463.032-95.854-462.986Zm-125.247-.275a3.1,3.1,0,0,1-.213.277,10.816,10.816,0,0,0-1.175,1.992,28.4,28.4,0,0,0-1.3,3.228c-.292.861-.55,1.75-.77,2.651q.316-.5.623-1.025c.229-.394.439-.787.627-1.168.305-.858.621-1.729.955-2.625Q-221.689-461.706-221.1-463.261Zm113.847,2.23a14.079,14.079,0,0,0-1.983,2.671,18.017,18.017,0,0,0-1.468,3.19q.287-.406.578-.838c.589-.874,1.155-1.76,1.682-2.632a24.956,24.956,0,0,0,1.263-2.344c.035-.074.068-.146.1-.216C-107.136-461.149-107.194-461.094-107.254-461.031Zm-59.307,0a14.01,14.01,0,0,0-1.982,2.669,18.1,18.1,0,0,0-1.469,3.191c.192-.27.385-.551.579-.839.589-.874,1.154-1.759,1.682-2.631a25.276,25.276,0,0,0,1.264-2.344c.034-.075.068-.147.1-.216C-166.443-461.149-166.5-461.093-166.562-461.031Zm-22.668,0a14.026,14.026,0,0,0-1.981,2.67,18.016,18.016,0,0,0-1.469,3.19c.192-.27.385-.551.579-.839.588-.873,1.154-1.758,1.681-2.631a25.114,25.114,0,0,0,1.264-2.344c.034-.075.068-.147.1-.216C-189.111-461.149-189.168-461.093-189.23-461.031Zm-43.484,0a14.054,14.054,0,0,0-1.98,2.668,18.037,18.037,0,0,0-1.468,3.19q.286-.4.578-.837c.589-.874,1.155-1.758,1.681-2.631a24.88,24.88,0,0,0,1.264-2.344c.034-.075.068-.147.1-.216C-232.594-461.15-232.652-461.094-232.714-461.031Zm81.992-13.385a8.038,8.038,0,0,0-.949,1.418,37.693,37.693,0,0,0-1.853,3.763c-.653,1.507-1.329,3.183-2.008,4.98s-1.292,3.565-1.84,5.3c-.411,1.305-.762,2.558-1.046,3.738q.264-.421.522-.865c.245-.422.463-.833.665-1.249a16.409,16.409,0,0,1,.665-1.969,22.329,22.329,0,0,1,3.02-5.225,17.951,17.951,0,0,1,3.968-3.8,8.09,8.09,0,0,1,4.542-1.643,10.294,10.294,0,0,1,4.378.853,7.973,7.973,0,0,1,3,2.363,8.545,8.545,0,0,1,.847,1.359,8.117,8.117,0,0,1-.421-2.5,7.661,7.661,0,0,1,.757-3.149,12.72,12.72,0,0,1,1.694-2.743,12.077,12.077,0,0,1,1.1-1.184,7.5,7.5,0,0,1-3.116-2.048,7.35,7.35,0,0,1-1.353-2.168q-.676.811-1.365,1.525a16.023,16.023,0,0,1-2.585,2.2,5.8,5.8,0,0,1-3.194,1.1,10.661,10.661,0,0,1-4.518-.971l-.086-.04a2.627,2.627,0,0,1-.822.956Zm30.631,15.946c-.334.733-.659,1.507-.966,2.308q-.157.407-.3.819.245-.374.481-.766l.033-.058c.15-.559.3-1.062.479-1.561Q-120.233-458.1-120.09-458.47Zm-16.205-5.639q.1.3.17.608a13.825,13.825,0,0,1,.4,3.3c0,.15,0,.3-.006.447q.251-.539.511-1.118.308-.683.595-1.364A5.309,5.309,0,0,1-136.3-464.109Zm17.132-1.326a5.9,5.9,0,0,1,.334.532,4.152,4.152,0,0,1,.555,2.017,3.938,3.938,0,0,1-.08.808q.342-.593.718-1.169a20.336,20.336,0,0,1,2.728-3.366c-.1.045-.2.09-.305.132A13.9,13.9,0,0,1-119.164-465.436Zm-1.675-11.2a1.292,1.292,0,0,0-.89.614,2.721,2.721,0,0,0-.515,1.538,1.592,1.592,0,0,0,.318,1.033,1.909,1.909,0,0,0,.893.143,1.753,1.753,0,0,0,.861-.3,3.543,3.543,0,0,0,1.089-1.181,9.921,9.921,0,0,0,1.072-2.7,16.988,16.988,0,0,0,.455-4.211,20,20,0,0,0-.4-3.889c-.068.1-.136.195-.2.283a6.617,6.617,0,0,1-.662.769c-.524.948-1.11,1.911-1.75,2.873a3.461,3.461,0,0,1,1.8,2.693A2.318,2.318,0,0,1-120.839-476.64ZM-159.6-483.5m-23.947-4.121c.006.122.013.243.023.362a4.165,4.165,0,0,0,.463,1.678,2.4,2.4,0,0,0,.9.926,3.462,3.462,0,0,0,1.754.342,7.554,7.554,0,0,0,4.073-1.092,15.461,15.461,0,0,0,3.476-2.868,15.89,15.89,0,0,0,2.314-3.3c.267-.523.5-.99.7-1.4.077-.278.248-.876.254-.892a14.261,14.261,0,0,1-3.135,3.294,15.213,15.213,0,0,1-5.8,2.665,14.487,14.487,0,0,1-3.332.376Q-182.677-487.534-183.542-487.619Zm-51.117,0c.005.122.013.243.023.363a4.174,4.174,0,0,0,.462,1.677,2.415,2.415,0,0,0,.9.926,3.465,3.465,0,0,0,1.755.342,7.566,7.566,0,0,0,4.074-1.092,15.467,15.467,0,0,0,3.474-2.868,15.867,15.867,0,0,0,2.314-3.3q.408-.8.712-1.425c.074-.29.156-.581.243-.871a14.26,14.26,0,0,1-3.136,3.3,15.19,15.19,0,0,1-5.8,2.665,14.476,14.476,0,0,1-3.332.376Q-233.793-487.534-234.659-487.619Zm81.086-16.984c-1.7,3.962-3.128,7.728-4.241,11.212a37.909,37.909,0,0,0-1.677,7.467q.589-.672,1.212-1.49a33.646,33.646,0,0,0,2.316-3.492c.069-.12.133-.236.2-.352.2-.73.428-1.464.681-2.188a36.166,36.166,0,0,1,3.831-7.749,29.18,29.18,0,0,1,2.457-3.262c-.073.006-.147.009-.221.009a5.274,5.274,0,0,1-.763-.064h0s-.155-.018-.572-.018-1.019-.013-1.782-.042C-152.535-504.586-153.017-504.6-153.573-504.6Zm17.336,4.28c-.016,0-.515.061-1.552,1.121a21.22,21.22,0,0,0-3,4.033,27.369,27.369,0,0,0-2.432,5.468,19.5,19.5,0,0,0-.838,3.712q.538-.592,1.133-1.341c.8-1.008,1.637-2.158,2.485-3.418.862-1.28,1.686-2.569,2.45-3.833a37.2,37.2,0,0,0,1.87-3.471,14.381,14.381,0,0,0,.815-2.082A1.87,1.87,0,0,0-136.238-500.323Zm-41.678-.994a11.784,11.784,0,0,0-1.174,1.364,21.888,21.888,0,0,0-1.566,2.449c.056-.053.111-.106.166-.162a12.936,12.936,0,0,0,1.833-2.318A14.556,14.556,0,0,0-177.916-501.317Zm-51.117,0a11.693,11.693,0,0,0-1.175,1.366,21.928,21.928,0,0,0-1.565,2.447c.056-.052.111-.106.165-.16a12.972,12.972,0,0,0,1.833-2.319A14.523,14.523,0,0,0-229.033-501.317Zm60.884-3.229a10.671,10.671,0,0,1,.772,3.918c.458-1.285.951-2.617,1.477-3.983h-1.317a3.728,3.728,0,0,1-1.02-.141Q-168.192-504.65-168.149-504.546Z" transform="translate(247.13 525.981)" fill="#fff"/>
          </g>
          <g id="Grupo_358" data-name="Grupo 358">
            <path id="Trazado_623" data-name="Trazado 623" d="M-154.726-524.609a4.393,4.393,0,0,1,.648.053,9.873,9.873,0,0,1,2.588.769,7.37,7.37,0,0,1,2.062,1.334q.809.769.324,1.253a7.47,7.47,0,0,0-.849,1.416q-.608,1.173-1.335,2.669t-1.416,2.992q-.689,1.5-1.172,2.467h2.021q.322,0,.89.647a6.981,6.981,0,0,1,.971,1.456,5.736,5.736,0,0,1,.526,1.456c.08.433-.041.648-.364.648a3.236,3.236,0,0,1-.445-.041,7.1,7.1,0,0,0-.889-.041q-.608,0-1.7-.04t-2.953-.041a130.085,130.085,0,0,0-4.894,12.739,34.654,34.654,0,0,0-1.9,10.314q0,1.618,1.051,1.617.565,0,1.739-1.132a25.226,25.226,0,0,0,2.467-2.832,35.632,35.632,0,0,0,2.467-3.721c.124-.213.235-.419.35-.627.192-.73.422-1.489.7-2.284a33.83,33.83,0,0,1,3.6-7.28,24.974,24.974,0,0,1,5.217-5.865,9.632,9.632,0,0,1,6.107-2.386,6,6,0,0,1,2.629.566,11.613,11.613,0,0,1,2.1,1.295,8.64,8.64,0,0,1,1.5,1.456q.565.728.728.971a23.057,23.057,0,0,1,1.293-2.427q.566-.89.81-.89a7.491,7.491,0,0,1,2.1.364,10.6,10.6,0,0,1,2.265.971,5.29,5.29,0,0,1,1.577,1.293.907.907,0,0,1,.041,1.254,18.416,18.416,0,0,0-2.144,3.559,43.872,43.872,0,0,0-2.021,5.016,49.3,49.3,0,0,0-1.538,5.62,26.16,26.16,0,0,0-.607,5.379,2.152,2.152,0,0,0,.283,1.173.812.812,0,0,0,.687.445q.566,0,1.78-1.132a20.7,20.7,0,0,0,2.467-2.83,40.8,40.8,0,0,0,2.427-3.721q.306-.529.576-1.036l.6-1.5q.808-1.939,1.618-4.117t1.375-3.793a22.438,22.438,0,0,1,1.375-4.2,9.852,9.852,0,0,1,1.375-2.26,3.716,3.716,0,0,1,1.092-.927,1.88,1.88,0,0,1,.606-.2,5.452,5.452,0,0,1,1.82.364,9.593,9.593,0,0,1,1.9.931,7,7,0,0,1,1.5,1.253,2.132,2.132,0,0,1,.607,1.417c0,.593-.149.9-.444.93a1.238,1.238,0,0,0-.85.687,14.569,14.569,0,0,0-1.537,3.762,14.771,14.771,0,0,0-.4,3.357,13.493,13.493,0,0,0,.445,3.519q.443,1.659,1.011,3.316t1.011,3.316a13.558,13.558,0,0,1,.445,3.518,13.579,13.579,0,0,1-1.254,5.986,15.047,15.047,0,0,1-3.114,4.367,13.348,13.348,0,0,1-4.085,2.709,10.854,10.854,0,0,1-4.165.93,8.732,8.732,0,0,1-3.235-.606,8.562,8.562,0,0,1-2.71-1.7c-.159-.149-.307-.307-.453-.466-.052.225-.11.458-.178.707a43.166,43.166,0,0,1-1.4,4.1,1.694,1.694,0,0,0,.786.112,12.4,12.4,0,0,0,1.908-.169,12.336,12.336,0,0,1,1.908-.168,2.492,2.492,0,0,1,1.121.28,4.305,4.305,0,0,1,1.01.7,3.823,3.823,0,0,1,.729.93,1.985,1.985,0,0,1,.28.956,1.122,1.122,0,0,1-.168.676q-.5.844-1.178,2.252t-1.291,3.012a29.462,29.462,0,0,0-1.039,3.238,11.9,11.9,0,0,0-.42,2.928,1.5,1.5,0,0,0,.2.817.561.561,0,0,0,.477.309q.39,0,1.262-.785a17.453,17.453,0,0,0,1.823-1.964,22.386,22.386,0,0,0,1.8-2.581c.071-.117.133-.23.2-.346.137-.536.3-1.088.5-1.674a23.527,23.527,0,0,1,2.5-5.05A17.341,17.341,0,0,1-113-466.936a6.678,6.678,0,0,1,4.237-1.656,4.152,4.152,0,0,1,1.823.393,8.051,8.051,0,0,1,1.459.9,6.032,6.032,0,0,1,1.038,1.01q.392.505.5.673a16.245,16.245,0,0,1,.9-1.683q.391-.616.56-.617a5.159,5.159,0,0,1,1.459.253,7.351,7.351,0,0,1,1.571.673,3.665,3.665,0,0,1,1.095.9.628.628,0,0,1,.028.869,12.844,12.844,0,0,0-1.487,2.469,30.444,30.444,0,0,0-1.4,3.479,34.206,34.206,0,0,0-1.066,3.9,18.1,18.1,0,0,0-.421,3.731,1.486,1.486,0,0,0,.2.813.562.562,0,0,0,.477.309q.392,0,1.235-.786a14.283,14.283,0,0,0,1.71-1.964,27.741,27.741,0,0,0,1.684-2.581c.142-.245.275-.484.4-.719.139-.35.278-.7.413-1.043q.561-1.345,1.122-2.856t.954-2.631a15.609,15.609,0,0,1,.953-2.912,6.873,6.873,0,0,1,.955-1.567,2.586,2.586,0,0,1,.758-.644,1.315,1.315,0,0,1,.42-.14,3.781,3.781,0,0,1,1.263.253,6.681,6.681,0,0,1,1.318.645,4.834,4.834,0,0,1,1.038.87,1.473,1.473,0,0,1,.421.982c0,.412-.1.627-.309.646s-.4.178-.589.477a10.1,10.1,0,0,0-1.066,2.609,10.23,10.23,0,0,0-.281,2.329,9.348,9.348,0,0,0,.309,2.44q.307,1.151.7,2.3t.7,2.3a9.43,9.43,0,0,1,.307,2.44,9.413,9.413,0,0,1-.869,4.153,10.443,10.443,0,0,1-2.16,3.029,9.268,9.268,0,0,1-2.833,1.88,7.547,7.547,0,0,1-2.89.646,6.074,6.074,0,0,1-2.244-.421,5.915,5.915,0,0,1-1.879-1.179,5.639,5.639,0,0,1-1.29-1.795,5.262,5.262,0,0,1-.477-2.216,3.715,3.715,0,0,1,.127-.922,3.512,3.512,0,0,1-1.248.249,4.325,4.325,0,0,1-3.367-1.291q-1.179-1.29-1.179-4.376a20.955,20.955,0,0,1-1.374,2.076,19.285,19.285,0,0,1-1.543,1.824,9.477,9.477,0,0,1-1.543,1.318,2.547,2.547,0,0,1-1.374.5,5.859,5.859,0,0,1-2.5-.533,6.362,6.362,0,0,1-1.992-1.43,6.576,6.576,0,0,1-1.318-2.1,6.65,6.65,0,0,1-.274-.889c-.241.349-.491.7-.763,1.057a16.345,16.345,0,0,1-2.609,2.722,4.487,4.487,0,0,1-2.834,1.178,4.362,4.362,0,0,1-3.31-1.29,5.491,5.491,0,0,1-1.234-3.927,9.536,9.536,0,0,1,.618-2.834q.616-1.823,1.374-3.675t1.487-3.367q.729-1.515.955-1.908c0,.015,0,.023,0,.023s.012-.017.023-.05c.017-.056-.009-.085-.085-.085a8.82,8.82,0,0,0-.982.224,7.252,7.252,0,0,1-1.823.225,4.055,4.055,0,0,1-1.178-.169q-1.8,4.041-3.282,6.733a30.3,30.3,0,0,1-2.609,4.1.291.291,0,0,1-.229.138.313.313,0,0,1-.164-.054s-.007-.008-.012-.01c-.123.116-.248.232-.382.347a10.36,10.36,0,0,1-2.384,1.515,7.1,7.1,0,0,1-3.058.646,1.555,1.555,0,0,1-.309-.029,1.3,1.3,0,0,0-.252-.028,12.892,12.892,0,0,1-3.17,2.525,7.325,7.325,0,0,1-3.619.954,9.275,9.275,0,0,1-2.637-.364,5.3,5.3,0,0,1-2.161-1.234,5.968,5.968,0,0,1-1.459-2.273,8.113,8.113,0,0,1-.435-1.893c-.35.611-.742,1.232-1.191,1.865a15.484,15.484,0,0,1-2.441,2.722,4.228,4.228,0,0,1-2.8,1.178,4.386,4.386,0,0,1-3.283-1.29,5.414,5.414,0,0,1-1.263-3.927v-.337q-.618,1.011-1.374,2.02a18.984,18.984,0,0,1-1.515,1.8,8.742,8.742,0,0,1-1.486,1.263,2.52,2.52,0,0,1-1.347.476,5.856,5.856,0,0,1-2.5-.533,6.362,6.362,0,0,1-1.992-1.43,6.573,6.573,0,0,1-1.318-2.1,6.708,6.708,0,0,1-.362-1.272c-.278.454-.576.914-.9,1.384a14.176,14.176,0,0,1-2.441,2.721,4.269,4.269,0,0,1-2.776,1.179,4.326,4.326,0,0,1-3.367-1.291q-1.179-1.29-1.179-4.376a20.935,20.935,0,0,1-1.374,2.076,19.194,19.194,0,0,1-1.544,1.824,9.441,9.441,0,0,1-1.543,1.318,2.547,2.547,0,0,1-1.374.5,5.856,5.856,0,0,1-2.5-.533,6.374,6.374,0,0,1-1.993-1.43,6.572,6.572,0,0,1-1.317-2.1,6.7,6.7,0,0,1-.369-1.317q-.488.733-1.062,1.485a16.4,16.4,0,0,1-2.609,2.722,4.486,4.486,0,0,1-2.834,1.178,4.384,4.384,0,0,1-3.282-1.29,5.411,5.411,0,0,1-1.263-3.927,8.912,8.912,0,0,1,.616-2.806q.618-1.739,1.375-3.478t1.4-3.2a6.354,6.354,0,0,0,.645-1.963c0-.3-.076-.45-.224-.45s-.5.253-1.066.758a21.668,21.668,0,0,0-1.936,2.048q-1.093,1.292-2.328,2.946a29.369,29.369,0,0,0-2.244,3.507,26.948,26.948,0,0,0-1.683,3.7,10.2,10.2,0,0,0-.673,3.478c0,.112-.094.216-.281.309a1.351,1.351,0,0,1-.617.14,2.427,2.427,0,0,1-1.038-.337,7.374,7.374,0,0,1-1.291-.869,4.881,4.881,0,0,1-1.093-1.291,3.184,3.184,0,0,1-.387-1.014,14.1,14.1,0,0,1-2.279,2.5,4.269,4.269,0,0,1-2.777,1.179,4.325,4.325,0,0,1-3.367-1.291q-1.178-1.29-1.179-4.376a21.087,21.087,0,0,1-1.374,2.076,19.505,19.505,0,0,1-1.543,1.824,9.535,9.535,0,0,1-1.543,1.318,2.547,2.547,0,0,1-1.374.5,5.862,5.862,0,0,1-2.5-.533,6.371,6.371,0,0,1-1.992-1.43,6.561,6.561,0,0,1-1.318-2.1,6.872,6.872,0,0,1-.477-2.553,14.2,14.2,0,0,1,.925-4.6,23.492,23.492,0,0,1,2.5-5.05,17.291,17.291,0,0,1,3.619-4.068,6.674,6.674,0,0,1,4.235-1.656,4.157,4.157,0,0,1,1.824.393,8.076,8.076,0,0,1,1.459.9,6.038,6.038,0,0,1,1.038,1.01c.261.337.43.561.5.673a15.835,15.835,0,0,1,.9-1.683c.261-.411.449-.617.561-.617a5.166,5.166,0,0,1,1.459.253,7.347,7.347,0,0,1,1.57.673,3.664,3.664,0,0,1,1.094.9.627.627,0,0,1,.028.869,12.808,12.808,0,0,0-1.487,2.469,30.443,30.443,0,0,0-1.4,3.479,33.888,33.888,0,0,0-1.066,3.9,18.049,18.049,0,0,0-.421,3.731,1.486,1.486,0,0,0,.2.813.562.562,0,0,0,.477.309q.393,0,1.235-.786a14.28,14.28,0,0,0,1.711-1.964,28.02,28.02,0,0,0,1.683-2.581c.286-.493.536-.965.754-1.417.315-.884.639-1.782.985-2.707q.7-1.879,1.318-3.507t1.01-2.834a6.77,6.77,0,0,0,.393-1.6,1.076,1.076,0,0,1,.111-.421c.076-.169.262-.253.562-.253a4.367,4.367,0,0,1,1.234.224,5.579,5.579,0,0,1,1.347.618,5.028,5.028,0,0,1,1.066.9,1.533,1.533,0,0,1,.449,1.011,3.548,3.548,0,0,1-.253,1.15q-.251.7-.589,1.515t-.7,1.627a15.714,15.714,0,0,0-.59,1.487,25.4,25.4,0,0,1,2.244-3.17,23.4,23.4,0,0,1,2.469-2.581,13.29,13.29,0,0,1,2.357-1.712,4.1,4.1,0,0,1,1.852-.617,3.871,3.871,0,0,1,2.862,1.01,4.2,4.2,0,0,1,1.01,3.087,6.368,6.368,0,0,1-.757,2.637q-.758,1.571-1.628,3.338t-1.627,3.479a7.615,7.615,0,0,0-.757,3,1.5,1.5,0,0,0,.2.814.56.56,0,0,0,.477.308q.392,0,1.262-.785a19.33,19.33,0,0,0,1.852-1.964,20.4,20.4,0,0,0,1.824-2.581,18.34,18.34,0,0,0,.987-1.864c.018-.053.031-.1.05-.156a23.528,23.528,0,0,1,2.5-5.05,17.325,17.325,0,0,1,3.619-4.068,6.676,6.676,0,0,1,4.236-1.656,4.152,4.152,0,0,1,1.823.393,8.027,8.027,0,0,1,1.459.9,6.036,6.036,0,0,1,1.038,1.01c.261.337.43.561.5.673a16.115,16.115,0,0,1,.9-1.683q.392-.616.561-.617a5.172,5.172,0,0,1,1.459.253,7.328,7.328,0,0,1,1.57.673,3.653,3.653,0,0,1,1.095.9.627.627,0,0,1,.028.869,12.807,12.807,0,0,0-1.487,2.469,30.444,30.444,0,0,0-1.4,3.479,34.2,34.2,0,0,0-1.065,3.9,18.051,18.051,0,0,0-.421,3.731,1.479,1.479,0,0,0,.2.813.56.56,0,0,0,.477.309q.392,0,1.234-.786a14.28,14.28,0,0,0,1.711-1.964,27.726,27.726,0,0,0,1.683-2.581c.323-.557.6-1.084.834-1.588.042-.127.074-.246.119-.376a23.559,23.559,0,0,1,2.5-5.05,17.339,17.339,0,0,1,3.619-4.068,6.676,6.676,0,0,1,4.236-1.656,4.355,4.355,0,0,1,1.656.309,5.86,5.86,0,0,1,1.347.757,6.977,6.977,0,0,1,1.01.926q.421.476.645.758.843-2.358,1.712-4.546t1.683-4.011q.813-1.822,1.459-3.058a7.414,7.414,0,0,1,1.039-1.627,1.1,1.1,0,0,1,.811-.275,2.861,2.861,0,0,1,.507.05,7.447,7.447,0,0,1,1.824.589,5.421,5.421,0,0,1,1.43.926q.532.5.14.785a7.325,7.325,0,0,0-1.57,2.1,39.7,39.7,0,0,0-1.965,3.984q-1.01,2.329-2.048,5.078t-1.879,5.413q-.842,2.667-1.347,5.022a19.05,19.05,0,0,0-.5,3.815,1.489,1.489,0,0,0,.2.814.562.562,0,0,0,.477.308q.392,0,1.234-.785a14.3,14.3,0,0,0,1.712-1.964,28.113,28.113,0,0,0,1.683-2.581c.322-.556.6-1.082.833-1.586a14.873,14.873,0,0,1,.625-1.893,20.063,20.063,0,0,1,2.722-4.712,15.68,15.68,0,0,1,3.48-3.339,6.081,6.081,0,0,1,3.31-1.263,8.121,8.121,0,0,1,3.45.646,5.793,5.793,0,0,1,2.189,1.712,6.559,6.559,0,0,1,1.15,2.44,11.615,11.615,0,0,1,.337,2.778,15.087,15.087,0,0,1-.5,3.872,19.4,19.4,0,0,1-1.4,3.7,4.073,4.073,0,0,0,1.262-.421,9.22,9.22,0,0,0,1.571-.982,9.515,9.515,0,0,0,1.543-1.487c.067-.08.127-.165.189-.249.211-.414.411-.812.6-1.181q.674-1.348,1.431-3.031t1.374-3.31a3.972,3.972,0,0,1-2.609-2.048,6.522,6.522,0,0,1-.589-2.554,5.5,5.5,0,0,1,.561-2.244,10.519,10.519,0,0,1,1.4-2.272,9.329,9.329,0,0,1,1.88-1.768,3.5,3.5,0,0,1,1.992-.729,2.193,2.193,0,0,1,.541.09,8.032,8.032,0,0,1-.044-.843,5.358,5.358,0,0,1,.18-1.316,5.053,5.053,0,0,1-1.8.346A6.234,6.234,0,0,1-136-479.3q-1.7-1.86-1.7-6.309a30.194,30.194,0,0,1-1.982,2.993,27.732,27.732,0,0,1-2.224,2.629,13.755,13.755,0,0,1-2.225,1.9,3.669,3.669,0,0,1-1.981.728,8.458,8.458,0,0,1-3.6-.769,9.183,9.183,0,0,1-2.873-2.063,9.469,9.469,0,0,1-1.9-3.033,9.754,9.754,0,0,1-.428-1.419c-.347.549-.711,1.1-1.108,1.661a22.369,22.369,0,0,1-3.52,3.922,6.089,6.089,0,0,1-4.043,1.7,6.326,6.326,0,0,1-4.732-1.861q-1.794-1.834-1.817-5.56c-.355.446-.729.893-1.134,1.34a22.128,22.128,0,0,1-5.338,4.247,14.052,14.052,0,0,1-7.2,1.834,10.924,10.924,0,0,1-4.611-.93,9.7,9.7,0,0,1-3.4-2.548,11.473,11.473,0,0,1-2.1-3.72,12.975,12.975,0,0,1-.564-2.333,39.316,39.316,0,0,1-2.55,3.254,20.526,20.526,0,0,1-3.4,3.127,18.186,18.186,0,0,1-4.124,2.272,13.017,13.017,0,0,1-4.813.878,10.923,10.923,0,0,1-4.61-.93,9.694,9.694,0,0,1-3.4-2.548,11.446,11.446,0,0,1-2.1-3.72,12.91,12.91,0,0,1-.507-1.992,24.475,24.475,0,0,1-2.4,3.109,22.1,22.1,0,0,1-5.338,4.247,14.052,14.052,0,0,1-7.2,1.834,10.925,10.925,0,0,1-4.61-.93,9.7,9.7,0,0,1-3.4-2.548,11.463,11.463,0,0,1-2.1-3.72,13.758,13.758,0,0,1-.728-4.53,18.381,18.381,0,0,1,1.416-6.793,24.29,24.29,0,0,1,3.8-6.471,22.651,22.651,0,0,1,5.378-4.813,11.34,11.34,0,0,1,6.148-1.9,7.847,7.847,0,0,1,2.83.528A7.15,7.15,0,0,1-223.757-507a7.274,7.274,0,0,1,1.658,2.475,8.6,8.6,0,0,1,.606,3.326,9.758,9.758,0,0,1-1.253,4.341,11.832,11.832,0,0,1-3.235,3.732,12.975,12.975,0,0,1-4.974,2.272,12.232,12.232,0,0,1-2.827.316,17.17,17.17,0,0,1-3.725-.439,13.436,13.436,0,0,0-.122,3.083,6.314,6.314,0,0,0,.728,2.556,4.584,4.584,0,0,0,1.7,1.746,5.59,5.59,0,0,0,2.871.648,9.769,9.769,0,0,0,5.217-1.415,17.586,17.586,0,0,0,3.963-3.276,17.994,17.994,0,0,0,2.628-3.761q.486-.952.831-1.671a21.461,21.461,0,0,1,.908-2.818,24.292,24.292,0,0,1,3.8-6.471,22.623,22.623,0,0,1,5.379-4.813,11.339,11.339,0,0,1,6.147-1.9,8.014,8.014,0,0,1,3.356.648,8.11,8.11,0,0,1,2.386,1.617,6.063,6.063,0,0,1,1.415,2.144,6.294,6.294,0,0,1,.445,2.224,4.442,4.442,0,0,1-1.253,3.519,5.137,5.137,0,0,1-2.629,1.294,5.609,5.609,0,0,1-.817.063,3.408,3.408,0,0,1-1.489-.306q-.93-.444-.364-1.092a8.5,8.5,0,0,0,1.5-2.184,5.614,5.614,0,0,0,.566-2.1,2.781,2.781,0,0,0-.364-1.618,1.5,1.5,0,0,0-1.375-.647,5.264,5.264,0,0,0-3.559,1.664,17.963,17.963,0,0,0-3.235,4.181,25.828,25.828,0,0,0-2.346,5.438,16.824,16.824,0,0,0-.809,5.44,7.32,7.32,0,0,0,1.294,4.181,4.572,4.572,0,0,0,3.963,1.663,9.134,9.134,0,0,0,4.934-1.415,18.848,18.848,0,0,0,3.963-3.276,21.45,21.45,0,0,0,2.79-3.761c.4-.688.718-1.277.978-1.784a21.721,21.721,0,0,1,.882-2.7,24.292,24.292,0,0,1,3.8-6.471,22.613,22.613,0,0,1,5.379-4.813,11.335,11.335,0,0,1,6.147-1.9,7.854,7.854,0,0,1,2.831.528A7.139,7.139,0,0,1-172.64-507a7.253,7.253,0,0,1,1.658,2.475,8.586,8.586,0,0,1,.607,3.326,9.758,9.758,0,0,1-1.253,4.341,11.832,11.832,0,0,1-3.235,3.732,12.978,12.978,0,0,1-4.975,2.272,12.228,12.228,0,0,1-2.827.316,17.163,17.163,0,0,1-3.724-.439,13.356,13.356,0,0,0-.121,3.083,6.289,6.289,0,0,0,.728,2.556,4.582,4.582,0,0,0,1.7,1.746,5.588,5.588,0,0,0,2.871.648A9.769,9.769,0,0,0-176-484.356a17.573,17.573,0,0,0,3.963-3.276,17.968,17.968,0,0,0,2.628-3.761c.314-.614.581-1.153.806-1.622.093-.332.185-.663.285-1.007q.85-2.912,2.063-6.35t2.75-7.239h-4.53a1.767,1.767,0,0,1-1.415-.768,6.579,6.579,0,0,1-.971-1.7,8.39,8.39,0,0,1-.485-1.658q-.122-.728.121-.728a22.045,22.045,0,0,0,2.225.485q1.009.163,2.021.283t2.144.162q1.131.042,2.507.04.646-1.536,1.537-3.6t1.739-3.963q.848-1.9,1.577-3.357a8.619,8.619,0,0,1,1.052-1.779,1.7,1.7,0,0,1,1.253-.417m-30.055,30.162a5.23,5.23,0,0,0,2.314-.546,9.993,9.993,0,0,0,2.709-1.941,15.011,15.011,0,0,0,2.144-2.71,14.058,14.058,0,0,0,1.375-2.79,4.878,4.878,0,0,0,.323-2.184q-.121-.889-.931-.889a4.058,4.058,0,0,0-2.386.93,11.977,11.977,0,0,0-2.427,2.507,24.925,24.925,0,0,0-2.184,3.56,34.5,34.5,0,0,0-1.739,4,5.314,5.314,0,0,0,.8.061m-51.116,0a5.225,5.225,0,0,0,2.313-.546,9.983,9.983,0,0,0,2.709-1.941,15.007,15.007,0,0,0,2.143-2.71,13.981,13.981,0,0,0,1.376-2.79,4.875,4.875,0,0,0,.323-2.184c-.08-.592-.391-.889-.93-.889a4.056,4.056,0,0,0-2.386.93,11.992,11.992,0,0,0-2.427,2.507,24.927,24.927,0,0,0-2.184,3.56,34.614,34.614,0,0,0-1.739,4,5.314,5.314,0,0,0,.8.061m90.028,11.182q.485,0,1.537-.971a23.1,23.1,0,0,0,2.306-2.547q1.253-1.577,2.588-3.559t2.507-3.923a39.08,39.08,0,0,0,1.982-3.68,14.3,14.3,0,0,0,1.052-2.872,1.826,1.826,0,0,0-.728-1.739,3.6,3.6,0,0,0-2.427-.767,4.764,4.764,0,0,0-3.114,1.779,23.263,23.263,0,0,0-3.316,4.45,29.372,29.372,0,0,0-2.629,5.9,19.883,19.883,0,0,0-1.052,6.148,2.333,2.333,0,0,0,.324,1.253,1.06,1.06,0,0,0,.971.526m24.022,11.324a3.851,3.851,0,0,0,1.982-.605,5.639,5.639,0,0,0,1.82-1.9,11.971,11.971,0,0,0,1.335-3.308,19.076,19.076,0,0,0,.526-4.764,22.306,22.306,0,0,0-.567-4.922q-.566-2.5-1.374-5.811a31.556,31.556,0,0,1-1.457,3.834,12.71,12.71,0,0,1-1.132,1.976,3.236,3.236,0,0,1-.647.694,39.014,39.014,0,0,1-2.264,3.68c-.371.537-.767,1.042-1.177,1.532a4.264,4.264,0,0,1,1.944.692c.728.485,1.092.837,1.092,1.052a.143.143,0,0,1-.162.162,3.472,3.472,0,0,0-2.427,1.561,4.875,4.875,0,0,0-.89,2.762,3.773,3.773,0,0,0,.769,2.362,3.121,3.121,0,0,0,2.628,1m-9.528,4.808q.786-1.851,1.123-2.89a5.662,5.662,0,0,0,.336-1.6c0-.523-.076-.786-.224-.786a.9.9,0,0,0-.616.393,6.94,6.94,0,0,0-.673.955,6.686,6.686,0,0,0-.562,1.177,3.1,3.1,0,0,0-.224,1.01,2.791,2.791,0,0,0,.14.982,1.822,1.822,0,0,0,.7.757m-17.955,16.44a2.612,2.612,0,0,0,1.8-.645,7.485,7.485,0,0,0,1.4-1.768,5.707,5.707,0,0,1-.224-1.682,2.74,2.74,0,0,1,.7-1.937A2.9,2.9,0,0,1-144-457.65a22.952,22.952,0,0,0,.785-2.805,11.948,11.948,0,0,0,.281-2.413,4.1,4.1,0,0,0-.422-1.992,1.5,1.5,0,0,0-1.43-.757,3.373,3.373,0,0,0-2.189,1.094,11.971,11.971,0,0,0-2.16,2.778,24.178,24.178,0,0,0-1.712,3.592,13.106,13.106,0,0,0-.869,3.59,5.52,5.52,0,0,0,.364,2.778,2,2,0,0,0,2.02,1.094m35.741,0q.338,0,1.066-.673a15.909,15.909,0,0,0,1.6-1.767q.869-1.094,1.8-2.47t1.739-2.721a27.087,27.087,0,0,0,1.375-2.553,9.994,9.994,0,0,0,.729-1.992,1.267,1.267,0,0,0-.506-1.206,2.487,2.487,0,0,0-1.683-.534,3.3,3.3,0,0,0-2.16,1.235,16.126,16.126,0,0,0-2.3,3.086,20.459,20.459,0,0,0-1.823,4.1,13.79,13.79,0,0,0-.729,4.264,1.629,1.629,0,0,0,.224.87.738.738,0,0,0,.673.364m-59.307,0q.337,0,1.066-.673a15.915,15.915,0,0,0,1.6-1.767q.869-1.094,1.8-2.47t1.739-2.721a27.073,27.073,0,0,0,1.375-2.553,9.893,9.893,0,0,0,.729-1.992,1.266,1.266,0,0,0-.5-1.206,2.487,2.487,0,0,0-1.683-.534,3.3,3.3,0,0,0-2.161,1.235,16.154,16.154,0,0,0-2.3,3.086,20.463,20.463,0,0,0-1.824,4.1,13.789,13.789,0,0,0-.729,4.264,1.616,1.616,0,0,0,.224.87.736.736,0,0,0,.673.364m-22.667,0q.337,0,1.066-.673a15.917,15.917,0,0,0,1.6-1.767q.869-1.094,1.8-2.47t1.739-2.721a26.882,26.882,0,0,0,1.374-2.553,9.9,9.9,0,0,0,.729-1.992,1.264,1.264,0,0,0-.5-1.206,2.488,2.488,0,0,0-1.683-.534,3.3,3.3,0,0,0-2.161,1.235,16.124,16.124,0,0,0-2.3,3.086,20.42,20.42,0,0,0-1.823,4.1,13.789,13.789,0,0,0-.729,4.264,1.622,1.622,0,0,0,.224.87.737.737,0,0,0,.673.364m-43.483,0q.337,0,1.066-.673a15.989,15.989,0,0,0,1.6-1.767q.869-1.094,1.8-2.47t1.739-2.721a26.911,26.911,0,0,0,1.375-2.553,9.951,9.951,0,0,0,.729-1.992,1.266,1.266,0,0,0-.505-1.206,2.492,2.492,0,0,0-1.683-.534,3.3,3.3,0,0,0-2.161,1.235,16.123,16.123,0,0,0-2.3,3.086,20.419,20.419,0,0,0-1.824,4.1,13.789,13.789,0,0,0-.729,4.264,1.617,1.617,0,0,0,.224.87.736.736,0,0,0,.673.364m142.122,7.855a2.675,2.675,0,0,0,1.375-.42,3.906,3.906,0,0,0,1.262-1.315,8.32,8.32,0,0,0,.925-2.295,13.207,13.207,0,0,0,.365-3.3,15.493,15.493,0,0,0-.393-3.415q-.393-1.737-.954-4.031a21.7,21.7,0,0,1-1.01,2.66,8.86,8.86,0,0,1-.786,1.371,2.238,2.238,0,0,1-.448.48,27.257,27.257,0,0,1-1.571,2.554c-.257.372-.533.722-.816,1.062a2.956,2.956,0,0,1,1.348.48c.506.337.757.581.757.729a.1.1,0,0,1-.112.113,2.4,2.4,0,0,0-1.683,1.082,3.378,3.378,0,0,0-.618,1.916,2.619,2.619,0,0,0,.533,1.639,2.167,2.167,0,0,0,1.824.693m-57.8-86.144a5.95,5.95,0,0,0-4.344,1.7,10.71,10.71,0,0,0-1.871,2.915c-.511,1.024-1.07,2.211-1.658,3.529-.58,1.3-1.172,2.649-1.762,4.015l-.386.9c-.444-.025-.866-.062-1.264-.11-.628-.074-1.247-.161-1.847-.258a17.9,17.9,0,0,1-1.793-.393l-.555-.148h-.574a4.492,4.492,0,0,0-3.434,1.591,4.51,4.51,0,0,0-1,2.1,12.173,12.173,0,0,0-2.679-.3,15.68,15.68,0,0,0-8.49,2.582,26.86,26.86,0,0,0-5.724,4.916c-.031-.088-.063-.177-.1-.265a10.441,10.441,0,0,0-2.413-3.687,12.462,12.462,0,0,0-3.657-2.5,12.372,12.372,0,0,0-5.177-1.045,15.681,15.681,0,0,0-8.491,2.582,26.915,26.915,0,0,0-5.924,5.147c-.06-.165-.123-.328-.19-.489a11.649,11.649,0,0,0-2.658-3.941,11.535,11.535,0,0,0-3.9-2.48,12.241,12.241,0,0,0-4.393-.818,15.69,15.69,0,0,0-8.491,2.581,27.109,27.109,0,0,0-6.418,5.734,28.774,28.774,0,0,0-4.483,7.628,22.792,22.792,0,0,0-1.725,8.408,18.18,18.18,0,0,0,.968,5.961,15.868,15.868,0,0,0,2.9,5.123,14.093,14.093,0,0,0,4.9,3.688,15.308,15.308,0,0,0,6.437,1.33,18.422,18.422,0,0,0,9.4-2.427,27.946,27.946,0,0,0,4.385-3.13q.213.275.44.541a14.072,14.072,0,0,0,4.9,3.686,15.3,15.3,0,0,0,6.437,1.33,17.429,17.429,0,0,0,6.415-1.182,22.688,22.688,0,0,0,5.11-2.815,25.526,25.526,0,0,0,2.121-1.74q.278.368.576.719a14.086,14.086,0,0,0,4.9,3.688,15.3,15.3,0,0,0,6.437,1.33,18.424,18.424,0,0,0,9.4-2.427q1.209-.7,2.311-1.49a9.563,9.563,0,0,0,.656.743,10.448,10.448,0,0,0,6.119,3.055l-.206.507a8.862,8.862,0,0,0-2.545-.364,10.956,10.956,0,0,0-6.984,2.627,20.254,20.254,0,0,0-1.777,1.621l-.026-.035a8,8,0,0,0-2.383-2.029,11.83,11.83,0,0,0-2.5-1.073,9.414,9.414,0,0,0-2.717-.437,4.362,4.362,0,0,0-1.973.456c-.192-.105-.387-.2-.587-.3a8.512,8.512,0,0,0-3.724-.828,10.958,10.958,0,0,0-6.985,2.627,20.49,20.49,0,0,0-1.921,1.77,7.335,7.335,0,0,0-1.244-1.658,8.135,8.135,0,0,0-5.953-2.29,8.192,8.192,0,0,0-3.96,1.159q-.508.28-1.025.623a9.735,9.735,0,0,0-.971-.706,9.992,9.992,0,0,0-2.4-1.106,8.6,8.6,0,0,0-2.527-.42,4.9,4.9,0,0,0-4.411,2.55q-.281-.19-.586-.366a11.807,11.807,0,0,0-2.5-1.073,9.4,9.4,0,0,0-2.718-.438,4.374,4.374,0,0,0-1.974.455c-.191-.1-.385-.2-.584-.3a8.51,8.51,0,0,0-3.727-.829,10.958,10.958,0,0,0-6.984,2.627,21.756,21.756,0,0,0-4.535,5.083,27.983,27.983,0,0,0-2.958,5.987,18.292,18.292,0,0,0-1.172,6.049,11.254,11.254,0,0,0,.783,4.162,10.92,10.92,0,0,0,2.2,3.487,10.755,10.755,0,0,0,3.344,2.406,10.223,10.223,0,0,0,4.334.938,6.81,6.81,0,0,0,3.8-1.238q.455-.3.907-.67a8.835,8.835,0,0,0,5.674,1.853,8.319,8.319,0,0,0,4.8-1.594,10.964,10.964,0,0,0,1,.592,6.55,6.55,0,0,0,3.06.832,5.692,5.692,0,0,0,2.578-.6,4.851,4.851,0,0,0,2.214-2.167c.116.135.235.266.36.393a8.733,8.733,0,0,0,6.406,2.6A8.733,8.733,0,0,0-202.8-444.4q.167-.138.332-.28a10.871,10.871,0,0,0,2.4,1.517,10.23,10.23,0,0,0,4.334.938,6.811,6.811,0,0,0,3.8-1.238q.455-.3.907-.67a8.834,8.834,0,0,0,5.675,1.853,8.567,8.567,0,0,0,5.622-2.231l.066-.056a10.867,10.867,0,0,0,2.266,1.405,10.223,10.223,0,0,0,4.333.938,6.792,6.792,0,0,0,3.735-1.186,11.558,11.558,0,0,0,.938-.685,8.839,8.839,0,0,0,5.6,1.872,8.545,8.545,0,0,0,5.682-2.258c.042-.036.084-.073.126-.111a9.654,9.654,0,0,0,3.447,1.827,13.69,13.69,0,0,0,3.873.543,11.676,11.676,0,0,0,5.748-1.507,16.628,16.628,0,0,0,2.8-1.972,11.22,11.22,0,0,0,3.718-1,15.072,15.072,0,0,0,2.869-1.742h0a8.449,8.449,0,0,0,2.013,3.587,8.7,8.7,0,0,0,6.469,2.639,8.733,8.733,0,0,0,5.611-2.173l.142-.118a10.85,10.85,0,0,0,2.2,1.353,10.223,10.223,0,0,0,4.334.938,6.81,6.81,0,0,0,3.8-1.238q.455-.3.907-.67a8.257,8.257,0,0,0,3.019,1.516q.127.341.28.675a10.012,10.012,0,0,0,2.284,3.172,10.3,10.3,0,0,0,3.254,2.046,10.444,10.444,0,0,0,3.85.727,11.9,11.9,0,0,0,4.571-.982,13.669,13.669,0,0,0,4.172-2.754,14.834,14.834,0,0,0,3.074-4.283,13.777,13.777,0,0,0,1.307-6.06,13.818,13.818,0,0,0-.456-3.569c-.226-.843-.49-1.709-.785-2.577-.233-.682-.44-1.359-.617-2.024a5.027,5.027,0,0,1-.161-1.312,5.927,5.927,0,0,1,.166-1.336,4.15,4.15,0,0,1,.233-.685,5.216,5.216,0,0,0,1.845-4.04,5.8,5.8,0,0,0-1.517-3.877,9.2,9.2,0,0,0-1.966-1.663,11.121,11.121,0,0,0-2.182-1.07,8.143,8.143,0,0,0-2.746-.512,5.289,5.289,0,0,0-2.22.527,6.614,6.614,0,0,0-2.225,1.723c-.117.131-.23.268-.342.413a9.336,9.336,0,0,0-1.049-.7,11.818,11.818,0,0,0-2.5-1.075,9.394,9.394,0,0,0-2.717-.437,4.371,4.371,0,0,0-1.973.455q-.287-.156-.586-.3a8.258,8.258,0,0,0-1.655-.589q.509-.843.953-1.757a17.964,17.964,0,0,0,1.692-7.893,17.968,17.968,0,0,0-.594-4.649c-.321-1.194-.689-2.4-1.1-3.6-.347-1.014-.657-2.032-.925-3.033a9.2,9.2,0,0,1-.3-2.391,10.476,10.476,0,0,1,.291-2.365,8.878,8.878,0,0,1,.685-1.84,5.164,5.164,0,0,0,2.26-4.53,6.439,6.439,0,0,0-1.7-4.309,11.428,11.428,0,0,0-2.424-2.048,14.035,14.035,0,0,0-2.768-1.356,9.8,9.8,0,0,0-3.3-.624,5.714,5.714,0,0,0-2.41.592,7.67,7.67,0,0,0-2.553,2,12.149,12.149,0,0,0-1.587,2.354,9.649,9.649,0,0,0-2.83-2.38,15.043,15.043,0,0,0-3.2-1.372,11.638,11.638,0,0,0-3.359-.548,4.525,4.525,0,0,0-2.827.977,16.743,16.743,0,0,0-1.7-.944,10.356,10.356,0,0,0-4.534-1,13.292,13.292,0,0,0-7.088,2.1q-.038-.08-.079-.161a11.471,11.471,0,0,0-1.586-2.377c-.058-.065-.129-.147-.214-.238q.257-.538.523-1.086c.474-.974.907-1.839,1.285-2.571.182-.353.3-.556.359-.662a4.887,4.887,0,0,0,1.162-3.227,5.489,5.489,0,0,0-1.862-3.957,11.772,11.772,0,0,0-3.276-2.152,14.347,14.347,0,0,0-3.733-1.108,8.724,8.724,0,0,0-1.305-.1Zm-52.587,41.627a3.516,3.516,0,0,1-.346-1.568,12.63,12.63,0,0,1,.621-4.029,22.451,22.451,0,0,1,1-2.669,5.521,5.521,0,0,0,2.116,1.7,7.738,7.738,0,0,0,3.371.732,10.05,10.05,0,0,0,1.454-.11l.066-.01a17.619,17.619,0,0,1-2.071,2.725,14.57,14.57,0,0,1-3.052,2.516,4.738,4.738,0,0,1-2.617.751,3.022,3.022,0,0,1-.541-.041Zm61.2,14.367a7.928,7.928,0,0,0,4.406-1.462,17.323,17.323,0,0,0,2.414-1.971l.062.069a9.526,9.526,0,0,0,1.317,1.2,14.935,14.935,0,0,0-1.37,2.4,11.9,11.9,0,0,0-.487,1.253q-.374-.211-.772-.4a12.446,12.446,0,0,0-5.309-1.06,10.208,10.208,0,0,0-5.628,1.924c.3-.623.6-1.184.885-1.678.259-.448.436-.716.542-.863a13.056,13.056,0,0,0,3.939.594Z" transform="translate(250.13 528.981)" fill="#fff"/>
          </g>
        </g>
        <g id="Grupo_362" data-name="Grupo 362">
          <g id="Grupo_360" data-name="Grupo 360" transform="translate(2.186 2.186)">
            <path id="Trazado_624" data-name="Trazado 624" d="M-279.275-415.91a16.382,16.382,0,0,1-5.927-.838c-.843-.338-3.079-1.232-3.079-3.318a3.174,3.174,0,0,1,1.054-2.445,3.054,3.054,0,0,1,2.042-.8c.043,0,.086,0,.128,0a10.251,10.251,0,0,0,1.085-1.26,48.791,48.791,0,0,0,3.367-5.218c.083-.145.166-.292.249-.439a10.6,10.6,0,0,1-4.3.9,14.161,14.161,0,0,1-5.776-1.249,16.084,16.084,0,0,1-4.955-3.46,16.635,16.635,0,0,1-3.5-5.446,18.861,18.861,0,0,1-1.3-7.111,36.554,36.554,0,0,1,1.527-10.238,56.952,56.952,0,0,1,3.98-9.971c.777-1.517,1.629-3.017,2.544-4.483a12.452,12.452,0,0,1-1.391-.966,11.6,11.6,0,0,1-2.093-2.148,5.313,5.313,0,0,1-1.116-3.2,18.338,18.338,0,0,1,1.474-5.782c.9-2.4,2.046-5.19,3.4-8.279,1.333-3.04,2.807-6.329,4.381-9.777,1.549-3.392,3.011-6.708,4.344-9.853s2.444-5.985,3.307-8.445a19.724,19.724,0,0,0,1.2-4.622c-.141.085-.283.17-.424.257a66.109,66.109,0,0,0-7.867,5.636,64.5,64.5,0,0,0-6.609,6.3A38.169,38.169,0,0,0-298-506.245a12.4,12.4,0,0,0-1.274,2.731,6.057,6.057,0,0,0,.928-.175,14.387,14.387,0,0,0,1.684-.56c.63-.258,1.146-.457,1.547-.6a3.912,3.912,0,0,1,1.339-.273,2.449,2.449,0,0,1,1.092.249l.469.231.313.418c.5.673,1.081,2.086-.73,3.991a16.454,16.454,0,0,1-2.382,2.015,19.158,19.158,0,0,1-3.1,1.782,8.486,8.486,0,0,1-3.539.887,5.027,5.027,0,0,1-3.458-1.623,15.632,15.632,0,0,1-2.309-2.866,17.873,17.873,0,0,1-1.752-3.594,11.451,11.451,0,0,1-.734-3.81c0-1.826.818-3.878,2.5-6.271a45.748,45.748,0,0,1,5.861-6.634,81.465,81.465,0,0,1,8.188-6.777,84.928,84.928,0,0,1,9.589-6.061,66.834,66.834,0,0,1,9.995-4.431,29.866,29.866,0,0,1,9.65-1.777,15.262,15.262,0,0,1,5.341,1.07,18.3,18.3,0,0,1,5.192,3.029,17.771,17.771,0,0,1,4.014,4.748,12.775,12.775,0,0,1,1.714,6.522,21.691,21.691,0,0,1-1.431,7.556,36.308,36.308,0,0,1-3.657,7.188,48.886,48.886,0,0,1-5.124,6.522,48.859,48.859,0,0,1-5.846,5.378,34.141,34.141,0,0,1-5.883,3.715,17.364,17.364,0,0,1-2.372.953q.7,1.2,1.51,2.4a12.6,12.6,0,0,1,2.991-.377,9.126,9.126,0,0,1,4.762,1.221,9.783,9.783,0,0,1,3.165,3.022,12.177,12.177,0,0,1,1.667,3.925,17.856,17.856,0,0,1,.47,3.628,9.5,9.5,0,0,0,3.058.515,9.95,9.95,0,0,0,2.271-.27,2.608,2.608,0,0,1,.793-.126,2.429,2.429,0,0,1,2.413,2.55,3.553,3.553,0,0,1-.3,1.6l-.066.138-.085.127a11.306,11.306,0,0,1-1.4,1.622,14.747,14.747,0,0,1-2.329,1.86,19.439,19.439,0,0,1-3.057,1.6,15.376,15.376,0,0,1-3.779,1.04,9.467,9.467,0,0,1-1,.09c-.213.394-.425.77-.638,1.135a30.006,30.006,0,0,1-3.481,4.865,9.058,9.058,0,0,1-2.568,2.115,9.684,9.684,0,0,1,2.538.861,10.786,10.786,0,0,1,2.9,2.088,5.229,5.229,0,0,1,1.7,3.745,18.909,18.909,0,0,1-1,5.024c-.614,2.047-1.392,4.368-2.313,6.9s-1.919,5.155-2.978,7.825C-268-430.89-269-428.42-269.9-426.241c-.9,2.164-1.694,4.031-2.374,5.552-1.146,2.556-1.186,2.6-1.5,2.916a5.854,5.854,0,0,1-2.822,1.537A11.442,11.442,0,0,1-279.275-415.91Zm4.965-61.083a54.273,54.273,0,0,0-4.849,6.337,60.875,60.875,0,0,0-4.425,7.936,52.233,52.233,0,0,0-3.163,8.8,34.948,34.948,0,0,0-1.179,8.844c0,1.99.465,3.391,1.381,4.163a5.219,5.219,0,0,0,3.48,1.3,3.032,3.032,0,0,0,1.893-.855,17.7,17.7,0,0,0,2.792-3.036,32.294,32.294,0,0,0,2.623-4.221c.833-1.591,1.578-3.119,2.215-4.541a35.651,35.651,0,0,0,1.428-3.633,12.828,12.828,0,0,0,.428-1.543,2.73,2.73,0,0,1,1.156-2.171,8.749,8.749,0,0,1-1.9-.409,10.5,10.5,0,0,1-2.34-1.1,7.826,7.826,0,0,1-1.878-1.629,4.1,4.1,0,0,1-1.028-2.637,3.794,3.794,0,0,1,.888-2.463,3.032,3.032,0,0,1,2.359-1.239,2.473,2.473,0,0,1,.865.157,7.943,7.943,0,0,0,.7-.729,26.188,26.188,0,0,0,2.314-3.168,34.7,34.7,0,0,1-3.525-4.209l-.18.147Zm-6.883-9.592c-.391,1.127-.759,2.233-1.1,3.307l.142-.13c.888-.808,1.811-1.576,2.756-2.3q-.666-1.243-1.281-2.364Q-280.938-487.322-281.194-486.586Zm8.086-40.528a12.1,12.1,0,0,1,1.932,1.335,10.9,10.9,0,0,1,1.622,1.678,4.105,4.105,0,0,1,.977,2.5,13.722,13.722,0,0,1-.788,3.89c-.471,1.5-1.083,3.247-1.818,5.208-.729,1.942-1.58,4.111-2.529,6.446-.568,1.395-1.156,2.858-1.757,4.373a15.636,15.636,0,0,0,2.239-1.557,37.462,37.462,0,0,0,5.953-6.268,45.952,45.952,0,0,0,5.132-8.454,19.824,19.824,0,0,0,2.057-8.411,2.419,2.419,0,0,0-.281-1.138,3.95,3.95,0,0,0-.858-1.122,4.051,4.051,0,0,0-1.159-.739,2.714,2.714,0,0,0-1.017-.235,21.4,21.4,0,0,0-7.444,1.479q-1.176.44-2.356.96Z" transform="translate(309.912 539.394)" fill="#fff"/>
          </g>
          <g id="Grupo_361" data-name="Grupo 361">
            <path id="Trazado_625" data-name="Trazado 625" d="M-264.943-538.022a13.042,13.042,0,0,1,4.57.93,16.04,16.04,0,0,1,4.57,2.669,15.5,15.5,0,0,1,3.518,4.165,10.568,10.568,0,0,1,1.416,5.419,19.429,19.429,0,0,1-1.294,6.795,33.957,33.957,0,0,1-3.438,6.753,46.61,46.61,0,0,1-4.893,6.229,46.431,46.431,0,0,1-5.582,5.136,31.746,31.746,0,0,1-5.5,3.478,11.144,11.144,0,0,1-4.772,1.294,45.964,45.964,0,0,0,3.973,6.584,11.37,11.37,0,0,1,3.88-.744,6.946,6.946,0,0,1,3.638.909,7.564,7.564,0,0,1,2.463,2.35,9.942,9.942,0,0,1,1.364,3.22,15.445,15.445,0,0,1,.417,3.524,8.469,8.469,0,0,1-.068,1.036c.358.161.713.33,1.076.469a11.719,11.719,0,0,0,4.232.8,12.142,12.142,0,0,0,2.886-.355.473.473,0,0,1,.177-.041c.151,0,.227.122.227.364a1.727,1.727,0,0,1-.08.648,9.617,9.617,0,0,1-1.133,1.293,12.516,12.516,0,0,1-1.981,1.578,17.19,17.19,0,0,1-2.709,1.416,13.1,13.1,0,0,1-3.235.889,7.35,7.35,0,0,1-1.045.074,8.006,8.006,0,0,1-.945-.057c-.387.766-.792,1.524-1.228,2.268a27.625,27.625,0,0,1-3.22,4.509q-1.669,1.858-2.8,1.857a6.52,6.52,0,0,1-2.084-.341,8.282,8.282,0,0,1-1.857-.872,5.663,5.663,0,0,1-1.364-1.175,1.983,1.983,0,0,1-.531-1.25,1.6,1.6,0,0,1,.38-1.061c.251-.3.479-.455.681-.455a.53.53,0,0,1,.342.189.661.661,0,0,0,.493.189q.909,0,2.386-1.705a29.412,29.412,0,0,0,2.918-4.093c.176-.293.344-.589.512-.885a31.359,31.359,0,0,1-4.726-5.4c-.376-.539-.742-1.084-1.1-1.631l-.066.054-.221-.369c-.646.618-1.3,1.279-1.972,2.021a55.892,55.892,0,0,0-5.116,6.668,62.846,62.846,0,0,0-4.585,8.223,54.2,54.2,0,0,0-3.3,9.17,36.966,36.966,0,0,0-1.25,9.4q0,4.016,2.16,5.834a7.38,7.38,0,0,0,4.888,1.82,5.13,5.13,0,0,0,3.3-1.364,19.832,19.832,0,0,0,3.146-3.411,34.266,34.266,0,0,0,2.8-4.509q1.289-2.461,2.273-4.661a37.13,37.13,0,0,0,1.516-3.865,9.942,9.942,0,0,0,.531-2.122q0-.585.752-.584a2.363,2.363,0,0,1,.27.016,7.1,7.1,0,0,1,2.274.72,8.553,8.553,0,0,1,2.311,1.667,3.119,3.119,0,0,1,1.061,2.2,17.551,17.551,0,0,1-.909,4.4q-.909,3.032-2.274,6.783t-2.956,7.767q-1.591,4.017-2.955,7.313t-2.35,5.494q-.985,2.2-1.061,2.274a3.678,3.678,0,0,1-1.78.947,9.223,9.223,0,0,1-2.16.265,14.544,14.544,0,0,1-5.116-.681q-1.7-.682-1.7-1.289a1,1,0,0,1,.3-.8.917.917,0,0,1,.606-.265.523.523,0,0,1,.227.038.532.532,0,0,0,.228.038q.832,0,2.5-2.2a50.71,50.71,0,0,0,3.524-5.456q1.856-3.261,3.714-7.011t3.069-6.934a36.289,36.289,0,0,1-5.988,8.109,9.523,9.523,0,0,1-6.745,3.031,11.919,11.919,0,0,1-4.888-1.061,13.838,13.838,0,0,1-4.282-2.994,14.393,14.393,0,0,1-3.031-4.736,16.616,16.616,0,0,1-1.137-6.289,34.221,34.221,0,0,1,1.44-9.625,54.442,54.442,0,0,1,3.828-9.587,58.676,58.676,0,0,1,3.856-6.464,6.1,6.1,0,0,1-1.183-.4,9.641,9.641,0,0,1-2.1-1.294,9.4,9.4,0,0,1-1.7-1.739,3.167,3.167,0,0,1-.687-1.9,17.131,17.131,0,0,1,1.334-5.015q1.335-3.558,3.356-8.169t4.368-9.747q2.346-5.136,4.368-9.909t3.357-8.574a19.2,19.2,0,0,0,1.335-5.662q0-.646.323-.809a1.313,1.313,0,0,1,.567-.162,3.005,3.005,0,0,1,1.374.445,9.784,9.784,0,0,1,1.578,1.092,8.656,8.656,0,0,1,1.294,1.335,2.086,2.086,0,0,1,.526,1.173,12.162,12.162,0,0,1-.688,3.234q-.689,2.184-1.779,5.1t-2.508,6.391q-1.416,3.477-2.871,7.2a2.667,2.667,0,0,0,1.618.728q1.941,0,5.136-2.589a39.481,39.481,0,0,0,6.31-6.633,47.945,47.945,0,0,0,5.378-8.857,21.883,21.883,0,0,0,2.265-9.342,4.592,4.592,0,0,0-.526-2.144,6.148,6.148,0,0,0-1.334-1.738,6.268,6.268,0,0,0-1.779-1.133,4.845,4.845,0,0,0-1.86-.4,23.456,23.456,0,0,0-8.21,1.618A50.514,50.514,0,0,0-281-526.78a68.051,68.051,0,0,0-8.129,5.824,66.367,66.367,0,0,0-6.834,6.511,40.075,40.075,0,0,0-4.732,6.269,10.429,10.429,0,0,0-1.779,5.014.83.83,0,0,0,.566.809,3.028,3.028,0,0,0,1.213.243,8.035,8.035,0,0,0,2.1-.283,16.4,16.4,0,0,0,1.941-.647c.593-.243,1.078-.431,1.456-.566a2.028,2.028,0,0,1,.6-.144.284.284,0,0,1,.125.022c.162.217-.028.607-.566,1.173a14.219,14.219,0,0,1-2.063,1.739,16.849,16.849,0,0,1-2.749,1.577,6.456,6.456,0,0,1-2.629.689,2.958,2.958,0,0,1-1.941-1.011,13.38,13.38,0,0,1-1.982-2.467,15.6,15.6,0,0,1-1.537-3.154,9.236,9.236,0,0,1-.606-3.074q0-2.02,2.1-5.015a43.433,43.433,0,0,1,5.581-6.309,79.152,79.152,0,0,1,7.967-6.593,82.413,82.413,0,0,1,9.343-5.9,64.417,64.417,0,0,1,9.665-4.287,27.563,27.563,0,0,1,8.938-1.658m-22.366,61.733a52.588,52.588,0,0,1,5.817-6.318,37.825,37.825,0,0,1,4.1-3.247l-.007-.013.027-.044c-.253-.45-.507-.9-.751-1.356q-2.184-4.083-3.8-6.835-1.134,3.076-2.143,5.986t-1.779,5.541q-.771,2.628-1.213,4.853c-.1.5-.178.973-.244,1.434m21.684-5.032a7.03,7.03,0,0,0,.086-1.021,4.241,4.241,0,0,0-.569-2.084,1.9,1.9,0,0,0-1.781-1.022,4.579,4.579,0,0,0-1.69.377,34.347,34.347,0,0,0,3.381,3.3c.188.159.383.295.573.447m.681-61.074a32.017,32.017,0,0,0-10.362,1.9,69.081,69.081,0,0,0-10.324,4.576,87.263,87.263,0,0,0-9.837,6.217,83.765,83.765,0,0,0-8.407,6.96,48,48,0,0,0-6.141,6.959c-1.95,2.774-2.9,5.237-2.9,7.529a13.592,13.592,0,0,0,.861,4.543,20.039,20.039,0,0,0,1.971,4.04,17.777,17.777,0,0,0,2.637,3.265,7.11,7.11,0,0,0,4.97,2.23,10.613,10.613,0,0,0,4.455-1.088,21.335,21.335,0,0,0,3.455-1.985,18.523,18.523,0,0,0,2.6-2.191c-.953,2.115-1.86,4.154-2.709,6.092-1.371,3.126-2.53,5.948-3.446,8.39a19.85,19.85,0,0,0-1.613,6.55,7.559,7.559,0,0,0,1.544,4.5,13.71,13.71,0,0,0,2.323,2.424q-.827,1.424-1.571,2.877a59.072,59.072,0,0,0-4.133,10.354A38.737,38.737,0,0,0-303.18-447.4a21.037,21.037,0,0,0,1.457,7.932,18.819,18.819,0,0,0,3.961,6.155,18.247,18.247,0,0,0,5.627,3.927,16.345,16.345,0,0,0,6.5,1.438q-.459.67-.9,1.248c-.141.187-.264.342-.37.469a5.325,5.325,0,0,0-2.6,1.283,5.309,5.309,0,0,0-1.78,4.072c0,2.366,1.5,4.166,4.452,5.348a18.416,18.416,0,0,0,6.741.995,13.633,13.633,0,0,0,3.183-.387,8,8,0,0,0,3.849-2.106c.652-.662.826-1.05,1.959-3.577.69-1.541,1.5-3.428,2.4-5.611s1.908-4.668,2.98-7.374c1.066-2.69,2.075-5.343,3-7.884.935-2.572,1.727-4.935,2.352-7.021a20.782,20.782,0,0,0,1.094-5.652,7.378,7.378,0,0,0-2.34-5.287,13.184,13.184,0,0,0-2.746-2.115,32.311,32.311,0,0,0,3.691-5.166l.1-.171a17.54,17.54,0,0,0,4.273-1.181,21.666,21.666,0,0,0,3.41-1.788A16.986,16.986,0,0,0-250.207-472a13.412,13.412,0,0,0,1.677-1.955l.17-.254.133-.275a5.781,5.781,0,0,0,.517-2.552,4.619,4.619,0,0,0-4.6-4.736,4.766,4.766,0,0,0-1.36.2,7.75,7.75,0,0,1-1.7.2,7.082,7.082,0,0,1-.987-.068,20.687,20.687,0,0,0-.412-2.384,14.347,14.347,0,0,0-1.969-4.628,11.939,11.939,0,0,0-3.866-3.7,10.97,10.97,0,0,0-4.935-1.5,39.619,39.619,0,0,0,4.137-2.811,50.991,50.991,0,0,0,6.11-5.618,51.058,51.058,0,0,0,5.352-6.814,38.459,38.459,0,0,0,3.877-7.622,23.868,23.868,0,0,0,1.569-8.32,14.924,14.924,0,0,0-2.01-7.621,19.941,19.941,0,0,0-4.508-5.332,20.483,20.483,0,0,0-5.813-3.391,17.438,17.438,0,0,0-6.115-1.212Zm-4.641,15.054a18.124,18.124,0,0,1,5.361-.891c-.009,0,.061.016.19.069a1.89,1.89,0,0,1,.536.349,1.787,1.787,0,0,1,.381.51.212.212,0,0,1,.029.12,17.671,17.671,0,0,1-1.849,7.481,43.727,43.727,0,0,1-4.887,8.051q-.448.583-.9,1.131.406-1.047.772-2.024c.748-2,1.373-3.786,1.856-5.317a15.49,15.49,0,0,0,.89-4.549,6.276,6.276,0,0,0-1.424-3.827,12.3,12.3,0,0,0-.957-1.1Zm-25.973,19.31a41.913,41.913,0,0,1,2.841-3.485,62.261,62.261,0,0,1,6.387-6.081q1.567-1.306,3.214-2.51c-.78,2.138-1.733,4.538-2.84,7.152-1.259,2.97-2.633,6.093-4.089,9.291a4.847,4.847,0,0,0-.925-2.687l-.626-.835-.936-.462a4.608,4.608,0,0,0-2.06-.474,5.226,5.226,0,0,0-.966.092Zm18.375,36.347q1.056-1.5,2.113-2.817.457.556.929,1.086-.517.721-1.028,1.328h-.072a4.854,4.854,0,0,0-1.942.4Zm-6.734,29.076a3.036,3.036,0,0,1-2.035-.79,3.656,3.656,0,0,1-.6-2.491,32.759,32.759,0,0,1,1.108-8.29,50,50,0,0,1,3.031-8.433q.826-1.775,1.744-3.461a6.306,6.306,0,0,0,1.53,3.907,10.013,10.013,0,0,0,2.4,2.084A12.346,12.346,0,0,0-274.618-459q-.037.234-.054.476c-.036.15-.127.5-.338,1.16a33.321,33.321,0,0,1-1.339,3.4c-.619,1.382-1.345,2.869-2.158,4.421a29.977,29.977,0,0,1-2.444,3.935,15.546,15.546,0,0,1-2.438,2.66,1.892,1.892,0,0,1-.526.343Z" transform="translate(312.912 542.394)" fill="#fff"/>
          </g>
        </g>
      </g>
      <g id="Grupo_377" data-name="Grupo 377" transform="translate(-308.353 -555.438)">
        <g id="ecetas" transform="translate(45.749 9.775)">
          <g id="Grupo_370" data-name="Grupo 370">
            <g id="Grupo_364" data-name="Grupo 364" transform="translate(0 15.542)">
              <path id="Trazado_626" data-name="Trazado 626" d="M-216.616-486.891q1.051,0,1.173.809a7.16,7.16,0,0,1-.2,2.346A17.722,17.722,0,0,1-217.1-480.3a22.267,22.267,0,0,1-3.4,4.8,22.1,22.1,0,0,1-5.338,4.248,14.058,14.058,0,0,1-7.2,1.833,10.934,10.934,0,0,1-4.61-.93,9.71,9.71,0,0,1-3.4-2.548,11.466,11.466,0,0,1-2.1-3.721,13.756,13.756,0,0,1-.728-4.53,18.4,18.4,0,0,1,1.415-6.794,24.313,24.313,0,0,1,3.8-6.472,22.65,22.65,0,0,1,5.378-4.812,11.339,11.339,0,0,1,6.148-1.9,7.846,7.846,0,0,1,2.83.529,7.146,7.146,0,0,1,2.427,1.541,7.279,7.279,0,0,1,1.658,2.475,8.6,8.6,0,0,1,.606,3.325,9.763,9.763,0,0,1-1.253,4.341,11.824,11.824,0,0,1-3.235,3.732,12.963,12.963,0,0,1-4.974,2.273,14.588,14.588,0,0,1-6.552-.122,13.442,13.442,0,0,0-.122,3.083,6.314,6.314,0,0,0,.728,2.556,4.579,4.579,0,0,0,1.7,1.745,5.585,5.585,0,0,0,2.872.648,9.77,9.77,0,0,0,5.217-1.415,17.59,17.59,0,0,0,3.963-3.276,18,18,0,0,0,2.628-3.762q.972-1.9,1.376-2.871Q-217.021-486.89-216.616-486.891Zm-9.463-10.677a4.057,4.057,0,0,0-2.386.93,11.985,11.985,0,0,0-2.427,2.507,24.917,24.917,0,0,0-2.185,3.56,34.631,34.631,0,0,0-1.738,4,5.2,5.2,0,0,0,3.114-.485,10,10,0,0,0,2.709-1.941,15.027,15.027,0,0,0,2.143-2.71,13.978,13.978,0,0,0,1.376-2.79,4.878,4.878,0,0,0,.323-2.184C-225.23-497.271-225.541-497.568-226.079-497.568Z" transform="translate(243.874 501.127)" fill="#d92d2d"/>
            </g>
            <g id="Grupo_365" data-name="Grupo 365" transform="translate(25.559 15.542)">
              <path id="Trazado_627" data-name="Trazado 627" d="M-181.541-486.891q.565,0,.93.809a3.943,3.943,0,0,1,.041,2.346,14.479,14.479,0,0,1-.769,1.86,20.171,20.171,0,0,1-1.7,2.872,39.33,39.33,0,0,1-2.589,3.309,20.516,20.516,0,0,1-3.4,3.127,18.226,18.226,0,0,1-4.124,2.272,13.012,13.012,0,0,1-4.813.878,10.931,10.931,0,0,1-4.61-.93,9.71,9.71,0,0,1-3.4-2.548,11.454,11.454,0,0,1-2.1-3.721,13.754,13.754,0,0,1-.728-4.53,18.374,18.374,0,0,1,1.416-6.794,24.306,24.306,0,0,1,3.8-6.472,22.642,22.642,0,0,1,5.379-4.812,11.339,11.339,0,0,1,6.147-1.9,8.018,8.018,0,0,1,3.356.647,8.113,8.113,0,0,1,2.387,1.618,6.077,6.077,0,0,1,1.415,2.143,6.3,6.3,0,0,1,.444,2.225,4.439,4.439,0,0,1-1.253,3.518,5.139,5.139,0,0,1-2.629,1.295,3.954,3.954,0,0,1-2.306-.243q-.93-.445-.364-1.092a8.5,8.5,0,0,0,1.5-2.185,5.615,5.615,0,0,0,.566-2.1,2.787,2.787,0,0,0-.364-1.618,1.494,1.494,0,0,0-1.375-.647,5.267,5.267,0,0,0-3.559,1.664,17.98,17.98,0,0,0-3.235,4.181,25.829,25.829,0,0,0-2.346,5.438,16.821,16.821,0,0,0-.809,5.44,7.318,7.318,0,0,0,1.294,4.18A4.574,4.574,0,0,0-195.372-475a9.137,9.137,0,0,0,4.934-1.415,18.849,18.849,0,0,0,3.963-3.276,21.464,21.464,0,0,0,2.79-3.762,28.394,28.394,0,0,0,1.5-2.871C-182.026-486.7-181.812-486.891-181.541-486.891Z" transform="translate(208.799 501.127)" fill="#d92d2d"/>
            </g>
            <g id="Grupo_366" data-name="Grupo 366" transform="translate(51.118 15.542)">
              <path id="Trazado_628" data-name="Trazado 628" d="M-146.467-486.891q1.05,0,1.173.809a7.179,7.179,0,0,1-.2,2.346,17.852,17.852,0,0,1-1.455,3.438,22.293,22.293,0,0,1-3.4,4.8,22.117,22.117,0,0,1-5.339,4.248,14.053,14.053,0,0,1-7.2,1.833,10.932,10.932,0,0,1-4.611-.93,9.716,9.716,0,0,1-3.4-2.548,11.465,11.465,0,0,1-2.1-3.721,13.756,13.756,0,0,1-.728-4.53,18.373,18.373,0,0,1,1.415-6.794,24.291,24.291,0,0,1,3.8-6.472,22.613,22.613,0,0,1,5.379-4.812,11.335,11.335,0,0,1,6.146-1.9,7.853,7.853,0,0,1,2.831.529,7.145,7.145,0,0,1,2.427,1.541,7.267,7.267,0,0,1,1.658,2.475,8.582,8.582,0,0,1,.607,3.325,9.755,9.755,0,0,1-1.253,4.341,11.814,11.814,0,0,1-3.235,3.732,12.972,12.972,0,0,1-4.975,2.273,14.585,14.585,0,0,1-6.552-.122,13.32,13.32,0,0,0-.121,3.083,6.292,6.292,0,0,0,.728,2.556,4.569,4.569,0,0,0,1.7,1.745A5.581,5.581,0,0,0-160.3-475a9.766,9.766,0,0,0,5.217-1.415,17.56,17.56,0,0,0,3.964-3.276,17.975,17.975,0,0,0,2.628-3.762q.971-1.9,1.375-2.871C-146.951-486.7-146.737-486.891-146.467-486.891Zm-9.464-10.677a4.059,4.059,0,0,0-2.386.93,11.966,11.966,0,0,0-2.427,2.507,24.844,24.844,0,0,0-2.184,3.56,34.391,34.391,0,0,0-1.739,4,5.2,5.2,0,0,0,3.114-.485,10.007,10.007,0,0,0,2.709-1.941,15.029,15.029,0,0,0,2.144-2.71,14.007,14.007,0,0,0,1.374-2.79,4.872,4.872,0,0,0,.324-2.184Q-155.122-497.567-155.93-497.568Z" transform="translate(173.724 501.127)" fill="#d92d2d"/>
            </g>
            <g id="Grupo_367" data-name="Grupo 367" transform="translate(74.815)">
              <path id="Trazado_629" data-name="Trazado 629" d="M-121.225-508.856a6.962,6.962,0,0,1,.971,1.457,5.735,5.735,0,0,1,.526,1.456q.12.648-.364.647a3.213,3.213,0,0,1-.445-.04,6.956,6.956,0,0,0-.889-.041q-.608,0-1.7-.041t-2.953-.04a130,130,0,0,0-4.894,12.739,34.642,34.642,0,0,0-1.9,10.313q0,1.619,1.052,1.618.565,0,1.739-1.132a25.207,25.207,0,0,0,2.466-2.831,35.539,35.539,0,0,0,2.467-3.721,26.128,26.128,0,0,0,1.82-3.721.231.231,0,0,1,.081-.162c.107-.107.188-.162.243-.162.592,0,.943.23,1.052.688a4.971,4.971,0,0,1,.08,1.577c-.108.646-.27,1.4-.485,2.265a27.866,27.866,0,0,1-1.294,2.831,33.173,33.173,0,0,1-2.629,4.327,22.352,22.352,0,0,1-3.519,3.923,6.09,6.09,0,0,1-4.044,1.7,6.324,6.324,0,0,1-4.732-1.86q-1.82-1.86-1.82-5.662a19.951,19.951,0,0,1,.485-3.883q.486-2.346,1.335-5.257t2.062-6.35q1.214-3.437,2.751-7.239h-4.53a1.767,1.767,0,0,1-1.415-.768,6.6,6.6,0,0,1-.971-1.7,8.406,8.406,0,0,1-.485-1.659q-.122-.728.121-.728a21.838,21.838,0,0,0,2.224.485q1.01.164,2.022.284t2.144.162c.754.028,1.59.039,2.507.039q.646-1.535,1.537-3.6t1.739-3.963q.848-1.9,1.577-3.357a8.622,8.622,0,0,1,1.051-1.779,2.15,2.15,0,0,1,1.9-.364,9.873,9.873,0,0,1,2.588.768,7.4,7.4,0,0,1,2.062,1.334q.809.77.324,1.254a7.462,7.462,0,0,0-.849,1.415q-.608,1.174-1.335,2.67t-1.416,2.992q-.689,1.5-1.172,2.467h2.021C-121.9-509.5-121.6-509.286-121.225-508.856Z" transform="translate(141.203 522.456)" fill="#d92d2d"/>
            </g>
            <g id="Grupo_368" data-name="Grupo 368" transform="translate(90.587 15.542)">
              <path id="Trazado_630" data-name="Trazado 630" d="M-84.779-486.81a1.06,1.06,0,0,1,1.132.728,3.238,3.238,0,0,1,.081,1.618,17.486,17.486,0,0,1-.566,2.265,25.889,25.889,0,0,1-1.295,2.79,37.794,37.794,0,0,1-2.588,4.287,20.439,20.439,0,0,1-3.519,3.923,6.158,6.158,0,0,1-4,1.7,6.236,6.236,0,0,1-4.852-1.86q-1.7-1.861-1.7-6.309a30.262,30.262,0,0,1-1.982,2.992,27.78,27.78,0,0,1-2.224,2.63,13.741,13.741,0,0,1-2.225,1.9,3.669,3.669,0,0,1-1.981.728,8.458,8.458,0,0,1-3.6-.768,9.182,9.182,0,0,1-2.873-2.064,9.456,9.456,0,0,1-1.9-3.033,9.916,9.916,0,0,1-.687-3.68,20.461,20.461,0,0,1,1.335-6.633,33.8,33.8,0,0,1,3.6-7.28,24.976,24.976,0,0,1,5.217-5.865,9.625,9.625,0,0,1,6.107-2.386,5.979,5.979,0,0,1,2.628.566,11.561,11.561,0,0,1,2.1,1.294,8.637,8.637,0,0,1,1.5,1.456q.565.728.728.971a23.227,23.227,0,0,1,1.293-2.427q.566-.889.81-.89a7.489,7.489,0,0,1,2.1.364,10.588,10.588,0,0,1,2.266.971,5.292,5.292,0,0,1,1.577,1.293.906.906,0,0,1,.041,1.254,18.41,18.41,0,0,0-2.144,3.558,43.986,43.986,0,0,0-2.021,5.016,49.337,49.337,0,0,0-1.538,5.621,26.16,26.16,0,0,0-.607,5.379,2.149,2.149,0,0,0,.283,1.172.811.811,0,0,0,.687.445q.566,0,1.78-1.132a20.661,20.661,0,0,0,2.467-2.831,40.791,40.791,0,0,0,2.427-3.721,26.117,26.117,0,0,0,1.82-3.721.233.233,0,0,1,.081-.162Q-84.861-486.81-84.779-486.81Zm-25.479,11.486q.485,0,1.537-.971a23.117,23.117,0,0,0,2.306-2.548q1.253-1.578,2.588-3.559t2.507-3.923a39.03,39.03,0,0,0,1.982-3.681,14.3,14.3,0,0,0,1.051-2.871,1.826,1.826,0,0,0-.728-1.739,3.6,3.6,0,0,0-2.427-.768,4.765,4.765,0,0,0-3.114,1.78,23.276,23.276,0,0,0-3.316,4.449,29.4,29.4,0,0,0-2.629,5.9,19.881,19.881,0,0,0-1.052,6.147,2.336,2.336,0,0,0,.324,1.253A1.062,1.062,0,0,0-110.257-475.325Z" transform="translate(119.559 501.127)" fill="#d92d2d"/>
            </g>
            <g id="Grupo_369" data-name="Grupo 369" transform="translate(116.227 15.866)">
              <path id="Trazado_631" data-name="Trazado 631" d="M-62.939-496.72c0,.594-.149.9-.445.931s-.58.256-.85.687a14.538,14.538,0,0,0-1.537,3.761,14.778,14.778,0,0,0-.4,3.357,13.5,13.5,0,0,0,.445,3.519q.443,1.658,1.011,3.316t1.011,3.316a13.534,13.534,0,0,1,.445,3.518,13.574,13.574,0,0,1-1.254,5.986,15.046,15.046,0,0,1-3.114,4.367,13.354,13.354,0,0,1-4.085,2.71,10.854,10.854,0,0,1-4.165.93,8.728,8.728,0,0,1-3.235-.607,8.545,8.545,0,0,1-2.71-1.7,8.18,8.18,0,0,1-1.86-2.588,7.587,7.587,0,0,1-.687-3.2,5.412,5.412,0,0,1,1.294-3.518,3.736,3.736,0,0,1,2.913-1.577,4.342,4.342,0,0,1,2.466.728q1.092.728,1.092,1.051a.143.143,0,0,1-.162.162A3.472,3.472,0,0,0-79.2-470a4.875,4.875,0,0,0-.89,2.762,3.768,3.768,0,0,0,.769,2.362,3.121,3.121,0,0,0,2.628,1,3.858,3.858,0,0,0,1.982-.606,5.638,5.638,0,0,0,1.82-1.9,11.991,11.991,0,0,0,1.335-3.308,19.077,19.077,0,0,0,.526-4.763,22.308,22.308,0,0,0-.567-4.922q-.566-2.5-1.375-5.811a31.433,31.433,0,0,1-1.456,3.834,12.729,12.729,0,0,1-1.132,1.977,2.485,2.485,0,0,1-.768.767,1.337,1.337,0,0,1-.364.12,1.149,1.149,0,0,1-.971-.685,2.627,2.627,0,0,1-.4-1.332q.971-2.421,1.86-4.681.808-1.938,1.618-4.116t1.375-3.793a22.448,22.448,0,0,1,1.375-4.2,9.856,9.856,0,0,1,1.375-2.259,3.735,3.735,0,0,1,1.092-.928,1.893,1.893,0,0,1,.606-.2,5.454,5.454,0,0,1,1.82.364,9.643,9.643,0,0,1,1.9.93,7.016,7.016,0,0,1,1.5,1.253A2.13,2.13,0,0,1-62.939-496.72Z" transform="translate(84.373 500.683)" fill="#d92d2d"/>
            </g>
          </g>
        </g>
        <g id="R">
          <g id="Grupo_372" data-name="Grupo 372">
            <g id="Grupo_371" data-name="Grupo 371">
              <path id="Trazado_632" data-name="Trazado 632" d="M-250.6-475.207c.269-.109.4,0,.4.324a1.721,1.721,0,0,1-.08.647,9.536,9.536,0,0,1-1.133,1.294,12.534,12.534,0,0,1-1.981,1.578,17.2,17.2,0,0,1-2.709,1.415,13.112,13.112,0,0,1-3.236.89,8.087,8.087,0,0,1-6.43-1.982,30.359,30.359,0,0,1-5.662-6.228,77.111,77.111,0,0,1-4.813-7.845q-2.184-4.085-3.8-6.835-1.133,3.075-2.143,5.985t-1.779,5.54q-.771,2.628-1.213,4.853a20.191,20.191,0,0,0-.446,3.923c0,.215-.149.4-.444.565a2.069,2.069,0,0,1-1.011.243,4.8,4.8,0,0,1-1.9-.485,9.647,9.647,0,0,1-2.1-1.293,9.375,9.375,0,0,1-1.7-1.739,3.164,3.164,0,0,1-.687-1.9,17.138,17.138,0,0,1,1.334-5.015q1.335-3.559,3.356-8.169t4.368-9.747q2.346-5.135,4.368-9.908t3.357-8.574a19.2,19.2,0,0,0,1.335-5.663q0-.645.323-.808a1.314,1.314,0,0,1,.567-.162,3,3,0,0,1,1.374.446,9.782,9.782,0,0,1,1.578,1.092,8.654,8.654,0,0,1,1.294,1.335,2.086,2.086,0,0,1,.525,1.173,12.153,12.153,0,0,1-.687,3.235q-.689,2.184-1.779,5.1t-2.507,6.39q-1.417,3.478-2.871,7.2a2.668,2.668,0,0,0,1.618.728q1.941,0,5.136-2.589a39.482,39.482,0,0,0,6.31-6.633,47.9,47.9,0,0,0,5.378-8.856,21.878,21.878,0,0,0,2.266-9.342,4.587,4.587,0,0,0-.526-2.144,6.15,6.15,0,0,0-1.334-1.739,6.264,6.264,0,0,0-1.779-1.132,4.838,4.838,0,0,0-1.86-.4,23.458,23.458,0,0,0-8.21,1.618,50.477,50.477,0,0,0-8.574,4.206,67.9,67.9,0,0,0-8.129,5.824,66.344,66.344,0,0,0-6.834,6.511,40.124,40.124,0,0,0-4.733,6.268,10.439,10.439,0,0,0-1.779,5.015.83.83,0,0,0,.565.809,3.043,3.043,0,0,0,1.213.243,8.034,8.034,0,0,0,2.1-.283,16.368,16.368,0,0,0,1.941-.648q.89-.364,1.456-.565t.728-.122c.162.216-.028.607-.565,1.172a14.225,14.225,0,0,1-2.063,1.739,16.881,16.881,0,0,1-2.75,1.577,6.446,6.446,0,0,1-2.628.688,2.96,2.96,0,0,1-1.941-1.011,13.387,13.387,0,0,1-1.982-2.467,15.608,15.608,0,0,1-1.537-3.155,9.236,9.236,0,0,1-.606-3.074q0-2.021,2.1-5.015a43.379,43.379,0,0,1,5.581-6.309,79,79,0,0,1,7.967-6.593,82.372,82.372,0,0,1,9.342-5.9A64.24,64.24,0,0,1-272-534.212a27.569,27.569,0,0,1,8.938-1.658,13.033,13.033,0,0,1,4.57.931,16.022,16.022,0,0,1,4.57,2.669,15.5,15.5,0,0,1,3.518,4.165,10.566,10.566,0,0,1,1.415,5.419,19.42,19.42,0,0,1-1.293,6.794,33.976,33.976,0,0,1-3.438,6.754,46.543,46.543,0,0,1-4.894,6.229,46.351,46.351,0,0,1-5.581,5.136,31.775,31.775,0,0,1-5.5,3.478A11.14,11.14,0,0,1-274.464-493a46.41,46.41,0,0,0,4.408,7.2,36.1,36.1,0,0,0,5.743,6.188,22.99,22.99,0,0,0,6.592,3.963A11.685,11.685,0,0,0-250.6-475.207Z" transform="translate(306.656 535.87)" fill="#d92d2d"/>
            </g>
          </g>
        </g>
        <g id="Grupo_375" data-name="Grupo 375" transform="translate(9.732 48.709)">
          <g id="Grupo_373" data-name="Grupo 373" transform="translate(36.276 6.315)">
            <path id="Trazado_633" data-name="Trazado 633" d="M-86.3-445.495a.858.858,0,0,1,.589-.477c.2-.019.309-.234.309-.646a1.477,1.477,0,0,0-.421-.982,4.847,4.847,0,0,0-1.038-.869,6.72,6.72,0,0,0-1.319-.646,3.789,3.789,0,0,0-1.262-.252,1.311,1.311,0,0,0-.42.14,2.583,2.583,0,0,0-.758.644,6.857,6.857,0,0,0-.955,1.567,15.614,15.614,0,0,0-.953,2.911q-.394,1.121-.954,2.631t-1.122,2.855c-.135.342-.275.694-.413,1.044-.125.235-.258.474-.4.718a27.663,27.663,0,0,1-1.684,2.581,14.307,14.307,0,0,1-1.71,1.965q-.842.786-1.235.785a.562.562,0,0,1-.477-.309,1.484,1.484,0,0,1-.2-.813,18.1,18.1,0,0,1,.421-3.731,34.131,34.131,0,0,1,1.066-3.9,30.411,30.411,0,0,1,1.4-3.479,12.8,12.8,0,0,1,1.486-2.469.628.628,0,0,0-.028-.869,3.676,3.676,0,0,0-1.095-.9,7.393,7.393,0,0,0-1.571-.673,5.184,5.184,0,0,0-1.459-.252c-.112,0-.3.206-.56.617a16.246,16.246,0,0,0-.9,1.684q-.113-.169-.505-.673A6,6,0,0,0-103.5-448.3a8.045,8.045,0,0,0-1.459-.9,4.151,4.151,0,0,0-1.823-.393,6.682,6.682,0,0,0-4.237,1.655,17.359,17.359,0,0,0-3.619,4.068,23.528,23.528,0,0,0-2.5,5.05c-.206.587-.364,1.138-.5,1.675-.066.115-.128.227-.2.345a22.443,22.443,0,0,1-1.8,2.581,17.428,17.428,0,0,1-1.823,1.964q-.871.787-1.262.786a.562.562,0,0,1-.477-.31,1.493,1.493,0,0,1-.2-.816,11.858,11.858,0,0,1,.42-2.928,29.464,29.464,0,0,1,1.039-3.238q.615-1.6,1.29-3.012t1.178-2.252a1.123,1.123,0,0,0,.168-.676,1.987,1.987,0,0,0-.281-.957,3.813,3.813,0,0,0-.729-.929,4.285,4.285,0,0,0-1.01-.7,2.483,2.483,0,0,0-1.121-.281,12.368,12.368,0,0,0-1.908.168,12.354,12.354,0,0,1-1.908.169,1.7,1.7,0,0,1-.786-.112,43.164,43.164,0,0,0,1.4-4.1,10.538,10.538,0,0,0,.448-2.594,2.052,2.052,0,0,0-.337-1.171,3.316,3.316,0,0,0-.786-.836,3.494,3.494,0,0,0-.925-.5,2.539,2.539,0,0,0-.814-.167,3.494,3.494,0,0,0-1.992.729,9.3,9.3,0,0,0-1.88,1.767,10.513,10.513,0,0,0-1.4,2.273,5.484,5.484,0,0,0-.561,2.244,6.521,6.521,0,0,0,.589,2.553,3.974,3.974,0,0,0,2.609,2.048q-.618,1.628-1.374,3.311t-1.431,3.03c-.185.37-.385.767-.6,1.181-.063.084-.122.169-.189.249a9.527,9.527,0,0,1-1.543,1.487,9.218,9.218,0,0,1-1.571.982,4.1,4.1,0,0,1-1.262.421,19.423,19.423,0,0,0,1.4-3.7,15.124,15.124,0,0,0,.5-3.872,11.605,11.605,0,0,0-.337-2.777,6.565,6.565,0,0,0-1.15-2.44,5.788,5.788,0,0,0-2.189-1.711,8.12,8.12,0,0,0-3.45-.646,6.085,6.085,0,0,0-3.31,1.262,15.69,15.69,0,0,0-3.479,3.339,20.072,20.072,0,0,0-2.722,4.713,14.846,14.846,0,0,0-.625,1.892c-.237.5-.511,1.03-.833,1.586a28.226,28.226,0,0,1-1.683,2.581,14.324,14.324,0,0,1-1.712,1.964q-.842.787-1.234.786a.563.563,0,0,1-.477-.309,1.485,1.485,0,0,1-.2-.813,19.059,19.059,0,0,1,.506-3.815q.5-2.356,1.347-5.022t1.879-5.414q1.038-2.748,2.048-5.078A39.633,39.633,0,0,1-152.4-455.9a7.323,7.323,0,0,1,1.571-2.1q.392-.281-.14-.786a5.412,5.412,0,0,0-1.431-.926,7.433,7.433,0,0,0-1.823-.589,1.441,1.441,0,0,0-1.318.224,7.437,7.437,0,0,0-1.039,1.628q-.645,1.235-1.459,3.058t-1.682,4.012q-.87,2.188-1.712,4.545-.224-.28-.645-.758a7.047,7.047,0,0,0-1.01-.925,5.874,5.874,0,0,0-1.347-.757,4.356,4.356,0,0,0-1.656-.309,6.68,6.68,0,0,0-4.236,1.655,17.357,17.357,0,0,0-3.619,4.068,23.563,23.563,0,0,0-2.5,5.05c-.045.13-.077.248-.119.376-.237.5-.512,1.031-.834,1.587a27.667,27.667,0,0,1-1.683,2.581,14.263,14.263,0,0,1-1.711,1.965q-.842.786-1.234.785a.561.561,0,0,1-.477-.309,1.478,1.478,0,0,1-.2-.813,18.048,18.048,0,0,1,.421-3.731,34.135,34.135,0,0,1,1.065-3.9,30.411,30.411,0,0,1,1.4-3.479,12.764,12.764,0,0,1,1.487-2.469.627.627,0,0,0-.028-.869,3.667,3.667,0,0,0-1.094-.9,7.385,7.385,0,0,0-1.57-.673,5.2,5.2,0,0,0-1.459-.252c-.112,0-.3.206-.562.617a16.279,16.279,0,0,0-.9,1.684c-.075-.112-.244-.337-.5-.673a6.006,6.006,0,0,0-1.038-1.011,8.019,8.019,0,0,0-1.459-.9,4.151,4.151,0,0,0-1.823-.393,6.683,6.683,0,0,0-4.237,1.655,17.337,17.337,0,0,0-3.619,4.068,23.525,23.525,0,0,0-2.5,5.05c-.019.054-.031.1-.05.156a18.345,18.345,0,0,1-.987,1.864,20.458,20.458,0,0,1-1.824,2.581,19.3,19.3,0,0,1-1.852,1.964q-.87.787-1.262.786a.563.563,0,0,1-.477-.309,1.5,1.5,0,0,1-.2-.813,7.609,7.609,0,0,1,.757-3q.758-1.712,1.627-3.479t1.628-3.338a6.361,6.361,0,0,0,.757-2.637,4.2,4.2,0,0,0-1.01-3.086,3.87,3.87,0,0,0-2.862-1.01,4.1,4.1,0,0,0-1.852.617,13.224,13.224,0,0,0-2.357,1.711,23.433,23.433,0,0,0-2.469,2.581,25.454,25.454,0,0,0-2.244,3.171,15.751,15.751,0,0,1,.59-1.487q.364-.812.7-1.626t.589-1.516a3.545,3.545,0,0,0,.253-1.15,1.532,1.532,0,0,0-.449-1.01,5.055,5.055,0,0,0-1.066-.9,5.609,5.609,0,0,0-1.347-.617,4.347,4.347,0,0,0-1.234-.224c-.3,0-.486.084-.562.253a1.072,1.072,0,0,0-.111.42,6.772,6.772,0,0,1-.393,1.6q-.394,1.208-1.01,2.834t-1.318,3.506c-.346.926-.67,1.823-.985,2.708-.219.452-.469.923-.754,1.416a27.941,27.941,0,0,1-1.683,2.581,14.3,14.3,0,0,1-1.711,1.965q-.843.786-1.235.785a.563.563,0,0,1-.477-.309,1.485,1.485,0,0,1-.2-.813,18.048,18.048,0,0,1,.421-3.731,33.827,33.827,0,0,1,1.066-3.9,30.4,30.4,0,0,1,1.4-3.479,12.763,12.763,0,0,1,1.487-2.469.627.627,0,0,0-.028-.869,3.677,3.677,0,0,0-1.095-.9,7.387,7.387,0,0,0-1.57-.673,5.192,5.192,0,0,0-1.459-.252c-.112,0-.3.206-.561.617a15.853,15.853,0,0,0-.9,1.684c-.075-.112-.244-.337-.505-.673a6.032,6.032,0,0,0-1.038-1.011,8.071,8.071,0,0,0-1.459-.9,4.157,4.157,0,0,0-1.824-.393,6.678,6.678,0,0,0-4.235,1.655,17.31,17.31,0,0,0-3.619,4.068,23.491,23.491,0,0,0-2.5,5.05,14.2,14.2,0,0,0-.926,4.6,6.867,6.867,0,0,0,.477,2.553,6.551,6.551,0,0,0,1.318,2.1,6.371,6.371,0,0,0,1.992,1.43,5.873,5.873,0,0,0,2.5.533,2.546,2.546,0,0,0,1.374-.5,9.539,9.539,0,0,0,1.543-1.318,19.6,19.6,0,0,0,1.544-1.824,21.066,21.066,0,0,0,1.374-2.076q0,3.086,1.179,4.377a4.327,4.327,0,0,0,3.367,1.291,4.273,4.273,0,0,0,2.777-1.178,14.1,14.1,0,0,0,2.279-2.5,3.184,3.184,0,0,0,.386,1.015,4.914,4.914,0,0,0,1.094,1.291,7.4,7.4,0,0,0,1.29.869,2.426,2.426,0,0,0,1.038.337,1.361,1.361,0,0,0,.616-.14c.187-.093.281-.2.281-.309a10.2,10.2,0,0,1,.673-3.479,27.014,27.014,0,0,1,1.683-3.7,29.344,29.344,0,0,1,2.244-3.507q1.234-1.655,2.328-2.946a21.823,21.823,0,0,1,1.936-2.048c.562-.5.916-.757,1.066-.757s.224.149.224.449a6.357,6.357,0,0,1-.645,1.964q-.647,1.46-1.4,3.2t-1.375,3.479a8.912,8.912,0,0,0-.617,2.805,5.414,5.414,0,0,0,1.263,3.928,4.383,4.383,0,0,0,3.282,1.29,4.488,4.488,0,0,0,2.834-1.178,16.393,16.393,0,0,0,2.609-2.722q.575-.753,1.062-1.485a6.689,6.689,0,0,0,.369,1.317,6.562,6.562,0,0,0,1.317,2.1,6.373,6.373,0,0,0,1.993,1.43,5.864,5.864,0,0,0,2.5.533,2.546,2.546,0,0,0,1.375-.5,9.475,9.475,0,0,0,1.543-1.318,19.38,19.38,0,0,0,1.544-1.824,20.936,20.936,0,0,0,1.374-2.076q0,3.086,1.178,4.377a4.332,4.332,0,0,0,3.368,1.291,4.272,4.272,0,0,0,2.776-1.178,14.181,14.181,0,0,0,2.441-2.721c.324-.47.622-.931.9-1.385a6.675,6.675,0,0,0,.362,1.272,6.562,6.562,0,0,0,1.318,2.1,6.361,6.361,0,0,0,1.992,1.43,5.867,5.867,0,0,0,2.5.533,2.51,2.51,0,0,0,1.347-.477,8.7,8.7,0,0,0,1.487-1.262,18.981,18.981,0,0,0,1.515-1.8q.757-1.01,1.374-2.021v.337a5.418,5.418,0,0,0,1.263,3.928,4.386,4.386,0,0,0,3.283,1.29,4.229,4.229,0,0,0,2.8-1.178,15.477,15.477,0,0,0,2.441-2.722c.449-.633.842-1.253,1.191-1.866a8.138,8.138,0,0,0,.435,1.894,5.968,5.968,0,0,0,1.459,2.272,5.3,5.3,0,0,0,2.161,1.235,9.275,9.275,0,0,0,2.637.364,7.325,7.325,0,0,0,3.619-.954,12.907,12.907,0,0,0,3.17-2.525,1.342,1.342,0,0,1,.252.028,1.5,1.5,0,0,0,.309.028,7.1,7.1,0,0,0,3.058-.646,10.334,10.334,0,0,0,2.385-1.515c.134-.115.259-.231.382-.347,0,0,.007.008.012.01a.265.265,0,0,0,.393-.084,30.232,30.232,0,0,0,2.609-4.1q1.485-2.693,3.282-6.733a4.076,4.076,0,0,0,1.178.168,7.249,7.249,0,0,0,1.823-.224,8.763,8.763,0,0,1,.982-.224c.075,0,.1.028.085.084s-.028.066-.028.028q-.226.394-.955,1.908t-1.487,3.367q-.758,1.852-1.374,3.676a9.536,9.536,0,0,0-.618,2.833,5.494,5.494,0,0,0,1.234,3.928,4.362,4.362,0,0,0,3.31,1.29,4.49,4.49,0,0,0,2.834-1.178,16.367,16.367,0,0,0,2.609-2.722c.272-.356.522-.708.762-1.057a6.763,6.763,0,0,0,.275.888,6.561,6.561,0,0,0,1.318,2.1,6.361,6.361,0,0,0,1.992,1.43,5.87,5.87,0,0,0,2.5.533,2.546,2.546,0,0,0,1.374-.5,9.479,9.479,0,0,0,1.543-1.318,19.377,19.377,0,0,0,1.543-1.824,20.944,20.944,0,0,0,1.374-2.076q0,3.086,1.179,4.377a4.327,4.327,0,0,0,3.367,1.291,3.513,3.513,0,0,0,1.248-.248,3.707,3.707,0,0,0-.127.921,5.248,5.248,0,0,0,.477,2.216,5.651,5.651,0,0,0,1.29,1.8,5.937,5.937,0,0,0,1.88,1.178,6.061,6.061,0,0,0,2.244.421,7.55,7.55,0,0,0,2.889-.645,9.273,9.273,0,0,0,2.834-1.88,10.436,10.436,0,0,0,2.16-3.03,9.411,9.411,0,0,0,.869-4.152,9.427,9.427,0,0,0-.308-2.441q-.309-1.149-.7-2.3t-.7-2.3a9.353,9.353,0,0,1-.309-2.44,10.232,10.232,0,0,1,.281-2.329A10.092,10.092,0,0,1-86.3-445.495Zm-142.458,1.626a9.964,9.964,0,0,1-.729,1.993,27.078,27.078,0,0,1-1.375,2.553q-.813,1.347-1.739,2.721t-1.8,2.47a16.031,16.031,0,0,1-1.6,1.767q-.73.673-1.066.672a.736.736,0,0,1-.673-.364,1.614,1.614,0,0,1-.224-.869,13.783,13.783,0,0,1,.729-4.264,20.434,20.434,0,0,1,1.824-4.1,16.136,16.136,0,0,1,2.3-3.085,3.3,3.3,0,0,1,2.161-1.234,2.5,2.5,0,0,1,1.683.533A1.266,1.266,0,0,1-228.761-443.868Zm43.482,0a9.9,9.9,0,0,1-.729,1.993,27.061,27.061,0,0,1-1.374,2.553q-.814,1.347-1.739,2.721t-1.8,2.47a15.958,15.958,0,0,1-1.6,1.767q-.729.673-1.066.672a.737.737,0,0,1-.673-.364,1.619,1.619,0,0,1-.224-.869,13.781,13.781,0,0,1,.729-4.264,20.48,20.48,0,0,1,1.824-4.1,16.142,16.142,0,0,1,2.3-3.085,3.3,3.3,0,0,1,2.16-1.234,2.492,2.492,0,0,1,1.683.533A1.265,1.265,0,0,1-185.279-443.868Zm22.668,0a9.948,9.948,0,0,1-.729,1.993,27.267,27.267,0,0,1-1.375,2.553q-.814,1.347-1.739,2.721t-1.8,2.47a15.959,15.959,0,0,1-1.6,1.767q-.729.673-1.066.672a.738.738,0,0,1-.673-.364,1.62,1.62,0,0,1-.224-.869,13.784,13.784,0,0,1,.729-4.264,20.484,20.484,0,0,1,1.824-4.1,16.165,16.165,0,0,1,2.3-3.085,3.3,3.3,0,0,1,2.161-1.234,2.492,2.492,0,0,1,1.683.533A1.266,1.266,0,0,1-162.611-443.868Zm21.378,2.413a22.962,22.962,0,0,1-.785,2.805,2.9,2.9,0,0,0-1.656.925,2.737,2.737,0,0,0-.7,1.936,5.712,5.712,0,0,0,.224,1.683,7.5,7.5,0,0,1-1.4,1.768,2.615,2.615,0,0,1-1.8.644,2,2,0,0,1-2.02-1.094,5.515,5.515,0,0,1-.364-2.777,13.111,13.111,0,0,1,.869-3.591,24.252,24.252,0,0,1,1.712-3.592,11.963,11.963,0,0,1,2.16-2.777,3.374,3.374,0,0,1,2.188-1.094,1.5,1.5,0,0,1,1.43.757,4.091,4.091,0,0,1,.421,1.992A11.937,11.937,0,0,1-141.233-441.455Zm12.962-9.567q-.338,1.039-1.123,2.89a1.826,1.826,0,0,1-.7-.757,2.792,2.792,0,0,1-.14-.982,3.111,3.111,0,0,1,.224-1.011,6.741,6.741,0,0,1,.562-1.178,7.038,7.038,0,0,1,.673-.954.9.9,0,0,1,.617-.393c.149,0,.224.262.224.786A5.668,5.668,0,0,1-128.271-451.022Zm24.967,7.154a9.954,9.954,0,0,1-.729,1.993,27.246,27.246,0,0,1-1.375,2.553q-.814,1.347-1.739,2.721t-1.8,2.47a15.962,15.962,0,0,1-1.6,1.767q-.729.673-1.066.672a.738.738,0,0,1-.673-.364,1.626,1.626,0,0,1-.224-.869,13.784,13.784,0,0,1,.729-4.264,20.478,20.478,0,0,1,1.822-4.1,16.142,16.142,0,0,1,2.3-3.085,3.3,3.3,0,0,1,2.16-1.234,2.49,2.49,0,0,1,1.683.533A1.264,1.264,0,0,1-103.3-443.868Zm11.923,16a8.315,8.315,0,0,1-.925,2.3,3.918,3.918,0,0,1-1.262,1.315,2.682,2.682,0,0,1-1.375.42,2.168,2.168,0,0,1-1.824-.693,2.62,2.62,0,0,1-.533-1.64,3.378,3.378,0,0,1,.617-1.915A2.408,2.408,0,0,1-95-429.167a.1.1,0,0,0,.111-.112c0-.149-.251-.393-.757-.729a2.966,2.966,0,0,0-1.348-.481c.283-.34.559-.69.816-1.062a27.237,27.237,0,0,0,1.571-2.554,2.251,2.251,0,0,0,.448-.48,8.846,8.846,0,0,0,.786-1.371,21.833,21.833,0,0,0,1.01-2.66q.561,2.3.954,4.032a15.494,15.494,0,0,1,.393,3.414A13.2,13.2,0,0,1-91.381-427.867Z" transform="translate(243.518 460.358)"/>
          </g>
          <g id="Grupo_374" data-name="Grupo 374">
            <path id="Trazado_634" data-name="Trazado 634" d="M-261.51-437.726a7.123,7.123,0,0,0-2.274-.72q-1.022-.113-1.022.569a9.949,9.949,0,0,1-.531,2.122,37.244,37.244,0,0,1-1.516,3.865q-.985,2.2-2.274,4.661a34.247,34.247,0,0,1-2.8,4.509,19.753,19.753,0,0,1-3.145,3.411,5.13,5.13,0,0,1-3.3,1.364,7.384,7.384,0,0,1-4.888-1.819q-2.161-1.819-2.16-5.835a36.965,36.965,0,0,1,1.25-9.4,54.169,54.169,0,0,1,3.3-9.17,62.751,62.751,0,0,1,4.585-8.223,55.968,55.968,0,0,1,5.116-6.669,30.524,30.524,0,0,1,4.888-4.471,7.28,7.28,0,0,1,3.9-1.629,1.9,1.9,0,0,1,1.781,1.023,4.241,4.241,0,0,1,.569,2.084,11.572,11.572,0,0,1-1.061,4.282,37.819,37.819,0,0,1-2.5,4.926,29.487,29.487,0,0,1-2.918,4.092q-1.478,1.7-2.387,1.705a.661.661,0,0,1-.493-.19.531.531,0,0,0-.342-.19c-.2,0-.43.152-.681.455a1.6,1.6,0,0,0-.38,1.061,1.985,1.985,0,0,0,.531,1.25,5.64,5.64,0,0,0,1.364,1.174,8.281,8.281,0,0,0,1.856.872,6.547,6.547,0,0,0,2.085.34q1.137,0,2.8-1.856a27.639,27.639,0,0,0,3.221-4.509,41.093,41.093,0,0,0,2.691-5.494,13.561,13.561,0,0,0,1.136-4.888,15.447,15.447,0,0,0-.417-3.524,9.947,9.947,0,0,0-1.364-3.221,7.569,7.569,0,0,0-2.463-2.349,6.948,6.948,0,0,0-3.638-.909,13.3,13.3,0,0,0-6.252,1.819,34.314,34.314,0,0,0-6.745,4.888,53.54,53.54,0,0,0-6.517,7.2,58.437,58.437,0,0,0-5.532,8.791,54.458,54.458,0,0,0-3.828,9.587,34.228,34.228,0,0,0-1.44,9.625,16.619,16.619,0,0,0,1.137,6.29,14.4,14.4,0,0,0,3.031,4.737,13.823,13.823,0,0,0,4.282,2.993,11.932,11.932,0,0,0,4.888,1.061,9.521,9.521,0,0,0,6.745-3.032,36.259,36.259,0,0,0,5.988-8.109q-1.214,3.184-3.069,6.935t-3.714,7.01a50.6,50.6,0,0,1-3.524,5.456q-1.667,2.2-2.5,2.2a.519.519,0,0,1-.228-.039.526.526,0,0,0-.227-.037.921.921,0,0,0-.607.265,1,1,0,0,0-.3.8q0,.605,1.705,1.288a14.544,14.544,0,0,0,5.116.682,9.215,9.215,0,0,0,2.16-.265,3.683,3.683,0,0,0,1.78-.947q.074-.076,1.061-2.273t2.35-5.494q1.364-3.3,2.955-7.314t2.956-7.767q1.364-3.751,2.273-6.783a17.553,17.553,0,0,0,.91-4.4,3.117,3.117,0,0,0-1.061-2.2A8.547,8.547,0,0,0-261.51-437.726Z" transform="translate(293.301 469.025)"/>
          </g>
        </g>
        <g id="Grupo_376" data-name="Grupo 376" transform="translate(31.136 49.07)">
          <path id="Trazado_635" data-name="Trazado 635" d="M-263.928-465.444l2.918,4.868,4.922-4.017-2.82-3.552-3.127-.386" transform="translate(263.928 468.53)" fill="#d92d2d"/>
        </g>
      </g>
      <g id="Grupo_378" data-name="Grupo 378" transform="translate(-289.916 -607.994)">
        <path id="Trazado_636" data-name="Trazado 636" d="M-209.906-564.316c3.168-5.757,3.027-11.679-.407-17.586a12.6,12.6,0,0,0-9.743-6.4c-.05-.005-.1-.012-.146-.02l-1.023-.743c-.037-.078-.073-.161-.108-.25-2.487-6.262-8.368-9.756-14.3-8.5-.791.168-.91.128-1.384-.488a16.413,16.413,0,0,0-11.481-6.6c-6.038-.692-11.153,2.39-14.036,8.454-.033.069-.064.138-.1.208l-2,1.308a12.656,12.656,0,0,0-9.98,3.123c-2.672,2.542-3.985,6.416-3.7,10.909a14.479,14.479,0,0,0,4.927,10.092l.826,4.19c-.191.6-.372,1.2-.537,1.792-.407,1.455-.675,2.416-.136,3.341s1.5,1.156,2.959,1.517a1.4,1.4,0,0,0,.378.042,36.114,36.114,0,0,1,5.918.381,1.345,1.345,0,0,0,.447-.012c.455.086.9.168,1.347.248,1.241.227,2.413.441,3.563.71l.629.155a82.333,82.333,0,0,1,27.325,12.3,1.564,1.564,0,0,0,.174.1,6.758,6.758,0,0,0,2.706.978,2.065,2.065,0,0,0,.793-.159c1-.406,1.334-1.345,1.848-2.8.259-.734.531-1.46.793-2.156l.371.133a26.551,26.551,0,0,0,3.941,1.579,8.83,8.83,0,0,0,7.422-.969,9.094,9.094,0,0,0,3.828-6.691,11.423,11.423,0,0,0-1.315-6.756Z" transform="translate(280.54 607.181)" fill="#fff"/>
        <path id="Trazado_637" data-name="Trazado 637" d="M-228.6-543.686a8.275,8.275,0,0,1-3.679-1.206,3.911,3.911,0,0,1-.431-.252,80.15,80.15,0,0,0-26.594-11.982l-.652-.16c-1.071-.25-2.213-.459-3.422-.68l-1.056-.194a3.606,3.606,0,0,1-.662-.031,34.234,34.234,0,0,0-5.575-.361,3.485,3.485,0,0,1-.943-.106c-1.632-.4-3.321-.822-4.32-2.538s-.535-3.4-.081-5.03c.122-.439.253-.883.39-1.327l-.582-2.957a16.517,16.517,0,0,1-5.1-11.064c-.329-5.15,1.224-9.637,4.374-12.632a14.639,14.639,0,0,1,10.9-3.765l.882-.576c3.3-6.633,9.284-10.12,16.09-9.34a18.456,18.456,0,0,1,12.641,7.03c6.721-1.184,13.267,2.687,16.165,9.57l.068.049a14.783,14.783,0,0,1,10.974,7.458c3.706,6.372,3.92,13.062.609,19.342l-.052.37a13.687,13.687,0,0,1,1.227,7.386,11.246,11.246,0,0,1-4.786,8.257,10.983,10.983,0,0,1-9.231,1.254,20.432,20.432,0,0,1-2.464-.888c-.573,1.621-1.176,3.286-3.074,4.055A4.282,4.282,0,0,1-228.6-543.686Zm-1.692-5.1a8.475,8.475,0,0,0,1.694.73,14.048,14.048,0,0,0,.578-1.5c.265-.75.541-1.491.808-2.2l.759-2.013,2.577.932a24.95,24.95,0,0,0,3.617,1.459,6.691,6.691,0,0,0,5.614-.683,6.958,6.958,0,0,0,2.872-5.13,9.269,9.269,0,0,0-1.064-5.454l-.346-.635.358-2.551.194-.353c2.811-5.108,2.686-10.156-.382-15.433a10.412,10.412,0,0,0-8.067-5.322c-.115-.013-.2-.024-.275-.037l-.517-.082-1.9-1.381-.239-.508c-.055-.115-.107-.237-.159-.366-2.088-5.259-6.944-8.207-11.822-7.174a3.085,3.085,0,0,1-3.569-1.293,14.3,14.3,0,0,0-10-5.762c-5.123-.588-9.321,1.977-11.813,7.221l-.336.748-3.169,2.07-.748-.062a10.556,10.556,0,0,0-8.293,2.529c-2.195,2.087-3.269,5.349-3.023,9.186a12.364,12.364,0,0,0,4.215,8.612l.535.486,1.074,5.452-.171.536c-.183.572-.356,1.147-.514,1.715a7.077,7.077,0,0,0-.354,1.653,6.809,6.809,0,0,0,1.5.472,38.335,38.335,0,0,1,6.027.384l.27-.054.417.079c.45.085.894.166,1.331.246,1.278.233,2.472.451,3.671.732l.651.16A84.48,84.48,0,0,1-230.3-548.788Zm.035.024h0Zm-40.494-14.159h0Z" transform="translate(281.354 607.994)" fill="#fff"/>
      </g>
      <g id="Trazado_621" data-name="Trazado 621" transform="translate(-286.545 -604.625)">
        <path id="Trazado_638" data-name="Trazado 638" d="M-270.388-570.143a1.437,1.437,0,0,1,.636,2c-.534,1.392-1,2.816-1.4,4.252-.683,2.442-.653,2.45,1.769,3.05a37.464,37.464,0,0,1,6.158.4c.005-.032.01-.064.016-.1,1.924.371,3.707.654,5.461,1.064.21.05.418.1.627.155a83.848,83.848,0,0,1,27.81,12.516c2.5,1.243,2.484,1.24,3.331-1.158.454-1.284.949-2.557,1.362-3.667a48.846,48.846,0,0,0,5.513,2.306c4.828,1.365,8.818-1.438,9.407-6.425a9.9,9.9,0,0,0-1.352-6.247,1.5,1.5,0,0,1,.026-1.8c3.372-5.607,3.221-11.28-.021-16.855a11.144,11.144,0,0,0-8.637-5.661,2.535,2.535,0,0,1-2.464-1.923c-2.217-5.583-7.428-8.717-12.647-7.61a2.373,2.373,0,0,1-2.841-1.026,15.063,15.063,0,0,0-10.491-6.042c-5.445-.624-9.964,2.184-12.555,7.635-.425.895-.789,1.82-1.17,2.7-8.886-1.982-15.038,3.189-14.467,12.125A13.429,13.429,0,0,0-270.388-570.143ZM-226.91-551.6l-6.23-3.337-.159.276c1.544,1.2,3.041,2.469,4.648,3.578,1.366.944,1.546,1.948.5,3.355-12.552-8.457-26.14-14.2-41.741-15.1.551-1.535.963-2.846,1.511-4.1.114-.262.714-.414,1.1-.441,2.4-.158,4.806-.267,7.244-.514-1.221-.188-2.439-.415-3.666-.553-1.285-.146-2.577-.207-4.018-.317a3.125,3.125,0,0,1,3.594-2.042c4.946.713,9.941,1.284,14.782,2.469a70.623,70.623,0,0,1,19.172,8.264q.75.436,1.453.946C-225.682-556.871-225.264-555.161-226.91-551.6Zm-44.222-37.306a6.668,6.668,0,0,1,7.875-1.258,3.154,3.154,0,0,1,1.285,1.528c.716,1.624,1.3,3.307,2.11,4.9-1.51-8.488,1.112-14.387,7.511-16.577,5.175-1.77,10.766.787,13.411,6.044l-4.276,6.31.233.149a21.7,21.7,0,0,1,3.286-3.066,16.516,16.516,0,0,1,5.452-2.456c4.948-.886,8.832,2.092,10.227,7.475l-3.8,2.321c6.321-1.652,11.659-.659,15.15,5.264,2.479,4.207,2.078,10.071-.625,13.313l-2.029-1.445-.18.159a17.887,17.887,0,0,1,1.57,2.491,28.074,28.074,0,0,1,2.251,6.031c.734,4.266-2.505,7.069-6.65,5.862a24.556,24.556,0,0,1-4.643-2.272,1.315,1.315,0,0,1-.557-1.03,4.979,4.979,0,0,0-2.232-4.463c-1.407-1.087-2.921-2.042-4.43-2.99-1.65-1.036-1.784-1.953-.1-2.973,1.611-.976,3.408-1.645,5.168-2.688a26.713,26.713,0,0,0-3.278.26,12.013,12.013,0,0,0-2.569.955c-4.343,1.959-8.494,1.258-12.468-.991-3.957-2.24-5.594-6.2-4.733-11.039a2.122,2.122,0,0,0-.1-1.375c-.383.931-.8,1.849-1.141,2.8-.471,1.314-.815,2.677-1.34,3.968a3.493,3.493,0,0,1-3.516,2.3c-.289,0-.579,0-.868-.012-5.661-.244-7.9-3.047-6.911-8.631a2.375,2.375,0,0,0,.036-.858,12.834,12.834,0,0,0-1.866,7.985c-1.291.3-2.4.62-3.538.8a2.421,2.421,0,0,1-1.374-.284C-274.655-575.391-275.92-584.368-271.132-588.911Z" transform="translate(276.627 603.269)"/>
        <path id="Trazado_639" data-name="Trazado 639" d="M-227.351-545.808a6.13,6.13,0,0,1-2.176-.848,83.64,83.64,0,0,0-27.757-12.5l-.628-.155c-1.179-.276-2.364-.492-3.619-.721-.52-.095-1.048-.191-1.586-.294l-.249.051a37.227,37.227,0,0,0-6.113-.394h-.036l-.034-.009c-1.291-.319-1.939-.48-2.221-.964s-.095-1.178.254-2.425c.414-1.48.888-2.919,1.409-4.276.3-.793.188-1.155-.541-1.683a13.655,13.655,0,0,1-6.042-10.509c-.279-4.371,1.04-8.036,3.713-10.323s6.532-3.047,10.864-2.134c.09-.21.178-.421.267-.635.258-.615.525-1.253.818-1.872,2.653-5.58,7.333-8.418,12.834-7.788a15.275,15.275,0,0,1,10.677,6.147,2.111,2.111,0,0,0,2.568.925c5.36-1.138,10.688,2.062,12.958,7.777a2.272,2.272,0,0,0,2.242,1.752,11.416,11.416,0,0,1,8.843,5.8c3.365,5.787,3.372,11.551.018,17.129a1.242,1.242,0,0,0-.039,1.5,10.243,10.243,0,0,1,1.4,6.439,7.938,7.938,0,0,1-3.312,5.843,7.667,7.667,0,0,1-6.442.813,25.42,25.42,0,0,1-3.73-1.5c-.5-.234-1.019-.473-1.554-.706l-.29.77c-.315.834-.652,1.727-.97,2.625-.448,1.269-.668,1.89-1.175,2.1A.913.913,0,0,1-227.351-545.808Zm-35.907-15.1c.622.12,1.229.231,1.826.339,1.261.23,2.453.447,3.646.726l.63.155a84.018,84.018,0,0,1,27.9,12.555c1.084.537,1.753.871,2.054.75.28-.114.5-.726.855-1.741.329-.933.668-1.829.985-2.667l.49-1.305.263.113c.635.27,1.24.551,1.831.825a25.041,25.041,0,0,0,3.649,1.47,7.133,7.133,0,0,0,5.99-.742,7.4,7.4,0,0,0,3.072-5.452,9.685,9.685,0,0,0-1.315-6.074,1.768,1.768,0,0,1,.044-2.11c3.226-5.368,3.218-10.945-.042-16.551a10.876,10.876,0,0,0-8.427-5.527,2.8,2.8,0,0,1-2.693-2.093c-2.169-5.463-7.241-8.521-12.336-7.444a2.636,2.636,0,0,1-3.114-1.126,14.74,14.74,0,0,0-10.305-5.937c-5.257-.6-9.732,2.123-12.278,7.48-.289.608-.553,1.238-.808,1.848-.119.285-.237.568-.357.846l-.09.208-.221-.05c-4.253-.949-8.02-.249-10.612,1.968-2.54,2.172-3.792,5.679-3.524,9.873a13.136,13.136,0,0,0,5.817,10.1h0a1.7,1.7,0,0,1,.731,2.321c-.515,1.341-.983,2.764-1.392,4.228-.315,1.124-.471,1.723-.308,2s.8.441,1.845.7a38.169,38.169,0,0,1,5.9.362l0-.012Zm35.065,13.444-.216-.145c-13.82-9.31-27.429-14.234-41.6-15.055l-.365-.021.123-.344c.154-.429.3-.841.436-1.239.351-1.011.684-1.966,1.082-2.878.228-.522,1.288-.6,1.333-.6.645-.043,1.289-.082,1.935-.121,1.017-.061,2.054-.123,3.1-.2-.488-.076-.979-.146-1.466-.2-.877-.1-1.759-.16-2.693-.223-.426-.029-.864-.059-1.315-.093l-.378-.029.147-.35a3.4,3.4,0,0,1,3.885-2.207q1.412.2,2.827.4a119.518,119.518,0,0,1,11.98,2.077,69.937,69.937,0,0,1,19.246,8.295,17.5,17.5,0,0,1,1.474.96c3.161,2.338,3.6,4.172,1.9,7.852l-.122.263-5.34-2.86.382.305c1.047.836,2.13,1.7,3.245,2.47a2.634,2.634,0,0,1,1.267,1.67,2.766,2.766,0,0,1-.706,2.073Zm-41.425-15.724c14.069.885,27.582,5.786,41.293,14.977a2.059,2.059,0,0,0,.455-1.445,2.143,2.143,0,0,0-1.038-1.31c-1.13-.78-2.22-1.65-3.275-2.492-.46-.367-.92-.734-1.385-1.1l-.188-.146.41-.711,6.208,3.324c1.457-3.269,1.03-4.789-1.849-6.919-.458-.332-.939-.644-1.428-.928a69.464,69.464,0,0,0-19.1-8.236,119.483,119.483,0,0,0-11.925-2.067q-1.416-.2-2.83-.4a2.841,2.841,0,0,0-3.138,1.53l.914.063c.94.063,1.828.124,2.717.226.86.1,1.726.238,2.564.375.371.061.742.122,1.113.178l2.121.326-2.135.216c-1.79.181-3.587.289-5.323.394-.644.039-1.288.078-1.93.12a1.491,1.491,0,0,0-.869.278c-.39.893-.718,1.838-1.067,2.838C-269.4-563.794-269.508-563.495-269.618-563.186Zm53.077,11.773a7.06,7.06,0,0,1-1.97-.293,17.872,17.872,0,0,1-3.709-1.742c-.329-.187-.658-.373-.988-.552a1.608,1.608,0,0,1-.7-1.261,4.714,4.714,0,0,0-2.126-4.256c-1.433-1.107-3.013-2.1-4.408-2.975-.979-.615-1.434-1.182-1.429-1.783,0-.573.44-1.114,1.332-1.655.823-.5,1.672-.908,2.571-1.341.527-.254,1.065-.513,1.6-.794-.7.043-1.408.115-2.1.212a11.86,11.86,0,0,0-2.484.928c-4.108,1.854-8.266,1.526-12.726-1-4.032-2.281-5.76-6.3-4.867-11.324a1.976,1.976,0,0,0,.06-.357v0c-.265.625-.54,1.27-.771,1.914-.194.54-.366,1.088-.538,1.636-.243.774-.494,1.575-.806,2.342a3.774,3.774,0,0,1-3.771,2.466h-.17c-.236,0-.473,0-.709-.013-2.937-.127-4.949-.915-6.149-2.412-1.155-1.44-1.508-3.473-1.075-6.208a13.2,13.2,0,0,0-1.232,6.832l.009.226-.219.052c-.378.088-.739.178-1.091.265-.85.211-1.653.41-2.467.54a2.7,2.7,0,0,1-1.548-.314,10.3,10.3,0,0,1-5.3-7.819,10.431,10.431,0,0,1,2.9-9.117h0a6.969,6.969,0,0,1,8.182-1.306,3.461,3.461,0,0,1,1.42,1.674c.262.6.512,1.21.76,1.824.18.445.363.9.555,1.347-.845-7.652,1.943-12.947,7.963-15.007,5.259-1.8,11.038.8,13.744,6.181l.072.143-3.5,5.158a11.747,11.747,0,0,1,2.279-2.018,16.742,16.742,0,0,1,5.547-2.493c5.043-.9,9.079,2.039,10.54,7.676l.051.2-2.553,1.558c6.3-1.2,10.833.691,13.821,5.761,2.487,4.22,2.2,10.205-.649,13.626l-.163.194-1.548-1.1.036.05a9.981,9.981,0,0,1,1.077,1.78c.179.418.368.836.557,1.256a20.618,20.618,0,0,1,1.712,4.835,5.53,5.53,0,0,1-1.552,5.207A5.127,5.127,0,0,1-216.54-551.413Zm-7.66-17.262-.89.527c-.883.523-1.776.954-2.64,1.37-.887.427-1.725.832-2.526,1.317-.706.428-1.066.828-1.068,1.191,0,.383.391.826,1.173,1.317,1.406.882,3,1.882,4.452,3a5.21,5.21,0,0,1,2.338,4.7,1.042,1.042,0,0,0,.442.786c.306.164.637.351.969.54a17.484,17.484,0,0,0,3.593,1.693,5.1,5.1,0,0,0,4.927-.847,5,5,0,0,0,1.377-4.706,20.216,20.216,0,0,0-1.672-4.7c-.19-.422-.38-.844-.56-1.265a9.467,9.467,0,0,0-1.022-1.68c-.18-.255-.359-.51-.527-.77l-.127-.2.517-.459,2,1.422c2.564-3.284,2.771-8.847.439-12.8-3.1-5.257-7.954-6.939-14.846-5.139l-1.795.469,5.212-3.181c-1.424-5.207-5.185-7.918-9.863-7.079a16.274,16.274,0,0,0-5.357,2.42,11.774,11.774,0,0,0-2.252,2.017c-.325.345-.65.689-.988,1.013l-.156.149-.649-.417,4.342-6.408c-2.611-5.036-8.056-7.459-13.006-5.766-6.215,2.127-8.819,7.9-7.331,16.271l.323,1.815-.836-1.644c-.514-1.011-.943-2.07-1.358-3.095-.247-.609-.493-1.218-.758-1.818a2.907,2.907,0,0,0-1.177-1.4,6.365,6.365,0,0,0-7.544,1.223,9.884,9.884,0,0,0-2.736,8.643,9.761,9.761,0,0,0,5.013,7.414,2.14,2.14,0,0,0,1.226.256c.772-.125,1.565-.321,2.4-.529.285-.07.577-.143.878-.214a12.891,12.891,0,0,1,1.921-7.924l.4-.592.1.706a2.66,2.66,0,0,1-.041.957c-.485,2.725-.187,4.721.91,6.089s2.975,2.089,5.746,2.208c.229.01.458.011.687.012h.2a3.21,3.21,0,0,0,3.227-2.126c.3-.746.551-1.536.791-2.3.173-.554.348-1.11.544-1.657.236-.659.514-1.311.782-1.943.122-.288.245-.576.364-.865l.249-.6.255.6a2.4,2.4,0,0,1,.109,1.553c-.844,4.752.789,8.572,4.6,10.731,4.3,2.43,8.295,2.752,12.221.979a12.277,12.277,0,0,1,2.616-.971,27.069,27.069,0,0,1,3.338-.268Z" transform="translate(276.728 603.37)" fill="#211915"/>
      </g>
    </g>
  </g>
</svg>
