<svg xmlns="http://www.w3.org/2000/svg" xmlns:xlink="http://www.w3.org/1999/xlink" width="161" height="112" viewBox="0 0 161 112">
  <defs>
    <clipPath id="clip-loader">
      <rect width="161" height="112"/>
    </clipPath>
  </defs>
  <g id="loader" clip-path="url(#clip-loader)">
    <g id="Grupo_401" data-name="Grupo 401" transform="translate(335.912 615.994)">
      <g id="Grupo_363" data-name="Grupo 363" transform="translate(-312.912 -582.086)">
        <g id="Grupo_359" data-name="Grupo 359" transform="translate(24.795 5.297)">
          <g id="Grupo_357" data-name="Grupo 357" transform="translate(1.185 1.185)">
            <path id="Trazado_622" data-name="Trazado 622" d="M-164.975-477.954a4.487,4.487,0,0,1-1.651-.311,4.413,4.413,0,0,1-1.391-.874,4.25,4.25,0,0,1-.969-1.346,4.031,4.031,0,0,1-.291-.9,3.335,3.335,0,0,1-2.2-1.061,2.867,2.867,0,0,1-.318-.419c-.058.063-.116.125-.174.185A6.355,6.355,0,0,1-173-481.8a2.531,2.531,0,0,1-1.4.472,4.376,4.376,0,0,1-1.851-.4,4.651,4.651,0,0,1-1.446-1.04q-.117-.125-.224-.258a9.883,9.883,0,0,1-.849.789,3.584,3.584,0,0,1-2.289.908,3.558,3.558,0,0,1-2.651-1.066,4.11,4.11,0,0,1-1-2.947,4.969,4.969,0,0,1,.2-1.277,14.149,14.149,0,0,1-1.07,1.59,1.311,1.311,0,0,1-.672.465,6.891,6.891,0,0,1-1.47.917,5,5,0,0,1-2,.46,8.005,8.005,0,0,1-1.607,1.19,5.16,5.16,0,0,1-2.539.667,6.219,6.219,0,0,1-1.764-.246,4.06,4.06,0,0,1-1.647-.942,3.984,3.984,0,0,1-.532-.616,9.305,9.305,0,0,1-.871.872,3.45,3.45,0,0,1-2.3.931,3.578,3.578,0,0,1-2.627-1.056,3.156,3.156,0,0,1-.363-.448q-.094.1-.187.2a5.924,5.924,0,0,1-1.01.853,2.519,2.519,0,0,1-1.378.451,4.364,4.364,0,0,1-1.851-.4,4.644,4.644,0,0,1-1.446-1.039c-.095-.1-.184-.206-.27-.315a8.651,8.651,0,0,1-.817.8,3.466,3.466,0,0,1-2.276.924,3.5,3.5,0,0,1-2.7-1.086,2.871,2.871,0,0,1-.318-.419c-.058.063-.116.125-.174.185a6.34,6.34,0,0,1-1.032.878,2.529,2.529,0,0,1-1.4.472,4.366,4.366,0,0,1-1.851-.4,4.642,4.642,0,0,1-1.445-1.039,4.492,4.492,0,0,1-.321-.382,9.84,9.84,0,0,1-.965.912,3.583,3.583,0,0,1-2.289.909,3.575,3.575,0,0,1-2.626-1.056,4.065,4.065,0,0,1-1.022-2.956,3.865,3.865,0,0,1,.051-.606,13.273,13.273,0,0,0-.7,1.589,4.375,4.375,0,0,0-.294,1.48,1.374,1.374,0,0,1-.808,1.228,1.905,1.905,0,0,1-.863.2,2.415,2.415,0,0,1-1.111-.316,5.214,5.214,0,0,1-.908-.61c-.07-.058-.138-.118-.2-.182q-.15.142-.305.276a3.472,3.472,0,0,1-2.277.924,3.488,3.488,0,0,1-2.7-1.086,2.945,2.945,0,0,1-.318-.419q-.087.094-.174.185A6.412,6.412,0,0,1-241-481.8a2.534,2.534,0,0,1-1.4.473,4.376,4.376,0,0,1-1.852-.4,4.648,4.648,0,0,1-1.445-1.04,4.748,4.748,0,0,1-.953-1.516,4.929,4.929,0,0,1-.341-1.819,8.766,8.766,0,0,1,.568-2.886,13.994,13.994,0,0,1,1.479-2.991,10.587,10.587,0,0,1,2.21-2.48,4.785,4.785,0,0,1,3.04-1.16,3.44,3.44,0,0,1,1.5.33,5.693,5.693,0,0,1,.885.529,1.348,1.348,0,0,1,1.019-.494,3.929,3.929,0,0,1,1.132.187,5.234,5.234,0,0,1,1.1.473,3.159,3.159,0,0,1,.94.791,1.589,1.589,0,0,1,.342,1.138c.12-.331.225-.633.314-.905a4.673,4.673,0,0,0,.155-.548,1.745,1.745,0,0,1,.164-.665,1.456,1.456,0,0,1,1.385-.836,3.486,3.486,0,0,1,1.015.173,4.231,4.231,0,0,1,1.018.467,3.945,3.945,0,0,1,.829.7,2.469,2.469,0,0,1,.2.263,7.961,7.961,0,0,1,1.259-.878,3.3,3.3,0,0,1,1.575-.481,3.241,3.241,0,0,1,2.389.894,3.409,3.409,0,0,1,.895,2.511,3.1,3.1,0,0,1-.018.327c.069-.113.14-.225.212-.336a10.623,10.623,0,0,1,2.21-2.48,4.786,4.786,0,0,1,3.041-1.161,3.431,3.431,0,0,1,1.5.331,5.626,5.626,0,0,1,.885.528,1.349,1.349,0,0,1,1.019-.494,3.926,3.926,0,0,1,1.131.187,5.2,5.2,0,0,1,1.1.473,3.152,3.152,0,0,1,.942.792,1.511,1.511,0,0,1-.026,1.964,5.839,5.839,0,0,0-.638,1.081,15.241,15.241,0,0,0-.705,1.75c-.159.469-.3.95-.417,1.437q.171-.268.337-.555c.136-.235.261-.47.372-.7.017-.054.033-.108.053-.164a13.977,13.977,0,0,1,1.478-2.99,10.612,10.612,0,0,1,2.209-2.48,4.786,4.786,0,0,1,3.041-1.161,3.554,3.554,0,0,1,1.344.255,4.553,4.553,0,0,1,.684.347q.162-.422.323-.828c.319-.8.633-1.55.931-2.219l.014-.032a3.983,3.983,0,0,1-.863.094,4.585,4.585,0,0,1-3.412-1.365,4.189,4.189,0,0,1-.873-1.34,13.981,13.981,0,0,1-2.177,1.551,8.819,8.819,0,0,1-4.5,1.154,7.119,7.119,0,0,1-2.994-.613,6.459,6.459,0,0,1-2.25-1.691,7.278,7.278,0,0,1-1-1.538l-.026.03a12.383,12.383,0,0,1-2.036,1.874,11.108,11.108,0,0,1-2.5,1.379,8.261,8.261,0,0,1-3.042.558,7.121,7.121,0,0,1-2.994-.613,6.454,6.454,0,0,1-2.25-1.691,7.2,7.2,0,0,1-.927-1.391l-.008.009a13.212,13.212,0,0,1-3.176,2.531,8.82,8.82,0,0,1-4.5,1.154,7.119,7.119,0,0,1-2.993-.613,6.459,6.459,0,0,1-2.25-1.691,7.427,7.427,0,0,1-1.356-2.4,8.673,8.673,0,0,1-.46-2.843,11.182,11.182,0,0,1,.851-4.12,14.421,14.421,0,0,1,2.245-3.821,13.507,13.507,0,0,1,3.2-2.857,7.338,7.338,0,0,1,3.968-1.215,5.454,5.454,0,0,1,1.958.365A5.066,5.066,0,0,1-233.2-516.1a5.132,5.132,0,0,1,1.171,1.74,5.858,5.858,0,0,1,.419,2.257v.044a5.962,5.962,0,0,1-.092.846,14.27,14.27,0,0,1,1.52-2.268,13.506,13.506,0,0,1,3.2-2.857,7.335,7.335,0,0,1,3.967-1.215,5.535,5.535,0,0,1,2.312.458,5.594,5.594,0,0,1,1.639,1.116,4.485,4.485,0,0,1,1.037,1.579,4.607,4.607,0,0,1,.318,1.627,3.529,3.529,0,0,1-1.086,2.8,3.957,3.957,0,0,1-2.032.981,4.259,4.259,0,0,1-.614.047,3.027,3.027,0,0,1-1.319-.282,1.6,1.6,0,0,1-.957-1.124,1.5,1.5,0,0,1,.38-1.317,3.536,3.536,0,0,0,.628-.9,1.993,1.993,0,0,0,.2-.647,2.137,2.137,0,0,0-.875.546,8.624,8.624,0,0,0-1.538,1.994,12.881,12.881,0,0,0-1.164,2.7,8,8,0,0,0-.388,2.564,2.8,2.8,0,0,0,.475,1.607c.074.1.3.414,1.19.414a3.756,3.756,0,0,0,2.046-.587,9.071,9.071,0,0,0,1.9-1.57,10.5,10.5,0,0,0,1.36-1.83c.175-.3.321-.57.444-.8a13.062,13.062,0,0,1,.49-1.478,14.413,14.413,0,0,1,2.245-3.82,13.5,13.5,0,0,1,3.2-2.857,7.336,7.336,0,0,1,3.967-1.215,5.452,5.452,0,0,1,1.958.365,5.09,5.09,0,0,1,.9.449,5.251,5.251,0,0,1-.234-.882,1.591,1.591,0,0,1,.277-1.33,1.252,1.252,0,0,1,.957-.443h.156l.15.04a10.9,10.9,0,0,0,1.085.238c.353.057.7.105,1.051.147.332.04.69.067,1.064.08.17.006.349.011.534.014q.241-.564.528-1.229.485-1.124.949-2.162c.312-.7.607-1.327.876-1.866a4.755,4.755,0,0,1,.792-1.273,2.065,2.065,0,0,1,1.517-.573,3.531,3.531,0,0,1,.528.042,6.559,6.559,0,0,1,1.712.508,5.2,5.2,0,0,1,1.446.944,1.826,1.826,0,0,1,.643,1.3,1.481,1.481,0,0,1-.4,1.028c-.029.043-.114.179-.29.52q-.324.625-.711,1.421-.349.718-.681,1.435a2.545,2.545,0,0,1,.682.574,5,5,0,0,1,.694,1.039,4.241,4.241,0,0,1,.391,1.1,1.823,1.823,0,0,1,.029.466q.233-.207.473-.4a6.392,6.392,0,0,1,4.054-1.556,4.428,4.428,0,0,1,1.938.424,7.51,7.51,0,0,1,1.357.836q.125.1.241.2a1.7,1.7,0,0,1,1.374-.931,5.158,5.158,0,0,1,1.48.248,6.924,6.924,0,0,1,1.479.635,4.03,4.03,0,0,1,1.2,1.006,1.673,1.673,0,0,1-.019,2.174,8.934,8.934,0,0,0-.992,1.671,22.628,22.628,0,0,0-1.041,2.582,25.637,25.637,0,0,0-.8,2.912,14.574,14.574,0,0,0-.237,1.475q.306-.351.624-.78a21.053,21.053,0,0,0,1.243-1.908c.092-.158.178-.314.261-.467l.3-.75q.446-1.072.868-2.209t.719-1.981a13.016,13.016,0,0,1,.812-2.445,6.408,6.408,0,0,1,.931-1.5,3.042,3.042,0,0,1,.991-.8,1.966,1.966,0,0,1,.814-.214,4.084,4.084,0,0,1,1.387.267,6.415,6.415,0,0,1,1.264.619,5,5,0,0,1,1.063.895,2.321,2.321,0,0,1,.626,1.552,1.566,1.566,0,0,1-.926,1.59,6.489,6.489,0,0,0-.639,1.593,6.9,6.9,0,0,0-.188,1.551,6.165,6.165,0,0,0,.2,1.6c.152.571.329,1.149.525,1.722.212.623.4,1.253.571,1.873a8.558,8.558,0,0,1,.282,2.214,8.562,8.562,0,0,1-.8,3.761,9.364,9.364,0,0,1-1.935,2.707l-.063.06a4.333,4.333,0,0,1,1.426-.242,3.431,3.431,0,0,1,1.5.331,5.66,5.66,0,0,1,.885.528,1.347,1.347,0,0,1,1.018-.494,3.931,3.931,0,0,1,1.132.187,5.21,5.21,0,0,1,1.1.473,3.173,3.173,0,0,1,.942.792,1.644,1.644,0,0,1,.344.855,6.452,6.452,0,0,1,.245-.6,4.778,4.778,0,0,1,.7-1.13,2.451,2.451,0,0,1,.808-.641,1.72,1.72,0,0,1,.716-.181,3.186,3.186,0,0,1,1.084.207,4.844,4.844,0,0,1,.949.464,3.814,3.814,0,0,1,.816.687,1.965,1.965,0,0,1,.525,1.317,1.47,1.47,0,0,1-.742,1.382,3.987,3.987,0,0,0-.352.909,4.373,4.373,0,0,0-.122.995,3.914,3.914,0,0,0,.126,1.014c.1.389.224.782.357,1.171.152.45.288.894.4,1.324a6.311,6.311,0,0,1,.208,1.63,6.3,6.3,0,0,1-.59,2.767,6.873,6.873,0,0,1-1.418,1.982,6.229,6.229,0,0,1-1.9,1.255A5.281,5.281,0,0,1-164.975-477.954Zm-.3-3.708a.386.386,0,0,0,.138-.06.972.972,0,0,0,.288-.325,2.276,2.276,0,0,0,.148-.285,1.253,1.253,0,0,1-.449.142c-.029.007-.049.021-.084.073a.646.646,0,0,0-.132.376.485.485,0,0,0,.006.076C-165.343-481.663-165.314-481.662-165.28-481.662Zm.662-2.86a1.949,1.949,0,0,1,.279.3c0-.075,0-.15,0-.228q0-.246-.019-.5Q-164.481-484.736-164.617-484.522Zm-29.065-1.4c.129,0,.166-.033.188-.052a2.18,2.18,0,0,0,.283-.313,4.849,4.849,0,0,1-.045-.67,2.672,2.672,0,0,1,.7-1.855,2.827,2.827,0,0,1,.819-.621c.085-.288.157-.568.213-.838a5.354,5.354,0,0,0,.128-1.066c0-.072,0-.135-.008-.189a2.173,2.173,0,0,0-.192.16,5.349,5.349,0,0,0-.953,1.234,11.959,11.959,0,0,0-.844,1.772,5.969,5.969,0,0,0-.4,1.621,2.128,2.128,0,0,0,.055.814Zm28.542-5.919a5.844,5.844,0,0,0-.637,1.081,15.3,15.3,0,0,0-.705,1.75c-.159.47-.3.951-.417,1.438.114-.179.227-.365.338-.556.059-.1.114-.2.166-.3l.2-.5c.206-.494.4-1,.6-1.524s.354-.964.491-1.352c.009-.038.019-.076.028-.113C-165.1-491.888-165.12-491.863-165.141-491.839Zm-67.882-.149a1.686,1.686,0,0,1-.115.15,5.86,5.86,0,0,0-.637,1.08,15.4,15.4,0,0,0-.7,1.75c-.158.467-.3.948-.417,1.437q.171-.268.338-.555c.124-.214.238-.427.34-.633.166-.465.337-.937.518-1.423Q-233.341-491.145-233.023-491.988Zm61.7,1.208a7.629,7.629,0,0,0-1.075,1.448,9.767,9.767,0,0,0-.8,1.729q.156-.22.313-.454c.319-.474.626-.954.912-1.427a13.514,13.514,0,0,0,.684-1.27c.019-.04.037-.079.054-.117C-171.255-490.843-171.287-490.813-171.319-490.779Zm-32.144,0a7.594,7.594,0,0,0-1.074,1.447,9.81,9.81,0,0,0-.8,1.729c.1-.146.209-.3.314-.455.319-.474.626-.953.912-1.426a13.688,13.688,0,0,0,.685-1.27c.019-.041.037-.08.053-.117C-203.4-490.843-203.43-490.813-203.463-490.779Zm-12.286,0a7.6,7.6,0,0,0-1.074,1.447,9.767,9.767,0,0,0-.8,1.729c.1-.146.209-.3.314-.455.319-.473.626-.953.911-1.426a13.6,13.6,0,0,0,.685-1.27c.019-.041.037-.08.053-.117C-215.684-490.843-215.716-490.813-215.749-490.779Zm-23.568,0a7.615,7.615,0,0,0-1.073,1.446,9.773,9.773,0,0,0-.8,1.729c.1-.146.208-.3.313-.454.319-.474.626-.953.911-1.426a13.479,13.479,0,0,0,.685-1.271c.019-.041.037-.08.053-.117C-239.252-490.844-239.283-490.813-239.317-490.779Zm44.439-7.255a4.353,4.353,0,0,0-.515.768,20.429,20.429,0,0,0-1,2.039c-.354.817-.72,1.725-1.088,2.7s-.7,1.932-1,2.872c-.223.707-.413,1.387-.567,2.026q.143-.228.283-.469c.133-.229.251-.451.36-.677a8.89,8.89,0,0,1,.361-1.067,12.1,12.1,0,0,1,1.637-2.832,9.731,9.731,0,0,1,2.151-2.058,4.385,4.385,0,0,1,2.462-.89,5.579,5.579,0,0,1,2.373.462,4.321,4.321,0,0,1,1.624,1.281,4.629,4.629,0,0,1,.459.737,4.4,4.4,0,0,1-.228-1.355,4.152,4.152,0,0,1,.41-1.707,6.9,6.9,0,0,1,.918-1.487,6.549,6.549,0,0,1,.6-.641,4.064,4.064,0,0,1-1.689-1.11,3.985,3.985,0,0,1-.733-1.175q-.366.44-.74.827a8.684,8.684,0,0,1-1.4,1.193,3.141,3.141,0,0,1-1.731.594,5.778,5.778,0,0,1-2.449-.526l-.047-.022a1.424,1.424,0,0,1-.445.518Zm16.6,8.642c-.181.4-.357.817-.524,1.251q-.085.22-.163.444.133-.2.261-.415l.018-.031c.081-.3.165-.575.26-.846Q-178.354-489.19-178.276-489.391Zm-8.783-3.056q.051.162.092.329a7.494,7.494,0,0,1,.217,1.788c0,.081,0,.162,0,.242q.136-.292.277-.606.167-.37.322-.739A2.877,2.877,0,0,1-187.059-492.448Zm9.285-.719a3.2,3.2,0,0,1,.181.288,2.251,2.251,0,0,1,.3,1.093,2.134,2.134,0,0,1-.043.438q.185-.321.389-.633a11.02,11.02,0,0,1,1.478-1.824l-.165.071A7.534,7.534,0,0,1-177.774-493.166Zm-.908-6.073a.7.7,0,0,0-.482.333,1.475,1.475,0,0,0-.279.834.863.863,0,0,0,.173.56,1.034,1.034,0,0,0,.484.077.95.95,0,0,0,.466-.16,1.92,1.92,0,0,0,.59-.64,5.377,5.377,0,0,0,.581-1.463,9.206,9.206,0,0,0,.246-2.282,10.843,10.843,0,0,0-.214-2.108c-.037.054-.074.105-.11.153a3.592,3.592,0,0,1-.359.417c-.284.514-.6,1.036-.948,1.557a1.876,1.876,0,0,1,.976,1.459A1.257,1.257,0,0,1-178.682-499.239Zm-21.005-3.717-12.979-2.233c0,.066.007.132.012.2a2.257,2.257,0,0,0,.251.91,1.3,1.3,0,0,0,.489.5,1.876,1.876,0,0,0,.951.185,4.094,4.094,0,0,0,2.207-.592,8.378,8.378,0,0,0,1.884-1.555,8.612,8.612,0,0,0,1.254-1.789c.145-.284.271-.536.379-.761.042-.151.135-.475.137-.483a7.727,7.727,0,0,1-1.7,1.785,8.244,8.244,0,0,1-3.144,1.444,7.85,7.85,0,0,1-1.806.2Q-212.2-505.143-212.666-505.189Zm-27.7,0c0,.066.007.132.012.2a2.263,2.263,0,0,0,.25.909,1.308,1.308,0,0,0,.489.5,1.878,1.878,0,0,0,.951.185,4.1,4.1,0,0,0,2.208-.592,8.381,8.381,0,0,0,1.883-1.555,8.6,8.6,0,0,0,1.254-1.789q.221-.433.386-.773c.04-.157.085-.315.132-.472a7.728,7.728,0,0,1-1.7,1.786,8.231,8.231,0,0,1-3.144,1.444,7.844,7.844,0,0,1-1.806.2Q-239.9-505.143-240.371-505.189Zm43.947-9.205c-.923,2.147-1.7,4.188-2.3,6.077a20.546,20.546,0,0,0-.909,4.047q.319-.364.657-.808a18.23,18.23,0,0,0,1.255-1.893c.037-.065.072-.128.107-.191.108-.4.232-.794.369-1.186a19.6,19.6,0,0,1,2.076-4.2,15.819,15.819,0,0,1,1.332-1.768c-.039,0-.08,0-.12,0a2.858,2.858,0,0,1-.413-.035h0s-.084-.009-.31-.009-.552-.007-.966-.023C-195.861-514.385-196.122-514.391-196.424-514.395Zm9.4,2.32c-.009,0-.279.033-.841.607a11.5,11.5,0,0,0-1.624,2.186,14.834,14.834,0,0,0-1.318,2.964,10.57,10.57,0,0,0-.454,2.012q.291-.321.614-.727c.434-.546.887-1.17,1.347-1.852s.914-1.392,1.328-2.077a20.153,20.153,0,0,0,1.013-1.881,7.8,7.8,0,0,0,.442-1.128A1.013,1.013,0,0,0-187.028-512.075Zm-22.589-.539a6.385,6.385,0,0,0-.636.739,11.858,11.858,0,0,0-.849,1.327c.03-.029.06-.058.09-.088a7.013,7.013,0,0,0,.993-1.256A7.893,7.893,0,0,0-209.617-512.613Zm-27.7,0a6.334,6.334,0,0,0-.637.74,11.879,11.879,0,0,0-.848,1.326c.03-.028.06-.057.09-.087a7.031,7.031,0,0,0,.994-1.257A7.872,7.872,0,0,0-237.322-512.613Zm33-1.75a5.784,5.784,0,0,1,.419,2.124c.248-.7.515-1.418.8-2.159h-.714a2.019,2.019,0,0,1-.553-.076Q-204.347-514.42-204.324-514.363Z" transform="translate(247.13 525.981)" fill="#fff"/>
          </g>
          <g id="Grupo_358" data-name="Grupo 358">
            <path id="Trazado_623" data-name="Trazado 623" d="M-198.423-526.612a2.382,2.382,0,0,1,.351.029,5.354,5.354,0,0,1,1.4.417,4,4,0,0,1,1.118.723q.438.417.176.679a4.046,4.046,0,0,0-.46.767q-.329.635-.724,1.447t-.767,1.622q-.373.812-.635,1.337h1.1q.175,0,.483.351a3.784,3.784,0,0,1,.526.789,3.109,3.109,0,0,1,.285.789c.043.235-.022.351-.2.351a1.744,1.744,0,0,1-.241-.022,3.856,3.856,0,0,0-.482-.022q-.329,0-.921-.022t-1.6-.022a70.5,70.5,0,0,0-2.652,6.9,18.781,18.781,0,0,0-1.03,5.59q0,.877.57.876.306,0,.943-.613a13.676,13.676,0,0,0,1.337-1.535,19.315,19.315,0,0,0,1.337-2.017c.067-.115.128-.227.19-.34.1-.4.229-.807.38-1.238a18.337,18.337,0,0,1,1.951-3.945,13.536,13.536,0,0,1,2.827-3.179,5.221,5.221,0,0,1,3.31-1.293,3.248,3.248,0,0,1,1.425.307,6.289,6.289,0,0,1,1.139.7,4.681,4.681,0,0,1,.811.789q.306.395.395.526a12.5,12.5,0,0,1,.7-1.315q.307-.482.439-.483a4.06,4.06,0,0,1,1.14.2,5.745,5.745,0,0,1,1.227.526,2.869,2.869,0,0,1,.855.7.491.491,0,0,1,.022.68,9.982,9.982,0,0,0-1.162,1.929,23.775,23.775,0,0,0-1.1,2.718,26.729,26.729,0,0,0-.833,3.046,14.181,14.181,0,0,0-.329,2.915,1.167,1.167,0,0,0,.154.636.44.44,0,0,0,.372.241q.307,0,.965-.614a11.214,11.214,0,0,0,1.337-1.534,22.118,22.118,0,0,0,1.315-2.017q.166-.287.312-.562l.323-.816q.438-1.051.877-2.231t.745-2.056a12.163,12.163,0,0,1,.745-2.274,5.342,5.342,0,0,1,.745-1.225,2.015,2.015,0,0,1,.592-.5,1.02,1.02,0,0,1,.329-.11,2.954,2.954,0,0,1,.987.2,5.2,5.2,0,0,1,1.03.5,3.792,3.792,0,0,1,.811.679,1.155,1.155,0,0,1,.329.768c0,.321-.081.489-.241.5a.671.671,0,0,0-.46.372,7.9,7.9,0,0,0-.833,2.039,8.005,8.005,0,0,0-.219,1.819,7.314,7.314,0,0,0,.241,1.907q.24.9.548,1.8t.548,1.8a7.349,7.349,0,0,1,.241,1.907,7.36,7.36,0,0,1-.68,3.244,8.155,8.155,0,0,1-1.688,2.367,7.236,7.236,0,0,1-2.214,1.468,5.883,5.883,0,0,1-2.257.5,4.732,4.732,0,0,1-1.754-.329,4.641,4.641,0,0,1-1.469-.921c-.086-.081-.166-.166-.246-.253-.028.122-.06.248-.1.383a23.389,23.389,0,0,1-.761,2.222.919.919,0,0,0,.426.061,6.717,6.717,0,0,0,1.034-.092,6.685,6.685,0,0,1,1.034-.091,1.35,1.35,0,0,1,.608.152,2.333,2.333,0,0,1,.547.382,2.071,2.071,0,0,1,.4.5,1.076,1.076,0,0,1,.152.518.608.608,0,0,1-.091.367q-.273.457-.638,1.221t-.7,1.633a15.968,15.968,0,0,0-.563,1.755,6.448,6.448,0,0,0-.227,1.587.812.812,0,0,0,.106.443.3.3,0,0,0,.259.167q.212,0,.684-.426a9.462,9.462,0,0,0,.988-1.064,12.133,12.133,0,0,0,.973-1.4c.038-.064.072-.125.108-.187.074-.291.16-.59.272-.908a12.753,12.753,0,0,1,1.353-2.737,9.4,9.4,0,0,1,1.962-2.2,3.619,3.619,0,0,1,2.3-.9,2.25,2.25,0,0,1,.988.213,4.364,4.364,0,0,1,.791.487,3.267,3.267,0,0,1,.562.547q.213.274.274.365a8.8,8.8,0,0,1,.487-.912q.212-.334.3-.335a2.8,2.8,0,0,1,.791.137,3.984,3.984,0,0,1,.852.365,1.986,1.986,0,0,1,.593.487.34.34,0,0,1,.015.471,6.961,6.961,0,0,0-.806,1.338,16.492,16.492,0,0,0-.76,1.885,18.539,18.539,0,0,0-.578,2.114,9.807,9.807,0,0,0-.228,2.022.805.805,0,0,0,.106.441.3.3,0,0,0,.258.167q.213,0,.669-.426a7.742,7.742,0,0,0,.927-1.064,15.029,15.029,0,0,0,.913-1.4c.077-.133.149-.263.217-.39l.224-.566q.3-.729.608-1.548t.517-1.426a8.461,8.461,0,0,1,.517-1.578,3.726,3.726,0,0,1,.517-.849,1.4,1.4,0,0,1,.411-.349.713.713,0,0,1,.228-.076,2.05,2.05,0,0,1,.684.137,3.622,3.622,0,0,1,.714.35,2.622,2.622,0,0,1,.562.472.8.8,0,0,1,.228.532c0,.223-.056.34-.167.35s-.218.1-.319.258a5.476,5.476,0,0,0-.578,1.414,5.545,5.545,0,0,0-.152,1.263,5.065,5.065,0,0,0,.167,1.322q.166.624.38,1.247t.38,1.247a5.111,5.111,0,0,1,.167,1.323,5.1,5.1,0,0,1-.471,2.251,5.66,5.66,0,0,1-1.171,1.642,5.024,5.024,0,0,1-1.536,1.019,4.09,4.09,0,0,1-1.566.35,3.291,3.291,0,0,1-1.216-.228,3.207,3.207,0,0,1-1.019-.639,3.057,3.057,0,0,1-.7-.973,2.852,2.852,0,0,1-.259-1.2,2.014,2.014,0,0,1,.069-.5,1.9,1.9,0,0,1-.677.135,2.344,2.344,0,0,1-1.825-.7,3.494,3.494,0,0,1-.639-2.372,11.357,11.357,0,0,1-.745,1.125,10.458,10.458,0,0,1-.836.989,5.137,5.137,0,0,1-.836.714,1.38,1.38,0,0,1-.745.274,3.176,3.176,0,0,1-1.353-.289,3.448,3.448,0,0,1-1.08-.775,3.563,3.563,0,0,1-.714-1.141,3.6,3.6,0,0,1-.148-.482c-.13.189-.266.38-.413.573a8.86,8.86,0,0,1-1.414,1.475,2.432,2.432,0,0,1-1.536.638,2.364,2.364,0,0,1-1.794-.7,2.976,2.976,0,0,1-.669-2.128,5.168,5.168,0,0,1,.335-1.536q.334-.988.745-1.992t.806-1.825q.4-.821.517-1.034c0,.008,0,.012,0,.012s.006-.009.013-.027-.005-.046-.046-.046a4.772,4.772,0,0,0-.532.122,3.93,3.93,0,0,1-.988.122,2.2,2.2,0,0,1-.639-.092q-.973,2.19-1.779,3.649a16.42,16.42,0,0,1-1.414,2.22.158.158,0,0,1-.124.075.17.17,0,0,1-.089-.029l-.006-.005c-.067.063-.134.126-.207.188a5.614,5.614,0,0,1-1.292.821,3.849,3.849,0,0,1-1.658.35.843.843,0,0,1-.167-.015.7.7,0,0,0-.137-.015,6.987,6.987,0,0,1-1.718,1.368,3.971,3.971,0,0,1-1.962.517,5.028,5.028,0,0,1-1.429-.2,2.873,2.873,0,0,1-1.171-.669,3.235,3.235,0,0,1-.791-1.232,4.4,4.4,0,0,1-.236-1.026c-.19.331-.4.668-.646,1.011a8.394,8.394,0,0,1-1.323,1.475,2.291,2.291,0,0,1-1.52.638,2.377,2.377,0,0,1-1.779-.7,2.934,2.934,0,0,1-.684-2.128v-.183q-.335.548-.745,1.095a10.294,10.294,0,0,1-.821.973,4.737,4.737,0,0,1-.806.684,1.365,1.365,0,0,1-.73.258,3.174,3.174,0,0,1-1.353-.289,3.448,3.448,0,0,1-1.08-.775,3.562,3.562,0,0,1-.714-1.141,3.635,3.635,0,0,1-.2-.689c-.15.246-.312.5-.488.75A7.683,7.683,0,0,1-213.516-485a2.314,2.314,0,0,1-1.5.639,2.345,2.345,0,0,1-1.825-.7,3.494,3.494,0,0,1-.639-2.372,11.347,11.347,0,0,1-.744,1.125,10.408,10.408,0,0,1-.837.989,5.117,5.117,0,0,1-.836.714,1.38,1.38,0,0,1-.745.274,3.174,3.174,0,0,1-1.353-.289,3.454,3.454,0,0,1-1.08-.775,3.562,3.562,0,0,1-.714-1.141,3.629,3.629,0,0,1-.2-.714q-.264.4-.575.8a8.888,8.888,0,0,1-1.414,1.475,2.432,2.432,0,0,1-1.536.638,2.376,2.376,0,0,1-1.779-.7,2.933,2.933,0,0,1-.684-2.128,4.83,4.83,0,0,1,.334-1.521q.335-.942.745-1.885t.761-1.734a3.443,3.443,0,0,0,.35-1.064c0-.162-.041-.244-.122-.244s-.273.137-.578.411a11.753,11.753,0,0,0-1.049,1.11q-.592.7-1.262,1.6a15.918,15.918,0,0,0-1.216,1.9,14.608,14.608,0,0,0-.912,2.007,5.528,5.528,0,0,0-.365,1.885c0,.061-.051.117-.152.167a.733.733,0,0,1-.334.076,1.315,1.315,0,0,1-.563-.183,3.992,3.992,0,0,1-.7-.471,2.645,2.645,0,0,1-.592-.7,1.726,1.726,0,0,1-.21-.55A7.64,7.64,0,0,1-237.083-485a2.314,2.314,0,0,1-1.505.639,2.344,2.344,0,0,1-1.825-.7,3.5,3.5,0,0,1-.639-2.372,11.429,11.429,0,0,1-.744,1.125,10.576,10.576,0,0,1-.837.989,5.169,5.169,0,0,1-.836.714,1.38,1.38,0,0,1-.745.274,3.177,3.177,0,0,1-1.353-.289,3.452,3.452,0,0,1-1.08-.775,3.556,3.556,0,0,1-.714-1.141,3.725,3.725,0,0,1-.258-1.384,7.7,7.7,0,0,1,.5-2.494,12.733,12.733,0,0,1,1.353-2.737,9.371,9.371,0,0,1,1.962-2.2,3.617,3.617,0,0,1,2.3-.9,2.253,2.253,0,0,1,.989.213,4.378,4.378,0,0,1,.791.487,3.271,3.271,0,0,1,.563.547c.141.182.233.3.274.365a8.58,8.58,0,0,1,.487-.912c.141-.223.243-.335.3-.335a2.8,2.8,0,0,1,.791.137,3.982,3.982,0,0,1,.851.365,1.986,1.986,0,0,1,.593.487.34.34,0,0,1,.015.471,6.941,6.941,0,0,0-.806,1.338,16.5,16.5,0,0,0-.759,1.885,18.376,18.376,0,0,0-.578,2.114,9.782,9.782,0,0,0-.228,2.022.805.805,0,0,0,.106.441.3.3,0,0,0,.258.167q.213,0,.669-.426a7.741,7.741,0,0,0,.927-1.064,15.175,15.175,0,0,0,.912-1.4c.155-.267.29-.523.409-.768.171-.479.346-.966.534-1.467q.38-1.018.714-1.9t.547-1.536a3.669,3.669,0,0,0,.213-.866.583.583,0,0,1,.06-.228c.041-.092.142-.137.3-.137a2.366,2.366,0,0,1,.669.122,3.024,3.024,0,0,1,.73.335,2.725,2.725,0,0,1,.578.486.831.831,0,0,1,.243.548,1.923,1.923,0,0,1-.137.623q-.136.38-.319.821t-.38.882a8.522,8.522,0,0,0-.32.806,13.761,13.761,0,0,1,1.216-1.718,12.676,12.676,0,0,1,1.338-1.4,7.2,7.2,0,0,1,1.277-.928,2.225,2.225,0,0,1,1-.335,2.1,2.1,0,0,1,1.551.548,2.277,2.277,0,0,1,.547,1.673,3.451,3.451,0,0,1-.41,1.429q-.411.851-.882,1.809t-.882,1.885a4.127,4.127,0,0,0-.41,1.627.81.81,0,0,0,.107.441.3.3,0,0,0,.258.167q.213,0,.684-.426a10.478,10.478,0,0,0,1-1.064,11.055,11.055,0,0,0,.989-1.4,9.942,9.942,0,0,0,.535-1.01c.01-.029.017-.055.027-.085a12.754,12.754,0,0,1,1.353-2.737,9.39,9.39,0,0,1,1.962-2.2,3.618,3.618,0,0,1,2.3-.9,2.25,2.25,0,0,1,.988.213,4.351,4.351,0,0,1,.791.487,3.27,3.27,0,0,1,.563.547c.141.182.233.3.274.365a8.72,8.72,0,0,1,.487-.912q.213-.334.3-.335a2.8,2.8,0,0,1,.791.137,3.972,3.972,0,0,1,.851.365,1.98,1.98,0,0,1,.593.487.34.34,0,0,1,.015.471,6.94,6.94,0,0,0-.806,1.338,16.5,16.5,0,0,0-.76,1.885,18.544,18.544,0,0,0-.577,2.114,9.784,9.784,0,0,0-.228,2.022.8.8,0,0,0,.107.441.3.3,0,0,0,.258.167q.213,0,.669-.426a7.74,7.74,0,0,0,.927-1.064,15.019,15.019,0,0,0,.912-1.4c.175-.3.324-.587.452-.861.023-.069.04-.133.064-.2a12.771,12.771,0,0,1,1.353-2.737,9.4,9.4,0,0,1,1.962-2.2,3.618,3.618,0,0,1,2.3-.9,2.36,2.36,0,0,1,.9.167,3.175,3.175,0,0,1,.73.41,3.784,3.784,0,0,1,.547.5q.228.258.35.411.457-1.278.928-2.464t.912-2.174q.441-.988.791-1.658a4.016,4.016,0,0,1,.563-.882.6.6,0,0,1,.44-.149,1.554,1.554,0,0,1,.275.027,4.034,4.034,0,0,1,.989.32,2.938,2.938,0,0,1,.775.5q.289.274.076.426a3.97,3.97,0,0,0-.851,1.141,21.52,21.52,0,0,0-1.065,2.159q-.547,1.262-1.11,2.752t-1.019,2.934q-.456,1.446-.73,2.722a10.323,10.323,0,0,0-.274,2.068.807.807,0,0,0,.106.441.3.3,0,0,0,.258.167q.213,0,.669-.426a7.75,7.75,0,0,0,.928-1.064,15.243,15.243,0,0,0,.912-1.4c.175-.3.323-.587.451-.859a8.057,8.057,0,0,1,.339-1.026,10.873,10.873,0,0,1,1.475-2.554,8.5,8.5,0,0,1,1.886-1.81,3.3,3.3,0,0,1,1.794-.684,4.4,4.4,0,0,1,1.87.35,3.139,3.139,0,0,1,1.186.928,3.554,3.554,0,0,1,.623,1.322,6.294,6.294,0,0,1,.182,1.506,8.177,8.177,0,0,1-.273,2.1,10.517,10.517,0,0,1-.761,2.007,2.209,2.209,0,0,0,.684-.228,5,5,0,0,0,.852-.532,5.16,5.16,0,0,0,.836-.806c.036-.043.069-.09.1-.135.114-.225.223-.44.323-.64q.365-.73.776-1.643t.745-1.794a2.153,2.153,0,0,1-1.414-1.11,3.535,3.535,0,0,1-.319-1.384,2.98,2.98,0,0,1,.3-1.216,5.7,5.7,0,0,1,.76-1.231,5.055,5.055,0,0,1,1.019-.958,1.894,1.894,0,0,1,1.079-.4,1.188,1.188,0,0,1,.293.049,4.352,4.352,0,0,1-.024-.457,2.9,2.9,0,0,1,.1-.713,2.739,2.739,0,0,1-.974.187,3.378,3.378,0,0,1-2.63-1.008,5.041,5.041,0,0,1-.921-3.419,16.365,16.365,0,0,1-1.074,1.622,15.029,15.029,0,0,1-1.205,1.425,7.453,7.453,0,0,1-1.206,1.03,1.988,1.988,0,0,1-1.074.395,4.584,4.584,0,0,1-1.951-.417,4.977,4.977,0,0,1-1.557-1.118,5.133,5.133,0,0,1-1.03-1.644,5.283,5.283,0,0,1-.232-.769c-.188.3-.385.6-.6.9a12.122,12.122,0,0,1-1.908,2.126,3.3,3.3,0,0,1-2.191.921,3.429,3.429,0,0,1-2.565-1.009,4.2,4.2,0,0,1-.985-3.013c-.192.242-.395.484-.614.726a12,12,0,0,1-2.893,2.3,7.616,7.616,0,0,1-3.9.994,5.921,5.921,0,0,1-2.5-.5,5.258,5.258,0,0,1-1.841-1.381,6.218,6.218,0,0,1-1.139-2.016,7.032,7.032,0,0,1-.306-1.264,21.311,21.311,0,0,1-1.382,1.764,11.124,11.124,0,0,1-1.841,1.695,9.857,9.857,0,0,1-2.235,1.232,7.055,7.055,0,0,1-2.609.476,5.921,5.921,0,0,1-2.5-.5,5.254,5.254,0,0,1-1.841-1.381,6.2,6.2,0,0,1-1.14-2.016,7,7,0,0,1-.275-1.079,13.27,13.27,0,0,1-1.3,1.685,11.979,11.979,0,0,1-2.893,2.3,7.616,7.616,0,0,1-3.9.994,5.922,5.922,0,0,1-2.5-.5,5.254,5.254,0,0,1-1.841-1.381,6.212,6.212,0,0,1-1.14-2.016,7.456,7.456,0,0,1-.395-2.455,9.962,9.962,0,0,1,.767-3.682,13.166,13.166,0,0,1,2.06-3.507,12.278,12.278,0,0,1,2.915-2.609,6.146,6.146,0,0,1,3.332-1.03,4.254,4.254,0,0,1,1.534.286,3.874,3.874,0,0,1,1.316.836,3.942,3.942,0,0,1,.9,1.341,4.661,4.661,0,0,1,.329,1.8,5.288,5.288,0,0,1-.679,2.353,6.413,6.413,0,0,1-1.754,2.023,7.032,7.032,0,0,1-2.7,1.231,6.627,6.627,0,0,1-1.532.171,9.306,9.306,0,0,1-2.019-.238,7.281,7.281,0,0,0-.066,1.671,3.421,3.421,0,0,0,.395,1.385,2.484,2.484,0,0,0,.921.946,3.03,3.03,0,0,0,1.556.351,5.294,5.294,0,0,0,2.828-.767,9.532,9.532,0,0,0,2.148-1.776,9.752,9.752,0,0,0,1.425-2.038q.264-.516.45-.906a11.629,11.629,0,0,1,.492-1.527,13.166,13.166,0,0,1,2.06-3.507,12.262,12.262,0,0,1,2.915-2.609,6.146,6.146,0,0,1,3.332-1.03,4.343,4.343,0,0,1,1.819.351,4.4,4.4,0,0,1,1.293.876,3.286,3.286,0,0,1,.767,1.162,3.411,3.411,0,0,1,.241,1.205,2.407,2.407,0,0,1-.679,1.907,2.784,2.784,0,0,1-1.425.7,3.032,3.032,0,0,1-.443.034,1.847,1.847,0,0,1-.807-.166q-.5-.241-.2-.592a4.61,4.61,0,0,0,.811-1.184,3.043,3.043,0,0,0,.307-1.14,1.507,1.507,0,0,0-.2-.877.81.81,0,0,0-.745-.35,2.853,2.853,0,0,0-1.929.9,9.735,9.735,0,0,0-1.754,2.266,14,14,0,0,0-1.271,2.947,9.118,9.118,0,0,0-.438,2.948,3.967,3.967,0,0,0,.7,2.266,2.478,2.478,0,0,0,2.148.9,4.95,4.95,0,0,0,2.674-.767,10.216,10.216,0,0,0,2.148-1.776,11.625,11.625,0,0,0,1.512-2.038c.214-.373.389-.692.53-.967a11.773,11.773,0,0,1,.478-1.466,13.166,13.166,0,0,1,2.06-3.507,12.257,12.257,0,0,1,2.915-2.609,6.144,6.144,0,0,1,3.331-1.03,4.257,4.257,0,0,1,1.534.286,3.868,3.868,0,0,1,1.315.836,3.93,3.93,0,0,1,.9,1.341,4.653,4.653,0,0,1,.329,1.8,5.288,5.288,0,0,1-.679,2.353,6.412,6.412,0,0,1-1.754,2.023,7.034,7.034,0,0,1-2.7,1.231,6.625,6.625,0,0,1-1.532.171,9.3,9.3,0,0,1-2.019-.238,7.239,7.239,0,0,0-.066,1.671,3.408,3.408,0,0,0,.395,1.385,2.483,2.483,0,0,0,.921.946,3.029,3.029,0,0,0,1.556.351,5.294,5.294,0,0,0,2.828-.767,9.524,9.524,0,0,0,2.148-1.776,9.737,9.737,0,0,0,1.425-2.038c.17-.333.315-.625.437-.879.051-.18.1-.359.154-.546q.461-1.578,1.118-3.441t1.491-3.923h-2.455a.958.958,0,0,1-.767-.416,3.569,3.569,0,0,1-.526-.921,4.547,4.547,0,0,1-.263-.9q-.066-.395.066-.395a11.96,11.96,0,0,0,1.206.263q.547.088,1.1.153t1.162.088q.613.022,1.359.022.35-.832.833-1.951t.943-2.148q.46-1.029.855-1.819a4.672,4.672,0,0,1,.57-.964.922.922,0,0,1,.679-.226m-16.289,16.347a2.835,2.835,0,0,0,1.254-.3,5.416,5.416,0,0,0,1.468-1.052,8.133,8.133,0,0,0,1.162-1.469,7.622,7.622,0,0,0,.745-1.512,2.644,2.644,0,0,0,.175-1.184q-.066-.482-.5-.482a2.2,2.2,0,0,0-1.293.5,6.492,6.492,0,0,0-1.315,1.359,13.512,13.512,0,0,0-1.184,1.929,18.7,18.7,0,0,0-.943,2.17,2.886,2.886,0,0,0,.434.033m-27.7,0a2.832,2.832,0,0,0,1.254-.3,5.411,5.411,0,0,0,1.468-1.052,8.132,8.132,0,0,0,1.161-1.469,7.58,7.58,0,0,0,.746-1.512,2.642,2.642,0,0,0,.175-1.184c-.043-.321-.212-.482-.5-.482a2.2,2.2,0,0,0-1.293.5,6.5,6.5,0,0,0-1.315,1.359,13.513,13.513,0,0,0-1.184,1.929,18.761,18.761,0,0,0-.942,2.17,2.886,2.886,0,0,0,.434.033m48.794,6.061q.263,0,.833-.526a12.521,12.521,0,0,0,1.25-1.381q.679-.855,1.4-1.929t1.359-2.126a21.172,21.172,0,0,0,1.074-1.995,7.748,7.748,0,0,0,.57-1.556.99.99,0,0,0-.395-.943,1.949,1.949,0,0,0-1.315-.416,2.582,2.582,0,0,0-1.688.964,12.6,12.6,0,0,0-1.8,2.412,15.919,15.919,0,0,0-1.425,3.2,10.776,10.776,0,0,0-.57,3.332,1.265,1.265,0,0,0,.175.679.575.575,0,0,0,.526.285m13.02,6.137a2.087,2.087,0,0,0,1.074-.328,3.056,3.056,0,0,0,.986-1.028,6.488,6.488,0,0,0,.724-1.793,10.338,10.338,0,0,0,.285-2.582,12.089,12.089,0,0,0-.307-2.668q-.307-1.357-.745-3.149a17.109,17.109,0,0,1-.789,2.078,6.888,6.888,0,0,1-.614,1.071,1.754,1.754,0,0,1-.351.376,21.15,21.15,0,0,1-1.227,1.995c-.2.291-.416.565-.638.831a2.311,2.311,0,0,1,1.054.375c.395.263.592.454.592.57a.077.077,0,0,1-.088.088,1.882,1.882,0,0,0-1.315.846,2.642,2.642,0,0,0-.482,1.5,2.045,2.045,0,0,0,.417,1.28,1.691,1.691,0,0,0,1.425.542m-5.164,2.606q.426-1,.609-1.566a3.068,3.068,0,0,0,.182-.866c0-.284-.041-.426-.122-.426a.488.488,0,0,0-.334.213,3.762,3.762,0,0,0-.365.517,3.624,3.624,0,0,0-.3.638,1.681,1.681,0,0,0-.121.547,1.512,1.512,0,0,0,.076.532.988.988,0,0,0,.38.41m-9.731,8.91a1.416,1.416,0,0,0,.973-.35,4.057,4.057,0,0,0,.76-.958,3.094,3.094,0,0,1-.122-.912,1.485,1.485,0,0,1,.38-1.05,1.572,1.572,0,0,1,.9-.5,12.434,12.434,0,0,0,.425-1.521,6.473,6.473,0,0,0,.152-1.308,2.22,2.22,0,0,0-.229-1.08.814.814,0,0,0-.775-.41,1.828,1.828,0,0,0-1.186.593,6.487,6.487,0,0,0-1.171,1.505,13.107,13.107,0,0,0-.928,1.947,7.1,7.1,0,0,0-.471,1.946,2.992,2.992,0,0,0,.2,1.505,1.084,1.084,0,0,0,1.095.593m19.371,0q.183,0,.578-.365a8.621,8.621,0,0,0,.867-.958q.471-.593.973-1.338t.943-1.475a14.677,14.677,0,0,0,.745-1.384,5.415,5.415,0,0,0,.4-1.08.686.686,0,0,0-.274-.654,1.348,1.348,0,0,0-.912-.289,1.788,1.788,0,0,0-1.171.669,8.742,8.742,0,0,0-1.247,1.672,11.087,11.087,0,0,0-.988,2.22,7.473,7.473,0,0,0-.4,2.311.883.883,0,0,0,.121.472.4.4,0,0,0,.365.2m-32.143,0q.182,0,.578-.365a8.624,8.624,0,0,0,.867-.958q.471-.593.973-1.338t.943-1.475a14.676,14.676,0,0,0,.745-1.384,5.359,5.359,0,0,0,.395-1.08.686.686,0,0,0-.274-.654,1.348,1.348,0,0,0-.912-.289,1.791,1.791,0,0,0-1.171.669,8.757,8.757,0,0,0-1.247,1.672,11.089,11.089,0,0,0-.989,2.22,7.473,7.473,0,0,0-.395,2.311.876.876,0,0,0,.122.472.4.4,0,0,0,.365.2m-12.285,0q.182,0,.578-.365a8.625,8.625,0,0,0,.866-.958q.471-.593.974-1.338t.943-1.475a14.57,14.57,0,0,0,.745-1.384,5.361,5.361,0,0,0,.395-1.08.685.685,0,0,0-.273-.654,1.349,1.349,0,0,0-.912-.289,1.789,1.789,0,0,0-1.171.669,8.74,8.74,0,0,0-1.247,1.672,11.064,11.064,0,0,0-.988,2.22,7.472,7.472,0,0,0-.395,2.311.879.879,0,0,0,.121.472.4.4,0,0,0,.365.2m-23.567,0q.182,0,.578-.365a8.663,8.663,0,0,0,.866-.958q.471-.593.973-1.338t.943-1.475a14.585,14.585,0,0,0,.745-1.384,5.391,5.391,0,0,0,.4-1.08.686.686,0,0,0-.274-.654,1.35,1.35,0,0,0-.912-.289,1.791,1.791,0,0,0-1.171.669,8.74,8.74,0,0,0-1.246,1.672,11.067,11.067,0,0,0-.988,2.22,7.473,7.473,0,0,0-.4,2.311.877.877,0,0,0,.122.472.4.4,0,0,0,.365.2m77.028,4.257a1.449,1.449,0,0,0,.745-.228,2.117,2.117,0,0,0,.684-.713,4.509,4.509,0,0,0,.5-1.244,7.157,7.157,0,0,0,.2-1.791,8.4,8.4,0,0,0-.213-1.851q-.213-.941-.517-2.185a11.761,11.761,0,0,1-.547,1.441,4.8,4.8,0,0,1-.426.743,1.21,1.21,0,0,1-.243.26,14.769,14.769,0,0,1-.851,1.384c-.139.2-.289.391-.442.576a1.6,1.6,0,0,1,.731.26c.274.182.41.315.41.4a.054.054,0,0,1-.06.061,1.3,1.3,0,0,0-.912.587,1.83,1.83,0,0,0-.335,1.038,1.419,1.419,0,0,0,.289.888,1.175,1.175,0,0,0,.989.376m-31.328-46.689a3.225,3.225,0,0,0-2.355.92,5.8,5.8,0,0,0-1.014,1.58c-.277.555-.58,1.2-.9,1.913s-.635,1.436-.955,2.176l-.209.486c-.241-.013-.47-.033-.685-.06-.34-.04-.676-.087-1-.14a9.684,9.684,0,0,1-.972-.213l-.3-.08h-.311a2.435,2.435,0,0,0-1.861.862,2.444,2.444,0,0,0-.544,1.14,6.6,6.6,0,0,0-1.452-.161,8.5,8.5,0,0,0-4.6,1.4,14.556,14.556,0,0,0-3.1,2.665c-.017-.048-.034-.1-.053-.144a5.659,5.659,0,0,0-1.308-2,6.754,6.754,0,0,0-1.982-1.356,6.706,6.706,0,0,0-2.806-.566,8.5,8.5,0,0,0-4.6,1.4,14.586,14.586,0,0,0-3.211,2.789c-.033-.089-.067-.178-.1-.265a6.313,6.313,0,0,0-1.44-2.136,6.253,6.253,0,0,0-2.115-1.344,6.636,6.636,0,0,0-2.381-.443,8.5,8.5,0,0,0-4.6,1.4,14.693,14.693,0,0,0-3.478,3.107,15.594,15.594,0,0,0-2.43,4.134,12.353,12.353,0,0,0-.935,4.557,9.853,9.853,0,0,0,.525,3.231,8.6,8.6,0,0,0,1.574,2.776,7.638,7.638,0,0,0,2.656,2,8.3,8.3,0,0,0,3.489.721,9.985,9.985,0,0,0,5.093-1.316,15.141,15.141,0,0,0,2.377-1.7q.116.149.239.293a7.627,7.627,0,0,0,2.656,2,8.293,8.293,0,0,0,3.489.721,9.446,9.446,0,0,0,3.477-.641,12.3,12.3,0,0,0,2.769-1.526,13.84,13.84,0,0,0,1.149-.943q.15.2.312.39a7.634,7.634,0,0,0,2.656,2,8.291,8.291,0,0,0,3.489.721,9.986,9.986,0,0,0,5.093-1.316q.655-.381,1.252-.808a5.205,5.205,0,0,0,.355.4,5.663,5.663,0,0,0,3.316,1.656l-.112.275a4.8,4.8,0,0,0-1.379-.2,5.938,5.938,0,0,0-3.785,1.424,10.98,10.98,0,0,0-.963.878l-.014-.019a4.336,4.336,0,0,0-1.291-1.1,6.413,6.413,0,0,0-1.353-.582,5.1,5.1,0,0,0-1.472-.237,2.364,2.364,0,0,0-1.069.247c-.1-.057-.21-.111-.318-.164a4.613,4.613,0,0,0-2.019-.449,5.939,5.939,0,0,0-3.785,1.424,11.1,11.1,0,0,0-1.041.959,3.975,3.975,0,0,0-.674-.9,4.409,4.409,0,0,0-3.227-1.241,4.44,4.44,0,0,0-2.146.628q-.275.152-.556.338a5.285,5.285,0,0,0-.526-.382,5.418,5.418,0,0,0-1.3-.6,4.662,4.662,0,0,0-1.37-.228,2.655,2.655,0,0,0-2.391,1.382q-.152-.1-.318-.2a6.4,6.4,0,0,0-1.353-.581,5.1,5.1,0,0,0-1.473-.237,2.37,2.37,0,0,0-1.07.247c-.1-.056-.209-.111-.316-.162a4.613,4.613,0,0,0-2.02-.449,5.939,5.939,0,0,0-3.785,1.424,11.792,11.792,0,0,0-2.458,2.755,15.167,15.167,0,0,0-1.6,3.245,9.915,9.915,0,0,0-.635,3.278,6.1,6.1,0,0,0,.425,2.255,5.919,5.919,0,0,0,1.19,1.89,5.829,5.829,0,0,0,1.812,1.3,5.541,5.541,0,0,0,2.349.508,3.691,3.691,0,0,0,2.059-.671q.246-.164.492-.363a4.789,4.789,0,0,0,3.075,1,4.509,4.509,0,0,0,2.6-.864,5.935,5.935,0,0,0,.543.321,3.55,3.55,0,0,0,1.658.451,3.085,3.085,0,0,0,1.4-.328,2.629,2.629,0,0,0,1.2-1.175c.063.073.128.144.2.213a4.733,4.733,0,0,0,3.472,1.411,4.733,4.733,0,0,0,3.042-1.178q.091-.075.18-.152a5.891,5.891,0,0,0,1.3.822,5.544,5.544,0,0,0,2.349.508,3.691,3.691,0,0,0,2.059-.671q.246-.164.492-.363a4.787,4.787,0,0,0,3.076,1,4.643,4.643,0,0,0,3.047-1.209l.036-.03a5.889,5.889,0,0,0,1.228.762,5.541,5.541,0,0,0,2.348.508,3.681,3.681,0,0,0,2.024-.643,6.276,6.276,0,0,0,.508-.372,4.791,4.791,0,0,0,3.033,1.015,4.631,4.631,0,0,0,3.08-1.224l.068-.06a5.232,5.232,0,0,0,1.868.99,7.42,7.42,0,0,0,2.1.294,6.329,6.329,0,0,0,3.115-.817,9.016,9.016,0,0,0,1.518-1.069,6.081,6.081,0,0,0,2.015-.544,8.168,8.168,0,0,0,1.555-.944h0a4.579,4.579,0,0,0,1.091,1.944,4.717,4.717,0,0,0,3.506,1.43,4.733,4.733,0,0,0,3.041-1.178l.077-.064a5.876,5.876,0,0,0,1.193.733,5.541,5.541,0,0,0,2.349.508,3.691,3.691,0,0,0,2.059-.671q.246-.164.492-.363a4.474,4.474,0,0,0,1.636.822q.069.185.152.366a5.426,5.426,0,0,0,1.238,1.719,5.582,5.582,0,0,0,1.763,1.109,5.66,5.66,0,0,0,2.087.394,6.452,6.452,0,0,0,2.477-.532,7.409,7.409,0,0,0,2.261-1.493,8.041,8.041,0,0,0,1.666-2.321,7.467,7.467,0,0,0,.709-3.284,7.489,7.489,0,0,0-.247-1.934c-.122-.457-.265-.926-.425-1.4-.126-.37-.239-.737-.335-1.1a2.724,2.724,0,0,1-.087-.711,3.211,3.211,0,0,1,.09-.724,2.248,2.248,0,0,1,.126-.371,2.827,2.827,0,0,0,1-2.19,3.144,3.144,0,0,0-.822-2.1,4.984,4.984,0,0,0-1.066-.9,6.025,6.025,0,0,0-1.183-.58,4.413,4.413,0,0,0-1.489-.278,2.866,2.866,0,0,0-1.2.286,3.584,3.584,0,0,0-1.206.934c-.063.071-.125.145-.186.224a5.063,5.063,0,0,0-.568-.381,6.406,6.406,0,0,0-1.355-.583,5.093,5.093,0,0,0-1.472-.237,2.369,2.369,0,0,0-1.069.247q-.156-.085-.318-.163a4.48,4.48,0,0,0-.9-.319q.276-.457.517-.952a9.737,9.737,0,0,0,.917-4.278,9.738,9.738,0,0,0-.322-2.52c-.174-.647-.374-1.3-.594-1.949-.188-.549-.356-1.1-.5-1.644a4.985,4.985,0,0,1-.161-1.3,5.679,5.679,0,0,1,.158-1.282,4.81,4.81,0,0,1,.371-1,2.8,2.8,0,0,0,1.225-2.455,3.49,3.49,0,0,0-.921-2.335,6.194,6.194,0,0,0-1.314-1.11,7.6,7.6,0,0,0-1.5-.735,5.311,5.311,0,0,0-1.79-.338,3.1,3.1,0,0,0-1.306.321A4.157,4.157,0,0,0-179-518.976a6.582,6.582,0,0,0-.86,1.276,5.229,5.229,0,0,0-1.534-1.29,8.151,8.151,0,0,0-1.732-.744,6.307,6.307,0,0,0-1.82-.3,2.453,2.453,0,0,0-1.532.53,9.057,9.057,0,0,0-.92-.512,5.612,5.612,0,0,0-2.457-.544,7.2,7.2,0,0,0-3.842,1.137l-.043-.087a6.219,6.219,0,0,0-.859-1.288c-.031-.035-.07-.079-.116-.129q.139-.291.284-.589c.257-.528.491-1,.7-1.393.1-.191.161-.3.194-.359a2.648,2.648,0,0,0,.63-1.749,2.975,2.975,0,0,0-1.009-2.145,6.381,6.381,0,0,0-1.776-1.166,7.777,7.777,0,0,0-2.023-.6,4.722,4.722,0,0,0-.707-.056Zm-28.5,22.561a1.905,1.905,0,0,1-.188-.85,6.845,6.845,0,0,1,.336-2.184,12.161,12.161,0,0,1,.542-1.447,2.993,2.993,0,0,0,1.147.922,4.194,4.194,0,0,0,1.827.4,5.452,5.452,0,0,0,.788-.06l.036-.006a9.551,9.551,0,0,1-1.122,1.477,7.9,7.9,0,0,1-1.654,1.364,2.568,2.568,0,0,1-1.419.407,1.638,1.638,0,0,1-.293-.022Zm33.171,7.787a4.3,4.3,0,0,0,2.388-.793,9.388,9.388,0,0,0,1.308-1.068l.034.037a5.162,5.162,0,0,0,.714.648,8.1,8.1,0,0,0-.742,1.3,6.447,6.447,0,0,0-.264.679q-.2-.114-.418-.216a6.746,6.746,0,0,0-2.877-.575,5.533,5.533,0,0,0-3.05,1.043c.165-.338.325-.642.48-.909.14-.243.237-.388.294-.468a7.076,7.076,0,0,0,2.135.322Z" transform="translate(250.13 528.981)" fill="#fff"/>
          </g>
        </g>
        <g id="Grupo_362" data-name="Grupo 362">
          <g id="Grupo_360" data-name="Grupo 360" transform="translate(1.185 1.185)">
            <path id="Trazado_624" data-name="Trazado 624" d="M-293.307-472.467a8.878,8.878,0,0,1-3.212-.454c-.457-.183-1.669-.668-1.669-1.8a1.72,1.72,0,0,1,.571-1.325,1.655,1.655,0,0,1,1.107-.435l.069,0a5.56,5.56,0,0,0,.588-.683,26.446,26.446,0,0,0,1.825-2.828l.135-.238a5.746,5.746,0,0,1-2.33.49,7.675,7.675,0,0,1-3.13-.677,8.716,8.716,0,0,1-2.686-1.876,9.016,9.016,0,0,1-1.895-2.951,10.222,10.222,0,0,1-.7-3.854,19.811,19.811,0,0,1,.828-5.549,30.864,30.864,0,0,1,2.157-5.4c.421-.822.883-1.635,1.379-2.43a6.746,6.746,0,0,1-.754-.524,6.286,6.286,0,0,1-1.134-1.164,2.88,2.88,0,0,1-.6-1.735,9.939,9.939,0,0,1,.8-3.134c.489-1.3,1.109-2.813,1.844-4.487.722-1.648,1.521-3.43,2.374-5.3.84-1.838,1.632-3.635,2.354-5.34s1.325-3.244,1.792-4.577a10.693,10.693,0,0,0,.649-2.5l-.23.139a35.825,35.825,0,0,0-4.264,3.055,34.946,34.946,0,0,0-3.582,3.412,20.685,20.685,0,0,0-2.427,3.21,6.718,6.718,0,0,0-.69,1.48,3.283,3.283,0,0,0,.5-.095,7.786,7.786,0,0,0,.913-.3c.341-.14.621-.248.838-.325a2.119,2.119,0,0,1,.726-.148,1.326,1.326,0,0,1,.592.135l.254.125.169.226c.274.365.586,1.131-.4,2.163a8.915,8.915,0,0,1-1.291,1.092,10.38,10.38,0,0,1-1.682.966,4.6,4.6,0,0,1-1.918.481,2.724,2.724,0,0,1-1.874-.879,8.471,8.471,0,0,1-1.251-1.553,9.685,9.685,0,0,1-.95-1.948,6.208,6.208,0,0,1-.4-2.065,6.129,6.129,0,0,1,1.355-3.4,24.8,24.8,0,0,1,3.177-3.6,44.156,44.156,0,0,1,4.438-3.673,46.046,46.046,0,0,1,5.2-3.285,36.233,36.233,0,0,1,5.417-2.4,16.188,16.188,0,0,1,5.23-.963,8.272,8.272,0,0,1,2.895.58,9.918,9.918,0,0,1,2.814,1.642,9.632,9.632,0,0,1,2.175,2.573,6.924,6.924,0,0,1,.929,3.535,11.756,11.756,0,0,1-.776,4.1,19.682,19.682,0,0,1-1.982,3.9,26.494,26.494,0,0,1-2.777,3.535,26.49,26.49,0,0,1-3.168,2.915,18.5,18.5,0,0,1-3.188,2.013,9.417,9.417,0,0,1-1.286.517q.38.65.818,1.3a6.828,6.828,0,0,1,1.621-.2,4.947,4.947,0,0,1,2.581.661,5.3,5.3,0,0,1,1.715,1.638,6.6,6.6,0,0,1,.9,2.127,9.676,9.676,0,0,1,.255,1.966,5.151,5.151,0,0,0,1.658.279,5.394,5.394,0,0,0,1.231-.147,1.413,1.413,0,0,1,.43-.068,1.317,1.317,0,0,1,1.308,1.382,1.926,1.926,0,0,1-.162.867l-.036.075-.046.069a6.126,6.126,0,0,1-.76.879,7.994,7.994,0,0,1-1.262,1.008,10.539,10.539,0,0,1-1.657.868,8.333,8.333,0,0,1-2.048.564,5.116,5.116,0,0,1-.542.049c-.115.213-.23.417-.346.615a16.261,16.261,0,0,1-1.887,2.637,4.91,4.91,0,0,1-1.392,1.146,5.248,5.248,0,0,1,1.376.467,5.845,5.845,0,0,1,1.573,1.132,2.834,2.834,0,0,1,.923,2.029,10.249,10.249,0,0,1-.543,2.723c-.333,1.109-.754,2.368-1.253,3.741s-1.04,2.794-1.614,4.241-1.12,2.8-1.609,3.98-.918,2.185-1.287,3.009c-.621,1.385-.643,1.408-.813,1.58a3.172,3.172,0,0,1-1.53.833A6.2,6.2,0,0,1-293.307-472.467Zm2.691-33.106a29.415,29.415,0,0,0-2.628,3.435,32.99,32.99,0,0,0-2.4,4.3,28.311,28.311,0,0,0-1.714,4.77,18.941,18.941,0,0,0-.639,4.793,2.844,2.844,0,0,0,.749,2.256,2.828,2.828,0,0,0,1.886.707,1.643,1.643,0,0,0,1.026-.463,9.594,9.594,0,0,0,1.513-1.646,17.509,17.509,0,0,0,1.422-2.288c.451-.862.855-1.69,1.2-2.461a19.318,19.318,0,0,0,.774-1.969,6.944,6.944,0,0,0,.232-.836,1.48,1.48,0,0,1,.626-1.177,4.74,4.74,0,0,1-1.029-.222,5.689,5.689,0,0,1-1.268-.6,4.24,4.24,0,0,1-1.018-.883,2.222,2.222,0,0,1-.557-1.429,2.056,2.056,0,0,1,.481-1.335,1.643,1.643,0,0,1,1.278-.671,1.341,1.341,0,0,1,.469.085,4.322,4.322,0,0,0,.382-.4,14.193,14.193,0,0,0,1.254-1.717,18.812,18.812,0,0,1-1.911-2.281l-.1.08Zm-3.731-5.2c-.212.611-.411,1.21-.595,1.792l.077-.071c.481-.438.981-.854,1.494-1.244q-.361-.674-.694-1.281Q-294.209-511.172-294.347-510.773Zm4.383-21.965a6.554,6.554,0,0,1,1.047.723,5.9,5.9,0,0,1,.879.91,2.225,2.225,0,0,1,.53,1.357,7.437,7.437,0,0,1-.427,2.109c-.255.811-.587,1.76-.985,2.823s-.856,2.228-1.371,3.494c-.308.756-.626,1.549-.952,2.37a8.476,8.476,0,0,0,1.213-.844,20.306,20.306,0,0,0,3.227-3.4,24.9,24.9,0,0,0,2.782-4.582,10.745,10.745,0,0,0,1.115-4.559,1.311,1.311,0,0,0-.152-.617,2.14,2.14,0,0,0-.465-.608,2.2,2.2,0,0,0-.628-.4,1.47,1.47,0,0,0-.551-.128,11.6,11.6,0,0,0-4.035.8q-.638.239-1.277.52Z" transform="translate(309.912 539.394)" fill="#fff"/>
          </g>
          <g id="Grupo_361" data-name="Grupo 361">
            <path id="Trazado_625" data-name="Trazado 625" d="M-286.913-540.024a7.066,7.066,0,0,1,2.477.5,8.693,8.693,0,0,1,2.477,1.447,8.4,8.4,0,0,1,1.907,2.258,5.728,5.728,0,0,1,.767,2.937,10.53,10.53,0,0,1-.7,3.683,18.4,18.4,0,0,1-1.863,3.66,25.261,25.261,0,0,1-2.652,3.376,25.161,25.161,0,0,1-3.025,2.783,17.2,17.2,0,0,1-2.981,1.885,6.041,6.041,0,0,1-2.586.7,24.906,24.906,0,0,0,2.154,3.569,6.163,6.163,0,0,1,2.1-.4,3.764,3.764,0,0,1,1.971.493,4.1,4.1,0,0,1,1.335,1.274,5.388,5.388,0,0,1,.739,1.745,8.372,8.372,0,0,1,.226,1.91,4.589,4.589,0,0,1-.037.562c.194.087.386.179.583.254a6.351,6.351,0,0,0,2.294.434,6.582,6.582,0,0,0,1.564-.192.256.256,0,0,1,.1-.022c.082,0,.123.066.123.2a.936.936,0,0,1-.043.351,5.213,5.213,0,0,1-.614.7,6.785,6.785,0,0,1-1.074.855,9.327,9.327,0,0,1-1.468.767,7.1,7.1,0,0,1-1.754.482,3.981,3.981,0,0,1-.566.04,4.339,4.339,0,0,1-.512-.031c-.21.415-.429.826-.665,1.229a14.969,14.969,0,0,1-1.745,2.444q-.9,1.007-1.52,1.006a3.534,3.534,0,0,1-1.13-.185,4.49,4.49,0,0,1-1.006-.472,3.07,3.07,0,0,1-.739-.637,1.075,1.075,0,0,1-.288-.677.868.868,0,0,1,.206-.575c.136-.164.26-.246.369-.246a.287.287,0,0,1,.185.1.358.358,0,0,0,.267.1q.493,0,1.293-.924a15.935,15.935,0,0,0,1.581-2.218c.1-.159.186-.319.278-.48a17,17,0,0,1-2.562-2.928c-.2-.292-.4-.587-.6-.884l-.036.03-.12-.2c-.35.335-.7.693-1.069,1.1a30.3,30.3,0,0,0-2.773,3.614,34.061,34.061,0,0,0-2.485,4.457,29.378,29.378,0,0,0-1.786,4.97,20.035,20.035,0,0,0-.678,5.094,3.912,3.912,0,0,0,1.171,3.162,4,4,0,0,0,2.649.986,2.78,2.78,0,0,0,1.786-.739,10.746,10.746,0,0,0,1.7-1.849,18.565,18.565,0,0,0,1.519-2.444q.7-1.334,1.232-2.526a20.136,20.136,0,0,0,.821-2.095,5.387,5.387,0,0,0,.288-1.15q0-.317.408-.317a1.283,1.283,0,0,1,.146.009,3.849,3.849,0,0,1,1.232.39,4.636,4.636,0,0,1,1.253.9,1.691,1.691,0,0,1,.575,1.191,9.511,9.511,0,0,1-.493,2.382q-.493,1.643-1.232,3.677t-1.6,4.21q-.863,2.177-1.6,3.964t-1.274,2.978q-.534,1.191-.575,1.232a1.993,1.993,0,0,1-.965.513,5,5,0,0,1-1.171.144,7.883,7.883,0,0,1-2.773-.369q-.924-.37-.924-.7a.54.54,0,0,1,.164-.431.5.5,0,0,1,.329-.144.283.283,0,0,1,.123.021.289.289,0,0,0,.124.021q.451,0,1.355-1.191a27.493,27.493,0,0,0,1.91-2.957q1.006-1.767,2.013-3.8t1.663-3.758a19.668,19.668,0,0,1-3.245,4.395,5.161,5.161,0,0,1-3.656,1.643,6.46,6.46,0,0,1-2.649-.575,7.5,7.5,0,0,1-2.321-1.622,7.8,7.8,0,0,1-1.643-2.567,9.006,9.006,0,0,1-.616-3.409,18.547,18.547,0,0,1,.78-5.216,29.509,29.509,0,0,1,2.075-5.2,31.8,31.8,0,0,1,2.09-3.5,3.307,3.307,0,0,1-.641-.215,5.224,5.224,0,0,1-1.14-.7,5.089,5.089,0,0,1-.921-.942,1.716,1.716,0,0,1-.372-1.03,9.285,9.285,0,0,1,.723-2.718q.723-1.928,1.819-4.427t2.367-5.283q1.271-2.784,2.367-5.37t1.82-4.647a10.408,10.408,0,0,0,.724-3.069q0-.35.175-.438a.712.712,0,0,1,.307-.088,1.628,1.628,0,0,1,.745.241,5.3,5.3,0,0,1,.855.592,4.688,4.688,0,0,1,.7.724,1.131,1.131,0,0,1,.285.636,6.591,6.591,0,0,1-.373,1.753q-.373,1.184-.964,2.762t-1.359,3.464q-.768,1.885-1.556,3.9a1.445,1.445,0,0,0,.877.395,5.056,5.056,0,0,0,2.784-1.4,21.4,21.4,0,0,0,3.42-3.595,25.992,25.992,0,0,0,2.915-4.8,11.86,11.86,0,0,0,1.227-5.063,2.49,2.49,0,0,0-.285-1.162,3.334,3.334,0,0,0-.723-.942,3.4,3.4,0,0,0-.964-.614,2.625,2.625,0,0,0-1.008-.219,12.713,12.713,0,0,0-4.45.877,27.373,27.373,0,0,0-4.647,2.28,36.877,36.877,0,0,0-4.406,3.157,35.963,35.963,0,0,0-3.7,3.529,21.715,21.715,0,0,0-2.565,3.4,5.652,5.652,0,0,0-.964,2.718.45.45,0,0,0,.307.438,1.641,1.641,0,0,0,.658.132,4.354,4.354,0,0,0,1.139-.153,8.89,8.89,0,0,0,1.052-.351c.321-.132.584-.233.789-.307a1.1,1.1,0,0,1,.327-.078.153.153,0,0,1,.068.012c.088.117-.015.329-.306.636a7.71,7.71,0,0,1-1.118.942,9.125,9.125,0,0,1-1.49.855,3.5,3.5,0,0,1-1.425.373,1.6,1.6,0,0,1-1.052-.548,7.251,7.251,0,0,1-1.074-1.337,8.453,8.453,0,0,1-.833-1.71,5.006,5.006,0,0,1-.329-1.666,5.109,5.109,0,0,1,1.14-2.718,23.535,23.535,0,0,1,3.025-3.419,42.893,42.893,0,0,1,4.318-3.573A44.658,44.658,0,0,1-297-536.8a34.905,34.905,0,0,1,5.239-2.323,14.938,14.938,0,0,1,4.844-.9m-12.122,33.458a28.506,28.506,0,0,1,3.153-3.424,20.493,20.493,0,0,1,2.22-1.76l0-.007.015-.024c-.137-.244-.275-.487-.407-.735q-1.184-2.213-2.06-3.7-.614,1.667-1.161,3.244t-.964,3q-.418,1.424-.658,2.63c-.055.271-.1.528-.132.777m11.753-2.727a3.812,3.812,0,0,0,.047-.553,2.3,2.3,0,0,0-.308-1.13,1.028,1.028,0,0,0-.965-.554,2.483,2.483,0,0,0-.916.2,18.609,18.609,0,0,0,1.833,1.791c.1.086.207.16.31.242m.369-33.1a17.354,17.354,0,0,0-5.616,1.028,37.439,37.439,0,0,0-5.6,2.48,47.283,47.283,0,0,0-5.332,3.37,45.376,45.376,0,0,0-4.556,3.772,26.011,26.011,0,0,0-3.328,3.772,7.231,7.231,0,0,0-1.571,4.081,7.367,7.367,0,0,0,.466,2.462,10.861,10.861,0,0,0,1.068,2.19,9.632,9.632,0,0,0,1.429,1.77,3.853,3.853,0,0,0,2.693,1.209,5.752,5.752,0,0,0,2.415-.59,11.561,11.561,0,0,0,1.872-1.076,10.035,10.035,0,0,0,1.411-1.188c-.517,1.146-1.008,2.252-1.468,3.3-.743,1.694-1.371,3.224-1.868,4.547a10.758,10.758,0,0,0-.874,3.55,4.1,4.1,0,0,0,.837,2.44,7.43,7.43,0,0,0,1.259,1.314q-.448.772-.851,1.559a32.018,32.018,0,0,0-2.24,5.612,20.994,20.994,0,0,0-.876,5.881,11.4,11.4,0,0,0,.789,4.3,10.2,10.2,0,0,0,2.147,3.336,9.89,9.89,0,0,0,3.05,2.129,8.859,8.859,0,0,0,3.524.779q-.249.363-.486.677c-.077.1-.143.185-.2.254a2.886,2.886,0,0,0-1.41.7,2.878,2.878,0,0,0-.965,2.207c0,1.282.812,2.258,2.413,2.9a9.981,9.981,0,0,0,3.653.539,7.389,7.389,0,0,0,1.725-.21,4.337,4.337,0,0,0,2.086-1.141c.353-.359.448-.569,1.062-1.939.374-.835.812-1.858,1.3-3.041s1.034-2.53,1.615-4,1.125-2.9,1.626-4.273c.507-1.394.936-2.674,1.275-3.805a11.262,11.262,0,0,0,.593-3.063,4,4,0,0,0-1.268-2.866,7.147,7.147,0,0,0-1.489-1.146,17.506,17.506,0,0,0,2-2.8l.054-.093a9.509,9.509,0,0,0,2.316-.64,11.742,11.742,0,0,0,1.848-.969,9.206,9.206,0,0,0,1.451-1.161,7.275,7.275,0,0,0,.909-1.06l.092-.137.072-.149a3.133,3.133,0,0,0,.28-1.383,2.5,2.5,0,0,0-2.492-2.567,2.585,2.585,0,0,0-.737.108,4.2,4.2,0,0,1-.923.106,3.844,3.844,0,0,1-.535-.037,11.2,11.2,0,0,0-.223-1.292,7.774,7.774,0,0,0-1.067-2.508,6.47,6.47,0,0,0-2.1-2,5.946,5.946,0,0,0-2.675-.813,21.482,21.482,0,0,0,2.242-1.524,27.633,27.633,0,0,0,3.312-3.045,27.674,27.674,0,0,0,2.9-3.693,20.846,20.846,0,0,0,2.1-4.131,12.936,12.936,0,0,0,.85-4.509,8.089,8.089,0,0,0-1.09-4.13,10.805,10.805,0,0,0-2.443-2.89,11.1,11.1,0,0,0-3.151-1.838,9.45,9.45,0,0,0-3.314-.657Zm-2.515,8.159a9.821,9.821,0,0,1,2.906-.483s.033.009.1.038a1.026,1.026,0,0,1,.291.189.968.968,0,0,1,.207.276.114.114,0,0,1,.016.065,9.577,9.577,0,0,1-1,4.055,23.7,23.7,0,0,1-2.648,4.363q-.243.316-.487.613.22-.568.418-1.1c.406-1.082.744-2.052,1.006-2.881a8.4,8.4,0,0,0,.482-2.466,3.4,3.4,0,0,0-.772-2.074,6.671,6.671,0,0,0-.518-.6Zm-14.077,10.465a22.7,22.7,0,0,1,1.54-1.889,33.737,33.737,0,0,1,3.462-3.3q.849-.708,1.742-1.361c-.423,1.159-.939,2.459-1.539,3.876-.682,1.61-1.427,3.3-2.216,5.036a2.628,2.628,0,0,0-.5-1.456l-.339-.453-.507-.25a2.5,2.5,0,0,0-1.116-.257,2.835,2.835,0,0,0-.523.05Zm9.959,19.7q.572-.814,1.145-1.527.248.3.5.589-.28.391-.557.72h-.039a2.631,2.631,0,0,0-1.052.218Zm-3.65,15.759a1.646,1.646,0,0,1-1.1-.428,1.981,1.981,0,0,1-.327-1.35,17.756,17.756,0,0,1,.6-4.493,27.1,27.1,0,0,1,1.643-4.571q.448-.962.945-1.876a3.418,3.418,0,0,0,.829,2.118,5.427,5.427,0,0,0,1.3,1.13,6.693,6.693,0,0,0,1.152.583q-.02.127-.029.258c-.02.081-.069.269-.183.629a18.067,18.067,0,0,1-.726,1.844c-.336.749-.729,1.555-1.169,2.4a16.243,16.243,0,0,1-1.325,2.133,8.423,8.423,0,0,1-1.321,1.442,1.026,1.026,0,0,1-.285.186Z" transform="translate(312.912 542.394)" fill="#fff"/>
          </g>
        </g>
      </g>
      <g id="Grupo_377" data-name="Grupo 377" transform="translate(-310.441 -579.509)">
        <g id="ecetas" transform="translate(24.795 5.298)">
          <g id="Grupo_370" data-name="Grupo 370">
            <g id="Grupo_364" data-name="Grupo 364" transform="translate(0 8.424)">
              <path id="Trazado_626" data-name="Trazado 626" d="M-229.1-493.411q.569,0,.636.438a3.881,3.881,0,0,1-.11,1.271,9.607,9.607,0,0,1-.789,1.863,12.069,12.069,0,0,1-1.841,2.6,11.977,11.977,0,0,1-2.893,2.3,7.619,7.619,0,0,1-3.9.994,5.925,5.925,0,0,1-2.5-.5,5.262,5.262,0,0,1-1.841-1.381,6.214,6.214,0,0,1-1.14-2.017,7.455,7.455,0,0,1-.395-2.455,9.974,9.974,0,0,1,.767-3.682,13.178,13.178,0,0,1,2.061-3.508,12.276,12.276,0,0,1,2.915-2.608,6.146,6.146,0,0,1,3.332-1.03,4.253,4.253,0,0,1,1.534.286,3.873,3.873,0,0,1,1.315.835,3.945,3.945,0,0,1,.9,1.342,4.658,4.658,0,0,1,.329,1.8,5.291,5.291,0,0,1-.679,2.353,6.409,6.409,0,0,1-1.753,2.023,7.026,7.026,0,0,1-2.7,1.232,7.905,7.905,0,0,1-3.551-.066,7.284,7.284,0,0,0-.066,1.671,3.422,3.422,0,0,0,.395,1.385,2.481,2.481,0,0,0,.921.946,3.027,3.027,0,0,0,1.556.352,5.3,5.3,0,0,0,2.828-.767,9.535,9.535,0,0,0,2.148-1.776,9.757,9.757,0,0,0,1.425-2.039q.527-1.03.746-1.556Q-229.32-493.411-229.1-493.411Zm-5.129-5.787a2.2,2.2,0,0,0-1.293.5,6.5,6.5,0,0,0-1.315,1.359,13.506,13.506,0,0,0-1.184,1.929,18.772,18.772,0,0,0-.942,2.17,2.819,2.819,0,0,0,1.688-.263,5.418,5.418,0,0,0,1.468-1.052,8.145,8.145,0,0,0,1.162-1.469,7.576,7.576,0,0,0,.746-1.512,2.644,2.644,0,0,0,.175-1.184C-233.769-499.037-233.938-499.2-234.23-499.2Z" transform="translate(243.874 501.127)" fill="#d92d2d"/>
            </g>
            <g id="Grupo_365" data-name="Grupo 365" transform="translate(13.853 8.424)">
              <path id="Trazado_627" data-name="Trazado 627" d="M-194.025-493.411q.306,0,.5.438a2.137,2.137,0,0,1,.022,1.271,7.845,7.845,0,0,1-.417,1.008,10.935,10.935,0,0,1-.92,1.556,21.319,21.319,0,0,1-1.4,1.793,11.12,11.12,0,0,1-1.841,1.695,9.877,9.877,0,0,1-2.235,1.231,7.052,7.052,0,0,1-2.609.476,5.924,5.924,0,0,1-2.5-.5,5.262,5.262,0,0,1-1.841-1.381,6.208,6.208,0,0,1-1.14-2.017,7.455,7.455,0,0,1-.395-2.455,9.958,9.958,0,0,1,.767-3.682,13.173,13.173,0,0,1,2.06-3.508,12.271,12.271,0,0,1,2.915-2.608,6.146,6.146,0,0,1,3.332-1.03,4.346,4.346,0,0,1,1.819.351,4.4,4.4,0,0,1,1.293.877,3.294,3.294,0,0,1,.767,1.161,3.416,3.416,0,0,1,.241,1.206,2.406,2.406,0,0,1-.679,1.907,2.786,2.786,0,0,1-1.425.7,2.143,2.143,0,0,1-1.25-.132q-.5-.241-.2-.592a4.6,4.6,0,0,0,.811-1.184,3.043,3.043,0,0,0,.307-1.139,1.51,1.51,0,0,0-.2-.877.809.809,0,0,0-.745-.351,2.855,2.855,0,0,0-1.929.9,9.744,9.744,0,0,0-1.754,2.266,14,14,0,0,0-1.271,2.947,9.117,9.117,0,0,0-.438,2.948,3.966,3.966,0,0,0,.7,2.266,2.479,2.479,0,0,0,2.148.9,4.952,4.952,0,0,0,2.674-.767,10.217,10.217,0,0,0,2.148-1.776,11.631,11.631,0,0,0,1.512-2.039,15.392,15.392,0,0,0,.811-1.556C-194.288-493.309-194.172-493.411-194.025-493.411Z" transform="translate(208.799 501.127)" fill="#d92d2d"/>
            </g>
            <g id="Grupo_366" data-name="Grupo 366" transform="translate(27.705 8.424)">
              <path id="Trazado_628" data-name="Trazado 628" d="M-158.951-493.411q.569,0,.636.438a3.891,3.891,0,0,1-.11,1.271,9.675,9.675,0,0,1-.789,1.863,12.082,12.082,0,0,1-1.841,2.6,11.987,11.987,0,0,1-2.894,2.3,7.617,7.617,0,0,1-3.9.994,5.925,5.925,0,0,1-2.5-.5,5.266,5.266,0,0,1-1.841-1.381,6.213,6.213,0,0,1-1.139-2.017,7.455,7.455,0,0,1-.395-2.455,9.958,9.958,0,0,1,.767-3.682,13.166,13.166,0,0,1,2.06-3.508,12.256,12.256,0,0,1,2.915-2.608,6.144,6.144,0,0,1,3.331-1.03,4.256,4.256,0,0,1,1.534.286,3.872,3.872,0,0,1,1.315.835,3.938,3.938,0,0,1,.9,1.342,4.651,4.651,0,0,1,.329,1.8,5.287,5.287,0,0,1-.679,2.353,6.4,6.4,0,0,1-1.754,2.023,7.03,7.03,0,0,1-2.7,1.232,7.9,7.9,0,0,1-3.551-.066,7.218,7.218,0,0,0-.066,1.671,3.41,3.41,0,0,0,.395,1.385,2.476,2.476,0,0,0,.921.946,3.024,3.024,0,0,0,1.556.352,5.293,5.293,0,0,0,2.827-.767,9.519,9.519,0,0,0,2.148-1.776,9.742,9.742,0,0,0,1.425-2.039q.526-1.03.745-1.556C-159.214-493.309-159.1-493.411-158.951-493.411Zm-5.129-5.787a2.2,2.2,0,0,0-1.293.5,6.485,6.485,0,0,0-1.315,1.359,13.466,13.466,0,0,0-1.184,1.929,18.641,18.641,0,0,0-.943,2.17,2.821,2.821,0,0,0,1.688-.263,5.424,5.424,0,0,0,1.468-1.052,8.145,8.145,0,0,0,1.162-1.469,7.592,7.592,0,0,0,.745-1.512,2.64,2.64,0,0,0,.176-1.184Q-163.642-499.2-164.08-499.2Z" transform="translate(173.724 501.127)" fill="#d92d2d"/>
            </g>
            <g id="Grupo_367" data-name="Grupo 367" transform="translate(40.549)">
              <path id="Trazado_629" data-name="Trazado 629" d="M-130.375-515.085a3.776,3.776,0,0,1,.526.79,3.109,3.109,0,0,1,.285.789c.043.234-.022.351-.2.351a1.74,1.74,0,0,1-.241-.022,3.771,3.771,0,0,0-.482-.022q-.329,0-.921-.022t-1.6-.022a70.461,70.461,0,0,0-2.652,6.9,18.776,18.776,0,0,0-1.03,5.59q0,.877.57.877.306,0,.943-.614a13.662,13.662,0,0,0,1.336-1.534,19.265,19.265,0,0,0,1.337-2.017,14.158,14.158,0,0,0,.987-2.017.125.125,0,0,1,.044-.088c.058-.058.1-.088.132-.088.321,0,.511.125.57.373a2.694,2.694,0,0,1,.043.855c-.058.35-.147.761-.263,1.227a15.094,15.094,0,0,1-.7,1.534,17.978,17.978,0,0,1-1.425,2.345,12.116,12.116,0,0,1-1.907,2.126,3.3,3.3,0,0,1-2.192.921,3.428,3.428,0,0,1-2.565-1.008,4.232,4.232,0,0,1-.987-3.069,10.814,10.814,0,0,1,.263-2.1q.264-1.271.724-2.849t1.118-3.442q.658-1.863,1.491-3.923h-2.455a.958.958,0,0,1-.767-.416,3.574,3.574,0,0,1-.526-.921,4.556,4.556,0,0,1-.263-.9q-.066-.395.066-.394a11.873,11.873,0,0,0,1.205.263q.547.089,1.1.154t1.162.088c.409.015.862.021,1.359.021q.35-.832.833-1.951t.943-2.148q.46-1.03.855-1.819a4.675,4.675,0,0,1,.57-.964,1.165,1.165,0,0,1,1.03-.2,5.355,5.355,0,0,1,1.4.416,4.009,4.009,0,0,1,1.118.723q.438.417.176.68a4.043,4.043,0,0,0-.46.767q-.329.637-.724,1.447t-.767,1.622q-.373.812-.635,1.337h1.1C-130.741-515.435-130.58-515.318-130.375-515.085Z" transform="translate(141.203 522.456)" fill="#d92d2d"/>
            </g>
            <g id="Grupo_368" data-name="Grupo 368" transform="translate(49.097 8.424)">
              <path id="Trazado_630" data-name="Trazado 630" d="M-100.709-493.368a.575.575,0,0,1,.614.395,1.755,1.755,0,0,1,.044.877,9.476,9.476,0,0,1-.307,1.227,14.034,14.034,0,0,1-.7,1.512,20.486,20.486,0,0,1-1.4,2.323,11.077,11.077,0,0,1-1.907,2.126,3.338,3.338,0,0,1-2.17.921,3.38,3.38,0,0,1-2.63-1.008,5.04,5.04,0,0,1-.921-3.419,16.4,16.4,0,0,1-1.074,1.622,15.052,15.052,0,0,1-1.205,1.425,7.448,7.448,0,0,1-1.206,1.03,1.989,1.989,0,0,1-1.074.395,4.584,4.584,0,0,1-1.951-.416,4.976,4.976,0,0,1-1.557-1.118,5.124,5.124,0,0,1-1.03-1.644,5.374,5.374,0,0,1-.372-1.995,11.09,11.09,0,0,1,.724-3.595,18.317,18.317,0,0,1,1.951-3.945,13.537,13.537,0,0,1,2.827-3.178,5.217,5.217,0,0,1,3.31-1.293,3.241,3.241,0,0,1,1.425.307,6.267,6.267,0,0,1,1.14.7,4.68,4.68,0,0,1,.811.789q.306.395.395.526a12.591,12.591,0,0,1,.7-1.315q.307-.482.439-.482a4.058,4.058,0,0,1,1.139.2,5.74,5.74,0,0,1,1.228.526,2.868,2.868,0,0,1,.855.7.491.491,0,0,1,.022.68,9.979,9.979,0,0,0-1.162,1.928,23.841,23.841,0,0,0-1.1,2.718,26.738,26.738,0,0,0-.833,3.047,14.179,14.179,0,0,0-.329,2.915,1.165,1.165,0,0,0,.154.635.439.439,0,0,0,.372.241q.307,0,.965-.614a11.2,11.2,0,0,0,1.337-1.534,22.112,22.112,0,0,0,1.315-2.017,14.154,14.154,0,0,0,.986-2.017.126.126,0,0,1,.044-.088Q-100.753-493.368-100.709-493.368Zm-13.809,6.225q.263,0,.833-.526a12.532,12.532,0,0,0,1.25-1.381q.679-.855,1.4-1.929t1.359-2.126A21.149,21.149,0,0,0-108.6-495.1a7.75,7.75,0,0,0,.57-1.556.99.99,0,0,0-.395-.943,1.948,1.948,0,0,0-1.315-.416,2.582,2.582,0,0,0-1.688.964,12.615,12.615,0,0,0-1.8,2.411,15.936,15.936,0,0,0-1.425,3.2,10.775,10.775,0,0,0-.57,3.332,1.266,1.266,0,0,0,.175.679A.575.575,0,0,0-114.518-487.143Z" transform="translate(119.559 501.127)" fill="#d92d2d"/>
            </g>
            <g id="Grupo_369" data-name="Grupo 369" transform="translate(62.993 8.599)">
              <path id="Trazado_631" data-name="Trazado 631" d="M-72.756-498.535c0,.322-.081.49-.241.5s-.314.139-.461.372a7.879,7.879,0,0,0-.833,2.038,8.009,8.009,0,0,0-.219,1.82,7.315,7.315,0,0,0,.241,1.907q.24.9.548,1.8t.548,1.8a7.335,7.335,0,0,1,.241,1.907,7.357,7.357,0,0,1-.68,3.244,8.155,8.155,0,0,1-1.688,2.367,7.239,7.239,0,0,1-2.214,1.469,5.883,5.883,0,0,1-2.257.5,4.73,4.73,0,0,1-1.754-.329,4.632,4.632,0,0,1-1.469-.921A4.434,4.434,0,0,1-84-481.46a4.112,4.112,0,0,1-.372-1.732,2.933,2.933,0,0,1,.7-1.907,2.025,2.025,0,0,1,1.579-.855,2.353,2.353,0,0,1,1.336.395q.592.395.592.57a.077.077,0,0,1-.088.088,1.881,1.881,0,0,0-1.315.846,2.642,2.642,0,0,0-.482,1.5,2.043,2.043,0,0,0,.417,1.28,1.691,1.691,0,0,0,1.425.542,2.091,2.091,0,0,0,1.074-.328,3.056,3.056,0,0,0,.986-1.028,6.5,6.5,0,0,0,.724-1.793,10.34,10.34,0,0,0,.285-2.582,12.09,12.09,0,0,0-.307-2.668q-.307-1.357-.745-3.15a17.034,17.034,0,0,1-.789,2.078,6.9,6.9,0,0,1-.614,1.071,1.347,1.347,0,0,1-.416.416.724.724,0,0,1-.2.065.623.623,0,0,1-.526-.371,1.424,1.424,0,0,1-.219-.722q.526-1.312,1.008-2.537.438-1.05.877-2.231t.745-2.056a12.166,12.166,0,0,1,.745-2.275,5.341,5.341,0,0,1,.745-1.224,2.024,2.024,0,0,1,.592-.5,1.027,1.027,0,0,1,.329-.109,2.955,2.955,0,0,1,.987.2,5.22,5.22,0,0,1,1.03.5,3.8,3.8,0,0,1,.811.679A1.155,1.155,0,0,1-72.756-498.535Z" transform="translate(84.373 500.683)" fill="#d92d2d"/>
            </g>
          </g>
        </g>
        <g id="R">
          <g id="Grupo_372" data-name="Grupo 372">
            <g id="Grupo_371" data-name="Grupo 371">
              <path id="Trazado_632" data-name="Trazado 632" d="M-276.276-502.991c.146-.059.219,0,.219.175a.933.933,0,0,1-.043.351,5.172,5.172,0,0,1-.614.7,6.8,6.8,0,0,1-1.074.855,9.324,9.324,0,0,1-1.468.767,7.1,7.1,0,0,1-1.754.482,4.383,4.383,0,0,1-3.485-1.074,16.454,16.454,0,0,1-3.069-3.375,41.789,41.789,0,0,1-2.609-4.252q-1.184-2.214-2.06-3.7-.614,1.666-1.162,3.244t-.964,3q-.418,1.424-.658,2.63a10.945,10.945,0,0,0-.242,2.126c0,.117-.081.219-.241.306a1.121,1.121,0,0,1-.548.132,2.6,2.6,0,0,1-1.03-.263,5.231,5.231,0,0,1-1.14-.7,5.081,5.081,0,0,1-.921-.943,1.714,1.714,0,0,1-.372-1.03,9.288,9.288,0,0,1,.723-2.718q.723-1.929,1.819-4.428t2.367-5.283q1.271-2.783,2.367-5.37t1.82-4.647a10.406,10.406,0,0,0,.723-3.069q0-.35.175-.438a.712.712,0,0,1,.307-.088,1.625,1.625,0,0,1,.745.242,5.3,5.3,0,0,1,.855.592,4.691,4.691,0,0,1,.7.724,1.13,1.13,0,0,1,.285.636,6.585,6.585,0,0,1-.372,1.753q-.373,1.184-.964,2.762t-1.359,3.463q-.768,1.885-1.556,3.9a1.446,1.446,0,0,0,.877.395,5.054,5.054,0,0,0,2.784-1.4,21.4,21.4,0,0,0,3.42-3.595,25.964,25.964,0,0,0,2.915-4.8A11.858,11.858,0,0,0-279.652-530a2.487,2.487,0,0,0-.285-1.162,3.334,3.334,0,0,0-.723-.942,3.4,3.4,0,0,0-.964-.614,2.621,2.621,0,0,0-1.008-.219,12.715,12.715,0,0,0-4.45.877,27.355,27.355,0,0,0-4.647,2.28,36.8,36.8,0,0,0-4.406,3.156,35.961,35.961,0,0,0-3.7,3.529,21.745,21.745,0,0,0-2.565,3.4,5.658,5.658,0,0,0-.964,2.718.45.45,0,0,0,.306.438,1.651,1.651,0,0,0,.658.132,4.354,4.354,0,0,0,1.14-.153,8.88,8.88,0,0,0,1.052-.351q.482-.2.789-.307t.395-.066c.088.117-.015.329-.306.635a7.712,7.712,0,0,1-1.118.943,9.153,9.153,0,0,1-1.49.855,3.494,3.494,0,0,1-1.425.373,1.6,1.6,0,0,1-1.052-.548,7.259,7.259,0,0,1-1.074-1.337,8.462,8.462,0,0,1-.833-1.71,5.006,5.006,0,0,1-.329-1.666,5.107,5.107,0,0,1,1.14-2.718,23.512,23.512,0,0,1,3.025-3.419,42.819,42.819,0,0,1,4.318-3.573,44.65,44.65,0,0,1,5.064-3.2,34.8,34.8,0,0,1,5.239-2.323,14.939,14.939,0,0,1,4.844-.9,7.065,7.065,0,0,1,2.477.5,8.682,8.682,0,0,1,2.477,1.447,8.4,8.4,0,0,1,1.907,2.257,5.726,5.726,0,0,1,.767,2.937,10.526,10.526,0,0,1-.7,3.682,18.419,18.419,0,0,1-1.863,3.66,25.228,25.228,0,0,1-2.652,3.376,25.116,25.116,0,0,1-3.025,2.783,17.222,17.222,0,0,1-2.981,1.885,6.037,6.037,0,0,1-2.586.7,25.155,25.155,0,0,0,2.389,3.9,19.566,19.566,0,0,0,3.113,3.354,12.459,12.459,0,0,0,3.573,2.148A6.333,6.333,0,0,0-276.276-502.991Z" transform="translate(306.656 535.87)" fill="#d92d2d"/>
            </g>
          </g>
        </g>
        <g id="Grupo_375" data-name="Grupo 375" transform="translate(5.274 26.4)">
          <g id="Grupo_373" data-name="Grupo 373" transform="translate(19.661 3.423)">
            <path id="Trazado_633" data-name="Trazado 633" d="M-158.31-452.3a.465.465,0,0,1,.319-.258c.111-.01.167-.127.167-.35a.8.8,0,0,0-.228-.532,2.627,2.627,0,0,0-.562-.471,3.645,3.645,0,0,0-.715-.35,2.055,2.055,0,0,0-.684-.137.713.713,0,0,0-.228.076,1.4,1.4,0,0,0-.411.349,3.717,3.717,0,0,0-.517.849,8.465,8.465,0,0,0-.517,1.578q-.213.608-.517,1.426t-.608,1.547l-.224.566c-.068.127-.14.257-.217.389a14.985,14.985,0,0,1-.913,1.4,7.752,7.752,0,0,1-.927,1.065q-.456.426-.669.426a.3.3,0,0,1-.258-.167.8.8,0,0,1-.107-.441,9.809,9.809,0,0,1,.228-2.022,18.5,18.5,0,0,1,.578-2.114,16.484,16.484,0,0,1,.76-1.885,6.938,6.938,0,0,1,.806-1.338.34.34,0,0,0-.015-.471,1.994,1.994,0,0,0-.593-.487,4.007,4.007,0,0,0-.852-.365,2.809,2.809,0,0,0-.791-.137c-.061,0-.162.112-.3.334a8.809,8.809,0,0,0-.487.913q-.061-.091-.274-.365a3.255,3.255,0,0,0-.562-.548,4.359,4.359,0,0,0-.791-.486,2.25,2.25,0,0,0-.988-.213,3.621,3.621,0,0,0-2.3.9,9.407,9.407,0,0,0-1.962,2.2,12.753,12.753,0,0,0-1.353,2.737c-.112.318-.2.617-.272.908-.036.062-.07.123-.108.187a12.167,12.167,0,0,1-.973,1.4,9.458,9.458,0,0,1-.988,1.064q-.472.426-.684.426a.3.3,0,0,1-.259-.168.809.809,0,0,1-.106-.442,6.428,6.428,0,0,1,.227-1.587,15.981,15.981,0,0,1,.563-1.755q.333-.87.7-1.633t.639-1.22a.609.609,0,0,0,.091-.366,1.077,1.077,0,0,0-.152-.519,2.068,2.068,0,0,0-.4-.5,2.325,2.325,0,0,0-.547-.382,1.346,1.346,0,0,0-.608-.152,6.7,6.7,0,0,0-1.034.091,6.7,6.7,0,0,1-1.034.091.919.919,0,0,1-.426-.06,23.376,23.376,0,0,0,.761-2.222,5.711,5.711,0,0,0,.243-1.406,1.112,1.112,0,0,0-.182-.635,1.8,1.8,0,0,0-.426-.453,1.894,1.894,0,0,0-.5-.272,1.375,1.375,0,0,0-.441-.091,1.894,1.894,0,0,0-1.079.4,5.043,5.043,0,0,0-1.019.958,5.7,5.7,0,0,0-.76,1.232,2.972,2.972,0,0,0-.3,1.216,3.535,3.535,0,0,0,.319,1.384,2.154,2.154,0,0,0,1.414,1.11q-.335.882-.745,1.794t-.776,1.642c-.1.2-.209.416-.323.64-.034.045-.066.092-.1.135a5.165,5.165,0,0,1-.837.806,5,5,0,0,1-.851.532,2.219,2.219,0,0,1-.684.228,10.527,10.527,0,0,0,.761-2.007,8.2,8.2,0,0,0,.273-2.1,6.292,6.292,0,0,0-.182-1.505,3.558,3.558,0,0,0-.623-1.323,3.136,3.136,0,0,0-1.186-.927,4.4,4.4,0,0,0-1.87-.35,3.3,3.3,0,0,0-1.794.684,8.5,8.5,0,0,0-1.886,1.81,10.88,10.88,0,0,0-1.475,2.555,8.05,8.05,0,0,0-.339,1.026c-.128.273-.277.558-.451.86a15.3,15.3,0,0,1-.912,1.4,7.773,7.773,0,0,1-.928,1.064q-.456.426-.669.426a.305.305,0,0,1-.258-.167.8.8,0,0,1-.107-.441,10.33,10.33,0,0,1,.274-2.068q.273-1.277.73-2.722t1.019-2.934q.563-1.489,1.11-2.752a21.486,21.486,0,0,1,1.064-2.159,3.969,3.969,0,0,1,.851-1.141q.213-.152-.076-.426a2.933,2.933,0,0,0-.776-.5,4.029,4.029,0,0,0-.988-.319.781.781,0,0,0-.714.121,4.034,4.034,0,0,0-.563.882q-.35.669-.791,1.657t-.912,2.175q-.472,1.186-.928,2.463-.121-.152-.35-.411a3.82,3.82,0,0,0-.547-.5,3.183,3.183,0,0,0-.73-.41,2.359,2.359,0,0,0-.9-.167,3.62,3.62,0,0,0-2.3.9,9.407,9.407,0,0,0-1.962,2.2,12.773,12.773,0,0,0-1.353,2.737c-.025.07-.041.135-.064.2-.128.273-.277.559-.452.86a14.984,14.984,0,0,1-.912,1.4,7.727,7.727,0,0,1-.927,1.065q-.456.426-.669.426a.3.3,0,0,1-.258-.167.8.8,0,0,1-.107-.441,9.782,9.782,0,0,1,.228-2.022,18.5,18.5,0,0,1,.577-2.114,16.487,16.487,0,0,1,.76-1.885,6.918,6.918,0,0,1,.806-1.338.34.34,0,0,0-.015-.471,1.988,1.988,0,0,0-.593-.487,4,4,0,0,0-.851-.365,2.819,2.819,0,0,0-.791-.137c-.061,0-.162.112-.3.334a8.83,8.83,0,0,0-.486.913c-.041-.061-.132-.182-.274-.365a3.26,3.26,0,0,0-.563-.548,4.345,4.345,0,0,0-.791-.486,2.25,2.25,0,0,0-.988-.213,3.622,3.622,0,0,0-2.3.9,9.4,9.4,0,0,0-1.961,2.2,12.752,12.752,0,0,0-1.353,2.737c-.01.029-.017.056-.027.085a9.938,9.938,0,0,1-.535,1.01,11.091,11.091,0,0,1-.989,1.4,10.473,10.473,0,0,1-1,1.064q-.472.426-.684.426a.305.305,0,0,1-.259-.167.812.812,0,0,1-.106-.441,4.124,4.124,0,0,1,.41-1.627q.411-.928.882-1.886t.882-1.809a3.448,3.448,0,0,0,.41-1.429,2.277,2.277,0,0,0-.547-1.673,2.1,2.1,0,0,0-1.551-.547,2.219,2.219,0,0,0-1,.335,7.168,7.168,0,0,0-1.277.927,12.709,12.709,0,0,0-1.338,1.4A13.8,13.8,0,0,0-227.4-449.9a8.53,8.53,0,0,1,.32-.806q.2-.44.38-.882t.319-.821a1.922,1.922,0,0,0,.137-.623.83.83,0,0,0-.243-.547,2.739,2.739,0,0,0-.578-.487,3.04,3.04,0,0,0-.73-.334,2.355,2.355,0,0,0-.669-.122c-.162,0-.263.045-.3.137a.581.581,0,0,0-.06.228,3.67,3.67,0,0,1-.213.867q-.213.655-.547,1.536t-.714,1.9c-.188.5-.363.988-.534,1.468-.118.245-.254.5-.409.767a15.142,15.142,0,0,1-.912,1.4,7.751,7.751,0,0,1-.927,1.065q-.457.426-.669.426a.305.305,0,0,1-.258-.167.8.8,0,0,1-.106-.441,9.783,9.783,0,0,1,.228-2.022,18.335,18.335,0,0,1,.578-2.114,16.481,16.481,0,0,1,.759-1.885,6.918,6.918,0,0,1,.806-1.338.34.34,0,0,0-.015-.471,1.994,1.994,0,0,0-.593-.487,4,4,0,0,0-.851-.365,2.814,2.814,0,0,0-.791-.137c-.061,0-.163.112-.3.334a8.6,8.6,0,0,0-.487.913c-.041-.061-.132-.182-.274-.365a3.275,3.275,0,0,0-.563-.548,4.373,4.373,0,0,0-.791-.486,2.253,2.253,0,0,0-.989-.213,3.619,3.619,0,0,0-2.3.9,9.381,9.381,0,0,0-1.962,2.2,12.733,12.733,0,0,0-1.353,2.737,7.7,7.7,0,0,0-.5,2.494,3.722,3.722,0,0,0,.258,1.383,3.55,3.55,0,0,0,.714,1.141,3.454,3.454,0,0,0,1.08.775,3.184,3.184,0,0,0,1.353.289,1.38,1.38,0,0,0,.745-.274,5.17,5.17,0,0,0,.836-.714,10.62,10.62,0,0,0,.837-.989,11.415,11.415,0,0,0,.744-1.125,3.5,3.5,0,0,0,.639,2.372,2.345,2.345,0,0,0,1.825.7,2.316,2.316,0,0,0,1.505-.639,7.642,7.642,0,0,0,1.235-1.356,1.726,1.726,0,0,0,.209.55,2.665,2.665,0,0,0,.593.7,4.015,4.015,0,0,0,.7.471,1.315,1.315,0,0,0,.563.182.738.738,0,0,0,.334-.076c.1-.051.152-.107.152-.167a5.53,5.53,0,0,1,.365-1.885,14.642,14.642,0,0,1,.912-2.007,15.909,15.909,0,0,1,1.216-1.9q.669-.9,1.262-1.6a11.84,11.84,0,0,1,1.049-1.11c.3-.273.5-.41.578-.41s.122.081.122.243a3.445,3.445,0,0,1-.35,1.064q-.351.791-.761,1.733t-.745,1.885a4.83,4.83,0,0,0-.334,1.521,2.935,2.935,0,0,0,.684,2.129,2.376,2.376,0,0,0,1.779.7,2.432,2.432,0,0,0,1.536-.639,8.885,8.885,0,0,0,1.414-1.475q.312-.408.575-.8a3.627,3.627,0,0,0,.2.714,3.555,3.555,0,0,0,.714,1.141,3.455,3.455,0,0,0,1.08.775,3.179,3.179,0,0,0,1.353.289,1.38,1.38,0,0,0,.745-.274,5.136,5.136,0,0,0,.836-.714,10.5,10.5,0,0,0,.837-.989,11.347,11.347,0,0,0,.744-1.125,3.5,3.5,0,0,0,.639,2.372,2.348,2.348,0,0,0,1.825.7,2.315,2.315,0,0,0,1.5-.639,7.687,7.687,0,0,0,1.323-1.475c.176-.255.337-.5.488-.751a3.614,3.614,0,0,0,.2.69,3.555,3.555,0,0,0,.714,1.141,3.448,3.448,0,0,0,1.08.775,3.18,3.18,0,0,0,1.353.289,1.36,1.36,0,0,0,.73-.259,4.719,4.719,0,0,0,.806-.684,10.29,10.29,0,0,0,.821-.973q.411-.547.745-1.1v.183a2.936,2.936,0,0,0,.684,2.129,2.377,2.377,0,0,0,1.779.7,2.292,2.292,0,0,0,1.52-.639,8.388,8.388,0,0,0,1.323-1.475c.243-.343.456-.679.646-1.011a4.411,4.411,0,0,0,.236,1.026,3.235,3.235,0,0,0,.791,1.231,2.872,2.872,0,0,0,1.171.669,5.026,5.026,0,0,0,1.429.2,3.97,3.97,0,0,0,1.962-.517,7,7,0,0,0,1.718-1.369.723.723,0,0,1,.137.015.819.819,0,0,0,.167.015,3.847,3.847,0,0,0,1.657-.35,5.6,5.6,0,0,0,1.293-.821c.073-.062.14-.125.207-.188l.006.006a.144.144,0,0,0,.213-.045,16.387,16.387,0,0,0,1.414-2.22q.805-1.46,1.779-3.649a2.21,2.21,0,0,0,.639.091,3.929,3.929,0,0,0,.988-.122,4.757,4.757,0,0,1,.532-.122c.041,0,.055.015.046.045s-.015.036-.015.015q-.123.214-.517,1.034t-.806,1.825q-.411,1-.745,1.992a5.168,5.168,0,0,0-.335,1.536,2.978,2.978,0,0,0,.669,2.129,2.364,2.364,0,0,0,1.794.7,2.433,2.433,0,0,0,1.536-.639,8.871,8.871,0,0,0,1.414-1.475c.147-.193.283-.384.413-.573a3.668,3.668,0,0,0,.149.481,3.555,3.555,0,0,0,.714,1.141,3.448,3.448,0,0,0,1.08.775,3.182,3.182,0,0,0,1.353.289,1.38,1.38,0,0,0,.745-.274,5.138,5.138,0,0,0,.836-.714,10.5,10.5,0,0,0,.836-.989,11.348,11.348,0,0,0,.745-1.125,3.5,3.5,0,0,0,.639,2.372,2.345,2.345,0,0,0,1.825.7,1.9,1.9,0,0,0,.677-.134,2.01,2.01,0,0,0-.069.5,2.844,2.844,0,0,0,.259,1.2,3.063,3.063,0,0,0,.7.973,3.218,3.218,0,0,0,1.019.639,3.286,3.286,0,0,0,1.216.228,4.092,4.092,0,0,0,1.566-.35,5.027,5.027,0,0,0,1.536-1.019,5.657,5.657,0,0,0,1.171-1.642,5.1,5.1,0,0,0,.471-2.25,5.111,5.111,0,0,0-.167-1.323q-.168-.623-.38-1.247t-.38-1.247a5.069,5.069,0,0,1-.167-1.323,5.545,5.545,0,0,1,.152-1.262A5.471,5.471,0,0,1-158.31-452.3Zm-77.21.882a5.4,5.4,0,0,1-.4,1.08,14.676,14.676,0,0,1-.745,1.384q-.441.73-.943,1.475t-.973,1.338a8.686,8.686,0,0,1-.866.958q-.4.365-.578.364a.4.4,0,0,1-.365-.2.875.875,0,0,1-.122-.471,7.471,7.471,0,0,1,.4-2.311,11.075,11.075,0,0,1,.989-2.22,8.744,8.744,0,0,1,1.246-1.672,1.791,1.791,0,0,1,1.171-.669,1.352,1.352,0,0,1,.912.289A.686.686,0,0,1-235.52-451.421Zm23.567,0a5.365,5.365,0,0,1-.395,1.08,14.663,14.663,0,0,1-.745,1.384q-.441.73-.943,1.475t-.974,1.338a8.648,8.648,0,0,1-.866.958q-.4.365-.578.364a.4.4,0,0,1-.365-.2.878.878,0,0,1-.122-.471,7.469,7.469,0,0,1,.395-2.311,11.1,11.1,0,0,1,.989-2.22,8.745,8.745,0,0,1,1.247-1.672,1.79,1.79,0,0,1,1.171-.669,1.351,1.351,0,0,1,.912.289A.686.686,0,0,1-211.953-451.421Zm12.286,0a5.392,5.392,0,0,1-.395,1.08,14.778,14.778,0,0,1-.745,1.384q-.441.73-.943,1.475t-.973,1.338a8.647,8.647,0,0,1-.867.958q-.4.365-.578.364a.4.4,0,0,1-.365-.2.878.878,0,0,1-.121-.471,7.471,7.471,0,0,1,.395-2.311,11.1,11.1,0,0,1,.989-2.22,8.759,8.759,0,0,1,1.247-1.672,1.791,1.791,0,0,1,1.171-.669,1.351,1.351,0,0,1,.912.289A.686.686,0,0,1-199.667-451.421Zm11.586,1.308a12.445,12.445,0,0,1-.425,1.521,1.573,1.573,0,0,0-.9.5,1.484,1.484,0,0,0-.38,1.049,3.1,3.1,0,0,0,.122.912,4.065,4.065,0,0,1-.76.958,1.418,1.418,0,0,1-.973.349,1.084,1.084,0,0,1-1.095-.593,2.989,2.989,0,0,1-.2-1.505,7.106,7.106,0,0,1,.471-1.946,13.147,13.147,0,0,1,.928-1.947,6.483,6.483,0,0,1,1.171-1.505,1.828,1.828,0,0,1,1.186-.593.814.814,0,0,1,.775.41,2.218,2.218,0,0,1,.228,1.079A6.469,6.469,0,0,1-188.081-450.113Zm7.025-5.185q-.183.563-.609,1.566a.989.989,0,0,1-.38-.41,1.513,1.513,0,0,1-.076-.532,1.686,1.686,0,0,1,.121-.548,3.653,3.653,0,0,1,.3-.638,3.809,3.809,0,0,1,.365-.517.488.488,0,0,1,.335-.213c.081,0,.122.142.122.426A3.072,3.072,0,0,1-181.056-455.3Zm13.532,3.877a5.394,5.394,0,0,1-.395,1.08,14.771,14.771,0,0,1-.745,1.384q-.441.73-.943,1.475t-.973,1.338a8.647,8.647,0,0,1-.867.958q-.4.365-.578.364a.4.4,0,0,1-.365-.2.882.882,0,0,1-.121-.471,7.471,7.471,0,0,1,.4-2.311,11.1,11.1,0,0,1,.988-2.22,8.744,8.744,0,0,1,1.248-1.672,1.789,1.789,0,0,1,1.171-.669,1.35,1.35,0,0,1,.912.289A.685.685,0,0,1-167.524-451.421Zm6.462,8.672a4.505,4.505,0,0,1-.5,1.244,2.123,2.123,0,0,1-.684.713,1.453,1.453,0,0,1-.745.228,1.175,1.175,0,0,1-.989-.376,1.42,1.42,0,0,1-.289-.889,1.831,1.831,0,0,1,.335-1.038,1.3,1.3,0,0,1,.912-.587.053.053,0,0,0,.06-.061c0-.081-.136-.213-.41-.4a1.608,1.608,0,0,0-.731-.261c.154-.184.3-.374.442-.575a14.765,14.765,0,0,0,.852-1.384,1.221,1.221,0,0,0,.243-.26,4.8,4.8,0,0,0,.426-.743,11.833,11.833,0,0,0,.547-1.442q.3,1.245.517,2.185a8.4,8.4,0,0,1,.213,1.85A7.153,7.153,0,0,1-161.062-442.749Z" transform="translate(243.518 460.358)"/>
          </g>
          <g id="Grupo_374" data-name="Grupo 374">
            <path id="Trazado_634" data-name="Trazado 634" d="M-276.071-452.062a3.863,3.863,0,0,0-1.232-.391q-.554-.061-.554.308a5.392,5.392,0,0,1-.288,1.15,20.173,20.173,0,0,1-.821,2.095q-.534,1.191-1.232,2.526a18.564,18.564,0,0,1-1.52,2.444,10.7,10.7,0,0,1-1.7,1.849,2.78,2.78,0,0,1-1.786.739,4,4,0,0,1-2.649-.986,3.913,3.913,0,0,1-1.171-3.163,20.033,20.033,0,0,1,.678-5.093,29.36,29.36,0,0,1,1.786-4.97,34.023,34.023,0,0,1,2.485-4.457,30.334,30.334,0,0,1,2.773-3.615,16.54,16.54,0,0,1,2.649-2.423,3.945,3.945,0,0,1,2.115-.883,1.028,1.028,0,0,1,.965.555,2.3,2.3,0,0,1,.308,1.13,6.273,6.273,0,0,1-.575,2.321,20.5,20.5,0,0,1-1.356,2.67,15.981,15.981,0,0,1-1.581,2.218q-.8.924-1.293.924a.358.358,0,0,1-.267-.1.288.288,0,0,0-.185-.1c-.109,0-.233.082-.369.246a.87.87,0,0,0-.206.575,1.075,1.075,0,0,0,.288.678,3.056,3.056,0,0,0,.739.636,4.484,4.484,0,0,0,1.006.473,3.547,3.547,0,0,0,1.13.184q.616,0,1.519-1.006a14.982,14.982,0,0,0,1.746-2.444,22.266,22.266,0,0,0,1.458-2.978,7.35,7.35,0,0,0,.616-2.649,8.369,8.369,0,0,0-.226-1.91,5.391,5.391,0,0,0-.739-1.746,4.1,4.1,0,0,0-1.335-1.273,3.766,3.766,0,0,0-1.971-.493,7.206,7.206,0,0,0-3.388.986,18.6,18.6,0,0,0-3.656,2.649,29.02,29.02,0,0,0-3.532,3.9,31.675,31.675,0,0,0-3,4.765,29.52,29.52,0,0,0-2.075,5.2,18.553,18.553,0,0,0-.78,5.216,9.007,9.007,0,0,0,.616,3.409,7.8,7.8,0,0,0,1.643,2.567,7.491,7.491,0,0,0,2.321,1.622,6.467,6.467,0,0,0,2.649.575,5.161,5.161,0,0,0,3.656-1.643,19.652,19.652,0,0,0,3.245-4.395q-.658,1.726-1.664,3.759t-2.013,3.8a27.422,27.422,0,0,1-1.91,2.957q-.9,1.191-1.355,1.191a.282.282,0,0,1-.124-.021.286.286,0,0,0-.123-.02.5.5,0,0,0-.329.144.541.541,0,0,0-.164.431q0,.328.924.7a7.881,7.881,0,0,0,2.773.37,5,5,0,0,0,1.171-.144,2,2,0,0,0,.965-.513q.04-.041.575-1.232t1.274-2.978q.739-1.787,1.6-3.964t1.6-4.21q.739-2.033,1.232-3.676a9.514,9.514,0,0,0,.493-2.383,1.689,1.689,0,0,0-.575-1.191A4.631,4.631,0,0,0-276.071-452.062Z" transform="translate(293.301 469.025)"/>
          </g>
        </g>
        <g id="Grupo_376" data-name="Grupo 376" transform="translate(16.875 26.595)">
          <path id="Trazado_635" data-name="Trazado 635" d="M-263.928-466.858l1.582,2.638,2.668-2.177-1.529-1.925-1.695-.209" transform="translate(263.928 468.53)" fill="#d92d2d"/>
        </g>
      </g>
      <g id="Grupo_378" data-name="Grupo 378" transform="translate(-300.448 -607.994)">
        <path id="Trazado_636" data-name="Trazado 636" d="M-241.256-582.948a9.142,9.142,0,0,0-.221-9.531,6.826,6.826,0,0,0-5.281-3.468l-.079-.011-.555-.4c-.02-.042-.039-.087-.058-.135-1.348-3.394-4.535-5.288-7.752-4.606-.429.091-.493.069-.75-.265a8.9,8.9,0,0,0-6.222-3.577c-3.272-.375-6.045,1.3-7.607,4.582-.018.037-.035.075-.052.113l-1.085.709a6.86,6.86,0,0,0-5.409,1.693,7.318,7.318,0,0,0-2,5.913,7.847,7.847,0,0,0,2.671,5.47l.447,2.271c-.1.324-.2.65-.291.971-.22.789-.366,1.31-.074,1.811s.813.626,1.6.822a.761.761,0,0,0,.2.023,19.568,19.568,0,0,1,3.207.206.729.729,0,0,0,.242-.006c.247.047.49.091.73.134.673.123,1.308.239,1.931.385l.341.084a44.624,44.624,0,0,1,14.81,6.668.848.848,0,0,0,.094.055,3.663,3.663,0,0,0,1.467.53,1.12,1.12,0,0,0,.43-.086c.543-.22.723-.729,1-1.517.141-.4.288-.792.43-1.168l.2.072a14.4,14.4,0,0,0,2.136.856,4.786,4.786,0,0,0,4.023-.525,4.929,4.929,0,0,0,2.075-3.626,6.191,6.191,0,0,0-.713-3.662Z" transform="translate(279.538 606.18)" fill="#fff"/>
        <path id="Trazado_637" data-name="Trazado 637" d="M-252.764-573.14a4.485,4.485,0,0,1-1.994-.654,2.142,2.142,0,0,1-.234-.137,43.44,43.44,0,0,0-14.414-6.494l-.353-.087c-.58-.136-1.2-.249-1.855-.368l-.572-.1a1.955,1.955,0,0,1-.359-.017,18.554,18.554,0,0,0-3.021-.2,1.892,1.892,0,0,1-.511-.057,3.272,3.272,0,0,1-2.342-1.376,3.284,3.284,0,0,1-.044-2.726c.066-.238.137-.479.211-.719l-.316-1.6a8.952,8.952,0,0,1-2.764-6,8.473,8.473,0,0,1,2.37-6.846,7.934,7.934,0,0,1,5.906-2.041l.478-.312c1.787-3.595,5.032-5.485,8.721-5.062a10,10,0,0,1,6.851,3.81,8.07,8.07,0,0,1,8.761,5.187l.037.026a8.012,8.012,0,0,1,5.948,4.042,10.361,10.361,0,0,1,.33,10.483l-.028.2a7.418,7.418,0,0,1,.665,4,6.1,6.1,0,0,1-2.594,4.475,5.953,5.953,0,0,1-5,.68,11.1,11.1,0,0,1-1.336-.481,3.136,3.136,0,0,1-1.666,2.2A2.322,2.322,0,0,1-252.764-573.14Zm-.917-2.765a4.593,4.593,0,0,0,.918.4,7.6,7.6,0,0,0,.313-.812c.143-.406.293-.808.438-1.192l.411-1.091,1.4.505a13.533,13.533,0,0,0,1.96.791,3.627,3.627,0,0,0,3.043-.37,3.771,3.771,0,0,0,1.556-2.78,5.023,5.023,0,0,0-.577-2.956l-.188-.344.194-1.383.105-.191a7.925,7.925,0,0,0-.207-8.364,5.643,5.643,0,0,0-4.372-2.885c-.062-.007-.106-.013-.149-.02l-.28-.044-1.03-.748-.13-.275c-.03-.062-.058-.128-.086-.2-1.132-2.85-3.763-4.448-6.407-3.888a1.672,1.672,0,0,1-1.934-.7,7.751,7.751,0,0,0-5.418-3.123c-2.776-.319-5.052,1.071-6.4,3.914l-.182.405-1.718,1.122-.405-.033a5.721,5.721,0,0,0-4.495,1.37,6.163,6.163,0,0,0-1.639,4.979,6.7,6.7,0,0,0,2.284,4.668l.29.263.582,2.955-.092.291c-.1.31-.193.622-.278.929a3.831,3.831,0,0,0-.192.9,3.69,3.69,0,0,0,.815.256,20.774,20.774,0,0,1,3.267.208l.147-.029.226.043c.244.046.485.09.722.133.693.126,1.34.244,1.99.4l.353.087A45.787,45.787,0,0,1-253.681-575.905Zm.019.013h0Zm-21.947-7.674h0Z" transform="translate(281.354 607.994)" fill="#fff"/>
      </g>
      <g id="Trazado_621" data-name="Trazado 621" transform="translate(-298.622 -606.168)">
        <path id="Trazado_638" data-name="Trazado 638" d="M-273.121-585.191a.779.779,0,0,1,.345,1.085c-.289.754-.541,1.526-.759,2.3-.37,1.323-.354,1.328.959,1.653a20.3,20.3,0,0,1,3.338.215c0-.017.006-.034.009-.052,1.043.2,2.009.354,2.96.577.114.027.226.056.34.084a45.447,45.447,0,0,1,15.073,6.783c1.353.674,1.346.672,1.805-.628.246-.7.514-1.386.738-1.987a26.477,26.477,0,0,0,2.988,1.25,3.846,3.846,0,0,0,5.1-3.482,5.368,5.368,0,0,0-.733-3.386.81.81,0,0,1,.014-.976,8.433,8.433,0,0,0-.011-9.135,6.04,6.04,0,0,0-4.681-3.068A1.374,1.374,0,0,1-246.974-595c-1.2-3.026-4.026-4.724-6.855-4.124a1.286,1.286,0,0,1-1.54-.556,8.164,8.164,0,0,0-5.686-3.274c-2.951-.338-5.4,1.184-6.8,4.138-.231.485-.428.987-.634,1.465-4.816-1.074-8.15,1.728-7.841,6.571A7.279,7.279,0,0,0-273.121-585.191Zm23.565,10.048-3.377-1.809-.086.15c.837.65,1.648,1.338,2.519,1.939a1.1,1.1,0,0,1,.269,1.818c-6.8-4.583-14.167-7.7-22.623-8.184.3-.832.522-1.543.819-2.222.062-.142.387-.225.6-.239,1.3-.086,2.6-.145,3.926-.278-.662-.1-1.322-.225-1.987-.3-.7-.079-1.4-.112-2.178-.172a1.694,1.694,0,0,1,1.948-1.107c2.68.387,5.388.7,8.011,1.338a38.278,38.278,0,0,1,10.391,4.479q.406.236.788.513C-248.891-578-248.664-577.07-249.556-575.143Zm-23.968-20.219a3.614,3.614,0,0,1,4.268-.682,1.709,1.709,0,0,1,.7.828c.388.88.7,1.792,1.143,2.655-.818-4.6.6-7.8,4.071-8.984a6,6,0,0,1,7.268,3.276l-2.318,3.42.126.081a11.76,11.76,0,0,1,1.781-1.661,8.952,8.952,0,0,1,2.955-1.331c2.682-.48,4.787,1.134,5.543,4.051l-2.061,1.258c3.426-.9,6.319-.357,8.211,2.853a6.668,6.668,0,0,1-.338,7.215l-1.1-.783-.1.086a9.7,9.7,0,0,1,.851,1.35,15.217,15.217,0,0,1,1.22,3.268,2.681,2.681,0,0,1-3.6,3.177,13.311,13.311,0,0,1-2.517-1.232.713.713,0,0,1-.3-.558,2.7,2.7,0,0,0-1.21-2.419c-.763-.589-1.583-1.107-2.4-1.62-.894-.562-.967-1.058-.055-1.611.873-.529,1.847-.892,2.8-1.457a14.461,14.461,0,0,0-1.776.141,6.507,6.507,0,0,0-1.392.517,7.12,7.12,0,0,1-6.757-.537,5.33,5.33,0,0,1-2.565-5.983,1.15,1.15,0,0,0-.053-.745c-.207.5-.434,1-.618,1.515-.255.712-.442,1.451-.726,2.15a1.893,1.893,0,0,1-1.906,1.244c-.157,0-.314,0-.47-.007-3.068-.132-4.284-1.651-3.746-4.678a1.288,1.288,0,0,0,.02-.465,6.956,6.956,0,0,0-1.011,4.328c-.7.164-1.3.336-1.917.434a1.313,1.313,0,0,1-.745-.154A5.753,5.753,0,0,1-273.524-595.362Z" transform="translate(276.502 603.144)"/>
        <path id="Trazado_639" data-name="Trazado 639" d="M-249.967-572.172a3.323,3.323,0,0,1-1.179-.46,45.332,45.332,0,0,0-15.044-6.774l-.34-.084c-.639-.149-1.281-.267-1.961-.391-.282-.051-.568-.1-.86-.16l-.135.028a20.183,20.183,0,0,0-3.313-.214h-.02l-.019,0c-.7-.173-1.051-.26-1.2-.523s-.051-.639.137-1.314c.224-.8.481-1.582.763-2.317.165-.43.1-.626-.293-.912a7.4,7.4,0,0,1-3.274-5.7,6.572,6.572,0,0,1,2.013-5.6,6.72,6.72,0,0,1,5.888-1.156c.049-.114.1-.228.145-.344.14-.333.284-.679.444-1.015,1.438-3.024,3.974-4.562,6.956-4.221a8.279,8.279,0,0,1,5.787,3.332,1.144,1.144,0,0,0,1.392.5c2.905-.617,5.793,1.118,7.023,4.215a1.231,1.231,0,0,0,1.215.95,6.187,6.187,0,0,1,4.793,3.143,8.572,8.572,0,0,1,.009,9.284.673.673,0,0,0-.021.812,5.552,5.552,0,0,1,.76,3.49,4.3,4.3,0,0,1-1.795,3.167,4.156,4.156,0,0,1-3.491.441,13.791,13.791,0,0,1-2.022-.813c-.273-.127-.553-.256-.842-.383l-.157.417c-.171.452-.354.936-.526,1.423-.243.688-.362,1.025-.637,1.136A.5.5,0,0,1-249.967-572.172Zm-19.461-8.183c.337.065.666.125.99.184.684.125,1.329.242,1.976.394l.341.084a45.537,45.537,0,0,1,15.12,6.8c.587.291.95.472,1.113.406s.269-.393.463-.944c.179-.506.362-.991.534-1.445l.265-.707.143.061c.344.146.672.3.992.447a13.578,13.578,0,0,0,1.978.8,3.866,3.866,0,0,0,3.246-.4,4.012,4.012,0,0,0,1.665-2.955,5.249,5.249,0,0,0-.712-3.292.958.958,0,0,1,.024-1.143,8.289,8.289,0,0,0-.023-8.97,5.9,5.9,0,0,0-4.567-3,1.519,1.519,0,0,1-1.459-1.135c-1.176-2.961-3.925-4.618-6.686-4.035a1.428,1.428,0,0,1-1.688-.61,7.989,7.989,0,0,0-5.585-3.218c-2.849-.327-5.274,1.151-6.654,4.054-.156.329-.3.671-.438,1-.064.154-.128.308-.194.459l-.049.113-.12-.027a6.478,6.478,0,0,0-5.751,1.066,6.285,6.285,0,0,0-1.91,5.351,7.119,7.119,0,0,0,3.153,5.475h0a.923.923,0,0,1,.4,1.258c-.279.727-.533,1.5-.754,2.291-.171.609-.255.934-.167,1.085s.432.239,1,.38a20.687,20.687,0,0,1,3.2.2v-.007Zm19,7.286-.117-.079c-7.49-5.046-14.866-7.715-22.549-8.159l-.2-.011.067-.186c.084-.233.161-.456.236-.672.19-.548.37-1.065.586-1.56.124-.283.7-.325.722-.327.35-.023.7-.044,1.049-.066.551-.033,1.113-.067,1.679-.109-.264-.041-.531-.079-.795-.109-.476-.055-.953-.087-1.46-.121-.231-.016-.468-.032-.713-.051l-.2-.015.08-.19a1.843,1.843,0,0,1,2.106-1.2q.765.11,1.532.215a64.779,64.779,0,0,1,6.493,1.126,37.9,37.9,0,0,1,10.431,4.5,9.511,9.511,0,0,1,.8.52c1.713,1.267,1.954,2.261,1.031,4.256l-.066.143-2.894-1.55.207.166c.568.453,1.154.921,1.759,1.339a1.428,1.428,0,0,1,.686.905,1.5,1.5,0,0,1-.383,1.123Zm-22.452-8.522c7.625.479,14.949,3.136,22.38,8.117a1.116,1.116,0,0,0,.246-.783,1.161,1.161,0,0,0-.562-.71c-.613-.423-1.2-.895-1.775-1.351-.249-.2-.5-.4-.75-.594l-.1-.079.222-.385,3.364,1.8c.789-1.772.558-2.6-1-3.75-.248-.18-.509-.349-.774-.5a37.644,37.644,0,0,0-10.352-4.464,64.741,64.741,0,0,0-6.463-1.12q-.768-.106-1.534-.215a1.54,1.54,0,0,0-1.7.829l.5.034c.51.034.991.067,1.473.122.466.052.936.129,1.39.2.2.033.4.066.6.1l1.149.177-1.157.117c-.97.1-1.944.157-2.885.214-.349.021-.7.042-1.046.065a.809.809,0,0,0-.471.15c-.211.484-.389,1-.578,1.538C-272.759-581.921-272.815-581.758-272.874-581.591Zm28.767,6.381a3.822,3.822,0,0,1-1.068-.159,9.681,9.681,0,0,1-2.01-.944c-.179-.1-.357-.2-.536-.3a.872.872,0,0,1-.38-.683,2.555,2.555,0,0,0-1.152-2.306c-.776-.6-1.633-1.138-2.389-1.613-.531-.333-.777-.641-.774-.966,0-.31.238-.6.722-.9.446-.27.906-.492,1.393-.727.286-.137.577-.278.868-.431-.382.023-.763.062-1.14.115a6.432,6.432,0,0,0-1.346.5,7.219,7.219,0,0,1-6.9-.54,5.46,5.46,0,0,1-2.638-6.137,1.071,1.071,0,0,0,.033-.194v0c-.144.339-.293.688-.418,1.037-.105.293-.2.59-.292.887-.132.419-.268.853-.437,1.269a2.045,2.045,0,0,1-2.044,1.337h-.092c-.128,0-.256,0-.384-.007a4.26,4.26,0,0,1-3.333-1.307,4.145,4.145,0,0,1-.583-3.365,7.156,7.156,0,0,0-.667,3.7l0,.122-.119.028c-.2.048-.4.1-.591.143-.461.115-.9.222-1.337.293a1.461,1.461,0,0,1-.839-.17,5.585,5.585,0,0,1-2.872-4.238,5.654,5.654,0,0,1,1.571-4.941h0a3.777,3.777,0,0,1,4.435-.708,1.876,1.876,0,0,1,.77.907c.142.323.277.656.412.989.1.241.2.486.3.73-.458-4.147,1.053-7.017,4.316-8.133a6.171,6.171,0,0,1,7.449,3.35l.039.077-1.895,2.8a6.372,6.372,0,0,1,1.235-1.094,9.075,9.075,0,0,1,3.007-1.351c2.733-.489,4.921,1.105,5.712,4.16l.028.107-1.384.844c3.414-.651,5.871.375,7.491,3.122a6.8,6.8,0,0,1-.352,7.385l-.088.1-.839-.6.019.027a5.407,5.407,0,0,1,.584.965c.1.227.2.453.3.681a11.175,11.175,0,0,1,.928,2.62,3,3,0,0,1-.841,2.822A2.779,2.779,0,0,1-244.107-575.21Zm-4.152-9.356-.482.286c-.479.284-.962.517-1.431.743s-.935.451-1.369.714c-.383.232-.578.449-.579.645s.212.448.636.714c.762.478,1.625,1.02,2.413,1.628a2.824,2.824,0,0,1,1.267,2.547.565.565,0,0,0,.24.426c.166.089.345.19.525.293a9.475,9.475,0,0,0,1.947.917,2.764,2.764,0,0,0,2.67-.459,2.709,2.709,0,0,0,.746-2.551,10.961,10.961,0,0,0-.906-2.55c-.1-.229-.206-.457-.3-.686a5.133,5.133,0,0,0-.554-.911c-.1-.138-.195-.276-.286-.417l-.069-.107.28-.249,1.082.771a6.525,6.525,0,0,0,.238-6.938c-1.679-2.849-4.311-3.761-8.046-2.785l-.973.254,2.825-1.724c-.772-2.822-2.81-4.291-5.346-3.837a8.82,8.82,0,0,0-2.9,1.312,6.386,6.386,0,0,0-1.22,1.093c-.176.187-.352.374-.536.549l-.085.081-.352-.226,2.353-3.473a5.868,5.868,0,0,0-7.049-3.125c-3.368,1.153-4.78,4.284-3.973,8.819l.175.984-.453-.891c-.278-.548-.511-1.122-.736-1.677-.134-.33-.267-.66-.411-.985a1.576,1.576,0,0,0-.638-.761,3.45,3.45,0,0,0-4.089.663,5.357,5.357,0,0,0-1.483,4.684,5.29,5.29,0,0,0,2.717,4.018,1.16,1.16,0,0,0,.664.139c.419-.068.848-.174,1.3-.287.154-.038.313-.078.476-.116a6.987,6.987,0,0,1,1.041-4.295l.216-.321.054.383a1.441,1.441,0,0,1-.022.518,3.994,3.994,0,0,0,.493,3.3,3.991,3.991,0,0,0,3.114,1.2c.124.006.248.006.372.006h.111a1.74,1.74,0,0,0,1.749-1.152c.164-.4.3-.833.429-1.246.094-.3.189-.6.3-.9.128-.357.278-.711.424-1.053.066-.156.133-.312.2-.469l.135-.328.138.326a1.3,1.3,0,0,1,.059.842,5.179,5.179,0,0,0,2.495,5.816,6.941,6.941,0,0,0,6.624.531,6.657,6.657,0,0,1,1.418-.526,14.675,14.675,0,0,1,1.809-.145Z" transform="translate(276.728 603.37)" fill="#211915"/>
      </g>
    </g>
  </g>
</svg>
