<svg xmlns="http://www.w3.org/2000/svg" xmlns:xlink="http://www.w3.org/1999/xlink" width="161" height="112" viewBox="0 0 161 112">
  <defs>
    <clipPath id="clip-logo">
      <rect width="161" height="112"/>
    </clipPath>
  </defs>
  <g id="logo" clip-path="url(#clip-logo)">
    <g id="Grupo_396" data-name="Grupo 396" transform="translate(325.912 607.994)">
      <g id="Grupo_363" data-name="Grupo 363" transform="translate(-312.912 -577.515)">
        <g id="Grupo_359" data-name="Grupo 359" transform="translate(29.169 6.232)">
          <g id="Grupo_357" data-name="Grupo 357" transform="translate(1.394 1.394)">
            <path id="Trazado_622" data-name="Trazado 622" d="M-150.482-469.481a5.277,5.277,0,0,1-1.942-.366,5.191,5.191,0,0,1-1.637-1.028,5,5,0,0,1-1.14-1.584,4.741,4.741,0,0,1-.342-1.059,3.923,3.923,0,0,1-2.587-1.248,3.375,3.375,0,0,1-.374-.493c-.068.074-.137.147-.2.218a7.474,7.474,0,0,1-1.214,1.032,2.977,2.977,0,0,1-1.649.556,5.148,5.148,0,0,1-2.178-.469,5.471,5.471,0,0,1-1.7-1.224q-.137-.147-.264-.3a11.618,11.618,0,0,1-1,.928,4.216,4.216,0,0,1-2.693,1.069,4.186,4.186,0,0,1-3.119-1.254,4.836,4.836,0,0,1-1.173-3.466,5.845,5.845,0,0,1,.236-1.5,16.646,16.646,0,0,1-1.259,1.871,1.543,1.543,0,0,1-.79.547,8.109,8.109,0,0,1-1.729,1.079,5.877,5.877,0,0,1-2.351.541,9.42,9.42,0,0,1-1.891,1.4,6.071,6.071,0,0,1-2.987.784,7.315,7.315,0,0,1-2.075-.289,4.775,4.775,0,0,1-1.938-1.108,4.686,4.686,0,0,1-.626-.724,10.955,10.955,0,0,1-1.025,1.026,4.059,4.059,0,0,1-2.706,1.1,4.209,4.209,0,0,1-3.09-1.242,3.712,3.712,0,0,1-.427-.527q-.111.121-.22.235a6.966,6.966,0,0,1-1.188,1,2.964,2.964,0,0,1-1.621.531,5.134,5.134,0,0,1-2.178-.469,5.464,5.464,0,0,1-1.7-1.223c-.111-.118-.217-.243-.317-.371a10.185,10.185,0,0,1-.961.94,4.077,4.077,0,0,1-2.677,1.087,4.116,4.116,0,0,1-3.177-1.278,3.377,3.377,0,0,1-.374-.493q-.1.112-.2.218a7.457,7.457,0,0,1-1.214,1.032,2.974,2.974,0,0,1-1.649.556,5.136,5.136,0,0,1-2.178-.469,5.462,5.462,0,0,1-1.7-1.223,5.281,5.281,0,0,1-.378-.45,11.559,11.559,0,0,1-1.135,1.073,4.215,4.215,0,0,1-2.693,1.069,4.206,4.206,0,0,1-3.089-1.242,4.783,4.783,0,0,1-1.2-3.478,4.547,4.547,0,0,1,.06-.713,15.617,15.617,0,0,0-.827,1.869,5.147,5.147,0,0,0-.346,1.741,1.616,1.616,0,0,1-.951,1.445,2.242,2.242,0,0,1-1.015.236,2.841,2.841,0,0,1-1.306-.372,6.137,6.137,0,0,1-1.068-.717c-.083-.068-.163-.139-.24-.214q-.176.167-.359.324a4.085,4.085,0,0,1-2.678,1.087,4.1,4.1,0,0,1-3.177-1.278,3.466,3.466,0,0,1-.374-.493q-.1.111-.2.217a7.546,7.546,0,0,1-1.213,1.032,2.98,2.98,0,0,1-1.65.556,5.148,5.148,0,0,1-2.178-.469,5.468,5.468,0,0,1-1.7-1.223,5.587,5.587,0,0,1-1.121-1.784,5.8,5.8,0,0,1-.4-2.14,10.312,10.312,0,0,1,.669-3.395,16.463,16.463,0,0,1,1.74-3.519,12.457,12.457,0,0,1,2.6-2.917,5.63,5.63,0,0,1,3.576-1.365,4.046,4.046,0,0,1,1.767.388,6.7,6.7,0,0,1,1.042.622,1.586,1.586,0,0,1,1.2-.581,4.621,4.621,0,0,1,1.332.22,6.162,6.162,0,0,1,1.3.557,3.718,3.718,0,0,1,1.106.931,1.869,1.869,0,0,1,.4,1.339c.141-.389.265-.745.369-1.065a5.486,5.486,0,0,0,.182-.644,2.052,2.052,0,0,1,.193-.782,1.713,1.713,0,0,1,1.629-.984,4.1,4.1,0,0,1,1.195.2,4.977,4.977,0,0,1,1.2.55,4.639,4.639,0,0,1,.975.823,2.916,2.916,0,0,1,.24.309,9.369,9.369,0,0,1,1.481-1.033,3.885,3.885,0,0,1,1.852-.566,3.812,3.812,0,0,1,2.81,1.052,4.01,4.01,0,0,1,1.052,2.954,3.65,3.65,0,0,1-.021.385q.122-.2.249-.395a12.5,12.5,0,0,1,2.6-2.917,5.63,5.63,0,0,1,3.577-1.365,4.037,4.037,0,0,1,1.767.389,6.625,6.625,0,0,1,1.041.622,1.587,1.587,0,0,1,1.2-.581,4.619,4.619,0,0,1,1.331.22,6.115,6.115,0,0,1,1.3.557,3.708,3.708,0,0,1,1.108.932,1.777,1.777,0,0,1-.03,2.31,6.873,6.873,0,0,0-.75,1.272,17.92,17.92,0,0,0-.829,2.058c-.187.551-.351,1.117-.491,1.691q.2-.316.4-.653c.16-.276.307-.552.437-.823.02-.064.039-.127.062-.193a16.445,16.445,0,0,1,1.739-3.517,12.484,12.484,0,0,1,2.6-2.917,5.629,5.629,0,0,1,3.578-1.365,4.181,4.181,0,0,1,1.581.3,5.357,5.357,0,0,1,.8.408q.19-.5.38-.974c.375-.945.744-1.824,1.1-2.611.006-.013.012-.025.017-.037a4.687,4.687,0,0,1-1.016.111,5.394,5.394,0,0,1-4.014-1.606,4.927,4.927,0,0,1-1.027-1.576,16.439,16.439,0,0,1-2.561,1.825,10.375,10.375,0,0,1-5.29,1.358,8.374,8.374,0,0,1-3.522-.721,7.6,7.6,0,0,1-2.647-1.989,8.561,8.561,0,0,1-1.178-1.81l-.03.035a14.564,14.564,0,0,1-2.4,2.205,13.062,13.062,0,0,1-2.944,1.622,9.716,9.716,0,0,1-3.579.656,8.376,8.376,0,0,1-3.522-.721,7.592,7.592,0,0,1-2.647-1.99,8.472,8.472,0,0,1-1.091-1.636l-.01.01a15.544,15.544,0,0,1-3.736,2.978,10.375,10.375,0,0,1-5.291,1.358,8.375,8.375,0,0,1-3.521-.721,7.6,7.6,0,0,1-2.647-1.989,8.739,8.739,0,0,1-1.6-2.818,10.2,10.2,0,0,1-.541-3.344,13.155,13.155,0,0,1,1-4.847,16.966,16.966,0,0,1,2.641-4.495,15.891,15.891,0,0,1,3.76-3.361,8.632,8.632,0,0,1,4.668-1.43,6.416,6.416,0,0,1,2.3.429,5.96,5.96,0,0,1,2.015,1.281,6.037,6.037,0,0,1,1.378,2.047,6.891,6.891,0,0,1,.493,2.655v.052a7.009,7.009,0,0,1-.108,1,16.8,16.8,0,0,1,1.788-2.668,15.886,15.886,0,0,1,3.761-3.361,8.629,8.629,0,0,1,4.667-1.429,6.51,6.51,0,0,1,2.719.539,6.58,6.58,0,0,1,1.928,1.313,5.275,5.275,0,0,1,1.22,1.857,5.419,5.419,0,0,1,.374,1.914,4.151,4.151,0,0,1-1.277,3.294A4.655,4.655,0,0,1-216.19-506a5.011,5.011,0,0,1-.722.055,3.561,3.561,0,0,1-1.551-.332,1.879,1.879,0,0,1-1.126-1.322,1.768,1.768,0,0,1,.447-1.549,4.161,4.161,0,0,0,.739-1.062,2.344,2.344,0,0,0,.23-.761,2.514,2.514,0,0,0-1.029.642,10.145,10.145,0,0,0-1.809,2.345,15.153,15.153,0,0,0-1.369,3.176,9.416,9.416,0,0,0-.456,3.017,3.3,3.3,0,0,0,.559,1.891c.087.12.355.487,1.4.487a4.418,4.418,0,0,0,2.407-.691,10.67,10.67,0,0,0,2.236-1.846,12.352,12.352,0,0,0,1.6-2.153c.205-.358.378-.671.523-.945a15.348,15.348,0,0,1,.577-1.739,16.953,16.953,0,0,1,2.641-4.494,15.885,15.885,0,0,1,3.76-3.361,8.629,8.629,0,0,1,4.667-1.429,6.414,6.414,0,0,1,2.3.429,5.989,5.989,0,0,1,1.057.528,6.178,6.178,0,0,1-.275-1.038,1.872,1.872,0,0,1,.326-1.564,1.473,1.473,0,0,1,1.126-.521h.183l.177.047a12.783,12.783,0,0,0,1.276.28c.415.067.826.124,1.236.173.391.047.812.078,1.252.094.2.007.41.013.628.017q.284-.663.621-1.446.571-1.322,1.116-2.543c.367-.822.714-1.561,1.031-2.195a5.592,5.592,0,0,1,.932-1.5,2.429,2.429,0,0,1,1.784-.674,4.166,4.166,0,0,1,.622.05,7.717,7.717,0,0,1,2.015.6,6.114,6.114,0,0,1,1.7,1.11,2.148,2.148,0,0,1,.757,1.532,1.742,1.742,0,0,1-.471,1.209c-.034.051-.134.211-.341.612q-.381.735-.836,1.672-.41.845-.8,1.688a2.993,2.993,0,0,1,.8.676,5.88,5.88,0,0,1,.817,1.222,4.989,4.989,0,0,1,.46,1.3,2.145,2.145,0,0,1,.034.548q.274-.243.556-.471a7.519,7.519,0,0,1,4.77-1.831,5.21,5.21,0,0,1,2.28.5,8.845,8.845,0,0,1,1.6.984q.147.115.283.232a2,2,0,0,1,1.617-1.1,6.067,6.067,0,0,1,1.741.291,8.143,8.143,0,0,1,1.74.747,4.742,4.742,0,0,1,1.414,1.183,1.968,1.968,0,0,1-.023,2.558,10.508,10.508,0,0,0-1.168,1.966,26.627,26.627,0,0,0-1.224,3.038,30.155,30.155,0,0,0-.937,3.426,17.149,17.149,0,0,0-.279,1.735q.36-.413.734-.918a24.765,24.765,0,0,0,1.462-2.244c.108-.185.21-.369.307-.549l.349-.882q.525-1.261,1.021-2.6t.846-2.33a15.3,15.3,0,0,1,.955-2.876,7.54,7.54,0,0,1,1.095-1.77,3.579,3.579,0,0,1,1.166-.936,2.312,2.312,0,0,1,.958-.252,4.805,4.805,0,0,1,1.632.315,7.548,7.548,0,0,1,1.487.728,5.881,5.881,0,0,1,1.251,1.052,2.731,2.731,0,0,1,.737,1.826,1.842,1.842,0,0,1-1.089,1.871,7.633,7.633,0,0,0-.752,1.874,8.113,8.113,0,0,0-.222,1.825,7.252,7.252,0,0,0,.236,1.881c.179.671.387,1.352.617,2.026.25.733.476,1.474.672,2.2a10.068,10.068,0,0,1,.331,2.605,10.072,10.072,0,0,1-.939,4.424,11.016,11.016,0,0,1-2.277,3.184l-.074.071a5.1,5.1,0,0,1,1.678-.285,4.037,4.037,0,0,1,1.767.389,6.664,6.664,0,0,1,1.041.622,1.585,1.585,0,0,1,1.2-.581,4.624,4.624,0,0,1,1.332.22,6.132,6.132,0,0,1,1.3.556,3.734,3.734,0,0,1,1.108.932,1.935,1.935,0,0,1,.4,1.005q.139-.387.289-.7a5.621,5.621,0,0,1,.827-1.329,2.883,2.883,0,0,1,.951-.754,2.023,2.023,0,0,1,.842-.213,3.748,3.748,0,0,1,1.275.243,5.7,5.7,0,0,1,1.117.546,4.489,4.489,0,0,1,.959.808,2.312,2.312,0,0,1,.618,1.549,1.729,1.729,0,0,1-.873,1.625,4.689,4.689,0,0,0-.414,1.069,5.145,5.145,0,0,0-.143,1.17,4.606,4.606,0,0,0,.149,1.193c.122.457.263.92.42,1.378.179.529.339,1.052.474,1.557a7.424,7.424,0,0,1,.244,1.917,7.406,7.406,0,0,1-.694,3.255,8.087,8.087,0,0,1-1.668,2.331A7.329,7.329,0,0,1-148.1-470,6.212,6.212,0,0,1-150.482-469.481Zm-.358-4.362a.455.455,0,0,0,.162-.071,1.144,1.144,0,0,0,.339-.382,2.678,2.678,0,0,0,.174-.335,1.474,1.474,0,0,1-.528.167c-.034.008-.058.024-.1.086a.76.76,0,0,0-.156.442.571.571,0,0,0,.007.089C-150.914-473.845-150.88-473.843-150.84-473.843Zm.779-3.365a2.3,2.3,0,0,1,.328.35c0-.088,0-.177,0-.268q0-.289-.022-.585Q-149.9-477.46-150.061-477.208Zm-34.193-1.644c.152,0,.2-.039.222-.061a2.558,2.558,0,0,0,.333-.368,5.7,5.7,0,0,1-.052-.788,3.144,3.144,0,0,1,.819-2.182,3.324,3.324,0,0,1,.963-.73c.1-.339.184-.669.25-.985a6.3,6.3,0,0,0,.15-1.254c0-.085,0-.158-.009-.223a2.554,2.554,0,0,0-.225.189,6.293,6.293,0,0,0-1.121,1.451,14.061,14.061,0,0,0-.993,2.085,7.022,7.022,0,0,0-.467,1.907,2.5,2.5,0,0,0,.065.958Zm33.577-6.964a6.878,6.878,0,0,0-.75,1.272,18,18,0,0,0-.83,2.059c-.187.553-.351,1.119-.491,1.691.134-.211.267-.43.4-.654.069-.119.134-.235.2-.349l.233-.589c.242-.581.476-1.176.7-1.793s.416-1.134.577-1.59c.011-.045.022-.09.033-.133C-150.628-485.873-150.651-485.844-150.676-485.816Zm-79.858-.175a2.008,2.008,0,0,1-.136.177,6.892,6.892,0,0,0-.749,1.27,18.109,18.109,0,0,0-.829,2.058c-.186.549-.351,1.116-.491,1.69.134-.21.267-.429.4-.653.146-.251.28-.5.4-.745.195-.547.4-1.1.609-1.674Q-230.909-485-230.534-485.991Zm72.589,1.422a8.977,8.977,0,0,0-1.265,1.7,11.492,11.492,0,0,0-.936,2.034q.183-.259.368-.534c.376-.558.736-1.122,1.073-1.678a15.914,15.914,0,0,0,.805-1.494c.022-.047.043-.093.063-.138C-157.87-484.644-157.906-484.609-157.945-484.569Zm-37.814,0a8.936,8.936,0,0,0-1.264,1.7,11.54,11.54,0,0,0-.937,2.035c.123-.172.246-.351.369-.535.375-.557.736-1.122,1.072-1.678a16.1,16.1,0,0,0,.806-1.494c.022-.048.043-.094.063-.138C-195.684-484.644-195.72-484.609-195.759-484.569Zm-14.453,0a8.945,8.945,0,0,0-1.263,1.7,11.488,11.488,0,0,0-.937,2.034c.123-.172.245-.351.369-.535.375-.557.736-1.121,1.072-1.678a16.005,16.005,0,0,0,.806-1.494c.022-.048.043-.094.063-.138C-210.137-484.644-210.174-484.609-210.213-484.569Zm-27.725,0a8.959,8.959,0,0,0-1.263,1.7,11.5,11.5,0,0,0-.936,2.034q.183-.258.368-.534c.376-.557.736-1.121,1.072-1.677a15.855,15.855,0,0,0,.806-1.495c.022-.048.043-.094.063-.138C-237.862-484.645-237.9-484.609-237.938-484.569Zm52.278-8.534a5.129,5.129,0,0,0-.605.9,24.026,24.026,0,0,0-1.182,2.4c-.416.961-.847,2.029-1.28,3.175s-.824,2.273-1.173,3.379c-.262.832-.486,1.631-.667,2.383q.169-.268.333-.551c.156-.269.3-.531.424-.8a10.462,10.462,0,0,1,.424-1.255,14.238,14.238,0,0,1,1.926-3.331,11.447,11.447,0,0,1,2.53-2.421,5.158,5.158,0,0,1,2.9-1.047,6.564,6.564,0,0,1,2.791.544,5.084,5.084,0,0,1,1.911,1.507,5.448,5.448,0,0,1,.54.867,5.175,5.175,0,0,1-.269-1.595,4.884,4.884,0,0,1,.483-2.008,8.113,8.113,0,0,1,1.08-1.749,7.7,7.7,0,0,1,.7-.755,4.781,4.781,0,0,1-1.987-1.306,4.688,4.688,0,0,1-.863-1.382q-.431.517-.87.972a10.211,10.211,0,0,1-1.648,1.4,3.7,3.7,0,0,1-2.036.7,6.8,6.8,0,0,1-2.881-.619l-.055-.026a1.675,1.675,0,0,1-.524.61Zm19.531,10.167c-.213.467-.42.961-.616,1.471q-.1.259-.192.522.156-.238.307-.488l.021-.037c.1-.356.194-.677.306-1Q-166.22-482.7-166.129-482.936Zm-10.333-3.6q.061.19.109.388a8.818,8.818,0,0,1,.255,2.1c0,.1,0,.19,0,.285q.16-.344.326-.713.2-.436.379-.87A3.385,3.385,0,0,1-176.462-486.532Zm10.923-.846a3.758,3.758,0,0,1,.213.339,2.647,2.647,0,0,1,.354,1.286,2.508,2.508,0,0,1-.051.515q.218-.378.458-.745a12.961,12.961,0,0,1,1.739-2.146l-.195.084A8.861,8.861,0,0,1-165.539-487.377Zm-1.068-7.144a.824.824,0,0,0-.567.391,1.735,1.735,0,0,0-.328.981,1.015,1.015,0,0,0,.2.658,1.217,1.217,0,0,0,.569.091,1.118,1.118,0,0,0,.549-.189,2.26,2.26,0,0,0,.695-.753,6.327,6.327,0,0,0,.683-1.721,10.83,10.83,0,0,0,.29-2.685,12.755,12.755,0,0,0-.252-2.48c-.044.064-.087.124-.129.18a4.229,4.229,0,0,1-.422.49c-.334.6-.708,1.218-1.116,1.832a2.207,2.207,0,0,1,1.149,1.717A1.478,1.478,0,0,1-166.607-494.521Zm-24.711-4.373-15.269-2.627c0,.078.008.155.014.23a2.656,2.656,0,0,0,.3,1.07,1.533,1.533,0,0,0,.576.59,2.207,2.207,0,0,0,1.118.218,4.816,4.816,0,0,0,2.6-.7,9.856,9.856,0,0,0,2.216-1.829,10.131,10.131,0,0,0,1.476-2.1c.17-.334.318-.631.446-.895.049-.177.158-.558.162-.569a9.091,9.091,0,0,1-2,2.1,9.7,9.7,0,0,1-3.7,1.7,9.237,9.237,0,0,1-2.125.24Q-206.034-501.467-206.586-501.521Zm-32.592,0c0,.078.008.155.014.231a2.663,2.663,0,0,0,.295,1.069,1.54,1.54,0,0,0,.576.59,2.209,2.209,0,0,0,1.119.218,4.824,4.824,0,0,0,2.6-.7,9.863,9.863,0,0,0,2.215-1.829,10.114,10.114,0,0,0,1.475-2.1q.26-.509.454-.909c.047-.185.1-.37.155-.556a9.091,9.091,0,0,1-2,2.1,9.684,9.684,0,0,1-3.7,1.7,9.23,9.23,0,0,1-2.124.24Q-238.626-501.467-239.179-501.521Zm51.7-10.829c-1.086,2.526-1.994,4.927-2.7,7.149a24.169,24.169,0,0,0-1.069,4.761q.376-.429.773-.95A21.46,21.46,0,0,0-189-503.618c.044-.076.085-.151.126-.224.127-.466.273-.934.434-1.395A23.059,23.059,0,0,1-186-510.178a18.617,18.617,0,0,1,1.567-2.08c-.046,0-.094.006-.141.006a3.357,3.357,0,0,1-.486-.041h0s-.1-.011-.365-.011-.65-.008-1.136-.026C-186.816-512.339-187.123-512.346-187.478-512.351Zm11.053,2.729c-.01,0-.328.039-.99.715a13.53,13.53,0,0,0-1.91,2.571,17.451,17.451,0,0,0-1.55,3.487,12.434,12.434,0,0,0-.534,2.367q.343-.378.722-.855c.511-.643,1.044-1.376,1.584-2.179s1.075-1.638,1.562-2.444a23.711,23.711,0,0,0,1.192-2.213,9.166,9.166,0,0,0,.519-1.327A1.192,1.192,0,0,0-176.425-509.621ZM-203-510.255a7.516,7.516,0,0,0-.749.87,13.956,13.956,0,0,0-1,1.562c.036-.034.071-.068.106-.1a8.248,8.248,0,0,0,1.169-1.478A9.26,9.26,0,0,0-203-510.255Zm-32.592,0a7.457,7.457,0,0,0-.749.871,13.975,13.975,0,0,0-1,1.56c.036-.033.071-.067.105-.1a8.27,8.27,0,0,0,1.169-1.478A9.256,9.256,0,0,0-235.591-510.255Zm38.819-2.059a6.8,6.8,0,0,1,.492,2.5c.292-.82.606-1.668.942-2.54h-.84a2.378,2.378,0,0,1-.65-.09Q-196.8-512.38-196.772-512.314Z" transform="translate(247.13 525.981)" fill="#fff"/>
          </g>
          <g id="Grupo_358" data-name="Grupo 358">
            <path id="Trazado_623" data-name="Trazado 623" d="M-189.3-526.193a2.819,2.819,0,0,1,.413.034,6.3,6.3,0,0,1,1.65.49,4.7,4.7,0,0,1,1.315.851q.516.491.207.8a4.77,4.77,0,0,0-.541.9q-.387.748-.851,1.7t-.9,1.908q-.439.955-.748,1.573h1.289q.206,0,.568.413a4.451,4.451,0,0,1,.619.928,3.658,3.658,0,0,1,.335.928c.051.276-.026.413-.232.413a2.058,2.058,0,0,1-.284-.026,4.537,4.537,0,0,0-.567-.026q-.387,0-1.083-.026t-1.883-.026a82.94,82.94,0,0,0-3.12,8.122,22.094,22.094,0,0,0-1.212,6.576q0,1.031.67,1.031.36,0,1.109-.721a16.082,16.082,0,0,0,1.573-1.806,22.729,22.729,0,0,0,1.573-2.372c.079-.136.15-.267.223-.4.122-.466.269-.95.447-1.457a21.568,21.568,0,0,1,2.295-4.641,15.923,15.923,0,0,1,3.326-3.739,6.141,6.141,0,0,1,3.894-1.521,3.822,3.822,0,0,1,1.676.361,7.405,7.405,0,0,1,1.34.826,5.509,5.509,0,0,1,.954.928q.36.464.464.619a14.714,14.714,0,0,1,.825-1.547q.361-.567.516-.568a4.775,4.775,0,0,1,1.341.232,6.757,6.757,0,0,1,1.444.619,3.376,3.376,0,0,1,1.005.825.578.578,0,0,1,.026.8,11.745,11.745,0,0,0-1.367,2.269,27.974,27.974,0,0,0-1.289,3.2,31.438,31.438,0,0,0-.98,3.584,16.68,16.68,0,0,0-.387,3.43,1.373,1.373,0,0,0,.181.748.517.517,0,0,0,.438.283q.361,0,1.135-.722a13.2,13.2,0,0,0,1.573-1.8,26.03,26.03,0,0,0,1.547-2.373q.2-.337.368-.661l.38-.959q.515-1.236,1.031-2.625t.877-2.418a14.308,14.308,0,0,1,.877-2.676,6.282,6.282,0,0,1,.877-1.441,2.37,2.37,0,0,1,.7-.591,1.2,1.2,0,0,1,.387-.129,3.477,3.477,0,0,1,1.161.232,6.116,6.116,0,0,1,1.212.593,4.46,4.46,0,0,1,.954.8,1.359,1.359,0,0,1,.387.9c0,.378-.1.576-.283.593s-.37.164-.542.438a9.289,9.289,0,0,0-.98,2.4,9.417,9.417,0,0,0-.258,2.14,8.6,8.6,0,0,0,.284,2.244q.282,1.058.644,2.115t.645,2.114a8.646,8.646,0,0,1,.283,2.243,8.658,8.658,0,0,1-.8,3.817,9.594,9.594,0,0,1-1.985,2.784,8.511,8.511,0,0,1-2.6,1.727,6.92,6.92,0,0,1-2.656.593,5.567,5.567,0,0,1-2.063-.387,5.458,5.458,0,0,1-1.728-1.083c-.1-.095-.2-.2-.289-.3-.033.144-.07.292-.113.451a27.534,27.534,0,0,1-.895,2.614,1.081,1.081,0,0,0,.5.072,7.9,7.9,0,0,0,1.217-.108,7.87,7.87,0,0,1,1.216-.107,1.588,1.588,0,0,1,.715.179,2.741,2.741,0,0,1,.644.449,2.434,2.434,0,0,1,.465.593,1.265,1.265,0,0,1,.179.61.715.715,0,0,1-.107.431q-.321.538-.751,1.436t-.823,1.921a18.786,18.786,0,0,0-.663,2.064,7.584,7.584,0,0,0-.268,1.867.955.955,0,0,0,.125.521.357.357,0,0,0,.3.2q.249,0,.8-.5a11.136,11.136,0,0,0,1.162-1.252,14.274,14.274,0,0,0,1.145-1.646c.045-.075.085-.147.127-.22.087-.342.189-.694.32-1.068a15,15,0,0,1,1.592-3.22,11.057,11.057,0,0,1,2.308-2.593,4.258,4.258,0,0,1,2.7-1.056,2.647,2.647,0,0,1,1.162.25,5.137,5.137,0,0,1,.93.572,3.845,3.845,0,0,1,.662.644q.25.322.322.429a10.353,10.353,0,0,1,.573-1.073q.25-.393.357-.394a3.291,3.291,0,0,1,.93.161,4.692,4.692,0,0,1,1,.429,2.337,2.337,0,0,1,.7.572.4.4,0,0,1,.018.554,8.188,8.188,0,0,0-.948,1.574,19.407,19.407,0,0,0-.894,2.218,21.811,21.811,0,0,0-.68,2.487,11.539,11.539,0,0,0-.268,2.379.947.947,0,0,0,.125.518.358.358,0,0,0,.3.2q.25,0,.788-.5a9.105,9.105,0,0,0,1.09-1.252,17.679,17.679,0,0,0,1.074-1.646c.091-.156.175-.309.255-.459.089-.223.177-.447.263-.665q.358-.857.716-1.821t.608-1.677a9.955,9.955,0,0,1,.608-1.857,4.383,4.383,0,0,1,.609-1,1.648,1.648,0,0,1,.483-.411.838.838,0,0,1,.268-.089,2.411,2.411,0,0,1,.805.161,4.267,4.267,0,0,1,.84.411,3.088,3.088,0,0,1,.662.555.94.94,0,0,1,.269.626c0,.263-.066.4-.2.412s-.256.113-.375.3a6.441,6.441,0,0,0-.68,1.663,6.523,6.523,0,0,0-.179,1.485,5.96,5.96,0,0,0,.2,1.556q.2.734.447,1.467t.447,1.467a6.012,6.012,0,0,1,.2,1.556,6,6,0,0,1-.554,2.648,6.659,6.659,0,0,1-1.377,1.931,5.908,5.908,0,0,1-1.806,1.2,4.81,4.81,0,0,1-1.843.412,3.873,3.873,0,0,1-1.431-.269,3.772,3.772,0,0,1-1.2-.752,3.6,3.6,0,0,1-.823-1.144,3.355,3.355,0,0,1-.3-1.413,2.369,2.369,0,0,1,.081-.588,2.24,2.24,0,0,1-.8.158,2.758,2.758,0,0,1-2.146-.823,4.111,4.111,0,0,1-.752-2.79,13.355,13.355,0,0,1-.876,1.324,12.3,12.3,0,0,1-.984,1.163,6.04,6.04,0,0,1-.984.841,1.624,1.624,0,0,1-.876.322,3.736,3.736,0,0,1-1.592-.34,4.056,4.056,0,0,1-1.27-.912,4.192,4.192,0,0,1-.84-1.342,4.244,4.244,0,0,1-.175-.567c-.153.223-.313.447-.486.674a10.421,10.421,0,0,1-1.664,1.736,2.861,2.861,0,0,1-1.807.751,2.781,2.781,0,0,1-2.111-.823,3.5,3.5,0,0,1-.787-2.5,6.079,6.079,0,0,1,.394-1.807q.393-1.163.876-2.344t.948-2.147q.465-.966.609-1.216c0,.01,0,.014,0,.014s.007-.011.015-.032-.006-.054-.054-.054a5.625,5.625,0,0,0-.626.143,4.62,4.62,0,0,1-1.162.144,2.583,2.583,0,0,1-.751-.108q-1.145,2.577-2.093,4.293a19.326,19.326,0,0,1-1.663,2.612.185.185,0,0,1-.146.088.2.2,0,0,1-.1-.034s0-.005-.007-.007c-.079.074-.158.148-.243.221a6.609,6.609,0,0,1-1.52.966,4.528,4.528,0,0,1-1.95.412.994.994,0,0,1-.2-.018.822.822,0,0,0-.161-.018,8.221,8.221,0,0,1-2.021,1.61,4.671,4.671,0,0,1-2.308.608,5.915,5.915,0,0,1-1.681-.232,3.379,3.379,0,0,1-1.378-.787,3.8,3.8,0,0,1-.93-1.449,5.177,5.177,0,0,1-.277-1.207c-.223.39-.473.786-.76,1.189a9.872,9.872,0,0,1-1.556,1.736,2.7,2.7,0,0,1-1.788.751,2.8,2.8,0,0,1-2.093-.823,3.452,3.452,0,0,1-.805-2.5v-.215q-.394.645-.876,1.288a12.112,12.112,0,0,1-.966,1.145,5.576,5.576,0,0,1-.948.805,1.606,1.606,0,0,1-.859.3,3.734,3.734,0,0,1-1.592-.34,4.056,4.056,0,0,1-1.27-.912,4.192,4.192,0,0,1-.84-1.342,4.272,4.272,0,0,1-.231-.811c-.177.289-.367.583-.574.883a9.04,9.04,0,0,1-1.556,1.735,2.722,2.722,0,0,1-1.77.752,2.759,2.759,0,0,1-2.147-.823,4.11,4.11,0,0,1-.752-2.79,13.35,13.35,0,0,1-.876,1.324,12.232,12.232,0,0,1-.985,1.163,6.017,6.017,0,0,1-.984.841,1.624,1.624,0,0,1-.876.322,3.734,3.734,0,0,1-1.592-.34,4.064,4.064,0,0,1-1.271-.912,4.192,4.192,0,0,1-.84-1.342,4.271,4.271,0,0,1-.235-.84q-.311.468-.677.947a10.455,10.455,0,0,1-1.663,1.736,2.861,2.861,0,0,1-1.807.751,2.8,2.8,0,0,1-2.093-.823,3.45,3.45,0,0,1-.805-2.5,5.682,5.682,0,0,1,.393-1.789q.394-1.109.877-2.218t.895-2.04a4.052,4.052,0,0,0,.411-1.252c0-.191-.048-.287-.143-.287s-.322.161-.68.483a13.819,13.819,0,0,0-1.234,1.306q-.7.824-1.484,1.878a18.719,18.719,0,0,0-1.431,2.236A17.189,17.189,0,0,0-229.9-479.1a6.5,6.5,0,0,0-.429,2.218c0,.072-.06.138-.179.2a.862.862,0,0,1-.393.089,1.547,1.547,0,0,1-.662-.215,4.7,4.7,0,0,1-.823-.554,3.112,3.112,0,0,1-.7-.823,2.031,2.031,0,0,1-.247-.647,8.989,8.989,0,0,1-1.453,1.6,2.722,2.722,0,0,1-1.771.752,2.758,2.758,0,0,1-2.147-.823,4.113,4.113,0,0,1-.752-2.79,13.434,13.434,0,0,1-.876,1.324,12.437,12.437,0,0,1-.984,1.163,6.078,6.078,0,0,1-.984.841,1.623,1.623,0,0,1-.876.322,3.738,3.738,0,0,1-1.592-.34,4.062,4.062,0,0,1-1.27-.912,4.184,4.184,0,0,1-.841-1.342,4.382,4.382,0,0,1-.3-1.628,9.056,9.056,0,0,1,.59-2.934,14.979,14.979,0,0,1,1.592-3.22,11.025,11.025,0,0,1,2.308-2.593,4.256,4.256,0,0,1,2.7-1.056,2.651,2.651,0,0,1,1.163.25,5.152,5.152,0,0,1,.93.572,3.85,3.85,0,0,1,.662.644c.166.215.274.358.322.429a10.1,10.1,0,0,1,.572-1.073c.166-.262.286-.394.358-.394a3.3,3.3,0,0,1,.93.161,4.688,4.688,0,0,1,1,.429,2.336,2.336,0,0,1,.7.572.4.4,0,0,1,.018.554,8.164,8.164,0,0,0-.948,1.574,19.406,19.406,0,0,0-.893,2.218,21.62,21.62,0,0,0-.68,2.487,11.509,11.509,0,0,0-.269,2.379.947.947,0,0,0,.125.518.358.358,0,0,0,.3.2q.251,0,.788-.5a9.107,9.107,0,0,0,1.091-1.252,17.859,17.859,0,0,0,1.073-1.646c.182-.315.342-.615.481-.9.2-.564.407-1.136.628-1.726q.447-1.2.84-2.236t.644-1.807a4.317,4.317,0,0,0,.25-1.019.686.686,0,0,1,.071-.268c.048-.108.167-.161.358-.161a2.786,2.786,0,0,1,.787.143,3.557,3.557,0,0,1,.859.394,3.205,3.205,0,0,1,.68.572.978.978,0,0,1,.286.644,2.263,2.263,0,0,1-.161.733q-.16.448-.375.966t-.447,1.037a10.031,10.031,0,0,0-.376.948,16.191,16.191,0,0,1,1.431-2.021,14.915,14.915,0,0,1,1.574-1.646,8.469,8.469,0,0,1,1.5-1.091,2.617,2.617,0,0,1,1.181-.394,2.468,2.468,0,0,1,1.825.644,2.679,2.679,0,0,1,.644,1.968,4.06,4.06,0,0,1-.483,1.681q-.484,1-1.038,2.128t-1.037,2.218a4.855,4.855,0,0,0-.483,1.914.954.954,0,0,0,.125.519.357.357,0,0,0,.3.2q.25,0,.8-.5a12.329,12.329,0,0,0,1.181-1.252,13.01,13.01,0,0,0,1.163-1.646,11.684,11.684,0,0,0,.63-1.188c.012-.034.02-.065.032-.1a15,15,0,0,1,1.592-3.22,11.046,11.046,0,0,1,2.308-2.593,4.257,4.257,0,0,1,2.7-1.056,2.647,2.647,0,0,1,1.162.25,5.121,5.121,0,0,1,.93.572,3.848,3.848,0,0,1,.662.644c.166.215.274.358.322.429a10.267,10.267,0,0,1,.572-1.073q.25-.393.358-.394a3.3,3.3,0,0,1,.93.161,4.678,4.678,0,0,1,1,.429,2.33,2.33,0,0,1,.7.572.4.4,0,0,1,.018.554,8.164,8.164,0,0,0-.948,1.574,19.412,19.412,0,0,0-.894,2.218,21.812,21.812,0,0,0-.679,2.487,11.51,11.51,0,0,0-.269,2.379.943.943,0,0,0,.125.518.357.357,0,0,0,.3.2q.25,0,.787-.5a9.106,9.106,0,0,0,1.091-1.252,17.678,17.678,0,0,0,1.073-1.646c.206-.355.381-.691.532-1.012.027-.081.047-.157.076-.24a15.022,15.022,0,0,1,1.592-3.22,11.056,11.056,0,0,1,2.308-2.593,4.257,4.257,0,0,1,2.7-1.056,2.777,2.777,0,0,1,1.056.2,3.736,3.736,0,0,1,.859.483,4.452,4.452,0,0,1,.644.591q.268.3.411.483.537-1.5,1.091-2.9t1.073-2.558q.519-1.162.93-1.95a4.724,4.724,0,0,1,.663-1.037.7.7,0,0,1,.517-.175,1.828,1.828,0,0,1,.323.032,4.749,4.749,0,0,1,1.163.376,3.457,3.457,0,0,1,.912.59q.339.322.089.5a4.669,4.669,0,0,0-1,1.342,25.321,25.321,0,0,0-1.253,2.54q-.644,1.485-1.306,3.238t-1.2,3.452q-.537,1.7-.859,3.2a12.144,12.144,0,0,0-.322,2.433.95.95,0,0,0,.125.519.358.358,0,0,0,.3.2q.25,0,.787-.5a9.119,9.119,0,0,0,1.091-1.252,17.94,17.94,0,0,0,1.073-1.646c.205-.354.38-.69.531-1.011a9.476,9.476,0,0,1,.4-1.207,12.789,12.789,0,0,1,1.735-3,9.994,9.994,0,0,1,2.219-2.129,3.877,3.877,0,0,1,2.111-.805,5.177,5.177,0,0,1,2.2.412,3.692,3.692,0,0,1,1.4,1.091,4.181,4.181,0,0,1,.733,1.556,7.4,7.4,0,0,1,.215,1.771,9.619,9.619,0,0,1-.322,2.468,12.372,12.372,0,0,1-.895,2.361,2.6,2.6,0,0,0,.8-.268,5.88,5.88,0,0,0,1-.626,6.07,6.07,0,0,0,.984-.948c.043-.051.081-.105.121-.158.134-.264.262-.518.38-.753q.43-.859.913-1.932t.876-2.111a2.533,2.533,0,0,1-1.664-1.306,4.157,4.157,0,0,1-.375-1.628,3.506,3.506,0,0,1,.358-1.431,6.7,6.7,0,0,1,.894-1.449,5.946,5.946,0,0,1,1.2-1.127,2.228,2.228,0,0,1,1.27-.465,1.4,1.4,0,0,1,.345.058,5.122,5.122,0,0,1-.028-.538,3.416,3.416,0,0,1,.115-.839,3.222,3.222,0,0,1-1.146.22,3.975,3.975,0,0,1-3.094-1.186,5.93,5.93,0,0,1-1.083-4.023,19.25,19.25,0,0,1-1.264,1.908,17.7,17.7,0,0,1-1.418,1.676,8.771,8.771,0,0,1-1.418,1.212,2.34,2.34,0,0,1-1.263.464,5.394,5.394,0,0,1-2.295-.49,5.855,5.855,0,0,1-1.832-1.315,6.038,6.038,0,0,1-1.212-1.934,6.216,6.216,0,0,1-.273-.9c-.221.35-.453.7-.706,1.059a14.263,14.263,0,0,1-2.244,2.5,3.883,3.883,0,0,1-2.578,1.083,4.033,4.033,0,0,1-3.017-1.187,4.939,4.939,0,0,1-1.158-3.545c-.226.284-.465.569-.723.854a14.108,14.108,0,0,1-3.4,2.708,8.959,8.959,0,0,1-4.59,1.169,6.966,6.966,0,0,1-2.94-.593,6.186,6.186,0,0,1-2.166-1.625,7.315,7.315,0,0,1-1.34-2.372,8.272,8.272,0,0,1-.36-1.487,25.077,25.077,0,0,1-1.626,2.075,13.087,13.087,0,0,1-2.166,1.994,11.6,11.6,0,0,1-2.63,1.449,8.3,8.3,0,0,1-3.069.56,6.965,6.965,0,0,1-2.94-.593,6.181,6.181,0,0,1-2.166-1.625,7.3,7.3,0,0,1-1.341-2.372,8.233,8.233,0,0,1-.323-1.27,15.618,15.618,0,0,1-1.533,1.982,14.09,14.09,0,0,1-3.4,2.708,8.959,8.959,0,0,1-4.59,1.169,6.966,6.966,0,0,1-2.94-.593,6.181,6.181,0,0,1-2.166-1.625,7.308,7.308,0,0,1-1.341-2.372,8.771,8.771,0,0,1-.464-2.888,11.72,11.72,0,0,1,.9-4.332A15.488,15.488,0,0,1-244.016-512a14.443,14.443,0,0,1,3.429-3.069,7.23,7.23,0,0,1,3.92-1.212,5,5,0,0,1,1.8.337,4.558,4.558,0,0,1,1.548.983,4.638,4.638,0,0,1,1.057,1.578,5.483,5.483,0,0,1,.387,2.12,6.221,6.221,0,0,1-.8,2.768,7.544,7.544,0,0,1-2.063,2.38,8.271,8.271,0,0,1-3.171,1.449,7.8,7.8,0,0,1-1.8.2,10.95,10.95,0,0,1-2.375-.28,8.566,8.566,0,0,0-.078,1.966,4.025,4.025,0,0,0,.464,1.629,2.922,2.922,0,0,0,1.083,1.113,3.564,3.564,0,0,0,1.831.413,6.229,6.229,0,0,0,3.327-.9,11.213,11.213,0,0,0,2.527-2.089,11.475,11.475,0,0,0,1.676-2.4q.31-.607.53-1.065a13.677,13.677,0,0,1,.579-1.8A15.489,15.489,0,0,1-227.719-512a14.426,14.426,0,0,1,3.429-3.069,7.23,7.23,0,0,1,3.919-1.212,5.11,5.11,0,0,1,2.14.413,5.171,5.171,0,0,1,1.522,1.031,3.865,3.865,0,0,1,.9,1.367,4.013,4.013,0,0,1,.284,1.418,2.832,2.832,0,0,1-.8,2.244,3.275,3.275,0,0,1-1.676.825,3.575,3.575,0,0,1-.521.04,2.172,2.172,0,0,1-.949-.2q-.593-.283-.232-.7a5.422,5.422,0,0,0,.954-1.392,3.579,3.579,0,0,0,.361-1.341,1.773,1.773,0,0,0-.232-1.031.953.953,0,0,0-.877-.412,3.356,3.356,0,0,0-2.269,1.061,11.453,11.453,0,0,0-2.063,2.665,16.472,16.472,0,0,0-1.5,3.467,10.727,10.727,0,0,0-.516,3.468,4.667,4.667,0,0,0,.825,2.665,2.915,2.915,0,0,0,2.527,1.06,5.824,5.824,0,0,0,3.146-.9,12.016,12.016,0,0,0,2.527-2.089,13.679,13.679,0,0,0,1.779-2.4c.252-.439.458-.814.624-1.137a13.851,13.851,0,0,1,.562-1.725A15.488,15.488,0,0,1-211.423-512a14.418,14.418,0,0,1,3.43-3.069,7.227,7.227,0,0,1,3.919-1.212,5.007,5.007,0,0,1,1.805.337,4.551,4.551,0,0,1,1.547.983,4.625,4.625,0,0,1,1.057,1.578,5.474,5.474,0,0,1,.387,2.12,6.221,6.221,0,0,1-.8,2.768,7.543,7.543,0,0,1-2.063,2.38,8.273,8.273,0,0,1-3.172,1.449,7.794,7.794,0,0,1-1.8.2,10.947,10.947,0,0,1-2.375-.28,8.516,8.516,0,0,0-.077,1.966,4.01,4.01,0,0,0,.464,1.629,2.921,2.921,0,0,0,1.083,1.113,3.563,3.563,0,0,0,1.831.413,6.229,6.229,0,0,0,3.327-.9,11.2,11.2,0,0,0,2.527-2.089,11.457,11.457,0,0,0,1.676-2.4c.2-.392.371-.735.514-1.034.059-.212.118-.423.182-.642q.542-1.857,1.315-4.049t1.753-4.615h-2.888a1.127,1.127,0,0,1-.9-.49,4.2,4.2,0,0,1-.619-1.083,5.35,5.35,0,0,1-.309-1.057q-.078-.464.077-.464a14.049,14.049,0,0,0,1.418.309q.643.1,1.289.18t1.367.1q.721.026,1.6.026.412-.979.98-2.3t1.109-2.527q.541-1.211,1.005-2.14a5.5,5.5,0,0,1,.67-1.135,1.085,1.085,0,0,1,.8-.266m-19.163,19.231a3.335,3.335,0,0,0,1.475-.348,6.373,6.373,0,0,0,1.727-1.238,9.573,9.573,0,0,0,1.367-1.728,8.964,8.964,0,0,0,.877-1.779,3.11,3.11,0,0,0,.206-1.392q-.077-.567-.593-.567a2.587,2.587,0,0,0-1.521.593,7.637,7.637,0,0,0-1.547,1.6,15.893,15.893,0,0,0-1.392,2.27A21.989,21.989,0,0,0-208.974-507a3.4,3.4,0,0,0,.511.039m-32.592,0a3.332,3.332,0,0,0,1.475-.348,6.366,6.366,0,0,0,1.727-1.238,9.569,9.569,0,0,0,1.366-1.728,8.916,8.916,0,0,0,.877-1.779,3.108,3.108,0,0,0,.206-1.392c-.051-.378-.249-.567-.593-.567a2.585,2.585,0,0,0-1.521.593,7.648,7.648,0,0,0-1.547,1.6,15.9,15.9,0,0,0-1.392,2.27A22.067,22.067,0,0,0-241.566-507a3.4,3.4,0,0,0,.511.039m57.4,7.13q.309,0,.98-.619a14.727,14.727,0,0,0,1.47-1.624q.8-1.006,1.65-2.269t1.6-2.5a24.93,24.93,0,0,0,1.264-2.346,9.118,9.118,0,0,0,.67-1.831,1.165,1.165,0,0,0-.464-1.109,2.292,2.292,0,0,0-1.547-.489,3.037,3.037,0,0,0-1.986,1.134,14.829,14.829,0,0,0-2.114,2.837,18.73,18.73,0,0,0-1.676,3.764,12.678,12.678,0,0,0-.67,3.92,1.487,1.487,0,0,0,.206.8.676.676,0,0,0,.619.335m15.316,7.22a2.455,2.455,0,0,0,1.264-.386,3.6,3.6,0,0,0,1.16-1.209,7.632,7.632,0,0,0,.851-2.109,12.161,12.161,0,0,0,.335-3.037,14.223,14.223,0,0,0-.361-3.138q-.361-1.6-.876-3.7a20.131,20.131,0,0,1-.929,2.445,8.1,8.1,0,0,1-.722,1.26,2.064,2.064,0,0,1-.413.442,24.879,24.879,0,0,1-1.444,2.346c-.236.342-.489.664-.75.977a2.718,2.718,0,0,1,1.24.441c.464.309.7.534.7.67a.091.091,0,0,1-.1.1,2.214,2.214,0,0,0-1.547,1,3.108,3.108,0,0,0-.567,1.761,2.406,2.406,0,0,0,.49,1.506,1.99,1.99,0,0,0,1.676.637m-6.075,3.066q.5-1.181.716-1.843a3.61,3.61,0,0,0,.214-1.019c0-.334-.048-.5-.143-.5a.575.575,0,0,0-.393.25,4.428,4.428,0,0,0-.429.609,4.264,4.264,0,0,0-.358.751,1.979,1.979,0,0,0-.143.644,1.78,1.78,0,0,0,.089.626,1.162,1.162,0,0,0,.447.483m-11.448,10.482a1.666,1.666,0,0,0,1.145-.411,4.772,4.772,0,0,0,.894-1.127,3.64,3.64,0,0,1-.143-1.073,1.747,1.747,0,0,1,.447-1.235,1.849,1.849,0,0,1,1.056-.59,14.627,14.627,0,0,0,.5-1.789,7.616,7.616,0,0,0,.179-1.538,2.612,2.612,0,0,0-.269-1.27.957.957,0,0,0-.912-.483,2.151,2.151,0,0,0-1.4.7,7.634,7.634,0,0,0-1.377,1.771,15.418,15.418,0,0,0-1.091,2.29,8.355,8.355,0,0,0-.554,2.289,3.519,3.519,0,0,0,.232,1.771,1.275,1.275,0,0,0,1.288.7m22.788,0q.215,0,.68-.429a10.131,10.131,0,0,0,1.02-1.127q.554-.7,1.145-1.575t1.109-1.735a17.263,17.263,0,0,0,.877-1.628,6.368,6.368,0,0,0,.465-1.27.808.808,0,0,0-.322-.769,1.586,1.586,0,0,0-1.073-.34,2.1,2.1,0,0,0-1.377.787,10.283,10.283,0,0,0-1.467,1.968,13.041,13.041,0,0,0-1.162,2.612,8.792,8.792,0,0,0-.465,2.719,1.039,1.039,0,0,0,.143.555.47.47,0,0,0,.429.232m-37.814,0q.215,0,.68-.429a10.134,10.134,0,0,0,1.02-1.127q.554-.7,1.145-1.575t1.109-1.735a17.265,17.265,0,0,0,.877-1.628,6.3,6.3,0,0,0,.465-1.27.807.807,0,0,0-.322-.769,1.586,1.586,0,0,0-1.073-.34,2.107,2.107,0,0,0-1.378.787,10.3,10.3,0,0,0-1.467,1.968,13.043,13.043,0,0,0-1.163,2.612,8.791,8.791,0,0,0-.465,2.719,1.03,1.03,0,0,0,.143.555.469.469,0,0,0,.429.232m-14.453,0q.215,0,.68-.429a10.138,10.138,0,0,0,1.019-1.127q.554-.7,1.145-1.575t1.109-1.735a17.151,17.151,0,0,0,.876-1.628,6.3,6.3,0,0,0,.465-1.27.806.806,0,0,0-.322-.769,1.586,1.586,0,0,0-1.073-.34,2.1,2.1,0,0,0-1.378.787,10.283,10.283,0,0,0-1.467,1.968,13.015,13.015,0,0,0-1.162,2.612,8.791,8.791,0,0,0-.465,2.719,1.034,1.034,0,0,0,.143.555.47.47,0,0,0,.429.232m-27.725,0q.215,0,.68-.429a10.182,10.182,0,0,0,1.019-1.127q.554-.7,1.145-1.575t1.109-1.735a17.158,17.158,0,0,0,.877-1.628,6.342,6.342,0,0,0,.465-1.27.807.807,0,0,0-.322-.769,1.589,1.589,0,0,0-1.073-.34,2.107,2.107,0,0,0-1.378.787,10.282,10.282,0,0,0-1.466,1.968,13.017,13.017,0,0,0-1.163,2.612,8.793,8.793,0,0,0-.465,2.719,1.031,1.031,0,0,0,.143.555.469.469,0,0,0,.429.232m90.617,5.009a1.705,1.705,0,0,0,.877-.268,2.49,2.49,0,0,0,.8-.839,5.3,5.3,0,0,0,.59-1.463,8.42,8.42,0,0,0,.233-2.107,9.881,9.881,0,0,0-.25-2.177q-.251-1.107-.608-2.57a13.837,13.837,0,0,1-.644,1.7,5.647,5.647,0,0,1-.5.874,1.425,1.425,0,0,1-.286.306,17.367,17.367,0,0,1-1,1.628c-.164.237-.34.46-.52.677a1.885,1.885,0,0,1,.86.306c.322.215.483.37.483.465a.063.063,0,0,1-.071.072,1.531,1.531,0,0,0-1.073.69,2.154,2.154,0,0,0-.394,1.221,1.67,1.67,0,0,0,.34,1.045,1.382,1.382,0,0,0,1.163.442M-189.3-528.981a3.794,3.794,0,0,0-2.77,1.083,6.833,6.833,0,0,0-1.193,1.859c-.326.653-.682,1.41-1.057,2.25s-.748,1.689-1.123,2.56l-.246.572c-.283-.016-.552-.039-.806-.07-.4-.047-.8-.1-1.177-.164a11.393,11.393,0,0,1-1.143-.251l-.354-.094h-.366a2.864,2.864,0,0,0-2.19,1.015,2.875,2.875,0,0,0-.64,1.341,7.763,7.763,0,0,0-1.708-.19,10,10,0,0,0-5.413,1.646,17.125,17.125,0,0,0-3.65,3.135c-.02-.056-.04-.113-.062-.169a6.657,6.657,0,0,0-1.539-2.351,7.947,7.947,0,0,0-2.331-1.595,7.889,7.889,0,0,0-3.3-.666,10,10,0,0,0-5.414,1.646,17.16,17.16,0,0,0-3.777,3.282c-.039-.105-.079-.209-.121-.312a7.426,7.426,0,0,0-1.694-2.513,7.356,7.356,0,0,0-2.488-1.582,7.806,7.806,0,0,0-2.8-.521,10,10,0,0,0-5.414,1.646,17.285,17.285,0,0,0-4.092,3.656,18.347,18.347,0,0,0-2.858,4.864,14.531,14.531,0,0,0-1.1,5.361,11.591,11.591,0,0,0,.617,3.8,10.119,10.119,0,0,0,1.852,3.266,8.985,8.985,0,0,0,3.125,2.351,9.761,9.761,0,0,0,4.1.848,11.746,11.746,0,0,0,5.992-1.548,17.812,17.812,0,0,0,2.8-2q.136.176.281.345a8.971,8.971,0,0,0,3.124,2.35,9.757,9.757,0,0,0,4.1.848,11.112,11.112,0,0,0,4.09-.754,14.468,14.468,0,0,0,3.258-1.795,16.283,16.283,0,0,0,1.352-1.11q.177.235.368.459a8.981,8.981,0,0,0,3.125,2.351,9.753,9.753,0,0,0,4.1.848,11.748,11.748,0,0,0,5.992-1.548q.771-.448,1.473-.95a6.12,6.12,0,0,0,.418.473,6.662,6.662,0,0,0,3.9,1.948l-.131.323a5.652,5.652,0,0,0-1.622-.232,6.986,6.986,0,0,0-4.453,1.675,12.929,12.929,0,0,0-1.133,1.033l-.017-.022a5.1,5.1,0,0,0-1.519-1.294,7.546,7.546,0,0,0-1.592-.684,6,6,0,0,0-1.732-.279,2.782,2.782,0,0,0-1.258.291c-.122-.067-.247-.131-.374-.192a5.427,5.427,0,0,0-2.375-.528,6.987,6.987,0,0,0-4.453,1.675,13.054,13.054,0,0,0-1.225,1.129,4.676,4.676,0,0,0-.793-1.057,5.187,5.187,0,0,0-3.8-1.46,5.223,5.223,0,0,0-2.525.739q-.324.178-.654.4a6.216,6.216,0,0,0-.619-.45,6.374,6.374,0,0,0-1.531-.705,5.485,5.485,0,0,0-1.611-.268,3.124,3.124,0,0,0-2.813,1.626q-.179-.121-.374-.234a7.531,7.531,0,0,0-1.591-.684,6,6,0,0,0-1.733-.279,2.789,2.789,0,0,0-1.259.29c-.122-.066-.246-.13-.372-.191a5.426,5.426,0,0,0-2.377-.529,6.987,6.987,0,0,0-4.453,1.675,13.872,13.872,0,0,0-2.892,3.241,17.842,17.842,0,0,0-1.886,3.817,11.663,11.663,0,0,0-.748,3.857,7.175,7.175,0,0,0,.5,2.653,6.963,6.963,0,0,0,1.4,2.224,6.858,6.858,0,0,0,2.132,1.534,6.517,6.517,0,0,0,2.763.6,4.342,4.342,0,0,0,2.422-.789c.193-.129.386-.272.578-.427a5.633,5.633,0,0,0,3.618,1.182,5.3,5.3,0,0,0,3.062-1.016,7,7,0,0,0,.639.378,4.177,4.177,0,0,0,1.951.531,3.63,3.63,0,0,0,1.644-.386,3.093,3.093,0,0,0,1.412-1.382c.074.086.15.17.23.25a5.568,5.568,0,0,0,4.084,1.66,5.568,5.568,0,0,0,3.578-1.386q.107-.088.212-.178a6.93,6.93,0,0,0,1.531.967,6.522,6.522,0,0,0,2.763.6,4.342,4.342,0,0,0,2.422-.789q.29-.193.578-.427a5.632,5.632,0,0,0,3.618,1.182,5.462,5.462,0,0,0,3.585-1.423l.042-.036a6.929,6.929,0,0,0,1.445.9,6.518,6.518,0,0,0,2.763.6,4.331,4.331,0,0,0,2.382-.756q.3-.2.6-.437a5.636,5.636,0,0,0,3.568,1.194,5.448,5.448,0,0,0,3.623-1.44l.08-.071a6.154,6.154,0,0,0,2.2,1.165,8.729,8.729,0,0,0,2.469.346,7.446,7.446,0,0,0,3.665-.961,10.606,10.606,0,0,0,1.786-1.257,7.152,7.152,0,0,0,2.37-.64,9.608,9.608,0,0,0,1.829-1.111h0a5.386,5.386,0,0,0,1.284,2.287,5.549,5.549,0,0,0,4.125,1.683,5.569,5.569,0,0,0,3.578-1.385l.091-.075a6.911,6.911,0,0,0,1.4.863,6.517,6.517,0,0,0,2.763.6,4.342,4.342,0,0,0,2.422-.789q.29-.193.578-.427a5.264,5.264,0,0,0,1.925.967q.081.217.178.431a6.384,6.384,0,0,0,1.457,2.022,6.564,6.564,0,0,0,2.074,1.3,6.659,6.659,0,0,0,2.455.464,7.59,7.59,0,0,0,2.915-.626,8.716,8.716,0,0,0,2.66-1.756,9.46,9.46,0,0,0,1.96-2.731,8.784,8.784,0,0,0,.834-3.864,8.809,8.809,0,0,0-.291-2.276c-.144-.538-.312-1.09-.5-1.643-.149-.435-.281-.866-.394-1.29a3.2,3.2,0,0,1-.1-.836,3.777,3.777,0,0,1,.106-.852,2.648,2.648,0,0,1,.149-.437,3.326,3.326,0,0,0,1.176-2.576,3.7,3.7,0,0,0-.967-2.472,5.864,5.864,0,0,0-1.254-1.06,7.088,7.088,0,0,0-1.392-.682,5.192,5.192,0,0,0-1.751-.327,3.372,3.372,0,0,0-1.415.336,4.217,4.217,0,0,0-1.419,1.1c-.074.084-.147.171-.218.263a5.948,5.948,0,0,0-.669-.448,7.53,7.53,0,0,0-1.595-.685,5.99,5.99,0,0,0-1.732-.279,2.787,2.787,0,0,0-1.258.29q-.183-.1-.374-.192a5.271,5.271,0,0,0-1.055-.375q.325-.537.608-1.12a11.454,11.454,0,0,0,1.079-5.033,11.457,11.457,0,0,0-.379-2.964c-.2-.761-.44-1.532-.7-2.293-.221-.646-.419-1.3-.59-1.934a5.863,5.863,0,0,1-.19-1.524,6.682,6.682,0,0,1,.185-1.508,5.662,5.662,0,0,1,.437-1.173,3.293,3.293,0,0,0,1.441-2.888,4.105,4.105,0,0,0-1.084-2.747,7.289,7.289,0,0,0-1.546-1.306,8.955,8.955,0,0,0-1.765-.865,6.247,6.247,0,0,0-2.106-.4,3.644,3.644,0,0,0-1.537.377,4.889,4.889,0,0,0-1.628,1.276,7.747,7.747,0,0,0-1.012,1.5,6.153,6.153,0,0,0-1.8-1.518,9.593,9.593,0,0,0-2.037-.875,7.417,7.417,0,0,0-2.141-.35,2.885,2.885,0,0,0-1.8.623,10.683,10.683,0,0,0-1.083-.6,6.6,6.6,0,0,0-2.891-.64,8.475,8.475,0,0,0-4.519,1.338l-.05-.1a7.311,7.311,0,0,0-1.011-1.516c-.037-.041-.082-.093-.136-.152q.164-.343.334-.693c.3-.621.578-1.173.82-1.639.116-.225.189-.354.229-.422a3.116,3.116,0,0,0,.741-2.057A3.5,3.5,0,0,0-184-526.837a7.506,7.506,0,0,0-2.089-1.372,9.144,9.144,0,0,0-2.38-.706,5.568,5.568,0,0,0-.832-.065Zm-33.53,26.542a2.241,2.241,0,0,1-.221-1,8.05,8.05,0,0,1,.4-2.569,14.31,14.31,0,0,1,.637-1.7,3.521,3.521,0,0,0,1.349,1.085,4.934,4.934,0,0,0,2.149.467,6.4,6.4,0,0,0,.927-.07l.042-.006a11.233,11.233,0,0,1-1.32,1.738,9.291,9.291,0,0,1-1.946,1.6,3.02,3.02,0,0,1-1.669.479,1.925,1.925,0,0,1-.345-.026Zm39.022,9.16a5.054,5.054,0,0,0,2.81-.932,11.042,11.042,0,0,0,1.539-1.257l.039.044a6.075,6.075,0,0,0,.84.763,9.524,9.524,0,0,0-.873,1.529,7.588,7.588,0,0,0-.311.8q-.238-.135-.492-.254a7.935,7.935,0,0,0-3.385-.676,6.509,6.509,0,0,0-3.588,1.227c.194-.4.383-.755.564-1.07.165-.286.278-.456.346-.55a8.324,8.324,0,0,0,2.511.379Z" transform="translate(250.13 528.981)" fill="#fff"/>
          </g>
        </g>
        <g id="Grupo_362" data-name="Grupo 362">
          <g id="Grupo_360" data-name="Grupo 360" transform="translate(1.394 1.394)">
            <path id="Trazado_624" data-name="Trazado 624" d="M-290.378-460.66a10.444,10.444,0,0,1-3.779-.534c-.538-.215-1.963-.786-1.963-2.116a2.024,2.024,0,0,1,.672-1.559,1.947,1.947,0,0,1,1.3-.512l.082,0a6.545,6.545,0,0,0,.692-.8,31.105,31.105,0,0,0,2.147-3.327l.159-.28a6.761,6.761,0,0,1-2.741.577,9.028,9.028,0,0,1-3.682-.8,10.254,10.254,0,0,1-3.159-2.206,10.606,10.606,0,0,1-2.229-3.472,12.026,12.026,0,0,1-.827-4.534,23.307,23.307,0,0,1,.974-6.528,36.306,36.306,0,0,1,2.538-6.357c.5-.967,1.038-1.923,1.622-2.858a7.925,7.925,0,0,1-.887-.616,7.4,7.4,0,0,1-1.334-1.37,3.388,3.388,0,0,1-.711-2.041,11.692,11.692,0,0,1,.939-3.687c.575-1.533,1.3-3.309,2.169-5.279.85-1.938,1.79-4.036,2.793-6.234.988-2.163,1.92-4.277,2.77-6.282s1.558-3.816,2.108-5.384a12.574,12.574,0,0,0,.764-2.947l-.27.164a42.146,42.146,0,0,0-5.016,3.593,41.112,41.112,0,0,0-4.214,4.014,24.327,24.327,0,0,0-2.855,3.776,7.9,7.9,0,0,0-.812,1.741,3.869,3.869,0,0,0,.591-.112,9.155,9.155,0,0,0,1.074-.357c.4-.164.73-.291.986-.383a2.494,2.494,0,0,1,.854-.174,1.562,1.562,0,0,1,.7.158l.3.147.2.266c.322.429.69,1.33-.466,2.545a10.489,10.489,0,0,1-1.519,1.285A12.214,12.214,0,0,1-302.394-512a5.411,5.411,0,0,1-2.257.565,3.2,3.2,0,0,1-2.2-1.035,9.964,9.964,0,0,1-1.472-1.827,11.392,11.392,0,0,1-1.117-2.292,7.3,7.3,0,0,1-.468-2.429,7.211,7.211,0,0,1,1.595-4,29.172,29.172,0,0,1,3.737-4.23,51.93,51.93,0,0,1,5.22-4.321,54.154,54.154,0,0,1,6.114-3.864,42.61,42.61,0,0,1,6.373-2.825,19.042,19.042,0,0,1,6.153-1.133,9.731,9.731,0,0,1,3.405.682,11.665,11.665,0,0,1,3.31,1.931,11.332,11.332,0,0,1,2.559,3.027,8.145,8.145,0,0,1,1.093,4.159,13.83,13.83,0,0,1-.913,4.818,23.157,23.157,0,0,1-2.332,4.583,31.164,31.164,0,0,1-3.267,4.158,31.165,31.165,0,0,1-3.727,3.429,21.771,21.771,0,0,1-3.751,2.369,11.069,11.069,0,0,1-1.512.608q.447.765.963,1.533a8.035,8.035,0,0,1,1.907-.241,5.819,5.819,0,0,1,3.036.778,6.238,6.238,0,0,1,2.018,1.927,7.764,7.764,0,0,1,1.063,2.5,11.386,11.386,0,0,1,.3,2.313,6.061,6.061,0,0,0,1.95.328,6.35,6.35,0,0,0,1.448-.172,1.661,1.661,0,0,1,.505-.08,1.549,1.549,0,0,1,1.539,1.626,2.267,2.267,0,0,1-.191,1.02l-.042.088-.054.081a7.209,7.209,0,0,1-.894,1.034,9.4,9.4,0,0,1-1.485,1.186,12.383,12.383,0,0,1-1.949,1.021,9.808,9.808,0,0,1-2.41.663,6.037,6.037,0,0,1-.638.057c-.136.251-.271.491-.407.723a19.132,19.132,0,0,1-2.22,3.1,5.776,5.776,0,0,1-1.637,1.348,6.172,6.172,0,0,1,1.618.549,6.876,6.876,0,0,1,1.851,1.331,3.334,3.334,0,0,1,1.086,2.388,12.057,12.057,0,0,1-.638,3.2c-.391,1.305-.887,2.785-1.475,4.4s-1.224,3.287-1.9,4.99-1.317,3.293-1.892,4.682-1.08,2.57-1.514,3.54c-.731,1.63-.756,1.656-.957,1.859a3.732,3.732,0,0,1-1.8.98A7.3,7.3,0,0,1-290.378-460.66Zm3.165-38.947a34.6,34.6,0,0,0-3.092,4.041,38.815,38.815,0,0,0-2.821,5.06,33.316,33.316,0,0,0-2.017,5.612,22.286,22.286,0,0,0-.752,5.639,3.346,3.346,0,0,0,.881,2.654,3.327,3.327,0,0,0,2.219.832,1.933,1.933,0,0,0,1.207-.545,11.287,11.287,0,0,0,1.78-1.936,20.6,20.6,0,0,0,1.673-2.691c.531-1.015,1.006-1.989,1.412-2.9a22.716,22.716,0,0,0,.91-2.317,8.181,8.181,0,0,0,.273-.984,1.741,1.741,0,0,1,.737-1.384,5.57,5.57,0,0,1-1.211-.261,6.691,6.691,0,0,1-1.492-.7,4.991,4.991,0,0,1-1.2-1.039,2.614,2.614,0,0,1-.655-1.681,2.419,2.419,0,0,1,.566-1.57,1.933,1.933,0,0,1,1.5-.79,1.574,1.574,0,0,1,.552.1,5.081,5.081,0,0,0,.449-.465,16.687,16.687,0,0,0,1.476-2.02,22.135,22.135,0,0,1-2.248-2.684l-.115.094Zm-4.389-6.116c-.249.718-.484,1.424-.7,2.108l.091-.083c.566-.515,1.155-1.005,1.757-1.464q-.424-.792-.817-1.507Q-291.438-506.193-291.6-505.723Zm5.156-25.84a7.7,7.7,0,0,1,1.232.851,6.945,6.945,0,0,1,1.034,1.07,2.617,2.617,0,0,1,.623,1.6,8.75,8.75,0,0,1-.5,2.481c-.3.953-.69,2.07-1.159,3.321s-1.007,2.621-1.613,4.11c-.362.889-.737,1.822-1.12,2.788a9.969,9.969,0,0,0,1.427-.993,23.885,23.885,0,0,0,3.8-4,29.3,29.3,0,0,0,3.272-5.39,12.641,12.641,0,0,0,1.312-5.363,1.543,1.543,0,0,0-.179-.726,2.518,2.518,0,0,0-.547-.715,2.58,2.58,0,0,0-.739-.471,1.729,1.729,0,0,0-.649-.15,13.647,13.647,0,0,0-4.746.943q-.75.281-1.5.612Z" transform="translate(309.912 539.394)" fill="#fff"/>
          </g>
          <g id="Grupo_361" data-name="Grupo 361">
            <path id="Trazado_625" data-name="Trazado 625" d="M-282.327-539.606a8.313,8.313,0,0,1,2.914.593,10.228,10.228,0,0,1,2.914,1.7,9.882,9.882,0,0,1,2.243,2.656,6.738,6.738,0,0,1,.9,3.455,12.387,12.387,0,0,1-.825,4.333,21.649,21.649,0,0,1-2.192,4.306,29.719,29.719,0,0,1-3.12,3.971,29.6,29.6,0,0,1-3.559,3.275,20.235,20.235,0,0,1-3.506,2.218,7.106,7.106,0,0,1-3.043.825,29.3,29.3,0,0,0,2.534,4.2,7.25,7.25,0,0,1,2.474-.474,4.429,4.429,0,0,1,2.319.58,4.823,4.823,0,0,1,1.57,1.5,6.338,6.338,0,0,1,.87,2.053,9.847,9.847,0,0,1,.266,2.247,5.415,5.415,0,0,1-.044.661c.228.1.454.21.686.3a7.474,7.474,0,0,0,2.7.511,7.743,7.743,0,0,0,1.84-.226.3.3,0,0,1,.113-.026c.1,0,.145.078.145.232a1.1,1.1,0,0,1-.051.413,6.121,6.121,0,0,1-.722.825,7.987,7.987,0,0,1-1.263,1.006,10.969,10.969,0,0,1-1.727.9,8.355,8.355,0,0,1-2.063.567,4.692,4.692,0,0,1-.666.047,5.108,5.108,0,0,1-.6-.036c-.247.488-.505.971-.783,1.446a17.616,17.616,0,0,1-2.053,2.875q-1.064,1.185-1.788,1.184a4.157,4.157,0,0,1-1.329-.217,5.279,5.279,0,0,1-1.184-.556,3.61,3.61,0,0,1-.87-.749,1.264,1.264,0,0,1-.339-.8,1.022,1.022,0,0,1,.242-.677c.16-.193.306-.29.434-.29a.338.338,0,0,1,.218.12.422.422,0,0,0,.314.121q.58,0,1.522-1.087a18.746,18.746,0,0,0,1.86-2.609c.112-.187.219-.375.327-.565a19.994,19.994,0,0,1-3.013-3.445c-.24-.343-.473-.691-.7-1.04l-.042.035-.141-.236c-.412.394-.829.815-1.257,1.288a35.644,35.644,0,0,0-3.262,4.252,40.06,40.06,0,0,0-2.923,5.243,34.555,34.555,0,0,0-2.1,5.847,23.568,23.568,0,0,0-.8,5.992,4.6,4.6,0,0,0,1.377,3.72,4.705,4.705,0,0,0,3.117,1.16,3.271,3.271,0,0,0,2.1-.87,12.646,12.646,0,0,0,2.006-2.175,21.854,21.854,0,0,0,1.787-2.875q.822-1.569,1.45-2.972a23.7,23.7,0,0,0,.966-2.464,6.335,6.335,0,0,0,.339-1.353q0-.373.479-.373a1.531,1.531,0,0,1,.172.01,4.529,4.529,0,0,1,1.45.459,5.452,5.452,0,0,1,1.474,1.063,1.989,1.989,0,0,1,.676,1.4,11.187,11.187,0,0,1-.58,2.8q-.58,1.933-1.45,4.325t-1.884,4.952q-1.015,2.561-1.884,4.663t-1.5,3.5q-.628,1.4-.676,1.45a2.344,2.344,0,0,1-1.135.6,5.877,5.877,0,0,1-1.377.169,9.273,9.273,0,0,1-3.262-.434q-1.087-.435-1.087-.822a.636.636,0,0,1,.193-.507.585.585,0,0,1,.387-.169.333.333,0,0,1,.145.024.34.34,0,0,0,.145.024q.53,0,1.594-1.4a32.343,32.343,0,0,0,2.247-3.479q1.183-2.079,2.368-4.47t1.957-4.421a23.14,23.14,0,0,1-3.818,5.17,6.072,6.072,0,0,1-4.3,1.933,7.6,7.6,0,0,1-3.117-.676,8.824,8.824,0,0,1-2.73-1.909,9.177,9.177,0,0,1-1.933-3.02,10.594,10.594,0,0,1-.725-4.01,21.821,21.821,0,0,1,.918-6.137,34.722,34.722,0,0,1,2.441-6.113A37.414,37.414,0,0,1-298.1-498.2a3.9,3.9,0,0,1-.754-.253,6.156,6.156,0,0,1-1.341-.825,5.992,5.992,0,0,1-1.083-1.109,2.019,2.019,0,0,1-.438-1.212,10.924,10.924,0,0,1,.851-3.2q.851-2.268,2.14-5.208t2.785-6.215q1.5-3.275,2.785-6.318t2.141-5.467a12.241,12.241,0,0,0,.851-3.61c0-.275.068-.446.206-.516a.838.838,0,0,1,.361-.1,1.916,1.916,0,0,1,.876.284,6.236,6.236,0,0,1,1.006.7,5.515,5.515,0,0,1,.825.851,1.33,1.33,0,0,1,.335.748,7.753,7.753,0,0,1-.439,2.062q-.439,1.392-1.135,3.249t-1.6,4.075q-.9,2.217-1.831,4.59a1.7,1.7,0,0,0,1.031.464,5.947,5.947,0,0,0,3.275-1.651,25.166,25.166,0,0,0,4.023-4.229,30.576,30.576,0,0,0,3.429-5.647,13.953,13.953,0,0,0,1.444-5.956,2.927,2.927,0,0,0-.335-1.367,3.919,3.919,0,0,0-.851-1.108,4,4,0,0,0-1.135-.722,3.09,3.09,0,0,0-1.186-.258,14.956,14.956,0,0,0-5.235,1.031,32.2,32.2,0,0,0-5.467,2.682,43.379,43.379,0,0,0-5.183,3.714,42.3,42.3,0,0,0-4.358,4.151,25.547,25.547,0,0,0-3.017,4,6.649,6.649,0,0,0-1.135,3.2.529.529,0,0,0,.361.516,1.93,1.93,0,0,0,.774.155,5.121,5.121,0,0,0,1.34-.18,10.46,10.46,0,0,0,1.238-.413c.378-.155.688-.275.928-.361a1.294,1.294,0,0,1,.385-.092.181.181,0,0,1,.079.014c.1.138-.018.387-.361.748a9.071,9.071,0,0,1-1.315,1.109,10.736,10.736,0,0,1-1.753,1.005,4.116,4.116,0,0,1-1.676.439,1.886,1.886,0,0,1-1.238-.645,8.535,8.535,0,0,1-1.264-1.573,9.941,9.941,0,0,1-.98-2.011,5.889,5.889,0,0,1-.387-1.96,6.01,6.01,0,0,1,1.341-3.2,27.692,27.692,0,0,1,3.558-4.023,50.449,50.449,0,0,1,5.08-4.2,52.534,52.534,0,0,1,5.957-3.764,41.043,41.043,0,0,1,6.163-2.733,17.573,17.573,0,0,1,5.7-1.057m-14.26,39.361a33.521,33.521,0,0,1,3.709-4.028,24.1,24.1,0,0,1,2.611-2.07l0-.008.017-.028c-.161-.287-.323-.573-.479-.865q-1.392-2.6-2.424-4.358-.723,1.961-1.366,3.816t-1.134,3.533q-.491,1.675-.774,3.094c-.064.319-.113.621-.156.914m13.826-3.208a4.488,4.488,0,0,0,.055-.651,2.7,2.7,0,0,0-.363-1.329,1.209,1.209,0,0,0-1.135-.652,2.918,2.918,0,0,0-1.077.24,21.9,21.9,0,0,0,2.156,2.107c.12.1.244.188.365.285m.434-38.941a20.414,20.414,0,0,0-6.607,1.209,44.035,44.035,0,0,0-6.583,2.918,55.626,55.626,0,0,0-6.272,3.964,53.391,53.391,0,0,0-5.36,4.438,30.607,30.607,0,0,0-3.915,4.437,8.506,8.506,0,0,0-1.848,4.8,8.667,8.667,0,0,0,.549,2.9,12.779,12.779,0,0,0,1.257,2.576,11.326,11.326,0,0,0,1.681,2.082,4.533,4.533,0,0,0,3.169,1.422,6.766,6.766,0,0,0,2.841-.694,13.609,13.609,0,0,0,2.2-1.266,11.811,11.811,0,0,0,1.66-1.4c-.608,1.349-1.186,2.649-1.727,3.884-.874,1.993-1.613,3.793-2.2,5.349a12.658,12.658,0,0,0-1.028,4.176,4.82,4.82,0,0,0,.984,2.87,8.742,8.742,0,0,0,1.481,1.545q-.528.908-1,1.834a37.661,37.661,0,0,0-2.635,6.6,24.7,24.7,0,0,0-1.03,6.919,13.414,13.414,0,0,0,.929,5.057,12,12,0,0,0,2.526,3.924,11.637,11.637,0,0,0,3.588,2.5,10.422,10.422,0,0,0,4.146.917q-.293.427-.572.8c-.09.119-.169.218-.236.3a3.394,3.394,0,0,0-1.659.818,3.385,3.385,0,0,0-1.135,2.6c0,1.509.955,2.656,2.839,3.41a11.743,11.743,0,0,0,4.3.634,8.692,8.692,0,0,0,2.029-.247,5.1,5.1,0,0,0,2.454-1.343c.416-.422.527-.67,1.249-2.281.44-.983.955-2.186,1.53-3.577s1.216-2.976,1.9-4.7,1.323-3.406,1.912-5.027c.6-1.64,1.1-3.146,1.5-4.477a13.249,13.249,0,0,0,.7-3.6A4.7,4.7,0,0,0-280.2-489.5a8.406,8.406,0,0,0-1.751-1.348,20.6,20.6,0,0,0,2.354-3.294l.064-.109a11.19,11.19,0,0,0,2.724-.753,13.823,13.823,0,0,0,2.174-1.14,10.822,10.822,0,0,0,1.707-1.366,8.565,8.565,0,0,0,1.069-1.247l.108-.162.085-.175a3.685,3.685,0,0,0,.329-1.627,2.945,2.945,0,0,0-2.932-3.02,3.038,3.038,0,0,0-.867.127,4.943,4.943,0,0,1-1.086.125,4.521,4.521,0,0,1-.63-.044,13.167,13.167,0,0,0-.263-1.52A9.146,9.146,0,0,0-278.373-508a7.612,7.612,0,0,0-2.465-2.357,7,7,0,0,0-3.146-.956,25.259,25.259,0,0,0,2.638-1.792,32.5,32.5,0,0,0,3.9-3.582,32.553,32.553,0,0,0,3.413-4.345,24.528,24.528,0,0,0,2.472-4.86,15.219,15.219,0,0,0,1-5.3,9.516,9.516,0,0,0-1.282-4.859,12.715,12.715,0,0,0-2.874-3.4,13.06,13.06,0,0,0-3.707-2.162,11.118,11.118,0,0,0-3.9-.773Zm-2.959,9.6a11.551,11.551,0,0,1,3.418-.568c-.006,0,.039.01.121.044a1.207,1.207,0,0,1,.342.222,1.14,1.14,0,0,1,.243.325.135.135,0,0,1,.019.077,11.267,11.267,0,0,1-1.179,4.77,27.887,27.887,0,0,1-3.116,5.133q-.286.371-.572.721.259-.668.492-1.291c.477-1.273.875-2.414,1.183-3.39a9.877,9.877,0,0,0,.567-2.9,4,4,0,0,0-.908-2.44,7.836,7.836,0,0,0-.61-.7Zm-16.56,12.312a26.71,26.71,0,0,1,1.812-2.222,39.718,39.718,0,0,1,4.072-3.877q1-.833,2.049-1.6c-.5,1.363-1.1,2.893-1.811,4.56-.8,1.894-1.679,3.885-2.607,5.924a3.09,3.09,0,0,0-.59-1.713l-.4-.532-.6-.295a2.94,2.94,0,0,0-1.313-.3,3.323,3.323,0,0,0-.616.059Zm11.716,23.175q.673-.958,1.347-1.8.291.355.592.693-.33.46-.656.847h-.046a3.1,3.1,0,0,0-1.238.257Zm-4.293,18.539a1.936,1.936,0,0,1-1.3-.5,2.331,2.331,0,0,1-.385-1.589,20.888,20.888,0,0,1,.706-5.285,31.889,31.889,0,0,1,1.932-5.377q.527-1.132,1.112-2.206a4.021,4.021,0,0,0,.976,2.491,6.386,6.386,0,0,0,1.529,1.329,7.875,7.875,0,0,0,1.355.686q-.024.149-.034.3c-.023.1-.081.316-.216.74a21.243,21.243,0,0,1-.853,2.169c-.395.881-.858,1.829-1.376,2.819a19.113,19.113,0,0,1-1.558,2.509,9.915,9.915,0,0,1-1.555,1.7,1.21,1.21,0,0,1-.335.219Z" transform="translate(312.912 542.394)" fill="#fff"/>
          </g>
        </g>
      </g>
      <g id="Grupo_377" data-name="Grupo 377" transform="translate(-310.005 -574.484)">
        <g id="ecetas" transform="translate(29.169 6.232)">
          <g id="Grupo_370" data-name="Grupo 370">
            <g id="Grupo_364" data-name="Grupo 364" transform="translate(0 9.91)">
              <path id="Trazado_626" data-name="Trazado 626" d="M-226.494-492.05q.67,0,.748.516a4.567,4.567,0,0,1-.129,1.5,11.3,11.3,0,0,1-.928,2.192,14.2,14.2,0,0,1-2.166,3.059,14.089,14.089,0,0,1-3.4,2.708,8.963,8.963,0,0,1-4.59,1.169,6.972,6.972,0,0,1-2.94-.593,6.191,6.191,0,0,1-2.166-1.625,7.31,7.31,0,0,1-1.341-2.372,8.77,8.77,0,0,1-.464-2.888,11.733,11.733,0,0,1,.9-4.332,15.5,15.5,0,0,1,2.424-4.126,14.439,14.439,0,0,1,3.429-3.068,7.23,7.23,0,0,1,3.92-1.212,5,5,0,0,1,1.8.337,4.558,4.558,0,0,1,1.547.983,4.64,4.64,0,0,1,1.057,1.578,5.48,5.48,0,0,1,.387,2.12,6.225,6.225,0,0,1-.8,2.768,7.54,7.54,0,0,1-2.063,2.38,8.266,8.266,0,0,1-3.171,1.449,9.3,9.3,0,0,1-4.178-.078,8.569,8.569,0,0,0-.078,1.966,4.025,4.025,0,0,0,.464,1.629,2.919,2.919,0,0,0,1.083,1.113,3.561,3.561,0,0,0,1.831.414,6.229,6.229,0,0,0,3.327-.9,11.215,11.215,0,0,0,2.527-2.089,11.476,11.476,0,0,0,1.676-2.4q.62-1.211.877-1.831C-226.8-491.93-226.667-492.05-226.494-492.05Zm-6.034-6.807a2.586,2.586,0,0,0-1.521.593,7.64,7.64,0,0,0-1.547,1.6,15.885,15.885,0,0,0-1.393,2.27,22.075,22.075,0,0,0-1.108,2.553,3.317,3.317,0,0,0,1.985-.309,6.375,6.375,0,0,0,1.727-1.238,9.583,9.583,0,0,0,1.366-1.728,8.912,8.912,0,0,0,.877-1.779,3.111,3.111,0,0,0,.206-1.392C-231.986-498.668-232.185-498.858-232.528-498.858Z" transform="translate(243.874 501.127)" fill="#d92d2d"/>
            </g>
            <g id="Grupo_365" data-name="Grupo 365" transform="translate(16.296 9.91)">
              <path id="Trazado_627" data-name="Trazado 627" d="M-191.419-492.05q.36,0,.593.516a2.514,2.514,0,0,1,.026,1.5,9.231,9.231,0,0,1-.49,1.186,12.861,12.861,0,0,1-1.083,1.831,25.061,25.061,0,0,1-1.651,2.11,13.083,13.083,0,0,1-2.166,1.994,11.626,11.626,0,0,1-2.63,1.449,8.3,8.3,0,0,1-3.069.559,6.971,6.971,0,0,1-2.94-.593,6.191,6.191,0,0,1-2.166-1.625,7.3,7.3,0,0,1-1.341-2.372,8.77,8.77,0,0,1-.464-2.888,11.715,11.715,0,0,1,.9-4.332,15.5,15.5,0,0,1,2.423-4.126,14.433,14.433,0,0,1,3.43-3.068,7.23,7.23,0,0,1,3.919-1.212,5.112,5.112,0,0,1,2.14.413,5.172,5.172,0,0,1,1.522,1.031,3.875,3.875,0,0,1,.9,1.366,4.018,4.018,0,0,1,.283,1.419,2.83,2.83,0,0,1-.8,2.243,3.277,3.277,0,0,1-1.676.826,2.521,2.521,0,0,1-1.47-.155q-.593-.284-.232-.7a5.417,5.417,0,0,0,.954-1.393,3.58,3.58,0,0,0,.361-1.34,1.777,1.777,0,0,0-.232-1.031.952.952,0,0,0-.877-.413,3.358,3.358,0,0,0-2.269,1.061,11.463,11.463,0,0,0-2.063,2.666,16.468,16.468,0,0,0-1.5,3.467,10.725,10.725,0,0,0-.516,3.468,4.666,4.666,0,0,0,.825,2.665,2.916,2.916,0,0,0,2.527,1.06,5.826,5.826,0,0,0,3.146-.9,12.018,12.018,0,0,0,2.527-2.089,13.684,13.684,0,0,0,1.779-2.4,18.1,18.1,0,0,0,.954-1.831C-191.729-491.93-191.592-492.05-191.419-492.05Z" transform="translate(208.799 501.127)" fill="#d92d2d"/>
            </g>
            <g id="Grupo_366" data-name="Grupo 366" transform="translate(32.593 9.91)">
              <path id="Trazado_628" data-name="Trazado 628" d="M-156.345-492.05q.67,0,.748.516a4.578,4.578,0,0,1-.129,1.5,11.381,11.381,0,0,1-.928,2.192,14.212,14.212,0,0,1-2.166,3.059,14.1,14.1,0,0,1-3.4,2.708,8.96,8.96,0,0,1-4.589,1.169,6.971,6.971,0,0,1-2.94-.593,6.2,6.2,0,0,1-2.166-1.625,7.309,7.309,0,0,1-1.34-2.372,8.77,8.77,0,0,1-.464-2.888,11.714,11.714,0,0,1,.9-4.332,15.488,15.488,0,0,1,2.424-4.126,14.416,14.416,0,0,1,3.43-3.068,7.227,7.227,0,0,1,3.919-1.212,5.007,5.007,0,0,1,1.805.337,4.557,4.557,0,0,1,1.547.983,4.632,4.632,0,0,1,1.057,1.578,5.472,5.472,0,0,1,.387,2.12,6.219,6.219,0,0,1-.8,2.768,7.534,7.534,0,0,1-2.063,2.38,8.271,8.271,0,0,1-3.172,1.449,9.3,9.3,0,0,1-4.177-.078,8.49,8.49,0,0,0-.077,1.966,4.01,4.01,0,0,0,.464,1.629,2.912,2.912,0,0,0,1.083,1.113,3.558,3.558,0,0,0,1.831.414,6.226,6.226,0,0,0,3.326-.9,11.2,11.2,0,0,0,2.527-2.089,11.458,11.458,0,0,0,1.676-2.4q.619-1.211.877-1.831C-156.654-491.93-156.517-492.05-156.345-492.05Zm-6.034-6.807a2.587,2.587,0,0,0-1.521.593,7.628,7.628,0,0,0-1.547,1.6,15.84,15.84,0,0,0-1.392,2.27,21.92,21.92,0,0,0-1.109,2.553,3.318,3.318,0,0,0,1.986-.309,6.383,6.383,0,0,0,1.727-1.238,9.586,9.586,0,0,0,1.367-1.728,8.931,8.931,0,0,0,.876-1.779,3.106,3.106,0,0,0,.207-1.392Q-161.863-498.857-162.379-498.858Z" transform="translate(173.724 501.127)" fill="#d92d2d"/>
            </g>
            <g id="Grupo_367" data-name="Grupo 367" transform="translate(47.702)">
              <path id="Trazado_629" data-name="Trazado 629" d="M-128.465-513.784a4.442,4.442,0,0,1,.619.929,3.658,3.658,0,0,1,.335.928c.051.276-.026.413-.232.413a2.041,2.041,0,0,1-.284-.026,4.437,4.437,0,0,0-.567-.026q-.387,0-1.083-.026t-1.883-.026a82.9,82.9,0,0,0-3.12,8.122,22.089,22.089,0,0,0-1.212,6.576q0,1.032.67,1.031.36,0,1.109-.722a16.069,16.069,0,0,0,1.572-1.8,22.669,22.669,0,0,0,1.573-2.372,16.658,16.658,0,0,0,1.161-2.372.148.148,0,0,1,.052-.1c.068-.068.12-.1.155-.1q.567,0,.67.439a3.169,3.169,0,0,1,.051,1.005c-.069.412-.172.895-.309,1.444a17.75,17.75,0,0,1-.825,1.8,21.147,21.147,0,0,1-1.676,2.759,14.252,14.252,0,0,1-2.244,2.5,3.883,3.883,0,0,1-2.578,1.083,4.032,4.032,0,0,1-3.017-1.186,4.978,4.978,0,0,1-1.161-3.61,12.722,12.722,0,0,1,.309-2.475q.31-1.5.851-3.352t1.315-4.049q.774-2.191,1.754-4.615h-2.888a1.127,1.127,0,0,1-.9-.49,4.2,4.2,0,0,1-.619-1.083,5.361,5.361,0,0,1-.309-1.058q-.078-.464.077-.464a13.936,13.936,0,0,0,1.418.309q.644.1,1.289.181t1.367.1c.481.018,1.014.025,1.6.025q.412-.979.98-2.295t1.109-2.527q.541-1.212,1.005-2.141a5.5,5.5,0,0,1,.67-1.135,1.371,1.371,0,0,1,1.212-.232,6.3,6.3,0,0,1,1.65.49,4.714,4.714,0,0,1,1.315.851q.516.491.207.8a4.761,4.761,0,0,0-.541.9q-.387.749-.851,1.7t-.9,1.908q-.439.955-.748,1.573h1.289C-128.9-514.2-128.706-514.058-128.465-513.784Z" transform="translate(141.203 522.456)" fill="#d92d2d"/>
            </g>
            <g id="Grupo_368" data-name="Grupo 368" transform="translate(57.758 9.91)">
              <path id="Trazado_630" data-name="Trazado 630" d="M-97.383-492a.676.676,0,0,1,.722.464,2.064,2.064,0,0,1,.052,1.031,11.145,11.145,0,0,1-.361,1.444,16.513,16.513,0,0,1-.826,1.779,24.1,24.1,0,0,1-1.65,2.733,13.035,13.035,0,0,1-2.244,2.5,3.927,3.927,0,0,1-2.553,1.083,3.976,3.976,0,0,1-3.094-1.186,5.929,5.929,0,0,1-1.083-4.023,19.3,19.3,0,0,1-1.264,1.908,17.713,17.713,0,0,1-1.418,1.677,8.766,8.766,0,0,1-1.418,1.212,2.34,2.34,0,0,1-1.263.464,5.394,5.394,0,0,1-2.295-.49,5.856,5.856,0,0,1-1.832-1.316,6.029,6.029,0,0,1-1.212-1.934,6.321,6.321,0,0,1-.438-2.346,13.046,13.046,0,0,1,.851-4.229,21.547,21.547,0,0,1,2.295-4.641,15.925,15.925,0,0,1,3.326-3.739,6.137,6.137,0,0,1,3.894-1.521,3.813,3.813,0,0,1,1.676.361,7.371,7.371,0,0,1,1.341.825,5.509,5.509,0,0,1,.954.928q.36.464.464.619a14.82,14.82,0,0,1,.825-1.547q.361-.567.516-.567a4.77,4.77,0,0,1,1.34.232,6.751,6.751,0,0,1,1.444.619,3.373,3.373,0,0,1,1.005.825.578.578,0,0,1,.026.8,11.741,11.741,0,0,0-1.367,2.269,28.047,28.047,0,0,0-1.289,3.2,31.451,31.451,0,0,0-.98,3.584,16.681,16.681,0,0,0-.387,3.43,1.37,1.37,0,0,0,.181.748.517.517,0,0,0,.438.284q.361,0,1.135-.722a13.178,13.178,0,0,0,1.573-1.8,26.026,26.026,0,0,0,1.547-2.372,16.651,16.651,0,0,0,1.16-2.372.148.148,0,0,1,.052-.1Q-97.435-492-97.383-492Zm-16.245,7.323q.309,0,.98-.619a14.738,14.738,0,0,0,1.47-1.624q.8-1.006,1.65-2.269t1.6-2.5a24.885,24.885,0,0,0,1.264-2.347,9.116,9.116,0,0,0,.67-1.831,1.164,1.164,0,0,0-.464-1.109,2.292,2.292,0,0,0-1.547-.49,3.038,3.038,0,0,0-1.986,1.135,14.839,14.839,0,0,0-2.114,2.836,18.747,18.747,0,0,0-1.676,3.765,12.675,12.675,0,0,0-.67,3.919,1.489,1.489,0,0,0,.206.8A.677.677,0,0,0-113.628-484.675Z" transform="translate(119.559 501.127)" fill="#d92d2d"/>
            </g>
            <g id="Grupo_369" data-name="Grupo 369" transform="translate(74.106 10.116)">
              <path id="Trazado_631" data-name="Trazado 631" d="M-70.706-498.156c0,.379-.1.576-.283.593s-.37.163-.542.438a9.269,9.269,0,0,0-.98,2.4,9.424,9.424,0,0,0-.258,2.141,8.6,8.6,0,0,0,.284,2.244q.282,1.057.644,2.114t.644,2.114a8.628,8.628,0,0,1,.284,2.243,8.655,8.655,0,0,1-.8,3.817A9.593,9.593,0,0,1-73.7-477.27a8.514,8.514,0,0,1-2.6,1.728,6.92,6.92,0,0,1-2.656.593,5.566,5.566,0,0,1-2.063-.387,5.449,5.449,0,0,1-1.728-1.083,5.215,5.215,0,0,1-1.186-1.65,4.837,4.837,0,0,1-.438-2.037,3.45,3.45,0,0,1,.825-2.243,2.382,2.382,0,0,1,1.857-1.006,2.769,2.769,0,0,1,1.572.464q.7.464.7.67a.091.091,0,0,1-.1.1,2.214,2.214,0,0,0-1.547.995,3.109,3.109,0,0,0-.567,1.761,2.4,2.4,0,0,0,.49,1.506,1.99,1.99,0,0,0,1.676.637,2.459,2.459,0,0,0,1.264-.386,3.6,3.6,0,0,0,1.16-1.209,7.645,7.645,0,0,0,.851-2.109,12.164,12.164,0,0,0,.335-3.037,14.223,14.223,0,0,0-.361-3.138q-.361-1.6-.877-3.705a20.039,20.039,0,0,1-.928,2.445,8.112,8.112,0,0,1-.722,1.26,1.584,1.584,0,0,1-.49.489.852.852,0,0,1-.232.076.733.733,0,0,1-.619-.437,1.675,1.675,0,0,1-.258-.849q.619-1.544,1.186-2.985.515-1.236,1.031-2.625t.877-2.418a14.314,14.314,0,0,1,.877-2.676,6.285,6.285,0,0,1,.877-1.44,2.381,2.381,0,0,1,.7-.592,1.208,1.208,0,0,1,.387-.129,3.479,3.479,0,0,1,1.161.232,6.141,6.141,0,0,1,1.212.593,4.475,4.475,0,0,1,.954.8A1.358,1.358,0,0,1-70.706-498.156Z" transform="translate(84.373 500.683)" fill="#d92d2d"/>
            </g>
          </g>
        </g>
        <g id="R">
          <g id="Grupo_372" data-name="Grupo 372">
            <g id="Grupo_371" data-name="Grupo 371">
              <path id="Trazado_632" data-name="Trazado 632" d="M-270.917-497.191c.171-.069.257,0,.257.206a1.1,1.1,0,0,1-.051.413,6.086,6.086,0,0,1-.722.825,7.992,7.992,0,0,1-1.263,1.006,10.971,10.971,0,0,1-1.727.9,8.359,8.359,0,0,1-2.063.567,5.156,5.156,0,0,1-4.1-1.264,19.356,19.356,0,0,1-3.61-3.971,49.168,49.168,0,0,1-3.069-5q-1.392-2.6-2.424-4.358-.723,1.96-1.366,3.816t-1.134,3.532q-.491,1.675-.774,3.094a12.876,12.876,0,0,0-.284,2.5c0,.137-.095.258-.283.361a1.32,1.32,0,0,1-.645.155,3.058,3.058,0,0,1-1.212-.309,6.15,6.15,0,0,1-1.341-.825,5.978,5.978,0,0,1-1.083-1.109,2.017,2.017,0,0,1-.438-1.212,10.925,10.925,0,0,1,.851-3.2q.851-2.269,2.14-5.209t2.785-6.215q1.5-3.274,2.785-6.317t2.141-5.467a12.244,12.244,0,0,0,.851-3.61q0-.411.206-.515a.838.838,0,0,1,.361-.1,1.912,1.912,0,0,1,.876.284,6.235,6.235,0,0,1,1.006.7,5.519,5.519,0,0,1,.825.851,1.33,1.33,0,0,1,.335.748,7.747,7.747,0,0,1-.438,2.063q-.439,1.392-1.135,3.249t-1.6,4.074q-.9,2.218-1.831,4.59a1.7,1.7,0,0,0,1.031.464,5.946,5.946,0,0,0,3.275-1.65,25.176,25.176,0,0,0,4.023-4.229A30.547,30.547,0,0,0-276.332-523a13.949,13.949,0,0,0,1.445-5.957,2.925,2.925,0,0,0-.335-1.367,3.921,3.921,0,0,0-.851-1.109,3.993,3.993,0,0,0-1.135-.722,3.084,3.084,0,0,0-1.186-.258,14.957,14.957,0,0,0-5.235,1.031A32.188,32.188,0,0,0-289.1-528.7a43.3,43.3,0,0,0-5.183,3.713,42.3,42.3,0,0,0-4.358,4.152,25.576,25.576,0,0,0-3.018,4,6.655,6.655,0,0,0-1.134,3.2.529.529,0,0,0,.361.516,1.941,1.941,0,0,0,.774.155,5.121,5.121,0,0,0,1.341-.18,10.457,10.457,0,0,0,1.238-.413q.567-.232.928-.361t.464-.078c.1.138-.018.387-.361.748a9.072,9.072,0,0,1-1.315,1.109,10.775,10.775,0,0,1-1.753,1.005,4.111,4.111,0,0,1-1.676.439,1.888,1.888,0,0,1-1.238-.644,8.534,8.534,0,0,1-1.264-1.573,9.95,9.95,0,0,1-.98-2.011,5.888,5.888,0,0,1-.387-1.96,6.007,6.007,0,0,1,1.341-3.2,27.658,27.658,0,0,1,3.558-4.023,50.391,50.391,0,0,1,5.08-4.2,52.526,52.526,0,0,1,5.957-3.764,40.954,40.954,0,0,1,6.163-2.733,17.574,17.574,0,0,1,5.7-1.057,8.31,8.31,0,0,1,2.914.593,10.215,10.215,0,0,1,2.914,1.7,9.88,9.88,0,0,1,2.243,2.656,6.736,6.736,0,0,1,.9,3.455,12.382,12.382,0,0,1-.825,4.332,21.663,21.663,0,0,1-2.192,4.306,29.679,29.679,0,0,1-3.12,3.972,29.552,29.552,0,0,1-3.558,3.275,20.266,20.266,0,0,1-3.507,2.218,7.1,7.1,0,0,1-3.042.825,29.59,29.59,0,0,0,2.81,4.59A23.019,23.019,0,0,0-279.658-500a14.66,14.66,0,0,0,4.2,2.527A7.45,7.45,0,0,0-270.917-497.191Z" transform="translate(306.656 535.87)" fill="#d92d2d"/>
            </g>
          </g>
        </g>
        <g id="Grupo_375" data-name="Grupo 375" transform="translate(6.205 31.057)">
          <g id="Grupo_373" data-name="Grupo 373" transform="translate(23.13 4.027)">
            <path id="Trazado_633" data-name="Trazado 633" d="M-143.278-450.881a.547.547,0,0,1,.375-.3c.131-.012.2-.149.2-.412a.942.942,0,0,0-.269-.626,3.094,3.094,0,0,0-.662-.554,4.29,4.29,0,0,0-.841-.412,2.418,2.418,0,0,0-.8-.161.837.837,0,0,0-.268.089,1.648,1.648,0,0,0-.483.411,4.373,4.373,0,0,0-.609,1,9.956,9.956,0,0,0-.608,1.856q-.251.715-.608,1.678t-.716,1.82l-.263.666c-.08.15-.164.3-.255.458a17.625,17.625,0,0,1-1.074,1.646,9.118,9.118,0,0,1-1.09,1.253q-.537.5-.788.5a.358.358,0,0,1-.3-.2.947.947,0,0,1-.125-.518,11.54,11.54,0,0,1,.269-2.379,21.761,21.761,0,0,1,.68-2.487,19.386,19.386,0,0,1,.894-2.218,8.162,8.162,0,0,1,.948-1.574.4.4,0,0,0-.018-.554,2.344,2.344,0,0,0-.7-.573,4.716,4.716,0,0,0-1-.429,3.3,3.3,0,0,0-.93-.161c-.072,0-.191.131-.357.393a10.363,10.363,0,0,0-.573,1.074q-.072-.107-.322-.429a3.828,3.828,0,0,0-.662-.644,5.133,5.133,0,0,0-.93-.572,2.647,2.647,0,0,0-1.162-.25,4.26,4.26,0,0,0-2.7,1.055,11.067,11.067,0,0,0-2.308,2.593,15,15,0,0,0-1.592,3.22c-.131.374-.232.726-.32,1.068-.042.073-.082.145-.127.22a14.312,14.312,0,0,1-1.145,1.646,11.125,11.125,0,0,1-1.162,1.252q-.555.5-.8.5a.358.358,0,0,1-.3-.2.952.952,0,0,1-.125-.52,7.562,7.562,0,0,1,.268-1.867,18.8,18.8,0,0,1,.663-2.065q.392-1.023.822-1.921t.751-1.436a.716.716,0,0,0,.107-.431,1.267,1.267,0,0,0-.179-.61,2.432,2.432,0,0,0-.465-.592,2.731,2.731,0,0,0-.644-.449,1.583,1.583,0,0,0-.715-.179,7.882,7.882,0,0,0-1.217.107,7.881,7.881,0,0,1-1.216.107,1.081,1.081,0,0,1-.5-.071,27.523,27.523,0,0,0,.895-2.614,6.719,6.719,0,0,0,.286-1.654,1.309,1.309,0,0,0-.215-.747,2.116,2.116,0,0,0-.5-.533,2.228,2.228,0,0,0-.59-.321,1.62,1.62,0,0,0-.519-.107,2.228,2.228,0,0,0-1.27.465,5.933,5.933,0,0,0-1.2,1.127,6.7,6.7,0,0,0-.894,1.449,3.5,3.5,0,0,0-.358,1.431,4.158,4.158,0,0,0,.375,1.628,2.534,2.534,0,0,0,1.664,1.306q-.394,1.038-.876,2.111t-.913,1.932c-.118.236-.246.489-.38.753-.04.053-.078.108-.121.159a6.073,6.073,0,0,1-.984.948,5.882,5.882,0,0,1-1,.626,2.612,2.612,0,0,1-.8.268,12.384,12.384,0,0,0,.895-2.361,9.643,9.643,0,0,0,.322-2.469,7.4,7.4,0,0,0-.215-1.771,4.186,4.186,0,0,0-.733-1.556,3.69,3.69,0,0,0-1.4-1.091,5.177,5.177,0,0,0-2.2-.412,3.879,3.879,0,0,0-2.111.8,10.005,10.005,0,0,0-2.219,2.129,12.8,12.8,0,0,0-1.735,3.005,9.473,9.473,0,0,0-.4,1.207c-.151.321-.326.657-.531,1.012a17.994,17.994,0,0,1-1.073,1.646,9.14,9.14,0,0,1-1.091,1.252q-.537.5-.787.5a.359.359,0,0,1-.3-.2.947.947,0,0,1-.125-.519,12.151,12.151,0,0,1,.322-2.433q.321-1.5.859-3.2t1.2-3.452q.662-1.752,1.306-3.237a25.275,25.275,0,0,1,1.252-2.54,4.669,4.669,0,0,1,1-1.342q.25-.179-.089-.5a3.453,3.453,0,0,0-.912-.591,4.74,4.74,0,0,0-1.162-.375.919.919,0,0,0-.84.143,4.743,4.743,0,0,0-.663,1.038q-.411.788-.93,1.95t-1.073,2.558q-.555,1.4-1.091,2.9-.143-.178-.411-.483a4.5,4.5,0,0,0-.644-.59,3.745,3.745,0,0,0-.859-.483,2.776,2.776,0,0,0-1.056-.2,4.259,4.259,0,0,0-2.7,1.055,11.067,11.067,0,0,0-2.308,2.593,15.028,15.028,0,0,0-1.592,3.22c-.029.083-.049.158-.076.24-.151.321-.326.657-.532,1.012a17.624,17.624,0,0,1-1.073,1.646,9.089,9.089,0,0,1-1.091,1.253q-.537.5-.787.5a.358.358,0,0,1-.3-.2.943.943,0,0,1-.125-.518,11.508,11.508,0,0,1,.269-2.379,21.762,21.762,0,0,1,.679-2.487,19.386,19.386,0,0,1,.894-2.218,8.137,8.137,0,0,1,.948-1.574.4.4,0,0,0-.018-.554,2.338,2.338,0,0,0-.7-.573,4.713,4.713,0,0,0-1-.429,3.315,3.315,0,0,0-.93-.161c-.072,0-.191.131-.358.393a10.39,10.39,0,0,0-.572,1.074c-.048-.072-.156-.215-.322-.429a3.833,3.833,0,0,0-.662-.644,5.117,5.117,0,0,0-.93-.572,2.647,2.647,0,0,0-1.162-.25,4.261,4.261,0,0,0-2.7,1.055,11.054,11.054,0,0,0-2.307,2.593,15,15,0,0,0-1.592,3.22c-.012.034-.02.066-.032.1a11.687,11.687,0,0,1-.63,1.189,13.04,13.04,0,0,1-1.163,1.646,12.314,12.314,0,0,1-1.181,1.252q-.555.5-.8.5a.359.359,0,0,1-.3-.2.955.955,0,0,1-.125-.519,4.852,4.852,0,0,1,.483-1.914q.483-1.091,1.037-2.219t1.038-2.128a4.056,4.056,0,0,0,.483-1.681,2.679,2.679,0,0,0-.644-1.968,2.468,2.468,0,0,0-1.825-.644,2.611,2.611,0,0,0-1.181.394,8.438,8.438,0,0,0-1.5,1.091,14.949,14.949,0,0,0-1.574,1.646,16.23,16.23,0,0,0-1.431,2.022,10.029,10.029,0,0,1,.376-.948q.232-.518.447-1.037t.375-.966a2.26,2.26,0,0,0,.161-.733.977.977,0,0,0-.286-.644,3.223,3.223,0,0,0-.68-.572,3.576,3.576,0,0,0-.859-.394,2.77,2.77,0,0,0-.787-.143c-.191,0-.31.053-.358.161a.683.683,0,0,0-.071.268,4.318,4.318,0,0,1-.25,1.019q-.251.77-.644,1.807t-.84,2.236c-.221.591-.427,1.162-.628,1.726-.139.288-.3.589-.481.9a17.811,17.811,0,0,1-1.073,1.646,9.119,9.119,0,0,1-1.091,1.253q-.537.5-.788.5a.359.359,0,0,1-.3-.2.947.947,0,0,1-.125-.518,11.508,11.508,0,0,1,.269-2.379,21.574,21.574,0,0,1,.68-2.487,19.388,19.388,0,0,1,.893-2.218,8.137,8.137,0,0,1,.948-1.574.4.4,0,0,0-.018-.554,2.344,2.344,0,0,0-.7-.573,4.714,4.714,0,0,0-1-.429,3.309,3.309,0,0,0-.93-.161c-.072,0-.191.131-.358.393a10.119,10.119,0,0,0-.572,1.074c-.048-.072-.156-.215-.322-.429a3.849,3.849,0,0,0-.662-.644,5.149,5.149,0,0,0-.93-.572,2.651,2.651,0,0,0-1.163-.25,4.257,4.257,0,0,0-2.7,1.055,11.036,11.036,0,0,0-2.308,2.593,14.982,14.982,0,0,0-1.592,3.22,9.054,9.054,0,0,0-.59,2.934,4.378,4.378,0,0,0,.3,1.628,4.176,4.176,0,0,0,.84,1.342,4.063,4.063,0,0,0,1.27.912,3.745,3.745,0,0,0,1.592.34,1.623,1.623,0,0,0,.876-.322,6.079,6.079,0,0,0,.984-.84,12.492,12.492,0,0,0,.985-1.163,13.431,13.431,0,0,0,.876-1.324,4.112,4.112,0,0,0,.752,2.791,2.759,2.759,0,0,0,2.147.823,2.725,2.725,0,0,0,1.771-.751,8.99,8.99,0,0,0,1.453-1.6,2.031,2.031,0,0,0,.246.647,3.136,3.136,0,0,0,.7.823,4.72,4.72,0,0,0,.823.554,1.546,1.546,0,0,0,.662.215.868.868,0,0,0,.393-.089c.119-.059.179-.125.179-.2a6.505,6.505,0,0,1,.429-2.218,17.226,17.226,0,0,1,1.073-2.361,18.716,18.716,0,0,1,1.431-2.236q.787-1.055,1.484-1.878a13.9,13.9,0,0,1,1.234-1.306c.358-.322.584-.483.68-.483s.143.1.143.286a4.053,4.053,0,0,1-.411,1.252q-.413.931-.895,2.039t-.877,2.218a5.682,5.682,0,0,0-.393,1.789,3.452,3.452,0,0,0,.805,2.5,2.8,2.8,0,0,0,2.093.823,2.861,2.861,0,0,0,1.807-.751,10.451,10.451,0,0,0,1.663-1.735q.367-.48.677-.947a4.266,4.266,0,0,0,.235.84,4.183,4.183,0,0,0,.84,1.342,4.065,4.065,0,0,0,1.271.912,3.739,3.739,0,0,0,1.591.34,1.623,1.623,0,0,0,.877-.322,6.041,6.041,0,0,0,.984-.84,12.36,12.36,0,0,0,.985-1.163,13.35,13.35,0,0,0,.876-1.324,4.115,4.115,0,0,0,.751,2.791,2.762,2.762,0,0,0,2.147.823,2.724,2.724,0,0,0,1.77-.751,9.039,9.039,0,0,0,1.556-1.735c.207-.3.4-.593.574-.883a4.258,4.258,0,0,0,.231.811,4.182,4.182,0,0,0,.84,1.342,4.057,4.057,0,0,0,1.27.912,3.741,3.741,0,0,0,1.592.34,1.6,1.6,0,0,0,.859-.3,5.55,5.55,0,0,0,.948-.8,12.112,12.112,0,0,0,.966-1.145q.483-.644.876-1.288v.215a3.454,3.454,0,0,0,.805,2.5,2.8,2.8,0,0,0,2.093.823A2.7,2.7,0,0,0-189-440.22a9.868,9.868,0,0,0,1.556-1.735c.286-.4.537-.8.76-1.189a5.187,5.187,0,0,0,.277,1.208,3.807,3.807,0,0,0,.93,1.449,3.381,3.381,0,0,0,1.378.788,5.914,5.914,0,0,0,1.681.232,4.671,4.671,0,0,0,2.308-.608,8.23,8.23,0,0,0,2.021-1.61.85.85,0,0,1,.161.018.961.961,0,0,0,.2.018,4.526,4.526,0,0,0,1.95-.412,6.59,6.59,0,0,0,1.521-.966c.085-.073.165-.147.243-.221,0,0,0,.005.007.007a.169.169,0,0,0,.25-.053,19.28,19.28,0,0,0,1.663-2.612q.947-1.717,2.093-4.293a2.6,2.6,0,0,0,.751.107,4.62,4.62,0,0,0,1.162-.143,5.608,5.608,0,0,1,.626-.143c.048,0,.065.018.054.053s-.018.042-.018.018q-.144.252-.609,1.217t-.948,2.147q-.483,1.181-.876,2.344a6.079,6.079,0,0,0-.394,1.806,3.5,3.5,0,0,0,.787,2.5,2.781,2.781,0,0,0,2.111.823,2.862,2.862,0,0,0,1.807-.751,10.437,10.437,0,0,0,1.664-1.735c.173-.227.333-.451.486-.674a4.314,4.314,0,0,0,.175.566,4.183,4.183,0,0,0,.84,1.342,4.057,4.057,0,0,0,1.27.912,3.743,3.743,0,0,0,1.592.34,1.623,1.623,0,0,0,.876-.322,6.04,6.04,0,0,0,.984-.84,12.349,12.349,0,0,0,.984-1.163,13.355,13.355,0,0,0,.876-1.324,4.112,4.112,0,0,0,.752,2.791,2.759,2.759,0,0,0,2.147.823,2.24,2.24,0,0,0,.8-.158,2.363,2.363,0,0,0-.081.587,3.346,3.346,0,0,0,.3,1.413,3.605,3.605,0,0,0,.822,1.145,3.786,3.786,0,0,0,1.2.751,3.864,3.864,0,0,0,1.431.269,4.814,4.814,0,0,0,1.842-.411,5.913,5.913,0,0,0,1.807-1.2,6.654,6.654,0,0,0,1.377-1.932,6,6,0,0,0,.554-2.647,6.012,6.012,0,0,0-.2-1.556q-.2-.732-.447-1.467t-.447-1.467a5.964,5.964,0,0,1-.2-1.556,6.523,6.523,0,0,1,.179-1.485A6.435,6.435,0,0,1-143.278-450.881Zm-90.832,1.037a6.353,6.353,0,0,1-.465,1.271,17.273,17.273,0,0,1-.877,1.628q-.519.859-1.109,1.735t-1.145,1.575a10.217,10.217,0,0,1-1.019,1.127q-.465.429-.68.429a.469.469,0,0,1-.429-.232,1.029,1.029,0,0,1-.143-.554,8.788,8.788,0,0,1,.465-2.719,13.03,13.03,0,0,1,1.163-2.612,10.292,10.292,0,0,1,1.466-1.967,2.107,2.107,0,0,1,1.378-.787,1.591,1.591,0,0,1,1.073.34A.807.807,0,0,1-234.109-449.844Zm27.724,0a6.316,6.316,0,0,1-.465,1.271,17.27,17.27,0,0,1-.876,1.628q-.519.859-1.109,1.735t-1.145,1.575A10.173,10.173,0,0,1-211-442.51q-.465.429-.68.429a.47.47,0,0,1-.429-.232,1.033,1.033,0,0,1-.143-.554,8.787,8.787,0,0,1,.465-2.719,13.059,13.059,0,0,1,1.163-2.612,10.294,10.294,0,0,1,1.467-1.967,2.1,2.1,0,0,1,1.377-.787,1.589,1.589,0,0,1,1.073.34A.807.807,0,0,1-206.385-449.844Zm14.453,0a6.347,6.347,0,0,1-.465,1.271,17.387,17.387,0,0,1-.877,1.628q-.519.859-1.109,1.735t-1.145,1.575a10.172,10.172,0,0,1-1.02,1.127q-.465.429-.68.429a.47.47,0,0,1-.429-.232,1.033,1.033,0,0,1-.143-.554,8.787,8.787,0,0,1,.465-2.719,13.059,13.059,0,0,1,1.163-2.612,10.311,10.311,0,0,1,1.467-1.967,2.107,2.107,0,0,1,1.378-.787,1.589,1.589,0,0,1,1.073.34A.807.807,0,0,1-191.931-449.844Zm13.63,1.539a14.648,14.648,0,0,1-.5,1.789,1.849,1.849,0,0,0-1.056.59,1.745,1.745,0,0,0-.447,1.234,3.643,3.643,0,0,0,.143,1.073,4.781,4.781,0,0,1-.894,1.127,1.668,1.668,0,0,1-1.145.411,1.275,1.275,0,0,1-1.288-.7,3.517,3.517,0,0,1-.232-1.771,8.359,8.359,0,0,1,.554-2.29,15.472,15.472,0,0,1,1.091-2.29A7.629,7.629,0,0,1-180.7-450.9a2.151,2.151,0,0,1,1.4-.7.957.957,0,0,1,.912.483,2.609,2.609,0,0,1,.269,1.27A7.611,7.611,0,0,1-178.3-448.306Zm8.265-6.1q-.215.663-.716,1.843a1.165,1.165,0,0,1-.447-.483,1.78,1.78,0,0,1-.089-.626,1.983,1.983,0,0,1,.143-.644,4.3,4.3,0,0,1,.358-.751,4.485,4.485,0,0,1,.429-.608.574.574,0,0,1,.394-.25c.095,0,.143.167.143.5A3.613,3.613,0,0,1-170.037-454.405Zm15.919,4.561a6.347,6.347,0,0,1-.465,1.271,17.383,17.383,0,0,1-.877,1.628q-.519.859-1.109,1.735t-1.145,1.575a10.17,10.17,0,0,1-1.02,1.127q-.465.429-.68.429a.47.47,0,0,1-.429-.232,1.037,1.037,0,0,1-.143-.554,8.789,8.789,0,0,1,.465-2.719,13.056,13.056,0,0,1,1.162-2.612,10.294,10.294,0,0,1,1.468-1.967,2.1,2.1,0,0,1,1.377-.787,1.588,1.588,0,0,1,1.073.34A.806.806,0,0,1-154.117-449.844Zm7.6,10.2a5.3,5.3,0,0,1-.59,1.464,2.5,2.5,0,0,1-.8.839,1.71,1.71,0,0,1-.877.268,1.382,1.382,0,0,1-1.163-.442,1.67,1.67,0,0,1-.34-1.045,2.154,2.154,0,0,1,.394-1.221,1.535,1.535,0,0,1,1.073-.69.063.063,0,0,0,.071-.072c0-.095-.16-.25-.483-.465a1.892,1.892,0,0,0-.86-.307c.181-.217.356-.44.52-.677a17.366,17.366,0,0,0,1-1.628,1.435,1.435,0,0,0,.286-.306,5.64,5.64,0,0,0,.5-.874,13.92,13.92,0,0,0,.644-1.7q.358,1.464.608,2.571a9.88,9.88,0,0,1,.25,2.177A8.417,8.417,0,0,1-146.515-439.642Z" transform="translate(243.518 460.358)"/>
          </g>
          <g id="Grupo_374" data-name="Grupo 374">
            <path id="Trazado_634" data-name="Trazado 634" d="M-273.031-449.069a4.542,4.542,0,0,0-1.45-.459q-.652-.072-.652.363a6.341,6.341,0,0,1-.339,1.353,23.742,23.742,0,0,1-.966,2.464q-.628,1.4-1.45,2.972a21.847,21.847,0,0,1-1.788,2.875,12.593,12.593,0,0,1-2.005,2.175,3.271,3.271,0,0,1-2.1.87,4.708,4.708,0,0,1-3.117-1.16,4.6,4.6,0,0,1-1.377-3.721,23.567,23.567,0,0,1,.8-5.992,34.54,34.54,0,0,1,2.1-5.847,40.023,40.023,0,0,1,2.923-5.243,35.686,35.686,0,0,1,3.262-4.252,19.452,19.452,0,0,1,3.117-2.851,4.641,4.641,0,0,1,2.488-1.039,1.21,1.21,0,0,1,1.135.652,2.7,2.7,0,0,1,.363,1.329,7.378,7.378,0,0,1-.676,2.73,24.114,24.114,0,0,1-1.6,3.141,18.8,18.8,0,0,1-1.86,2.609q-.942,1.087-1.522,1.087a.421.421,0,0,1-.314-.121.339.339,0,0,0-.218-.121c-.129,0-.274.1-.434.29a1.023,1.023,0,0,0-.242.676,1.265,1.265,0,0,0,.339.8,3.6,3.6,0,0,0,.87.749,5.284,5.284,0,0,0,1.183.556,4.174,4.174,0,0,0,1.329.217q.725,0,1.787-1.183a17.617,17.617,0,0,0,2.054-2.875,26.2,26.2,0,0,0,1.716-3.5,8.646,8.646,0,0,0,.724-3.117,9.846,9.846,0,0,0-.266-2.247,6.341,6.341,0,0,0-.87-2.054,4.827,4.827,0,0,0-1.57-1.5,4.43,4.43,0,0,0-2.319-.58,8.478,8.478,0,0,0-3.986,1.16,21.878,21.878,0,0,0-4.3,3.117,34.137,34.137,0,0,0-4.155,4.59,37.26,37.26,0,0,0-3.527,5.605,34.719,34.719,0,0,0-2.441,6.112,21.823,21.823,0,0,0-.918,6.137,10.6,10.6,0,0,0,.725,4.011,9.179,9.179,0,0,0,1.933,3.02,8.813,8.813,0,0,0,2.73,1.909,7.608,7.608,0,0,0,3.117.676,6.071,6.071,0,0,0,4.3-1.933,23.119,23.119,0,0,0,3.818-5.17q-.774,2.03-1.957,4.422T-281-430.9a32.262,32.262,0,0,1-2.247,3.479q-1.063,1.4-1.594,1.4a.331.331,0,0,1-.145-.025.335.335,0,0,0-.144-.024.587.587,0,0,0-.387.169.637.637,0,0,0-.193.507q0,.386,1.087.821a9.273,9.273,0,0,0,3.262.435,5.875,5.875,0,0,0,1.377-.169,2.348,2.348,0,0,0,1.135-.6q.047-.049.676-1.45t1.5-3.5q.87-2.1,1.884-4.663t1.884-4.952q.87-2.392,1.45-4.325a11.192,11.192,0,0,0,.58-2.8,1.987,1.987,0,0,0-.677-1.4A5.448,5.448,0,0,0-273.031-449.069Z" transform="translate(293.301 469.025)"/>
          </g>
        </g>
        <g id="Grupo_376" data-name="Grupo 376" transform="translate(19.852 31.287)">
          <path id="Trazado_635" data-name="Trazado 635" d="M-263.927-466.563l1.861,3.1,3.138-2.561-1.8-2.264-1.994-.246" transform="translate(263.927 468.53)" fill="#d92d2d"/>
        </g>
      </g>
      <g id="Grupo_378" data-name="Grupo 378" transform="translate(-298.25 -607.994)">
        <path id="Trazado_636" data-name="Trazado 636" d="M-234.711-579.059a10.755,10.755,0,0,0-.26-11.212,8.031,8.031,0,0,0-6.212-4.08c-.032,0-.063-.008-.093-.013l-.652-.474c-.024-.05-.046-.1-.069-.159-1.586-3.993-5.335-6.22-9.12-5.418-.5.107-.58.081-.883-.311a10.465,10.465,0,0,0-7.32-4.208c-3.85-.441-7.111,1.524-8.949,5.391-.021.044-.041.088-.061.132l-1.277.834a8.069,8.069,0,0,0-6.363,1.991,8.609,8.609,0,0,0-2.358,6.956,9.231,9.231,0,0,0,3.142,6.435l.526,2.672c-.122.381-.237.765-.342,1.143-.259.928-.43,1.541-.087,2.13s.956.737,1.887.967a.894.894,0,0,0,.241.027,23.037,23.037,0,0,1,3.773.243.857.857,0,0,0,.285-.007c.29.055.577.107.859.158.791.144,1.538.281,2.272.452l.4.1a52.5,52.5,0,0,1,17.423,7.845,1.022,1.022,0,0,0,.111.065,4.309,4.309,0,0,0,1.726.624,1.318,1.318,0,0,0,.506-.1c.639-.259.851-.858,1.178-1.785.165-.468.339-.931.505-1.374l.236.085a16.937,16.937,0,0,0,2.513,1.007,5.63,5.63,0,0,0,4.733-.618A5.8,5.8,0,0,0-234-573.834a7.284,7.284,0,0,0-.839-4.308Z" transform="translate(279.747 606.389)" fill="#fff"/>
        <path id="Trazado_637" data-name="Trazado 637" d="M-247.72-566.991a5.276,5.276,0,0,1-2.345-.769,2.494,2.494,0,0,1-.275-.161,51.1,51.1,0,0,0-16.957-7.64l-.416-.1c-.683-.16-1.411-.293-2.182-.433l-.673-.124a2.3,2.3,0,0,1-.422-.019,21.818,21.818,0,0,0-3.554-.23,2.232,2.232,0,0,1-.6-.068,3.849,3.849,0,0,1-2.755-1.618,3.864,3.864,0,0,1-.052-3.207c.078-.28.161-.563.249-.846l-.371-1.885a10.531,10.531,0,0,1-3.252-7.054,9.968,9.968,0,0,1,2.789-8.054,9.334,9.334,0,0,1,6.948-2.4l.562-.367c2.1-4.229,5.92-6.453,10.259-5.955a11.767,11.767,0,0,1,8.06,4.482c4.285-.755,8.459,1.713,10.307,6.1l.043.031a9.425,9.425,0,0,1,7,4.755,12.189,12.189,0,0,1,.388,12.332l-.033.236a8.727,8.727,0,0,1,.782,4.709,7.17,7.17,0,0,1-3.052,5.265,7,7,0,0,1-5.886.8,13.036,13.036,0,0,1-1.571-.566,3.689,3.689,0,0,1-1.96,2.585A2.731,2.731,0,0,1-247.72-566.991Zm-1.079-3.253a5.411,5.411,0,0,0,1.08.465,8.935,8.935,0,0,0,.368-.955c.169-.478.345-.951.515-1.4l.484-1.283,1.643.594a15.91,15.91,0,0,0,2.306.93,4.267,4.267,0,0,0,3.579-.435,4.436,4.436,0,0,0,1.831-3.271,5.91,5.91,0,0,0-.678-3.477l-.221-.4.228-1.627.124-.225a9.324,9.324,0,0,0-.244-9.84,6.639,6.639,0,0,0-5.144-3.393c-.073-.008-.125-.015-.175-.023l-.33-.052-1.212-.88-.152-.324c-.035-.073-.068-.151-.1-.234-1.331-3.353-4.427-5.233-7.538-4.574a1.967,1.967,0,0,1-2.276-.825,9.118,9.118,0,0,0-6.374-3.674c-3.266-.375-5.943,1.26-7.532,4.6l-.214.477-2.021,1.32-.477-.039a6.731,6.731,0,0,0-5.288,1.612,7.25,7.25,0,0,0-1.928,5.857,7.884,7.884,0,0,0,2.687,5.491l.341.31.685,3.476-.109.342c-.117.365-.227.731-.328,1.093a4.513,4.513,0,0,0-.226,1.054,4.341,4.341,0,0,0,.959.3,24.434,24.434,0,0,1,3.843.245l.172-.034.266.05c.287.054.57.106.849.157.815.149,1.576.288,2.341.467l.415.1A53.865,53.865,0,0,1-248.8-570.244Zm.022.015h0Zm-25.819-9.028h0Z" transform="translate(281.354 607.994)" fill="#fff"/>
      </g>
      <g id="Trazado_621" data-name="Trazado 621" transform="translate(-296.101 -605.846)">
        <path id="Trazado_638" data-name="Trazado 638" d="M-272.55-582.049a.916.916,0,0,1,.406,1.277c-.341.887-.637,1.8-.892,2.711-.435,1.557-.416,1.563,1.128,1.945a23.885,23.885,0,0,1,3.926.253c0-.02.006-.04.01-.061,1.227.237,2.363.417,3.482.678.134.032.266.065.4.1a53.464,53.464,0,0,1,17.732,7.98c1.591.793,1.584.79,2.124-.739.289-.819.6-1.63.868-2.338a31.165,31.165,0,0,0,3.515,1.47,4.525,4.525,0,0,0,6-4.1,6.315,6.315,0,0,0-.862-3.983A.953.953,0,0,1-234.7-578a9.921,9.921,0,0,0-.013-10.747,7.1,7.1,0,0,0-5.507-3.61,1.617,1.617,0,0,1-1.571-1.226c-1.414-3.56-4.736-5.558-8.064-4.852a1.513,1.513,0,0,1-1.812-.654,9.6,9.6,0,0,0-6.689-3.852c-3.472-.4-6.353,1.392-8.005,4.868-.271.571-.5,1.161-.746,1.724-5.666-1.264-9.588,2.033-9.224,7.731A8.563,8.563,0,0,0-272.55-582.049Zm27.722,11.82-3.972-2.128-.1.176c.985.765,1.939,1.574,2.963,2.281a1.288,1.288,0,0,1,.316,2.139c-8-5.392-16.667-9.053-26.614-9.628.351-.979.614-1.815.964-2.614.073-.167.455-.264.7-.281,1.531-.1,3.064-.171,4.619-.328-.779-.12-1.555-.264-2.337-.353-.819-.093-1.643-.132-2.562-.2a1.993,1.993,0,0,1,2.291-1.3c3.153.455,6.338.819,9.425,1.574a45.034,45.034,0,0,1,12.224,5.269q.478.278.926.6C-244.045-573.587-243.779-572.5-244.828-570.229Zm-28.2-23.786a4.252,4.252,0,0,1,5.021-.8,2.011,2.011,0,0,1,.819.974c.456,1.036.829,2.108,1.345,3.124-.963-5.412.709-9.173,4.789-10.569a7.062,7.062,0,0,1,8.551,3.854l-2.726,4.023.149.1a13.841,13.841,0,0,1,2.095-1.955,10.531,10.531,0,0,1,3.476-1.566c3.155-.565,5.632,1.334,6.521,4.766l-2.424,1.48c4.031-1.053,7.434-.42,9.66,3.356a7.844,7.844,0,0,1-.4,8.488l-1.293-.921-.115.1a11.4,11.4,0,0,1,1,1.588,17.906,17.906,0,0,1,1.435,3.845c.468,2.72-1.6,4.507-4.24,3.737a15.656,15.656,0,0,1-2.961-1.449.839.839,0,0,1-.355-.656,3.175,3.175,0,0,0-1.423-2.845c-.9-.693-1.863-1.3-2.824-1.906-1.052-.661-1.137-1.245-.065-1.9,1.027-.623,2.173-1.049,3.3-1.714a17,17,0,0,0-2.09.165,7.652,7.652,0,0,0-1.638.609,8.376,8.376,0,0,1-7.95-.632c-2.523-1.428-3.567-3.951-3.018-7.038a1.353,1.353,0,0,0-.062-.877c-.244.594-.511,1.179-.728,1.783-.3.838-.52,1.707-.854,2.53a2.227,2.227,0,0,1-2.242,1.464c-.184,0-.369,0-.553-.008-3.61-.156-5.039-1.943-4.406-5.5a1.513,1.513,0,0,0,.023-.547,8.183,8.183,0,0,0-1.19,5.091c-.823.193-1.532.4-2.256.511a1.545,1.545,0,0,1-.876-.181C-275.271-585.4-276.078-591.119-273.024-594.015Z" transform="translate(276.528 603.17)"/>
        <path id="Trazado_639" data-name="Trazado 639" d="M-245.246-566.668a3.909,3.909,0,0,1-1.387-.541,53.329,53.329,0,0,0-17.7-7.969l-.4-.1c-.752-.176-1.507-.314-2.307-.459-.331-.06-.668-.122-1.012-.188l-.159.032a23.743,23.743,0,0,0-3.9-.251h-.023l-.022-.006c-.823-.2-1.236-.306-1.416-.615s-.06-.751.162-1.546c.264-.944.566-1.861.9-2.726.194-.505.12-.736-.345-1.073a8.707,8.707,0,0,1-3.852-6.7,7.732,7.732,0,0,1,2.368-6.582,7.906,7.906,0,0,1,6.927-1.36c.057-.134.113-.268.17-.4.164-.392.335-.8.522-1.194,1.692-3.558,4.675-5.367,8.183-4.966a9.739,9.739,0,0,1,6.808,3.919,1.346,1.346,0,0,0,1.637.59c3.418-.725,6.814,1.315,8.262,4.958a1.449,1.449,0,0,0,1.43,1.117,7.279,7.279,0,0,1,5.639,3.7,10.084,10.084,0,0,1,.011,10.922.792.792,0,0,0-.025.956,6.531,6.531,0,0,1,.894,4.106,5.061,5.061,0,0,1-2.112,3.726,4.889,4.889,0,0,1-4.107.518,16.219,16.219,0,0,1-2.378-.956c-.322-.149-.65-.3-.991-.45l-.185.491c-.2.532-.416,1.1-.618,1.674-.286.809-.426,1.205-.749,1.337A.586.586,0,0,1-245.246-566.668ZM-268.14-576.3c.4.077.784.147,1.164.216.8.147,1.564.285,2.324.463l.4.1a53.569,53.569,0,0,1,17.788,8c.691.342,1.117.555,1.31.478s.316-.463.545-1.11c.21-.6.426-1.166.628-1.7l.312-.832.168.072c.4.172.791.351,1.168.526a15.983,15.983,0,0,0,2.327.938,4.548,4.548,0,0,0,3.819-.473,4.72,4.72,0,0,0,1.959-3.476,6.175,6.175,0,0,0-.838-3.873,1.127,1.127,0,0,1,.028-1.345,9.751,9.751,0,0,0-.027-10.553,6.934,6.934,0,0,0-5.373-3.524,1.787,1.787,0,0,1-1.717-1.335c-1.383-3.483-4.617-5.433-7.865-4.746a1.68,1.68,0,0,1-1.986-.718,9.4,9.4,0,0,0-6.571-3.785c-3.352-.385-6.2,1.354-7.828,4.769-.184.388-.353.789-.515,1.178-.076.182-.151.362-.228.539l-.057.133-.141-.032a7.621,7.621,0,0,0-6.766,1.254,7.394,7.394,0,0,0-2.247,6.3,8.376,8.376,0,0,0,3.709,6.441h0a1.086,1.086,0,0,1,.466,1.48c-.328.855-.627,1.762-.887,2.7-.2.716-.3,1.1-.2,1.277s.508.281,1.176.446a24.322,24.322,0,0,1,3.763.231v-.008Zm22.358,8.572-.138-.092c-8.812-5.936-17.489-9.076-26.527-9.6l-.233-.013.079-.219c.1-.274.19-.536.278-.79.224-.644.436-1.253.69-1.835.145-.333.821-.383.85-.385.411-.027.822-.052,1.234-.077.649-.039,1.31-.078,1.975-.128-.311-.048-.624-.093-.935-.128-.559-.064-1.122-.1-1.717-.142-.272-.018-.551-.038-.839-.059l-.241-.018.094-.223a2.169,2.169,0,0,1,2.477-1.407q.9.13,1.8.253a76.2,76.2,0,0,1,7.638,1.324,44.6,44.6,0,0,1,12.271,5.289,11.194,11.194,0,0,1,.94.612c2.015,1.491,2.3,2.66,1.213,5.007l-.078.168-3.4-1.824.243.195c.668.533,1.358,1.084,2.069,1.575a1.68,1.68,0,0,1,.807,1.065,1.763,1.763,0,0,1-.45,1.321Zm-26.412-10.025c8.97.564,17.587,3.689,26.328,9.549a1.313,1.313,0,0,0,.29-.921,1.366,1.366,0,0,0-.662-.835c-.721-.5-1.416-1.052-2.088-1.589-.293-.234-.587-.468-.883-.7l-.12-.093.261-.453,3.958,2.12c.929-2.084.657-3.053-1.179-4.411a10.839,10.839,0,0,0-.91-.592,44.287,44.287,0,0,0-12.178-5.251,76.148,76.148,0,0,0-7.6-1.318q-.9-.125-1.8-.253a1.811,1.811,0,0,0-2,.975l.583.04c.6.04,1.166.079,1.733.144.548.062,1.1.152,1.635.239.237.039.473.078.71.114l1.352.208-1.361.137c-1.142.116-2.287.184-3.394.251-.411.025-.821.05-1.231.077a.951.951,0,0,0-.554.177c-.249.569-.458,1.172-.68,1.81C-272.058-578.137-272.125-577.946-272.195-577.749Zm33.842,7.507a4.5,4.5,0,0,1-1.256-.187,11.391,11.391,0,0,1-2.365-1.11c-.21-.119-.42-.238-.63-.352a1.025,1.025,0,0,1-.447-.8,3.006,3.006,0,0,0-1.356-2.713c-.913-.706-1.921-1.339-2.81-1.9-.624-.392-.914-.754-.911-1.137,0-.365.281-.71.849-1.055.525-.318,1.066-.579,1.639-.855.336-.162.679-.327,1.022-.506-.449.027-.9.073-1.341.135a7.566,7.566,0,0,0-1.584.591,8.493,8.493,0,0,1-8.114-.636c-2.571-1.455-3.673-4.019-3.1-7.22a1.255,1.255,0,0,0,.039-.228v0c-.169.4-.344.81-.492,1.221-.124.344-.233.694-.343,1.043-.155.493-.315,1-.514,1.493a2.406,2.406,0,0,1-2.4,1.572h-.108c-.151,0-.3,0-.452-.008-1.873-.081-3.155-.583-3.92-1.538a4.876,4.876,0,0,1-.685-3.958,8.418,8.418,0,0,0-.785,4.356l.006.144-.14.033c-.241.056-.471.113-.7.169-.542.135-1.054.262-1.573.344a1.719,1.719,0,0,1-.987-.2,6.57,6.57,0,0,1-3.379-4.985,6.651,6.651,0,0,1,1.849-5.813h0a4.443,4.443,0,0,1,5.217-.833,2.207,2.207,0,0,1,.906,1.067c.167.38.326.771.485,1.163.115.284.231.571.354.859-.539-4.879,1.239-8.255,5.077-9.568a7.259,7.259,0,0,1,8.763,3.941l.046.091-2.229,3.289a7.49,7.49,0,0,1,1.453-1.287,10.676,10.676,0,0,1,3.537-1.589c3.215-.575,5.789,1.3,6.72,4.894l.033.125-1.628.993c4.017-.766,6.907.441,8.812,3.673a8,8,0,0,1-.414,8.688l-.1.124-.987-.7.023.032a6.362,6.362,0,0,1,.687,1.135c.114.267.235.533.355.8a13.144,13.144,0,0,1,1.092,3.083,3.526,3.526,0,0,1-.99,3.32A3.269,3.269,0,0,1-238.352-570.242Zm-4.884-11.006-.567.336c-.563.334-1.132.608-1.683.873s-1.1.53-1.61.84c-.45.273-.68.528-.681.759s.25.527.748.84c.9.562,1.911,1.2,2.838,1.916a3.322,3.322,0,0,1,1.49,3,.664.664,0,0,0,.282.5c.2.1.406.224.618.344a11.141,11.141,0,0,0,2.291,1.079,3.251,3.251,0,0,0,3.141-.54,3.187,3.187,0,0,0,.878-3,12.889,12.889,0,0,0-1.066-3c-.121-.269-.242-.538-.357-.807a6.041,6.041,0,0,0-.651-1.071c-.115-.163-.229-.325-.336-.491l-.081-.125.33-.293,1.273.906a7.676,7.676,0,0,0,.28-8.162c-1.976-3.352-5.071-4.425-9.466-3.276l-1.144.3,3.323-2.028c-.908-3.32-3.306-5.049-6.289-4.514a10.379,10.379,0,0,0-3.416,1.543,7.508,7.508,0,0,0-1.436,1.286c-.207.22-.414.44-.63.646l-.1.1-.414-.266,2.769-4.086a6.9,6.9,0,0,0-8.292-3.677c-3.963,1.356-5.623,5.04-4.674,10.374l.206,1.157-.533-1.048c-.328-.645-.6-1.32-.866-1.973-.158-.388-.315-.776-.483-1.159a1.854,1.854,0,0,0-.751-.9,4.058,4.058,0,0,0-4.81.78,6.3,6.3,0,0,0-1.744,5.51,6.224,6.224,0,0,0,3.2,4.727,1.365,1.365,0,0,0,.781.164c.492-.079,1-.2,1.532-.337.182-.045.368-.091.56-.137a8.22,8.22,0,0,1,1.225-5.052l.254-.377.064.45a1.7,1.7,0,0,1-.026.61,4.7,4.7,0,0,0,.58,3.882c.7.871,1.9,1.332,3.663,1.408.146.007.292.007.438.007h.131a2.047,2.047,0,0,0,2.058-1.355c.193-.476.351-.979.5-1.466.111-.354.222-.708.347-1.057.151-.42.328-.836.5-1.239.078-.184.156-.367.232-.552l.159-.386.163.384a1.532,1.532,0,0,1,.07.99c-.538,3.03.5,5.465,2.935,6.842a8.165,8.165,0,0,0,7.792.624,7.83,7.83,0,0,1,1.668-.619,17.28,17.28,0,0,1,2.128-.171Z" transform="translate(276.728 603.37)" fill="#211915"/>
      </g>
    </g>
  </g>
</svg>
