<?xml version="1.0" encoding="utf-8"?>
<!-- Generator: Adobe Illustrator 23.0.0, SVG Export Plug-In . SVG Version: 6.00 Build 0)  -->
<svg version="1.1" id="Capa_1" xmlns="http://www.w3.org/2000/svg" xmlns:xlink="http://www.w3.org/1999/xlink" x="0px" y="0px"
	 viewBox="0 0 1063 440" style="enable-background:new 0 0 1063 440;" xml:space="preserve">
<style type="text/css">
	.st0{clip-path:url(#SVGID_2_);}
	.st1{fill:#FFFFFF;}
	.st2{clip-path:url(#SVGID_4_);}
	.st3{fill:url(#Trazado_601_1_);}
	.st4{fill:#D92D2D;}
	.st5{fill:#211915;}
</style>
<g>
	<defs>
		<rect id="SVGID_1_" width="1063" height="440"/>
	</defs>
	<clipPath id="SVGID_2_">
		<use xlink:href="#SVGID_1_"  style="overflow:visible;"/>
	</clipPath>
	<g id="slider1" class="st0">
		<rect class="st1" width="1063" height="440"/>
		<g>
			<defs>
				<path id="SVGID_3_" d="M390.6,0c0,0,44.1,61.4-34.3,89S223,190.2,286.6,277.3S472.2,384,472.2,440H0V0L390.6,0z"/>
			</defs>
			<clipPath id="SVGID_4_">
				<use xlink:href="#SVGID_3_"  style="overflow:visible;"/>
			</clipPath>
			<g id="Enmascarar_grupo_52" transform="translate(-6932 -1810)" class="st2">
				
					<image style="overflow:visible;enable-background:new    ;" width="800" height="375" id="Imagen_35" xlink:href="78ABAE7C.png"  transform="matrix(1.1797 0 0 1.1797 6785.5488 1806.7452)">
				</image>
				<g transform="matrix(1, 0, 0, 1, 6932, 1810)">
					
						<image style="overflow:visible;enable-background:new    ;" width="159" height="501" id="Imagen_36-2" xlink:href="78ABAE7D.png"  transform="matrix(0.6614 -0.4124 0.4124 0.6614 67.9001 136.2499)">
					</image>
				</g>
				<g transform="matrix(1, 0, 0, 1, 6932, 1810)">
					
						<image style="overflow:visible;enable-background:new    ;" width="1280" height="687" id="Imagen_37-2" xlink:href="78ABAE74.png"  transform="matrix(0.5651 0 0 0.5651 -163.5397 141.78)">
					</image>
				</g>
			</g>
		</g>
		
			<linearGradient id="Trazado_601_1_" gradientUnits="userSpaceOnUse" x1="332.4741" y1="419.6744" x2="330.3731" y2="418.5444" gradientTransform="matrix(508.934 0 0 -187.913 -168080.0938 79195.4453)">
			<stop  offset="0" style="stop-color:#133EAF"/>
			<stop  offset="1" style="stop-color:#002EA6"/>
		</linearGradient>
		<path id="Trazado_601" class="st3" d="M554,439.9c0,0,65.7-56.2,204.4-56.2S1009,347.8,1062.9,252v187.9L554,439.9z"/>
		<g id="Grupo_399" transform="translate(1148.912 854.994)">
			<g id="Grupo_363" transform="translate(-312.912 -568.443)">
				<g id="Grupo_359" transform="translate(37.852 8.087)">
					<g id="Grupo_357" transform="translate(1.809 1.809)">
						<path id="Trazado_622" class="st1" d="M125.4,73.3c-0.9,0-1.7-0.2-2.5-0.5c-0.8-0.3-1.5-0.8-2.1-1.3c-0.6-0.6-1.1-1.3-1.5-2.1
							c-0.2-0.4-0.4-0.9-0.4-1.4c-1.3-0.1-2.5-0.7-3.4-1.6c-0.2-0.2-0.3-0.4-0.5-0.6c-0.1,0.1-0.2,0.2-0.3,0.3c-0.5,0.5-1,1-1.6,1.3
							c-0.6,0.4-1.4,0.7-2.1,0.7c-1,0-1.9-0.2-2.8-0.6c-0.8-0.4-1.6-0.9-2.2-1.6c-0.1-0.1-0.2-0.3-0.3-0.4c-0.4,0.4-0.8,0.8-1.3,1.2
							c-1,0.9-2.2,1.4-3.5,1.4c-1.5,0-3-0.5-4-1.6c-1.1-1.2-1.6-2.9-1.5-4.5c0-0.7,0.1-1.3,0.3-1.9c-0.5,0.8-1,1.7-1.6,2.4
							c-0.3,0.3-0.6,0.6-1,0.7c-0.7,0.6-1.4,1-2.2,1.4c-1,0.4-2,0.7-3.1,0.7c-0.7,0.7-1.6,1.3-2.5,1.8c-1.2,0.7-2.5,1-3.9,1
							c-0.9,0-1.8-0.1-2.7-0.4c-0.9-0.3-1.8-0.8-2.5-1.4c-0.3-0.3-0.6-0.6-0.8-0.9c-0.4,0.5-0.9,0.9-1.3,1.3c-1,0.9-2.2,1.4-3.5,1.4
							c-1.5,0-3-0.5-4-1.6c-0.2-0.2-0.4-0.4-0.6-0.7c-0.1,0.1-0.2,0.2-0.3,0.3c-0.5,0.5-1,0.9-1.5,1.3c-0.6,0.4-1.3,0.7-2.1,0.7
							c-1,0-1.9-0.2-2.8-0.6c-0.8-0.4-1.6-0.9-2.2-1.6c-0.1-0.2-0.3-0.3-0.4-0.5c-0.4,0.4-0.8,0.8-1.2,1.2c-0.9,0.9-2.2,1.4-3.5,1.4
							c-1.5,0.1-3.1-0.5-4.1-1.7c-0.2-0.2-0.3-0.4-0.5-0.6c-0.1,0.1-0.2,0.2-0.3,0.3c-0.5,0.5-1,1-1.6,1.3c-0.6,0.4-1.4,0.7-2.1,0.7
							c-1,0-1.9-0.2-2.8-0.6c-0.8-0.4-1.6-0.9-2.2-1.6c-0.2-0.2-0.3-0.4-0.5-0.6c-0.5,0.5-1,1-1.5,1.4c-1,0.9-2.2,1.4-3.5,1.4
							c-1.5,0-3-0.5-4-1.6c-1.1-1.2-1.7-2.9-1.6-4.5c0-0.3,0-0.6,0.1-0.9c-0.4,0.8-0.8,1.6-1.1,2.4c-0.3,0.7-0.4,1.5-0.4,2.3
							c0,0.8-0.5,1.5-1.2,1.9c-0.4,0.2-0.9,0.3-1.3,0.3c-0.6,0-1.2-0.2-1.7-0.5c-0.5-0.3-1-0.6-1.4-0.9c-0.1-0.1-0.2-0.2-0.3-0.3
							c-0.2,0.1-0.3,0.3-0.5,0.4c-0.9,0.9-2.2,1.4-3.5,1.4c-1.5,0.1-3.1-0.5-4.1-1.7c-0.2-0.2-0.3-0.4-0.5-0.6
							c-0.1,0.1-0.2,0.2-0.3,0.3c-0.5,0.5-1,1-1.6,1.3c-0.6,0.4-1.4,0.7-2.1,0.7c-1,0-1.9-0.2-2.8-0.6c-0.8-0.4-1.6-0.9-2.2-1.6
							c-0.6-0.7-1.1-1.5-1.5-2.3c-0.3-0.9-0.5-1.8-0.5-2.8c0-1.5,0.3-3,0.9-4.4c0.6-1.6,1.3-3.1,2.3-4.6c0.9-1.4,2.1-2.7,3.4-3.8
							c1.3-1.1,2.9-1.7,4.6-1.8c0.8,0,1.6,0.2,2.3,0.5c0.5,0.2,0.9,0.5,1.4,0.8c0.4-0.5,1-0.7,1.6-0.8c0.6,0,1.2,0.1,1.7,0.3
							c0.6,0.2,1.2,0.4,1.7,0.7c0.6,0.3,1,0.7,1.4,1.2c0.4,0.5,0.6,1.1,0.5,1.7c0.2-0.5,0.3-1,0.5-1.4c0.1-0.3,0.2-0.6,0.2-0.8
							c0-0.4,0.1-0.7,0.3-1c0.4-0.8,1.2-1.3,2.1-1.3c0.5,0,1,0.1,1.6,0.3c0.5,0.2,1.1,0.4,1.6,0.7c0.5,0.3,0.9,0.7,1.3,1.1
							c0.1,0.1,0.2,0.3,0.3,0.4c0.6-0.5,1.2-1,1.9-1.3c0.7-0.4,1.6-0.7,2.4-0.7c1.4-0.1,2.7,0.4,3.6,1.4c1,1,1.5,2.4,1.4,3.8
							c0,0.2,0,0.3,0,0.5c0.1-0.2,0.2-0.3,0.3-0.5c0.9-1.4,2.1-2.7,3.4-3.8c1.3-1.1,2.9-1.7,4.6-1.8c0.8,0,1.6,0.2,2.3,0.5
							c0.5,0.2,0.9,0.5,1.4,0.8c0.4-0.5,1-0.7,1.6-0.8c0.6,0,1.2,0.1,1.7,0.3c0.6,0.2,1.2,0.4,1.7,0.7c0.6,0.3,1,0.7,1.4,1.2
							c0.7,0.9,0.7,2.1,0,3c-0.4,0.5-0.7,1.1-1,1.7c-0.4,0.9-0.8,1.8-1.1,2.7c-0.2,0.7-0.5,1.5-0.6,2.2c0.2-0.3,0.3-0.6,0.5-0.8
							c0.2-0.4,0.4-0.7,0.6-1.1c0-0.1,0.1-0.2,0.1-0.3c0.6-1.6,1.3-3.1,2.3-4.6c0.9-1.4,2.1-2.7,3.4-3.8c1.3-1.1,2.9-1.7,4.6-1.8
							c0.7,0,1.4,0.1,2.1,0.4c0.4,0.1,0.7,0.3,1,0.5c0.2-0.4,0.3-0.9,0.5-1.3c0.5-1.2,1-2.4,1.4-3.4c0,0,0,0,0,0
							c-0.4,0.1-0.9,0.1-1.3,0.1c-2,0.1-3.8-0.7-5.2-2.1c-0.6-0.6-1-1.3-1.3-2c-1,0.9-2.1,1.7-3.3,2.4c-2.1,1.2-4.5,1.8-6.9,1.8
							c-1.6,0-3.1-0.3-4.6-0.9c-1.3-0.6-2.5-1.5-3.4-2.6c-0.6-0.7-1.1-1.5-1.5-2.3l0,0c-0.9,1.1-2,2-3.1,2.9
							c-1.2,0.9-2.5,1.6-3.8,2.1c-1.5,0.6-3.1,0.9-4.6,0.9c-1.6,0-3.1-0.3-4.6-0.9c-1.3-0.6-2.5-1.5-3.4-2.6c-0.6-0.7-1-1.4-1.4-2.1
							l0,0c-1.4,1.5-3,2.8-4.8,3.9c-2.1,1.2-4.5,1.8-6.9,1.8c-1.6,0-3.1-0.3-4.6-0.9c-1.3-0.6-2.5-1.5-3.4-2.6
							c-0.9-1.1-1.6-2.3-2.1-3.7C0.2,34.1,0,32.7,0,31.2c0-2.2,0.5-4.3,1.3-6.3c0.8-2.1,2-4.1,3.4-5.8c1.4-1.7,3-3.2,4.9-4.4
							c1.8-1.2,3.9-1.8,6.1-1.9c1,0,2,0.2,3,0.6c1,0.4,1.9,0.9,2.6,1.7c0.8,0.8,1.4,1.7,1.8,2.7c0.4,1.1,0.7,2.3,0.6,3.4v0.1
							c0,0.4-0.1,0.9-0.1,1.3c0.7-1.2,1.4-2.4,2.3-3.5c1.4-1.7,3-3.2,4.9-4.4c1.8-1.2,3.9-1.8,6.1-1.9c1.2,0,2.4,0.2,3.5,0.7
							c0.9,0.4,1.8,1,2.5,1.7c0.7,0.7,1.2,1.5,1.6,2.4c0.3,0.8,0.5,1.6,0.5,2.5c0.1,1.6-0.5,3.2-1.7,4.3c-0.9,0.8-1.9,1.3-3.1,1.5
							c-0.3,0-0.6,0.1-0.9,0.1c-0.7,0-1.4-0.1-2-0.4c-0.7-0.3-1.3-0.9-1.5-1.7c-0.1-0.7,0.1-1.5,0.6-2c0.4-0.4,0.7-0.9,1-1.4
							c0.2-0.3,0.3-0.6,0.3-1c-0.5,0.2-1,0.5-1.3,0.8c-0.9,0.9-1.7,1.9-2.3,3c-0.7,1.3-1.3,2.7-1.8,4.1c-0.4,1.3-0.6,2.6-0.6,3.9
							c0,0.9,0.2,1.7,0.7,2.5c0.1,0.2,0.5,0.6,1.8,0.6c1.1,0,2.2-0.3,3.1-0.9c1.1-0.7,2-1.5,2.9-2.4c0.8-0.9,1.5-1.8,2.1-2.8
							c0.3-0.5,0.5-0.9,0.7-1.2c0.2-0.8,0.5-1.5,0.7-2.3c0.8-2.1,2-4.1,3.4-5.8c1.4-1.7,3-3.2,4.9-4.4c1.8-1.2,3.9-1.8,6.1-1.9
							c1,0,2,0.2,3,0.6c0.5,0.2,0.9,0.4,1.4,0.7c-0.2-0.4-0.3-0.9-0.4-1.3c-0.2-0.7,0-1.5,0.4-2c0.4-0.4,0.9-0.7,1.5-0.7h0.2
							l0.2,0.1c0.5,0.1,1.1,0.3,1.7,0.4c0.5,0.1,1.1,0.2,1.6,0.2c0.5,0.1,1.1,0.1,1.6,0.1c0.3,0,0.5,0,0.8,0
							c0.2-0.6,0.5-1.2,0.8-1.9c0.5-1.1,1-2.2,1.4-3.3c0.5-1.1,0.9-2,1.3-2.8c0.3-0.7,0.7-1.4,1.2-1.9C75.4,0.3,76.3,0,77.1,0
							c0.3,0,0.5,0,0.8,0.1c0.9,0.1,1.8,0.4,2.6,0.8c0.8,0.4,1.6,0.8,2.2,1.4c0.6,0.5,0.9,1.2,1,2c0,0.6-0.2,1.1-0.6,1.6
							c0,0.1-0.2,0.3-0.4,0.8C82.4,7.3,82,8,81.6,8.8c-0.4,0.7-0.7,1.5-1,2.2c0.4,0.2,0.7,0.5,1,0.9c0.4,0.5,0.8,1,1.1,1.6
							c0.3,0.5,0.5,1.1,0.6,1.7c0,0.2,0.1,0.5,0,0.7c0.2-0.2,0.5-0.4,0.7-0.6c1.7-1.5,3.9-2.3,6.2-2.4c1,0,2,0.2,3,0.6
							c0.7,0.4,1.4,0.8,2.1,1.3c0.1,0.1,0.3,0.2,0.4,0.3c0.4-0.8,1.2-1.3,2.1-1.4c0.8,0,1.5,0.1,2.3,0.4c0.8,0.2,1.5,0.6,2.3,1
							c0.7,0.4,1.3,0.9,1.8,1.5c0.8,1,0.8,2.4,0,3.3c-0.6,0.8-1.1,1.6-1.5,2.6c-0.6,1.3-1.1,2.6-1.6,3.9c-0.5,1.5-0.9,2.9-1.2,4.4
							c-0.2,0.7-0.3,1.5-0.4,2.3c0.3-0.4,0.6-0.8,1-1.2c0.7-0.9,1.3-1.9,1.9-2.9c0.1-0.2,0.3-0.5,0.4-0.7l0.5-1.1
							c0.5-1.1,0.9-2.2,1.3-3.4c0.4-1.2,0.8-2.2,1.1-3c0.3-1.3,0.7-2.5,1.2-3.7c0.4-0.8,0.8-1.6,1.4-2.3c0.4-0.5,0.9-0.9,1.5-1.2
							c0.4-0.2,0.8-0.3,1.2-0.3c0.7,0,1.4,0.2,2.1,0.4c0.7,0.2,1.3,0.6,1.9,0.9c0.6,0.4,1.1,0.8,1.6,1.4c0.6,0.6,0.9,1.5,1,2.4
							c0.1,1-0.5,2-1.4,2.4c-0.4,0.8-0.8,1.6-1,2.4c-0.2,0.8-0.3,1.6-0.3,2.4c0,0.8,0.1,1.6,0.3,2.4c0.2,0.9,0.5,1.8,0.8,2.6
							c0.3,1,0.6,1.9,0.9,2.9c0.3,1.1,0.4,2.2,0.4,3.4c0,2-0.4,3.9-1.2,5.7c-0.7,1.5-1.7,2.9-3,4.1l-0.1,0.1
							c0.7-0.2,1.4-0.4,2.2-0.4c0.8,0,1.6,0.2,2.3,0.5c0.5,0.2,0.9,0.5,1.4,0.8c0.4-0.5,1-0.7,1.6-0.8c0.6,0,1.2,0.1,1.7,0.3
							c0.6,0.2,1.2,0.4,1.7,0.7c0.6,0.3,1,0.7,1.4,1.2c0.3,0.4,0.5,0.8,0.5,1.3c0.1-0.3,0.2-0.6,0.4-0.9c0.3-0.6,0.6-1.2,1.1-1.7
							c0.3-0.4,0.8-0.7,1.2-1c0.3-0.2,0.7-0.3,1.1-0.3c0.6,0,1.1,0.1,1.7,0.3c0.5,0.2,1,0.4,1.4,0.7c0.5,0.3,0.9,0.6,1.2,1
							c0.5,0.5,0.8,1.3,0.8,2c0.1,0.9-0.4,1.7-1.1,2.1c-0.2,0.4-0.4,0.9-0.5,1.4c-0.1,0.5-0.2,1-0.2,1.5c0,0.5,0.1,1,0.2,1.5
							c0.2,0.6,0.3,1.2,0.5,1.8c0.2,0.7,0.4,1.4,0.6,2c0.2,0.8,0.3,1.6,0.3,2.5c0,1.5-0.3,2.9-0.9,4.2c-0.5,1.1-1.3,2.2-2.2,3
							c-0.8,0.8-1.8,1.5-2.9,1.9C127.5,73.1,126.5,73.3,125.4,73.3z M125,67.7c0.1,0,0.1,0,0.2-0.1c0.2-0.1,0.3-0.3,0.4-0.5
							c0.1-0.1,0.2-0.3,0.2-0.4c-0.2,0.1-0.4,0.2-0.7,0.2c0,0-0.1,0-0.1,0.1c-0.1,0.2-0.2,0.4-0.2,0.6c0,0,0,0.1,0,0.1
							C124.9,67.7,124.9,67.7,125,67.7L125,67.7z M126,63.3c0.2,0.1,0.3,0.3,0.4,0.5c0-0.1,0-0.2,0-0.3c0-0.3,0-0.5,0-0.8
							C126.2,62.9,126.1,63.1,126,63.3z M81.6,61.2c0.2,0,0.3,0,0.3-0.1c0.2-0.1,0.3-0.3,0.4-0.5c0-0.3-0.1-0.7-0.1-1
							c0-1,0.4-2.1,1.1-2.8c0.4-0.4,0.8-0.7,1.3-0.9c0.1-0.4,0.2-0.9,0.3-1.3c0.1-0.5,0.2-1.1,0.2-1.6c0-0.1,0-0.2,0-0.3
							c-0.1,0.1-0.2,0.2-0.3,0.2c-0.6,0.6-1.1,1.2-1.5,1.9c-0.5,0.9-0.9,1.8-1.3,2.7c-0.3,0.8-0.5,1.6-0.6,2.5
							C81.4,60.3,81.4,60.8,81.6,61.2L81.6,61.2z M125.2,52.1c-0.4,0.5-0.7,1.1-1,1.6c-0.4,0.9-0.8,1.8-1.1,2.7
							c-0.2,0.7-0.5,1.5-0.6,2.2c0.2-0.3,0.3-0.6,0.5-0.8c0.1-0.2,0.2-0.3,0.3-0.5l0.3-0.8c0.3-0.8,0.6-1.5,0.9-2.3
							C124.8,53.5,125,52.8,125.2,52.1c0.1,0,0.1-0.1,0.1-0.1C125.2,52,125.2,52.1,125.2,52.1L125.2,52.1z M21.5,51.9
							c-0.1,0.1-0.1,0.2-0.2,0.2c-0.4,0.5-0.7,1.1-1,1.6c-0.4,0.9-0.8,1.8-1.1,2.7c-0.2,0.7-0.5,1.4-0.6,2.2
							c0.2-0.3,0.3-0.6,0.5-0.8c0.2-0.3,0.4-0.7,0.5-1c0.3-0.7,0.5-1.4,0.8-2.2C20.9,53.7,21.2,52.8,21.5,51.9z M115.7,53.7
							c-0.6,0.7-1.2,1.4-1.6,2.2c-0.5,0.8-0.9,1.7-1.2,2.6c0.2-0.2,0.3-0.5,0.5-0.7c0.5-0.7,1-1.5,1.4-2.2
							C115.1,55.1,115.5,54.4,115.7,53.7c0.1,0,0.1-0.1,0.1-0.1C115.8,53.6,115.8,53.7,115.7,53.7L115.7,53.7z M66.7,53.7
							c-0.6,0.7-1.2,1.4-1.6,2.2c-0.5,0.8-0.9,1.7-1.2,2.6c0.2-0.2,0.3-0.5,0.5-0.7c0.5-0.7,1-1.5,1.4-2.2
							C66.1,55.1,66.4,54.4,66.7,53.7c0.1,0,0.1-0.1,0.1-0.1C66.8,53.6,66.7,53.7,66.7,53.7L66.7,53.7z M47.9,53.7
							c-0.6,0.7-1.2,1.4-1.6,2.2c-0.5,0.8-0.9,1.7-1.2,2.6c0.2-0.2,0.3-0.5,0.5-0.7c0.5-0.7,1-1.5,1.4-2.2
							C47.3,55.1,47.7,54.4,47.9,53.7c0.1,0,0.1-0.1,0.1-0.1C48,53.6,48,53.7,47.9,53.7L47.9,53.7z M11.9,53.7
							c-0.6,0.7-1.2,1.4-1.6,2.2c-0.5,0.8-0.9,1.7-1.2,2.6c0.2-0.2,0.3-0.5,0.5-0.7c0.5-0.7,1-1.5,1.4-2.2
							C11.3,55.1,11.7,54.4,11.9,53.7c0.1,0,0.1-0.1,0.1-0.1C12,53.6,12,53.7,11.9,53.7L11.9,53.7z M79.8,42.7
							c-0.3,0.4-0.6,0.8-0.8,1.2c-0.6,1-1.1,2-1.5,3.1c-0.5,1.2-1.1,2.6-1.7,4.1s-1.1,3-1.5,4.4c-0.3,1.1-0.6,2.1-0.9,3.1
							c0.1-0.2,0.3-0.5,0.4-0.7c0.2-0.3,0.4-0.7,0.6-1c0.1-0.6,0.3-1.1,0.6-1.6c0.6-1.5,1.5-3,2.5-4.3c0.9-1.2,2-2.3,3.3-3.1
							c1.1-0.8,2.4-1.3,3.8-1.4c1.2,0,2.5,0.2,3.6,0.7c1,0.4,1.8,1.1,2.5,2c0.3,0.4,0.5,0.7,0.7,1.1c-0.2-0.7-0.3-1.4-0.3-2.1
							c0-0.9,0.2-1.8,0.6-2.6c0.4-0.8,0.8-1.6,1.4-2.3c0.3-0.3,0.6-0.7,0.9-1c-1-0.3-1.9-0.9-2.6-1.7c-0.5-0.5-0.9-1.1-1.1-1.8
							c-0.4,0.4-0.7,0.9-1.1,1.3c-0.6,0.7-1.4,1.3-2.1,1.8c-0.8,0.6-1.7,0.9-2.6,0.9c-1.3,0-2.6-0.3-3.7-0.8l-0.1,0
							C80.3,42.2,80.1,42.5,79.8,42.7L79.8,42.7z M105.1,55.9c-0.3,0.6-0.5,1.2-0.8,1.9c-0.1,0.2-0.2,0.5-0.2,0.7
							c0.1-0.2,0.3-0.4,0.4-0.6l0,0c0.1-0.5,0.3-0.9,0.4-1.3C105,56.3,105,56.1,105.1,55.9L105.1,55.9z M91.7,51.2
							c0.1,0.2,0.1,0.3,0.1,0.5c0.2,0.9,0.3,1.8,0.3,2.7c0,0.1,0,0.2,0,0.4c0.1-0.3,0.3-0.6,0.4-0.9c0.2-0.4,0.3-0.8,0.5-1.1
							C92.5,52.3,92,51.8,91.7,51.2L91.7,51.2z M105.9,50.1c0.1,0.1,0.2,0.3,0.3,0.4c0.3,0.5,0.5,1.1,0.5,1.7c0,0.2,0,0.4-0.1,0.7
							c0.2-0.3,0.4-0.6,0.6-1c0.7-1,1.4-1.9,2.3-2.8c-0.1,0-0.2,0.1-0.3,0.1C108.1,49.7,107,50,105.9,50.1L105.9,50.1z M104.5,40.8
							c-0.3,0.1-0.6,0.2-0.7,0.5c-0.3,0.4-0.4,0.8-0.4,1.3c0,0.3,0.1,0.6,0.3,0.9c0.2,0.1,0.5,0.1,0.7,0.1c0.3,0,0.5-0.1,0.7-0.2
							c0.4-0.3,0.7-0.6,0.9-1c0.4-0.7,0.7-1.4,0.9-2.2c0.3-1.1,0.4-2.3,0.4-3.5c0-1.1-0.1-2.2-0.3-3.2c-0.1,0.1-0.1,0.2-0.2,0.2
							c-0.2,0.2-0.3,0.4-0.5,0.6c-0.4,0.8-0.9,1.6-1.4,2.4c0.8,0.4,1.4,1.3,1.5,2.2C106.2,39.9,105.5,40.7,104.5,40.8L104.5,40.8z
							 M72.4,35.1l-19.8-3.4c0,0.1,0,0.2,0,0.3c0,0.5,0.2,1,0.4,1.4c0.2,0.3,0.4,0.6,0.7,0.8c0.5,0.2,1,0.3,1.5,0.3
							c1.2,0,2.4-0.3,3.4-0.9c1.1-0.6,2-1.4,2.9-2.4c0.8-0.8,1.4-1.7,1.9-2.7c0.2-0.4,0.4-0.8,0.6-1.2c0.1-0.2,0.2-0.7,0.2-0.7
							c-0.7,1-1.6,2-2.6,2.7c-1.4,1.1-3.1,1.8-4.8,2.2c-0.9,0.2-1.8,0.3-2.8,0.3c-0.5,0-0.9,0-1.4-0.1L72.4,35.1z M30.1,35.1
							c0,0.1,0,0.2,0,0.3c0,0.5,0.2,1,0.4,1.4c0.2,0.3,0.4,0.6,0.7,0.8c0.5,0.2,1,0.3,1.5,0.3c1.2,0,2.4-0.3,3.4-0.9
							c1.1-0.6,2-1.4,2.9-2.4c0.8-0.8,1.4-1.7,1.9-2.7c0.2-0.4,0.4-0.8,0.6-1.2c0.1-0.2,0.1-0.5,0.2-0.7c-0.7,1-1.6,2-2.6,2.7
							c-1.4,1.1-3.1,1.8-4.8,2.2c-0.9,0.2-1.8,0.3-2.8,0.3c-13.7-2.3-20.7-3.4-21.2-3.5L30.1,35.1z M97.2,21.1
							c-1.4,3.3-2.6,6.4-3.5,9.3c-0.7,2-1.1,4.1-1.4,6.2c0.3-0.4,0.7-0.8,1-1.2c0.7-0.9,1.3-1.9,1.9-2.9c0.1-0.1,0.1-0.2,0.2-0.3
							c0.2-0.6,0.4-1.2,0.6-1.8c0.8-2.3,1.9-4.4,3.2-6.4c0.6-0.9,1.3-1.8,2-2.7c-0.1,0-0.1,0-0.2,0c-0.2,0-0.4,0-0.6-0.1l0,0
							c0,0-0.1,0-0.5,0s-0.8,0-1.5,0c-20.1-3.4-20.5-3.4-21-3.4L97.2,21.1z M111.6,24.6c0,0-0.4,0.1-1.3,0.9c-1,1-1.8,2.1-2.5,3.3
							c-0.8,1.4-1.5,2.9-2,4.5c-0.3,1-0.6,2-0.7,3.1c0.3-0.3,0.6-0.7,0.9-1.1c0.7-0.8,1.4-1.8,2.1-2.8c0.7-1.1,1.4-2.1,2-3.2
							c0.6-0.9,1.1-1.9,1.5-2.9c0.3-0.6,0.5-1.1,0.7-1.7c1-5.7-2.8-11.1-8.5-12.1c-5.7-1-11.1,2.8-12.1,8.5l0,0L111.6,24.6z
							 M77.1,23.8c-0.4,0.4-0.7,0.7-1,1.1c-0.5,0.6-0.9,1.3-1.3,2c0,0,0.1-0.1,0.1-0.1c0.6-0.6,1.1-1.2,1.5-1.9
							c-2.5-6.2-9.5-9.2-15.6-6.7c-1.3,0.5-2.5,1.3-3.6,2.2L77.1,23.8z M34.8,23.8c-0.4,0.4-0.7,0.7-1,1.1c-0.5,0.6-0.9,1.3-1.3,2
							c0,0,0.1-0.1,0.1-0.1c0.6-0.6,1.1-1.2,1.5-1.9c-2.4-6.2-9.4-9.2-15.6-6.7c-1.3,0.5-2.5,1.3-3.6,2.2L34.8,23.8z M85.2,21.1
							c0.4,1,0.6,2.1,0.6,3.2c0.4-1.1,0.8-2.2,1.2-3.3h-1.1c-0.3,0-0.6,0-0.8-0.1c-13.2-2.2-19.8-3.3-19.7-3.2L85.2,21.1z"/>
					</g>
					<g id="Grupo_358">
						<path id="Trazado_623" class="st1" d="M78.9,3.6c0.2,0,0.4,0,0.5,0c0.7,0.1,1.5,0.3,2.1,0.6c0.6,0.3,1.2,0.6,1.7,1.1
							c0.4,0.4,0.5,0.8,0.3,1c-0.3,0.4-0.5,0.8-0.7,1.2c-0.3,0.6-0.7,1.4-1.1,2.2c-0.4,0.8-0.8,1.7-1.2,2.5c-0.4,0.8-0.7,1.5-1,2
							h1.7c0.2,0,0.4,0.2,0.7,0.5c0.3,0.4,0.6,0.8,0.8,1.2c0.2,0.4,0.3,0.8,0.4,1.2c0.1,0.4,0,0.5-0.3,0.5c-0.1,0-0.2,0-0.4,0
							c-0.2,0-0.5,0-0.7,0c-0.3,0-0.8,0-1.4,0c-0.6,0-1.4,0-2.4,0c-1.5,3.4-2.9,7-4,10.5c-1,2.7-1.5,5.6-1.6,8.5
							c0,0.9,0.3,1.3,0.9,1.3c0.3,0,0.8-0.3,1.4-0.9c0.7-0.7,1.4-1.5,2-2.3c0.7-1,1.4-2,2-3.1c0.1-0.2,0.2-0.3,0.3-0.5
							c0.2-0.6,0.3-1.2,0.6-1.9c0.7-2.1,1.7-4.1,3-6c1.2-1.8,2.6-3.5,4.3-4.9c1.4-1.2,3.2-1.9,5.1-2c0.8,0,1.5,0.1,2.2,0.5
							c0.6,0.3,1.2,0.7,1.7,1.1c0.5,0.3,0.9,0.8,1.2,1.2c0.3,0.4,0.5,0.7,0.6,0.8c0.3-0.7,0.7-1.4,1.1-2c0.3-0.5,0.5-0.7,0.7-0.7
							c0.6,0,1.2,0.1,1.7,0.3c0.7,0.2,1.3,0.5,1.9,0.8c0.5,0.3,0.9,0.6,1.3,1.1c0.3,0.3,0.3,0.7,0,1c-0.7,0.9-1.3,1.9-1.8,2.9
							c-0.6,1.3-1.2,2.7-1.7,4.1c-0.5,1.5-0.9,3.1-1.3,4.6c-0.3,1.5-0.5,3-0.5,4.5c0,0.3,0.1,0.7,0.2,1c0.1,0.2,0.3,0.4,0.6,0.4
							c0.3,0,0.8-0.3,1.5-0.9c0.7-0.7,1.4-1.5,2-2.3c0.7-1,1.4-2,2-3.1c0.2-0.3,0.3-0.6,0.5-0.9l0.5-1.2c0.4-1.1,0.9-2.2,1.3-3.4
							c0.4-1.2,0.8-2.3,1.1-3.1c0.3-1.2,0.6-2.4,1.1-3.5c0.3-0.7,0.7-1.3,1.1-1.9c0.2-0.3,0.6-0.6,0.9-0.8c0.2-0.1,0.3-0.1,0.5-0.2
							c0.5,0,1,0.1,1.5,0.3c0.6,0.2,1.1,0.5,1.6,0.8c0.5,0.3,0.9,0.6,1.2,1c0.3,0.3,0.5,0.7,0.5,1.2c0,0.5-0.1,0.7-0.4,0.8
							s-0.5,0.2-0.7,0.6c-0.6,1-1,2-1.3,3.1c-0.2,0.9-0.3,1.8-0.3,2.8c0,1,0.1,2,0.4,2.9c0.2,0.9,0.5,1.8,0.8,2.7
							c0.3,0.9,0.6,1.8,0.8,2.7c0.2,1,0.4,1.9,0.4,2.9c0,1.7-0.3,3.4-1,5c-0.6,1.3-1.5,2.6-2.6,3.6c-1,0.9-2.1,1.7-3.4,2.2
							c-1.1,0.5-2.3,0.7-3.4,0.8c-0.9,0-1.8-0.2-2.7-0.5c-0.8-0.3-1.6-0.8-2.2-1.4c-0.1-0.1-0.3-0.3-0.4-0.4c0,0.2-0.1,0.4-0.1,0.6
							c-0.3,1.1-0.7,2.3-1.2,3.4c0.2,0.1,0.4,0.1,0.6,0.1c0.5,0,1.1-0.1,1.6-0.1c0.5-0.1,1-0.1,1.6-0.1c0.3,0,0.6,0.1,0.9,0.2
							c0.3,0.2,0.6,0.3,0.8,0.6c0.2,0.2,0.4,0.5,0.6,0.8c0.1,0.2,0.2,0.5,0.2,0.8c0,0.2,0,0.4-0.1,0.6c-0.3,0.5-0.6,1.1-1,1.9
							c-0.4,0.8-0.7,1.6-1.1,2.5c-0.3,0.9-0.6,1.8-0.9,2.7c-0.2,0.8-0.3,1.6-0.3,2.4c0,0.2,0,0.5,0.2,0.7c0.1,0.2,0.2,0.2,0.4,0.3
							c0.2,0,0.6-0.2,1-0.6c0.5-0.5,1-1,1.5-1.6c0.5-0.7,1-1.4,1.5-2.1c0.1-0.1,0.1-0.2,0.2-0.3c0.1-0.4,0.2-0.9,0.4-1.4
							c0.5-1.5,1.2-2.9,2.1-4.2c0.8-1.3,1.8-2.4,3-3.4c1-0.9,2.2-1.3,3.5-1.4c0.5,0,1,0.1,1.5,0.3c0.4,0.2,0.8,0.5,1.2,0.7
							c0.3,0.2,0.6,0.5,0.9,0.8c0.2,0.3,0.4,0.5,0.4,0.6c0.2-0.5,0.5-0.9,0.7-1.4c0.2-0.3,0.4-0.5,0.5-0.5c0.4,0,0.8,0.1,1.2,0.2
							c0.5,0.1,0.9,0.3,1.3,0.6c0.3,0.2,0.7,0.4,0.9,0.7c0.2,0.2,0.2,0.5,0,0.7c-0.5,0.6-0.9,1.3-1.2,2c-0.4,0.9-0.8,1.9-1.2,2.9
							c-0.4,1.1-0.7,2.1-0.9,3.2c-0.2,1-0.3,2-0.3,3.1c0,0.2,0,0.5,0.2,0.7c0.1,0.2,0.2,0.2,0.4,0.3c0.2,0,0.6-0.2,1-0.6
							c0.5-0.5,1-1,1.4-1.6c0.5-0.7,1-1.4,1.4-2.1c0.1-0.2,0.2-0.4,0.3-0.6c0.1-0.3,0.2-0.6,0.3-0.9c0.3-0.7,0.6-1.5,0.9-2.4
							c0.3-0.8,0.6-1.6,0.8-2.2c0.2-0.8,0.4-1.6,0.8-2.4c0.2-0.5,0.5-0.9,0.8-1.3c0.2-0.2,0.4-0.4,0.6-0.5c0.1-0.1,0.2-0.1,0.3-0.1
							c0.4,0,0.7,0.1,1,0.2c0.4,0.1,0.7,0.3,1.1,0.5c0.3,0.2,0.6,0.4,0.9,0.7c0.2,0.2,0.3,0.5,0.3,0.8c0,0.3-0.1,0.5-0.3,0.5
							s-0.3,0.1-0.5,0.4c-0.4,0.7-0.7,1.4-0.9,2.2c-0.2,0.6-0.2,1.3-0.2,1.9c0,0.7,0.1,1.4,0.3,2c0.2,0.6,0.4,1.3,0.6,1.9
							c0.2,0.6,0.4,1.3,0.6,1.9c0.2,0.7,0.3,1.3,0.3,2c0,1.2-0.2,2.4-0.7,3.4c-0.4,0.9-1,1.8-1.8,2.5c-0.7,0.7-1.5,1.2-2.3,1.6
							c-0.8,0.3-1.6,0.5-2.4,0.5c-0.6,0-1.3-0.1-1.9-0.3c-0.6-0.2-1.1-0.6-1.6-1c-0.5-0.4-0.8-0.9-1.1-1.5c-0.3-0.6-0.4-1.2-0.4-1.8
							c0-0.3,0-0.5,0.1-0.8c-0.3,0.1-0.7,0.2-1,0.2c-1,0.1-2.1-0.3-2.8-1.1c-0.8-1-1.1-2.3-1-3.6c-0.3,0.6-0.7,1.2-1.1,1.7
							c-0.4,0.5-0.8,1-1.3,1.5c-0.4,0.4-0.8,0.8-1.3,1.1c-0.3,0.2-0.7,0.4-1.1,0.4c-0.7,0-1.4-0.1-2.1-0.4c-0.6-0.3-1.2-0.7-1.6-1.2
							c-0.5-0.5-0.8-1.1-1.1-1.7c-0.1-0.2-0.2-0.5-0.2-0.7c-0.2,0.3-0.4,0.6-0.6,0.9c-0.6,0.8-1.4,1.6-2.2,2.3
							c-0.6,0.6-1.5,0.9-2.3,1c-1,0-2-0.3-2.7-1.1c-0.7-0.9-1.1-2.1-1-3.2c0-0.8,0.2-1.6,0.5-2.3c0.3-1,0.7-2,1.1-3s0.8-1.9,1.2-2.8
							c0.4-0.8,0.7-1.4,0.8-1.6c0,0,0,0,0,0s0,0,0,0c0,0,0-0.1-0.1-0.1c-0.3,0-0.5,0.1-0.8,0.2c-0.5,0.1-1,0.2-1.5,0.2
							c-0.3,0-0.7,0-1-0.1c-1,2.2-1.9,4.1-2.7,5.6c-0.6,1.2-1.3,2.3-2.2,3.4c0,0.1-0.1,0.1-0.2,0.1c0,0-0.1,0-0.1,0c0,0,0,0,0,0
							c-0.1,0.1-0.2,0.2-0.3,0.3c-0.6,0.5-1.3,0.9-2,1.3c-0.8,0.4-1.7,0.5-2.5,0.5c-0.1,0-0.2,0-0.3,0c-0.1,0-0.1,0-0.2,0
							c-0.8,0.8-1.6,1.5-2.6,2.1c-0.9,0.5-1.9,0.8-3,0.8c-0.7,0-1.5-0.1-2.2-0.3c-0.7-0.2-1.3-0.5-1.8-1c-0.5-0.5-1-1.2-1.2-1.9
							c-0.2-0.5-0.3-1-0.4-1.6c-0.3,0.5-0.6,1-1,1.5c-0.6,0.8-1.3,1.6-2,2.3c-0.6,0.6-1.5,0.9-2.3,1c-1,0-2-0.3-2.7-1.1
							c-0.8-0.9-1.1-2.1-1-3.2v-0.3c-0.3,0.6-0.7,1.1-1.1,1.7c-0.4,0.5-0.8,1-1.3,1.5c-0.4,0.4-0.8,0.7-1.2,1
							c-0.3,0.2-0.7,0.4-1.1,0.4c-0.7,0-1.4-0.1-2.1-0.4c-0.6-0.3-1.2-0.7-1.6-1.2c-0.5-0.5-0.8-1.1-1.1-1.7
							c-0.1-0.3-0.2-0.7-0.3-1.1c-0.2,0.4-0.5,0.8-0.7,1.1c-0.6,0.8-1.3,1.6-2,2.3c-0.6,0.6-1.4,0.9-2.3,1c-1,0.1-2.1-0.3-2.8-1.1
							c-0.8-1-1.1-2.3-1-3.6c-0.3,0.6-0.7,1.2-1.1,1.7c-0.4,0.5-0.8,1-1.3,1.5c-0.4,0.4-0.8,0.8-1.3,1.1c-0.3,0.2-0.7,0.4-1.1,0.4
							c-0.7,0-1.4-0.1-2.1-0.4c-0.6-0.3-1.2-0.7-1.6-1.2c-0.5-0.5-0.8-1.1-1.1-1.7c-0.1-0.4-0.2-0.7-0.3-1.1
							c-0.3,0.4-0.6,0.8-0.9,1.2c-0.6,0.8-1.4,1.6-2.2,2.3c-0.6,0.6-1.5,0.9-2.3,1c-1,0-2-0.3-2.7-1.1c-0.8-0.9-1.1-2.1-1-3.2
							c0-0.8,0.2-1.6,0.5-2.3c0.3-1,0.7-1.9,1.1-2.9c0.4-1,0.8-1.8,1.2-2.6c0.3-0.5,0.4-1.1,0.5-1.6c0-0.2-0.1-0.4-0.2-0.4
							s-0.4,0.2-0.9,0.6c-0.6,0.5-1.1,1.1-1.6,1.7c-0.6,0.7-1.2,1.5-1.9,2.4c-0.7,0.9-1.3,1.9-1.9,2.9c-0.5,1-1,2-1.4,3.1
							c-0.4,0.9-0.5,1.9-0.6,2.9c0,0.1-0.1,0.2-0.2,0.3c-0.2,0.1-0.3,0.1-0.5,0.1c-0.3,0-0.6-0.1-0.9-0.3c-0.4-0.2-0.7-0.4-1-0.7
							c-0.4-0.3-0.7-0.7-0.9-1.1c-0.2-0.3-0.3-0.5-0.3-0.8c-0.5,0.8-1.2,1.5-1.9,2.1c-0.6,0.6-1.4,0.9-2.3,1c-1,0.1-2.1-0.3-2.8-1.1
							c-0.8-1-1.1-2.3-1-3.6c-0.3,0.6-0.7,1.2-1.1,1.7c-0.4,0.5-0.8,1-1.3,1.5c-0.4,0.4-0.8,0.8-1.3,1.1C9.8,68,9.4,68.1,9,68.2
							c-0.7,0-1.4-0.1-2.1-0.4c-0.6-0.3-1.2-0.7-1.6-1.2c-0.5-0.5-0.8-1.1-1.1-1.7c-0.3-0.7-0.4-1.4-0.4-2.1c0-1.3,0.3-2.6,0.8-3.8
							c0.5-1.5,1.2-2.9,2.1-4.2c0.8-1.3,1.8-2.4,3-3.4c1-0.9,2.2-1.3,3.5-1.4c0.5,0,1,0.1,1.5,0.3c0.4,0.2,0.8,0.5,1.2,0.7
							c0.3,0.2,0.6,0.5,0.9,0.8c0.2,0.3,0.4,0.5,0.4,0.6c0.2-0.5,0.5-0.9,0.7-1.4c0.2-0.3,0.4-0.5,0.5-0.5c0.4,0,0.8,0.1,1.2,0.2
							c0.5,0.1,0.9,0.3,1.3,0.6c0.3,0.2,0.7,0.4,0.9,0.7c0.2,0.2,0.2,0.5,0,0.7c-0.5,0.6-0.9,1.3-1.2,2c-0.4,0.9-0.8,1.9-1.2,2.9
							c-0.4,1.1-0.7,2.1-0.9,3.2c-0.2,1-0.3,2-0.3,3.1c0,0.2,0,0.5,0.2,0.7c0.1,0.2,0.2,0.2,0.4,0.3c0.2,0,0.6-0.2,1-0.6
							c0.5-0.5,1-1,1.4-1.6c0.5-0.7,1-1.4,1.4-2.1c0.2-0.4,0.4-0.8,0.6-1.2c0.3-0.7,0.5-1.5,0.8-2.2c0.4-1,0.8-2,1.1-2.9
							s0.6-1.7,0.8-2.3c0.2-0.4,0.3-0.9,0.3-1.3c0-0.1,0-0.2,0.1-0.3c0.1-0.1,0.2-0.2,0.5-0.2c0.3,0,0.7,0.1,1,0.2
							c0.4,0.1,0.8,0.3,1.1,0.5c0.3,0.2,0.6,0.5,0.9,0.7c0.2,0.2,0.4,0.5,0.4,0.8c0,0.3-0.1,0.6-0.2,1c-0.1,0.4-0.3,0.8-0.5,1.3
							s-0.4,0.9-0.6,1.3c-0.2,0.4-0.3,0.8-0.5,1.2c0.6-0.9,1.2-1.8,1.9-2.6c0.6-0.8,1.3-1.5,2-2.1c0.6-0.5,1.3-1,1.9-1.4
							c0.5-0.3,1-0.5,1.5-0.5c0.9-0.1,1.7,0.2,2.4,0.8c0.6,0.7,0.9,1.6,0.8,2.6c0,0.8-0.3,1.5-0.6,2.2c-0.4,0.9-0.9,1.8-1.3,2.8
							c-0.5,1-0.9,1.9-1.3,2.9c-0.4,0.8-0.6,1.6-0.6,2.5c0,0.2,0,0.5,0.2,0.7c0.1,0.2,0.2,0.2,0.4,0.3c0.2,0,0.6-0.2,1-0.6
							c0.5-0.5,1.1-1,1.5-1.6c0.6-0.7,1.1-1.4,1.5-2.1c0.3-0.5,0.6-1,0.8-1.5c0,0,0-0.1,0-0.1c0.5-1.5,1.2-2.9,2.1-4.2
							c0.8-1.3,1.8-2.4,3-3.4c1-0.9,2.2-1.3,3.5-1.4c0.5,0,1,0.1,1.5,0.3c0.4,0.2,0.8,0.5,1.2,0.7c0.3,0.2,0.6,0.5,0.9,0.8
							c0.2,0.3,0.4,0.5,0.4,0.6c0.2-0.5,0.5-0.9,0.7-1.4c0.2-0.3,0.4-0.5,0.5-0.5c0.4,0,0.8,0.1,1.2,0.2c0.5,0.1,0.9,0.3,1.3,0.6
							c0.3,0.2,0.7,0.4,0.9,0.7c0.2,0.2,0.2,0.5,0,0.7c-0.5,0.6-0.9,1.3-1.2,2c-0.4,0.9-0.8,1.9-1.2,2.9c-0.4,1.1-0.7,2.1-0.9,3.2
							c-0.2,1-0.3,2-0.3,3.1c0,0.2,0,0.5,0.2,0.7c0.1,0.2,0.2,0.2,0.4,0.3c0.2,0,0.6-0.2,1-0.6c0.5-0.5,1-1,1.4-1.6
							c0.5-0.7,1-1.4,1.4-2.1c0.3-0.5,0.5-0.9,0.7-1.3c0-0.1,0.1-0.2,0.1-0.3c0.5-1.5,1.2-2.9,2.1-4.2c0.8-1.3,1.8-2.4,3-3.4
							c1-0.9,2.2-1.3,3.5-1.4c0.5,0,0.9,0.1,1.4,0.3c0.4,0.2,0.8,0.4,1.1,0.6c0.3,0.2,0.6,0.5,0.8,0.8c0.2,0.3,0.4,0.5,0.5,0.6
							c0.5-1.3,0.9-2.6,1.4-3.8c0.5-1.2,0.9-2.3,1.4-3.3c0.4-1,0.9-1.8,1.2-2.5c0.2-0.5,0.5-0.9,0.9-1.3c0.2-0.2,0.4-0.2,0.7-0.2
							c0.1,0,0.3,0,0.4,0c0.5,0.1,1,0.3,1.5,0.5c0.4,0.2,0.8,0.4,1.2,0.8c0.3,0.3,0.3,0.5,0.1,0.6c-0.5,0.5-1,1.1-1.3,1.7
							c-0.6,1.1-1.1,2.2-1.6,3.3c-0.6,1.3-1.1,2.7-1.7,4.2c-0.6,1.5-1.1,3-1.6,4.5c-0.5,1.5-0.8,2.9-1.1,4.2c-0.2,1-0.4,2.1-0.4,3.2
							c0,0.2,0,0.5,0.2,0.7c0.1,0.1,0.2,0.2,0.4,0.3c0.2,0,0.6-0.2,1-0.6c0.5-0.5,1-1,1.4-1.6c0.5-0.7,1-1.4,1.4-2.1
							c0.3-0.5,0.5-0.9,0.7-1.3c0.1-0.5,0.3-1.1,0.5-1.6c0.6-1.4,1.3-2.7,2.3-3.9c0.8-1.1,1.8-2,2.9-2.8c0.8-0.6,1.7-1,2.7-1
							c1,0,2,0.2,2.9,0.5c0.7,0.3,1.3,0.8,1.8,1.4c0.5,0.6,0.8,1.3,1,2c0.2,0.8,0.3,1.5,0.3,2.3c0,1.1-0.1,2.2-0.4,3.2
							c-0.3,1.1-0.7,2.1-1.2,3.1c0.4-0.1,0.7-0.2,1-0.3c0.5-0.2,0.9-0.5,1.3-0.8c0.5-0.4,0.9-0.8,1.3-1.2c0.1-0.1,0.1-0.1,0.2-0.2
							c0.2-0.3,0.3-0.7,0.5-1c0.4-0.7,0.8-1.6,1.2-2.5c0.4-0.9,0.8-1.8,1.1-2.7c-0.9-0.2-1.7-0.8-2.2-1.7c-0.3-0.7-0.5-1.4-0.5-2.1
							c0-0.6,0.2-1.3,0.5-1.9c0.3-0.7,0.7-1.3,1.2-1.9c0.4-0.6,1-1,1.6-1.5c0.5-0.4,1-0.6,1.6-0.6c0.2,0,0.3,0,0.4,0.1
							c0-0.2,0-0.5,0-0.7c0-0.4,0.1-0.7,0.1-1.1c-0.5,0.2-1,0.3-1.5,0.3c-1.5,0.1-3-0.5-4-1.5c-0.9-1-1.4-2.8-1.4-5.2
							c-0.5,0.9-1,1.7-1.6,2.5c-0.6,0.8-1.2,1.5-1.8,2.2c-0.6,0.6-1.2,1.1-1.8,1.6c-0.5,0.4-1,0.6-1.6,0.6c-1,0-2-0.2-3-0.6
							c-0.9-0.4-1.7-1-2.4-1.7c-0.7-0.7-1.2-1.6-1.6-2.5c-0.1-0.4-0.3-0.8-0.4-1.2c-0.3,0.5-0.6,0.9-0.9,1.4
							c-0.8,1.2-1.8,2.3-2.9,3.2c-0.9,0.9-2.1,1.4-3.3,1.4c-1.5,0.1-2.9-0.5-3.9-1.5c-1.1-1.3-1.6-2.9-1.5-4.6
							c-0.3,0.4-0.6,0.7-0.9,1.1c-1.3,1.4-2.8,2.6-4.4,3.5c-1.8,1-3.9,1.6-6,1.5c-1.3,0-2.6-0.2-3.8-0.8c-1.1-0.5-2-1.2-2.8-2.1
							c-0.8-0.9-1.4-2-1.7-3.1c-0.2-0.6-0.4-1.3-0.5-1.9c-0.7,0.9-1.4,1.8-2.1,2.7c-0.8,1-1.8,1.8-2.8,2.6c-1.1,0.8-2.2,1.4-3.4,1.9
							c-1.3,0.5-2.6,0.7-4,0.7c-1.3,0-2.6-0.2-3.8-0.8c-1.1-0.5-2-1.2-2.8-2.1c-0.8-0.9-1.4-2-1.7-3.1c-0.2-0.5-0.3-1.1-0.4-1.6
							c-0.6,0.9-1.3,1.8-2,2.6c-1.3,1.4-2.8,2.6-4.4,3.5c-1.8,1-3.9,1.6-6,1.5c-1.3,0-2.6-0.2-3.8-0.8c-1.1-0.5-2-1.2-2.8-2.1
							c-0.8-0.9-1.4-2-1.7-3.1c-0.4-1.2-0.6-2.5-0.6-3.7c0-1.9,0.4-3.8,1.2-5.6c0.8-1.9,1.8-3.7,3.1-5.4c1.3-1.6,2.8-2.9,4.4-4
							c1.5-1,3.3-1.6,5.1-1.6c0.8,0,1.6,0.1,2.3,0.4c0.7,0.3,1.4,0.7,2,1.3c0.6,0.6,1.1,1.3,1.4,2c0.3,0.9,0.5,1.8,0.5,2.8
							c-0.1,1.3-0.4,2.5-1,3.6c-0.7,1.2-1.6,2.3-2.7,3.1c-1.2,0.9-2.6,1.6-4.1,1.9c-0.8,0.2-1.6,0.3-2.3,0.3c-1,0-2.1-0.1-3.1-0.4
							c-0.1,0.8-0.2,1.7-0.1,2.6c0,0.7,0.3,1.5,0.6,2.1c0.3,0.6,0.8,1.1,1.4,1.4c0.7,0.4,1.5,0.6,2.4,0.5c1.5,0,3-0.4,4.3-1.2
							c1.2-0.7,2.3-1.7,3.3-2.7c0.9-0.9,1.6-2,2.2-3.1c0.3-0.5,0.5-1,0.7-1.4c0.2-0.8,0.4-1.6,0.8-2.3c0.8-1.9,1.8-3.7,3.1-5.4
							c1.3-1.6,2.8-2.9,4.4-4c1.5-1,3.3-1.6,5.1-1.6c1,0,1.9,0.2,2.8,0.5c0.7,0.3,1.4,0.8,2,1.3c0.5,0.5,0.9,1.1,1.2,1.8
							c0.2,0.6,0.4,1.2,0.4,1.8c0.1,1.1-0.3,2.1-1,2.9c-0.6,0.6-1.4,0.9-2.2,1.1C41.5,26,41.2,26,41,26c-0.4,0-0.8-0.1-1.2-0.3
							c-0.5-0.2-0.6-0.5-0.3-0.9c0.5-0.5,0.9-1.1,1.2-1.8c0.3-0.5,0.4-1.1,0.5-1.7c0-0.5-0.1-0.9-0.3-1.3c-0.3-0.4-0.7-0.6-1.1-0.5
							c-1.1,0.1-2.2,0.6-2.9,1.4c-1.1,1-2,2.2-2.7,3.4c-0.8,1.4-1.5,2.9-1.9,4.5c-0.5,1.5-0.7,3-0.7,4.5c0,1.2,0.4,2.4,1.1,3.5
							c0.8,1,2,1.5,3.3,1.4c1.4,0,2.9-0.4,4.1-1.2c1.2-0.7,2.3-1.7,3.3-2.7c0.9-0.9,1.7-2,2.3-3.1c0.3-0.6,0.6-1.1,0.8-1.5
							c0.2-0.8,0.4-1.5,0.7-2.2c0.8-1.9,1.8-3.7,3.1-5.4c1.3-1.6,2.8-2.9,4.5-4c1.5-1,3.3-1.6,5.1-1.6c0.8,0,1.6,0.1,2.3,0.4
							c0.7,0.3,1.4,0.7,2,1.3c0.6,0.6,1.1,1.3,1.4,2C65.8,21.1,66,22,66,23c-0.1,1.3-0.4,2.5-1,3.6c-0.7,1.2-1.6,2.3-2.7,3.1
							c-1.2,0.9-2.6,1.6-4.1,1.9c-0.8,0.2-1.6,0.3-2.3,0.3c-1,0-2.1-0.1-3.1-0.4c-0.1,0.8-0.2,1.7-0.1,2.6c0,0.7,0.3,1.5,0.6,2.1
							c0.3,0.6,0.8,1.1,1.4,1.4c0.7,0.4,1.5,0.6,2.4,0.5c1.5,0,3-0.4,4.3-1.2c1.2-0.7,2.3-1.7,3.3-2.7c0.9-0.9,1.6-2,2.2-3.1
							c0.3-0.5,0.5-1,0.7-1.3c0.1-0.3,0.2-0.5,0.2-0.8c0.5-1.6,1-3.4,1.7-5.3s1.4-3.9,2.3-6h-3.7c-0.5,0-0.9-0.2-1.2-0.6
							c-0.3-0.4-0.6-0.9-0.8-1.4c-0.2-0.4-0.3-0.9-0.4-1.4c-0.1-0.4,0-0.6,0.1-0.6c0.6,0.2,1.2,0.3,1.8,0.4c0.6,0.1,1.1,0.2,1.7,0.2
							c0.6,0.1,1.1,0.1,1.8,0.1c0.6,0,1.3,0,2.1,0c0.4-0.8,0.8-1.8,1.3-3s1-2.2,1.4-3.3c0.5-1,0.9-2,1.3-2.8c0.2-0.5,0.5-1,0.9-1.5
							C78.2,3.7,78.6,3.6,78.9,3.6 M54.1,28.6c0.7,0,1.3-0.2,1.9-0.5c0.8-0.4,1.6-0.9,2.2-1.6c0.7-0.7,1.3-1.4,1.8-2.2
							c0.5-0.7,0.8-1.5,1.1-2.3c0.2-0.6,0.3-1.2,0.3-1.8c-0.1-0.5-0.3-0.7-0.8-0.7c-0.7,0-1.4,0.3-2,0.8c-0.8,0.6-1.4,1.3-2,2.1
							c-0.7,0.9-1.3,1.9-1.8,2.9c-0.5,1.1-1,2.2-1.4,3.3C53.6,28.6,53.9,28.6,54.1,28.6 M11.8,28.6c0.7,0,1.3-0.2,1.9-0.5
							c0.8-0.4,1.6-0.9,2.2-1.6c0.7-0.7,1.3-1.4,1.8-2.2c0.5-0.7,0.8-1.5,1.1-2.3c0.2-0.6,0.3-1.2,0.3-1.8c-0.1-0.5-0.3-0.7-0.8-0.7
							c-0.7,0-1.4,0.3-2,0.8c-0.8,0.6-1.4,1.3-2,2.1c-0.7,0.9-1.3,1.9-1.8,2.9c-0.5,1.1-1,2.2-1.4,3.3
							C11.3,28.6,11.6,28.6,11.8,28.6 M86.3,37.8c0.3,0,0.7-0.3,1.3-0.8c0.7-0.7,1.3-1.4,1.9-2.1c0.7-0.9,1.4-1.9,2.1-2.9
							c0.7-1.1,1.4-2.2,2.1-3.2c0.6-1,1.1-2,1.6-3c0.4-0.8,0.7-1.6,0.9-2.4c0.1-0.6-0.1-1.1-0.6-1.4c-0.6-0.4-1.3-0.7-2-0.6
							c-1,0.1-1.9,0.7-2.6,1.5c-1.1,1.1-2,2.3-2.7,3.7c-0.9,1.5-1.6,3.2-2.2,4.9c-0.6,1.6-0.8,3.4-0.9,5.1c0,0.4,0.1,0.7,0.3,1
							C85.6,37.7,85.9,37.8,86.3,37.8 M106.1,47.2c0.6,0,1.1-0.2,1.6-0.5c0.6-0.4,1.1-0.9,1.5-1.6c0.5-0.9,0.9-1.8,1.1-2.7
							c0.3-1.3,0.5-2.6,0.4-3.9c0-1.4-0.2-2.7-0.5-4.1c-0.3-1.4-0.7-3-1.1-4.8c-0.3,1.1-0.7,2.1-1.2,3.2c-0.3,0.6-0.6,1.1-0.9,1.6
							c-0.1,0.2-0.3,0.4-0.5,0.6c-0.6,1-1.2,2.1-1.9,3c-0.3,0.4-0.6,0.9-1,1.3c0.6,0.1,1.1,0.3,1.6,0.6c0.6,0.4,0.9,0.7,0.9,0.9
							c0,0.1,0,0.1-0.1,0.1c0,0,0,0,0,0c-0.8,0.1-1.6,0.6-2,1.3c-0.5,0.7-0.7,1.5-0.7,2.3c0,0.7,0.2,1.4,0.6,2
							C104.5,47,105.3,47.3,106.1,47.2 M98.3,51.2c0.4-1,0.7-1.8,0.9-2.4c0.2-0.4,0.2-0.9,0.3-1.3c0-0.4-0.1-0.6-0.2-0.6
							c-0.2,0-0.4,0.1-0.5,0.3c-0.2,0.2-0.4,0.5-0.6,0.8c-0.2,0.3-0.3,0.6-0.5,1c-0.1,0.3-0.2,0.5-0.2,0.8c0,0.3,0,0.6,0.1,0.8
							C97.8,50.8,98,51,98.3,51.2 M83.4,64.8c0.5,0,1.1-0.2,1.5-0.5c0.5-0.4,0.9-0.9,1.2-1.5c-0.1-0.5-0.2-0.9-0.2-1.4
							c0-0.6,0.2-1.2,0.6-1.6c0.4-0.4,0.8-0.7,1.4-0.8c0.3-0.8,0.5-1.5,0.6-2.3c0.1-0.7,0.2-1.3,0.2-2c0-0.6-0.1-1.1-0.3-1.6
							c-0.2-0.4-0.7-0.7-1.2-0.6c-0.7,0.1-1.3,0.4-1.8,0.9c-0.7,0.7-1.3,1.4-1.8,2.3c-0.6,1-1,1.9-1.4,3c-0.4,1-0.6,2-0.7,3
							c-0.1,0.8,0,1.6,0.3,2.3C82,64.5,82.7,64.9,83.4,64.8 M113,64.8c0.2,0,0.5-0.2,0.9-0.6c0.5-0.5,0.9-0.9,1.3-1.5
							c0.5-0.6,1-1.3,1.5-2c0.5-0.8,1-1.5,1.4-2.3c0.4-0.7,0.8-1.4,1.1-2.1c0.3-0.5,0.5-1.1,0.6-1.6c0.1-0.4-0.1-0.8-0.4-1
							c-0.4-0.3-0.9-0.5-1.4-0.4c-0.7,0.1-1.3,0.5-1.8,1c-0.7,0.8-1.4,1.6-1.9,2.6c-0.6,1.1-1.1,2.2-1.5,3.4
							c-0.4,1.1-0.6,2.3-0.6,3.5c0,0.3,0.1,0.5,0.2,0.7C112.5,64.7,112.7,64.8,113,64.8 M63.9,64.8c0.2,0,0.5-0.2,0.9-0.6
							c0.5-0.5,0.9-0.9,1.3-1.5c0.5-0.6,1-1.3,1.5-2c0.5-0.8,1-1.5,1.4-2.3c0.4-0.7,0.8-1.4,1.1-2.1c0.3-0.5,0.5-1.1,0.6-1.6
							c0.1-0.4-0.1-0.8-0.4-1c-0.4-0.3-0.9-0.5-1.4-0.4c-0.7,0.1-1.3,0.5-1.8,1c-0.7,0.8-1.4,1.6-1.9,2.6c-0.6,1.1-1.1,2.2-1.5,3.4
							c-0.4,1.1-0.6,2.3-0.6,3.5c0,0.3,0.1,0.5,0.2,0.7C63.5,64.7,63.7,64.8,63.9,64.8 M45.2,64.8c0.2,0,0.5-0.2,0.9-0.6
							c0.5-0.5,0.9-0.9,1.3-1.5c0.5-0.6,1-1.3,1.5-2c0.5-0.8,1-1.5,1.4-2.3c0.4-0.7,0.8-1.4,1.1-2.1c0.3-0.5,0.5-1.1,0.6-1.6
							c0.1-0.4-0.1-0.8-0.4-1c-0.4-0.3-0.9-0.5-1.4-0.4c-0.7,0.1-1.3,0.5-1.8,1c-0.7,0.8-1.4,1.6-1.9,2.6c-0.6,1.1-1.1,2.2-1.5,3.4
							c-0.4,1.1-0.6,2.3-0.6,3.5c0,0.3,0.1,0.5,0.2,0.7C44.7,64.7,44.9,64.8,45.2,64.8 M9.2,64.8c0.2,0,0.5-0.2,0.9-0.6
							c0.5-0.5,0.9-0.9,1.3-1.5c0.5-0.6,1-1.3,1.5-2c0.5-0.8,1-1.5,1.4-2.3c0.4-0.7,0.8-1.4,1.1-2.1c0.3-0.5,0.5-1.1,0.6-1.6
							c0.1-0.4-0.1-0.8-0.4-1c-0.4-0.3-0.9-0.5-1.4-0.4c-0.7,0.1-1.3,0.5-1.8,1c-0.7,0.8-1.4,1.6-1.9,2.6C9.9,57.9,9.4,59,9,60.2
							c-0.4,1.1-0.6,2.3-0.6,3.5c0,0.3,0.1,0.5,0.2,0.7C8.7,64.7,9,64.8,9.2,64.8 M126.8,71.3c0.4,0,0.8-0.1,1.1-0.3
							c0.4-0.3,0.8-0.6,1-1.1c0.3-0.6,0.6-1.2,0.8-1.9c0.2-0.9,0.3-1.8,0.3-2.7c0-1-0.1-1.9-0.3-2.8c-0.2-1-0.5-2.1-0.8-3.3
							c-0.2,0.8-0.5,1.5-0.8,2.2c-0.2,0.4-0.4,0.8-0.7,1.1c-0.1,0.2-0.2,0.3-0.4,0.4c-0.4,0.7-0.8,1.4-1.3,2.1
							c-0.2,0.3-0.4,0.6-0.7,0.9c0.4,0,0.8,0.2,1.1,0.4c0.4,0.3,0.6,0.5,0.6,0.6c0,0,0,0.1-0.1,0.1c0,0,0,0,0,0
							c-0.6,0.1-1.1,0.4-1.4,0.9c-0.3,0.5-0.5,1-0.5,1.6c0,0.5,0.1,1,0.4,1.4C125.6,71.1,126.2,71.3,126.8,71.3 M78.9,0
							c-1.3,0-2.6,0.5-3.6,1.4c-0.6,0.7-1.2,1.5-1.5,2.4c-0.4,0.8-0.9,1.8-1.4,2.9C72,7.8,71.5,8.9,71,10l-0.3,0.7
							c-0.4,0-0.7-0.1-1-0.1c-0.5-0.1-1-0.1-1.5-0.2c-0.5-0.1-1-0.2-1.5-0.3L66.1,10h-0.5c-1.1,0-2.1,0.5-2.8,1.3
							c-0.4,0.5-0.7,1.1-0.8,1.7c-0.7-0.2-1.5-0.2-2.2-0.2c-2.5,0-4.9,0.8-7,2.1C51,16.1,49.4,17.5,48,19c0-0.1-0.1-0.1-0.1-0.2
							c-0.4-1.1-1.1-2.2-2-3.1c-0.9-0.9-1.9-1.6-3-2.1c-1.3-0.6-2.8-0.9-4.3-0.9c-2.5,0-4.9,0.8-7,2.1c-1.8,1.2-3.5,2.6-4.9,4.3
							c-0.1-0.1-0.1-0.3-0.2-0.4c-0.5-1.2-1.3-2.3-2.2-3.3c-0.9-0.9-2-1.6-3.2-2.1c-1.2-0.4-2.4-0.7-3.6-0.7c-2.5,0-4.9,0.8-7,2.1
							c-2,1.3-3.8,2.9-5.3,4.7c-1.6,1.9-2.8,4-3.7,6.3C0.5,28.2,0,30.6,0,33c0,1.7,0.3,3.3,0.8,4.9c0.5,1.5,1.3,3,2.4,4.2
							c1.1,1.3,2.5,2.3,4.1,3.1c1.7,0.7,3.5,1.1,5.3,1.1c2.7,0,5.4-0.7,7.8-2c1.3-0.7,2.5-1.6,3.6-2.6c0.1,0.2,0.2,0.3,0.4,0.4
							c1.1,1.3,2.5,2.3,4.1,3c1.7,0.7,3.5,1.1,5.3,1.1c1.8,0,3.6-0.3,5.3-1c1.5-0.6,2.9-1.4,4.2-2.3c0.6-0.4,1.2-0.9,1.8-1.4
							c0.2,0.2,0.3,0.4,0.5,0.6c1.1,1.3,2.5,2.3,4.1,3.1c1.7,0.7,3.5,1.1,5.3,1.1c2.7,0,5.4-0.7,7.8-2c0.7-0.4,1.3-0.8,1.9-1.2
							c0.2,0.2,0.4,0.4,0.5,0.6c1.4,1.4,3.1,2.3,5.1,2.5L70,46.6c-0.7-0.2-1.4-0.3-2.1-0.3c-2.1,0-4.2,0.8-5.8,2.2
							c-0.5,0.4-1,0.9-1.5,1.3l0,0c-0.5-0.7-1.2-1.3-2-1.7c-0.7-0.4-1.3-0.7-2.1-0.9c-0.7-0.2-1.5-0.4-2.2-0.4
							c-0.6,0-1.1,0.1-1.6,0.4c-0.2-0.1-0.3-0.2-0.5-0.3c-1-0.5-2-0.7-3.1-0.7c-2.1,0-4.2,0.8-5.8,2.2c-0.6,0.5-1.1,0.9-1.6,1.5
							c-0.3-0.5-0.6-1-1-1.4c-1.3-1.3-3.1-2-4.9-1.9c-1.2,0-2.3,0.4-3.3,1c-0.3,0.2-0.6,0.3-0.8,0.5c-0.3-0.2-0.5-0.4-0.8-0.6
							c-0.6-0.4-1.3-0.7-2-0.9c-0.7-0.2-1.4-0.3-2.1-0.3c-1.5,0-2.9,0.8-3.6,2.1c-0.2-0.1-0.3-0.2-0.5-0.3c-0.7-0.4-1.3-0.7-2.1-0.9
							c-0.7-0.2-1.5-0.4-2.2-0.4c-0.6,0-1.1,0.1-1.6,0.4c-0.2-0.1-0.3-0.2-0.5-0.2c-1-0.5-2-0.7-3.1-0.7c-2.1,0-4.2,0.8-5.8,2.2
							c-1.5,1.2-2.7,2.6-3.8,4.2c-1,1.5-1.8,3.2-2.4,5c-0.6,1.6-0.9,3.3-1,5c0,1.2,0.2,2.3,0.6,3.4c0.4,1.1,1,2,1.8,2.9
							c0.8,0.8,1.7,1.5,2.8,2c1.1,0.5,2.3,0.8,3.6,0.8c1.1,0,2.2-0.4,3.1-1c0.3-0.2,0.5-0.4,0.8-0.6c1.3,1,3,1.6,4.7,1.5
							c1.4,0,2.8-0.5,4-1.3c0.3,0.2,0.5,0.3,0.8,0.5c0.8,0.4,1.6,0.7,2.5,0.7c0.7,0,1.5-0.2,2.1-0.5c0.8-0.4,1.4-1,1.8-1.8
							c0.1,0.1,0.2,0.2,0.3,0.3c1.4,1.4,3.3,2.2,5.3,2.2c1.7,0,3.4-0.7,4.6-1.8c0.1-0.1,0.2-0.2,0.3-0.2c0.6,0.5,1.3,0.9,2,1.3
							c1.1,0.5,2.3,0.8,3.6,0.8c1.1,0,2.2-0.4,3.1-1c0.3-0.2,0.5-0.4,0.8-0.6c1.3,1,3,1.6,4.7,1.5c1.7,0,3.4-0.7,4.7-1.8l0.1,0
							c0.6,0.5,1.2,0.9,1.9,1.2c1.1,0.5,2.3,0.8,3.6,0.8c1.1,0,2.2-0.4,3.1-1c0.3-0.2,0.5-0.4,0.8-0.6c1.3,1,3,1.6,4.6,1.5
							c1.7,0,3.4-0.7,4.7-1.9c0,0,0.1-0.1,0.1-0.1c0.8,0.7,1.8,1.2,2.9,1.5c1,0.3,2.1,0.5,3.2,0.4c1.7,0,3.3-0.4,4.8-1.2
							c0.8-0.5,1.6-1,2.3-1.6c1.1-0.1,2.1-0.4,3.1-0.8c0.8-0.4,1.6-0.9,2.4-1.4l0,0c0.3,1.1,0.9,2.1,1.7,3c1.4,1.4,3.3,2.2,5.4,2.2
							c1.7,0,3.4-0.7,4.6-1.8l0.1-0.1c0.6,0.4,1.2,0.8,1.8,1.1c1.1,0.5,2.3,0.8,3.6,0.8c1.1,0,2.2-0.4,3.1-1
							c0.3-0.2,0.5-0.4,0.8-0.6c0.7,0.6,1.6,1,2.5,1.3c0.1,0.2,0.1,0.4,0.2,0.6c0.5,1,1.1,1.9,1.9,2.6c0.8,0.7,1.7,1.3,2.7,1.7
							c1,0.4,2.1,0.6,3.2,0.6c1.3,0,2.6-0.3,3.8-0.8c1.3-0.5,2.5-1.3,3.5-2.3c1.1-1,1.9-2.2,2.5-3.5c0.7-1.6,1.1-3.3,1.1-5
							c0-1-0.1-2-0.4-3c-0.2-0.7-0.4-1.4-0.6-2.1c-0.2-0.6-0.4-1.1-0.5-1.7c-0.1-0.4-0.1-0.7-0.1-1.1c0-0.4,0-0.7,0.1-1.1
							c0-0.2,0.1-0.4,0.2-0.6c1-0.8,1.5-2.1,1.5-3.3c0-1.2-0.5-2.3-1.3-3.2c-0.5-0.5-1-1-1.6-1.4c-0.6-0.4-1.2-0.7-1.8-0.9
							c-0.7-0.3-1.5-0.4-2.3-0.4c-0.6,0-1.3,0.2-1.8,0.4c-0.7,0.3-1.3,0.8-1.8,1.4c-0.1,0.1-0.2,0.2-0.3,0.3
							c-0.3-0.2-0.6-0.4-0.9-0.6c-0.7-0.4-1.3-0.7-2.1-0.9c-0.7-0.2-1.5-0.4-2.2-0.4c-0.6,0-1.1,0.1-1.6,0.4
							c-0.2-0.1-0.3-0.2-0.5-0.2c-0.4-0.2-0.9-0.4-1.4-0.5c0.3-0.5,0.5-1,0.8-1.5c1-2,1.4-4.3,1.4-6.5c0-1.3-0.2-2.6-0.5-3.8
							c-0.3-1-0.6-2-0.9-3c-0.3-0.8-0.5-1.7-0.8-2.5c-0.2-0.6-0.3-1.3-0.2-2c0-0.7,0.1-1.3,0.2-2c0.1-0.5,0.3-1,0.6-1.5
							c1.2-0.8,1.9-2.3,1.9-3.7c0-1.3-0.5-2.6-1.4-3.6c-0.6-0.7-1.3-1.2-2-1.7c-0.7-0.5-1.5-0.8-2.3-1.1c-0.9-0.3-1.8-0.5-2.7-0.5
							c-0.7,0-1.4,0.2-2,0.5c-0.8,0.4-1.5,1-2.1,1.7c-0.5,0.6-1,1.2-1.3,1.9c-0.6-0.8-1.4-1.5-2.3-2c-0.8-0.5-1.7-0.9-2.6-1.1
							c-0.9-0.3-1.8-0.4-2.8-0.5c-0.8,0-1.7,0.3-2.3,0.8c-0.5-0.3-0.9-0.5-1.4-0.8c-1.2-0.6-2.5-0.8-3.8-0.8c-2.1,0-4.1,0.6-5.9,1.7
							l-0.1-0.1c-0.4-0.7-0.8-1.4-1.3-2c0-0.1-0.1-0.1-0.2-0.2c0.1-0.3,0.3-0.6,0.4-0.9c0.4-0.8,0.8-1.5,1.1-2.1
							c0.2-0.3,0.2-0.5,0.3-0.5C87,8,87.4,7,87.4,6c0-1.3-0.6-2.4-1.5-3.3C85,2,84.1,1.4,83.1,1c-1-0.4-2-0.8-3.1-0.9
							C79.7,0,79.3,0,78.9,0L78.9,0z M35.4,34.4c-0.2-0.4-0.3-0.9-0.3-1.3c0-1.1,0.2-2.3,0.5-3.3c0.2-0.8,0.5-1.5,0.8-2.2
							c0.5,0.6,1.1,1.1,1.8,1.4c0.9,0.4,1.8,0.6,2.8,0.6c0.4,0,0.8,0,1.2-0.1l0.1,0c-0.5,0.8-1.1,1.6-1.7,2.3
							c-0.7,0.8-1.6,1.5-2.5,2.1c-0.6,0.4-1.4,0.6-2.2,0.6C35.7,34.5,35.6,34.5,35.4,34.4L35.4,34.4z M86.1,46.3
							c1.3,0,2.6-0.5,3.6-1.2c0.7-0.5,1.4-1,2-1.6l0.1,0.1c0.3,0.4,0.7,0.7,1.1,1c-0.4,0.6-0.8,1.3-1.1,2c-0.2,0.3-0.3,0.7-0.4,1
							c-0.2-0.1-0.4-0.2-0.6-0.3c-1.4-0.6-2.9-0.9-4.4-0.9c-1.7,0.1-3.3,0.6-4.7,1.6c0.3-0.5,0.5-1,0.7-1.4c0.2-0.4,0.4-0.6,0.4-0.7
							C83.9,46.2,85,46.3,86.1,46.3L86.1,46.3z"/>
					</g>
				</g>
				<g id="Grupo_362">
					<g id="Grupo_360" transform="translate(1.809 1.809)">
						<path id="Trazado_624" class="st1" d="M25.3,102.2c-1.7,0.1-3.3-0.2-4.9-0.7c-0.7-0.3-2.5-1-2.5-2.7c0-0.8,0.3-1.5,0.9-2
							c0.5-0.4,1.1-0.7,1.7-0.7c0,0,0.1,0,0.1,0c0.3-0.3,0.6-0.7,0.9-1c1-1.4,1.9-2.8,2.8-4.3c0.1-0.1,0.1-0.2,0.2-0.4
							c-1.1,0.5-2.3,0.7-3.6,0.7c-1.6,0-3.3-0.4-4.8-1c-1.5-0.7-2.9-1.7-4.1-2.9c-1.3-1.3-2.2-2.8-2.9-4.5c-0.7-1.9-1.1-3.9-1.1-5.9
							c0-2.9,0.4-5.7,1.3-8.5c0.8-2.8,1.9-5.6,3.3-8.3c0.6-1.3,1.3-2.5,2.1-3.7c-0.4-0.2-0.8-0.5-1.2-0.8c-0.7-0.5-1.2-1.1-1.7-1.8
							c-0.6-0.8-0.9-1.7-0.9-2.6c0.1-1.7,0.6-3.3,1.2-4.8c0.7-2,1.7-4.3,2.8-6.9c1.1-2.5,2.3-5.2,3.6-8.1c1.3-2.8,2.5-5.6,3.6-8.2
							s2-5,2.7-7c0.5-1.2,0.8-2.5,1-3.8c-0.1,0.1-0.2,0.1-0.4,0.2c-2.3,1.4-4.5,3-6.5,4.7c-1.9,1.6-3.8,3.3-5.5,5.2
							c-1.4,1.5-2.6,3.2-3.7,4.9c-0.4,0.7-0.8,1.5-1.1,2.3c0.3,0,0.5-0.1,0.8-0.1c0.5-0.1,0.9-0.3,1.4-0.5c0.5-0.2,0.9-0.4,1.3-0.5
							c0.4-0.1,0.7-0.2,1.1-0.2c0.3,0,0.6,0.1,0.9,0.2l0.4,0.2l0.3,0.3c0.4,0.6,0.9,1.7-0.6,3.3c-0.6,0.6-1.3,1.2-2,1.7
							c-0.8,0.6-1.7,1.1-2.6,1.5c-0.9,0.5-1.9,0.7-2.9,0.7c-1.1-0.1-2.1-0.5-2.9-1.3c-0.7-0.7-1.4-1.5-1.9-2.4
							c-0.6-0.9-1.1-1.9-1.5-3c-0.4-1-0.6-2.1-0.6-3.2c0.1-1.9,0.9-3.7,2.1-5.2c1.4-2,3.1-3.8,4.8-5.5c2.1-2,4.4-3.9,6.8-5.6
							c2.5-1.8,5.2-3.5,7.9-5c2.7-1.4,5.4-2.7,8.3-3.7c2.6-0.9,5.3-1.4,8-1.5c1.5,0,3,0.3,4.4,0.9c1.6,0.6,3,1.4,4.3,2.5
							c1.3,1.1,2.4,2.4,3.3,3.9c0.9,1.6,1.4,3.5,1.4,5.4c0,2.1-0.4,4.3-1.2,6.3c-0.8,2.1-1.8,4.1-3,5.9c-1.3,1.9-2.7,3.7-4.2,5.4
							c-1.5,1.6-3.1,3.1-4.8,4.4c-1.5,1.2-3.1,2.2-4.9,3.1c-0.6,0.3-1.3,0.6-2,0.8c0.4,0.7,0.8,1.3,1.2,2c0.8-0.2,1.6-0.3,2.5-0.3
							c1.4,0,2.7,0.3,3.9,1c1.1,0.6,1.9,1.5,2.6,2.5c0.6,1,1.1,2.1,1.4,3.2c0.2,1,0.4,2,0.4,3c0.8,0.3,1.7,0.4,2.5,0.4
							c0.6,0,1.3-0.1,1.9-0.2c0.2-0.1,0.4-0.1,0.7-0.1c1.1,0,2,0.9,2,2c0,0,0,0.1,0,0.1c0,0.5-0.1,0.9-0.2,1.3L50,53.7L50,53.8
							c-0.3,0.5-0.7,0.9-1.2,1.3c-0.6,0.6-1.2,1.1-1.9,1.5c-0.8,0.5-1.6,1-2.5,1.3c-1,0.4-2.1,0.7-3.1,0.9c-0.3,0-0.6,0.1-0.8,0.1
							c-0.2,0.3-0.4,0.6-0.5,0.9c-0.8,1.4-1.8,2.8-2.9,4c-0.6,0.7-1.3,1.3-2.1,1.8c0.7,0.1,1.4,0.4,2.1,0.7c0.9,0.4,1.7,1,2.4,1.7
							c0.9,0.8,1.4,1.9,1.4,3.1c-0.1,1.4-0.4,2.8-0.8,4.2c-0.5,1.7-1.2,3.6-1.9,5.7s-1.6,4.3-2.5,6.5c-0.9,2.2-1.7,4.3-2.5,6.1
							s-1.4,3.3-2,4.6c-0.9,2.1-1,2.1-1.2,2.4c-0.6,0.6-1.5,1.1-2.3,1.3C26.8,102.1,26.1,102.2,25.3,102.2z M29.5,51.6
							c-1.5,1.6-2.8,3.4-4,5.2c-1.4,2.1-2.6,4.3-3.7,6.6c-1.1,2.3-2,4.8-2.6,7.3c-0.6,2.4-1,4.8-1,7.3c-0.1,1.3,0.3,2.5,1.1,3.4
							c0.8,0.7,1.8,1.1,2.9,1.1c0.6,0,1.1-0.3,1.6-0.7c0.9-0.7,1.6-1.6,2.3-2.5c0.8-1.1,1.5-2.3,2.2-3.5c0.7-1.3,1.3-2.6,1.8-3.8
							c0.4-1,0.8-2,1.2-3c0.1-0.4,0.3-0.8,0.4-1.3c0-0.7,0.4-1.4,1-1.8c-0.5-0.1-1.1-0.2-1.6-0.3c-0.7-0.2-1.3-0.5-1.9-0.9
							c-0.6-0.4-1.1-0.8-1.6-1.3c-0.5-0.6-0.8-1.4-0.9-2.2c0-0.7,0.3-1.5,0.7-2c0.5-0.6,1.2-1,2-1c0.2,0,0.5,0,0.7,0.1
							c0.2-0.2,0.4-0.4,0.6-0.6c0.7-0.8,1.3-1.7,1.9-2.6c-1.1-1.1-2-2.2-2.9-3.5L29.5,51.6L29.5,51.6z M23.8,43.7
							c-0.3,0.9-0.6,1.8-0.9,2.7l0.1-0.1c0.7-0.7,1.5-1.3,2.3-1.9c-0.4-0.7-0.7-1.3-1.1-2C24,42.9,23.9,43.3,23.8,43.7L23.8,43.7z
							 M30.4,10.2c0.6,0.3,1.1,0.7,1.6,1.1c0.5,0.4,0.9,0.9,1.3,1.4c0.5,0.6,0.8,1.3,0.8,2.1c-0.1,1.1-0.3,2.2-0.7,3.2
							c-0.4,1.2-0.9,2.7-1.5,4.3c-0.6,1.6-1.3,3.4-2.1,5.3c-0.5,1.2-1,2.4-1.5,3.6c0.7-0.4,1.3-0.8,1.9-1.3c1.8-1.5,3.5-3.3,4.9-5.2
							c1.7-2.2,3.1-4.5,4.2-7c1.1-2.2,1.7-4.5,1.7-7c0-0.3-0.1-0.7-0.2-0.9c-0.2-0.3-0.4-0.7-0.7-0.9c-0.3-0.3-0.6-0.5-1-0.6
							c-0.3-0.1-0.6-0.2-0.8-0.2c-2.1,0-4.2,0.5-6.2,1.2C31.7,9.6,31,9.8,30.4,10.2L30.4,10.2z"/>
					</g>
					<g id="Grupo_361">
						<path id="Trazado_625" class="st1" d="M39.7,3.6c1.3,0,2.6,0.3,3.8,0.8c1.4,0.5,2.7,1.3,3.8,2.2c1.2,1,2.2,2.1,2.9,3.4
							c0.8,1.4,1.2,2.9,1.2,4.5c0,1.9-0.4,3.8-1.1,5.6c-0.7,2-1.7,3.8-2.8,5.6c-1.2,1.8-2.6,3.6-4,5.2c-1.4,1.5-3,3-4.6,4.2
							c-1.4,1.1-2.9,2.1-4.5,2.9c-1.2,0.6-2.6,1-3.9,1.1c0.9,1.9,2,3.7,3.3,5.4c1-0.4,2.1-0.6,3.2-0.6c1.1,0,2.1,0.2,3,0.8
							c0.8,0.5,1.5,1.1,2,1.9c0.5,0.8,0.9,1.7,1.1,2.7c0.2,1,0.3,1.9,0.3,2.9c0,0.3,0,0.6-0.1,0.9c0.3,0.1,0.6,0.3,0.9,0.4
							c1.1,0.4,2.3,0.7,3.5,0.7c0.8,0,1.6-0.1,2.4-0.3c0,0,0.1,0,0.1,0c0.1,0,0.2,0.1,0.2,0.3c0,0.2,0,0.4-0.1,0.5
							c-0.3,0.4-0.6,0.7-0.9,1.1c-0.5,0.5-1,0.9-1.6,1.3c-0.7,0.5-1.5,0.8-2.2,1.2c-0.9,0.4-1.8,0.6-2.7,0.7c-0.3,0-0.6,0.1-0.9,0.1
							c-0.3,0-0.5,0-0.8,0c-0.3,0.6-0.7,1.3-1,1.9c-0.8,1.3-1.7,2.6-2.7,3.7c-0.9,1-1.7,1.5-2.3,1.5c-0.6,0-1.2-0.1-1.7-0.3
							c-0.5-0.2-1.1-0.4-1.5-0.7c-0.4-0.3-0.8-0.6-1.1-1c-0.3-0.3-0.4-0.6-0.4-1c0-0.3,0.1-0.6,0.3-0.9c0.2-0.3,0.4-0.4,0.6-0.4
							c0.1,0,0.2,0.1,0.3,0.2c0.1,0.1,0.3,0.2,0.4,0.2c0.5,0,1.2-0.5,2-1.4c0.9-1.1,1.7-2.2,2.4-3.4c0.1-0.2,0.3-0.5,0.4-0.7
							c-1.5-1.3-2.8-2.8-3.9-4.5c-0.3-0.4-0.6-0.9-0.9-1.4l-0.1,0l-0.2-0.3c-0.5,0.5-1.1,1.1-1.6,1.7c-1.5,1.7-3,3.6-4.2,5.5
							c-1.4,2.2-2.7,4.4-3.8,6.8c-1.1,2.4-2,5-2.7,7.6c-0.7,2.5-1,5.2-1,7.8c0,2.2,0.6,3.8,1.8,4.8c1.1,1,2.6,1.5,4,1.5
							c1,0,2-0.4,2.7-1.1c1-0.8,1.8-1.8,2.6-2.8c0.9-1.2,1.6-2.4,2.3-3.7c0.7-1.4,1.3-2.6,1.9-3.9c0.5-1,0.9-2.1,1.3-3.2
							c0.2-0.6,0.4-1.2,0.4-1.8c0-0.3,0.2-0.5,0.6-0.5c0.1,0,0.1,0,0.2,0c0.7,0.1,1.3,0.3,1.9,0.6c0.7,0.3,1.4,0.8,1.9,1.4
							c0.5,0.5,0.8,1.1,0.9,1.8c-0.1,1.2-0.3,2.5-0.8,3.6c-0.5,1.7-1.1,3.5-1.9,5.6c-0.8,2.1-1.6,4.2-2.4,6.4
							c-0.9,2.2-1.7,4.2-2.4,6.1c-0.8,1.8-1.4,3.3-1.9,4.5c-0.5,1.2-0.8,1.8-0.9,1.9c-0.4,0.4-0.9,0.7-1.5,0.8
							c-0.6,0.1-1.2,0.2-1.8,0.2c-1.4,0.1-2.9-0.1-4.2-0.6c-0.9-0.4-1.4-0.7-1.4-1.1c0-0.2,0.1-0.5,0.3-0.7c0.1-0.1,0.3-0.2,0.5-0.2
							c0.1,0,0.1,0,0.2,0c0.1,0,0.1,0,0.2,0c0.5,0,1.1-0.6,2.1-1.8c1.1-1.4,2-2.9,2.9-4.5c1-1.8,2-3.7,3.1-5.8c1-2.1,1.9-4,2.5-5.7
							c-1.3,2.5-3,4.7-5,6.7c-1.4,1.6-3.5,2.5-5.6,2.5c-1.4,0-2.8-0.3-4-0.9c-1.3-0.6-2.5-1.4-3.5-2.5c-1.1-1.1-1.9-2.5-2.5-3.9
							c-0.6-1.7-1-3.4-0.9-5.2c0-2.7,0.4-5.4,1.2-8c0.8-2.7,1.9-5.4,3.2-7.9c0.9-1.8,2-3.6,3.2-5.3c-0.3-0.1-0.7-0.2-1-0.3
							c-0.6-0.3-1.2-0.6-1.7-1.1c-0.5-0.4-1-0.9-1.4-1.4c-0.4-0.4-0.6-1-0.6-1.6c0.2-1.4,0.5-2.8,1.1-4.1c0.7-2,1.7-4.2,2.8-6.8
							c1.1-2.5,2.3-5.2,3.6-8.1c1.3-2.8,2.5-5.6,3.6-8.2c1.1-2.6,2-5,2.8-7.1c0.6-1.5,1-3.1,1.1-4.7c0-0.4,0.1-0.6,0.3-0.7
							c0.1-0.1,0.3-0.1,0.5-0.1c0.4,0,0.8,0.2,1.1,0.4c0.5,0.3,0.9,0.6,1.3,0.9c0.4,0.3,0.8,0.7,1.1,1.1c0.2,0.3,0.4,0.6,0.4,1
							c-0.1,0.9-0.3,1.8-0.6,2.7c-0.4,1.2-0.9,2.6-1.5,4.2c-0.6,1.6-1.3,3.4-2.1,5.3c-0.8,1.9-1.6,3.9-2.4,6
							c0.4,0.3,0.8,0.6,1.3,0.6c1.1,0,2.5-0.7,4.2-2.1c1.9-1.6,3.7-3.5,5.2-5.5c1.7-2.3,3.2-4.7,4.5-7.3c1.2-2.4,1.8-5,1.9-7.7
							c0-0.6-0.1-1.2-0.4-1.8c-0.3-0.5-0.7-1-1.1-1.4c-0.4-0.4-0.9-0.7-1.5-0.9c-0.5-0.2-1-0.3-1.5-0.3c-2.3,0-4.6,0.5-6.8,1.3
							c-2.5,0.9-4.8,2.1-7.1,3.5c-2.4,1.4-4.6,3-6.7,4.8c-2,1.7-3.9,3.5-5.7,5.4c-1.5,1.6-2.8,3.3-3.9,5.2c-0.8,1.2-1.3,2.7-1.5,4.1
							c0,0.3,0.2,0.6,0.5,0.7c0.3,0.1,0.7,0.2,1,0.2c0.6,0,1.2-0.1,1.7-0.2c0.5-0.1,1.1-0.3,1.6-0.5c0.5-0.2,0.9-0.4,1.2-0.5
							C14.8,32,15,32,15.2,32c0,0,0.1,0,0.1,0c0.1,0.2,0,0.5-0.5,1c-0.5,0.5-1.1,1-1.7,1.4c-0.7,0.5-1.5,0.9-2.3,1.3
							c-0.7,0.3-1.4,0.5-2.2,0.6C8,36.2,7.4,35.9,7,35.4c-0.6-0.6-1.2-1.3-1.6-2c-0.5-0.8-0.9-1.7-1.3-2.6c-0.3-0.8-0.5-1.7-0.5-2.5
							c0.2-1.5,0.8-3,1.7-4.1c1.4-1.9,2.9-3.6,4.6-5.2c2.1-2,4.3-3.8,6.6-5.5c2.5-1.8,5-3.4,7.7-4.9c2.6-1.4,5.2-2.6,8-3.5
							C34.7,4.1,37.2,3.7,39.7,3.6 M21.2,54.7c1.5-1.9,3.1-3.6,4.8-5.2c1.1-1,2.2-1.9,3.4-2.7l0,0l0,0c-0.2-0.4-0.4-0.7-0.6-1.1
							c-1.2-2.3-2.3-4.1-3.1-5.7c-0.6,1.7-1.2,3.3-1.8,5c-0.6,1.6-1,3.1-1.5,4.6c-0.4,1.4-0.8,2.8-1,4
							C21.3,53.9,21.2,54.3,21.2,54.7 M39.1,50.5c0-0.3,0.1-0.6,0.1-0.8c0-0.6-0.2-1.2-0.5-1.7c-0.3-0.5-0.9-0.9-1.5-0.8
							c-0.5,0-1,0.1-1.4,0.3c0.9,1,1.8,1.9,2.8,2.7C38.8,50.3,39,50.4,39.1,50.5 M39.7,0c-2.9,0-5.8,0.6-8.6,1.6
							c-2.9,1-5.8,2.3-8.5,3.8c-2.8,1.5-5.5,3.3-8.1,5.1c-2.4,1.8-4.8,3.7-7,5.8C5.6,18,3.9,19.9,2.4,22C1,23.8,0.1,26,0,28.2
							c0,1.3,0.3,2.6,0.7,3.8c0.4,1.2,1,2.3,1.6,3.3c0.6,1,1.4,1.9,2.2,2.7c1.1,1.1,2.6,1.8,4.1,1.8c1.3,0,2.5-0.3,3.7-0.9
							c1-0.5,2-1,2.9-1.6c0.8-0.5,1.5-1.1,2.2-1.8c-0.8,1.8-1.5,3.4-2.2,5c-1.1,2.6-2.1,4.9-2.9,6.9c-0.8,1.7-1.2,3.6-1.3,5.4
							c0,1.3,0.5,2.7,1.3,3.7c0.6,0.7,1.2,1.4,1.9,2c-0.5,0.8-0.9,1.6-1.3,2.4c-1.4,2.7-2.6,5.6-3.4,8.6c-0.9,2.9-1.3,5.9-1.3,9
							c0,2.2,0.4,4.5,1.2,6.6c0.7,1.9,1.9,3.6,3.3,5.1c1.3,1.4,2.9,2.5,4.7,3.3c1.7,0.8,3.5,1.2,5.4,1.2c-0.3,0.4-0.5,0.7-0.7,1
							c-0.1,0.2-0.2,0.3-0.3,0.4c-0.8,0.1-1.5,0.5-2.2,1.1c-1,0.9-1.5,2.1-1.5,3.4c0,2,1.2,3.4,3.7,4.4c1.8,0.6,3.7,0.9,5.6,0.8
							c0.9,0,1.8-0.1,2.6-0.3c1.2-0.3,2.3-0.9,3.2-1.7c0.5-0.5,0.7-0.9,1.6-3c0.6-1.3,1.2-2.8,2-4.6s1.6-3.9,2.5-6.1
							s1.7-4.4,2.5-6.5c0.8-2.1,1.4-4.1,1.9-5.8c0.5-1.5,0.8-3.1,0.9-4.7c0-1.7-0.7-3.2-1.9-4.4c-0.7-0.7-1.4-1.3-2.3-1.8
							c1.2-1.3,2.2-2.8,3.1-4.3l0.1-0.1c1.2-0.2,2.4-0.5,3.5-1c1-0.4,1.9-0.9,2.8-1.5c0.8-0.5,1.5-1.1,2.2-1.8c0.5-0.5,1-1,1.4-1.6
							l0.1-0.2l0.1-0.2c0.3-0.7,0.4-1.4,0.4-2.1c0.1-2.1-1.6-3.9-3.7-3.9c0,0-0.1,0-0.1,0c-0.4,0-0.8,0.1-1.1,0.2
							c-0.5,0.1-0.9,0.2-1.4,0.2c-0.3,0-0.5,0-0.8-0.1c-0.1-0.7-0.2-1.3-0.3-2c-0.3-1.4-0.9-2.7-1.6-3.8c-0.8-1.2-1.9-2.3-3.2-3.1
							c-1.2-0.7-2.6-1.2-4.1-1.2c1.2-0.7,2.3-1.5,3.4-2.3c1.8-1.4,3.5-3,5.1-4.6c1.6-1.8,3.1-3.6,4.4-5.6c1.3-2,2.4-4.1,3.2-6.3
							c0.8-2.2,1.3-4.5,1.3-6.9c0-2.2-0.6-4.4-1.7-6.3c-1-1.7-2.2-3.2-3.7-4.4c-1.4-1.2-3.1-2.1-4.8-2.8C43.1,0.4,41.4,0,39.7,0
							L39.7,0z M35.9,12.5c1.4-0.5,2.9-0.7,4.4-0.7c0,0,0.1,0,0.2,0.1c0.2,0.1,0.3,0.2,0.4,0.3c0.1,0.1,0.2,0.3,0.3,0.4
							c0,0,0,0.1,0,0.1c0,2.2-0.6,4.3-1.5,6.2c-1.1,2.4-2.5,4.6-4,6.7c-0.2,0.3-0.5,0.6-0.7,0.9c0.2-0.6,0.4-1.1,0.6-1.7
							c0.6-1.7,1.1-3.1,1.5-4.4c0.4-1.2,0.7-2.5,0.7-3.8c0-1.2-0.4-2.3-1.2-3.2C36.4,13,36.1,12.7,35.9,12.5L35.9,12.5z M14.4,28.4
							c0.7-1,1.5-2,2.4-2.9c1.6-1.8,3.4-3.5,5.3-5c0.9-0.7,1.8-1.4,2.7-2.1c-0.6,1.8-1.4,3.8-2.4,5.9c-1,2.5-2.2,5-3.4,7.7
							c0-0.8-0.3-1.6-0.8-2.2l-0.5-0.7l-0.8-0.4c-0.5-0.3-1.1-0.4-1.7-0.4C14.9,28.4,14.6,28.4,14.4,28.4L14.4,28.4z M29.6,58.5
							c0.6-0.8,1.2-1.6,1.7-2.3c0.3,0.3,0.5,0.6,0.8,0.9c-0.3,0.4-0.6,0.8-0.9,1.1h-0.1C30.6,58.2,30.1,58.3,29.6,58.5L29.6,58.5z
							 M24,82.6c-0.6,0-1.2-0.2-1.7-0.7c-0.4-0.6-0.6-1.3-0.5-2.1c0-2.3,0.3-4.6,0.9-6.9c0.6-2.4,1.5-4.7,2.5-7
							c0.5-1,0.9-1.9,1.4-2.9c0,1.2,0.5,2.3,1.3,3.2c0.6,0.7,1.2,1.3,2,1.7c0.6,0.4,1.1,0.7,1.8,0.9c0,0.1,0,0.3,0,0.4
							c0,0.1-0.1,0.4-0.3,1c-0.3,1-0.7,1.9-1.1,2.8c-0.5,1.1-1.1,2.4-1.8,3.7c-0.6,1.1-1.3,2.2-2,3.3c-0.6,0.8-1.3,1.5-2,2.2
							C24.3,82.4,24.2,82.5,24,82.6L24,82.6z"/>
					</g>
				</g>
			</g>
			<g id="Grupo_377" transform="translate(-309.14 -564.51)">
				<g id="ecetas" transform="translate(37.852 8.087)">
					<g id="Grupo_370">
						<g id="Grupo_364" transform="translate(0 12.859)">
							<path id="Trazado_626" class="st4" d="M22.6,11.8c0.6,0,0.9,0.2,1,0.7c0.1,0.7,0,1.3-0.2,1.9c-0.3,1-0.7,1.9-1.2,2.8
								c-0.8,1.4-1.7,2.8-2.8,4c-1.3,1.4-2.8,2.6-4.4,3.5c-1.8,1-3.9,1.6-6,1.5c-1.3,0-2.6-0.2-3.8-0.8c-1.1-0.5-2-1.2-2.8-2.1
								c-0.8-0.9-1.4-2-1.7-3.1C0.2,19.1,0,17.8,0,16.5c0-1.9,0.4-3.8,1.2-5.6C1.9,9,3,7.2,4.3,5.6c1.3-1.6,2.8-2.9,4.4-4
								C10.3,0.6,12,0,13.9,0c0.8,0,1.6,0.1,2.3,0.4c0.7,0.3,1.4,0.7,2,1.3c0.6,0.6,1.1,1.3,1.4,2c0.3,0.9,0.5,1.8,0.5,2.8
								C20,7.8,19.7,9,19,10.1c-0.7,1.2-1.6,2.3-2.7,3.1c-1.2,0.9-2.6,1.6-4.1,1.9c-1.8,0.4-3.6,0.3-5.4-0.1
								c-0.1,0.8-0.2,1.7-0.1,2.6c0,0.7,0.3,1.5,0.6,2.1c0.3,0.6,0.8,1.1,1.4,1.4c0.7,0.4,1.6,0.6,2.4,0.5c1.5,0,3-0.4,4.3-1.2
								c1.2-0.7,2.3-1.7,3.3-2.7c0.9-0.9,1.6-2,2.2-3.1c0.5-1,0.9-1.8,1.1-2.4C22.2,11.9,22.3,11.8,22.6,11.8z M14.7,2.9
								c-0.7,0-1.4,0.3-2,0.8c-0.8,0.6-1.4,1.3-2,2.1c-0.7,0.9-1.3,1.9-1.8,2.9c-0.5,1.1-1,2.2-1.4,3.3c0.9,0.1,1.8,0,2.6-0.4
								c0.8-0.4,1.6-0.9,2.2-1.6c0.7-0.7,1.3-1.4,1.8-2.2c0.5-0.7,0.8-1.5,1.1-2.3c0.2-0.6,0.3-1.2,0.3-1.8
								C15.4,3.2,15.2,2.9,14.7,2.9L14.7,2.9z"/>
						</g>
						<g id="Grupo_365" transform="translate(21.147 12.859)">
							<path id="Trazado_627" class="st4" d="M22.6,11.8c0.3,0,0.6,0.2,0.8,0.7c0.2,0.6,0.2,1.3,0,1.9c-0.2,0.5-0.4,1-0.6,1.5
								c-0.4,0.8-0.9,1.6-1.4,2.4c-0.7,1-1.4,1.9-2.1,2.7c-0.8,1-1.8,1.8-2.8,2.6c-1.1,0.8-2.2,1.4-3.4,1.9c-1.3,0.5-2.6,0.7-4,0.7
								c-1.3,0-2.6-0.2-3.8-0.8c-1.1-0.5-2-1.2-2.8-2.1c-0.8-0.9-1.4-2-1.7-3.1C0.2,19.1,0,17.8,0,16.5c0-1.9,0.4-3.8,1.2-5.6
								C1.9,9,3,7.2,4.3,5.6c1.3-1.6,2.8-2.9,4.5-4C10.3,0.6,12,0,13.9,0c1,0,1.9,0.2,2.8,0.5c0.7,0.3,1.4,0.8,2,1.3
								c0.5,0.5,0.9,1.1,1.2,1.8c0.2,0.6,0.4,1.2,0.4,1.8c0.1,1.1-0.3,2.1-1,2.9c-0.6,0.6-1.4,0.9-2.2,1.1c-0.6,0.1-1.3,0.1-1.9-0.2
								c-0.5-0.2-0.6-0.5-0.3-0.9c0.5-0.5,0.9-1.1,1.2-1.8c0.3-0.5,0.4-1.1,0.5-1.7c0-0.5-0.1-0.9-0.3-1.3C15.9,3.1,15.4,2.9,15,3
								c-1.1,0.1-2.2,0.6-2.9,1.4c-1.1,1-2,2.2-2.7,3.5c-0.8,1.4-1.5,2.9-1.9,4.5c-0.5,1.5-0.7,3-0.7,4.5c0,1.2,0.4,2.4,1.1,3.5
								c0.8,1,2,1.5,3.3,1.4c1.4,0,2.9-0.4,4.1-1.2c1.2-0.7,2.3-1.7,3.3-2.7c0.9-1,1.7-2,2.3-3.1c0.5-0.8,0.9-1.6,1.2-2.4
								C22.2,11.9,22.3,11.8,22.6,11.8z"/>
						</g>
						<g id="Grupo_366" transform="translate(42.294 12.859)">
							<path id="Trazado_628" class="st4" d="M22.6,11.8c0.6,0,0.9,0.2,1,0.7c0.1,0.7,0,1.3-0.2,1.9c-0.3,1-0.7,1.9-1.2,2.8
								c-0.8,1.4-1.7,2.8-2.8,4c-1.3,1.4-2.8,2.6-4.4,3.5c-1.8,1-3.9,1.6-6,1.5c-1.3,0-2.6-0.2-3.8-0.8c-1.1-0.5-2-1.2-2.8-2.1
								c-0.8-0.9-1.4-2-1.7-3.1C0.2,19.1,0,17.8,0,16.5c0-1.9,0.4-3.8,1.2-5.6C1.9,9,3,7.2,4.3,5.6c1.3-1.6,2.8-2.9,4.5-4
								C10.3,0.6,12,0,13.9,0c0.8,0,1.6,0.1,2.3,0.4c0.7,0.3,1.4,0.7,2,1.3c0.6,0.6,1.1,1.3,1.4,2c0.3,0.9,0.5,1.8,0.5,2.8
								C20,7.8,19.7,9,19,10.1c-0.7,1.2-1.6,2.3-2.7,3.1c-1.2,0.9-2.6,1.6-4.1,1.9c-1.8,0.4-3.6,0.3-5.4-0.1
								c-0.1,0.8-0.2,1.7-0.1,2.6c0,0.7,0.3,1.5,0.6,2.1c0.3,0.6,0.8,1.1,1.4,1.4c0.7,0.4,1.5,0.6,2.4,0.5c1.5,0,3-0.4,4.3-1.2
								c1.2-0.7,2.3-1.7,3.3-2.7c0.9-0.9,1.6-2,2.2-3.1c0.5-1,0.9-1.8,1.1-2.4C22.2,11.9,22.3,11.8,22.6,11.8z M14.7,2.9
								c-0.7,0-1.4,0.3-2,0.8c-0.8,0.6-1.4,1.3-2,2.1c-0.7,0.9-1.3,1.9-1.8,2.9c-0.5,1.1-1,2.2-1.4,3.3c0.9,0.1,1.8,0,2.6-0.4
								c0.8-0.4,1.6-0.9,2.2-1.6c0.7-0.7,1.3-1.4,1.8-2.2c0.5-0.7,0.8-1.5,1.1-2.3c0.2-0.6,0.3-1.2,0.3-1.8
								C15.4,3.2,15.2,2.9,14.7,2.9L14.7,2.9z"/>
						</g>
						<g id="Grupo_367" transform="translate(61.901)">
							<path id="Trazado_629" class="st4" d="M16.5,11.3c0.3,0.4,0.6,0.8,0.8,1.2c0.2,0.4,0.3,0.8,0.4,1.2c0.1,0.4,0,0.5-0.3,0.5
								c-0.1,0-0.2,0-0.4,0c-0.2,0-0.5,0-0.7,0c-0.3,0-0.8,0-1.4,0c-0.6,0-1.4,0-2.4,0c-1.5,3.4-2.9,7-4,10.5
								c-1,2.7-1.5,5.6-1.6,8.5c0,0.9,0.3,1.3,0.9,1.3c0.3,0,0.8-0.3,1.4-0.9c0.7-0.7,1.4-1.5,2-2.3c0.7-1,1.4-2,2-3.1
								c0.6-1,1.1-2,1.5-3.1c0-0.1,0-0.1,0.1-0.1c0.1-0.1,0.2-0.1,0.2-0.1c0.5,0,0.8,0.2,0.9,0.6c0.1,0.4,0.1,0.9,0.1,1.3
								c-0.1,0.5-0.2,1.2-0.4,1.9c-0.3,0.8-0.7,1.6-1.1,2.3c-0.6,1.2-1.4,2.4-2.2,3.6c-0.8,1.2-1.8,2.3-2.9,3.2
								c-0.9,0.9-2.1,1.4-3.3,1.4c-1.5,0.1-2.9-0.5-3.9-1.5c-1.1-1.3-1.6-3-1.5-4.7c0-1.1,0.2-2.2,0.4-3.2c0.3-1.3,0.6-2.7,1.1-4.4
								c0.5-1.6,1-3.4,1.7-5.3c0.7-1.9,1.4-3.9,2.3-6H2.4c-0.5,0-0.9-0.2-1.2-0.6C0.9,13,0.6,12.5,0.4,12c-0.2-0.4-0.3-0.9-0.4-1.4
								C0,10.2,0,10,0.1,10c0.6,0.2,1.2,0.3,1.8,0.4c0.6,0.1,1.1,0.2,1.7,0.2c0.6,0.1,1.1,0.1,1.8,0.1c0.6,0,1.3,0,2.1,0
								C7.8,10,8.3,9,8.8,7.9s1-2.2,1.4-3.3c0.5-1,0.9-2,1.3-2.8c0.2-0.5,0.5-1,0.9-1.5c0.4-0.3,1-0.5,1.6-0.3
								c0.7,0.1,1.5,0.3,2.1,0.6c0.6,0.3,1.2,0.6,1.7,1.1c0.4,0.4,0.5,0.8,0.3,1c-0.3,0.4-0.5,0.8-0.7,1.2c-0.3,0.6-0.7,1.4-1.1,2.2
								c-0.4,0.8-0.8,1.7-1.2,2.5c-0.4,0.8-0.7,1.5-1,2h1.7C16,10.7,16.2,10.9,16.5,11.3z"/>
						</g>
						<g id="Grupo_368" transform="translate(74.951 12.859)">
							<path id="Trazado_630" class="st4" d="M28.8,11.8c0.4,0,0.8,0.2,0.9,0.6c0.1,0.4,0.2,0.9,0.1,1.3c-0.1,0.6-0.3,1.3-0.5,1.9
								c-0.3,0.8-0.7,1.6-1.1,2.3c-0.6,1.2-1.3,2.4-2.1,3.5c-0.8,1.2-1.8,2.3-2.9,3.2c-0.9,0.9-2.1,1.4-3.3,1.4
								c-1.5,0.1-3-0.5-4-1.5c-0.9-1-1.4-2.8-1.4-5.2c-0.5,0.9-1,1.7-1.6,2.5c-0.6,0.8-1.2,1.5-1.8,2.2c-0.6,0.6-1.2,1.1-1.8,1.6
								c-0.5,0.4-1,0.6-1.6,0.6c-1,0-2-0.2-3-0.6c-0.9-0.4-1.7-1-2.4-1.7c-0.7-0.7-1.2-1.6-1.6-2.5c-0.4-1-0.6-2-0.6-3
								c0.1-1.9,0.4-3.7,1.1-5.5c0.7-2.1,1.7-4.1,3-6C5.2,5,6.7,3.4,8.4,2c1.4-1.2,3.2-1.9,5.1-2c0.8,0,1.5,0.1,2.2,0.5
								c0.6,0.3,1.2,0.7,1.7,1.1c0.5,0.3,0.9,0.8,1.2,1.2c0.3,0.4,0.5,0.7,0.6,0.8c0.3-0.7,0.7-1.4,1.1-2c0.3-0.5,0.5-0.7,0.7-0.7
								c0.6,0,1.2,0.1,1.7,0.3c0.7,0.2,1.3,0.5,1.9,0.8C25,2.2,25.5,2.5,25.9,3c0.3,0.3,0.3,0.7,0,1c-0.7,0.9-1.3,1.9-1.8,2.9
								c-0.6,1.3-1.2,2.7-1.7,4.1c-0.5,1.5-0.9,3.1-1.3,4.7c-0.3,1.5-0.5,3-0.5,4.5c0,0.3,0.1,0.7,0.2,1c0.1,0.2,0.3,0.4,0.6,0.4
								c0.3,0,0.8-0.3,1.5-0.9c0.7-0.7,1.4-1.5,2-2.3c0.7-1,1.4-2,2-3.1c0.6-1,1.1-2,1.5-3.1c0-0.1,0-0.1,0.1-0.1
								C28.7,11.9,28.7,11.8,28.8,11.8z M7.7,21.3c0.3,0,0.7-0.3,1.3-0.8c0.7-0.7,1.3-1.4,1.9-2.1c0.7-0.9,1.4-1.9,2.1-2.9
								s1.4-2.2,2.1-3.2c0.6-1,1.1-2,1.6-3c0.4-0.8,0.7-1.6,0.9-2.4c0.1-0.6-0.1-1.1-0.6-1.4c-0.6-0.4-1.3-0.7-2-0.6
								c-1,0.1-1.9,0.7-2.6,1.5c-1.1,1.1-2,2.3-2.7,3.7c-0.9,1.5-1.6,3.2-2.2,4.9c-0.6,1.6-0.8,3.4-0.9,5.1c0,0.4,0.1,0.7,0.3,1
								C7.1,21.2,7.4,21.4,7.7,21.3L7.7,21.3z"/>
						</g>
						<g id="Grupo_369" transform="translate(96.165 13.127)">
							<path id="Trazado_631" class="st4" d="M17.7,3.3c0,0.5-0.1,0.7-0.4,0.8s-0.5,0.2-0.7,0.6c-0.6,1-1,2-1.3,3.1
								c-0.2,0.9-0.3,1.8-0.3,2.8c0,1,0.1,2,0.4,2.9c0.2,0.9,0.5,1.8,0.8,2.7c0.3,0.9,0.6,1.8,0.8,2.7c0.2,1,0.4,1.9,0.4,2.9
								c0,1.7-0.3,3.4-1,5c-0.6,1.3-1.5,2.6-2.6,3.6c-1,0.9-2.1,1.7-3.4,2.2c-1.1,0.5-2.3,0.7-3.4,0.8c-0.9,0-1.8-0.2-2.7-0.5
								c-0.8-0.3-1.6-0.8-2.2-1.4c-0.6-0.6-1.2-1.3-1.5-2.1C0.2,28.5,0,27.6,0,26.7c0-1.1,0.4-2.1,1.1-2.9c0.6-0.8,1.4-1.3,2.4-1.3
								c0.7,0,1.4,0.2,2,0.6c0.6,0.4,0.9,0.7,0.9,0.9c0,0.1,0,0.1-0.1,0.1c0,0,0,0,0,0c-0.8,0.1-1.6,0.6-2,1.3
								c-0.5,0.7-0.7,1.5-0.7,2.3c0,0.7,0.2,1.4,0.6,2c0.6,0.6,1.4,0.9,2.2,0.8c0.6,0,1.1-0.2,1.6-0.5c0.6-0.4,1.1-0.9,1.5-1.6
								c0.5-0.9,0.9-1.8,1.1-2.7c0.3-1.3,0.5-2.6,0.4-3.9c0-1.4-0.2-2.7-0.5-4.1c-0.3-1.4-0.7-3-1.1-4.8C9.1,13.9,8.7,15,8.2,16
								c-0.3,0.6-0.6,1.1-0.9,1.6c-0.2,0.3-0.4,0.5-0.6,0.6c-0.1,0-0.2,0.1-0.3,0.1c-0.4,0-0.7-0.2-0.8-0.6
								c-0.2-0.3-0.3-0.7-0.3-1.1c0.5-1.3,1-2.6,1.5-3.9c0.4-1.1,0.9-2.2,1.3-3.4c0.4-1.2,0.8-2.3,1.1-3.1c0.3-1.2,0.6-2.4,1.1-3.5
								c0.3-0.7,0.7-1.3,1.1-1.9c0.2-0.3,0.6-0.6,0.9-0.8C12.6,0.1,12.7,0,12.9,0c0.5,0,1,0.1,1.5,0.3C15,0.5,15.5,0.8,16,1.1
								c0.5,0.3,0.9,0.6,1.2,1C17.5,2.4,17.7,2.8,17.7,3.3z"/>
						</g>
					</g>
				</g>
				<g id="R">
					<g id="Grupo_372">
						<g id="Grupo_371">
							<path id="Trazado_632" class="st4" d="M46.4,50.2c0.2-0.1,0.3,0,0.3,0.3c0,0.2,0,0.4-0.1,0.5c-0.3,0.4-0.6,0.7-0.9,1.1
								c-0.5,0.5-1.1,0.9-1.6,1.3c-0.7,0.5-1.5,0.8-2.2,1.2c-0.9,0.4-1.8,0.6-2.7,0.7c-1.9,0.3-3.9-0.3-5.3-1.6
								c-1.8-1.5-3.4-3.2-4.7-5.2c-1.5-2.1-2.8-4.2-4-6.5c-1.2-2.3-2.3-4.1-3.1-5.7c-0.6,1.7-1.2,3.3-1.8,5c-0.6,1.6-1,3.1-1.5,4.6
								c-0.4,1.4-0.8,2.8-1,4c-0.2,1.1-0.4,2.2-0.4,3.2c0,0.2-0.1,0.3-0.4,0.5c-0.3,0.1-0.5,0.2-0.8,0.2c-0.5,0-1.1-0.2-1.6-0.4
								c-0.6-0.3-1.2-0.6-1.7-1.1c-0.5-0.4-1-0.9-1.4-1.4c-0.4-0.4-0.6-1-0.6-1.6c0.2-1.4,0.5-2.8,1.1-4.1c0.7-2,1.7-4.2,2.8-6.8
								s2.3-5.2,3.6-8.1c1.3-2.8,2.5-5.6,3.6-8.2s2-5,2.8-7.1c0.6-1.5,1-3.1,1.1-4.7c0-0.4,0.1-0.6,0.3-0.7c0.1-0.1,0.3-0.1,0.5-0.1
								c0.4,0,0.8,0.2,1.1,0.4c0.5,0.3,0.9,0.6,1.3,0.9c0.4,0.3,0.8,0.7,1.1,1.1c0.2,0.3,0.4,0.6,0.4,1c-0.1,0.9-0.3,1.8-0.6,2.7
								c-0.4,1.2-0.9,2.6-1.5,4.2s-1.3,3.4-2.1,5.3c-0.8,1.9-1.6,3.9-2.4,6c0.4,0.3,0.8,0.6,1.3,0.6c1.1,0,2.5-0.7,4.2-2.1
								c1.9-1.6,3.7-3.5,5.2-5.5c1.7-2.3,3.2-4.7,4.4-7.3c1.2-2.4,1.8-5,1.9-7.7c0-0.6-0.1-1.2-0.4-1.8c-0.3-0.5-0.7-1-1.1-1.4
								c-0.4-0.4-0.9-0.7-1.5-0.9c-0.5-0.2-1-0.3-1.5-0.3c-2.3,0-4.6,0.5-6.8,1.3c-2.5,0.9-4.8,2.1-7.1,3.5c-2.4,1.4-4.6,3-6.7,4.8
								c-2,1.7-3.9,3.5-5.7,5.4c-1.5,1.6-2.8,3.3-3.9,5.2c-0.8,1.2-1.3,2.7-1.5,4.1c0,0.3,0.2,0.6,0.5,0.7c0.3,0.1,0.7,0.2,1,0.2
								c0.6,0,1.2-0.1,1.7-0.2c0.5-0.1,1.1-0.3,1.6-0.5c0.5-0.2,0.9-0.4,1.2-0.5c0.3-0.1,0.5-0.1,0.6-0.1c0.1,0.2,0,0.5-0.5,1
								c-0.5,0.5-1.1,1-1.7,1.4c-0.7,0.5-1.5,0.9-2.3,1.3c-0.7,0.3-1.4,0.5-2.2,0.6c-0.6-0.1-1.2-0.4-1.6-0.8
								c-0.6-0.6-1.2-1.3-1.6-2c-0.5-0.8-0.9-1.7-1.3-2.6C0.2,26.3,0,25.5,0,24.6c0.2-1.5,0.8-3,1.7-4.1c1.4-1.9,2.9-3.6,4.6-5.2
								c2.1-2,4.3-3.8,6.6-5.5c2.5-1.8,5-3.4,7.7-4.9c2.6-1.4,5.2-2.6,8-3.5C31,0.5,33.5,0,36.1,0c1.3,0,2.6,0.3,3.8,0.8
								C41.2,1.3,42.5,2,43.6,3c1.2,1,2.2,2.1,2.9,3.4c0.8,1.4,1.2,2.9,1.2,4.5c0,1.9-0.4,3.8-1.1,5.6c-0.7,2-1.7,3.8-2.8,5.6
								c-1.2,1.8-2.6,3.6-4,5.2c-1.4,1.5-3,3-4.6,4.2c-1.4,1.1-2.9,2.1-4.6,2.9c-1.2,0.6-2.6,1-3.9,1.1c1,2.1,2.3,4.1,3.6,6
								c1.4,1.9,3,3.6,4.8,5.1c1.6,1.4,3.5,2.5,5.5,3.3C42.4,50.6,44.4,50.7,46.4,50.2z"/>
						</g>
					</g>
				</g>
				<g id="Grupo_375" transform="translate(8.052 40.301)">
					<g id="Grupo_373" transform="translate(30.015 5.225)">
						<path id="Trazado_633" d="M130.1,12.3c0.1-0.2,0.3-0.3,0.5-0.4c0.2,0,0.3-0.2,0.3-0.5c0-0.3-0.1-0.6-0.3-0.8
							c-0.3-0.3-0.5-0.5-0.9-0.7c-0.3-0.2-0.7-0.4-1.1-0.5c-0.3-0.1-0.7-0.2-1-0.2c-0.1,0-0.2,0.1-0.3,0.1c-0.2,0.1-0.5,0.3-0.6,0.5
							c-0.3,0.4-0.6,0.8-0.8,1.3c-0.3,0.8-0.6,1.6-0.8,2.4c-0.2,0.6-0.5,1.3-0.8,2.2c-0.3,0.8-0.6,1.6-0.9,2.4l-0.3,0.9
							c-0.1,0.2-0.2,0.4-0.3,0.6c-0.4,0.7-0.9,1.4-1.4,2.1c-0.4,0.6-0.9,1.1-1.4,1.6c-0.5,0.4-0.8,0.6-1,0.6c-0.2,0-0.3-0.1-0.4-0.3
							c-0.1-0.2-0.2-0.4-0.2-0.7c0-1,0.1-2.1,0.3-3.1c0.2-1.1,0.5-2.2,0.9-3.2c0.3-1,0.7-1.9,1.2-2.9c0.3-0.7,0.7-1.4,1.2-2
							c0.2-0.2,0.2-0.5,0-0.7c-0.3-0.3-0.6-0.6-0.9-0.7c-0.4-0.2-0.8-0.4-1.3-0.6c-0.4-0.1-0.8-0.2-1.2-0.2c-0.1,0-0.2,0.2-0.5,0.5
							c-0.3,0.4-0.5,0.9-0.7,1.4c-0.1-0.1-0.2-0.3-0.4-0.6c-0.3-0.3-0.5-0.6-0.9-0.8c-0.4-0.3-0.8-0.5-1.2-0.7
							c-0.5-0.2-1-0.3-1.5-0.3c-1.3,0-2.5,0.5-3.5,1.4c-1.2,1-2.2,2.1-3,3.4c-0.9,1.3-1.5,2.7-2.1,4.2c-0.2,0.5-0.3,0.9-0.4,1.4
							c-0.1,0.1-0.1,0.2-0.2,0.3c-0.4,0.7-0.9,1.5-1.5,2.1c-0.5,0.6-1,1.1-1.5,1.6c-0.5,0.4-0.8,0.7-1,0.6c-0.2,0-0.3-0.1-0.4-0.3
							c-0.1-0.2-0.2-0.4-0.2-0.7c0-0.8,0.1-1.6,0.3-2.4c0.2-0.9,0.5-1.8,0.9-2.7c0.3-0.9,0.7-1.7,1.1-2.5c0.4-0.8,0.7-1.4,1-1.9
							c0.1-0.2,0.2-0.4,0.1-0.6c0-0.3-0.1-0.6-0.2-0.8c-0.2-0.3-0.4-0.5-0.6-0.8c-0.2-0.2-0.5-0.4-0.8-0.6c-0.3-0.1-0.6-0.2-0.9-0.2
							c-0.5,0-1.1,0.1-1.6,0.1c-0.5,0.1-1,0.1-1.6,0.1c-0.2,0-0.4,0-0.6-0.1c0.4-1.1,0.8-2.2,1.2-3.4c0.2-0.7,0.3-1.4,0.4-2.1
							c0-0.3-0.1-0.7-0.3-1C97.5,4,97.2,3.8,97,3.6c-0.2-0.2-0.5-0.3-0.8-0.4C96,3.1,95.8,3,95.5,3c-0.6,0-1.2,0.2-1.6,0.6
							c-0.6,0.4-1.1,0.9-1.6,1.5c-0.5,0.6-0.9,1.2-1.2,1.9c-0.3,0.6-0.4,1.2-0.5,1.9c0,0.7,0.2,1.4,0.5,2.1c0.4,0.9,1.2,1.5,2.2,1.7
							c-0.3,0.9-0.7,1.8-1.1,2.7c-0.4,0.9-0.8,1.8-1.2,2.5c-0.2,0.3-0.3,0.6-0.5,1c-0.1,0.1-0.1,0.1-0.2,0.2
							c-0.4,0.5-0.8,0.9-1.3,1.2c-0.4,0.3-0.8,0.6-1.3,0.8c-0.3,0.2-0.7,0.3-1,0.3c0.5-1,0.9-2,1.2-3.1c0.3-1,0.4-2.1,0.4-3.2
							c0-0.8-0.1-1.5-0.3-2.3c-0.2-0.7-0.5-1.4-1-2c-0.5-0.6-1.1-1.1-1.8-1.4c-0.9-0.4-1.9-0.6-2.9-0.5c-1,0.1-1.9,0.4-2.7,1
							c-1.1,0.8-2.1,1.7-2.9,2.8c-0.9,1.2-1.7,2.5-2.3,3.9c-0.2,0.5-0.4,1-0.5,1.6c-0.2,0.4-0.4,0.9-0.7,1.3
							c-0.4,0.7-0.9,1.4-1.4,2.1c-0.4,0.6-0.9,1.1-1.4,1.6c-0.5,0.4-0.8,0.7-1,0.6c-0.2,0-0.3-0.1-0.4-0.3C69,23.4,69,23.2,69,23
							c0-1.1,0.2-2.1,0.4-3.2c0.3-1.3,0.6-2.7,1.1-4.2s1-3,1.6-4.5c0.6-1.5,1.1-2.9,1.7-4.2c0.5-1.1,1-2.2,1.6-3.3
							c0.3-0.7,0.8-1.2,1.3-1.7c0.2-0.2,0.2-0.4-0.1-0.6c-0.4-0.3-0.8-0.6-1.2-0.8c-0.5-0.2-1-0.4-1.5-0.5c-0.4-0.1-0.8-0.1-1.1,0.2
							c-0.3,0.4-0.6,0.9-0.9,1.3c-0.4,0.7-0.8,1.5-1.2,2.5s-0.9,2.1-1.4,3.3c-0.5,1.2-1,2.5-1.4,3.8c-0.1-0.2-0.3-0.4-0.5-0.6
							c-0.3-0.3-0.5-0.5-0.8-0.8c-0.3-0.3-0.7-0.5-1.1-0.6C65,9,64.5,8.9,64.1,8.9c-1.3,0-2.5,0.5-3.5,1.4c-1.2,1-2.2,2.1-3,3.4
							c-0.9,1.3-1.5,2.7-2.1,4.2c0,0.1-0.1,0.2-0.1,0.3c-0.2,0.4-0.4,0.9-0.7,1.3c-0.4,0.7-0.9,1.4-1.4,2.1
							c-0.4,0.6-0.9,1.1-1.4,1.6c-0.5,0.4-0.8,0.6-1,0.6c-0.2,0-0.3-0.1-0.4-0.3c-0.1-0.2-0.2-0.4-0.2-0.7c0-1,0.1-2.1,0.3-3.1
							c0.2-1.1,0.5-2.2,0.9-3.2c0.3-1,0.7-1.9,1.2-2.9c0.3-0.7,0.7-1.4,1.2-2c0.2-0.2,0.2-0.5,0-0.7c-0.3-0.3-0.6-0.6-0.9-0.7
							c-0.4-0.2-0.8-0.4-1.3-0.6c-0.4-0.1-0.8-0.2-1.2-0.2c-0.1,0-0.2,0.2-0.5,0.5c-0.3,0.4-0.5,0.9-0.7,1.4
							c-0.1-0.1-0.2-0.3-0.4-0.6c-0.3-0.3-0.5-0.6-0.9-0.8c-0.4-0.3-0.8-0.5-1.2-0.7c-0.5-0.2-1-0.3-1.5-0.3c-1.3,0-2.5,0.5-3.5,1.4
							c-1.2,1-2.2,2.1-3,3.4c-0.9,1.3-1.5,2.7-2.1,4.2c0,0,0,0.1,0,0.1c-0.2,0.5-0.5,1-0.8,1.5c-0.4,0.7-1,1.5-1.5,2.1
							c-0.5,0.6-1,1.1-1.5,1.6c-0.5,0.4-0.8,0.7-1,0.6c-0.2,0-0.3-0.1-0.4-0.3c-0.1-0.2-0.2-0.4-0.2-0.7c0-0.9,0.2-1.7,0.6-2.5
							c0.4-0.9,0.9-1.9,1.3-2.9c0.5-1,0.9-1.9,1.3-2.8c0.4-0.7,0.6-1.4,0.6-2.2c0.1-0.9-0.2-1.8-0.8-2.6c-0.6-0.6-1.5-0.9-2.4-0.8
							c-0.5,0-1.1,0.2-1.5,0.5c-0.7,0.4-1.4,0.9-1.9,1.4c-0.7,0.7-1.4,1.4-2,2.1c-0.7,0.8-1.3,1.7-1.9,2.6c0.1-0.4,0.3-0.8,0.5-1.2
							c0.2-0.4,0.4-0.9,0.6-1.3c0.2-0.4,0.3-0.9,0.5-1.3c0.1-0.3,0.2-0.6,0.2-1c0-0.3-0.1-0.6-0.4-0.8c-0.3-0.3-0.6-0.5-0.9-0.7
							c-0.3-0.2-0.7-0.4-1.1-0.5c-0.3-0.1-0.7-0.2-1-0.2c-0.2,0-0.4,0.1-0.5,0.2c-0.1,0.1-0.1,0.2-0.1,0.3c-0.1,0.5-0.2,0.9-0.3,1.3
							c-0.2,0.7-0.5,1.4-0.8,2.3S20.6,15,20.2,16c-0.3,0.8-0.6,1.5-0.8,2.2c-0.2,0.4-0.4,0.8-0.6,1.2c-0.4,0.7-0.9,1.4-1.4,2.1
							c-0.4,0.6-0.9,1.1-1.4,1.6c-0.5,0.4-0.8,0.7-1,0.6c-0.2,0-0.3-0.1-0.4-0.3c-0.1-0.2-0.2-0.4-0.2-0.7c0-1,0.1-2.1,0.3-3.1
							c0.2-1.1,0.5-2.2,0.9-3.2c0.3-1,0.7-1.9,1.2-2.9c0.3-0.7,0.7-1.4,1.2-2c0.2-0.2,0.2-0.5,0-0.7c-0.3-0.3-0.6-0.6-0.9-0.7
							c-0.4-0.2-0.8-0.4-1.3-0.6c-0.4-0.1-0.8-0.2-1.2-0.2c-0.1,0-0.2,0.2-0.5,0.5c-0.3,0.4-0.5,0.9-0.7,1.4
							c-0.1-0.1-0.2-0.3-0.4-0.6c-0.3-0.3-0.5-0.6-0.9-0.8c-0.4-0.3-0.8-0.5-1.2-0.7c-0.5-0.2-1-0.3-1.5-0.3c-1.3,0-2.5,0.5-3.5,1.4
							c-1.2,1-2.2,2.1-3,3.4c-0.9,1.3-1.5,2.7-2.1,4.2C0.3,19,0,20.3,0,21.6c0,0.7,0.1,1.4,0.4,2.1C0.6,24.4,1,25,1.5,25.5
							c0.5,0.5,1,0.9,1.6,1.2c0.6,0.3,1.4,0.4,2.1,0.4c0.4,0,0.8-0.2,1.1-0.4c0.5-0.3,0.9-0.7,1.3-1.1c0.5-0.5,0.9-1,1.3-1.5
							c0.4-0.5,0.8-1.1,1.1-1.7c-0.1,1.3,0.2,2.6,1,3.6c0.7,0.7,1.7,1.1,2.8,1.1c0.9,0,1.7-0.4,2.3-1c0.7-0.6,1.3-1.3,1.9-2.1
							c0.1,0.3,0.2,0.6,0.3,0.8c0.2,0.4,0.5,0.8,0.9,1.1c0.3,0.3,0.7,0.5,1.1,0.7c0.3,0.2,0.6,0.3,0.9,0.3c0.2,0,0.4,0,0.5-0.1
							c0.2-0.1,0.2-0.2,0.2-0.3c0-1,0.2-2,0.6-2.9c0.4-1.1,0.9-2.1,1.4-3.1c0.5-1,1.2-2,1.9-2.9c0.7-0.9,1.3-1.7,1.9-2.4
							c0.5-0.6,1-1.2,1.6-1.7c0.5-0.4,0.8-0.6,0.9-0.6s0.2,0.1,0.2,0.4c-0.1,0.6-0.3,1.1-0.5,1.6c-0.4,0.8-0.7,1.7-1.2,2.6
							c-0.4,1-0.8,1.9-1.1,2.9c-0.3,0.7-0.5,1.5-0.5,2.3c-0.1,1.2,0.3,2.3,1,3.3c0.7,0.7,1.7,1.1,2.7,1.1c0.9,0,1.7-0.4,2.3-1
							c0.8-0.7,1.5-1.4,2.2-2.3c0.3-0.4,0.6-0.8,0.9-1.2c0.1,0.4,0.2,0.7,0.3,1.1c0.2,0.6,0.6,1.2,1.1,1.7c0.5,0.5,1,0.9,1.6,1.2
							c0.6,0.3,1.4,0.4,2.1,0.4c0.4,0,0.8-0.2,1.1-0.4c0.5-0.3,0.9-0.7,1.3-1.1c0.5-0.5,0.9-1,1.3-1.5c0.4-0.5,0.8-1.1,1.1-1.7
							c-0.1,1.3,0.2,2.6,1,3.6c0.7,0.7,1.7,1.1,2.8,1.1c0.9,0,1.7-0.4,2.3-1c0.8-0.7,1.4-1.4,2-2.3c0.3-0.4,0.5-0.8,0.7-1.1
							c0.1,0.4,0.2,0.7,0.3,1.1c0.2,0.6,0.6,1.2,1.1,1.7c0.5,0.5,1,0.9,1.6,1.2c0.6,0.3,1.4,0.4,2.1,0.4c0.4,0,0.8-0.2,1.1-0.4
							c0.4-0.3,0.9-0.7,1.2-1c0.4-0.5,0.9-1,1.3-1.5c0.4-0.6,0.8-1.1,1.1-1.7v0.3c-0.1,1.2,0.3,2.3,1,3.3c0.7,0.7,1.7,1.1,2.7,1.1
							c0.9,0,1.7-0.4,2.3-1c0.8-0.7,1.4-1.4,2-2.3c0.4-0.5,0.7-1,1-1.5c0.1,0.5,0.2,1.1,0.4,1.6c0.3,0.7,0.7,1.4,1.2,1.9
							c0.5,0.5,1.1,0.8,1.8,1c0.7,0.2,1.4,0.3,2.2,0.3c1,0,2.1-0.3,3-0.8c1-0.6,1.9-1.3,2.6-2.1c0.1,0,0.1,0,0.2,0
							c0.1,0,0.2,0,0.3,0c0.9,0,1.7-0.2,2.5-0.5c0.7-0.3,1.4-0.7,2-1.3c0.1-0.1,0.2-0.2,0.3-0.3c0,0,0,0,0,0c0.1,0.1,0.2,0.1,0.3,0
							c0,0,0,0,0,0c0.8-1.1,1.5-2.2,2.2-3.4c0.8-1.5,1.7-3.3,2.7-5.6c0.3,0.1,0.6,0.1,1,0.1c0.5,0,1-0.1,1.5-0.2
							c0.3-0.1,0.5-0.1,0.8-0.2c0.1,0,0.1,0,0.1,0.1s0,0.1,0,0c-0.1,0.2-0.4,0.7-0.8,1.6c-0.4,0.8-0.8,1.8-1.2,2.8
							c-0.4,1-0.8,2-1.1,3c-0.3,0.8-0.5,1.5-0.5,2.3c-0.1,1.2,0.3,2.3,1,3.3c0.7,0.7,1.7,1.1,2.7,1.1c0.9,0,1.7-0.4,2.3-1
							c0.8-0.7,1.5-1.4,2.2-2.3c0.2-0.3,0.4-0.6,0.6-0.9c0.1,0.2,0.1,0.5,0.2,0.7c0.2,0.6,0.6,1.2,1.1,1.7c0.5,0.5,1,0.9,1.6,1.2
							c0.6,0.3,1.4,0.4,2.1,0.4c0.4,0,0.8-0.2,1.1-0.4c0.5-0.3,0.9-0.7,1.3-1.1c0.5-0.5,0.9-1,1.3-1.5c0.4-0.5,0.8-1.1,1.1-1.7
							c-0.1,1.3,0.2,2.6,1,3.6c0.7,0.7,1.7,1.1,2.8,1.1c0.4,0,0.7-0.1,1-0.2c-0.1,0.2-0.1,0.5-0.1,0.8c0,0.6,0.1,1.3,0.4,1.8
							c0.3,0.6,0.6,1.1,1.1,1.5c0.5,0.4,1,0.8,1.6,1c0.6,0.2,1.2,0.4,1.9,0.3c0.8,0,1.6-0.2,2.4-0.5c0.9-0.4,1.7-0.9,2.3-1.6
							c0.7-0.7,1.3-1.6,1.8-2.5c0.5-1.1,0.7-2.3,0.7-3.4c0-0.7-0.1-1.4-0.3-2c-0.2-0.6-0.4-1.3-0.6-1.9s-0.4-1.3-0.6-1.9
							c-0.2-0.7-0.3-1.3-0.3-2c0-0.6,0.1-1.3,0.2-1.9C129.4,13.7,129.7,13,130.1,12.3z M12.2,13.6c-0.1,0.6-0.3,1.1-0.6,1.6
							c-0.3,0.7-0.7,1.4-1.1,2.1C10,18.1,9.5,18.9,9,19.7c-0.5,0.8-1,1.4-1.5,2c-0.4,0.5-0.9,1-1.3,1.5c-0.4,0.4-0.7,0.6-0.9,0.6
							c-0.2,0-0.4-0.1-0.6-0.3c-0.1-0.2-0.2-0.5-0.2-0.7c0-1.2,0.2-2.4,0.6-3.5c0.4-1.2,0.9-2.3,1.5-3.4c0.5-0.9,1.2-1.8,1.9-2.6
							c0.4-0.6,1.1-0.9,1.8-1c0.5,0,1,0.1,1.4,0.4C12.1,12.9,12.3,13.3,12.2,13.6L12.2,13.6z M48.2,13.6c-0.1,0.6-0.3,1.1-0.6,1.6
							c-0.3,0.7-0.7,1.4-1.1,2.1c-0.4,0.7-0.9,1.5-1.4,2.3s-1,1.4-1.5,2c-0.4,0.5-0.8,1-1.3,1.5c-0.4,0.4-0.7,0.6-0.9,0.6
							c-0.2,0-0.4-0.1-0.6-0.3c-0.1-0.2-0.2-0.5-0.2-0.7c0-1.2,0.2-2.4,0.6-3.5c0.4-1.2,0.9-2.3,1.5-3.4c0.5-0.9,1.2-1.8,1.9-2.6
							c0.4-0.6,1.1-0.9,1.8-1c0.5,0,1,0.1,1.4,0.4C48.1,12.9,48.2,13.3,48.2,13.6L48.2,13.6z M66.9,13.6c-0.1,0.6-0.3,1.1-0.6,1.6
							c-0.3,0.7-0.7,1.4-1.1,2.1c-0.4,0.7-0.9,1.5-1.4,2.3s-1,1.4-1.5,2c-0.4,0.5-0.8,1-1.3,1.5c-0.4,0.4-0.7,0.6-0.9,0.6
							c-0.2,0-0.4-0.1-0.6-0.3c-0.1-0.2-0.2-0.5-0.2-0.7c0-1.2,0.2-2.4,0.6-3.5c0.4-1.2,0.9-2.3,1.5-3.4c0.5-0.9,1.2-1.8,1.9-2.6
							c0.4-0.6,1.1-0.9,1.8-1c0.5,0,1,0.1,1.4,0.4C66.8,12.9,67,13.3,66.9,13.6L66.9,13.6z M84.6,15.6c-0.2,0.8-0.4,1.6-0.6,2.3
							c-0.5,0.1-1,0.4-1.4,0.8c-0.4,0.4-0.6,1-0.6,1.6c0,0.5,0.1,0.9,0.2,1.4c-0.3,0.5-0.7,1-1.2,1.5c-0.4,0.4-0.9,0.5-1.5,0.5
							c-0.7,0.1-1.4-0.3-1.7-0.9c-0.3-0.7-0.4-1.5-0.3-2.3c0.1-1,0.3-2,0.7-3c0.4-1,0.9-2,1.4-3c0.5-0.9,1.1-1.6,1.8-2.3
							c0.5-0.5,1.1-0.8,1.8-0.9c0.5,0,0.9,0.2,1.2,0.6c0.3,0.5,0.4,1.1,0.3,1.6C84.9,14.3,84.8,15,84.6,15.6L84.6,15.6z M95.4,7.7
							c-0.2,0.6-0.5,1.4-0.9,2.4C94.2,10,94,9.8,93.8,9.5c-0.1-0.3-0.1-0.5-0.1-0.8c0-0.3,0.1-0.6,0.2-0.8c0.1-0.3,0.3-0.7,0.5-1
							c0.2-0.3,0.3-0.5,0.6-0.8c0.1-0.2,0.3-0.3,0.5-0.3c0.1,0,0.2,0.2,0.2,0.6C95.6,6.9,95.5,7.3,95.4,7.7L95.4,7.7z M116,13.6
							c-0.1,0.6-0.3,1.1-0.6,1.6c-0.3,0.7-0.7,1.4-1.1,2.1c-0.4,0.7-0.9,1.5-1.4,2.3s-1,1.4-1.5,2c-0.4,0.5-0.9,1-1.3,1.5
							c-0.4,0.4-0.7,0.6-0.9,0.6c-0.2,0-0.4-0.1-0.6-0.3c-0.1-0.2-0.2-0.5-0.2-0.7c0-1.2,0.2-2.4,0.6-3.5c0.4-1.2,0.9-2.3,1.5-3.4
							c0.5-0.9,1.2-1.8,1.9-2.6c0.4-0.6,1.1-0.9,1.8-1c0.5,0,1,0.1,1.4,0.4C115.9,12.9,116.1,13.3,116,13.6L116,13.6z M125.9,26.9
							c-0.2,0.7-0.4,1.3-0.8,1.9c-0.3,0.4-0.6,0.8-1,1.1c-0.3,0.2-0.7,0.3-1.1,0.3c-0.6,0.1-1.1-0.2-1.5-0.6
							c-0.3-0.4-0.5-0.9-0.4-1.4c0-0.6,0.2-1.1,0.5-1.6c0.3-0.5,0.8-0.8,1.4-0.9c0,0,0.1,0,0.1-0.1c0,0,0,0,0,0
							c0-0.1-0.2-0.3-0.6-0.6c-0.3-0.2-0.7-0.4-1.1-0.4c0.2-0.3,0.5-0.6,0.7-0.9c0.5-0.7,0.9-1.4,1.3-2.1c0.1-0.1,0.3-0.2,0.4-0.4
							c0.3-0.4,0.5-0.7,0.7-1.1c0.3-0.7,0.6-1.4,0.8-2.2c0.3,1.3,0.6,2.4,0.8,3.3c0.2,0.9,0.3,1.9,0.3,2.8
							C126.2,25.1,126.1,26,125.9,26.9L125.9,26.9z"/>
					</g>
					<g id="Grupo_374">
						<path id="Trazado_634" d="M26.3,25.9c-0.6-0.3-1.2-0.5-1.9-0.6c-0.6-0.1-0.8,0.1-0.8,0.5c-0.1,0.6-0.2,1.2-0.4,1.8
							c-0.4,1.1-0.8,2.2-1.3,3.2c-0.5,1.2-1.2,2.5-1.9,3.9c-0.7,1.3-1.5,2.5-2.3,3.7c-0.8,1-1.6,2-2.6,2.8c-0.7,0.7-1.7,1.1-2.7,1.1
							c-1.5,0-2.9-0.5-4-1.5c-1.2-1-1.8-2.6-1.8-4.8c0-2.6,0.4-5.2,1-7.8c0.7-2.6,1.6-5.1,2.7-7.6c1.1-2.4,2.4-4.6,3.8-6.8
							c1.3-1.9,2.7-3.8,4.2-5.5c1.2-1.4,2.6-2.6,4-3.7c0.9-0.8,2-1.2,3.2-1.3c0.6,0,1.2,0.3,1.5,0.8c0.3,0.5,0.5,1.1,0.5,1.7
							c-0.1,1.2-0.4,2.4-0.9,3.5c-0.6,1.4-1.3,2.8-2.1,4.1c-0.7,1.2-1.5,2.3-2.4,3.4c-0.8,0.9-1.5,1.4-2,1.4c-0.2,0-0.3-0.1-0.4-0.2
							c-0.1-0.1-0.2-0.1-0.3-0.2c-0.2,0-0.4,0.1-0.6,0.4c-0.2,0.2-0.3,0.6-0.3,0.9c0,0.4,0.2,0.8,0.4,1c0.3,0.4,0.7,0.7,1.1,1
							c0.5,0.3,1,0.5,1.5,0.7c0.6,0.2,1.1,0.3,1.7,0.3c0.6,0,1.4-0.5,2.3-1.5c1-1.2,1.9-2.4,2.7-3.7c0.9-1.5,1.6-3,2.2-4.5
							c0.6-1.3,0.9-2.6,0.9-4c0-1-0.1-2-0.3-2.9c-0.2-0.9-0.6-1.9-1.1-2.7c-0.5-0.8-1.2-1.5-2-1.9c-0.9-0.5-2-0.8-3-0.8
							c-1.8,0.1-3.6,0.6-5.2,1.5c-2,1.1-3.9,2.5-5.6,4c-2,1.8-3.8,3.8-5.4,6c-1.7,2.3-3.3,4.7-4.6,7.3C3.1,21.3,2,24,1.2,26.7
							C0.4,29.3,0,32,0,34.7c0,1.8,0.3,3.5,0.9,5.2c0.6,1.5,1.4,2.8,2.5,3.9c1,1,2.2,1.9,3.5,2.5c1.3,0.6,2.6,0.9,4,0.9
							c2.1-0.1,4.1-1,5.6-2.5c2-2,3.6-4.3,5-6.7c-0.7,1.8-1.5,3.7-2.5,5.7s-2.1,4-3.1,5.8C15.1,51,14.1,52.5,13,54
							c-0.9,1.2-1.6,1.8-2.1,1.8c-0.1,0-0.1,0-0.2,0c-0.1,0-0.1,0-0.2,0c-0.2,0-0.4,0.1-0.5,0.2c-0.2,0.2-0.3,0.4-0.3,0.7
							c0,0.3,0.5,0.7,1.4,1.1c1.4,0.4,2.8,0.6,4.2,0.6c0.6,0,1.2-0.1,1.8-0.2c0.6-0.1,1.1-0.4,1.5-0.8c0,0,0.3-0.7,0.9-1.9
							c0.5-1.2,1.2-2.7,1.9-4.5c0.8-1.8,1.6-3.8,2.4-6.1s1.7-4.4,2.4-6.4c0.8-2.1,1.4-3.9,1.9-5.6c0.4-1.2,0.7-2.4,0.8-3.6
							c0-0.7-0.4-1.4-0.9-1.8C27.7,26.7,27,26.2,26.3,25.9z"/>
					</g>
				</g>
				<g id="Grupo_376" transform="translate(25.761 40.6)">
					<path id="Trazado_635" class="st4" d="M0,2.6l2.4,4l4.1-3.3L4.2,0.3L1.6,0"/>
				</g>
			</g>
			<g id="Grupo_378" transform="translate(-293.885 -607.994)">
				<path id="Trazado_636" class="st1" d="M58.4,35.5c2.6-4.8,2.5-9.7-0.3-14.5c-1.7-3-4.7-5-8.1-5.3c0,0-0.1,0-0.1,0L49.1,15
					c0-0.1-0.1-0.1-0.1-0.2c-2.1-5.2-6.9-8.1-11.8-7c-0.7,0.1-0.8,0.1-1.1-0.4c-2.3-3.1-5.7-5.1-9.5-5.5c-5-0.6-9.2,2-11.6,7
					c0,0.1-0.1,0.1-0.1,0.2l-1.6,1.1c-3-0.4-6,0.6-8.3,2.6c-2.2,2.1-3.3,5.3-3.1,9C2,25,3.5,28,5.9,30.1l0.7,3.5
					c-0.2,0.5-0.3,1-0.4,1.5c-0.3,1.2-0.6,2-0.1,2.8s1.2,1,2.4,1.3c0.1,0,0.2,0,0.3,0c1.6,0,3.3,0.1,4.9,0.3c0.1,0,0.2,0,0.4,0
					c0.4,0.1,0.7,0.1,1.1,0.2c1,0.2,2,0.4,2.9,0.6l0.5,0.1c8.1,2,15.8,5.4,22.6,10.2c0,0,0.1,0.1,0.1,0.1c0.7,0.4,1.4,0.7,2.2,0.8
					c0.2,0,0.4,0,0.7-0.1c0.8-0.3,1.1-1.1,1.5-2.3c0.2-0.6,0.4-1.2,0.7-1.8l0.3,0.1c1.1,0.5,2.1,1,3.3,1.3c2.1,0.7,4.3,0.4,6.1-0.8
					c1.8-1.3,3-3.3,3.2-5.5c0.2-1.9-0.2-3.9-1.1-5.6L58.4,35.5z"/>
				<path id="Trazado_637" class="st1" d="M43.6,53.2c-1.1-0.1-2.1-0.4-3-1c-0.1-0.1-0.2-0.1-0.4-0.2c-6.7-4.6-14.1-8-22-9.9
					L17.7,42c-0.9-0.2-1.8-0.4-2.8-0.6L14,41.2c-0.2,0-0.4,0-0.5,0c-1.5-0.2-3.1-0.3-4.6-0.3c-0.3,0-0.5,0-0.8-0.1
					c-1.4-0.3-2.7-0.7-3.6-2.1S4,35.9,4.4,34.6c0.1-0.4,0.2-0.7,0.3-1.1L4.3,31c-2.5-2.4-4-5.7-4.2-9.2c-0.3-4.3,1-8,3.6-10.5
					c2.5-2.2,5.7-3.4,9-3.1l0.7-0.5c2.7-5.5,7.7-8.4,13.3-7.7c4.1,0.4,7.9,2.5,10.5,5.8c5.6-1,11,2.2,13.4,7.9l0.1,0
					c3.8,0.5,7.2,2.8,9.1,6.2c3.1,4.8,3.2,11,0.5,16l0,0.3c0.9,1.9,1.3,4,1,6.1c-0.2,2.8-1.7,5.3-4,6.8c-2.3,1.5-5.1,1.8-7.6,1
					c-0.7-0.2-1.4-0.4-2-0.7c-0.5,1.3-1,2.7-2.5,3.4C44.6,53.1,44.1,53.2,43.6,53.2z M42.2,49c0.4,0.3,0.9,0.5,1.4,0.6
					c0.2-0.4,0.3-0.8,0.5-1.2c0.2-0.6,0.4-1.2,0.7-1.8l0.6-1.7l2.1,0.8c1,0.5,2,0.9,3,1.2c1.6,0.5,3.3,0.3,4.6-0.6
					c1.4-1,2.2-2.5,2.4-4.2c0.2-1.6-0.1-3.1-0.9-4.5L56.4,37l0.3-2.1l0.2-0.3c2.3-4.2,2.2-8.4-0.3-12.8c-1.4-2.5-3.9-4.1-6.7-4.4
					c-0.1,0-0.2,0-0.2,0l-0.4-0.1l-1.6-1.1l-0.2-0.4c0-0.1-0.1-0.2-0.1-0.3c-1.7-4.4-5.7-6.8-9.8-5.9c-1.1,0.4-2.3-0.1-3-1.1
					c-2-2.7-5-4.4-8.3-4.8c-4.2-0.5-7.7,1.6-9.8,6l-0.3,0.6L13.6,12L13,11.9c-2.5-0.3-5,0.4-6.9,2.1c-1.8,1.7-2.7,4.4-2.5,7.6
					c0.2,2.7,1.4,5.3,3.5,7.1l0.4,0.4l0.9,4.5l-0.1,0.4c-0.2,0.5-0.3,0.9-0.4,1.4c-0.2,0.4-0.3,0.9-0.3,1.4c0.4,0.2,0.8,0.3,1.2,0.4
					c1.7,0,3.3,0.1,5,0.3l0.2,0l0.3,0.1c0.4,0.1,0.7,0.1,1.1,0.2c1.1,0.2,2,0.4,3,0.6l0.5,0.1C27.4,40.6,35.2,44.1,42.2,49z
					 M42.3,49L42.3,49z M8.8,37.3L8.8,37.3z"/>
			</g>
			<g id="Trazado_621" transform="translate(-291.097 -605.206)">
				<path id="Trazado_638" d="M5.2,27.4c0.6,0.3,0.8,1,0.6,1.6c0,0,0,0,0,0.1c-0.4,1.2-0.8,2.3-1.2,3.5c-0.6,2-0.5,2,1.5,2.5
					c1.7,0,3.4,0.1,5.1,0.3c0,0,0-0.1,0-0.1c1.6,0.3,3.1,0.5,4.5,0.9c0.2,0,0.3,0.1,0.5,0.1c8.2,2,16,5.5,23,10.4c2.1,1,2.1,1,2.8-1
					c0.4-1.1,0.8-2.1,1.1-3c1.5,0.7,3,1.4,4.6,1.9c4,1.1,7.3-1.2,7.8-5.3c0.2-1.8-0.2-3.6-1.1-5.2c-0.3-0.4-0.3-1.1,0-1.5
					c2.8-4.6,2.7-9.3,0-13.9c-1.5-2.6-4.1-4.4-7.1-4.7c-1,0-1.8-0.7-2-1.6c-1.8-4.6-6.1-7.2-10.5-6.3c-0.9,0.3-1.9,0-2.4-0.8
					c-2.1-2.8-5.2-4.6-8.7-5c-4.5-0.5-8.2,1.8-10.4,6.3c-0.4,0.7-0.7,1.5-1,2.2c-7.4-1.6-12.4,2.6-12,10C0.5,22.3,2.3,25.5,5.2,27.4
					z M41.1,42.7L36,40l-0.1,0.2c1.3,1,2.5,2,3.8,3c1.1,0.8,1.3,1.6,0.4,2.8C29.7,39,18.5,34.2,5.6,33.5c0.5-1.3,0.8-2.4,1.3-3.4
					c0.1-0.2,0.6-0.3,0.9-0.4c2-0.1,4-0.2,6-0.4c-1-0.2-2-0.3-3-0.5c-1.1-0.1-2.1-0.2-3.3-0.3c0.4-1.2,1.7-2,3-1.7
					c4.1,0.6,8.2,1.1,12.2,2c5.6,1.5,10.9,3.8,15.9,6.8c0.4,0.2,0.8,0.5,1.2,0.8C42.2,38.4,42.5,39.8,41.1,42.7L41.1,42.7z
					 M4.5,11.9c1.7-1.8,4.4-2.2,6.5-1c0.5,0.3,0.9,0.7,1.1,1.3c0.6,1.3,1.1,2.7,1.7,4.1c-1.2-7,0.9-11.9,6.2-13.7
					c4.3-1.5,8.9,0.7,11.1,5l-3.5,5.2l0.2,0.1c0.8-0.9,1.7-1.8,2.7-2.5c1.4-0.9,2.9-1.6,4.5-2c4.1-0.7,7.3,1.7,8.5,6.2l-3.1,1.9
					c5.2-1.4,9.6-0.5,12.5,4.4c2.1,3.5,1.7,8.3-0.5,11l-1.7-1.2l-0.1,0.1c0.5,0.7,0.9,1.3,1.3,2.1c0.8,1.6,1.4,3.3,1.9,5
					c0.6,3.5-2.1,5.8-5.5,4.8c-1.3-0.5-2.6-1.1-3.8-1.9c-0.3-0.2-0.4-0.5-0.5-0.9c0.1-1.5-0.6-2.9-1.8-3.7c-1.2-0.9-2.4-1.7-3.7-2.5
					c-1.4-0.9-1.5-1.6-0.1-2.5c1.3-0.8,2.8-1.4,4.3-2.2c-0.9,0-1.8,0.1-2.7,0.2c-0.7,0.2-1.4,0.4-2.1,0.8c-3.6,1.6-7,1-10.3-0.8
					S22.8,24,23.5,20c0.1-0.4,0.1-0.8-0.1-1.1c-0.3,0.8-0.7,1.5-0.9,2.3c-0.4,1.1-0.7,2.2-1.1,3.3c-0.4,1.2-1.6,2-2.9,1.9
					c-0.2,0-0.5,0-0.7,0c-4.7-0.2-6.5-2.5-5.7-7.1c0.1-0.2,0.1-0.5,0-0.7c-1.2,2-1.8,4.3-1.5,6.6c-1.1,0.3-2,0.5-2.9,0.7
					c-0.4,0-0.8,0-1.1-0.2C1.6,23.1,0.6,15.6,4.5,11.9L4.5,11.9z"/>
				<path id="Trazado_639" class="st5" d="M40.9,47.6c-0.6-0.1-1.3-0.4-1.8-0.7c-7-4.8-14.7-8.3-23-10.3l-0.5-0.1
					c-1-0.2-2-0.4-3-0.6c-0.4-0.1-0.9-0.2-1.3-0.2l-0.2,0c-1.7-0.2-3.4-0.4-5.1-0.3h0l0,0c-1.1-0.3-1.6-0.4-1.8-0.8s-0.1-1,0.2-2
					C4.7,31.3,5,30.1,5.5,29c0.3-0.7,0.2-1-0.4-1.4c-2.9-2-4.8-5.2-5-8.7c-0.2-3.6,0.9-6.6,3.1-8.5s5.4-2.5,9-1.8
					c0.1-0.2,0.1-0.3,0.2-0.5c0.2-0.5,0.4-1,0.7-1.5c2.2-4.6,6.1-7,10.6-6.4c3.5,0.4,6.7,2.2,8.8,5.1c0.4,0.7,1.3,1.1,2.1,0.8
					C39,5,43.4,7.6,45.3,12.3c0.2,0.9,1,1.5,1.9,1.5c3.1,0.3,5.8,2.1,7.3,4.8c2.8,4.8,2.8,9.6,0,14.2c-0.3,0.4-0.3,0.9,0,1.2
					c1,1.6,1.4,3.5,1.2,5.3c-0.2,1.9-1.2,3.7-2.7,4.8c-1.6,1-3.5,1.2-5.3,0.7c-1.1-0.3-2.1-0.7-3.1-1.2c-0.4-0.2-0.8-0.4-1.3-0.6
					l-0.2,0.6c-0.3,0.7-0.5,1.4-0.8,2.2c-0.4,1-0.6,1.6-1,1.7C41.1,47.6,41,47.6,40.9,47.6z M11.1,35.1c0.5,0.1,1,0.2,1.5,0.3
					c1,0.2,2,0.4,3,0.6l0.5,0.1c8.3,2,16.1,5.5,23.1,10.4c0.9,0.4,1.4,0.7,1.7,0.6c0.2-0.1,0.4-0.6,0.7-1.4c0.3-0.8,0.6-1.5,0.8-2.2
					l0.4-1.1l0.2,0.1c0.5,0.2,1,0.5,1.5,0.7c1,0.5,2,0.9,3,1.2c1.7,0.5,3.5,0.3,5-0.6c1.5-1.1,2.4-2.7,2.5-4.5
					c0.2-1.7-0.2-3.5-1.1-5c-0.4-0.5-0.4-1.2,0-1.7c2.7-4.4,2.7-9.1,0-13.7c-1.4-2.6-4-4.3-7-4.6c-1,0-2-0.7-2.2-1.7
					c-1.8-4.5-6-7-10.2-6.2c-1,0.3-2-0.1-2.6-0.9c-2-2.8-5.1-4.5-8.5-4.9C19.2,0,15.5,2.3,13.4,6.7c-0.2,0.5-0.5,1-0.7,1.5
					c-0.1,0.2-0.2,0.5-0.3,0.7l-0.1,0.2l-0.2,0c-3.5-0.8-6.6-0.2-8.8,1.6c-2.1,1.8-3.1,4.7-2.9,8.2c0.2,3.4,2,6.5,4.8,8.4l0,0
					c0.7,0.4,1,1.2,0.6,1.9c0,0,0,0,0,0c-0.4,1.1-0.8,2.3-1.2,3.5c-0.3,0.9-0.4,1.4-0.3,1.7s0.7,0.4,1.5,0.6c1.6,0,3.3,0.1,4.9,0.3
					v0L11.1,35.1z M40.2,46.3L40,46.1C28.5,38.4,17.3,34.4,5.6,33.7l-0.3,0l0.1-0.3c0.1-0.4,0.2-0.7,0.4-1C6,31.5,6.3,30.7,6.6,30
					c0.2-0.4,1.1-0.5,1.1-0.5c0.5,0,1.1-0.1,1.6-0.1c0.8-0.1,1.7-0.1,2.6-0.2c-0.4-0.1-0.8-0.1-1.2-0.2c-0.7-0.1-1.5-0.1-2.2-0.2
					c-0.4,0-0.7,0-1.1-0.1l-0.3,0l0.1-0.3c0.5-1.3,1.8-2.1,3.2-1.8c0.8,0.1,1.6,0.2,2.3,0.3c3.3,0.4,6.6,1,9.9,1.7
					c5.6,1.5,11,3.8,15.9,6.9c0.4,0.2,0.8,0.5,1.2,0.8c2.6,1.9,3,3.5,1.6,6.5l-0.1,0.2l-4.4-2.4l0.3,0.3c0.9,0.7,1.8,1.4,2.7,2
					c0.5,0.3,0.9,0.8,1,1.4c0,0.6-0.2,1.2-0.6,1.7L40.2,46.3z M5.9,33.2C17.5,34,28.7,38,40,45.6c0.3-0.3,0.4-0.8,0.4-1.2
					c-0.1-0.5-0.4-0.9-0.9-1.1c-0.9-0.6-1.8-1.4-2.7-2.1c-0.4-0.3-0.8-0.6-1.1-0.9l-0.2-0.1l0.3-0.6l5.1,2.8c1.2-2.7,0.9-4-1.5-5.7
					c-0.4-0.3-0.8-0.5-1.2-0.8c-4.9-3.1-10.2-5.3-15.8-6.8c-3.3-0.7-6.6-1.3-9.9-1.7c-0.8-0.1-1.6-0.2-2.3-0.3
					c-1.1-0.2-2.1,0.3-2.6,1.3l0.8,0.1c0.8,0.1,1.5,0.1,2.2,0.2c0.7,0.1,1.4,0.2,2.1,0.3c0.3,0.1,0.6,0.1,0.9,0.1l1.8,0.3l-1.8,0.2
					c-1.5,0.2-3,0.2-4.4,0.3c-0.5,0-1.1,0.1-1.6,0.1c-0.3,0-0.5,0.1-0.7,0.2c-0.3,0.7-0.6,1.5-0.9,2.3C6.1,32.7,6,33,5.9,33.2
					L5.9,33.2z M49.8,43c-0.6,0-1.1-0.1-1.6-0.2c-1.1-0.4-2.1-0.8-3.1-1.4c-0.3-0.2-0.5-0.3-0.8-0.5c-0.3-0.2-0.6-0.6-0.6-1
					c0.1-1.4-0.6-2.8-1.8-3.5c-1.2-0.9-2.5-1.7-3.6-2.5c-0.8-0.5-1.2-1-1.2-1.5c0-0.5,0.4-0.9,1.1-1.4c0.7-0.4,1.4-0.8,2.1-1.1
					c0.4-0.2,0.9-0.4,1.3-0.7c-0.6,0-1.2,0.1-1.7,0.2c-0.7,0.2-1.4,0.4-2.1,0.8c-3.4,1.5-6.8,1.3-10.5-0.8c-3.3-1.9-4.8-5.2-4-9.4
					c0-0.1,0-0.2,0.1-0.3l0,0c-0.2,0.5-0.4,1.1-0.6,1.6c-0.2,0.4-0.3,0.9-0.4,1.4c-0.2,0.6-0.4,1.3-0.7,1.9c-0.5,1.3-1.7,2.1-3.1,2
					h-0.1c-0.2,0-0.4,0-0.6,0c-2.4-0.1-4.1-0.8-5.1-2c-1-1.2-1.2-2.9-0.9-5.1c-0.8,1.8-1.2,3.7-1,5.7l0,0.2l-0.2,0
					c-0.3,0.1-0.6,0.1-0.9,0.2c-0.7,0.2-1.4,0.3-2,0.4c-0.4,0-0.9,0-1.3-0.3C4,24.4,2.3,22,2,19.3c-0.5-2.8,0.4-5.6,2.4-7.5l0,0
					c1.8-1.8,4.5-2.2,6.8-1.1c0.5,0.3,0.9,0.8,1.2,1.4c0.2,0.5,0.4,1,0.6,1.5c0.1,0.4,0.3,0.7,0.5,1.1C12.7,8.3,15,3.9,20,2.2
					c4.4-1.5,9.1,0.7,11.4,5.1l0.1,0.1l-2.9,4.3c0.6-0.6,1.2-1.2,1.9-1.7c1.4-1,2.9-1.7,4.6-2.1c4.2-0.7,7.5,1.7,8.7,6.4l0,0.2
					l-2.1,1.3c5.2-1,9,0.6,11.4,4.8c2.1,3.5,1.8,8.4-0.5,11.3L52.4,32l-1.3-0.9l0,0c0.3,0.5,0.6,1,0.9,1.5c0.1,0.3,0.3,0.7,0.5,1
					c0.6,1.3,1.1,2.6,1.4,4c0.4,1.6-0.1,3.2-1.3,4.3C51.9,42.6,50.9,43,49.8,43L49.8,43z M43.5,28.7l-0.7,0.4
					c-0.7,0.4-1.5,0.8-2.2,1.1c-0.7,0.4-1.4,0.7-2.1,1.1c-0.6,0.4-0.9,0.7-0.9,1c0,0.3,0.3,0.7,1,1.1c1.2,0.7,2.5,1.6,3.7,2.5
					c1.3,0.9,2,2.3,1.9,3.9c0,0.3,0.2,0.5,0.4,0.7c0.3,0.1,0.5,0.3,0.8,0.4c0.9,0.6,1.9,1,3,1.4c1.4,0.5,2.9,0.2,4.1-0.7
					c1-1,1.5-2.5,1.1-3.9c-0.3-1.3-0.8-2.7-1.4-3.9c-0.2-0.3-0.3-0.7-0.5-1c-0.2-0.5-0.5-1-0.8-1.4c-0.1-0.2-0.3-0.4-0.4-0.6
					l-0.1-0.2l0.4-0.4l1.7,1.2c2.1-2.7,2.3-7.3,0.4-10.6c-2.6-4.3-6.6-5.7-12.3-4.3L39,16.9l4.3-2.6C42.1,10,39,7.7,35.1,8.4
					c-1.6,0.4-3.1,1.1-4.4,2c-0.7,0.5-1.3,1-1.9,1.7c-0.3,0.3-0.5,0.6-0.8,0.8l-0.1,0.1l-0.5-0.3l3.6-5.3c-2.2-4.2-6.7-6.2-10.8-4.8
					c-5.1,1.8-7.3,6.5-6.1,13.5l0.3,1.5l-0.7-1.4c-0.4-0.8-0.8-1.7-1.1-2.6c-0.2-0.5-0.4-1-0.6-1.5c-0.2-0.5-0.5-0.9-1-1.2
					c-2.1-1.1-4.6-0.7-6.2,1c-1.9,1.9-2.7,4.5-2.3,7.2c0.3,2.6,1.9,4.9,4.1,6.1c0.3,0.2,0.7,0.2,1,0.2c0.6-0.1,1.3-0.3,2-0.4
					c0.2-0.1,0.5-0.1,0.7-0.2c-0.2-2.3,0.4-4.6,1.6-6.6l0.3-0.5l0.1,0.6c0,0.3,0,0.5,0,0.8c-0.4,2.3-0.2,3.9,0.8,5s2.5,1.7,4.8,1.8
					c0.2,0,0.4,0,0.6,0h0.2c1.2,0.1,2.3-0.6,2.7-1.8c0.3-0.6,0.5-1.3,0.7-1.9c0.1-0.5,0.3-0.9,0.4-1.4c0.2-0.5,0.4-1.1,0.6-1.6
					c0.1-0.2,0.2-0.5,0.3-0.7l0.2-0.5l0.2,0.5c0.2,0.4,0.2,0.9,0.1,1.3c-0.7,3.9,0.7,7.1,3.8,8.9c3.6,2,6.9,2.3,10.1,0.8
					c0.7-0.3,1.4-0.6,2.2-0.8c0.9-0.1,1.8-0.2,2.8-0.2L43.5,28.7z"/>
			</g>
		</g>
	</g>
</g>
</svg>
